%TF.GenerationSoftware,Altium Limited,Altium Designer,26.7.1 (11)*%
G04 Layer_Color=16711935*
G04 Board_Origin=422609843|264714566*
%FSLAX45Y45*%
%MOMM*%
%TF.SameCoordinates,74912732-F67B-42A7-AE06-28B4DB1FB38D*%
%TF.FilePolarity,Negative*%
%TF.FileFunction,Soldermask,Bot*%
%TF.Part,Single*%
G01*
G75*
%TA.AperFunction,NonConductor*%
%ADD91C,0.30000*%
%ADD101C,3.00000*%
%ADD102C,2.99999*%
%TA.AperFunction,SMDPad,CuDef*%
%ADD111R,2.60000X5.80000*%
%TA.AperFunction,ComponentPad*%
%ADD176C,2.52500*%
%ADD177C,3.20000*%
%ADD178C,2.20000*%
%ADD179O,1.60000X2.20000*%
%ADD180O,1.12700X2.32700*%
%ADD181O,1.12700X1.92700*%
%ADD182C,1.10000*%
G36*
X12200000Y1D02*
X12200000Y0D01*
X0D01*
Y9800000D01*
X12200000D01*
Y1D01*
D02*
G37*
%LPC*%
G36*
X11900000Y9500000D02*
X300000D01*
Y300000D01*
X11900000D01*
Y9500000D01*
D02*
G37*
%LPD*%
G36*
X9474199Y3158985D02*
X9474200Y3149669D01*
X9470565Y3131394D01*
X9463434Y3114180D01*
X9453083Y3098687D01*
X9446495Y3092100D01*
X9048999Y3489596D01*
X9031309Y3507285D01*
X9003512Y3548887D01*
X8984365Y3595112D01*
X8974604Y3644184D01*
Y3669201D01*
Y3669201D01*
Y5081474D01*
X8517196Y5638800D01*
X9474200D01*
X9474199Y3158985D01*
D02*
G37*
G36*
X9446495Y3092100D02*
X9446495D01*
X9446495D01*
D01*
D02*
G37*
D91*
X4755440Y-5177981D02*
Y-5357942D01*
Y-5177981D02*
X4832566D01*
X4858275Y-5186550D01*
X4866845Y-5195120D01*
X4875414Y-5212259D01*
Y-5229398D01*
X4866845Y-5246538D01*
X4858275Y-5255107D01*
X4832566Y-5263677D01*
X4755440D02*
X4832566D01*
X4858275Y-5272247D01*
X4866845Y-5280816D01*
X4875414Y-5297955D01*
Y-5323664D01*
X4866845Y-5340803D01*
X4858275Y-5349373D01*
X4832566Y-5357942D01*
X4755440D01*
X4958539Y-5237968D02*
X4941400Y-5246538D01*
X4924261Y-5263677D01*
X4915691Y-5289386D01*
Y-5306525D01*
X4924261Y-5332233D01*
X4941400Y-5349373D01*
X4958539Y-5357942D01*
X4984248D01*
X5001387Y-5349373D01*
X5018526Y-5332233D01*
X5027096Y-5306525D01*
Y-5289386D01*
X5018526Y-5263677D01*
X5001387Y-5246538D01*
X4984248Y-5237968D01*
X4958539D01*
X5092225Y-5177981D02*
Y-5323664D01*
X5100794Y-5349373D01*
X5117934Y-5357942D01*
X5135073D01*
X5066516Y-5237968D02*
X5126503D01*
X5186491Y-5177981D02*
Y-5323664D01*
X5195060Y-5349373D01*
X5212199Y-5357942D01*
X5229338D01*
X5160782Y-5237968D02*
X5220769D01*
X5297895D02*
X5280756Y-5246538D01*
X5263617Y-5263677D01*
X5255047Y-5289386D01*
Y-5306525D01*
X5263617Y-5332233D01*
X5280756Y-5349373D01*
X5297895Y-5357942D01*
X5323604D01*
X5340743Y-5349373D01*
X5357882Y-5332233D01*
X5366452Y-5306525D01*
Y-5289386D01*
X5357882Y-5263677D01*
X5340743Y-5246538D01*
X5323604Y-5237968D01*
X5297895D01*
X5405872D02*
Y-5357942D01*
Y-5272247D02*
X5431581Y-5246538D01*
X5448720Y-5237968D01*
X5474428D01*
X5491568Y-5246538D01*
X5500137Y-5272247D01*
Y-5357942D01*
Y-5272247D02*
X5525846Y-5246538D01*
X5542985Y-5237968D01*
X5568694D01*
X5585833Y-5246538D01*
X5594403Y-5272247D01*
Y-5357942D01*
X5912334Y-5203690D02*
X5895195Y-5186550D01*
X5869487Y-5177981D01*
X5835208D01*
X5809499Y-5186550D01*
X5792360Y-5203690D01*
Y-5220829D01*
X5800930Y-5237968D01*
X5809499Y-5246538D01*
X5826639Y-5255107D01*
X5878056Y-5272247D01*
X5895195Y-5280816D01*
X5903765Y-5289386D01*
X5912334Y-5306525D01*
Y-5332233D01*
X5895195Y-5349373D01*
X5869487Y-5357942D01*
X5835208D01*
X5809499Y-5349373D01*
X5792360Y-5332233D01*
X5995460Y-5237968D02*
X5978321Y-5246538D01*
X5961181Y-5263677D01*
X5952612Y-5289386D01*
Y-5306525D01*
X5961181Y-5332233D01*
X5978321Y-5349373D01*
X5995460Y-5357942D01*
X6021168D01*
X6038307Y-5349373D01*
X6055447Y-5332233D01*
X6064016Y-5306525D01*
Y-5289386D01*
X6055447Y-5263677D01*
X6038307Y-5246538D01*
X6021168Y-5237968D01*
X5995460D01*
X6103436Y-5177981D02*
Y-5357942D01*
X6243978Y-5177981D02*
Y-5357942D01*
Y-5263677D02*
X6226838Y-5246538D01*
X6209699Y-5237968D01*
X6183991D01*
X6166852Y-5246538D01*
X6149712Y-5263677D01*
X6141143Y-5289386D01*
Y-5306525D01*
X6149712Y-5332233D01*
X6166852Y-5349373D01*
X6183991Y-5357942D01*
X6209699D01*
X6226838Y-5349373D01*
X6243978Y-5332233D01*
X6291967Y-5289386D02*
X6394802D01*
Y-5272247D01*
X6386233Y-5255107D01*
X6377663Y-5246538D01*
X6360524Y-5237968D01*
X6334815D01*
X6317676Y-5246538D01*
X6300537Y-5263677D01*
X6291967Y-5289386D01*
Y-5306525D01*
X6300537Y-5332233D01*
X6317676Y-5349373D01*
X6334815Y-5357942D01*
X6360524D01*
X6377663Y-5349373D01*
X6394802Y-5332233D01*
X6433366Y-5237968D02*
Y-5357942D01*
Y-5289386D02*
X6441935Y-5263677D01*
X6459074Y-5246538D01*
X6476214Y-5237968D01*
X6501922D01*
X6659603Y-5212259D02*
X6676742Y-5203690D01*
X6702451Y-5177981D01*
Y-5357942D01*
D101*
X12050000Y8850000D02*
G03*
X11275000Y9650000I-787500J12500D01*
G01*
X1705902Y4925000D02*
G03*
X1705902Y4925000I-55902J0D01*
G01*
X2342437Y6810222D02*
G03*
X2342437Y6810222I-56434J0D01*
G01*
X925000Y9650000D02*
G03*
X150000Y8850000I12500J-787500D01*
G01*
X7722580Y9525000D02*
G03*
X7722580Y9525000I-72580J0D01*
G01*
X4200907Y5098351D02*
G03*
X4200907Y5098351I-47690J0D01*
G01*
X9252587Y2306278D02*
G03*
X9252587Y2306278I-69049J0D01*
G01*
X7898802Y2259794D02*
G03*
X7898802Y2259794I-37308J0D01*
G01*
X3969088Y2649361D02*
G03*
X3969088Y2649361I-36580J0D01*
G01*
D102*
X6639666Y6739846D02*
G03*
X7752732Y5853160I1625121J898066D01*
G01*
X6495190Y8114418D02*
G03*
X6196023Y7941633I11393J-365113D01*
G01*
X6794143Y6504445D02*
G03*
X6359115Y6740851I-540095J-475401D01*
G01*
X4722365Y984784D02*
G03*
X4638269Y1461721I-1394471J0D01*
G01*
X7927985Y2868945D02*
G03*
X7935457Y2783544I491809J0D01*
G01*
X7496701Y1404443D02*
G03*
X7478821Y1200073I1159036J-204369D01*
G01*
X5186574Y5802642D02*
G03*
X4861145Y6135424I-319902J12676D01*
G01*
X4577112D02*
G03*
X5469505Y6513469I41891J1143405D01*
G01*
X8008863Y5788411D02*
G03*
X8409011Y5728094I366921J1076720D01*
G01*
X9900408Y5728834D02*
G03*
X9445402Y5278730I-2451J-452555D01*
G01*
X7927985Y4811528D02*
G03*
X7634837Y5103881I-292355J0D01*
G01*
X9445402Y3745031D02*
G03*
X9913062Y2920807I997965J21454D01*
G01*
X7847895Y2121745D02*
G03*
X7934442Y2797495I-1023648J474521D01*
G01*
X3855040Y150000D02*
G03*
X4722628Y966157I49907J816157D01*
G01*
X152910Y967681D02*
G03*
X1020498Y151524I817681J0D01*
G01*
X11076387Y7770726D02*
G03*
X12050825Y8746045I-882J975320D01*
G01*
X9445402Y7367253D02*
G03*
X9028795Y7772400I-410877J-5730D01*
G01*
X9445402Y6106949D02*
G03*
X9875348Y5728276I404310J25636D01*
G01*
X8974604Y4487647D02*
G03*
X7752737Y5853159I-1461378J-78226D01*
G01*
X8907842Y5728834D02*
G03*
X9445402Y6106947I79723J457837D01*
G01*
X12051707Y4742555D02*
G03*
X11076387Y5717876I-975320J0D01*
G01*
X12051707Y6796527D02*
G03*
X11076387Y7771847I-975320J0D01*
G01*
X3069112Y6199705D02*
G03*
X2463799Y5665522I-35565J-569748D01*
G01*
X11179502Y151524D02*
G03*
X12047090Y967681I49907J816157D01*
G01*
X3953357Y5800143D02*
G03*
X3601956Y6199262I-375260J23859D01*
G01*
X3059977Y6932604D02*
G03*
X1717760Y5685295I-47454J-1294763D01*
G01*
X2463800Y4453973D02*
G03*
X3134898Y3824897I650087J21011D01*
G01*
X3691837Y3824866D02*
G03*
X3951402Y4080571I3831J255705D01*
G01*
X10433917Y2654636D02*
G03*
X9799076Y2930284I-653213J-635535D01*
G01*
X10436929Y2654904D02*
G03*
X11071770Y2379255I653213J635535D01*
G01*
X4722628Y966157D02*
G03*
X5590216Y150000I817681J0D01*
G01*
X6609784D02*
G03*
X7477372Y966157I49907J816157D01*
G01*
X11071770Y2379255D02*
G03*
X12047090Y3354575I0J975320D01*
G01*
Y1403935D02*
G03*
X11071770Y2379255I-975320J0D01*
G01*
X8975198Y3806774D02*
G03*
X9799076Y2930284I850184J-26306D01*
G01*
X5896856Y7768849D02*
G03*
X6196023Y7941633I-11393J365113D01*
G01*
X11076387Y5717876D02*
G03*
X12050825Y6693196I-882J975320D01*
G01*
X8769867Y7772400D02*
G03*
X8409011Y8114418I-351437J-9419D01*
G01*
X3953357Y5366104D02*
G03*
X4210873Y5098772I262424J-4908D01*
G01*
X1716944Y4410004D02*
G03*
X2223719Y3228012I1671429J16984D01*
G01*
X3951402Y3569161D02*
G03*
X3691837Y3824866I-255734J0D01*
G01*
X2582398Y2379255D02*
G03*
X2223719Y3228012I-1061040J51777D01*
G01*
X152910Y3354575D02*
G03*
X1128230Y2379255I975320J0D01*
G01*
Y2379255D02*
G03*
X152910Y1403935I0J-975320D01*
G01*
X7477372Y966157D02*
G03*
X8344960Y150000I817681J0D01*
G01*
X9850506Y7772400D02*
G03*
X9445402Y7364985I1156J-406260D01*
G01*
X6495190Y8114418D02*
X8178995D01*
X6359115Y6740851D02*
X6624310D01*
X4722365Y205916D02*
Y984784D01*
X4577112Y6135424D02*
X4861145D01*
X5186574Y5802642D02*
X5469505Y5804035D01*
Y6513469D01*
X5320812Y5910758D02*
Y6134588D01*
X3951373Y2656765D02*
Y3055357D01*
X7927985Y2870067D02*
Y3057891D01*
X5052191Y7768760D02*
X5896767D01*
X11850000Y2443191D02*
Y2524255D01*
X11768936Y2362127D02*
X11850000Y2443191D01*
X11768936Y2362127D02*
X11850000Y2281064D01*
Y2200000D02*
Y2281064D01*
X450000Y2379255D02*
Y2500000D01*
X250000Y2179255D02*
X450000Y2379255D01*
X250000Y2100000D02*
Y2179255D01*
X11925745Y2600000D02*
X11950000D01*
X11850000Y2524255D02*
X11925745Y2600000D01*
X8655737Y2376989D02*
X9753600Y2379234D01*
X1128230Y2379255D02*
X2582399Y2379255D01*
X400000Y2550000D02*
X450000Y2500000D01*
X7477635Y205916D02*
X7478821Y1200073D01*
X3069555Y6199262D02*
X3601956D01*
X3953357Y5355162D02*
Y5800143D01*
X1717761Y4372073D02*
Y5685295D01*
X3034483Y6933287D02*
X3543080D01*
X2463800Y4453973D02*
Y5074802D01*
X8202800Y5728834D02*
X10138826Y5728834D01*
X3134898Y3824897D02*
X3699500Y3824866D01*
X2463800Y5074802D02*
Y5665521D01*
X8974604Y4487647D02*
X8975198Y3806774D01*
X11850000Y7595437D02*
Y7676501D01*
X11895551Y7884179D02*
Y7952573D01*
X10684396Y7772400D02*
X12048285D01*
X9445402Y7364985D02*
Y7772400D01*
Y5278738D02*
Y6812437D01*
Y3745031D02*
Y5278730D01*
X11850000Y5541466D02*
Y5622530D01*
X11895551Y5830208D02*
Y5898602D01*
X8154395Y8114418D02*
X8409011D01*
X8769867Y7772400D02*
X10684396Y7772400D01*
X5056024Y5103881D02*
X7634837Y5103881D01*
X3951373Y3055357D02*
X3951454Y4502673D01*
X7927985Y3057891D02*
Y4811528D01*
X6175340Y7911680D02*
X6175513Y7911760D01*
X11768936Y5703593D02*
X11895551Y5830208D01*
X10684396Y5718428D02*
X12048285D01*
D111*
X3440000Y280000D02*
D03*
X4360000Y280000D02*
D03*
X10640000Y280000D02*
D03*
X11560000Y280000D02*
D03*
D176*
X1700000Y224700D02*
D03*
X900000D02*
D03*
X1700000Y1324700D02*
D03*
X900000D02*
D03*
X8900000Y224700D02*
D03*
X8100000D02*
D03*
X8900000Y1324700D02*
D03*
X8100000D02*
D03*
D177*
X7861494Y2259794D02*
D03*
X3932988Y2652555D02*
D03*
X8575000Y5625000D02*
D03*
X4153216Y5098351D02*
D03*
X2286003Y6810222D02*
D03*
X5300166Y6078605D02*
D03*
X9450000Y5725000D02*
D03*
X9183538Y2306278D02*
D03*
X1650000Y4925000D02*
D03*
X3900000Y3825000D02*
D03*
X9250000Y3550000D02*
D03*
X11925000Y9525000D02*
D03*
X275000Y275000D02*
D03*
X9450000Y7700000D02*
D03*
X275000Y2375000D02*
D03*
X11925000Y5725000D02*
D03*
X4875000Y275000D02*
D03*
X7650000Y9525000D02*
D03*
X11925000Y7775000D02*
D03*
X7325000Y275000D02*
D03*
X11925000Y2375000D02*
D03*
X275000Y9523900D02*
D03*
X11925000Y275000D02*
D03*
D178*
X1301000Y8858000D02*
D03*
X2001000D02*
D03*
D179*
X1876000Y9108000D02*
D03*
X1426000D02*
D03*
D180*
X5668000Y9596270D02*
D03*
X6532000D02*
D03*
D181*
X5668000Y9196270D02*
D03*
X6532000D02*
D03*
D182*
X5350800Y9560800D02*
D03*
X4910800D02*
D03*
X4715800D02*
D03*
X4275800D02*
D03*
%TF.MD5,aefecdaf7302230e948a2399294453b9*%
M02*
