%TF.GenerationSoftware,Altium Limited,Altium Designer,26.7.1 (11)*%
G04 Layer_Color=8421504*
G04 Board_Origin=422609843|264714566*
%FSLAX45Y45*%
%MOMM*%
%TF.SameCoordinates,74912732-F67B-42A7-AE06-28B4DB1FB38D*%
%TF.FilePolarity,Positive*%
%TF.FileFunction,Paste,Top*%
%TF.Part,Single*%
G01*
G75*
%TA.AperFunction,SMDPad,CuDef*%
%ADD15R,0.60000X0.60000*%
%ADD16R,0.30000X0.30000*%
%ADD17R,0.60000X1.55000*%
%ADD18R,0.60000X0.35000*%
%ADD19R,0.76000X1.83000*%
%ADD20R,0.60000X0.60000*%
%ADD21R,1.00000X0.30000*%
%ADD22R,2.40000X5.60000*%
%ADD23R,0.30000X1.00000*%
%ADD24R,0.35000X0.60000*%
%ADD25R,2.10000X2.10000*%
%ADD26R,0.65000X0.20000*%
%ADD27R,0.20000X0.65000*%
%ADD28R,0.81000X0.81000*%
%ADD29R,1.65000X1.52000*%
%ADD30R,1.00000X0.80000*%
%ADD31R,29.59000X14.48000*%
%ADD32R,2.70000X2.70000*%
%ADD33R,0.85000X0.35000*%
%ADD34R,0.35000X0.85000*%
%ADD35R,0.81000X0.81000*%
%ADD36R,0.85000X0.30000*%
%ADD37R,0.80000X0.40000*%
%ADD38R,1.50000X1.00000*%
%ADD39R,1.75000X2.50000*%
%ADD40R,1.05000X1.30000*%
%ADD41R,0.80000X1.00000*%
%ADD42R,1.20000X1.80000*%
%ADD43R,1.75000X1.55000*%
%ADD44R,3.45000X3.45000*%
%ADD45R,0.85000X0.20000*%
%ADD46R,0.75000X1.80000*%
%ADD47R,0.65000X1.60000*%
%ADD48R,0.59000X1.15000*%
%ADD49R,2.10000X2.10000*%
%ADD50R,0.60000X1.25000*%
%ADD51R,2.50000X1.75000*%
%ADD52R,1.00000X1.50000*%
%ADD53R,0.40000X0.80000*%
%ADD54R,0.65000X0.90000*%
%ADD55R,0.30000X0.85000*%
%ADD56R,1.90000X0.90000*%
%ADD57P,0.84853X4X188.0*%
%ADD58R,0.70000X0.30000*%
%ADD59R,2.85000X2.85000*%
%ADD60R,0.75000X0.30000*%
%ADD61R,1.25000X0.60000*%
%ADD62R,1.00000X1.70000*%
%ADD63R,0.30000X0.75000*%
%ADD64R,0.85000X0.30000*%
%ADD65R,3.20000X3.20000*%
%ADD66R,0.80000X0.86500*%
%TA.AperFunction,BGAPad,CuDef*%
%ADD67C,0.21300*%
%TA.AperFunction,SMDPad,CuDef*%
%ADD68R,0.80000X0.25000*%
%ADD69R,1.75000X2.45000*%
%ADD70R,0.40000X0.50000*%
%ADD72R,1.90000X5.60000*%
%ADD73R,0.20000X0.85000*%
%ADD74R,0.90000X0.80000*%
%ADD75R,0.30000X0.30000*%
%ADD76R,1.60000X1.00000*%
%ADD78R,0.29800X1.15000*%
%ADD79R,2.40000X1.20000*%
%ADD80R,3.80000X1.35000*%
%ADD81R,0.70000X0.42000*%
%ADD82R,1.90000X3.20000*%
%ADD83R,1.75000X2.20000*%
%ADD84R,0.54000X0.42000*%
%ADD85R,0.60000X1.80000*%
%ADD86R,0.92500X0.90000*%
%TA.AperFunction,ComponentPad*%
%ADD96O,1.00000X2.20000*%
%ADD97O,1.00000X1.80000*%
G36*
X6878005Y9281726D02*
X6988005D01*
Y9101726D01*
X6878005D01*
Y9281726D01*
D02*
G37*
D15*
X2800228Y8965475D02*
D03*
X2710228D02*
D03*
X2617931Y8965330D02*
D03*
X2527931D02*
D03*
X2653062Y1448935D02*
D03*
X2934662D02*
D03*
X3122252Y3098757D02*
D03*
X3594456Y3155345D02*
D03*
X1884574Y8314195D02*
D03*
Y8517395D02*
D03*
Y8415795D02*
D03*
Y8212595D02*
D03*
X3594456Y3256945D02*
D03*
Y3460145D02*
D03*
X2773007Y4570673D02*
D03*
Y4469073D02*
D03*
X3001607Y4240473D02*
D03*
Y4342073D02*
D03*
X3193207D02*
D03*
X3397800Y7493000D02*
D03*
Y7594600D02*
D03*
X2773007Y4977073D02*
D03*
Y4875473D02*
D03*
X3173607Y5256473D02*
D03*
X3664207Y4672273D02*
D03*
Y4469073D02*
D03*
Y4570673D02*
D03*
X3397800Y7797800D02*
D03*
X2946769Y8160421D02*
D03*
X2849492Y8161535D02*
D03*
X2921000Y8610600D02*
D03*
Y8763000D02*
D03*
X4001746Y6625423D02*
D03*
Y6727023D02*
D03*
X4486754Y6565680D02*
D03*
X4001746Y7031823D02*
D03*
X3511000Y7696200D02*
D03*
X4210600Y7797800D02*
D03*
X3511000D02*
D03*
X4396631Y7784161D02*
D03*
X4560400Y8737600D02*
D03*
Y8839200D02*
D03*
X5531036Y6926110D02*
D03*
Y7027710D02*
D03*
Y7332510D02*
D03*
X5835000Y8952095D02*
D03*
X6315000Y8952421D02*
D03*
X9853062Y1450071D02*
D03*
X10134662D02*
D03*
X8814382Y2731296D02*
D03*
X8342177Y2788058D02*
D03*
Y2991258D02*
D03*
Y3092858D02*
D03*
X8653341Y4407315D02*
D03*
X10663607Y4029531D02*
D03*
X10870547Y4497130D02*
D03*
X8083995Y6518304D02*
D03*
Y6721504D02*
D03*
X9049195Y6518304D02*
D03*
Y6721504D02*
D03*
X7617740Y7245804D02*
D03*
X7339043Y9337526D02*
D03*
X9854547Y4852730D02*
D03*
X10120148Y5436930D02*
D03*
X10870547Y4700330D02*
D03*
X11062147Y4598730D02*
D03*
X10870547Y4928930D02*
D03*
X11062147D02*
D03*
Y5106730D02*
D03*
X1884574Y8110995D02*
D03*
X3263607Y5256473D02*
D03*
X1974574Y8110995D02*
D03*
X8077200Y8864600D02*
D03*
X5220800Y9271000D02*
D03*
X4470400Y8839200D02*
D03*
X7987200Y9398000D02*
D03*
X4470400Y8737600D02*
D03*
X4120600Y7797800D02*
D03*
X3011000Y8763000D02*
D03*
Y8610600D02*
D03*
X3601000Y7797800D02*
D03*
X3307800D02*
D03*
X2575400Y8160860D02*
D03*
X2432600Y8966200D02*
D03*
X4474211Y8483930D02*
D03*
X4564211D02*
D03*
X4474211Y8582579D02*
D03*
X4564211D02*
D03*
X4396631Y7885761D02*
D03*
X4306631D02*
D03*
Y7784161D02*
D03*
X2184400Y8110995D02*
D03*
X3397800Y7696200D02*
D03*
X3601000D02*
D03*
X3036769Y8160421D02*
D03*
X4405800Y9271000D02*
D03*
X7987200Y9042400D02*
D03*
Y8864600D02*
D03*
Y9220200D02*
D03*
X2184400Y8314195D02*
D03*
Y8517395D02*
D03*
X2432823Y8849627D02*
D03*
X2184400Y8212595D02*
D03*
Y8415795D02*
D03*
X3594456Y3561745D02*
D03*
X8342177Y2686458D02*
D03*
X4001746Y6523823D02*
D03*
X1974574Y8212595D02*
D03*
Y8314195D02*
D03*
X10044662Y1348471D02*
D03*
X10134662D02*
D03*
X10044662Y1450071D02*
D03*
X2094400Y8314195D02*
D03*
X2934662Y1350300D02*
D03*
X9943062Y1348471D02*
D03*
X9853062D02*
D03*
X9943062Y1450071D02*
D03*
X2094400Y8212595D02*
D03*
X2653062Y1349875D02*
D03*
X4091745Y6727023D02*
D03*
X4001746Y6828623D02*
D03*
X4091745D02*
D03*
X4396754Y6565680D02*
D03*
X1974574Y8517395D02*
D03*
X4091745Y6523823D02*
D03*
Y6625423D02*
D03*
X1974574Y8415795D02*
D03*
X4091745Y7031823D02*
D03*
X4001746Y6930223D02*
D03*
X4091745D02*
D03*
X2094400Y8415795D02*
D03*
Y8517395D02*
D03*
X2600800Y3496241D02*
D03*
X5531036Y6824510D02*
D03*
X9049195Y6619904D02*
D03*
X5531036Y7230910D02*
D03*
X6306636Y6408495D02*
D03*
X6396636D02*
D03*
X8563341Y4407315D02*
D03*
X10972147Y4801930D02*
D03*
X11062147D02*
D03*
X10780548Y5106730D02*
D03*
X10870547D02*
D03*
X9944547Y4852730D02*
D03*
X10311747Y5233730D02*
D03*
X10221748D02*
D03*
X10573607Y4029531D02*
D03*
X10663607Y4131131D02*
D03*
X10573607D02*
D03*
X10780548Y4497130D02*
D03*
X10972147Y4598730D02*
D03*
X10780548Y4801930D02*
D03*
X10870547D02*
D03*
X10780548Y4928930D02*
D03*
Y4700330D02*
D03*
Y4598730D02*
D03*
X10870547D02*
D03*
X10210147Y5436930D02*
D03*
X10413347Y5233730D02*
D03*
X10503347D02*
D03*
X10972147Y4928930D02*
D03*
Y5106730D02*
D03*
X2792400Y3496241D02*
D03*
X2882400D02*
D03*
X7617740Y7144204D02*
D03*
X7527740D02*
D03*
Y7245804D02*
D03*
X8173995Y6721504D02*
D03*
Y6518304D02*
D03*
X8959195D02*
D03*
Y6416704D02*
D03*
X9049195D02*
D03*
X8173995D02*
D03*
X8083995D02*
D03*
X8173995Y6619904D02*
D03*
X8083995D02*
D03*
X8959195Y6721504D02*
D03*
Y6619904D02*
D03*
X3307800Y7594600D02*
D03*
X2863007Y4875473D02*
D03*
X8432177Y2991258D02*
D03*
X3574207Y4570673D02*
D03*
X5621036Y7027710D02*
D03*
Y7129310D02*
D03*
X5531036D02*
D03*
X3504457Y3561745D02*
D03*
X8432177Y3092858D02*
D03*
X3574207Y4469073D02*
D03*
X2773007Y4367473D02*
D03*
X2863007D02*
D03*
X5621036Y7332510D02*
D03*
X3504457Y3155345D02*
D03*
X8724382Y2731296D02*
D03*
X8342177Y2889658D02*
D03*
X8432177D02*
D03*
Y2788058D02*
D03*
X3283207Y4342073D02*
D03*
X3091607Y4240473D02*
D03*
X3283207D02*
D03*
X3193207D02*
D03*
X5621036Y6926110D02*
D03*
X3594456Y3358545D02*
D03*
X3504457D02*
D03*
X2690800Y3496241D02*
D03*
X3212252Y3098757D02*
D03*
X2863007Y4773873D02*
D03*
X2773007D02*
D03*
X2863007Y4977073D02*
D03*
X8432177Y2686458D02*
D03*
X3594456Y3053745D02*
D03*
X3504457D02*
D03*
X3091607Y4342073D02*
D03*
X5621036Y6824510D02*
D03*
X3504457Y3256945D02*
D03*
X3574207Y4672273D02*
D03*
X5621036Y7230910D02*
D03*
X3664207Y4367473D02*
D03*
X3574207D02*
D03*
X2863007Y4469073D02*
D03*
X3504457Y3460145D02*
D03*
X2863007Y4570673D02*
D03*
X8342177Y3194458D02*
D03*
X8432177D02*
D03*
X2759492Y8161535D02*
D03*
X8077200Y9042400D02*
D03*
X9213535Y1779135D02*
D03*
X9303535D02*
D03*
X5925000Y8952095D02*
D03*
X6225000Y8952421D02*
D03*
X2743062Y1448935D02*
D03*
X2844662D02*
D03*
X2665400Y8160860D02*
D03*
X8077200Y9220200D02*
D03*
X9049195Y6890604D02*
D03*
X8959195D02*
D03*
X2103535Y1778000D02*
D03*
X2013535D02*
D03*
X2291495Y1778041D02*
D03*
X2201495D02*
D03*
X2743062Y1349875D02*
D03*
X2844662Y1350300D02*
D03*
X9491495Y1779176D02*
D03*
X9401495D02*
D03*
X7199740Y6890604D02*
D03*
X7109741D02*
D03*
X8203995D02*
D03*
X8113995D02*
D03*
X7645125Y7453520D02*
D03*
X7735125D02*
D03*
X2989178Y5401611D02*
D03*
X3079177D02*
D03*
X7249043Y9337526D02*
D03*
X5130800Y9271000D02*
D03*
X4495800D02*
D03*
X2342600Y8966200D02*
D03*
X3307800Y7696200D02*
D03*
X8077200Y9398000D02*
D03*
X2094400Y8110995D02*
D03*
X2342823Y8849627D02*
D03*
X3307800Y7493000D02*
D03*
D16*
X2489200Y9144000D02*
D03*
X2399200D02*
D03*
X2782400D02*
D03*
X5955200Y8839200D02*
D03*
X6211400D02*
D03*
X2692400Y9144000D02*
D03*
X6045200Y8839200D02*
D03*
X6121400D02*
D03*
D17*
X2490255Y9307466D02*
D03*
X2590255D02*
D03*
X2690255D02*
D03*
D18*
X6703173Y9257120D02*
D03*
Y9322120D02*
D03*
X1879600Y1713000D02*
D03*
X9079600Y1714135D02*
D03*
X1879600Y1778000D02*
D03*
X9079600Y1779135D02*
D03*
D19*
X1300000Y1414700D02*
D03*
X8500000D02*
D03*
D20*
X10192215Y8413194D02*
D03*
Y8503194D02*
D03*
X2388735Y1688000D02*
D03*
X3048000Y1357800D02*
D03*
X2741600Y3304642D02*
D03*
X3167807Y5154873D02*
D03*
X2286000Y7457900D02*
D03*
X2489200D02*
D03*
X2387600D02*
D03*
X1981200D02*
D03*
X2184400D02*
D03*
X2082800D02*
D03*
X2794000D02*
D03*
X7086457Y8385812D02*
D03*
X2895600Y7457900D02*
D03*
X2590800D02*
D03*
X2692400D02*
D03*
X2997200D02*
D03*
X3098800D02*
D03*
X2819400Y8342800D02*
D03*
Y8624400D02*
D03*
X4496079Y5728543D02*
D03*
X4597679D02*
D03*
X3479800Y9220200D02*
D03*
X3664130Y9220202D02*
D03*
X3886200Y9220200D02*
D03*
X4311956Y8138365D02*
D03*
X4409486D02*
D03*
X4813800Y6651510D02*
D03*
X4902479Y5728543D02*
D03*
X5017000Y6651510D02*
D03*
X5750137Y5994695D02*
D03*
X5953337D02*
D03*
X6384215Y5657207D02*
D03*
X5458900Y8122482D02*
D03*
X6273800Y8386100D02*
D03*
X6386164Y7662900D02*
D03*
X6375400Y8386100D02*
D03*
X6637994Y1405840D02*
D03*
X6942794D02*
D03*
X7044394D02*
D03*
X9588735Y1689136D02*
D03*
X10248000Y1358936D02*
D03*
X10159347Y3266530D02*
D03*
X10222948Y3692530D02*
D03*
X9981547Y4039930D02*
D03*
Y4344730D02*
D03*
X10286347D02*
D03*
X10591147D02*
D03*
X6689015Y5657207D02*
D03*
X6790615D02*
D03*
X7465340Y6597005D02*
D03*
X7566940D02*
D03*
X7770140D02*
D03*
X8109395Y6213504D02*
D03*
X8312595D02*
D03*
X8515795D02*
D03*
X8718995D02*
D03*
X8922195D02*
D03*
X7696200Y8386100D02*
D03*
X7797800D02*
D03*
X6680200D02*
D03*
X6477000D02*
D03*
X6578600D02*
D03*
X6781800D02*
D03*
X7188200D02*
D03*
X6883400D02*
D03*
X6985000D02*
D03*
X7289800D02*
D03*
X7976740Y7425664D02*
D03*
X7899400Y8386100D02*
D03*
X8001000D02*
D03*
X8102600D02*
D03*
X10006947Y5323730D02*
D03*
X10108547D02*
D03*
X9905347D02*
D03*
X10204747Y6412363D02*
D03*
X10306347D02*
D03*
X10718147Y5323730D02*
D03*
X10611147Y6412363D02*
D03*
X10616547Y5323730D02*
D03*
X10204747Y6817905D02*
D03*
X10509547D02*
D03*
X10611147D02*
D03*
X3269407Y5154873D02*
D03*
X4627236Y5103108D02*
D03*
X6912794Y2034745D02*
D03*
X3900041Y946735D02*
D03*
X11100041Y947871D02*
D03*
X5638800Y887800D02*
D03*
Y977800D02*
D03*
X3664130Y9130202D02*
D03*
X2856900Y7958520D02*
D03*
X3098800Y7674900D02*
D03*
Y7764900D02*
D03*
X2997200Y7674900D02*
D03*
Y7764900D02*
D03*
X2895600Y7674900D02*
D03*
Y7764900D02*
D03*
Y7547900D02*
D03*
X2692400D02*
D03*
X2590800Y7674900D02*
D03*
Y7764900D02*
D03*
X3098800Y7547900D02*
D03*
X2590800D02*
D03*
X2997200D02*
D03*
X2692400Y7674900D02*
D03*
Y7764900D02*
D03*
X6587415Y5657207D02*
D03*
X6485815D02*
D03*
X4800879Y5728543D02*
D03*
X6841194Y1405840D02*
D03*
X6739594D02*
D03*
X5459142Y8395981D02*
D03*
X5548900D02*
D03*
X3886200Y9130200D02*
D03*
X4498231Y7795762D02*
D03*
X6121400Y543800D02*
D03*
X5384800D02*
D03*
X3479800Y9130200D02*
D03*
X2260600Y8667200D02*
D03*
X2856900Y8048519D02*
D03*
X2951000D02*
D03*
X4409486Y8228365D02*
D03*
X4311956D02*
D03*
X4498231Y7885761D02*
D03*
X2794000Y7764900D02*
D03*
X6578600Y8667700D02*
D03*
X7188200D02*
D03*
X10489547Y4344730D02*
D03*
X2286000Y7764900D02*
D03*
X7086457Y8668923D02*
D03*
X6477000Y8667700D02*
D03*
X6553200Y977800D02*
D03*
X6223000Y543800D02*
D03*
X7696200Y8667700D02*
D03*
X2387600Y7764900D02*
D03*
X2184400D02*
D03*
X6985000Y8667700D02*
D03*
X7594600D02*
D03*
X6375400D02*
D03*
X6883400D02*
D03*
X8102600D02*
D03*
X2489200Y7764900D02*
D03*
X6273800Y8667700D02*
D03*
X2260600Y8757200D02*
D03*
X7493000Y8667700D02*
D03*
X8001000D02*
D03*
X6781800D02*
D03*
X7391400D02*
D03*
X1981200Y7764900D02*
D03*
X6680200Y8667700D02*
D03*
X2921000Y8342800D02*
D03*
X7899400Y8667700D02*
D03*
X2082800Y7764900D02*
D03*
X2819400Y8534400D02*
D03*
X5816600Y977800D02*
D03*
X5486400Y543800D02*
D03*
X2951000Y7958520D02*
D03*
X7289800Y8667700D02*
D03*
X7797800D02*
D03*
X3900041Y1036735D02*
D03*
X11100041Y1037871D02*
D03*
X6386164Y7572900D02*
D03*
X6487764Y7662900D02*
D03*
Y7572900D02*
D03*
X4394479Y5728543D02*
D03*
X7145994Y1405840D02*
D03*
X6892215Y5657207D02*
D03*
X10349600Y1358936D02*
D03*
X3149600Y1357800D02*
D03*
X4555235Y6865099D02*
D03*
Y6955099D02*
D03*
X5017000Y6741510D02*
D03*
X5118600D02*
D03*
Y6651510D02*
D03*
X4813800Y6741510D02*
D03*
X4916536Y6650507D02*
D03*
Y6740507D02*
D03*
X7871740Y6597005D02*
D03*
X7668540D02*
D03*
X6054937Y5994695D02*
D03*
X1981200Y7674900D02*
D03*
Y7547900D02*
D03*
X9981547Y4434730D02*
D03*
X10159347Y3548130D02*
D03*
Y3458130D02*
D03*
X10184747Y4344730D02*
D03*
Y4434730D02*
D03*
X10006947Y5233730D02*
D03*
X10222948Y3782530D02*
D03*
X10083147Y4129930D02*
D03*
Y4039930D02*
D03*
X10819747Y5323730D02*
D03*
Y5233730D02*
D03*
X10083147Y4434730D02*
D03*
Y4344730D02*
D03*
X7289800Y8476100D02*
D03*
X10616547Y5233730D02*
D03*
X10286347Y4434730D02*
D03*
X9803747Y5323730D02*
D03*
Y5233730D02*
D03*
X7188200Y8476100D02*
D03*
X10311747Y5436930D02*
D03*
Y5346931D02*
D03*
X10324548Y3782530D02*
D03*
Y3692530D02*
D03*
X9905347Y5233730D02*
D03*
X7696200Y8476100D02*
D03*
X10805667Y3300830D02*
D03*
Y3390830D02*
D03*
X10108547Y5233730D02*
D03*
X10413347Y5436930D02*
D03*
Y5346931D02*
D03*
X10489547Y4434730D02*
D03*
X10591147D02*
D03*
X10718147Y5233730D02*
D03*
X10388683Y4433768D02*
D03*
Y4343769D02*
D03*
X9981547Y4129930D02*
D03*
X10159347Y3356530D02*
D03*
X4496079Y5638543D02*
D03*
X4597679D02*
D03*
X4394479D02*
D03*
X4800879D02*
D03*
X4699279D02*
D03*
Y5728543D02*
D03*
X6841194Y1495840D02*
D03*
X6942794D02*
D03*
X2794000Y7547900D02*
D03*
X4627236Y5193108D02*
D03*
X4902479Y5638543D02*
D03*
X6637994Y1495840D02*
D03*
X6739594D02*
D03*
X6912794Y1944745D02*
D03*
X7044394Y1495840D02*
D03*
X7145994D02*
D03*
X7391400Y8577700D02*
D03*
X7493000D02*
D03*
X7594600D02*
D03*
X8078340Y7425664D02*
D03*
Y7335664D02*
D03*
X7976740D02*
D03*
X7086457Y8475812D02*
D03*
X7566940Y6687004D02*
D03*
X7465340D02*
D03*
X7086457Y8578924D02*
D03*
X8210995Y6303504D02*
D03*
Y6213504D02*
D03*
X9023795Y6303504D02*
D03*
Y6213504D02*
D03*
X6985000Y8476100D02*
D03*
X8109395Y6303504D02*
D03*
X6375400Y8476100D02*
D03*
X8414195Y6303504D02*
D03*
Y6213504D02*
D03*
X8312595Y6303504D02*
D03*
X8718995D02*
D03*
X8922195D02*
D03*
X6578600Y8476100D02*
D03*
X8515795Y6303504D02*
D03*
X6781800Y8476100D02*
D03*
X6680200D02*
D03*
X6883400D02*
D03*
X6273800D02*
D03*
X8617395Y6303504D02*
D03*
Y6213504D02*
D03*
X8820595Y6303504D02*
D03*
Y6213504D02*
D03*
X6477000Y8476100D02*
D03*
X7797800D02*
D03*
X8102600D02*
D03*
X10509547Y6907904D02*
D03*
X10407947Y6817905D02*
D03*
Y6907904D02*
D03*
Y6412363D02*
D03*
Y6322363D02*
D03*
X10611147Y6907904D02*
D03*
X10306347Y6322363D02*
D03*
X10204747Y6603962D02*
D03*
Y6513963D02*
D03*
X7899400Y8476100D02*
D03*
X10509547Y6412363D02*
D03*
Y6322363D02*
D03*
X10611147Y6626305D02*
D03*
Y6716305D02*
D03*
Y6322363D02*
D03*
X10204747Y6907904D02*
D03*
Y6322363D02*
D03*
X8001000Y8476100D02*
D03*
X10306347Y6817905D02*
D03*
Y6907904D02*
D03*
X7188200Y8577700D02*
D03*
X7289800D02*
D03*
X6485815Y5747206D02*
D03*
X2286000Y7547900D02*
D03*
X2741600Y3394641D02*
D03*
X6689015Y5747206D02*
D03*
X5851737Y6084694D02*
D03*
Y5994695D02*
D03*
X8461741Y4548115D02*
D03*
Y4458115D02*
D03*
X6892215Y5747206D02*
D03*
X6587415D02*
D03*
X5953337Y6084694D02*
D03*
X8461741Y4356515D02*
D03*
Y4266515D02*
D03*
X6790615Y5747206D02*
D03*
X2184400Y7547900D02*
D03*
X3269407Y5064873D02*
D03*
X3167807D02*
D03*
X5750137Y6084694D02*
D03*
X6384215Y5747206D02*
D03*
X6054937Y6084694D02*
D03*
X2387600Y7547900D02*
D03*
X2489200D02*
D03*
X2082800D02*
D03*
X2489200Y7674900D02*
D03*
X2387600D02*
D03*
X5384800Y633800D02*
D03*
X6121400D02*
D03*
X5486400D02*
D03*
X6223000D02*
D03*
X9918659Y8753558D02*
D03*
Y8843558D02*
D03*
X6985000Y8577700D02*
D03*
X3149600Y1447800D02*
D03*
X3048000D02*
D03*
X2388735Y1778000D02*
D03*
X10349600Y1448935D02*
D03*
X10248000D02*
D03*
X9588735Y1779135D02*
D03*
X7668540Y6687004D02*
D03*
X7871740D02*
D03*
X7770140D02*
D03*
X5548900Y8305981D02*
D03*
X5458900Y8212481D02*
D03*
X5459142Y8305981D02*
D03*
X2794000Y7674900D02*
D03*
X2286000D02*
D03*
X2184400D02*
D03*
X2082800D02*
D03*
X6273800Y8577700D02*
D03*
X6375400D02*
D03*
X6477000D02*
D03*
X6578600D02*
D03*
X6680200D02*
D03*
X6781800D02*
D03*
X6883400D02*
D03*
X7696200D02*
D03*
X7797800D02*
D03*
X7899400D02*
D03*
X5816600Y887800D02*
D03*
X8001000Y8577700D02*
D03*
X2819400Y8432800D02*
D03*
X2921000D02*
D03*
X6375400Y983600D02*
D03*
Y893600D02*
D03*
X8102600Y8577700D02*
D03*
X6553200Y887800D02*
D03*
D21*
X2692400Y1728041D02*
D03*
Y1678041D02*
D03*
Y1828041D02*
D03*
X3072400D02*
D03*
Y1678041D02*
D03*
Y1728041D02*
D03*
X2692400Y1878041D02*
D03*
X3072400D02*
D03*
X5761236Y6358495D02*
D03*
Y6508495D02*
D03*
Y6458495D02*
D03*
Y6308495D02*
D03*
X6141236Y6358495D02*
D03*
Y6308495D02*
D03*
Y6458495D02*
D03*
Y6508495D02*
D03*
X4725400Y6965310D02*
D03*
Y7015310D02*
D03*
X5105400Y6965310D02*
D03*
Y7015310D02*
D03*
X5761236D02*
D03*
Y7065310D02*
D03*
X4725400Y7115310D02*
D03*
Y7165310D02*
D03*
X5105400Y7115310D02*
D03*
Y7165310D02*
D03*
X6141236Y7015310D02*
D03*
Y6965310D02*
D03*
Y7115310D02*
D03*
Y7165310D02*
D03*
X9892400Y1679176D02*
D03*
Y1729176D02*
D03*
Y1829176D02*
D03*
X10272400Y1679176D02*
D03*
Y1829176D02*
D03*
Y1729176D02*
D03*
X9892400Y1879176D02*
D03*
X10272400D02*
D03*
X4725400Y7065310D02*
D03*
X5105400D02*
D03*
X5761236Y6965310D02*
D03*
Y7115310D02*
D03*
Y7165310D02*
D03*
X6141236Y7065310D02*
D03*
X5761236Y6408495D02*
D03*
X6141236D02*
D03*
X3072400Y1778041D02*
D03*
X2692400D02*
D03*
X10272400Y1779176D02*
D03*
X9892400D02*
D03*
D22*
X3440000Y280000D02*
D03*
X4360000Y280000D02*
D03*
X10640000Y280000D02*
D03*
X11560000Y280000D02*
D03*
D23*
X2882400Y1588041D02*
D03*
X2932400D02*
D03*
X2782400Y1968041D02*
D03*
X2832400D02*
D03*
X2982400D02*
D03*
X2932400D02*
D03*
X5851236Y6218495D02*
D03*
X5951236D02*
D03*
X6001236D02*
D03*
X5851236Y6598495D02*
D03*
X5901236D02*
D03*
X6001236D02*
D03*
X6051236D02*
D03*
X4865400Y6875310D02*
D03*
X4965400D02*
D03*
X4915400D02*
D03*
X4865400Y7255310D02*
D03*
X4815400D02*
D03*
X4965400D02*
D03*
X5015400D02*
D03*
X5901236Y6875310D02*
D03*
X6001236D02*
D03*
X5851236D02*
D03*
X6051236D02*
D03*
Y7255310D02*
D03*
X5851236D02*
D03*
X6001236D02*
D03*
X5901236D02*
D03*
X10082400Y1589176D02*
D03*
X10132400D02*
D03*
X9982400Y1969176D02*
D03*
X10132400D02*
D03*
X10182400D02*
D03*
X10032400D02*
D03*
Y1589176D02*
D03*
X9982400D02*
D03*
X4915400Y7255310D02*
D03*
X5015400Y6875310D02*
D03*
X4815400D02*
D03*
X5951236Y7255310D02*
D03*
X5901236Y6218495D02*
D03*
X5951236Y6875310D02*
D03*
X6051236Y6218495D02*
D03*
X5951236Y6598495D02*
D03*
X2882400Y1968041D02*
D03*
X2782400Y1588041D02*
D03*
X2832400D02*
D03*
X2982400D02*
D03*
X10082400Y1969176D02*
D03*
X10182400Y1589176D02*
D03*
D24*
X3835000Y812800D02*
D03*
X11035000Y813935D02*
D03*
X3900000Y812800D02*
D03*
X11100000Y813935D02*
D03*
D25*
X2882400Y1778041D02*
D03*
X5951236Y6408495D02*
D03*
X4915400Y7065310D02*
D03*
X10082400Y1779176D02*
D03*
D26*
X3199892Y3288604D02*
D03*
X4552236Y5406708D02*
D03*
X4742236D02*
D03*
X4398581Y6796580D02*
D03*
X4742236Y5486708D02*
D03*
X6798236Y1727675D02*
D03*
Y1647675D02*
D03*
X6988236Y1727675D02*
D03*
X8736742Y2959600D02*
D03*
X6544458Y5899042D02*
D03*
Y5979042D02*
D03*
X6734458D02*
D03*
X10338347Y6087563D02*
D03*
X10528347D02*
D03*
Y6167562D02*
D03*
X10287547Y7142705D02*
D03*
Y7062705D02*
D03*
X10477547Y7142705D02*
D03*
X3199892Y3328603D02*
D03*
X3389892D02*
D03*
Y3288604D02*
D03*
X6988236Y1647675D02*
D03*
Y1687675D02*
D03*
Y1767675D02*
D03*
X6798236Y1687675D02*
D03*
Y1767675D02*
D03*
X4398581Y6756580D02*
D03*
X4208581Y6796580D02*
D03*
Y6756580D02*
D03*
X4552236Y5446708D02*
D03*
X10528347Y6047563D02*
D03*
X10477547Y7182704D02*
D03*
X4742236Y5446708D02*
D03*
Y5366708D02*
D03*
X4552236D02*
D03*
Y5486708D02*
D03*
X6544458Y5939042D02*
D03*
X10528347Y6127563D02*
D03*
X10338347Y6047563D02*
D03*
Y6127563D02*
D03*
Y6167562D02*
D03*
X10287547Y7102705D02*
D03*
Y7182704D02*
D03*
X10477547Y7102705D02*
D03*
Y7062705D02*
D03*
X6734458Y5899042D02*
D03*
Y5939042D02*
D03*
Y6019042D02*
D03*
X6544458D02*
D03*
X8546742Y2959600D02*
D03*
Y2919600D02*
D03*
X8736742D02*
D03*
D27*
X3274892Y3213603D02*
D03*
Y3403604D02*
D03*
X3354892Y3213603D02*
D03*
X4667236Y5331708D02*
D03*
X4323581Y6681580D02*
D03*
X4243581Y6871580D02*
D03*
X4323581D02*
D03*
X6873236Y1802675D02*
D03*
X8661742Y2844600D02*
D03*
X8581742Y3034600D02*
D03*
X8661742D02*
D03*
X6619458Y6054042D02*
D03*
X10453347Y6012563D02*
D03*
X10362547Y7217705D02*
D03*
X3234892Y3213603D02*
D03*
Y3403604D02*
D03*
X3314892D02*
D03*
X3354892D02*
D03*
X3314892Y3213603D02*
D03*
X6873236Y1612675D02*
D03*
X6913236D02*
D03*
Y1802675D02*
D03*
X4283581Y6871580D02*
D03*
X4243581Y6681580D02*
D03*
X4283581D02*
D03*
X4363581D02*
D03*
Y6871580D02*
D03*
X4627236Y5331708D02*
D03*
Y5521708D02*
D03*
X4667236D02*
D03*
X8621742Y2844600D02*
D03*
X10413347Y6012563D02*
D03*
Y6202563D02*
D03*
X10453347D02*
D03*
X10402547Y7217705D02*
D03*
Y7027705D02*
D03*
X10362547D02*
D03*
X6619458Y5864042D02*
D03*
X6659458D02*
D03*
Y6054042D02*
D03*
X8581742Y2844600D02*
D03*
X8701742D02*
D03*
Y3034600D02*
D03*
X8621742D02*
D03*
D28*
X3294892Y3308603D02*
D03*
X4303581Y6776580D02*
D03*
X8641742Y2939600D02*
D03*
D29*
X4627236Y2408004D02*
D03*
X5135236D02*
D03*
X4881236D02*
D03*
X5389236D02*
D03*
X5643236D02*
D03*
X5897236D02*
D03*
X6151236D02*
D03*
X6405236D02*
D03*
X5135236Y4720004D02*
D03*
X4881236D02*
D03*
X5643236D02*
D03*
X5389236D02*
D03*
X5897236D02*
D03*
X6151236D02*
D03*
X6405236D02*
D03*
X6659236Y2408004D02*
D03*
X7167236D02*
D03*
X7421236D02*
D03*
X6659236Y4720004D02*
D03*
X7167236D02*
D03*
X7421236D02*
D03*
X6913236Y2408004D02*
D03*
Y4720004D02*
D03*
X4627236D02*
D03*
D30*
X5638800Y609600D02*
D03*
X5816600D02*
D03*
X2952177Y5678611D02*
D03*
X6375400Y609600D02*
D03*
X6553200D02*
D03*
X10286347Y3384330D02*
D03*
X11288267Y2917431D02*
D03*
X7269766Y7514997D02*
D03*
X6660166Y7662597D02*
D03*
X7608125Y7730520D02*
D03*
X8250742Y7425361D02*
D03*
X8459195Y7627120D02*
D03*
X8860342Y7277761D02*
D03*
X10043659Y8407713D02*
D03*
X10339052Y9128562D02*
D03*
X10043659Y8843558D02*
D03*
Y8693558D02*
D03*
X6660166Y7512597D02*
D03*
X7269766Y7664997D02*
D03*
X8860342Y7427761D02*
D03*
X7455725Y7580520D02*
D03*
X10612807Y3752531D02*
D03*
Y3902531D02*
D03*
X10286347Y3534330D02*
D03*
X11288267Y2767430D02*
D03*
X10032347Y3531930D02*
D03*
Y3381930D02*
D03*
X8250742Y7275361D02*
D03*
X5638800Y759600D02*
D03*
X5816600D02*
D03*
X6375400D02*
D03*
X6553200D02*
D03*
X7337482Y6890604D02*
D03*
Y6740604D02*
D03*
X10496710Y9129507D02*
D03*
Y8979506D02*
D03*
X10339052Y8978561D02*
D03*
X10043659Y8557714D02*
D03*
X7455725Y7730520D02*
D03*
X7608125Y7580520D02*
D03*
X8459195Y7777120D02*
D03*
X2799777Y5678611D02*
D03*
Y5528611D02*
D03*
X2952177D02*
D03*
D31*
X6024236Y3564004D02*
D03*
D32*
X3218607Y4697673D02*
D03*
D33*
X3023607Y4730173D02*
D03*
Y4795173D02*
D03*
X3413607Y4730173D02*
D03*
Y4795173D02*
D03*
X3023607Y4665173D02*
D03*
Y4600173D02*
D03*
X3413607D02*
D03*
Y4665173D02*
D03*
D34*
X3316107Y4502673D02*
D03*
X3121107D02*
D03*
X3186107D02*
D03*
X3251107D02*
D03*
X3316107Y4892673D02*
D03*
X3251107D02*
D03*
X3186107D02*
D03*
X3121107D02*
D03*
D35*
X4647236Y5426708D02*
D03*
X6893236Y1707675D02*
D03*
X6639458Y5959042D02*
D03*
X10433347Y6107563D02*
D03*
X10382547Y7122705D02*
D03*
D36*
X2427137Y7908520D02*
D03*
Y8058520D02*
D03*
Y7958520D02*
D03*
Y8008519D02*
D03*
X2727137D02*
D03*
Y8058520D02*
D03*
Y7908520D02*
D03*
Y7958520D02*
D03*
D37*
X3310178Y5725211D02*
D03*
X7966125Y7777120D02*
D03*
X8266125D02*
D03*
Y7682120D02*
D03*
Y7587120D02*
D03*
X7966125D02*
D03*
Y7682120D02*
D03*
X3610177Y5725211D02*
D03*
Y5630211D02*
D03*
Y5535211D02*
D03*
X3310178D02*
D03*
Y5630211D02*
D03*
D38*
X3129977Y5706411D02*
D03*
X10816007Y3931131D02*
D03*
Y4263531D02*
D03*
X7785925Y7758320D02*
D03*
X7294043Y9028797D02*
D03*
X9573518Y8728185D02*
D03*
Y8908185D02*
D03*
X7294043Y9208797D02*
D03*
X10816007Y3751131D02*
D03*
Y4083531D02*
D03*
X7785925Y7578320D02*
D03*
X3129977Y5526411D02*
D03*
D39*
X3460177Y5630211D02*
D03*
X8116125Y7682120D02*
D03*
D40*
X2492000Y8407400D02*
D03*
X2667000Y8637400D02*
D03*
X2492000D02*
D03*
X2667000Y8407400D02*
D03*
D41*
X1576000Y9652000D02*
D03*
Y9499600D02*
D03*
X3462577Y5884211D02*
D03*
X8355400Y8864600D02*
D03*
X9778347Y4573330D02*
D03*
X10511548Y3098326D02*
D03*
X11082667Y3427830D02*
D03*
X8355400Y9220200D02*
D03*
Y9398000D02*
D03*
Y9042400D02*
D03*
X9778347Y4725730D02*
D03*
Y4979730D02*
D03*
X9510800Y8570039D02*
D03*
X9251405Y8969806D02*
D03*
X10345808Y9272407D02*
D03*
X8205400Y8864600D02*
D03*
X1726000Y9652000D02*
D03*
Y9499600D02*
D03*
X8601427Y8965157D02*
D03*
X9360800Y8570039D02*
D03*
X9401405Y8969806D02*
D03*
X8751427Y8965157D02*
D03*
X6355366Y7436397D02*
D03*
X6505366D02*
D03*
X8095942Y7199161D02*
D03*
X9928348Y4979730D02*
D03*
Y4725730D02*
D03*
X10932667Y3427830D02*
D03*
Y3580230D02*
D03*
X11082667D02*
D03*
X9928348Y4573330D02*
D03*
X10661548Y3098326D02*
D03*
X7945942Y7199161D02*
D03*
X8205400Y9042400D02*
D03*
Y9220200D02*
D03*
Y9398000D02*
D03*
X11311542Y9081854D02*
D03*
X11461542D02*
D03*
X10194397Y8988301D02*
D03*
X10044397D02*
D03*
X10495808Y9272407D02*
D03*
X3612577Y5884211D02*
D03*
D42*
X2360255Y9695066D02*
D03*
X2820255D02*
D03*
D43*
X2577137Y7983519D02*
D03*
D44*
X3664131Y8483519D02*
D03*
D45*
X4159131Y8143519D02*
D03*
Y8663519D02*
D03*
Y8423520D02*
D03*
Y8383519D02*
D03*
Y8703520D02*
D03*
X3169131Y8743519D02*
D03*
Y8543519D02*
D03*
Y8863519D02*
D03*
Y8823520D02*
D03*
Y8783519D02*
D03*
Y8703520D02*
D03*
Y8663519D02*
D03*
Y8623519D02*
D03*
Y8583520D02*
D03*
Y8503519D02*
D03*
Y8463520D02*
D03*
Y8423520D02*
D03*
Y8383519D02*
D03*
Y8343520D02*
D03*
Y8303520D02*
D03*
Y8263519D02*
D03*
Y8223519D02*
D03*
Y8183520D02*
D03*
Y8143519D02*
D03*
Y8103519D02*
D03*
X4159131D02*
D03*
Y8183520D02*
D03*
Y8223519D02*
D03*
Y8263519D02*
D03*
Y8303520D02*
D03*
Y8343520D02*
D03*
Y8463520D02*
D03*
Y8543519D02*
D03*
Y8583520D02*
D03*
Y8623519D02*
D03*
Y8743519D02*
D03*
Y8783519D02*
D03*
Y8823520D02*
D03*
Y8863519D02*
D03*
Y8503519D02*
D03*
D46*
X4375800Y9470800D02*
D03*
X4615800D02*
D03*
X5010800D02*
D03*
X5250800D02*
D03*
D47*
X4920744Y8922482D02*
D03*
X5301744Y8212481D02*
D03*
X5174744D02*
D03*
X5047744D02*
D03*
X4920744D02*
D03*
X5047744Y8922482D02*
D03*
X5174744D02*
D03*
X5301744D02*
D03*
D48*
X5780000Y9138770D02*
D03*
X6420000D02*
D03*
X5860000D02*
D03*
X6340000D02*
D03*
D49*
X5951236Y7065310D02*
D03*
D50*
X10565747Y3280330D02*
D03*
X10470747D02*
D03*
X10660748D02*
D03*
Y3530330D02*
D03*
X10470747D02*
D03*
D51*
X11034267Y2919830D02*
D03*
D52*
X11110467Y3250030D02*
D03*
X9075106Y8990159D02*
D03*
X11528999Y8442717D02*
D03*
X10832687Y9106856D02*
D03*
X10986262Y9106994D02*
D03*
X8895106Y8990159D02*
D03*
X10652687Y9106856D02*
D03*
X10930467Y3250030D02*
D03*
X11166262Y9106994D02*
D03*
X11348999Y8442717D02*
D03*
D53*
X11129267Y3069830D02*
D03*
X11034267D02*
D03*
X10939267D02*
D03*
Y2769830D02*
D03*
X11034267D02*
D03*
X11129267D02*
D03*
D54*
X10387947Y3940730D02*
D03*
X10222948Y4090730D02*
D03*
X10387947D02*
D03*
X10222948Y3940730D02*
D03*
D55*
X10288683Y4588187D02*
D03*
X10488683D02*
D03*
X10438683Y5078187D02*
D03*
X10538683D02*
D03*
X10488683D02*
D03*
X10388683D02*
D03*
X10338683D02*
D03*
X10288683D02*
D03*
X10238683D02*
D03*
X10188683D02*
D03*
Y4588187D02*
D03*
X10238683D02*
D03*
X10338683D02*
D03*
X10388683D02*
D03*
X10438683D02*
D03*
X10538683D02*
D03*
D56*
X11044607Y4259531D02*
D03*
Y3799531D02*
D03*
Y4029531D02*
D03*
D57*
X7016632Y5964878D02*
D03*
X6944755Y6019042D02*
D03*
D58*
X7538140Y6840604D02*
D03*
Y6940604D02*
D03*
X7748140D02*
D03*
Y6990605D02*
D03*
X7538140D02*
D03*
Y6890604D02*
D03*
X7748140D02*
D03*
Y6840604D02*
D03*
D59*
X8566595Y6815604D02*
D03*
D60*
X8366595Y6840604D02*
D03*
Y6940604D02*
D03*
X8766595Y6790604D02*
D03*
Y6840604D02*
D03*
Y6940604D02*
D03*
Y6690604D02*
D03*
Y6740604D02*
D03*
Y6890604D02*
D03*
X8366595D02*
D03*
Y6790604D02*
D03*
Y6740604D02*
D03*
Y6690604D02*
D03*
D61*
X7087966Y7582197D02*
D03*
X8678542Y7344961D02*
D03*
X6837966Y7487197D02*
D03*
Y7677197D02*
D03*
X7087966D02*
D03*
Y7487197D02*
D03*
X8678542Y7249961D02*
D03*
Y7439961D02*
D03*
X8428542D02*
D03*
Y7249961D02*
D03*
D62*
X7643140Y6915604D02*
D03*
D63*
X8441595Y7015604D02*
D03*
X8591595D02*
D03*
X8541595D02*
D03*
X8691595D02*
D03*
X8641595D02*
D03*
X8491595D02*
D03*
X8441595Y6615604D02*
D03*
X8491595D02*
D03*
X8541595D02*
D03*
X8591595D02*
D03*
X8641595D02*
D03*
X8691595D02*
D03*
D64*
X10118683Y4808187D02*
D03*
Y4958187D02*
D03*
X10608683Y5008187D02*
D03*
Y4658187D02*
D03*
Y4708187D02*
D03*
Y4758187D02*
D03*
Y4808187D02*
D03*
Y4858187D02*
D03*
Y4908187D02*
D03*
Y4958187D02*
D03*
X10118683Y5008187D02*
D03*
Y4908187D02*
D03*
Y4858187D02*
D03*
Y4758187D02*
D03*
Y4708187D02*
D03*
Y4658187D02*
D03*
D65*
X10363683Y4833187D02*
D03*
D66*
X9820963Y6543384D02*
D03*
Y6689784D02*
D03*
X9965963D02*
D03*
Y6543384D02*
D03*
D67*
X9395198Y8706129D02*
D03*
X9360198Y8776129D02*
D03*
X9395198D02*
D03*
X9360198Y8741129D02*
D03*
X9395198D02*
D03*
X9360198Y8706129D02*
D03*
D68*
X10209051Y8657717D02*
D03*
Y8707717D02*
D03*
Y8607717D02*
D03*
X10509051Y8807717D02*
D03*
Y8757717D02*
D03*
X10209051Y8857717D02*
D03*
Y8807717D02*
D03*
Y8757717D02*
D03*
X10509051Y8607717D02*
D03*
Y8657717D02*
D03*
Y8707717D02*
D03*
Y8857717D02*
D03*
D69*
X10359051Y8732717D02*
D03*
D70*
X10818652Y6554989D02*
D03*
X11104607D02*
D03*
Y6679989D02*
D03*
X10818652D02*
D03*
X11174607Y6554989D02*
D03*
Y6679989D02*
D03*
X10888652Y6554989D02*
D03*
Y6679989D02*
D03*
D72*
X3900000Y280000D02*
D03*
X11100000D02*
D03*
D73*
X3324131Y7988519D02*
D03*
X3804131Y8978520D02*
D03*
X3844131D02*
D03*
X3964131D02*
D03*
X4004131D02*
D03*
X4044131D02*
D03*
X3884131D02*
D03*
X4004131Y7988519D02*
D03*
X4044131D02*
D03*
X3644131D02*
D03*
X3484131Y8978520D02*
D03*
X3284131Y7988519D02*
D03*
X3924131Y8978520D02*
D03*
X3764131D02*
D03*
X3724131D02*
D03*
X3684131D02*
D03*
X3644131D02*
D03*
X3604131D02*
D03*
X3564131D02*
D03*
X3524131D02*
D03*
X3444131D02*
D03*
X3404131D02*
D03*
X3364131D02*
D03*
X3324131D02*
D03*
X3284131D02*
D03*
X3364131Y7988519D02*
D03*
X3404131D02*
D03*
X3444131D02*
D03*
X3484131D02*
D03*
X3524131D02*
D03*
X3564131D02*
D03*
X3604131D02*
D03*
X3684131D02*
D03*
X3724131D02*
D03*
X3764131D02*
D03*
X3804131D02*
D03*
X3844131D02*
D03*
X3884131D02*
D03*
X3924131D02*
D03*
X3964131D02*
D03*
D74*
X5284800Y862416D02*
D03*
X6021400D02*
D03*
X5484800Y957400D02*
D03*
Y767400D02*
D03*
X6221400Y957400D02*
D03*
Y767400D02*
D03*
D75*
X3200400Y7792000D02*
D03*
Y7702000D02*
D03*
D76*
X4605173Y8083365D02*
D03*
Y8283365D02*
D03*
D78*
X6125000Y9138770D02*
D03*
X6025000D02*
D03*
X6075000D02*
D03*
X6175000D02*
D03*
X6275000D02*
D03*
X5925000D02*
D03*
X5975000D02*
D03*
X6225000D02*
D03*
D79*
X9145423Y8571194D02*
D03*
Y8801196D02*
D03*
D80*
X8764960Y8521532D02*
D03*
Y8796534D02*
D03*
X10807414Y8911062D02*
D03*
X11262799D02*
D03*
Y8636060D02*
D03*
X10807414D02*
D03*
D81*
X7128005Y9094226D02*
D03*
Y9159226D02*
D03*
Y9224226D02*
D03*
Y9289226D02*
D03*
D82*
X11654607Y4029531D02*
D03*
D83*
X11150184Y8360217D02*
D03*
X10695184D02*
D03*
D84*
X6820005Y9094226D02*
D03*
Y9159226D02*
D03*
Y9224226D02*
D03*
Y9289226D02*
D03*
D85*
X5130800Y9470800D02*
D03*
X4495800D02*
D03*
D86*
X4950800Y9680800D02*
D03*
X5310800D02*
D03*
X4315800D02*
D03*
X4675800D02*
D03*
D96*
X5668000Y9596270D02*
D03*
X6532000D02*
D03*
D97*
X5668000Y9196270D02*
D03*
X6532000D02*
D03*
%TF.MD5,a61082903f62ef39a7d0fe2af16aa8bf*%
M02*
