M48
;Layer_Color=9474304
;FILE_FORMAT=2:4
INCH,LZ
;TYPE=PLATED
T01F00S00C0.0079
T03F00S00C0.0394
T04F00S00C0.0512
T05F00S00C0.0610
T06F00S00C0.0945
;TYPE=NON_PLATED
T07F00S00C0.0354
%
T01
X0018Y00064
X002194
X002587
X002981
X004162
X004556
X004949
X005343
X005737
X006131
X007312
X007705
X008099
X008493
X008886
X00928
X009674
X010068
X010461
X010855
X011249
X011642
X012036
X01243
X012823
X013025Y000798
X013029Y00043
X014041Y000426
X014043Y000817
X014398Y00064
X014761Y000706
X014751Y000341
X015965Y000323
X015973Y00064
X016367
X016658Y000831
X016661Y00043
X0177Y000441
X017693Y000816
X017942Y00064
X018335
X01991
X020304
X020697
X021091
X021485
X021879
X022272
X022666
X02306
X023453
X023847
X024241
X024634
X025028
X025422
X025816
X026209
X026603
X026997
X02739
X027784
X028178
X029753
X030146
X03054
X030934
X031327
X032509
X032902
X033296
X03369
X034083
X034477
X035658
X036052
X036446
X036839
X037233
X037627
X03802
X038414
X038808
X039201
X039595
X039989
X040383
X040776
X04117
X041369Y000797
X041376Y000386
X042396Y00036
X042407Y00079
X042745Y00064
X043096Y000811
X043115Y000446
X044306Y000334
X04432Y00064
X044713
X045003Y000439
X044998Y00086
X046028Y000823
Y000407
X046288Y00064
Y001427
X046485Y001821
X046879
X047272
X047666
X047469Y002215
X047075
X046682
X046879Y002608
X047272
X047666
X047469Y003002
X047075
X047272Y003396
X047666
X047469Y00379
X047075
X047272Y004183
X047666
X047469Y004577
X047075
X047272Y004971
X047666
X047469Y005364
X047075
X047272Y005758
X047666
X047469Y006152
X047075
X047272Y006545
X047666
X047469Y006939
X047075
X046682
X046879Y007333
X047272
X047666
X047469Y007727
X047075
X046682
X046288
X046485Y00812
X046879
X047272
X047666
X047469Y008514
X047075
X046682
X046288
X046485Y007333
X046879Y006545
X047666Y008908
Y009695
X047469Y010089
X047075
X046682
X046288
X046485Y010482
X046879
X047272
X047666
X047469Y010876
X047075
X046682
X046288
X046485Y01127
X046879
X047272
X047666
X047469Y011664
X047075
X046682
X046879Y012057
X047272
X047666
X047469Y012451
X047075
X047272Y012845
X047666
X047469Y013238
X047075
X047272Y013632
X047666
X047469Y014026
X047075
X047272Y014419
X047666
X047469Y014813
X047075
X047272Y015207
X047666
X047469Y015601
X047075
X047272Y015994
X047666
X047469Y016388
X047075
X045891Y015064
X0452Y0148
X043822Y013492
X043993Y012794
X043939Y012085
X043751Y011692
X043551
Y011492
X043351
X043151
Y011292
X043351
X043551
X043751
Y011492
X044203Y01149
X044134Y010711
X044051Y010507
X044267Y010523
X044472Y010549
X043865Y010593
X043665Y010504
X043729Y009695
X044123
X044516
X04491
X045304
X045697
X046091
X045894Y009301
X045501
X045107
X044713
X04432
X043926
X043532
X043138
X042745
X042351
X041957
X042154Y009695
X04176
X041367
X04117Y010089
X040776
X040973Y010482
X041367
X04176
X041564Y010089
X041957
X042351
X042548Y009695
X042942
X043335
Y008908
X043729
X044123
X044516
X04491
X045304
X045697
X046091
X045894Y008514
X045501
X045107
X045697Y00812
X046091
X045894Y010089
X045501
X045107
X045697Y010482
X046091
X043351Y011692
X043151
X04118Y012188
X041592Y012625
X040492Y013131
X039997Y012702
X039989Y011664
X039595
X039201
X038808
X038414
X03802
X037627
X037233
X036839
X037036Y012057
X036642
X036249
X036052Y012451
X036446
X036839
X037233
X037627
X03802
X038414
X038611Y012057
X039005
X038217
X037823
X03743
Y01127
X037823
X038217
X038611
X039005
X039398
X039792
X040186
X040579
X040383Y010876
X040776
X04117
X040579Y010482
X039989Y010876
X039595
X039189Y010359
X039167Y009656
X038611Y009695
X038217
X037823
X03743
X037036
X037035Y010143
X037606Y010143
X038177
X038104Y010656
X037533
X036962Y010666
X03644Y010896
X036478Y010269
X036008Y010593
X036026Y011289
X035585Y010976
X035541Y01159
X034989Y011739
X034522Y011702
X034515Y012125
Y012696
X034517Y013267
X034381Y013822
X033846Y013662
X033755Y013416
X033988Y013064
X033495Y012868
X0329Y0128
X032456Y012653
X03194Y012648
X031924Y012078
X031524Y012057
X031131
X030737
X030934Y012451
X031327
X031524Y012845
X031131
X030737
X030934Y013238
X031327
X031524Y013632
X031131
X030737
X030934Y014026
X031327
X031524Y014419
X031131
X030737
X030934Y014813
X031327
X031524Y015207
X031131
X030737
X030934Y015601
X031327
X031524Y015994
X031131
X030737
X030934Y016388
X031327
X032078Y016069
Y015498
Y014927
X032063Y014356
X032015Y013787
X031974Y013218
X032491Y013223
X033145Y013319
X033361Y013829
X0336Y013965
X034024Y014267
X033651Y0147
X03357Y015265
Y015836
Y016406
X033057Y016086
Y015515
X033061Y014944
X032739Y014777
X032607Y015333
X032592Y015904
Y016474
X034871Y016388
X035264
X035658
X036052
X036446
X036839
X037233
X037627
X03743Y015994
X037036
X036642
X036249
X035855
X035461
X035068
X034871Y015601
X035264
X035658
X036052
X036446
X036839
X037233
X037627
X03743Y015207
X037036
X036642
X036249
X035855
X035461
X035068
X034871Y014813
X035264
X035658
X036052
X036446
X036839
X037233
X037627
X03743Y014419
X037036
X037233Y014026
X037627
X037823Y013632
X03743
X037233Y013238
X037627
X03802
X038217Y012845
X037823
X03743
X037036
X036642
X036249
X035855
X035461
X035264Y013238
X035658
X036052
X036446
X036839
X035461Y013632
X035068
X035264Y014026
X035658
X035461Y014419
X035068
X033228Y014398
X032996Y014268
X032563Y013984
X03275Y013732
X032905Y011972
X032439Y012082
X032443Y011723
X032681Y011377
X032689Y010979
X032434Y010907
X032427Y01037
X032839Y010357
X033153Y010238
X032923Y009985
X032705Y009695
X032695Y009461
X032509Y009301
X032435Y009799
X031918Y009695
X031524
X031721Y010089
X031912Y010365
X031895Y01116
X031916Y011507
X031524Y01127
X031131
X030737
X030934Y011664
X031327
Y010876
X030934
X031131Y010482
X031721Y009301
X031931Y009224
X031918Y008908
X031912Y008653
X031721Y008514
X031524Y00812
X031131
X031278Y007732
X031516Y007271
X031538Y007059
X031072Y007056
X0311Y00639
X031509Y006502
X032031Y006734
X032021Y007364
X031956Y007636
X032392Y007798
X032271Y008111
X032616Y008323
X032437Y008658
X032675Y008891
X033181Y008612
X033493Y008908
X033886
X03428
X034674
X035068
X034871Y009301
X034477
X034083
X03369
X033296
X033493Y009695
X033604Y00992
X033848Y010076
X033992Y010265
X034064Y010473
X033611Y010327
X033886Y009695
X03428
X034674
X035068
X035461
X035264Y009301
X034873Y010755
X03506Y011202
X034584Y011221
X034022Y011577
X033703Y011941
X033672Y012326
X033072Y008051
X032835Y007532
X032482Y007083
X033484Y006821
X033225Y006313
X033045Y005986
X033054Y005543
X033042Y00515
X032527Y005228
X032464Y004918
X032211Y004664
X031902Y004578
X031592Y004641
X031338Y004895
X031253Y005203
X031315Y005513
X031569Y005767
X031877Y005853
X032187Y00579
X032441Y005536
X033864Y005522
X033873Y005126
X033469Y004944
X034488Y004895
X034402Y005203
X034465Y005513
X034719Y005767
X035027Y005853
X035337Y00579
X035591Y005536
X035677Y005228
X035614Y004918
X03536Y004664
X035052Y004578
X034742Y004641
X033864Y006043
X033988Y006543
X033937Y007169
X034479Y007283
X03505
X035099Y006726
X034528
X035734Y006621
X036224Y006635
X036812Y006629
X0373Y006629
X037753Y006472
X038137Y006748
X038731Y006779
X038946Y006714
X03897Y007305
X038725Y007234
X038283Y007261
X037714Y007313
X037297Y007378
X036754Y007366
X036203Y007376
X035621Y007336
X037036Y008908
X03743
X037823
X038217
X03802Y009301
X037627
X037233
X038414
X038808
X039399Y009135
X039438Y008565
X039461Y007969
X039382Y007754
X039383Y007308
Y006908
X039583Y006708
Y007108
X039783Y006908
X039983Y006708
Y007108
X039783Y007308
X039985Y007748
X039917Y007963
X039951Y008309
X03995Y00888
X039847Y009442
X039588Y00995
X038736Y010031
X038672Y010601
X038785Y005866
X0388Y005
X0399Y005
X040343Y005175
X04005Y005702
X039787Y006255
X040433Y006707
X040646Y006777
X041061Y006748
X041632
X042202
X042773Y006741
X042708Y007262
X042453Y007261
X041882
X041311
X040646Y007237
X040441Y007299
X041005Y00535
X043444Y005354
Y004783
X043383Y004218
X043371Y003633
X043331Y003206
X043437Y00285
X043444Y002499
X043115Y002387
X04311Y001987
X043112Y001657
X043107Y001259
X042942Y001034
X042548
X042403Y001376
X042411Y001806
X042407Y002237
X042124Y002257
X041654
X041378Y002233
X041374Y001837
X041372Y001393
X040973Y001034
X040579
X040186
X039792
X039398
X039005
X038611
X038217
X037823
X03743
X037036
X036642
X036249
X035855
X035591Y001205
X035337Y001459
X035027Y001522
X034719Y001436
X034465Y001182
X03428Y001034
X033886
X033493
X033099
X032705
X032441Y001205
X032187Y001459
X031877Y001522
X031569Y001436
X031327Y001427
X030934
X03054
X030737Y001821
Y001034
X031131
X030865Y006097
X030587Y00612
X043276Y00647
X043264Y007129
X043703Y006764
X043935Y006243
X043958Y005672
Y005101
Y004531
X044012Y004102
X044015Y00363
X043972Y003244
X043958Y00282
X043971Y002478
X044287Y00224
X044296Y001935
X044316Y001639
X044309Y001218
X044516Y001034
X045003Y001486
X045005Y001854
X045016Y002209
X045297Y002236
X04571
X046002Y002214
X046023Y001843
X046028Y001451
X043444Y005925
X042917Y015486
X042241
X041982Y015708
X04213Y015085
X04142Y015287
X041153Y015498
X041149Y015707
X041228Y016127
X041193Y016496
X040619Y016481
X040558Y016144
X039499Y016298
X039494Y015598
X039154Y015907
X040101Y014535
X041158Y014572
X040935Y014848
X029348Y015035
X028548
X027748
X026948
X026148
X025348
X024548
X023748
X022948
X022148
X021348
X020548
X019748
X018948
X018548Y014635
X018148Y014235
Y013435
Y012635
Y011835
X018548Y012235
Y013035
X018948Y012635
Y011835
X018548Y011435
X019348
X019748Y011835
Y012635
Y013435
X018948
X018548Y013835
X018948Y014235
X019748
X019348Y013835
Y014635
Y015435
X018548
X018148Y015035
Y015835
X018548Y016235
X018948Y015835
X019748
X019348Y016235
X020148
X020548Y015835
X020148Y015435
Y014635
X020548Y014235
Y013435
X020148Y013835
Y013035
X019348
Y012235
X020148
X020548Y011835
Y012635
X021348
Y013435
Y014235
X020948Y013835
Y014635
Y015435
X021348Y015835
X020948Y016235
X021748
X022148Y015835
X021748Y015435
Y014635
X022148Y014235
Y013435
X021748Y013835
Y013035
X020948
Y012235
X021348Y011835
X020948Y011435
X020148
X020217Y009947
Y008967
X019217
Y009947
X018217
Y008967
X018046Y007954
X017998Y007326
X01787Y006827
X017745Y006545
X017351
X017154Y006939
X016792Y007203
X016922Y007707
X017154Y007727
X017455Y007502
X017508Y008143
X016981Y008363
X01676Y008514
X016469Y008615
X016564Y008908
X01617
X015972Y008897
X015973Y009301
X016367
X01617Y009695
X015776
X015383
X014989
Y008908
X015296Y008568
X015579Y008514
X015894Y008201
X01617Y00812
X016401Y00794
X016269Y007431
X015758Y007686
X015261Y007966
X01509Y007026
X015388Y006735
X015552Y006453
X015618Y00604
X015058Y006182
X014922Y006474
X015086Y005125
X015609Y005131
X015634Y004519
X015708Y004112
Y003756
X015647Y00338
X015632Y002794
X015669Y002438
X015925Y002411
X015939Y002111
X015943Y00179
X015939Y001432
X015943Y001092
X01617Y001034
X016656Y001452
X016663Y001832
X016671Y002234
X016969Y002247
X017399Y002245
X017668Y002223
X017942Y002215
X018335
X018729
X019123
X019516
X019713Y001821
X01932
X018926
X018532
X018138
X017679Y001844
X017686Y001435
X017942Y001427
X018335
X018138Y001034
Y002608
X018532
X018926
X01932
X019123Y003002
X018729
X018335
X018532Y003396
X018926
Y004183
X018532
X018138
Y003396
Y004971
X018532
X018926
X018532Y005758
X018138
X017745
X017548Y006152
X017942
X018335
X018138Y006545
X018422Y00668
X01855Y00718
X018595Y007798
X019153Y007675
X019717Y007586
X020285Y007531
X020855Y007509
X021426Y007508
X021997
X022568
X023139
X02371
X024281
X024852
X025422
X025711Y007579
X025692Y007251
X025624Y006931
X025888Y006906
X025821Y006388
X025525Y006313
X025244Y006356
X025422Y006644
X025344Y006963
X024808Y006901
X024237
X023667
X023096
X022525
X021954
X021383
X020812Y006904
X020242Y006925
X019673Y006977
X019545Y006475
X020113Y006419
X020683Y006392
X021254Y006388
X021825
X022395
X022966
X023537
X024108
X024679
X026392Y006388
X026758Y006402
X027139Y006723
X027009Y007239
X02688Y007484
X026857Y008057
X026959Y008571
X026941Y008969
X0267Y009275
X026701Y009734
X027035Y009996
X027513Y009999
X02774Y009682
X027736Y009219
X02749Y008973
X027472Y008709
X027548Y008163
X027552Y007548
X027535Y00723
X027952Y007244
X028583Y007251
X028442Y007549
X028765Y007521
X029033Y007507
X029503Y007511
X030175Y007507
X030146Y007727
X030476Y007528
X030421Y006994
X03031Y006384
X029806Y006393
X029235
X028664
X028369Y006345
X028059Y006335
X028217Y006649
X028441Y006929
X028741Y006921
X02928Y006994
X029753Y006939
Y005364
X029359
X029556Y004971
X029949
X029753Y004577
X029359
X028965
X029162Y004183
X029556
Y003396
X029162
X028965Y003002
X029359
X029753
X029949Y003396
Y002608
X029556
X029162
X028768
X028572Y002215
X028965
X029359
X029753
X030146
X030343Y001821
X029949
X029556
X029162
X028768
X028375
X028178Y001427
X027784
X027981Y001034
X027587
X027194
X0268
X026406
X026012
X025619
X025225
X024831
X024438
X024044
X02365
X023257
X022863
X022469
X022075
X021682
X021288
X020894
X020501
X020107
X01991Y001427
X020304
X020942Y002144
X021608Y001927
X022217Y002046
X022895Y002052
X02379Y002141
X024517Y001935
X025094Y002043
X0258Y002048
X0258Y0043
X026544Y004818
X026934Y005301
X027329Y005369
X027746
X02814Y005255
X029162Y004971
X025974Y005541
X025991Y007458
X026509Y007218
X026217Y008967
Y009947
X025217
Y008967
X024217
Y009947
X023217
Y008967
X022217
Y009947
X021217
Y008967
X021748Y011435
X022148Y011835
Y012635
X021748Y012235
X022548
X022948Y011835
Y012635
Y013435
Y014235
X022548Y013835
Y014635
Y015435
X022948Y015835
X022548Y016235
X023348
X023748Y015835
X023348Y015435
Y014635
X023748Y014235
Y013435
X023348Y013835
Y013035
X022548
Y011435
X023348
X023748Y011835
Y012635
X023348Y012235
X024148
X024548Y011835
Y012635
Y013435
Y014235
X024148Y013835
Y014635
Y015435
X024548Y015835
X024148Y016235
X024948
X025348Y015835
X024948Y015435
Y014635
X025348Y014235
Y013435
X024948Y013835
Y013035
X024148
Y011435
X024948
X025144Y01114
X025422Y011135
X025691Y011134
X025959Y011133
X026185Y011138
X026446Y011139
X026707Y011136
X026957Y011139
X027239Y011136
X027494Y011153
X027744Y01113
X027348Y011435
X026948Y011835
X026148
X025348
Y012635
X024948Y012235
X025748
X026148Y012635
Y013435
Y014235
X025748Y013835
Y014635
Y015435
X026148Y015835
X025748Y016235
X026548
X026948Y015835
X026548Y015435
Y014635
X026948Y014235
Y013435
X026548Y013835
Y013035
X025748
Y011435
X026548
Y012235
X026948Y012635
X027748
Y013435
Y014235
X027348Y013835
Y014635
Y015435
X027748Y015835
X027348Y016235
X028148
X028548Y015835
X028148Y015435
Y014635
X028548Y014235
Y013435
X028148Y013835
Y013035
X027348
Y012235
X027748Y011835
X028548
Y012635
X028148Y012235
Y011435
X028948
X029348Y011835
Y012635
Y013435
Y014235
X028948Y013835
Y014635
Y015435
X029348Y015835
X028948Y016235
Y013035
Y012235
X029217Y009947
Y008967
X028217
Y009947
X030343Y00812
X030146Y001427
X029753
X029949Y001034
X030343
X023396Y003394
X022902Y004094
X022911Y004499
X020443Y00341
X01898Y006561
X019109Y007063
X015579Y009301
X015776Y01127
X015383
X015186Y011664
X015579
X015973
X015776Y012057
X015383
X015186Y012451
X015579
X015973
X015776Y012845
X015383
X015186Y013238
X015579
X015973
X015776Y013632
X015383
X015186Y014026
X015579
X015973
X015776Y014419
X014989
X015383Y015994
X015776
X015579Y016388
X015186
X015973
Y015601
X015045Y004616
X01501Y004225
X015022Y003647
X014976Y0032
X015043Y002849
X015075Y002497
X01478Y002411
X014769Y002007
X01478Y001624
X014769Y001259
X014595Y001034
X014201
X014055Y001435
Y001862
X014038Y002231
X013799Y002242
X013317Y002251
X01305Y002235
X01301Y001847
X013033Y001454
X012627Y001034
X012233
X011839
X011446
X011052
X010658
X010264
X009871
X009477
X009083
X00869
X008296
X007902
X007509
X007244Y001205
X006991Y001459
X00668Y001522
X006372Y001436
X006118Y001182
X005934Y001034
X00554
X005146
X004753
X004359
X004095Y001205
X003841Y001459
X003531Y001522
X003223Y001436
X002969Y001182
X002784Y001034
X00239
X001997
X0018Y001427
X002194
X001603Y001821
X001209
X000816
X000619Y002215
X001012
X001406
X001209Y002608
X000816
X000619Y003002
X001012
X000816Y003396
X000619Y00379
X001012
X000816Y004183
X000619Y004577
X001012
X000816Y004971
X000619Y005364
X001012
X000816Y005758
X000619Y006152
X001012
X001209Y006545
X000816
X000619Y006939
X001012
X001406
X001603Y007333
X001209
X000816
X000619Y007727
X001012
X001406
X0018
X001997Y00812
X001603
X001209
X000816
X000619Y008514
X001012
X001406
X0018
X002194
X002587
X002784Y008908
X00239
X001997
X002194Y009301
X002587
X002981
X003375
X003768
X004162
X004556
X004949
X005343
X005737
X006131
X006524
X006918
X007312
X007509Y008908
X007115
X006721
X006327
X005934
X00554
X005146
X004753
X004359
X003965
X003571
X003178
Y009695
X002784
X00239
X001997
X0018Y010089
X001406
X001012
X000619
X000816Y010482
X001209
X001603
X001997
X00239
X002194Y010089
X002587
X002981
X003571Y009695
X003965
X004359
X004753
X005146
X00554
X005934
X006327
X006721
X007115
X00786Y009772
X008104Y009528
X008378Y00925
X008653Y008982
X007902Y008908
X007871Y007367
X007387Y007342
X007399Y006625
X007898Y006613
X00845
X008964Y006624
X009404Y00648
X009323Y00735
X008966Y007388
X008456Y007383
X010159Y007287
X010395Y007227
X010597Y007297
X011052Y0073
Y0069
X011252Y0067
X011652
X011452Y0069
X011252Y0071
X011652
X011452Y0073
X011646Y00775
X011576Y007954
X011121Y007948
X011055Y007746
X011091Y008508
X011632Y008519
X011621Y009096
X011073Y009091
X011091Y00965
X010658Y009695
X010264
X010068Y010089
X010461
X010264Y010482
X009871
X009674Y010089
Y010876
X010068
X010461
X010264Y01127
X009871
X009477
X00928Y011664
X009674
X010068
X009871Y012057
X009477
X009083
X008886Y012451
X008493
X00869Y012845
X009083
X008886Y013238
X008493
X008099
X007705
X007902Y013632
X008296
X008099Y014026
X007705
X007312
X007509Y014419
X007115
X006918Y014813
X007312
X007705
X007902Y014419
X008685Y014501
X008416Y015004
X008189Y015528
X008008Y016069
X008525Y01629
X008736Y015759
X008953Y015717
X008998Y015252
X009276Y015247
X009314Y014777
X009672Y014835
X009681Y014339
X010125Y014488
X010164Y014089
X010536Y014261
X010759Y014072
X011068Y014105
X011103Y013322
X01134Y013416
X011367Y012889
X010958Y01301
X010844Y012659
X011112Y012428
X011715Y012489
X011605Y011929
X010883Y011894
X011091Y011362
Y010792
Y010221
X011605Y010426
Y009855
X012233Y009695
X012627
X01302
X013445Y009344
X013609Y009897
X013676Y010086
X014Y009734
X014052Y0095
X014398Y009301
X014315Y008595
X014781Y008275
X014682Y007216
X014623Y006676
X013856Y006744
X013283Y006721
X013283Y007275
X013631Y007265
X0132Y0077
X013
Y0079
X0128
Y0077
X012608Y007273
X012298Y007227
X012099Y007298
X012092Y006706
X012298Y006773
X012711Y006726
X0129Y0057
X011705Y005692
X011452Y006234
X010603Y006701
X010394Y006772
X010159Y006696
X01027Y005705
X010252Y005317
X01139Y004916
X011997Y005122
X01224Y009092
X012634
X012632Y010145
X013204Y010299
X013272Y01049
X01327Y010854
X012905Y010927
X0128Y010703
X013027Y010628
X013778Y010709
X013604Y01097
X013445Y011181
X013308Y011689
Y01226
X013303Y012654
X012972Y013026
X012465Y012892
X012459Y012551
X012176Y012826
X012129Y0122
X011993Y01151
X011611Y011168
X011824Y010953
X012396Y011107
X012228Y010549
X012795Y011487
X012761Y011866
X014334Y012018
X0146Y0117
Y0115
Y0113
Y0111
Y0109
X014587Y009965
X014792Y010089
X014182Y010306
X013808Y008908
X010296Y009083
X009884Y009095
X009603Y009307
X00935Y009548
X009117Y009798
X00928Y012451
X009674
X010076Y012701
X01044Y013062
X010428Y013372
X010042Y013471
X009676Y013108
X009306Y013544
X008979Y014011
X008296Y012845
X007509Y013632
Y015207
X007115
X006721
X006524Y015601
X006918
X007312
X007115Y015994
X006721
X006524Y016388
X006918
X007312
X0092Y016361
X009674Y016388
X010068
X010461
X010658Y015994
X010264
X009871
X00947Y015858
X009823Y015409
X010068Y015601
X010461
X010855
X011249
X011642
X011839Y015207
X012233
X012627
X01302
X013414
X013217Y014813
X012823
X01243
X012478Y014569
X012898Y014439
X013147Y014165
X013308Y013815
X012399Y014024
X011867Y014027
X011908Y013508
X011815Y013243
X012373Y013361
X011846Y014574
X012036Y014813
X011642
X011249
X011407Y014633
X011446Y015207
X011052
X010658
X010813Y014778
X01025Y01503
X01048Y012298
X0079Y0114
X0076
Y0111
X0073
Y0108
X007
Y0105
X0067
X005801Y010466
X005559Y010462
X005328Y010455
X005079Y010449
X00484Y010445
X0018Y010876
X001406
X001012
X000619
X000816Y01127
X001209
X001603
X001406Y011664
X001012
X000619
X000816Y012057
X001209
X001012Y012451
X000619
X000816Y012845
X000619Y013238
X001012
X000816Y013632
X000619Y014026
X001012
X000816Y014419
X000619Y014813
X001012
X000816Y015207
X000619Y015601
X001012
X000816Y015994
X000619Y016388
X001012
X01255Y016413
X0146Y0165
Y0163
Y0161
Y0159
X014792Y015601
X014201Y015207
X014398Y014813
X014727Y014014
X014335Y013687
X014331Y013087
X01416Y012623
X006704Y007278
X006133
X006182Y006722
X006753
X00668Y005853
X006991Y00579
X007244Y005536
X00733Y005228
X007267Y004918
X007014Y004664
X006705Y004578
X006395Y004641
X006142Y004895
X006056Y005203
X006118Y005513
X006372Y005767
X005517Y005522
X005527Y005126
X005122Y004944
X004696Y00515
X004708Y005543
X0047Y005992
X00488Y006313
X005141Y006821
X005641Y006539
X005518Y006043
X005595Y007167
X003841Y00579
X003531Y005853
X003223Y005767
X002969Y005513
X002906Y005203
X002992Y004895
X003246Y004641
X003556Y004578
X003864Y004664
X004118Y004918
X00418Y005228
X004095Y005536
X006327Y016782
X006721
X007115
X006918Y017175
X006524
X006721Y017569
X006327
X006524Y017963
X006918
X007115Y017569
Y018356
X006721
X006327
X006918Y01875
X007743Y0189
Y018329
X007747Y017758
X007788Y017189
X007875Y016624
X008555Y016598
X008378Y016841
X008443Y017141
X008289Y017405
X008395Y017691
X008257Y017975
X008406Y018277
X008257Y018546
X008413Y018807
X008257Y019117
X008404Y019393
X008257Y019688
X008409Y019971
X008257Y020258
X008409Y020548
X008257Y020829
X0084Y021109
X008257Y0214
X0084Y0217
X008257Y021971
X0084Y022264
X008286Y022541
X008477Y022805
X008397Y023101
X008606Y023302
X008591Y023638
X008844Y023831
X008862Y024141
X009123Y024264
X009206Y024596
X00949Y0247
X009613Y024997
X009909Y025068
X010077Y025328
X010425Y025349
X010584Y025592
X010764Y025475
X011126Y025771
X011315Y025627
X011687Y025874
X011883Y025684
X012454Y025684
X012258Y025892
X012829
X013024Y025684
X013595
X0134Y025892
X013971
X014166Y025671
X014725Y025557
X014527Y026019
X01457Y026716
X014201Y027018
X013808
X013414
X01302
X012627
X012233
X011839
X011446
X011052
X010658
X010264
X009871
X010068Y027412
X010461
X010855
X011249
X011642
X012036
X01243
X012823
X013217
X013611
X014005
X014398
X014695Y027273
X014752Y027841
X014201Y027805
X013808
X013414
X013395Y028939
X013009Y029101
X012172Y028921
X011781
X011596Y029088
X0114Y028921
X011
X010597Y029054
X01019Y029059
X0098Y028921
X009394
X008994Y029085
X008592Y029076
X008134Y02908
X0078Y029078
X007772Y028774
X007437Y028534
X007248Y028973
X007089Y029356
X0078Y029967
X0082Y029966
X0086
X009
X0094
X0098
X0102
X0106
X011
X0114
X0118
X0122
Y030748
X0118
X0114
X011
X0106
X0102
X0098
X0094
X009004Y030744
X0086Y030748
X0082
X0078
X0084Y0313
X008569Y031583
X008758Y031953
X008019Y03194
X007122Y031934
X009184Y031079
X009999Y031245
X010329Y031539
X011069Y031388
X011981Y031356
X012166Y031515
X012709Y031642
X013039Y031749
X013047Y031988
X013808Y031972
X014036Y031907
X014229Y031769
X014106Y031102
X013862Y030979
X013618Y031092
X013371Y030983
X013516Y03041
X01439Y030155
X014786Y030149
X014617Y030365
X01472Y030595
X014714Y030871
X012617Y030906
X012372Y026405
X012943
X013514
X014084Y026415
X013969Y025166
X013399Y025171
X013414Y024656
X013808
X014201
X014595
X014533Y025076
X014595Y023868
X014402Y023492
X014194Y023478
X014534Y023289
X014533Y023072
X014547Y022819
X014551Y022591
X014355Y022704
X01383Y022462
X01363
Y022262
Y022062
X01343
Y021862
X01363
X01383
Y022062
Y022262
X01343
Y022462
X013027Y022419
X013033Y022687
X012661Y022473
X012331Y02272
X012318Y022215
X011992Y022466
X011626Y022575
X011624Y022162
X009871Y022293
X009477
X00928Y022687
X008977Y022602
X008924Y022034
X00928Y0219
X009674
X009871Y021506
X009477
X00928Y021112
X009674
X009871Y020719
X009477
X00928Y020325
X008924Y020321
Y020892
Y021463
X007743Y021183
Y020612
Y020041
Y019471
X007115Y019931
X006918Y020325
X006524
X006721Y020719
X006327
X006524Y021112
X006918
X007115Y021506
X006721
X006327
X006524Y0219
X006918
X007115Y022293
X006721
X006327
X006524Y022687
X006918
X007115Y023081
X006721
X006327
X006524Y023475
X006918
X007312
X007509Y023868
X007115
X006721
X006918Y024262
X007312
X007705
X007902Y024656
X007509
X007115
X007312Y025049
X007705
X008099
X008296Y025443
X007902
X007509
X007705Y025837
X008099
X008493
X008886
X009209Y025327
X00966Y025677
X010156Y02596
X010684Y026178
X010461Y026624
X010068
X011234Y026328
X011801Y026396
X011686Y025157
X012257Y025171
X012233Y024656
X012627
X01302
X012828Y025171
X012925Y024022
X013318
X013712
X014097Y024025
X013632Y023409
X013838Y023162
X013403
X01363Y022912
X013284Y021415
X013244Y020894
X013175Y020612
X01319Y020286
Y019905
X013071Y019612
X012886Y018887
X012686Y018687
Y018287
X012486Y018087
X012286Y018287
X012486Y018487
X012286Y018687
X012486Y018887
X011901Y018749
X01191Y019079
X011656Y0193
X012151Y0198
X012291Y020295
X012311Y0207
X012503Y02087
X012721Y02113
X013488Y020733
X013833Y02126
X014386Y020873
X01426Y020519
X014664Y020477
X014569Y019847
X014128Y020165
X013444Y018751
X013086Y018687
Y018287
X012886Y018087
Y018487
X013186Y017728
X012572Y017271
X011805Y016891
X010264Y016782
X009871
X009477
X009021Y016903
X00928Y017175
X009674
X009871Y017569
X009477
X00928Y017963
X009674
X009871Y018356
X009477
X00928Y01875
X009674
X009871Y019144
X009477
X008924Y01918
Y019751
X00928Y019538
X009674
X009871Y019931
X009477
X009674Y020325
X010918Y019862
X010757Y019195
X010926Y018476
X010919Y018225
X010761Y017608
X008935Y017467
X008924Y018038
Y018609
X007115Y020719
X007743Y021754
X007751Y022325
X007817Y022892
X007963Y023444
X008179Y023972
X008458Y02447
X008807Y024922
X009706Y024133
X009871Y023868
X010264
X010658
X010461Y023475
X010068
X009674
X009374Y023668
X009477Y023081
X009871
X009674Y022687
X009129Y023153
X010114Y024532
X010461Y024262
X010855
X011249
X011446Y024656
X011052
X011125Y025051
X010595Y02484
X011839Y024656
X012137Y024022
X012531
X008296Y02623
X0053Y0294
Y0297
X005
Y03
X0047Y0313
X0044
Y0316
X0041
X001012Y031349
X000619
X000816Y031742
X000619Y032136
X001012
X000816Y030955
X000619Y030561
X001012
X000816Y030167
X000619Y029774
X001012
X000816Y02938
X000619Y028986
X001012
X000816Y028593
X000619Y028199
X001012
X000816Y027805
X000619Y027412
X001012
X000816Y027018
X000619Y026624
X001012
X000816Y02623
X000619Y025837
X001012
X000816Y025443
X000619Y025049
X001012
X000816Y024656
X000619Y024262
X001012
X000816Y023868
X000619Y023475
X001012
X000816Y023081
X000619Y022687
X001012
X000816Y022293
X000619Y0219
X001012
X000816Y021506
X000619Y021112
X001012
X000816Y020719
X000619Y020325
X001012
X000816Y019931
X000619Y019538
X001012
X000816Y019144
X000619Y01875
X001012
X000816Y018356
X000619Y017963
X001012
X000816Y017569
X000619Y017175
X001012
X000816Y016782
X0146Y0167
X014601Y0176
X014592Y017995
X014599Y018394
X015383Y018356
X015776
X01578Y018636
X015579Y01875
X015186
X015376Y019039
X015471Y01967
X015383Y019931
X015067Y020074
X015186Y020325
X015579
X015776Y020719
X015383
X015579Y021112
X015973
X0163Y021409
X016162Y021681
X016649Y021868
X016606Y022136
X016828Y021609
X017295Y021879
X017537Y021721
X017594Y020829
X017313Y020836
X017323Y020552
X017433Y02033
X017465Y020074
X017399Y019811
X017283Y01956
X017961Y019564
X01792Y019138
X017701Y018867
X01769Y01851
X017736Y017986
X017981Y018069
X018298
X018289Y017842
X018604Y018069
X01874Y018318
X018734Y018751
X018687Y019076
X018474Y019314
X018535Y019872
X018536Y020457
X018574Y020895
X018844Y02087
X019415
X019986
X020557
X021128
X021698
X022269
X022272Y020325
X022666
X02306
X023453
X023847
X024241
X024634
X025028
X025422
X025816
X026209
X026603
X026997
X02739
X027784
X028178
X028572
X028965
X029359
X029753
X030146
X030343Y019931
X029949
X029556
X029162
X028768
X028375
X027981
X027587
X027194
X0268
X026406
X026012
X025619
X025225
X024831
X024438
X024044
X02365
X023257
X022863
X022469
X022075
X021682
X021288
X020894
X020501
X020107
X019713
X019516Y020325
X01991
X020304
X020697
X021091
X021485
X021879
X022138Y021383
X022148Y021713
X021579Y021664
X021567Y021383
X020997
X021009Y021639
X020447Y021538
X020122Y021388
X020167Y021994
X020724Y022121
X020697Y022687
X021091
X021485
X021879
X021863Y022194
X021292Y022175
X021288Y023081
X020894
X020501
X020107
X01991Y023475
X020107Y023868
X01991Y024262
X020107Y024656
X020501
X020304Y025049
X020697
X021091
X021288Y024656
X021879Y024262
X021682Y023868
X021485Y023475
X021879
X021682Y023081
X022474Y023599
X023038Y023424
X023439Y023445
X023459Y02277
X023732Y022331
X024221Y022446
X024178Y022687
X024574Y022987
X024957Y023341
X025284Y02326
X025474Y022945
X025766Y023125
X02614Y023461
X02646Y023968
X026805Y023982
X027058Y023956
X02755Y023971
X02739Y024262
X027784
X028178
X027981Y023868
X028375
X028768
X028572Y023475
X028965
X029162Y023081
X029556
X029949
X030343
X030146Y022687
X03038Y02203
X029809Y022057
X02989Y021543
X030099Y021377
X030459Y021497
X030261Y020841
X029691Y02087
X02912
X028549
X027978
X027407
X026836
X026265
X025694
X025124Y02087
X024553
X023982
X023411
X02284
X022709Y021383
X022705Y021838
X022424Y022297
X022961Y022491
X023235Y02205
X02328Y021383
X023851
X024236Y021404
X024126Y021883
X024641Y021914
X024968Y022271
X024838Y02245
X02553Y02208
X025921Y02208
X026477Y022271
X026741Y022113
X027132Y021996
X027244Y021383
X026673
X026102
X025532
X024964Y021444
X024782Y023848
X025331Y023953
X025814Y024505
X025527Y024815
X025745Y025342
X025816Y025837
X026209
X026603
X026997
X027194Y025443
X0268
X026406
X026603Y025049
X026997
X02739
X027587Y024656
X027194
X026427Y024454
X026179Y024984
X026012Y02623
X025619
X025225
X024831
X024634Y026624
X025028
X025422
X025816
X026209
X026603
X0268Y02623
X026406
X027237Y026346
X027483Y026331
X027696Y0262
X027898Y02602
X027951Y026796
X028482Y026809
X028497Y026378
X028919Y026135
X029394Y025799
X029789Y02582
X029668Y026822
X029339Y026864
X029348Y027403
X028904Y027491
X028482Y027464
X0282Y0277
X027936Y027472
X027329Y027417
X027361Y026869
X026706Y027179
X026247Y027518
X025677Y02756
X025106
X024733Y027554
X024701Y027236
X024388Y027594
X024173Y027525
X024179Y028129
X024394Y02805
X024942Y028073
X025513
X026018Y028073
X025946Y028678
X026236Y028687
X026513Y028685
X026494Y029005
X026228Y029014
X025958Y02899
X025639Y028697
X025268Y028702
X02366Y028786
X02373Y02854
X023734Y028128
X023334
X023134Y027928
Y027528
X023334Y027728
X023534Y027528
Y027928
X023734Y027728
X023725Y02707
X023663Y026865
X023203Y026865
X023132Y027078
X023163Y026411
X023197Y026194
X023117Y02598
X023119Y025534
Y025134
X023319Y024934
Y025334
X023519Y025534
Y025134
X023719Y024934
Y025334
X023721Y025973
X023653Y026188
X023698Y02641
X024177Y025525
X024382Y025463
X024381Y025003
X024168Y024932
X024635Y024902
X025201Y02558
X025225Y027018
X025619
X026012
X026573Y027941
X02693Y028137
X027191Y028093
X027438Y028092
X027699Y027919
X0287Y0279
X0292
X030222Y028084
X030191Y027427
Y027227
X029991
Y027027
X030191
X029991Y027427
X030508Y027628
X029993Y028681
X029474Y029627
X028874Y029583
X02861Y029371
X028204Y029856
X02847Y031526
X028768Y031742
X029622Y031496
X029845Y031691
X030053Y031487
X029939Y030637
X029949Y03023
X030314Y030553
X026468Y03017
X026217Y029958
X026213Y030385
X025119Y030335
X024978Y030157
X024241Y030561
X023847
X023453
X023082Y03043
X022688
X022294
X021901
X021507
X021113
X020719
X020326
X019932
X019538
X019145
X018751
X018926Y030167
X018532
X01932
X019713
X020107
X020501
X020894
X021288
X021682
X022075
X022469
X022863
X023257
X02365
X023508Y029313
X023033Y02906
X023204Y028779
X023139Y028564
X022721Y029271
X02215Y029284
X021579
X021222Y029275
X021024Y029087
X020732Y029076
X020681Y0288
X020395Y0288
X020256Y029255
X019964Y029202
X019579Y02961
X019359Y029407
X019574Y028774
X019643Y028559
X019039Y028565
X019119Y02878
X018451Y028763
X018057Y028712
X018382Y028046
X018628Y028116
X019041Y02812
Y02772
X019241Y02792
Y02752
X019441Y02772
X019641Y02792
Y02752
X02009Y027518
X020303Y027589
X020304Y028049
X020099Y028111
X019441Y02812
X019445Y027066
X019247Y027061
X0185Y0269
X018279Y027028
X01827Y027397
X018389Y02759
X018604Y027525
X017522Y02771
X017533Y026974
X016943Y026679
X016621Y027116
X016497Y027477
X016586Y027774
X016517Y028037
X015972Y028208
X01575Y027855
X01544Y028001
X015448Y028637
X015765Y028714
X016076Y028733
X016434Y028701
X016774Y028579
X016864Y027518
X015558Y027298
X015527Y026899
X015191Y026908
X01521Y027479
X015042Y028333
X014966Y026384
X015754Y026346
X015598Y026094
X015829Y025397
X015727Y025021
X01533Y02466
X014989Y024656
X01506Y024855
X015252Y025338
X015383Y023868
X015776
X015792Y024172
X01599Y023753
X015973Y023475
X015579
X015186
X015383Y023081
X015776
X016088Y022962
X015973Y022687
X016079Y022407
X015776Y022293
X015383
X015186Y022687
X015579
Y0219
X015186
X014989Y023868
X016512Y024124
X01658Y023578
X016601Y023008
X017149Y022985
X017429Y022831
X017577Y022991
X017816Y022995
X018047Y022997
X017946Y022553
X017697Y0227
X018497Y022814
X01892Y02281
X019455Y022544
X019629Y021802
X019068Y021701
X018671Y021687
X018296Y021365
X01791Y020929
X017893Y020593
X01789Y02013
X016921Y020923
X016614Y021065
X016281Y018865
X016201Y01825
X015973Y017963
X015579
X015186
X015383Y017569
X015776
X015579Y017175
X015186
X015383Y016782
X015776
X015973Y017175
X016667Y017921
X016722Y018503
X01721Y018206
X017171Y017653
X017707Y017455
X018262Y017323
X018238Y016917
X018448Y01692
X018674Y01692
X018904
X019138Y016916
X019369Y01692
X019617Y016918
X019898Y016924
X020159Y016926
X02042Y01692
X020548Y016635
X020543Y017264
X020569Y017777
X019998
X020217Y01807
Y01905
X019217
Y01807
X019427Y017777
X019401Y017264
X019972
X019748Y016635
X018948
X01883Y017268
X018857Y017783
X018004Y016913
X017869Y0167
X018148Y016635
X021348
X022148
X022255Y017264
X022282Y017777
X022217Y01807
X021711Y017777
X021685Y017264
X021114
X02114Y017777
X021217Y01807
Y01905
X022217
X023217
Y01807
X023423Y017777
X023397Y017264
X023968
X023994Y017777
X024217Y01807
X024565Y017777
X024539Y017264
X02511
X025136Y017777
X025217Y01807
X025707Y017777
X025681Y017264
X026295Y017174
X026243Y01752
X026302Y017845
X026217Y01807
X026789Y018034
X026703Y018451
X026697Y018807
X02678Y019077
X027107Y019074
X027422Y019077
X027703Y019077
X027734Y018814
X027736Y018434
Y018118
X027424Y018087
X027239Y017772
X026806Y0174
X026677Y01693
X026955Y016924
X026948Y016635
X027247Y016927
X027506
X027774Y01693
X027748Y016635
X028548
X029348
X029217Y01807
Y01905
X028217
Y01807
X026217Y01905
X025217
X024217
X022853Y017777
X022826Y017264
X022948Y016635
X023748
X024548
X025348
X026148
X027815Y021383
X028386
X028957
X028765Y021709
X028701Y022296
X029241Y02211
X02932Y021573
X029528Y021383
X02825Y021956
X028224Y02261
X027796Y022301
X027813Y023006
X027746Y023392
X027962Y023391
X027421Y022661
X026959Y023077
X023901Y023132
X024304Y023536
X024131Y023784
X023523Y02448
X022934Y024494
X022682Y024939
X022706Y02553
X020894Y025443
X021091Y025837
X021759Y026651
X021614Y027266
X021606Y027669
X021776Y027945
X021778Y028345
X021773Y029035
X021947Y029797
X021376
X020805
X022518
X023078Y029688
X02268Y027723
X019633Y026076
X019521Y0258
X019688Y025399
X0193Y0254
X018908Y02521
X01862Y025016
X018138Y024656
X017942Y024262
X017548
X017121Y024412
Y023841
X017121Y024983
X017121Y025554
X017519Y025535
X017818Y025852
X017688Y026128
X017914Y026341
X0182Y0265
X018778Y026188
X018729Y024262
X019123
X018926Y023868
X018532
X01991Y025049
X020304Y022687
X016608Y024721
X016592Y025025
X016221Y024578
X016608Y025863
X016577Y031064
X016259Y031016
X015633Y031096
X015421Y0309
X017505Y03105
X023847Y031349
X024241
X024634
X025028
X025205Y031944
X025599
X025991Y031933
X024811Y031944
X024418
X0289Y025
X0292
Y025281
X015875Y019266
X014973Y019443
X03054Y019538
X030934
X031327
X031524Y019144
X031131
X030737
X030934Y01875
X031327
X031524Y018356
X031131
X030737
X030934Y017963
X031327
X031524Y017569
X031131
X030737
X030934Y017175
X031327
X031524Y016782
X031131
X030737
X032078Y01664
Y01721
Y017781
Y018352
X032074Y018923
X031968Y019484
X032544Y019327
X032915Y019355
X033033Y018796
X032592Y018758
Y018187
X033057Y018226
X032999Y017603
X032592Y017616
Y017045
X033003Y017179
X03299Y016637
X033638Y017027
X033895Y017038
X034238Y017348
X033846Y017673
X03364Y017971
X033568Y018546
X033507Y019114
X033352Y019663
X033118Y020184
X032696Y019882
X032369Y01987
X032384Y020359
X032074Y020359
X031989Y020772
X031672Y020764
X031526Y021106
X031193Y021075
X03101Y021351
X030662Y021283
X03081Y020684
X030934Y020325
X03054
X030737Y019931
X031131
X031703Y01999
X031302Y020396
X031473Y021716
X031524Y022293
X031918
X032312
X032705
X032509Y022687
X032902
Y0219
X032509
X032417Y02108
X031972Y021438
X033099Y021506
X033296Y021112
X03369
X034083
X034477
X034871
X035264
X035658
X036052
X036446
X036839
X037233
X037627
X037823Y021506
X03743
X037036
X036642
X036249
X035855
X035461
X035068
X034674
X03428
X034477Y0219
X034871
X035264
X035658
X036052
X036446
X036249Y022293
X035855
X035461
X035068
X034674
X034477Y022687
X034871
X035264
X035658
X036052
X036446
X036642Y023081
X036249
X035855
X036446Y023475
X036839
X037233
X037627
X037823Y023081
X038217
X03802Y022687
X038414
X038808
X039201
X039595
X039989
X040383
X040741Y022714
X041254Y022659
Y02323
X041236Y023629
X041476Y023598
X042045Y023553
X042615Y02357
X04262Y0241
X042859Y024327
X04331Y024453
X043071Y024735
X043132Y025182
X042612Y025147
X042416Y024611
X041957Y024402
X041451Y024372
X041076Y024046
X040725Y023566
X040741Y023284
X040327Y023551
X039761Y023623
X039226Y023824
X039164Y024469
X038955Y024644
X03898Y025215
X038614Y025102
X038502Y025426
X038469Y025738
X038646Y02605
X038887Y026047
X038915Y026687
X038989Y027112
X038757Y027271
X03814Y027256
X037931Y026725
X037627Y026624
X037233
X036839
X037036Y02623
X03743
X037856Y026159
X037627Y025837
X037233
X036839
X037036Y025443
X03743
X037233Y025049
X037627
X038068Y025044
X037901Y02559
X038456Y026335
X038487Y026768
X038467Y027724
X038249Y028284
X037937Y028695
X037627Y028986
X037233
X036839
X037036Y028593
X03743
X037489Y028342
X037801Y02793
X037327Y027611
X03743Y027018
X037036
X036835Y027322
X0366Y027797
X036259Y027654
X036325Y027066
X035797Y026809
X03579Y026469
X036014Y026071
X035777Y025656
X035804Y025085
X035746Y024439
X035003Y02444
X03479Y024232
X034198Y024037
X034203Y024454
X033403Y024458
X033362Y023887
X032708Y023737
X032282Y023587
X032312Y023081
X031918
X031524
X031131
X030737
X03054Y022687
X030934
X031327
X031721
X032115
X030939Y021918
X032803Y02066
X033886Y020719
X03428
X034674
X035068
X035461
X035855
X036249
X036642
X037036
X03743
X037233Y020325
X037627
X03743Y019931
X037036
X036642
X036249
X035855
X035461
X035068
X034674
X03428
X034083Y020325
X034477
X034871
X035264
X035658
X036052
X036446
X036839
Y019538
X036446
X036052
X035658
X035264
X034871
X034477
X034674Y019144
X035068
X035461
X035855
X036249
X036642
X037036
X03743
X037233Y019538
X037627
X038285Y019596
X038701Y019608
X03851Y019861
X038626Y01911
X038709Y0186
X038301Y018611
X038493Y018376
X038288Y017999
X038695Y017991
X038493Y017764
X037627Y017963
X037233
X036839
X036446
X036052
X035658
X035264
X034871
X035068Y018356
X035461
X035855
X036249
X036642
X037036
X03743
X037233Y01875
X037627
X036839
X036446
X036052
X035658
X035264
X034871
X035068Y017569
X035461
X035855
X036249
X036642
X037036
X03743
X037233Y017175
X036839
X036446
X036052
X035658
X035264
X034871
X035068Y016782
X035461
X035855
X036249
X036642
X037036
X03743
X037627Y017175
X039266Y016958
X039697Y016778
X04014Y016864
X040623Y016789
X041181Y016767
X041478Y016749
X041699Y016945
X041956Y01746
X041813Y018049
X042062Y018144
X042013Y018732
X041297Y018705
X040897
X040697Y018505
X040512Y018299
X040297Y018505
Y018905
X040083Y01893
X040297Y019305
X040497Y019105
Y018705
X040697Y018905
Y019305
X040897Y019105
Y019505
X040497
X041097Y019305
Y018905
Y018505
X041288Y018299
X041297Y019105
Y019505
X041092Y019758
X04159Y019881
X041821Y01981
X041782Y020479
X041792Y021128
X042194Y02113
X041324Y021272
X04132Y021553
X041324Y02096
X040271Y020886
X040279Y021097
X039796Y021119
X03967Y021402
X039835Y021587
X040422Y021705
X04074Y021752
X040741Y022143
X041254Y022088
X042154Y022293
X042548
X042942
X043335
X043729
X044123
X044516
X04432Y022687
X044713
X044516Y023081
X043926Y022687
X043532
X043138
X042745
X042351
X041957
X040186Y022293
X039792
X039398
X039005
X038611
X038217
X03802Y0219
X037627
X038601Y02121
X039045Y021113
X039388Y021139
X040013Y020605
X040464Y020324
X039552Y019539
X039572Y019125
X039932Y017928
X040302Y017458
X042796Y017548
X042731Y016545
X04246Y016551
X043336Y016551
X043689
X0439Y0176
X044001Y017885
X044295Y017986
X044275Y018599
X044009Y01872
X04402Y019013
X044006Y0184
X043716Y018105
X043242Y01852
X042958Y018502
X042808Y019258
X042522Y019671
X04262Y020371
X042884Y020595
X043153Y020789
X043547Y01994
Y019573
X044713Y018597
X045403Y018724
X045624Y018982
X0458Y0185
X045728Y018138
X045765Y017834
X045176Y017971
X0453Y0182
X04413Y017397
X044713Y0219
X045549Y021796
Y02219
Y022584
Y022977
Y023371
X043636Y024054
X043162Y023736
X043576Y024813
X043697Y025177
X044203Y025029
X043995Y024498
X044277Y025849
X044272Y026289
X044249Y026738
X043732Y026718
X043642Y02715
X044137Y027298
X043964Y027662
X043751Y027961
X043387Y028241
X042941Y028447
X042954Y027863
X042987Y027568
X043331Y027629
X043128Y027015
X043142Y026736
X04314Y026288
X043147Y025869
X043601Y025814
X043603Y026279
X042475Y026282
X042473Y025814
X041763Y025861
X041939Y025207
X041355Y025406
X040975Y025439
X040578Y025415
X040339Y025248
X040271Y024397
X039842Y024491
X039512Y024957
X039512Y025361
X039602Y025691
X039597Y026071
X039616Y026436
X039493Y026841
X040003Y026847
X040588Y026635
X040974Y026651
X041366Y0267
X041626Y026832
X041657Y027693
X041984Y027699
X042479Y027415
X042612Y02686
X042613Y028
X042377Y028538
X041642Y028536
X04121Y028644
X04071Y028472
X040659Y028795
X040286Y028534
X039861Y028518
X039397Y028373
X038894Y028103
X039185Y027648
X039634Y027394
X04012Y027693
X040497Y027719
X040873Y02804
X04104Y029189
X040623Y029579
X04007Y02972
X04024Y029182
X039669Y02919
X039127Y029011
X038809Y02943
X039337Y029648
X039398Y030167
X039005
X038611
X038217
X03802Y030561
X038414
X038808
X039201
X039005Y030955
X038611
X038217
X037823
X036642
X036249
X035855
X035461
X035068
X034674
X03428
X034083Y030561
X034477
X034871
X035264
X035658
X036052
X036446
X036249Y030167
X035855
X035461
X035068
X034674
X03428
X033564Y030026
X033409Y031035
X033231Y030896
X03297Y03085
X032756
X032487
X032639Y031016
X032884Y031032
X033099Y031079
X033046Y031788
X03344
X033834
X034228
X032653
X032259
X031865
X031472
X031358Y030752
X031351Y030508
X031003Y030548
X030653Y030788
X03065Y030289
X031734Y030349
Y030149
Y029949
X031934
Y030149
Y030349
Y030549
X031734
X032134
Y030349
Y030149
Y029949
X032466Y029443
X031239Y029236
X031599Y028241
X03162Y027402
X031271Y0274
X031256Y026863
X031628Y026851
X031834Y026615
X032053Y02679
X032294Y026794
X032546Y026869
X032584Y027396
X032288Y027469
X031946Y027465
X032946Y02743
X033336Y027617
X033724Y027616
X034022Y027816
X034319Y027624
X034527Y027423
X034894Y027385
X03487Y026842
X034536Y026836
X034125Y02666
X033925Y02646
X033525
X033725Y02666
X033325
Y02706
X033155Y026937
X033525Y02686
X033925
X033725Y02706
X033525Y02726
X033925
X034125Y02706
X035193Y026804
X035519Y027483
X037015Y028024
X037036Y02938
X036642
X036446Y029774
X03743Y02938
X038354Y029086
X038669Y02867
X039792Y030167
X040542Y030718
X040936
X04133
X04276Y03073
X042528Y030993
X043017Y030483
X043279Y030221
X044123Y030955
X044516
X04491
X045304
X045697
X046091
X045894Y031349
X045501
X045107
Y030561
X045501
X045894
X046091Y030167
X045697
X045304
X04491
X044713Y030561
X045501Y029774
X045894
X046091Y02938
X045697
Y031742
X046091
X0352Y029253
X034456Y028923
X034627Y028657
X034695Y0258
X032582Y026079
X03294Y026437
X0316Y026437
X031516Y026043
X031676Y025648
X030996Y025704
X030591Y025795
X030811Y026868
X030651Y027359
X030559Y027888
X031775Y024462
X032603Y024442
X036839Y024262
X037233
X037627
X03743Y024656
X037036
X036839Y025049
X037036Y023868
X03743
X036642
X03875Y024138
X038355Y02455
X046682Y024262
X047075
X047469
X047666Y023868
X047272
X046879
X046682Y023475
X047075
X047469
X047666Y023081
Y022293
X047469Y0219
X047666Y021506
X047272
X046879
X046682Y021112
X047075
X047469
X047666Y020719
X047272
X046879
X046682Y020325
X047075
X047469
X047666Y019931
X047272
X046879
X047075Y019538
X047469
X047666Y019144
X047272
X047075Y01875
X047469
X047666Y018356
X047272
X047075Y017963
X047469
X047666Y017569
X047272
X047075Y017175
X047469
X047666Y016782
X047272
X04644Y017682
X0462Y0179
X046879Y024656
X047272
X047666
X047469Y025049
X047075
X046682
X046879Y025443
X047272
X047666
X047469Y025837
X047075
X047272Y02623
X047666
X047469Y026624
X047075
X047272Y027018
X047666
X047469Y027412
X047075
X047272Y027805
X047666
X047469Y028199
X047075
X047272Y028593
X046879
X046485
X046288Y028986
X046682
X047075
X047469
X047666Y02938
X047272
X046879
X046485
X046288Y029774
X046682
X047075
X047469
X047666Y030167
Y030955
X047469Y031349
X047075
X046682
X046288
X046485Y031742
X046879
X047272
X047666
X047469Y032136
X047075
X046682
X046288
X046879Y027805
X047666Y028593
X046551Y026488
X046383Y026137
X046326Y025707
X046243Y025399
X046485Y03253
X046879
X047272
X047666
X047469Y032923
X047075
X046682
X046879Y033317
X047272
X047666
X047469Y033711
X047075
X047272Y034104
X047666
X047469Y034498
X047075
X047272Y034892
X047666
X047469Y035286
X047075
X047272Y035679
X047666
X047469Y036073
X047075
X047272Y036467
X047666
X047469Y03686
X047666Y037254
Y038042
X046091
X045697
X045304
X04491
X044516
X044123
X043729
X043335
X042942
X042548
X042154
X04176
X041367
X040973
X040579
X040186
X039792
X039398
X039005
X038611
X038217
X037823
X03743
X037036
X036642
X036249
X035855
X035461
X035068
X034674
X03428
X033886
X033493
X033099
X032705
X032312
X031918
X031524
X031131
X030737
X030934Y037648
X031327
X031721
X032115
X032509
X032902
X033296
X03369
X034083
X034477
X034871
X035264
X035658
X036052
X036446
X036839
X037233
X037627
X03802
X038414
X038808
X039201
X039595
X039989
X040383
X040776
X04117
X041564
X041957
X042351
X042745
X043138
X043532
X043926
X04432
X044713
X045107
X045501
X045894
X045473Y03609
X045258Y036116
X045029Y036067
X045352Y035914
X045488Y035751
X04538Y035545
X045383Y033593
X045641Y033236
X045389Y032882
X043559Y034326
X043252Y035522
X043512Y035852
X043256Y03621
X042647Y036194
X042213Y036287
X042295Y036496
X042279Y036786
X042075Y036631
X042037Y036404
X041818Y0363
X041834Y036577
X041941Y036816
X040739Y036758
X040511Y036508
X040704Y036135
X040454Y035941
X04097Y035337
X040987Y034706
X040787
Y034506
Y034306
X040587
Y034106
X040787
X040987
Y034306
Y034506
X040587
Y034706
X039916Y0347
X040266Y033788
X040365Y033562
X040295Y033125
X039789Y033109
X037999Y033791
X038105Y034112
X038113Y034422
X037901Y034607
X037612
X037256Y034869
X03678Y03483
X036638Y03532
X036226
X035978Y035398
X035501Y035395
X035737Y035741
X036423Y035554
X037496Y03541
X037795Y035412
X037916Y035613
X037624Y035605
X038127Y035514
X038111Y035268
X038115Y035034
X037767Y033572
X037418Y03344
X037186Y033698
X039541Y035689
X042654Y035519
X042879Y035862
X041586Y034283
X033227Y034889
X033421Y035212
X033424Y035462
X033421Y035722
X033422Y035971
X033702
X033953Y035964
X033954Y035714
X033699Y035712
X034205Y035977
X033211Y0363
X033198Y036992
X031193Y036993
X03121Y036303
X031208Y035588
X031226Y03489
X031029Y034597
X0311Y034302
X0307
Y03357
X0311
X0315
X0319
Y034302
X031814Y034567
X031327Y034498
X0315Y034302
X0326Y035251
X0303Y034302
X0299
X0295
X0291
X0287
X0283
X027896Y034292
X0275Y034302
X0271Y034302
X0267
X0263
X025896Y034301
X025494Y034286
X02512Y03431
X0247Y034302
X024641Y034798
X024874Y034966
X025317Y034789
X026133Y034781
X026978Y034789
X027818Y034797
X028742Y034803
X028721Y035281
X028385Y035534
X029074Y035539
X029063Y036086
X029058Y036296
X029237Y036379
X02925Y036177
X029237Y035957
X02944Y036058
X029445Y036296
X029631Y036144
X029628Y035943
X029726Y034812
X0299Y03357
X0295
X0291
X0287
X0283
X0279
X0275
X0271
X0267
X0263
X0259
X0255Y033572
X0251
X0247
X024434Y033575
X024229Y035142
X024168Y035441
X023536Y03554
X023628Y035094
X023288Y034794
X023065Y034947
X022747Y035579
X022761Y036375
X021022Y037142
X019737Y036394
X019375Y035627
X019063Y035117
X018117Y035109
X018279Y034875
X017662Y035103
X017396Y034864
X016926Y035275
X016897Y035607
X017068Y035796
X01729Y036237
X018182Y036373
X0163Y036004
X015978Y036228
X015683Y03624
X014992Y036187
X015004Y035932
X015008Y035636
X015592Y034832
X0158Y034947
X016052Y034961
X016398Y03515
X015983Y033983
X016005Y033705
X016019Y033457
X015789Y033333
X015726Y032769
X015442Y032798
X015334Y033155
X0149Y0331
Y0333
Y0335
Y0337
Y0339
X015342Y033982
X0149Y0329
X016002Y032849
X016677Y033292
X016923Y033691
X017208Y034098
X017337Y033056
X017932Y033069
X01766Y032712
X01766Y032497
X016831Y032315
X019017Y032459
X018599Y03306
X019391Y033237
X01976Y033292
X019864Y032975
X020371Y032772
X020682Y033303
X020644Y033878
X020354Y034055
X020869Y034129
X021358Y033869
X022012Y033883
X022146Y033063
X022376Y033283
X022124Y032524
X023034Y032425
X0212Y0331
X019858Y033867
X025276Y035584
X026384Y036252
X026603Y037648
X026997
X02739
X027784
X028178
X028572
X028965
X029359
X029556Y038042
X029162
X028768
X028375
X027981
X027587
X027194
X0268
X028893Y036929
X0303Y03357
X029291Y032293
X028287Y032187
X015973Y037648
X015579
X015186
X015383Y038042
X015776
X014989
X014595
X014201
X013808
X013414
X01302
X012627
X012233
X01243Y037648
X012823
X013217
X013611
X014005
X014398
X014792
X014263Y037109
X013975Y037112
X01374Y03694
X013421Y036906
X013088Y036849
X012865Y036564
X012731Y036304
X012495Y036231
X012176Y036124
X011791Y035906
X011192Y035968
X011039Y035549
X010732Y035002
X010331Y035011
X01079Y034204
X011004Y03415
X011171Y034317
X011673Y034819
X012714Y035101
X012714Y03538
X012728Y035674
X013451Y035033
X013375Y034808
X013612Y03484
X013849Y034832
X014254
X0144Y035021
X014488Y033702
Y033502
Y033302
Y033102
Y032902
X014288
X014088
X013888
Y033102
X014088
X014288
Y033302
X014088
X014288Y033502
X0147Y0335
Y0333
Y0331
Y0329
Y0337
Y0339
X013244Y034063
X013234Y034355
X013247Y034609
X013031Y033856
X012793Y033953
X012803Y03369
X01277Y033165
X012147Y033132
X011941Y033015
X011823Y032772
X011849Y032352
X012146Y032625
X013047Y032225
X01328Y032401
X013496Y032303
X013701Y032184
X013549Y032783
X013985Y036145
X01486Y036396
X011403Y037184
X010191Y037135
X008973Y037191
X009247Y03597
X007854Y035828
X006883
X006185Y036987
X00582Y037143
X004949Y037648
X004556
X004162
X003768
X003375
X002981
X002587
X002194
X0018
X001997Y038042
X00239
X002784
X003178
X003571
X003965
X004359
X004753
X005146
X00239Y037254
X001997
X0018Y03686
X001406
X001209Y036467
X000816
X000619Y036073
X001012
X000816Y035679
X000619Y035286
X001012
X000816Y034892
X000619Y034498
X001012
X000816Y034104
X000619Y033711
X001012
X000816Y033317
X000619Y032923
X001012
X000816Y03253
X000619Y03686
X001603Y038042
X007425Y033818
X008019Y03354
Y03314
Y03274
Y03234
X008777Y032333
Y032733
Y033133
Y033533
X008612Y034118
X009418Y033333
X009462Y032932
X007132Y033144
X007129Y032542
T03
X005614Y035858
X007386
T04
X005122Y034874
X007878
T05
X003543Y000885
X006693
X03189
X035039
Y005215
X03189
X006693
X003543
T06
X046949Y001083
Y00935
X036156Y00908
X036417Y013976
X030951Y008897
X028839Y001083
X019193
X015484Y010443
X015354Y015059
X001083Y00935
Y001083
X006496Y01939
X009Y026812
X016351Y020072
X020867Y023932
X03376Y022146
X037205Y022539
Y030315
X046949Y03061
Y022539
Y0375
X030118
X001083Y037496
T07
X016834Y037641
X018566
X019334
X021066
M30
