  0
SECTION
  2
HEADER
  9
$ACADVER
  1
AC1024
  9
$ACADMAINTVER
 70
6
  9
$DWGCODEPAGE
  3
ANSI_1252
  9
$LASTSAVEDBY
  1
ezdxf
  9
$INSBASE
 10
0.0
 20
0.0
 30
0.0
  9
$EXTMIN
 10
1e+20
 20
1e+20
 30
1e+20
  9
$EXTMAX
 10
-1e+20
 20
-1e+20
 30
-1e+20
  9
$LIMMIN
 10
0.0
 20
0.0
  9
$LIMMAX
 10
420.0
 20
297.0
  9
$ORTHOMODE
 70
0
  9
$REGENMODE
 70
1
  9
$FILLMODE
 70
1
  9
$QTEXTMODE
 70
0
  9
$MIRRTEXT
 70
1
  9
$LTSCALE
 40
1.0
  9
$ATTMODE
 70
1
  9
$TEXTSIZE
 40
2.5
  9
$TRACEWID
 40
1.0
  9
$TEXTSTYLE
  7
Standard
  9
$CLAYER
  8
0
  9
$CELTYPE
  6
ByLayer
  9
$CECOLOR
 62
256
  9
$CELTSCALE
 40
1.0
  9
$DISPSILH
 70
0
  9
$DIMSCALE
 40
1.0
  9
$DIMASZ
 40
2.5
  9
$DIMEXO
 40
0.625
  9
$DIMDLI
 40
3.75
  9
$DIMRND
 40
0.0
  9
$DIMDLE
 40
0.0
  9
$DIMEXE
 40
1.25
  9
$DIMTP
 40
0.0
  9
$DIMTM
 40
0.0
  9
$DIMTXT
 40
2.5
  9
$DIMCEN
 40
2.5
  9
$DIMTSZ
 40
0.0
  9
$DIMTOL
 70
0
  9
$DIMLIM
 70
0
  9
$DIMTIH
 70
0
  9
$DIMTOH
 70
0
  9
$DIMSE1
 70
0
  9
$DIMSE2
 70
0
  9
$DIMTAD
 70
1
  9
$DIMZIN
 70
8
  9
$DIMBLK
  1

  9
$DIMASO
 70
1
  9
$DIMSHO
 70
1
  9
$DIMPOST
  1

  9
$DIMAPOST
  1

  9
$DIMALT
 70
0
  9
$DIMALTD
 70
3
  9
$DIMALTF
 40
0.03937007874
  9
$DIMLFAC
 40
1.0
  9
$DIMTOFL
 70
1
  9
$DIMTVP
 40
0.0
  9
$DIMTIX
 70
0
  9
$DIMSOXD
 70
0
  9
$DIMSAH
 70
0
  9
$DIMBLK1
  1

  9
$DIMBLK2
  1

  9
$DIMSTYLE
  2
ISO-25
  9
$DIMCLRD
 70
0
  9
$DIMCLRE
 70
0
  9
$DIMCLRT
 70
0
  9
$DIMTFAC
 40
1.0
  9
$DIMGAP
 40
0.625
  9
$DIMJUST
 70
0
  9
$DIMSD1
 70
0
  9
$DIMSD2
 70
0
  9
$DIMTOLJ
 70
0
  9
$DIMTZIN
 70
8
  9
$DIMALTZ
 70
0
  9
$DIMALTTZ
 70
0
  9
$DIMUPT
 70
0
  9
$DIMDEC
 70
2
  9
$DIMTDEC
 70
2
  9
$DIMALTU
 70
2
  9
$DIMALTTD
 70
3
  9
$DIMTXSTY
  7
Standard
  9
$DIMAUNIT
 70
0
  9
$DIMADEC
 70
0
  9
$DIMALTRND
 40
0.0
  9
$DIMAZIN
 70
0
  9
$DIMDSEP
 70
44
  9
$DIMATFIT
 70
3
  9
$DIMFRAC
 70
0
  9
$DIMLDRBLK
  1

  9
$DIMLUNIT
 70
2
  9
$DIMLWD
 70
-2
  9
$DIMLWE
 70
-2
  9
$DIMTMOVE
 70
0
  9
$DIMFXL
 40
1.0
  9
$DIMFXLON
 70
0
  9
$DIMJOGANG
 40
0.785398163397
  9
$DIMTFILL
 70
0
  9
$DIMTFILLCLR
 70
0
  9
$DIMARCSYM
 70
0
  9
$DIMLTYPE
  6

  9
$DIMLTEX1
  6

  9
$DIMLTEX2
  6

  9
$DIMTXTDIRECTION
 70
0
  9
$LUNITS
 70
2
  9
$LUPREC
 70
4
  9
$SKETCHINC
 40
1.0
  9
$FILLETRAD
 40
10.0
  9
$AUNITS
 70
0
  9
$AUPREC
 70
2
  9
$MENU
  1
.
  9
$ELEVATION
 40
0.0
  9
$PELEVATION
 40
0.0
  9
$THICKNESS
 40
0.0
  9
$LIMCHECK
 70
0
  9
$CHAMFERA
 40
0.0
  9
$CHAMFERB
 40
0.0
  9
$CHAMFERC
 40
0.0
  9
$CHAMFERD
 40
0.0
  9
$SKPOLY
 70
0
  9
$TDCREATE
 40
2461287.889363426
  9
$TDUCREATE
 40
2458532.153996898
  9
$TDUPDATE
 40
2461287.8893865743
  9
$TDUUPDATE
 40
2458532.1544311
  9
$TDINDWG
 40
0.0
  9
$TDUSRTIMER
 40
0.0
  9
$USRTIMER
 70
1
  9
$ANGBASE
 50
0.0
  9
$ANGDIR
 70
0
  9
$PDMODE
 70
0
  9
$PDSIZE
 40
0.0
  9
$PLINEWID
 40
0.0
  9
$SPLFRAME
 70
0
  9
$SPLINETYPE
 70
6
  9
$SPLINESEGS
 70
8
  9
$HANDSEED
  5
181
  9
$SURFTAB1
 70
6
  9
$SURFTAB2
 70
6
  9
$SURFTYPE
 70
6
  9
$SURFU
 70
6
  9
$SURFV
 70
6
  9
$UCSBASE
  2

  9
$UCSNAME
  2

  9
$UCSORG
 10
0.0
 20
0.0
 30
0.0
  9
$UCSXDIR
 10
1.0
 20
0.0
 30
0.0
  9
$UCSYDIR
 10
0.0
 20
1.0
 30
0.0
  9
$UCSORTHOREF
  2

  9
$UCSORTHOVIEW
 70
0
  9
$UCSORGTOP
 10
0.0
 20
0.0
 30
0.0
  9
$UCSORGBOTTOM
 10
0.0
 20
0.0
 30
0.0
  9
$UCSORGLEFT
 10
0.0
 20
0.0
 30
0.0
  9
$UCSORGRIGHT
 10
0.0
 20
0.0
 30
0.0
  9
$UCSORGFRONT
 10
0.0
 20
0.0
 30
0.0
  9
$UCSORGBACK
 10
0.0
 20
0.0
 30
0.0
  9
$PUCSBASE
  2

  9
$PUCSNAME
  2

  9
$PUCSORG
 10
0.0
 20
0.0
 30
0.0
  9
$PUCSXDIR
 10
1.0
 20
0.0
 30
0.0
  9
$PUCSYDIR
 10
0.0
 20
1.0
 30
0.0
  9
$PUCSORTHOREF
  2

  9
$PUCSORTHOVIEW
 70
0
  9
$PUCSORGTOP
 10
0.0
 20
0.0
 30
0.0
  9
$PUCSORGBOTTOM
 10
0.0
 20
0.0
 30
0.0
  9
$PUCSORGLEFT
 10
0.0
 20
0.0
 30
0.0
  9
$PUCSORGRIGHT
 10
0.0
 20
0.0
 30
0.0
  9
$PUCSORGFRONT
 10
0.0
 20
0.0
 30
0.0
  9
$PUCSORGBACK
 10
0.0
 20
0.0
 30
0.0
  9
$USERI1
 70
0
  9
$USERI2
 70
0
  9
$USERI3
 70
0
  9
$USERI4
 70
0
  9
$USERI5
 70
0
  9
$USERR1
 40
0.0
  9
$USERR2
 40
0.0
  9
$USERR3
 40
0.0
  9
$USERR4
 40
0.0
  9
$USERR5
 40
0.0
  9
$WORLDVIEW
 70
1
  9
$SHADEDGE
 70
3
  9
$SHADEDIF
 70
70
  9
$TILEMODE
 70
1
  9
$MAXACTVP
 70
64
  9
$PINSBASE
 10
0.0
 20
0.0
 30
0.0
  9
$PLIMCHECK
 70
0
  9
$PEXTMIN
 10
1e+20
 20
1e+20
 30
1e+20
  9
$PEXTMAX
 10
-1e+20
 20
-1e+20
 30
-1e+20
  9
$PLIMMIN
 10
0.0
 20
0.0
  9
$PLIMMAX
 10
420.0
 20
297.0
  9
$UNITMODE
 70
0
  9
$VISRETAIN
 70
1
  9
$PLINEGEN
 70
0
  9
$PSLTSCALE
 70
1
  9
$TREEDEPTH
 70
3020
  9
$CMLSTYLE
  2
Standard
  9
$CMLJUST
 70
0
  9
$CMLSCALE
 40
20.0
  9
$PROXYGRAPHICS
 70
1
  9
$MEASUREMENT
 70
1
  9
$CELWEIGHT
370
-1
  9
$ENDCAPS
280
0
  9
$JOINSTYLE
280
0
  9
$LWDISPLAY
290
0
  9
$INSUNITS
 70
6
  9
$HYPERLINKBASE
  1

  9
$STYLESHEET
  1

  9
$XEDIT
290
1
  9
$CEPSNTYPE
380
0
  9
$PSTYLEMODE
290
1
  9
$FINGERPRINTGUID
  2
{35D8EEA8-61E1-4BE1-93F2-F04B52B56E56}
  9
$VERSIONGUID
  2
{F169BFB0-6045-4AA1-AACF-9A66257DA133}
  9
$EXTNAMES
290
1
  9
$PSVPSCALE
 40
0.0
  9
$OLESTARTUP
290
0
  9
$SORTENTS
280
127
  9
$INDEXCTL
280
0
  9
$HIDETEXT
280
1
  9
$XCLIPFRAME
280
1
  9
$HALOGAP
280
0
  9
$OBSCOLOR
 70
257
  9
$OBSLTYPE
280
0
  9
$INTERSECTIONDISPLAY
280
0
  9
$INTERSECTIONCOLOR
 70
257
  9
$DIMASSOC
280
2
  9
$PROJECTNAME
  1

  9
$CAMERADISPLAY
290
0
  9
$LENSLENGTH
 40
50.0
  9
$CAMERAHEIGHT
 40
0.0
  9
$STEPSPERSEC
 40
24.0
  9
$STEPSIZE
 40
100.0
  9
$3DDWFPREC
 40
2.0
  9
$PSOLWIDTH
 40
0.005
  9
$PSOLHEIGHT
 40
0.08
  9
$LOFTANG1
 40
1.570796326795
  9
$LOFTANG2
 40
1.570796326795
  9
$LOFTMAG1
 40
0.0
  9
$LOFTMAG2
 40
0.0
  9
$LOFTPARAM
 70
7
  9
$LOFTNORMALS
280
1
  9
$LATITUDE
 40
37.795
  9
$LONGITUDE
 40
-122.394
  9
$NORTHDIRECTION
 40
0.0
  9
$TIMEZONE
 70
-8000
  9
$LIGHTGLYPHDISPLAY
280
1
  9
$TILEMODELIGHTSYNCH
280
1
  9
$CMATERIAL
347
20
  9
$SOLIDHIST
280
0
  9
$SHOWHIST
280
1
  9
$DWFFRAME
280
2
  9
$DGNFRAME
280
2
  9
$REALWORLDSCALE
290
1
  9
$INTERFERECOLOR
 62
256
  9
$CSHADOW
280
0
  9
$SHADOWPLANELOCATION
 40
0.0
  0
ENDSEC
  0
SECTION
  2
CLASSES
  0
CLASS
  1
ACDBDICTIONARYWDFLT
  2
AcDbDictionaryWithDefault
  3
ObjectDBX Classes
 90
0
 91
0
280
0
281
0
  0
CLASS
  1
SUN
  2
AcDbSun
  3
SCENEOE
 90
1153
 91
0
280
0
281
0
  0
CLASS
  1
VISUALSTYLE
  2
AcDbVisualStyle
  3
ObjectDBX Classes
 90
4095
 91
0
280
0
281
0
  0
CLASS
  1
MATERIAL
  2
AcDbMaterial
  3
ObjectDBX Classes
 90
1153
 91
0
280
0
281
0
  0
CLASS
  1
SCALE
  2
AcDbScale
  3
ObjectDBX Classes
 90
1153
 91
0
280
0
281
0
  0
CLASS
  1
TABLESTYLE
  2
AcDbTableStyle
  3
ObjectDBX Classes
 90
4095
 91
0
280
0
281
0
  0
CLASS
  1
MLEADERSTYLE
  2
AcDbMLeaderStyle
  3
ACDB_MLEADERSTYLE_CLASS
 90
4095
 91
0
280
0
281
0
  0
CLASS
  1
DICTIONARYVAR
  2
AcDbDictionaryVar
  3
ObjectDBX Classes
 90
0
 91
0
280
0
281
0
  0
CLASS
  1
CELLSTYLEMAP
  2
AcDbCellStyleMap
  3
ObjectDBX Classes
 90
1152
 91
0
280
0
281
0
  0
CLASS
  1
MENTALRAYRENDERSETTINGS
  2
AcDbMentalRayRenderSettings
  3
SCENEOE
 90
1024
 91
0
280
0
281
0
  0
CLASS
  1
ACDBDETAILVIEWSTYLE
  2
AcDbDetailViewStyle
  3
ObjectDBX Classes
 90
1025
 91
0
280
0
281
0
  0
CLASS
  1
ACDBSECTIONVIEWSTYLE
  2
AcDbSectionViewStyle
  3
ObjectDBX Classes
 90
1025
 91
0
280
0
281
0
  0
CLASS
  1
RASTERVARIABLES
  2
AcDbRasterVariables
  3
ISM
 90
0
 91
0
280
0
281
0
  0
CLASS
  1
LAYOUT
  2
AcDbLayout
  3
ObjectDBX Classes
 90
0
 91
0
280
0
281
0
  0
CLASS
  1
ACDBPLACEHOLDER
  2
AcDbPlaceHolder
  3
ObjectDBX Classes
 90
0
 91
0
280
0
281
0
  0
ENDSEC
  0
SECTION
  2
TABLES
  0
TABLE
  2
VPORT
  5
8
330
0
100
AcDbSymbolTable
 70
1
  0
VPORT
  5
23
330
8
100
AcDbSymbolTableRecord
100
AcDbViewportTableRecord
  2
*Active
 70
0
 10
0.0
 20
0.0
 11
1.0
 21
1.0
 12
0.0
 22
0.0
 13
0.0
 23
0.0
 14
0.5
 24
0.5
 15
0.5
 25
0.5
 16
0.0
 26
0.0
 36
1.0
 17
0.0
 27
0.0
 37
0.0
 40
1000.0
 41
1.34
 42
50.0
 43
0.0
 44
0.0
 50
0.0
 51
0.0
 71
0
 72
1000
 73
1
 74
3
 75
0
 76
0
 77
0
 78
0
281
0
 65
0
146
0.0
  0
ENDTAB
  0
TABLE
  2
LTYPE
  5
2
330
0
100
AcDbSymbolTable
 70
3
  0
LTYPE
  5
24
330
2
100
AcDbSymbolTableRecord
100
AcDbLinetypeTableRecord
  2
ByBlock
 70
0
  3

 72
65
 73
0
 40
0.0
  0
LTYPE
  5
25
330
2
100
AcDbSymbolTableRecord
100
AcDbLinetypeTableRecord
  2
ByLayer
 70
0
  3

 72
65
 73
0
 40
0.0
  0
LTYPE
  5
26
330
2
100
AcDbSymbolTableRecord
100
AcDbLinetypeTableRecord
  2
Continuous
 70
0
  3

 72
65
 73
0
 40
0.0
  0
ENDTAB
  0
TABLE
  2
LAYER
  5
1
330
0
100
AcDbSymbolTable
 70
2
  0
LAYER
  5
27
330
1
100
AcDbSymbolTableRecord
100
AcDbLayerTableRecord
  2
0
 70
0
 62
7
  6
Continuous
370
-3
390
13
347
21
  0
LAYER
  5
28
330
1
100
AcDbSymbolTableRecord
100
AcDbLayerTableRecord
  2
Defpoints
 70
0
 62
7
  6
Continuous
290
0
370
-3
390
13
347
21
  0
ENDTAB
  0
TABLE
  2
STYLE
  5
5
330
0
100
AcDbSymbolTable
 70
1
  0
STYLE
  5
29
330
5
100
AcDbSymbolTableRecord
100
AcDbTextStyleTableRecord
  2
Standard
 70
0
 40
0.0
 41
1.0
 50
0.0
 71
0
 42
2.5
  3
txt
  4

  0
ENDTAB
  0
TABLE
  2
VIEW
  5
7
330
0
100
AcDbSymbolTable
 70
0
  0
ENDTAB
  0
TABLE
  2
UCS
  5
6
330
0
100
AcDbSymbolTable
 70
0
  0
ENDTAB
  0
TABLE
  2
APPID
  5
3
330
0
100
AcDbSymbolTable
 70
3
  0
APPID
  5
2A
330
3
100
AcDbSymbolTableRecord
100
AcDbRegAppTableRecord
  2
ACAD
 70
0
  0
APPID
  5
17E
330
3
100
AcDbSymbolTableRecord
100
AcDbRegAppTableRecord
  2
HATCHBACKGROUNDCOLOR
 70
0
  0
APPID
  5
17F
330
3
100
AcDbSymbolTableRecord
100
AcDbRegAppTableRecord
  2
EZDXF
 70
0
  0
ENDTAB
  0
TABLE
  2
DIMSTYLE
  5
4
330
0
100
AcDbSymbolTable
 70
1
100
AcDbDimStyleTable
  0
DIMSTYLE
105
2B
330
4
100
AcDbSymbolTableRecord
100
AcDbDimStyleTableRecord
  2
Standard
 70
0
 40
1.0
 41
2.5
 42
0.625
 43
3.75
 44
1.25
 45
0.0
 46
0.0
 47
0.0
 48
0.0
 49
2.5
140
2.5
141
2.5
142
0.0
143
0.03937007874
144
1.0
145
0.0
146
1.0
147
0.625
148
0.0
 69
0
 70
0
 71
0
 72
0
 73
0
 74
0
 75
0
 76
0
 77
1
 78
8
 79
3
170
0
171
3
172
1
173
0
174
0
175
0
176
0
177
0
178
0
179
2
271
2
272
2
273
2
274
3
275
0
276
0
277
2
278
44
279
0
280
0
281
0
282
0
283
0
284
8
285
0
286
0
288
0
289
3
290
0
371
-2
372
-2
  0
ENDTAB
  0
TABLE
  2
BLOCK_RECORD
  5
9
330
0
100
AcDbSymbolTable
 70
2
  0
BLOCK_RECORD
  5
17
330
9
100
AcDbSymbolTableRecord
100
AcDbBlockTableRecord
  2
*Model_Space
340
1A
 70
0
280
1
281
0
  0
BLOCK_RECORD
  5
1B
330
9
100
AcDbSymbolTableRecord
100
AcDbBlockTableRecord
  2
*Paper_Space
340
1E
 70
0
280
1
281
0
  0
ENDTAB
  0
ENDSEC
  0
SECTION
  2
BLOCKS
  0
BLOCK
  5
18
330
17
100
AcDbEntity
  8
0
100
AcDbBlockBegin
  2
*Model_Space
 70
0
 10
0.0
 20
0.0
 30
0.0
  3
*Model_Space
  1

  0
ENDBLK
  5
19
330
17
100
AcDbEntity
  8
0
100
AcDbBlockEnd
  0
BLOCK
  5
1C
330
1B
100
AcDbEntity
  8
0
100
AcDbBlockBegin
  2
*Paper_Space
 70
0
 10
0.0
 20
0.0
 30
0.0
  3
*Paper_Space
  1

  0
ENDBLK
  5
1D
330
1B
100
AcDbEntity
  8
0
100
AcDbBlockEnd
  0
ENDSEC
  0
SECTION
  2
ENTITIES
  0
LINE
  5
2F
330
17
100
AcDbEntity
  8
0
100
AcDbLine
 10
112.16999986888219
 20
0.0
 30
0.0
 11
112.17066003668381
 21
0.0
 31
0.0
  0
LINE
  5
30
330
17
100
AcDbEntity
  8
0
100
AcDbLine
 10
112.17066003668381
 20
0.0
 30
0.0
 11
112.47507356646081
 21
0.012688055102410722
 31
0.0
  0
LINE
  5
31
330
17
100
AcDbEntity
  8
0
100
AcDbLine
 10
112.47507356646081
 20
0.012688055102410722
 30
0.0
 11
121.97610700379344
 21
0.015200290012688081
 31
0.0
  0
LINE
  5
32
330
17
100
AcDbEntity
  8
0
100
AcDbLine
 10
121.97610700379344
 20
0.015200290012688081
 30
0.0
 11
121.98123599979107
 21
0.0253761102048215
 31
0.0
  0
LINE
  5
33
330
17
100
AcDbEntity
  8
0
100
AcDbLine
 10
121.98123599979107
 20
0.0253761102048215
 30
0.0
 11
121.98123599979107
 21
47.17659960123256
 31
0.0
  0
LINE
  5
34
330
17
100
AcDbEntity
  8
0
100
AcDbLine
 10
121.98123599979107
 20
47.17659960123256
 30
0.0
 11
122.0
 21
47.37542142468734
 31
0.0
  0
LINE
  5
35
330
17
100
AcDbEntity
  8
0
100
AcDbLine
 10
122.0
 20
47.37542142468734
 30
0.0
 11
121.98123599979107
 21
47.706300525648004
 31
0.0
  0
LINE
  5
36
330
17
100
AcDbEntity
  8
0
100
AcDbLine
 10
121.98123599979107
 20
47.706300525648004
 30
0.0
 11
121.98123599979107
 21
66.7205183976799
 31
0.0
  0
LINE
  5
37
330
17
100
AcDbEntity
  8
0
100
AcDbLine
 10
121.98123599979107
 20
66.7205183976799
 30
0.0
 11
121.98976739907414
 21
66.92558274424506
 31
0.0
  0
LINE
  5
38
330
17
100
AcDbEntity
  8
0
100
AcDbLine
 10
121.98976739907414
 20
66.92558274424506
 30
0.0
 11
121.98123599979107
 21
67.04746420155881
 31
0.0
  0
LINE
  5
39
330
17
100
AcDbEntity
  8
0
100
AcDbLine
 10
121.98123599979107
 20
67.04746420155881
 30
0.0
 11
121.98123599979107
 21
67.69825992387167
 31
0.0
  0
LINE
  5
3A
330
17
100
AcDbEntity
  8
0
100
AcDbLine
 10
121.98123599979107
 20
67.69825992387167
 30
0.0
 11
122.0
 21
67.89708174732645
 31
0.0
  0
LINE
  5
3B
330
17
100
AcDbEntity
  8
0
100
AcDbLine
 10
122.0
 20
67.89708174732645
 30
0.0
 11
121.98123599979107
 21
68.22796084828713
 31
0.0
  0
LINE
  5
3C
330
17
100
AcDbEntity
  8
0
100
AcDbLine
 10
121.98123599979107
 20
68.22796084828713
 30
0.0
 11
121.98123599979107
 21
87.23964110929853
 31
0.0
  0
LINE
  5
3D
330
17
100
AcDbEntity
  8
0
100
AcDbLine
 10
121.98123599979107
 20
87.23964110929853
 30
0.0
 11
121.98976739907414
 21
87.4453144825086
 31
0.0
  0
LINE
  5
3E
330
17
100
AcDbEntity
  8
0
100
AcDbLine
 10
121.98976739907414
 20
87.4453144825086
 30
0.0
 11
121.98123599979107
 21
87.56658691317746
 31
0.0
  0
LINE
  5
3F
330
17
100
AcDbEntity
  8
0
100
AcDbLine
 10
121.98123599979107
 20
87.56658691317746
 30
0.0
 11
121.97872228393085
 21
97.93904658328803
 31
0.0
  0
LINE
  5
40
330
17
100
AcDbEntity
  8
0
100
AcDbLine
 10
121.97872228393085
 20
97.93904658328803
 30
0.0
 11
121.96854046514358
 21
97.94417255754941
 31
0.0
  0
LINE
  5
41
330
17
100
AcDbEntity
  8
0
100
AcDbLine
 10
121.96854046514358
 20
97.94417255754941
 30
0.0
 11
112.91578635621296
 21
97.94417255754941
 31
0.0
  0
LINE
  5
42
330
17
100
AcDbEntity
  8
0
100
AcDbLine
 10
112.91578635621296
 20
97.94417255754941
 30
0.0
 11
112.71791375319754
 21
97.95559180714157
 31
0.0
  0
LINE
  5
43
330
17
100
AcDbEntity
  8
0
100
AcDbLine
 10
112.71791375319754
 20
97.95559180714157
 30
0.0
 11
112.5461685604866
 21
97.94417255754941
 31
0.0
  0
LINE
  5
44
330
17
100
AcDbEntity
  8
0
100
AcDbLine
 10
112.5461685604866
 20
97.94417255754941
 30
0.0
 11
67.2990291662218
 21
97.94417255754941
 31
0.0
  0
LINE
  5
45
330
17
100
AcDbEntity
  8
0
100
AcDbLine
 10
67.2990291662218
 20
97.94417255754941
 30
0.0
 11
67.28706997258388
 21
97.9357730650716
 31
0.0
  0
LINE
  5
46
330
17
100
AcDbEntity
  8
0
100
AcDbLine
 10
67.28706997258388
 20
97.9357730650716
 30
0.0
 11
67.28633363157434
 21
94.94217872031902
 31
0.0
  0
LINE
  5
47
330
17
100
AcDbEntity
  8
0
100
AcDbLine
 10
67.28633363157434
 20
94.94217872031902
 30
0.0
 11
67.29250366141302
 21
94.93129236904116
 31
0.0
  0
LINE
  5
48
330
17
100
AcDbEntity
  8
0
100
AcDbLine
 10
67.29250366141302
 20
94.93129236904116
 30
0.0
 11
74.26496746300967
 21
94.92949066521662
 31
0.0
  0
ARC
  5
49
330
17
100
AcDbEntity
  8
0
100
AcDbCircle
 10
76.4855180371289
 20
95.19715624329505
 30
0.0
 40
2.236624625168315
100
AcDbArc
 50
186.87328245022266
 51
353.12671754977674
  0
LINE
  5
4A
330
17
100
AcDbEntity
  8
0
100
AcDbLine
 10
78.70606861124793
 20
94.92949066521662
 30
0.0
 11
112.69252268390261
 21
94.92949066521662
 31
0.0
  0
ARC
  5
4B
330
17
100
AcDbEntity
  8
0
100
AcDbCircle
 10
112.59719978073348
 20
88.56865164232978
 30
0.0
 40
6.36155323257996
100
AcDbArc
 50
358.71760162087674
 51
89.14143539435129
  0
LINE
  5
4C
330
17
100
AcDbEntity
  8
0
100
AcDbLine
 10
118.95715964676441
 20
88.4262787746964
 30
0.0
 11
118.95715964676441
 21
87.35581294181621
 31
0.0
  0
ARC
  5
4D
330
17
100
AcDbEntity
  8
0
100
AcDbCircle
 10
110.74247333860876
 20
87.40217745503674
 30
0.0
 40
8.21481715009446
100
AcDbArc
 50
270.2197042250451
 51
359.67662030912345
  0
LINE
  5
4E
330
17
100
AcDbEntity
  8
0
100
AcDbLine
 10
110.77397348797741
 20
79.18742069965562
 30
0.0
 11
88.9267357345376
 21
79.18742069965562
 31
0.0
  0
ARC
  5
4F
330
17
100
AcDbEntity
  8
0
100
AcDbCircle
 10
84.16836531165292
 20
77.58208725038234
 30
0.0
 40
5.0218706240542845
100
AcDbArc
 50
18.64287354015362
 51
91.09240902285858
  0
LINE
  5
50
330
17
100
AcDbEntity
  8
0
100
AcDbLine
 10
84.07262345314795
 20
82.60304513322458
 30
0.0
 11
64.93748198430788
 21
82.60304513322458
 31
0.0
  0
ARC
  5
51
330
17
100
AcDbEntity
  8
0
100
AcDbCircle
 10
65.0644107921486
 20
77.43076952393703
 30
0.0
 40
5.173832805637499
100
AcDbArc
 50
91.40576917770298
 51
141.25050788712107
  0
LINE
  5
52
330
17
100
AcDbEntity
  8
0
100
AcDbLine
 10
61.02939016270888
 20
80.66915715062534
 30
0.0
 11
60.48751935288568
 21
79.92274424506071
 31
0.0
  0
ARC
  5
53
330
17
100
AcDbEntity
  8
0
100
AcDbCircle
 10
58.8311831873808
 20
81.30921516859712
 30
0.0
 40
2.160034980034187
100
AcDbArc
 50
270.73213763700187
 51
320.0682768622479
  0
LINE
  5
54
330
17
100
AcDbEntity
  8
0
100
AcDbLine
 10
58.8587838218929
 20
79.14935653434839
 30
0.0
 11
50.50773730399708
 21
79.14933115823818
 31
0.0
  0
ARC
  5
55
330
17
100
AcDbEntity
  8
0
100
AcDbCircle
 10
50.62508040245007
 20
74.00652280254795
 30
0.0
 40
5.144146886133001
100
AcDbArc
 50
91.30708699561018
 51
135.40173341287007
  0
LINE
  5
56
330
17
100
AcDbEntity
  8
0
100
AcDbLine
 10
46.96220456086043
 20
77.61839042958131
 30
0.0
 11
46.31714444542264
 21
76.89727750589088
 31
0.0
  0
ARC
  5
57
330
17
100
AcDbEntity
  8
0
100
AcDbCircle
 10
44.81571028575147
 20
78.45504604323907
 30
0.0
 40
2.1635497109563637
100
AcDbArc
 50
271.2443139646613
 51
313.94503318878225
  0
LINE
  5
58
330
17
100
AcDbEntity
  8
0
100
AcDbLine
 10
44.86269321407021
 20
76.29200652528549
 30
0.0
 11
40.176035034680666
 21
76.29200652528549
 31
0.0
  0
ARC
  5
59
330
17
100
AcDbEntity
  8
0
100
AcDbCircle
 10
40.240463195322505
 20
70.00532912361604
 30
0.0
 40
6.287007534634029
100
AcDbArc
 50
90.58716746892766
 51
170.90120425976946
  0
LINE
  5
5A
330
17
100
AcDbEntity
  8
0
100
AcDbLine
 10
34.032564254494275
 20
70.99953960485772
 30
0.0
 11
34.01214983478113
 21
70.8031538879826
 31
0.0
  0
LINE
  5
5B
330
17
100
AcDbEntity
  8
0
100
AcDbLine
 10
34.01214983478113
 20
70.8031538879826
 30
0.0
 11
30.347152110611813
 21
70.8031538879826
 31
0.0
  0
LINE
  5
5C
330
17
100
AcDbEntity
  8
0
100
AcDbLine
 10
30.347152110611813
 20
70.8031538879826
 30
0.0
 11
30.199147567691625
 21
70.79587094435382
 31
0.0
  0
LINE
  5
5D
330
17
100
AcDbEntity
  8
0
100
AcDbLine
 10
30.199147567691625
 20
70.79587094435382
 30
0.0
 11
30.08115526867809
 21
70.7783868044227
 31
0.0
  0
LINE
  5
5E
330
17
100
AcDbEntity
  8
0
100
AcDbLine
 10
30.08115526867809
 20
70.7783868044227
 30
0.0
 11
28.702166295270253
 21
70.73050208446621
 31
0.0
  0
ARC
  5
5F
330
17
100
AcDbEntity
  8
0
100
AcDbCircle
 10
30.12560303206936
 20
56.33714980966181
 30
0.0
 40
14.463566705701822
100
AcDbArc
 50
95.64792561496381
 51
112.86048527287952
  0
LINE
  5
60
330
17
100
AcDbEntity
  8
0
100
AcDbLine
 10
24.506672960321886
 20
69.66465470364328
 30
0.0
 11
24.299253315251548
 21
69.56112017400763
 31
0.0
  0
ARC
  5
61
330
17
100
AcDbEntity
  8
0
100
AcDbCircle
 10
22.864894563723087
 20
68.07273650539462
 30
0.0
 40
2.067044018176732
100
AcDbArc
 50
46.058953143837044
 51
197.2624277280929
  0
ARC
  5
62
330
17
100
AcDbEntity
  8
0
100
AcDbCircle
 10
30.084906833767146
 20
56.35033296463716
 30
0.0
 40
14.420083009192556
100
AcDbArc
 50
129.611555596422
 51
178.11373951967707
  0
LINE
  5
63
330
17
100
AcDbEntity
  8
0
100
AcDbLine
 10
15.672637522297821
 20
56.82497734275876
 30
0.0
 11
15.672637522297821
 21
51.13250679717238
 31
0.0
  0
ARC
  5
64
330
17
100
AcDbEntity
  8
0
100
AcDbCircle
 10
16.50284949273408
 20
49.23980424143559
 30
0.0
 40
2.0667788658558104
100
AcDbArc
 50
113.68410022296177
 51
246.31589977703868
  0
LINE
  5
65
330
17
100
AcDbEntity
  8
0
100
AcDbLine
 10
15.672637522297821
 20
47.34710168569876
 30
0.0
 11
15.672637522297821
 21
44.233858981330435
 31
0.0
  0
LINE
  5
66
330
17
100
AcDbEntity
  8
0
100
AcDbLine
 10
15.672637522297821
 20
44.233858981330435
 30
0.0
 11
15.66502020150934
 21
44.08337864781585
 31
0.0
  0
LINE
  5
67
330
17
100
AcDbEntity
  8
0
100
AcDbLine
 10
15.66502020150934
 20
44.08337864781585
 30
0.0
 11
15.672637522297821
 21
43.70248323364148
 31
0.0
  0
LINE
  5
68
330
17
100
AcDbEntity
  8
0
100
AcDbLine
 10
15.672637522297821
 20
43.70248323364148
 30
0.0
 11
15.679924759185491
 21
43.554565887257574
 31
0.0
  0
LINE
  5
69
330
17
100
AcDbEntity
  8
0
100
AcDbLine
 10
15.679924759185491
 20
43.554565887257574
 30
0.0
 11
15.716665636455247
 21
43.34813123074135
 31
0.0
  0
LINE
  5
6A
330
17
100
AcDbEntity
  8
0
100
AcDbLine
 10
15.716665636455247
 20
43.34813123074135
 30
0.0
 11
15.836359137111547
 21
41.77760377016495
 31
0.0
  0
ARC
  5
6B
330
17
100
AcDbEntity
  8
0
100
AcDbCircle
 10
33.88263139769631
 20
44.25871091373449
 30
0.0
 40
18.21603236605114
100
AcDbArc
 50
187.82828101153316
 51
225.52042903572132
  0
LINE
  5
6C
330
17
100
AcDbEntity
  8
0
100
AcDbLine
 10
21.119478925308428
 20
31.261566068515503
 30
0.0
 11
22.19088048527742
 21
30.16465832880189
 31
0.0
  0
LINE
  5
6D
330
17
100
AcDbEntity
  8
0
100
AcDbLine
 10
22.19088048527742
 20
30.16465832880189
 30
0.0
 11
22.98516391496156
 21
29.062193220953425
 31
0.0
  0
LINE
  5
6E
330
17
100
AcDbEntity
  8
0
100
AcDbLine
 10
22.98516391496156
 20
29.062193220953425
 30
0.0
 11
23.606457989539283
 21
27.85342758745696
 31
0.0
  0
LINE
  5
6F
330
17
100
AcDbEntity
  8
0
100
AcDbLine
 10
23.606457989539283
 20
27.85342758745696
 30
0.0
 11
24.040645274482642
 21
26.56564074678268
 31
0.0
  0
LINE
  5
70
330
17
100
AcDbEntity
  8
0
100
AcDbLine
 10
24.040645274482642
 20
26.56564074678268
 30
0.0
 11
24.2640612932088
 21
25.306325901758207
 31
0.0
  0
LINE
  5
71
330
17
100
AcDbEntity
  8
0
100
AcDbLine
 10
24.2640612932088
 20
25.306325901758207
 30
0.0
 11
11.350823617607166
 21
25.306325901758207
 31
0.0
  0
ARC
  5
72
330
17
100
AcDbEntity
  8
0
100
AcDbCircle
 10
11.297909530301277
 20
33.5470976513832
 30
0.0
 40
8.24094162884635
100
AcDbArc
 50
189.0390985194654
 51
270.36789178329093
  0
LINE
  5
73
330
17
100
AcDbEntity
  8
0
100
AcDbLine
 10
3.1593091880914144
 20
32.25237629146276
 30
0.0
 11
3.0485533438269057
 21
33.65879644734457
 31
0.0
  0
LINE
  5
74
330
17
100
AcDbEntity
  8
0
100
AcDbLine
 10
3.0485533438269057
 20
33.65879644734457
 30
0.0
 11
3.024076353026598
 21
33.82990755845569
 31
0.0
  0
LINE
  5
75
330
17
100
AcDbEntity
  8
0
100
AcDbLine
 10
3.024076353026598
 20
33.82990755845569
 30
0.0
 11
3.024076353026598
 21
88.38590538336054
 31
0.0
  0
ARC
  5
76
330
17
100
AcDbEntity
  8
0
100
AcDbCircle
 10
9.39669565322802
 20
88.55978502028742
 30
0.0
 40
6.374991048890774
100
AcDbArc
 50
90.46526106662517
 51
181.56295200048643
  0
LINE
  5
77
330
17
100
AcDbEntity
  8
0
100
AcDbLine
 10
9.34492914330741
 20
94.93456588725758
 30
0.0
 11
13.73237896212548
 21
94.93276418343304
 31
0.0
  0
LINE
  5
78
330
17
100
AcDbEntity
  8
0
100
AcDbLine
 10
13.73237896212548
 20
94.93276418343304
 30
0.0
 11
13.736416142143376
 21
97.94605038970457
 31
0.0
  0
LINE
  5
79
330
17
100
AcDbEntity
  8
0
100
AcDbLine
 10
13.736416142143376
 20
97.94605038970457
 30
0.0
 11
13.723847562842382
 21
97.95686061265181
 31
0.0
  0
LINE
  5
7A
330
17
100
AcDbEntity
  8
0
100
AcDbLine
 10
13.723847562842382
 20
97.95686061265181
 30
0.0
 11
9.265861353522972
 21
97.95559180714157
 31
0.0
  0
LINE
  5
7B
330
17
100
AcDbEntity
  8
0
100
AcDbLine
 10
9.265861353522972
 20
97.95559180714157
 30
0.0
 11
0.005128995997565835
 21
97.94166032263912
 31
0.0
  0
LINE
  5
7C
330
17
100
AcDbEntity
  8
0
100
AcDbLine
 10
0.005128995997565835
 20
97.94166032263912
 30
0.0
 11
0.0
 21
97.93148450244699
 31
0.0
  0
LINE
  5
7D
330
17
100
AcDbEntity
  8
0
100
AcDbLine
 10
0.0
 20
97.93148450244699
 30
0.0
 11
0.0
 21
0.0253761102048215
 31
0.0
  0
LINE
  5
7E
330
17
100
AcDbEntity
  8
0
100
AcDbLine
 10
0.0
 20
0.0253761102048215
 30
0.0
 11
0.012060757915071975
 21
0.012713431212615553
 31
0.0
  0
LINE
  5
7F
330
17
100
AcDbEntity
  8
0
100
AcDbLine
 10
0.012060757915071975
 20
0.012713431212615553
 30
0.0
 11
111.96407829690027
 21
0.012688055102410722
 31
0.0
  0
LINE
  5
80
330
17
100
AcDbEntity
  8
0
100
AcDbLine
 10
111.96407829690027
 20
0.012688055102410722
 30
0.0
 11
112.16999986888219
 21
0.0
 31
0.0
  0
LINE
  5
81
330
17
100
AcDbEntity
  8
0
100
AcDbLine
 10
3.024076353026598
 20
13.760449519666487
 30
0.0
 11
3.024076353026598
 21
9.986565162225848
 31
0.0
  0
LINE
  5
82
330
17
100
AcDbEntity
  8
0
100
AcDbLine
 10
3.024076353026598
 20
9.986565162225848
 30
0.0
 11
3.049111947351416
 21
9.8031466376654
 31
0.0
  0
ARC
  5
83
330
17
100
AcDbEntity
  8
0
100
AcDbCircle
 10
9.72787849985948
 20
9.71335509354396
 30
0.0
 40
6.679370118828285
100
AcDbArc
 50
179.2297430160952
 51
247.96050460953438
  0
LINE
  5
84
330
17
100
AcDbEntity
  8
0
100
AcDbLine
 10
7.22147401817208
 20
3.5220772158781952
 30
0.0
 11
8.161324448124075
 21
3.2215225666122898
 31
0.0
  0
LINE
  5
85
330
17
100
AcDbEntity
  8
0
100
AcDbLine
 10
8.161324448124075
 20
3.2215225666122898
 30
0.0
 11
9.135376648416292
 21
3.0630995106035894
 31
0.0
  0
LINE
  5
86
330
17
100
AcDbEntity
  8
0
100
AcDbLine
 10
9.135376648416292
 20
3.0630995106035894
 30
0.0
 11
10.234860731025531
 21
3.048812760558275
 31
0.0
  0
LINE
  5
87
330
17
100
AcDbEntity
  8
0
100
AcDbLine
 10
10.234860731025531
 20
3.048812760558275
 30
0.0
 11
10.411328662625307
 21
3.034982780496647
 31
0.0
  0
LINE
  5
88
330
17
100
AcDbEntity
  8
0
100
AcDbLine
 10
10.411328662625307
 20
3.034982780496647
 30
0.0
 11
38.634568608854536
 21
3.034982780496647
 31
0.0
  0
LINE
  5
89
330
17
100
AcDbEntity
  8
0
100
AcDbLine
 10
38.634568608854536
 20
3.034982780496647
 30
0.0
 11
39.6275625468408
 21
3.0481276055827444
 31
0.0
  0
ARC
  5
8A
330
17
100
AcDbEntity
  8
0
100
AcDbCircle
 10
39.042447540996584
 20
9.688688214741083
 30
0.0
 40
6.666288680665535
100
AcDbArc
 50
275.03545785376764
 51
0.9938360795674996
  0
ARC
  5
8B
330
17
100
AcDbEntity
  8
0
100
AcDbCircle
 10
33.27219541041803
 20
9.848521407336202
 30
0.0
 40
12.435616557839587
100
AcDbArc
 50
359.7963183653232
 51
90.23744725697146
  0
LINE
  5
8C
330
17
100
AcDbEntity
  8
0
100
AcDbLine
 10
33.22065942271946
 20
22.28403117636397
 30
0.0
 11
31.824912343576965
 21
22.28403117636397
 31
0.0
  0
ARC
  5
8D
330
17
100
AcDbEntity
  8
0
100
AcDbCircle
 10
31.82430082209038
 20
23.79517853906114
 30
0.0
 40
1.511147486430474
100
AcDbArc
 50
89.9768139102676
 51
270.0231860897324
  0
LINE
  5
8E
330
17
100
AcDbEntity
  8
0
100
AcDbLine
 10
31.824912343576965
 20
25.306325901758207
 30
0.0
 11
33.280328435562566
 21
25.306325901758207
 31
0.0
  0
LINE
  5
8F
330
17
100
AcDbEntity
  8
0
100
AcDbLine
 10
33.280328435562566
 20
25.306325901758207
 30
0.0
 11
34.2684472882442
 21
25.233268080478528
 31
0.0
  0
LINE
  5
90
330
17
100
AcDbEntity
  8
0
100
AcDbLine
 10
34.2684472882442
 20
25.233268080478528
 30
0.0
 11
34.47607006186888
 21
25.266079390973363
 31
0.0
  0
ARC
  5
91
330
17
100
AcDbEntity
  8
0
100
AcDbCircle
 10
34.56345591250555
 20
28.712791006153402
 30
0.0
 40
3.447819201337055
100
AcDbArc
 50
268.54766844088164
 51
323.7852459835948
  0
LINE
  5
92
330
17
100
AcDbEntity
  8
0
100
AcDbLine
 10
37.3451847189885
 20
26.675773065071603
 30
0.0
 11
37.49781043652035
 21
26.924687330070697
 31
0.0
  0
LINE
  5
93
330
17
100
AcDbEntity
  8
0
100
AcDbLine
 10
37.49781043652035
 20
26.924687330070697
 30
0.0
 11
37.54727223950686
 21
27.114069240529282
 31
0.0
  0
LINE
  5
94
330
17
100
AcDbEntity
  8
0
100
AcDbLine
 10
37.54727223950686
 20
27.114069240529282
 30
0.0
 11
37.61016591815043
 21
27.27797353634222
 31
0.0
  0
LINE
  5
95
330
17
100
AcDbEntity
  8
0
100
AcDbLine
 10
37.61016591815043
 20
27.27797353634222
 30
0.0
 11
37.71762092340658
 21
27.488772883813674
 31
0.0
  0
LINE
  5
96
330
17
100
AcDbEntity
  8
0
100
AcDbLine
 10
37.71762092340658
 20
27.488772883813674
 30
0.0
 11
37.83893945249776
 21
27.6683849918434
 31
0.0
  0
LINE
  5
97
330
17
100
AcDbEntity
  8
0
100
AcDbLine
 10
37.83893945249776
 20
27.6683849918434
 30
0.0
 11
37.95307230897851
 21
28.143476527098063
 31
0.0
  0
LINE
  5
98
330
17
100
AcDbEntity
  8
0
100
AcDbLine
 10
37.95307230897851
 20
28.143476527098063
 30
0.0
 11
38.00154386026253
 21
28.73433387710713
 31
0.0
  0
LINE
  5
99
330
17
100
AcDbEntity
  8
0
100
AcDbLine
 10
38.00154386026253
 20
28.73433387710713
 30
0.0
 11
38.00154386026253
 21
35.62686605038971
 31
0.0
  0
ARC
  5
9A
330
17
100
AcDbEntity
  8
0
100
AcDbCircle
 10
36.942827507577306
 20
35.66823788907356
 30
0.0
 40
1.0595243954148417
100
AcDbArc
 50
357.762170892865
 51
93.68180234272543
  0
LINE
  5
9B
330
17
100
AcDbEntity
  8
0
100
AcDbLine
 10
36.874789769230546
 20
36.72557549392787
 30
0.0
 11
31.350099347761716
 21
36.72557549392787
 31
0.0
  0
ARC
  5
9C
330
17
100
AcDbEntity
  8
0
100
AcDbCircle
 10
31.13956437688774
 20
44.73562659202585
 30
0.0
 40
8.012817455059212
100
AcDbArc
 50
181.6629220726849
 51
271.5056069502849
  0
LINE
  5
9D
330
17
100
AcDbEntity
  8
0
100
AcDbLine
 10
23.13012152956635
 20
44.5030995106036
 30
0.0
 11
23.129994574219854
 21
56.627043683161155
 31
0.0
  0
ARC
  5
9E
330
17
100
AcDbEntity
  8
0
100
AcDbCircle
 10
30.33592319380098
 20
56.2677649771021
 30
0.0
 40
7.214879656593436
100
AcDbArc
 50
87.27437779410258
 51
177.14566678517474
  0
LINE
  5
9F
330
17
100
AcDbEntity
  8
0
100
AcDbLine
 10
30.67901338629659
 20
63.47448250860977
 30
0.0
 11
36.02002481248591
 21
63.46945803878921
 31
0.0
  0
ARC
  5
A0
330
17
100
AcDbEntity
  8
0
100
AcDbCircle
 10
35.77999452951623
 20
58.20631514071265
 30
0.0
 40
5.268613451593911
100
AcDbArc
 50
357.450754845064
 51
87.38878469197323
  0
LINE
  5
A1
330
17
100
AcDbEntity
  8
0
100
AcDbLine
 10
41.043393961795594
 20
57.97197752401669
 30
0.0
 11
41.043393961795594
 21
53.67501540692406
 31
0.0
  0
LINE
  5
A2
330
17
100
AcDbEntity
  8
0
100
AcDbLine
 10
41.043393961795594
 20
53.67501540692406
 30
0.0
 11
41.055378546502816
 21
53.449396411093
 31
0.0
  0
LINE
  5
A3
330
17
100
AcDbEntity
  8
0
100
AcDbLine
 10
41.055378546502816
 20
53.449396411093
 30
0.0
 11
41.086127131418976
 21
53.294500634402766
 31
0.0
  0
LINE
  5
A4
330
17
100
AcDbEntity
  8
0
100
AcDbLine
 10
41.086127131418976
 20
53.294500634402766
 30
0.0
 11
41.13861047165159
 21
53.14554286750047
 31
0.0
  0
LINE
  5
A5
330
17
100
AcDbEntity
  8
0
100
AcDbLine
 10
41.13861047165159
 20
53.14554286750047
 30
0.0
 11
41.19231258321037
 21
53.04276962117093
 31
0.0
  0
ARC
  5
A6
330
17
100
AcDbEntity
  8
0
100
AcDbCircle
 10
41.53133757392712
 20
50.97091801548996
 30
0.0
 40
2.0994063494934307
100
AcDbArc
 50
259.71883556465383
 51
99.29316660668685
  0
LINE
  5
A7
330
17
100
AcDbEntity
  8
0
100
AcDbLine
 10
41.15663813085099
 20
48.905220228385005
 30
0.0
 11
41.12289339975802
 21
48.844266811673016
 31
0.0
  0
LINE
  5
A8
330
17
100
AcDbEntity
  8
0
100
AcDbLine
 10
41.12289339975802
 20
48.844266811673016
 30
0.0
 11
41.0699530202781
 21
48.70413993112199
 31
0.0
  0
LINE
  5
A9
330
17
100
AcDbEntity
  8
0
100
AcDbLine
 10
41.0699530202781
 20
48.70413993112199
 30
0.0
 11
41.037782535481426
 21
48.55845568243611
 31
0.0
  0
LINE
  5
AA
330
17
100
AcDbEntity
  8
0
100
AcDbLine
 10
41.037782535481426
 20
48.55845568243611
 30
0.0
 11
41.02562021328912
 21
48.390440456769994
 31
0.0
  0
LINE
  5
AB
330
17
100
AcDbEntity
  8
0
100
AcDbLine
 10
41.02562021328912
 20
48.390440456769994
 30
0.0
 11
41.02562021328912
 21
28.688656878738453
 31
0.0
  0
LINE
  5
AC
330
17
100
AcDbEntity
  8
0
100
AcDbLine
 10
41.02562021328912
 20
28.688656878738453
 30
0.0
 11
41.0564195803439
 21
27.253587094435385
 31
0.0
  0
LINE
  5
AD
330
17
100
AcDbEntity
  8
0
100
AcDbLine
 10
41.0564195803439
 20
27.253587094435385
 30
0.0
 11
41.10930917768523
 21
27.1136378466558
 31
0.0
  0
LINE
  5
AE
330
17
100
AcDbEntity
  8
0
100
AcDbLine
 10
41.10930917768523
 20
27.1136378466558
 30
0.0
 11
41.17783967371229
 21
26.82808047852094
 31
0.0
  0
LINE
  5
AF
330
17
100
AcDbEntity
  8
0
100
AcDbLine
 10
41.17783967371229
 20
26.82808047852094
 30
0.0
 11
41.200818591424174
 21
26.536305963385903
 31
0.0
  0
LINE
  5
B0
330
17
100
AcDbEntity
  8
0
100
AcDbLine
 10
41.200818591424174
 20
26.536305963385903
 30
0.0
 11
41.18819922998459
 21
26.331063984049308
 31
0.0
  0
LINE
  5
B1
330
17
100
AcDbEntity
  8
0
100
AcDbLine
 10
41.18819922998459
 20
26.331063984049308
 30
0.0
 11
41.30888298234342
 21
25.6136559724488
 31
0.0
  0
LINE
  5
B2
330
17
100
AcDbEntity
  8
0
100
AcDbLine
 10
41.30888298234342
 20
25.6136559724488
 30
0.0
 11
41.7695531525614
 21
24.18475258292551
 31
0.0
  0
LINE
  5
B3
330
17
100
AcDbEntity
  8
0
100
AcDbLine
 10
41.7695531525614
 20
24.18475258292551
 30
0.0
 11
42.43218388795128
 21
22.837306507159692
 31
0.0
  0
LINE
  5
B4
330
17
100
AcDbEntity
  8
0
100
AcDbLine
 10
42.43218388795128
 20
22.837306507159692
 30
0.0
 11
43.319068547354036
 21
21.546576037701655
 31
0.0
  0
LINE
  5
B5
330
17
100
AcDbEntity
  8
0
100
AcDbLine
 10
43.319068547354036
 20
21.546576037701655
 30
0.0
 11
44.20610555317254
 21
20.78328801885083
 31
0.0
  0
ARC
  5
B6
330
17
100
AcDbEntity
  8
0
100
AcDbCircle
 10
33.32473016879544
 20
9.881848728015227
 30
0.0
 40
15.402782504064067
100
AcDbArc
 50
0.37168962561561886
 51
45.052774485421466
  0
LINE
  5
B7
330
17
100
AcDbEntity
  8
0
100
AcDbLine
 10
48.72718856968984
 20
9.981769077397137
 30
0.0
 11
48.73180974430151
 21
9.766122892876565
 31
0.0
  0
ARC
  5
B8
330
17
100
AcDbEntity
  8
0
100
AcDbCircle
 10
55.399768730944345
 20
9.690697388141489
 30
0.0
 40
6.668385565810927
100
AcDbArc
 50
179.3519188116298
 51
264.9816180535082
  0
LINE
  5
B9
330
17
100
AcDbEntity
  8
0
100
AcDbLine
 10
54.816449416931555
 20
3.047873844480696
 30
0.0
 11
55.80822458359165
 21
3.034982780496647
 31
0.0
  0
LINE
  5
BA
330
17
100
AcDbEntity
  8
0
100
AcDbLine
 10
55.80822458359165
 20
3.034982780496647
 30
0.0
 11
66.17372236613963
 21
3.034982780496647
 31
0.0
  0
LINE
  5
BB
330
17
100
AcDbEntity
  8
0
100
AcDbLine
 10
66.17372236613963
 20
3.034982780496647
 30
0.0
 11
67.16671630412588
 21
3.0481276055827444
 31
0.0
  0
ARC
  5
BC
330
17
100
AcDbEntity
  8
0
100
AcDbCircle
 10
66.58770204282594
 20
9.678101284422809
 30
0.0
 40
6.655209124956238
100
AcDbArc
 50
274.99113821710097
 51
351.4846667515633
  0
LINE
  5
BD
330
17
100
AcDbEntity
  8
0
100
AcDbLine
 10
73.16954595148765
 20
8.692637302882002
 30
0.0
 11
73.251965362419
 21
9.795483052383544
 31
0.0
  0
LINE
  5
BE
330
17
100
AcDbEntity
  8
0
100
AcDbLine
 10
73.251965362419
 20
9.795483052383544
 30
0.0
 11
73.25648497275353
 21
12.127319195214792
 31
0.0
  0
ARC
  5
BF
330
17
100
AcDbEntity
  8
0
100
AcDbCircle
 10
86.428481484948
 20
12.045701717124611
 30
0.0
 40
13.172249372449379
100
AcDbArc
 50
143.3352867774828
 51
179.64498341778418
  0
LINE
  5
C0
330
17
100
AcDbEntity
  8
0
100
AcDbLine
 10
75.86244658770042
 20
19.911263367772346
 30
0.0
 11
76.24894944450789
 21
20.36344027551206
 31
0.0
  0
LINE
  5
C1
330
17
100
AcDbEntity
  8
0
100
AcDbLine
 10
76.24894944450789
 20
20.36344027551206
 30
0.0
 11
76.98501115229874
 21
21.643614283124894
 31
0.0
  0
ARC
  5
C2
330
17
100
AcDbEntity
  8
0
100
AcDbCircle
 10
78.59843522010225
 20
22.61285070926936
 30
0.0
 40
1.8821680244688337
100
AcDbArc
 50
113.6660067581917
 51
210.9946102101048
  0
LINE
  5
C3
330
17
100
AcDbEntity
  8
0
100
AcDbLine
 10
77.84292460163596
 20
24.33673010694218
 30
0.0
 11
77.97272374787168
 21
25.31170563712163
 31
0.0
  0
LINE
  5
C4
330
17
100
AcDbEntity
  8
0
100
AcDbLine
 10
77.97272374787168
 20
25.31170563712163
 30
0.0
 11
77.97422182096007
 21
26.589824179807874
 31
0.0
  0
LINE
  5
C5
330
17
100
AcDbEntity
  8
0
100
AcDbLine
 10
77.97422182096007
 20
26.589824179807874
 30
0.0
 11
77.7945800056984
 21
27.955693311582387
 31
0.0
  0
LINE
  5
C6
330
17
100
AcDbEntity
  8
0
100
AcDbLine
 10
77.7945800056984
 20
27.955693311582387
 30
0.0
 11
77.78251924778333
 21
28.103153887982607
 31
0.0
  0
LINE
  5
C7
330
17
100
AcDbEntity
  8
0
100
AcDbLine
 10
77.78251924778333
 20
28.103153887982607
 30
0.0
 11
77.78485522615846
 21
28.24414355628059
 31
0.0
  0
LINE
  5
C8
330
17
100
AcDbEntity
  8
0
100
AcDbLine
 10
77.78485522615846
 20
28.24414355628059
 30
0.0
 11
77.75380194841073
 21
28.69758926953055
 31
0.0
  0
LINE
  5
C9
330
17
100
AcDbEntity
  8
0
100
AcDbLine
 10
77.75380194841073
 20
28.69758926953055
 30
0.0
 11
77.75380194841073
 21
48.04123980424145
 31
0.0
  0
ARC
  5
CA
330
17
100
AcDbEntity
  8
0
100
AcDbCircle
 10
76.33221310501844
 20
48.08366191157081
 30
0.0
 40
1.422221668674641
100
AcDbArc
 50
358.2907247654911
 51
92.03729355054894
  0
LINE
  5
CB
330
17
100
AcDbEntity
  8
0
100
AcDbLine
 10
76.2816531417598
 20
49.50498459307595
 30
0.0
 11
50.55590416244954
 21
49.50498459307595
 31
0.0
  0
ARC
  5
CC
330
17
100
AcDbEntity
  8
0
100
AcDbCircle
 10
50.55526739348731
 20
51.01613195577311
 30
0.0
 40
1.5111474968583607
100
AcDbArc
 50
89.97585664191199
 51
270.024143358088
  0
LINE
  5
CD
330
17
100
AcDbEntity
  8
0
100
AcDbLine
 10
50.55590416244954
 20
52.52727931847019
 30
0.0
 11
76.33342553205215
 21
52.52727931847019
 31
0.0
  0
ARC
  5
CE
330
17
100
AcDbEntity
  8
0
100
AcDbCircle
 10
76.33854495454744
 20
48.08794232671683
 30
0.0
 40
4.43933994359933
100
AcDbArc
 50
0.09877388820383061
 51
90.06607319359728
  0
LINE
  5
CF
330
17
100
AcDbEntity
  8
0
100
AcDbLine
 10
80.77787830143738
 20
48.09559543230017
 30
0.0
 11
80.77787830143738
 21
28.757223128511875
 31
0.0
  0
ARC
  5
D0
330
17
100
AcDbEntity
  8
0
100
AcDbCircle
 10
84.19257908032277
 20
28.710906501868887
 30
0.0
 40
3.4150148812595345
100
AcDbArc
 50
179.22289398895362
 51
270.80204898140875
  0
LINE
  5
D1
330
17
100
AcDbEntity
  8
0
100
AcDbLine
 10
84.24038224797961
 20
25.29622620989669
 30
0.0
 11
91.53163092457417
 21
25.301783578031543
 31
0.0
  0
LINE
  5
D2
330
17
100
AcDbEntity
  8
0
100
AcDbLine
 10
91.53163092457417
 20
25.301783578031543
 30
0.0
 11
91.81715349879566
 21
25.3215515678811
 31
0.0
  0
LINE
  5
D3
330
17
100
AcDbEntity
  8
0
100
AcDbLine
 10
91.81715349879566
 20
25.3215515678811
 30
0.0
 11
92.09800411626698
 21
25.302214971905027
 31
0.0
  0
LINE
  5
D4
330
17
100
AcDbEntity
  8
0
100
AcDbLine
 10
92.09800411626698
 20
25.302214971905027
 30
0.0
 11
97.5135129397676
 21
25.306325901758207
 31
0.0
  0
ARC
  5
D5
330
17
100
AcDbEntity
  8
0
100
AcDbCircle
 10
97.5152923540079
 20
23.79517896740793
 30
0.0
 40
1.5111479820028462
100
AcDbArc
 50
270.0288040530577
 51
90.06746721747295
  0
LINE
  5
D6
330
17
100
AcDbEntity
  8
0
100
AcDbLine
 10
97.5160520466971
 20
22.28403117636397
 30
0.0
 11
93.91486207966591
 21
22.28129055646185
 31
0.0
  0
ARC
  5
D7
330
17
100
AcDbEntity
  8
0
100
AcDbCircle
 10
91.81662077244327
 20
23.078623175314785
 30
0.0
 40
2.2446282294451874
100
AcDbArc
 50
200.89414810294278
 51
339.1931869848291
  0
LINE
  5
D8
330
17
100
AcDbEntity
  8
0
100
AcDbLine
 10
89.7195972643412
 20
22.27809316657604
 30
0.0
 11
86.65855151442119
 21
22.275758564437197
 31
0.0
  0
ARC
  5
D9
330
17
100
AcDbEntity
  8
0
100
AcDbCircle
 10
86.57108577290762
 20
11.96601867727444
 30
0.0
 40
10.310110901289727
100
AcDbArc
 50
89.51392589252552
 51
143.91193396738333
  0
LINE
  5
DA
330
17
100
AcDbEntity
  8
0
100
AcDbLine
 10
78.23935536653777
 20
18.038963204640208
 30
0.0
 11
77.39766681048002
 21
16.66669929309408
 31
0.0
  0
LINE
  5
DB
330
17
100
AcDbEntity
  8
0
100
AcDbLine
 10
77.39766681048002
 20
16.66669929309408
 30
0.0
 11
76.78112086586043
 21
15.179760739532355
 31
0.0
  0
LINE
  5
DC
330
17
100
AcDbEntity
  8
0
100
AcDbLine
 10
76.78112086586043
 20
15.179760739532355
 30
0.0
 11
76.40510452067174
 21
13.615754939278597
 31
0.0
  0
LINE
  5
DD
330
17
100
AcDbEntity
  8
0
100
AcDbLine
 10
76.40510452067174
 20
13.615754939278597
 30
0.0
 11
76.2760417154456
 21
11.952021025919885
 31
0.0
  0
LINE
  5
DE
330
17
100
AcDbEntity
  8
0
100
AcDbLine
 10
76.2760417154456
 20
11.952021025919885
 30
0.0
 11
76.2760417154456
 21
9.663704912089905
 31
0.0
  0
ARC
  5
DF
330
17
100
AcDbEntity
  8
0
100
AcDbCircle
 10
82.92913938029811
 20
9.675995511336005
 30
0.0
 40
6.653109017361413
100
AcDbArc
 50
180.10584523163334
 51
265.0326880679628
  0
LINE
  5
E0
330
17
100
AcDbEntity
  8
0
100
AcDbLine
 10
82.35306406728714
 20
3.047873844480696
 30
0.0
 11
83.34483923394727
 21
3.034982780496647
 31
0.0
  0
LINE
  5
E1
330
17
100
AcDbEntity
  8
0
100
AcDbLine
 10
83.34483923394727
 20
3.034982780496647
 30
0.0
 11
111.5523113261443
 21
3.034982780496647
 31
0.0
  0
LINE
  5
E2
330
17
100
AcDbEntity
  8
0
100
AcDbLine
 10
111.5523113261443
 20
3.034982780496647
 30
0.0
 11
111.71308757691985
 21
3.055283668660504
 31
0.0
  0
LINE
  5
E3
330
17
100
AcDbEntity
  8
0
100
AcDbLine
 10
111.71308757691985
 20
3.055283668660504
 30
0.0
 11
111.8203902357602
 21
3.0497516766358532
 31
0.0
  0
LINE
  5
E4
330
17
100
AcDbEntity
  8
0
100
AcDbLine
 10
111.8203902357602
 20
3.0497516766358532
 30
0.0
 11
112.84778907264112
 21
3.0633532717056378
 31
0.0
  0
ARC
  5
E5
330
17
100
AcDbEntity
  8
0
100
AcDbCircle
 10
112.25322700715274
 20
9.71404652900235
 30
0.0
 40
6.6772168492845685
100
AcDbArc
 50
275.10857677508045
 51
1.0927601013506782
  0
LINE
  5
E6
330
17
100
AcDbEntity
  8
0
100
AcDbLine
 10
118.92922947054001
 20
9.841388435744065
 30
0.0
 11
118.95715964676441
 21
9.989229653797354
 31
0.0
  0
LINE
  5
E7
330
17
100
AcDbEntity
  8
0
100
AcDbLine
 10
118.95715964676441
 20
9.989229653797354
 30
0.0
 11
118.95715964676441
 21
13.760449519666487
 31
0.0
  0
LINE
  5
E8
330
17
100
AcDbEntity
  8
0
100
AcDbLine
 10
118.95715964676441
 20
13.760449519666487
 30
0.0
 11
118.9326826559641
 21
13.931586006887803
 31
0.0
  0
ARC
  5
E9
330
17
100
AcDbEntity
  8
0
100
AcDbCircle
 10
110.66090624987835
 20
14.019909106086503
 30
0.0
 40
8.272247934033949
100
AcDbArc
 50
359.3882392050594
 51
53.93859691765238
  0
LINE
  5
EA
330
17
100
AcDbEntity
  8
0
100
AcDbLine
 10
115.53038093472017
 20
20.70708355990575
 30
0.0
 11
114.42906869512173
 21
21.38180895414175
 31
0.0
  0
LINE
  5
EB
330
17
100
AcDbEntity
  8
0
100
AcDbLine
 10
114.42906869512173
 20
21.38180895414175
 30
0.0
 11
113.23573922039841
 21
21.876084828711264
 31
0.0
  0
LINE
  5
EC
330
17
100
AcDbEntity
  8
0
100
AcDbLine
 10
113.23573922039841
 20
21.876084828711264
 30
0.0
 11
111.97971919558593
 21
22.17775602682618
 31
0.0
  0
LINE
  5
ED
330
17
100
AcDbEntity
  8
0
100
AcDbLine
 10
111.97971919558593
 20
22.17775602682618
 30
0.0
 11
110.54593629463963
 21
22.29113648722132
 31
0.0
  0
ARC
  5
EE
330
17
100
AcDbEntity
  8
0
100
AcDbCircle
 10
110.86919633998352
 20
32.89752835047786
 30
0.0
 40
10.611316855785164
100
AcDbArc
 50
232.51252380064875
 51
268.2542880872785
  0
LINE
  5
EF
330
17
100
AcDbEntity
  8
0
100
AcDbLine
 10
104.4112762154986
 20
24.47759289468915
 30
0.0
 11
103.51624102285214
 21
25.264176182707995
 31
0.0
  0
LINE
  5
F0
330
17
100
AcDbEntity
  8
0
100
AcDbLine
 10
103.51624102285214
 20
25.264176182707995
 30
0.0
 11
103.43176493530791
 21
25.318785571868776
 31
0.0
  0
LINE
  5
F1
330
17
100
AcDbEntity
  8
0
100
AcDbLine
 10
103.43176493530791
 20
25.318785571868776
 30
0.0
 11
103.31562618435291
 21
25.411154613014325
 31
0.0
  0
LINE
  5
F2
330
17
100
AcDbEntity
  8
0
100
AcDbLine
 10
103.31562618435291
 20
25.411154613014325
 30
0.0
 11
102.33959348065561
 21
26.26896864237811
 31
0.0
  0
LINE
  5
F3
330
17
100
AcDbEntity
  8
0
100
AcDbLine
 10
102.33959348065561
 20
26.26896864237811
 30
0.0
 11
101.34185141271121
 21
26.901848830886355
 31
0.0
  0
LINE
  5
F4
330
17
100
AcDbEntity
  8
0
100
AcDbLine
 10
101.34185141271121
 20
26.901848830886355
 30
0.0
 11
100.2579320555798
 21
27.372398042414364
 31
0.0
  0
LINE
  5
F5
330
17
100
AcDbEntity
  8
0
100
AcDbLine
 10
100.2579320555798
 20
27.372398042414364
 30
0.0
 11
99.11472455164468
 21
27.668994018488316
 31
0.0
  0
LINE
  5
F6
330
17
100
AcDbEntity
  8
0
100
AcDbLine
 10
99.11472455164468
 20
27.668994018488316
 30
0.0
 11
96.60684863738409
 21
27.919709987311947
 31
0.0
  0
ARC
  5
F7
330
17
100
AcDbEntity
  8
0
100
AcDbCircle
 10
98.22891480765668
 20
37.79961127989878
 30
0.0
 40
10.01217000514882
100
AcDbArc
 50
178.53876037736046
 51
260.67644874635766
  0
LINE
  5
F8
330
17
100
AcDbEntity
  8
0
100
AcDbLine
 10
88.22000071178242
 20
38.054928403117636
 30
0.0
 11
88.21499867113133
 21
44.75944897589271
 31
0.0
  0
ARC
  5
F9
330
17
100
AcDbEntity
  8
0
100
AcDbCircle
 10
75.12363348747147
 20
44.069859279935855
 30
0.0
 40
13.109514724836744
100
AcDbArc
 50
3.0152773504417407
 51
71.98954473996527
  0
LINE
  5
FA
330
17
100
AcDbEntity
  8
0
100
AcDbLine
 10
79.17697138239178
 20
56.53700924415445
 30
0.0
 11
77.15231290788309
 21
57.034761645822016
 31
0.0
  0
ARC
  5
FB
330
17
100
AcDbEntity
  8
0
100
AcDbCircle
 10
82.62502675235022
 20
76.34325309970583
 30
0.0
 40
20.069091634853002
100
AcDbArc
 50
223.6875129478269
 51
254.17538222145384
  0
LINE
  5
FC
330
17
100
AcDbEntity
  8
0
100
AcDbLine
 10
68.11271137284724
 20
62.48103317020121
 30
0.0
 11
66.93494662360175
 21
63.87415624433571
 31
0.0
  0
LINE
  5
FD
330
17
100
AcDbEntity
  8
0
100
AcDbLine
 10
66.93494662360175
 20
63.87415624433571
 30
0.0
 11
66.22630727064944
 21
64.5667464201559
 31
0.0
  0
LINE
  5
FE
330
17
100
AcDbEntity
  8
0
100
AcDbLine
 10
66.22630727064944
 20
64.5667464201559
 30
0.0
 11
65.58617302265488
 21
65.04117817654523
 31
0.0
  0
LINE
  5
FF
330
17
100
AcDbEntity
  8
0
100
AcDbLine
 10
65.58617302265488
 20
65.04117817654523
 30
0.0
 11
64.88588733150058
 21
65.42133768352366
 31
0.0
  0
LINE
  5
100
330
17
100
AcDbEntity
  8
0
100
AcDbLine
 10
64.88588733150058
 20
65.42133768352366
 30
0.0
 11
64.1399992798926
 21
65.69945985136849
 31
0.0
  0
LINE
  5
101
330
17
100
AcDbEntity
  8
0
100
AcDbLine
 10
64.1399992798926
 20
65.69945985136849
 30
0.0
 11
63.258472136111095
 21
65.89229291281494
 31
0.0
  0
ARC
  5
102
330
17
100
AcDbEntity
  8
0
100
AcDbCircle
 10
63.58081861108926
 20
67.36857770930125
 30
0.0
 40
1.51106718919692
100
AcDbArc
 50
89.97330235167806
 51
257.68279775939254
  0
LINE
  5
103
330
17
100
AcDbEntity
  8
0
100
AcDbLine
 10
63.58152271075055
 20
68.87964473445713
 30
0.0
 11
66.23285816652752
 21
68.87964473445713
 31
0.0
  0
ARC
  5
104
330
17
100
AcDbEntity
  8
0
100
AcDbCircle
 10
66.31908412566392
 20
67.19768103297719
 30
0.0
 40
1.6841724404362832
100
AcDbArc
 50
62.462393365244154
 51
92.93470209872821
  0
ARC
  5
105
330
17
100
AcDbEntity
  8
0
100
AcDbCircle
 10
66.38544159923417
 20
67.35760573116886
 30
0.0
 40
1.5117623002329243
100
AcDbArc
 50
32.70206379286204
 51
61.890153642842634
  0
ARC
  5
106
330
17
100
AcDbEntity
  8
0
100
AcDbCircle
 10
82.64180702695245
 20
76.37618762019252
 30
0.0
 40
17.082067657079687
100
AcDbArc
 50
208.6946880913809
 51
254.05994060044992
  0
LINE
  5
107
330
17
100
AcDbEntity
  8
0
100
AcDbLine
 10
77.95053195330792
 20
59.950933478339685
 30
0.0
 11
80.00903672318675
 21
59.44485771252493
 31
0.0
  0
LINE
  5
108
330
17
100
AcDbEntity
  8
0
100
AcDbLine
 10
80.00903672318675
 20
59.44485771252493
 30
0.0
 11
80.11666946592798
 21
59.41410186695669
 31
0.0
  0
LINE
  5
109
330
17
100
AcDbEntity
  8
0
100
AcDbLine
 10
80.11666946592798
 20
59.41410186695669
 30
0.0
 11
80.28425052327455
 21
59.34979880369767
 31
0.0
  0
LINE
  5
10A
330
17
100
AcDbEntity
  8
0
100
AcDbLine
 10
80.28425052327455
 20
59.34979880369767
 30
0.0
 11
80.47481049833304
 21
59.31188689505168
 31
0.0
  0
LINE
  5
10B
330
17
100
AcDbEntity
  8
0
100
AcDbLine
 10
80.47481049833304
 20
59.31188689505168
 30
0.0
 11
81.6938865173214
 21
58.97608482871127
 31
0.0
  0
LINE
  5
10C
330
17
100
AcDbEntity
  8
0
100
AcDbLine
 10
81.6938865173214
 20
58.97608482871127
 30
0.0
 11
82.85535020007953
 21
58.80093891607759
 31
0.0
  0
LINE
  5
10D
330
17
100
AcDbEntity
  8
0
100
AcDbLine
 10
82.85535020007953
 20
58.80093891607759
 30
0.0
 11
83.85233053594511
 21
58.769802428856266
 31
0.0
  0
LINE
  5
10E
330
17
100
AcDbEntity
  8
0
100
AcDbLine
 10
83.85233053594511
 20
58.769802428856266
 30
0.0
 11
90.44529941585971
 21
58.769802428856266
 31
0.0
  0
ARC
  5
10F
330
17
100
AcDbEntity
  8
0
100
AcDbCircle
 10
89.88634164827386
 20
61.81031612175755
 30
0.0
 40
3.0914652355581764
100
AcDbArc
 50
280.41675395684035
 51
349.1386719594885
  0
LINE
  5
110
330
17
100
AcDbEntity
  8
0
100
AcDbLine
 10
92.92242674520415
 20
61.22778321551569
 30
0.0
 11
92.92242674520415
 21
68.08435744063803
 31
0.0
  0
ARC
  5
111
330
17
100
AcDbEntity
  8
0
100
AcDbCircle
 10
94.43446492171758
 20
68.08321243218425
 30
0.0
 40
1.512038610048835
100
AcDbArc
 50
0.043387885562060996
 51
179.95661211443795
  0
LINE
  5
112
330
17
100
AcDbEntity
  8
0
100
AcDbLine
 10
95.94650309823075
 20
68.08435744063803
 30
0.0
 11
95.94650309823075
 21
61.14452419793367
 31
0.0
  0
ARC
  5
113
330
17
100
AcDbEntity
  8
0
100
AcDbCircle
 10
98.47665594932448
 20
61.295963103638485
 30
0.0
 40
2.534680885645925
100
AcDbArc
 50
183.4252756385452
 51
264.5971598438856
  0
LINE
  5
114
330
17
100
AcDbEntity
  8
0
100
AcDbLine
 10
98.23799631995993
 20
58.772543048758386
 30
0.0
 11
101.36648074992733
 21
58.769802428856266
 31
0.0
  0
ARC
  5
115
330
17
100
AcDbEntity
  8
0
100
AcDbCircle
 10
101.36711751888933
 20
57.258655066159285
 30
0.0
 40
1.511147496858183
100
AcDbArc
 50
269.97585664192087
 51
90.02414335807913
  0
LINE
  5
116
330
17
100
AcDbEntity
  8
0
100
AcDbLine
 10
101.36648074992733
 20
55.747507703462034
 30
0.0
 11
99.03715483494867
 21
55.747507703462034
 31
0.0
  0
ARC
  5
117
330
17
100
AcDbEntity
  8
0
100
AcDbCircle
 10
98.9665892299216
 20
52.72812495991875
 30
0.0
 40
3.0202072208078365
100
AcDbArc
 50
88.66119143588844
 51
180.51306603295728
  0
LINE
  5
118
330
17
100
AcDbEntity
  8
0
100
AcDbLine
 10
95.94650309823075
 20
52.70108029726302
 30
0.0
 11
95.94650309823075
 21
37.50949429037521
 31
0.0
  0
ARC
  5
119
330
17
100
AcDbEntity
  8
0
100
AcDbCircle
 10
104.41588865206299
 20
37.66315890251677
 30
0.0
 40
8.47077944893425
100
AcDbArc
 50
181.03943406254646
 51
229.80407675870393
  0
LINE
  5
11A
330
17
100
AcDbEntity
  8
0
100
AcDbLine
 10
98.94881930487162
 20
31.19282218597064
 30
0.0
 11
99.71537568688565
 21
30.633811854268632
 31
0.0
  0
LINE
  5
11B
330
17
100
AcDbEntity
  8
0
100
AcDbLine
 10
99.71537568688565
 20
30.633811854268632
 30
0.0
 11
101.245238394044
 21
30.233935109661058
 31
0.0
  0
LINE
  5
11C
330
17
100
AcDbEntity
  8
0
100
AcDbLine
 10
101.245238394044
 20
30.233935109661058
 30
0.0
 11
102.65487438809085
 21
29.62696392967193
 31
0.0
  0
LINE
  5
11D
330
17
100
AcDbEntity
  8
0
100
AcDbLine
 10
102.65487438809085
 20
29.62696392967193
 30
0.0
 11
102.86237020636904
 21
29.517009244154437
 31
0.0
  0
LINE
  5
11E
330
17
100
AcDbEntity
  8
0
100
AcDbLine
 10
102.86237020636904
 20
29.517009244154437
 30
0.0
 11
104.15622292443098
 21
28.69091535254668
 31
0.0
  0
LINE
  5
11F
330
17
100
AcDbEntity
  8
0
100
AcDbLine
 10
104.15622292443098
 20
28.69091535254668
 30
0.0
 11
105.14261518440055
 21
27.830157694399137
 31
0.0
  0
LINE
  5
120
330
17
100
AcDbEntity
  8
0
100
AcDbLine
 10
105.14261518440055
 20
27.830157694399137
 30
0.0
 11
105.34307767648407
 21
27.683306144643836
 31
0.0
  0
ARC
  5
121
330
17
100
AcDbEntity
  8
0
100
AcDbCircle
 10
110.87363640586788
 20
32.94153712072656
 30
0.0
 40
7.631256309219299
100
AcDbArc
 50
223.5540622479589
 51
268.7449128303245
  0
ARC
  5
122
330
17
100
AcDbEntity
  8
0
100
AcDbCircle
 10
110.69155328391616
 20
33.55366329737633
 30
0.0
 40
8.241565167060564
100
AcDbArc
 50
270.10379933241586
 51
0.7134442487121133
  0
LINE
  5
123
330
17
100
AcDbEntity
  8
0
100
AcDbLine
 10
118.93247952740975
 20
33.6562842124343
 30
0.0
 11
118.95715964676441
 21
33.82955229291282
 31
0.0
  0
LINE
  5
124
330
17
100
AcDbEntity
  8
0
100
AcDbLine
 10
118.95715964676441
 20
33.82955229291282
 30
0.0
 11
118.95715964676441
 21
47.587565705999644
 31
0.0
  0
LINE
  5
125
330
17
100
AcDbEntity
  8
0
100
AcDbLine
 10
118.95715964676441
 20
47.587565705999644
 30
0.0
 11
118.87016984335999
 21
48.692340039876754
 31
0.0
  0
ARC
  5
126
330
17
100
AcDbEntity
  8
0
100
AcDbCircle
 10
110.74086825412527
 20
47.40235940278257
 30
0.0
 40
8.231014176443384
100
AcDbArc
 50
9.016677697378748
 51
81.01708792491621
  0
LINE
  5
127
330
17
100
AcDbEntity
  8
0
100
AcDbLine
 10
112.02605789704918
 20
55.532419793365975
 30
0.0
 11
110.61606642803223
 21
55.64346565162227
 31
0.0
  0
LINE
  5
128
330
17
100
AcDbEntity
  8
0
100
AcDbLine
 10
110.61606642803223
 20
55.64346565162227
 30
0.0
 11
106.81997461309317
 21
55.64346565162227
 31
0.0
  0
ARC
  5
129
330
17
100
AcDbEntity
  8
0
100
AcDbCircle
 10
106.81933784413225
 20
57.154613014320006
 30
0.0
 40
1.5111474968589358
100
AcDbArc
 50
89.97585664196183
 51
270.02414335803815
  0
LINE
  5
12A
330
17
100
AcDbEntity
  8
0
100
AcDbLine
 10
106.81997461309317
 20
58.66576037701651
 30
0.0
 11
110.74200613173511
 21
58.66576037701651
 31
0.0
  0
ARC
  5
12B
330
17
100
AcDbEntity
  8
0
100
AcDbCircle
 10
110.73823879185495
 20
66.88482129819964
 30
0.0
 40
8.219061784593752
100
AcDbArc
 50
270.02626244799467
 51
359.6644723091023
  0
LINE
  5
12C
330
17
100
AcDbEntity
  8
0
100
AcDbLine
 10
118.95715964676441
 20
66.83669023019758
 30
0.0
 11
118.95715964676441
 21
68.10922602863876
 31
0.0
  0
LINE
  5
12D
330
17
100
AcDbEntity
  8
0
100
AcDbLine
 10
118.95715964676441
 20
68.10922602863876
 30
0.0
 11
118.87016984335999
 21
69.21400036251588
 31
0.0
  0
ARC
  5
12E
330
17
100
AcDbEntity
  8
0
100
AcDbCircle
 10
110.74112926773077
 20
67.92415279629324
 30
0.0
 40
8.230735533615247
100
AcDbArc
 50
9.016047570290308
 51
81.00985235290501
  0
LINE
  5
12F
330
17
100
AcDbEntity
  8
0
100
AcDbLine
 10
112.02730205944464
 20
76.05377560268262
 30
0.0
 11
110.59692156178386
 21
76.16512597426139
 31
0.0
  0
LINE
  5
130
330
17
100
AcDbEntity
  8
0
100
AcDbLine
 10
110.59692156178386
 20
76.16512597426139
 30
0.0
 11
98.54611694585395
 21
76.16512597426139
 31
0.0
  0
ARC
  5
131
330
17
100
AcDbEntity
  8
0
100
AcDbCircle
 10
98.50543480247009
 20
73.61271217672224
 30
0.0
 40
2.5527379870755453
100
AcDbArc
 50
89.0868574028473
 51
171.14953445088477
  0
LINE
  5
132
330
17
100
AcDbEntity
  8
0
100
AcDbLine
 10
95.98309162908474
 20
74.00546673916985
 30
0.0
 11
95.93921586134307
 21
73.45777415261918
 31
0.0
  0
ARC
  5
133
330
17
100
AcDbEntity
  8
0
100
AcDbCircle
 10
94.43445434428132
 20
73.60694687083883
 30
0.0
 40
1.5121374683179511
100
AcDbArc
 50
186.73792889029315
 51
354.33854962864757
  0
LINE
  5
134
330
17
100
AcDbEntity
  8
0
100
AcDbLine
 10
92.93276091040721
 20
73.42953054196121
 30
0.0
 11
92.88022678803598
 21
74.01198839949248
 31
0.0
  0
ARC
  5
135
330
17
100
AcDbEntity
  8
0
100
AcDbCircle
 10
90.31376634592255
 20
73.56107344581866
 30
0.0
 40
2.605771190334978
100
AcDbArc
 50
9.964893103838682
 51
92.0810791027258
  0
LINE
  5
136
330
17
100
AcDbEntity
  8
0
100
AcDbLine
 10
90.21914116164974
 20
76.16512597426139
 30
0.0
 11
87.68036431605721
 21
76.16512597426139
 31
0.0
  0
ARC
  5
137
330
17
100
AcDbEntity
  8
0
100
AcDbCircle
 10
87.68005601230637
 20
77.67684024046055
 30
0.0
 40
1.5117142976373805
100
AcDbArc
 50
185.6416515034666
 51
270.01168508089216
  0
ARC
  5
138
330
17
100
AcDbEntity
  8
0
100
AcDbCircle
 10
84.12747180549022
 20
77.55022091588755
 30
0.0
 40
2.0483104146442854
100
AcDbArc
 50
359.38482865667
 51
50.33771435950901
  0
ARC
  5
139
330
17
100
AcDbEntity
  8
0
100
AcDbCircle
 10
84.1509162302615
 20
77.55021408566434
 30
0.0
 40
2.0334321391520875
100
AcDbArc
 50
50.846379799562214
 51
93.05815784458959
  0
LINE
  5
13A
330
17
100
AcDbEntity
  8
0
100
AcDbLine
 10
84.04243347175628
 20
79.58075040783035
 30
0.0
 11
65.0196728756156
 21
79.58075040783035
 31
0.0
  0
ARC
  5
13B
330
17
100
AcDbEntity
  8
0
100
AcDbCircle
 10
65.06493235386166
 20
77.43264725618657
 30
0.0
 40
2.1485798962275178
100
AcDbArc
 50
91.20701534373036
 51
140.13310911842694
  0
LINE
  5
13C
330
17
100
AcDbEntity
  8
0
100
AcDbLine
 10
63.41582059253183
 20
78.8099003081385
 30
0.0
 11
62.91485479534277
 21
78.10825086097516
 31
0.0
  0
ARC
  5
13D
330
17
100
AcDbEntity
  8
0
100
AcDbCircle
 10
58.82495092174385
 20
81.33452890186074
 30
0.0
 40
5.20924022218019
100
AcDbArc
 50
271.4949716506911
 51
321.732225512378
  0
LINE
  5
13E
330
17
100
AcDbEntity
  8
0
100
AcDbLine
 10
58.96085592045852
 20
76.12706180895415
 30
0.0
 11
50.59757090716255
 21
76.12706180895415
 31
0.0
  0
ARC
  5
13F
330
17
100
AcDbEntity
  8
0
100
AcDbCircle
 10
50.641530959911634
 20
73.97128618640579
 30
0.0
 40
2.156223787321594
100
AcDbArc
 50
91.16819971203543
 51
134.02114744142088
  0
LINE
  5
140
330
17
100
AcDbEntity
  8
0
100
AcDbLine
 10
49.14311967581015
 20
75.52179082834874
 30
0.0
 11
48.49805956037236
 21
74.80067790465834
 31
0.0
  0
ARC
  5
141
330
17
100
AcDbEntity
  8
0
100
AcDbCircle
 10
44.81749371785054
 20
78.45428410107098
 30
0.0
 40
5.186077820434553
100
AcDbArc
 50
271.38061243140066
 51
315.2106123191224
  0
LINE
  5
142
330
17
100
AcDbEntity
  8
0
100
AcDbLine
 10
44.9424465627256
 20
73.26971179989124
 30
0.0
 11
40.2455303913409
 21
73.26971179989124
 31
0.0
  0
ARC
  5
143
330
17
100
AcDbEntity
  8
0
100
AcDbCircle
 10
40.251423468144864
 20
69.9963981167521
 30
0.0
 40
3.2733189879051072
100
AcDbArc
 50
90.10315175907387
 51
180.5996811212357
  0
LINE
  5
144
330
17
100
AcDbEntity
  8
0
100
AcDbLine
 10
36.9782837676767
 20
69.96213884357441
 30
0.0
 11
36.9782837676767
 21
69.32727931847019
 31
0.0
  0
ARC
  5
145
330
17
100
AcDbEntity
  8
0
100
AcDbCircle
 10
35.40597349690208
 20
69.3531844267614
 30
0.0
 40
1.5725236603049715
100
AcDbArc
 50
270.9101441904531
 51
359.05609018729007
  0
LINE
  5
146
330
17
100
AcDbEntity
  8
0
100
AcDbLine
 10
35.43095200484344
 20
67.78085916258837
 30
0.0
 11
30.73380731383507
 21
67.78085916258837
 31
0.0
  0
LINE
  5
147
330
17
100
AcDbEntity
  8
0
100
AcDbLine
 10
30.73380731383507
 20
67.78085916258837
 30
0.0
 11
28.915248148793314
 21
67.71379010331702
 31
0.0
  0
ARC
  5
148
330
17
100
AcDbEntity
  8
0
100
AcDbCircle
 10
30.124288742725216
 20
56.343327673221346
 30
0.0
 40
11.434561427181741
100
AcDbArc
 50
96.06955118583701
 51
177.99699663235143
  0
LINE
  5
149
330
17
100
AcDbEntity
  8
0
100
AcDbLine
 10
18.69671387532442
 20
56.74298713068698
 30
0.0
 11
18.69671387532442
 21
44.040848287112574
 31
0.0
  0
ARC
  5
14A
330
17
100
AcDbEntity
  8
0
100
AcDbCircle
 10
33.89233350325892
 20
44.248947953158094
 30
0.0
 40
15.197044493844071
100
AcDbArc
 50
180.78460027143498
 51
226.0507167667959
  0
ARC
  5
14B
330
17
100
AcDbEntity
  8
0
100
AcDbCircle
 10
15.269608919497431
 20
24.321487599740063
 30
0.0
 40
12.081779240601763
100
AcDbArc
 50
356.7997289422474
 51
48.05509342661253
  0
ARC
  5
14C
330
17
100
AcDbEntity
  8
0
100
AcDbCircle
 10
25.82817311274035
 20
23.79573906927686
 30
0.0
 40
1.5117078979588157
100
AcDbArc
 50
269.99531860485536
 51
354.35373489730154
  0
LINE
  5
14D
330
17
100
AcDbEntity
  8
0
100
AcDbLine
 10
25.82804959749951
 20
22.28403117636397
 30
0.0
 11
11.350823617607166
 21
22.28403117636397
 31
0.0
  0
ARC
  5
14E
330
17
100
AcDbEntity
  8
0
100
AcDbCircle
 10
11.297909530301258
 20
14.043259426739
 30
0.0
 40
8.24094162884633
100
AcDbArc
 50
89.63210821670894
 51
170.96090148053472
  0
LINE
  5
14F
330
17
100
AcDbEntity
  8
0
100
AcDbLine
 10
3.1593091880914144
 20
15.33798078665942
 30
0.0
 11
3.0485533438269057
 21
13.9315606307776
 31
0.0
  0
LINE
  5
150
330
17
100
AcDbEntity
  8
0
100
AcDbLine
 10
3.0485533438269057
 20
13.9315606307776
 30
0.0
 11
3.024076353026598
 21
13.760449519666487
 31
0.0
  0
ARC
  5
151
330
17
100
AcDbEntity
  8
0
100
AcDbCircle
 10
76.48551803712968
 20
95.19471993785615
 30
0.0
 40
0.7380138207933774
100
AcDbArc
 50
201.06227980512017
 51
338.93772019483066
  0
LINE
  5
152
330
17
100
AcDbEntity
  8
0
100
AcDbLine
 10
77.17422540068456
 20
94.92949066521662
 30
0.0
 11
75.79681067357303
 21
94.92949066521662
 31
0.0
  0
LINE
  5
153
330
17
100
AcDbEntity
  8
0
100
AcDbLine
 10
38.00154386026253
 20
40.84599601232555
 30
0.0
 11
37.99951257471895
 21
48.37145912633679
 31
0.0
  0
LINE
  5
154
330
17
100
AcDbEntity
  8
0
100
AcDbLine
 10
37.99951257471895
 20
48.37145912633679
 30
0.0
 11
38.019317608768965
 21
48.745071596882376
 31
0.0
  0
LINE
  5
155
330
17
100
AcDbEntity
  8
0
100
AcDbLine
 10
38.019317608768965
 20
48.745071596882376
 30
0.0
 11
38.019317608768965
 21
57.96040601776329
 31
0.0
  0
ARC
  5
156
330
17
100
AcDbEntity
  8
0
100
AcDbCircle
 10
35.746382062942345
 20
58.18264215260743
 30
0.0
 40
2.2837742653582502
100
AcDbArc
 50
354.4156588202699
 51
50.1136313422659
  0
LINE
  5
157
330
17
100
AcDbEntity
  8
0
100
AcDbLine
 10
37.21089135348759
 20
59.93502265724126
 30
0.0
 11
36.92331210265317
 21
60.13734638390431
 31
0.0
  0
LINE
  5
158
330
17
100
AcDbEntity
  8
0
100
AcDbLine
 10
36.92331210265317
 20
60.13734638390431
 30
0.0
 11
36.60762493810927
 21
60.29219140837412
 31
0.0
  0
LINE
  5
159
330
17
100
AcDbEntity
  8
0
100
AcDbLine
 10
36.60762493810927
 20
60.29219140837412
 30
0.0
 11
36.27157413599081
 21
60.395776690230214
 31
0.0
  0
LINE
  5
15A
330
17
100
AcDbEntity
  8
0
100
AcDbLine
 10
36.27157413599081
 20
60.395776690230214
 30
0.0
 11
35.912163550121036
 21
60.447163313394974
 31
0.0
  0
LINE
  5
15B
330
17
100
AcDbEntity
  8
0
100
AcDbLine
 10
35.912163550121036
 20
60.447163313394974
 30
0.0
 11
30.610559063477442
 21
60.451426499909374
 31
0.0
  0
ARC
  5
15C
330
17
100
AcDbEntity
  8
0
100
AcDbCircle
 10
30.33792595120756
 20
56.268559196393
 30
0.0
 40
4.191742798971844
100
AcDbArc
 50
86.2708205707991
 51
176.48451135134175
  0
LINE
  5
15D
330
17
100
AcDbEntity
  8
0
100
AcDbLine
 10
26.15407092724645
 20
56.52558999456227
 30
0.0
 11
26.15407092724645
 21
44.60630415080661
 31
0.0
  0
ARC
  5
15E
330
17
100
AcDbEntity
  8
0
100
AcDbCircle
 10
31.140675740984662
 20
44.739782295620635
 30
0.0
 40
4.988390921283144
100
AcDbArc
 50
181.5332894656538
 51
262.8720704384714
  0
LINE
  5
15F
330
17
100
AcDbEntity
  8
0
100
AcDbLine
 10
30.52169032094518
 20
39.7899438100417
 30
0.0
 11
31.3871195267937
 21
39.74787021932211
 31
0.0
  0
LINE
  5
160
330
17
100
AcDbEntity
  8
0
100
AcDbLine
 10
31.3871195267937
 20
39.74787021932211
 30
0.0
 11
36.87537376382435
 21
39.74787021932211
 31
0.0
  0
ARC
  5
161
330
17
100
AcDbEntity
  8
0
100
AcDbCircle
 10
36.943931421251854
 20
40.804089912364425
 30
0.0
 40
1.058442342483685
100
AcDbArc
 50
266.28622540452125
 51
2.269061148273823
  0
ARC
  5
162
330
17
100
AcDbEntity
  8
0
100
AcDbCircle
 10
22.863019789002152
 20
68.07784224574647
 30
0.0
 40
0.9057542168267069
100
AcDbArc
 50
75.7422173706946
 51
169.1076398891968
  0
LINE
  5
163
330
17
100
AcDbEntity
  8
0
100
AcDbLine
 10
21.973583714251383
 20
68.24899764364692
 30
0.0
 11
22.66835954336867
 21
68.73010331702012
 31
0.0
  0
LINE
  5
164
330
17
100
AcDbEntity
  8
0
100
AcDbLine
 10
22.66835954336867
 20
68.73010331702012
 30
0.0
 11
22.853206527835784
 21
68.83947435200291
 31
0.0
  0
LINE
  5
165
330
17
100
AcDbEntity
  8
0
100
AcDbLine
 10
22.853206527835784
 20
68.83947435200291
 30
0.0
 11
23.086093415408925
 21
68.95569693674099
 31
0.0
  0
ARC
  5
166
330
17
100
AcDbEntity
  8
0
100
AcDbCircle
 10
16.49641784827471
 20
49.23980424143708
 30
0.0
 40
0.8974739485239883
100
AcDbArc
 50
156.61921025335934
 51
203.38078974681721
  0
LINE
  5
167
330
17
100
AcDbEntity
  8
0
100
AcDbLine
 10
15.672637522297821
 20
48.8836505347109
 30
0.0
 11
15.672637522297821
 21
49.59595794816024
 31
0.0
  0
ARC
  5
168
330
17
100
AcDbEntity
  8
0
100
AcDbCircle
 10
45.76601108154908
 20
61.34260768222764
 30
0.0
 40
1.5095466642980886
100
AcDbArc
 50
180.97853191316574
 51
270.04317117699577
  0
LINE
  5
169
330
17
100
AcDbEntity
  8
0
100
AcDbLine
 10
45.767148493425054
 20
59.83306144643829
 30
0.0
 11
48.5589981266802
 21
59.83306144643829
 31
0.0
  0
ARC
  5
16A
330
17
100
AcDbEntity
  8
0
100
AcDbCircle
 10
48.64321885016812
 20
58.12505123731681
 30
0.0
 40
1.710085379367954
100
AcDbArc
 50
23.47614802923053
 51
92.82292621398764
  0
LINE
  5
16B
330
17
100
AcDbEntity
  8
0
100
AcDbLine
 10
50.21175360922603
 20
58.80629327533081
 30
0.0
 11
50.2925479917225
 21
58.57092985318109
 31
0.0
  0
LINE
  5
16C
330
17
100
AcDbEntity
  8
0
100
AcDbLine
 10
50.2925479917225
 20
58.57092985318109
 30
0.0
 11
50.337718703998185
 21
58.326228022475995
 31
0.0
  0
LINE
  5
16D
330
17
100
AcDbEntity
  8
0
100
AcDbLine
 10
50.337718703998185
 20
58.326228022475995
 30
0.0
 11
50.357269827355296
 21
57.86179445350735
 31
0.0
  0
ARC
  5
16E
330
17
100
AcDbEntity
  8
0
100
AcDbCircle
 10
51.86087122148819
 20
58.01794222080699
 30
0.0
 40
1.5116875595410055
100
AcDbArc
 50
185.92886691145844
 51
270.3236209927226
  0
LINE
  5
16F
330
17
100
AcDbEntity
  8
0
100
AcDbLine
 10
51.869409568145755
 20
56.50627877469641
 30
0.0
 11
54.6984063357794
 21
56.52150444081929
 31
0.0
  0
ARC
  5
170
330
17
100
AcDbEntity
  8
0
100
AcDbCircle
 10
54.690269165328736
 20
58.033075867866465
 30
0.0
 40
1.5115933291095094
100
AcDbArc
 50
270.3084346608381
 51
359.9733456860753
  0
LINE
  5
171
330
17
100
AcDbEntity
  8
0
100
AcDbLine
 10
56.201862330871
 20
58.032372666304155
 30
0.0
 11
56.201862330871
 21
65.12042776871489
 31
0.0
  0
ARC
  5
172
330
17
100
AcDbEntity
  8
0
100
AcDbCircle
 10
54.68973683064174
 20
65.11929347303564
 30
0.0
 40
1.512125925665676
100
AcDbArc
 50
0.04297946363651652
 51
129.39149089264473
  0
LINE
  5
173
330
17
100
AcDbEntity
  8
0
100
AcDbLine
 10
53.73011790821708
 20
66.28790647090811
 30
0.0
 11
52.52003032775915
 21
65.13463839042959
 31
0.0
  0
ARC
  5
174
330
17
100
AcDbEntity
  8
0
100
AcDbCircle
 10
46.150104764602794
 20
72.84970715090658
 30
0.0
 40
10.004910677214509
100
AcDbArc
 50
267.4937621035196
 51
309.5446914116086
  0
ARC
  5
175
330
17
100
AcDbEntity
  8
0
100
AcDbCircle
 10
45.766299247917324
 20
61.34543569063465
 30
0.0
 40
1.5098857231742906
100
AcDbArc
 50
92.0378385115919
 51
181.0856442868939
  0
LINE
  5
176
330
17
100
AcDbEntity
  8
0
100
AcDbLine
 10
41.14622779244007
 20
98.0
 30
0.0
 11
30.481978688567906
 21
98.0
 31
0.0
  0
LINE
  5
177
330
17
100
AcDbEntity
  8
0
100
AcDbLine
 10
30.481978688567906
 20
98.0
 30
0.0
 11
30.469283153920443
 21
97.9873119448976
 31
0.0
  0
LINE
  5
178
330
17
100
AcDbEntity
  8
0
100
AcDbLine
 10
30.469283153920443
 20
97.9873119448976
 30
0.0
 11
30.469283153920443
 21
94.94217872031902
 31
0.0
  0
LINE
  5
179
330
17
100
AcDbEntity
  8
0
100
AcDbLine
 10
30.469283153920443
 20
94.94217872031902
 30
0.0
 11
30.481343911835545
 21
94.92951604132682
 31
0.0
  0
LINE
  5
17A
330
17
100
AcDbEntity
  8
0
100
AcDbLine
 10
30.481343911835545
 20
94.92951604132682
 30
0.0
 11
41.14932550289406
 21
94.92987130686969
 31
0.0
  0
LINE
  5
17B
330
17
100
AcDbEntity
  8
0
100
AcDbLine
 10
41.14932550289406
 20
94.92987130686969
 30
0.0
 11
41.158923327087535
 21
94.94217872031902
 31
0.0
  0
LINE
  5
17C
330
17
100
AcDbEntity
  8
0
100
AcDbLine
 10
41.158923327087535
 20
94.94217872031902
 30
0.0
 11
41.15854246104811
 21
97.99040783034259
 31
0.0
  0
LINE
  5
17D
330
17
100
AcDbEntity
  8
0
100
AcDbLine
 10
41.15854246104811
 20
97.99040783034259
 30
0.0
 11
41.14622779244007
 21
98.0
 31
0.0
  0
ENDSEC
  0
SECTION
  2
OBJECTS
  0
DICTIONARY
  5
A
330
0
100
AcDbDictionary
281
1
  3
ACAD_COLOR
350
B
  3
ACAD_GROUP
350
C
  3
ACAD_LAYOUT
350
D
  3
ACAD_MATERIAL
350
E
  3
ACAD_MLEADERSTYLE
350
F
  3
ACAD_MLINESTYLE
350
10
  3
ACAD_PLOTSETTINGS
350
11
  3
ACAD_PLOTSTYLENAME
350
12
  3
ACAD_SCALELIST
350
14
  3
ACAD_TABLESTYLE
350
15
  3
ACAD_VISUALSTYLE
350
16
  3
EZDXF_META
350
2D
  0
DICTIONARY
  5
B
330
A
100
AcDbDictionary
281
1
  0
DICTIONARY
  5
C
330
A
100
AcDbDictionary
281
1
  0
DICTIONARY
  5
D
330
A
100
AcDbDictionary
281
1
  3
Model
350
1A
  3
Layout1
350
1E
  0
DICTIONARY
  5
E
330
A
100
AcDbDictionary
281
1
  3
ByBlock
350
1F
  3
ByLayer
350
20
  3
Global
350
21
  0
DICTIONARY
  5
F
330
A
100
AcDbDictionary
281
1
  3
Standard
350
2C
  0
DICTIONARY
  5
10
330
A
100
AcDbDictionary
281
1
  3
Standard
350
22
  0
DICTIONARY
  5
11
330
A
100
AcDbDictionary
281
1
  0
ACDBDICTIONARYWDFLT
  5
12
330
A
100
AcDbDictionary
281
1
  3
Normal
350
13
100
AcDbDictionaryWithDefault
340
13
  0
ACDBPLACEHOLDER
  5
13
330
12
  0
DICTIONARY
  5
14
330
A
100
AcDbDictionary
281
1
  0
DICTIONARY
  5
15
330
A
100
AcDbDictionary
281
1
  0
DICTIONARY
  5
16
330
A
100
AcDbDictionary
281
1
  0
LAYOUT
  5
1A
330
D
100
AcDbPlotSettings
  1

  4
A3
  6

 40
7.5
 41
20.0
 42
7.5
 43
20.0
 44
420.0
 45
297.0
 46
0.0
 47
0.0
 48
0.0
 49
0.0
140
0.0
141
0.0
142
1.0
143
1.0
 70
1024
 72
1
 73
0
 74
5
  7

 75
16
 76
0
 77
2
 78
300
147
1.0
148
0.0
149
0.0
100
AcDbLayout
  1
Model
 70
1
 71
0
 10
0.0
 20
0.0
 11
420.0
 21
297.0
 12
0.0
 22
0.0
 32
0.0
 14
1e+20
 24
1e+20
 34
1e+20
 15
-1e+20
 25
-1e+20
 35
-1e+20
146
0.0
 13
0.0
 23
0.0
 33
0.0
 16
1.0
 26
0.0
 36
0.0
 17
0.0
 27
1.0
 37
0.0
 76
1
330
17
  0
LAYOUT
  5
1E
330
D
100
AcDbPlotSettings
  1

  4
A3
  6

 40
7.5
 41
20.0
 42
7.5
 43
20.0
 44
420.0
 45
297.0
 46
0.0
 47
0.0
 48
0.0
 49
0.0
140
0.0
141
0.0
142
1.0
143
1.0
 70
0
 72
1
 73
0
 74
5
  7

 75
16
 76
0
 77
2
 78
300
147
1.0
148
0.0
149
0.0
100
AcDbLayout
  1
Layout1
 70
1
 71
1
 10
0.0
 20
0.0
 11
420.0
 21
297.0
 12
0.0
 22
0.0
 32
0.0
 14
1e+20
 24
1e+20
 34
1e+20
 15
-1e+20
 25
-1e+20
 35
-1e+20
146
0.0
 13
0.0
 23
0.0
 33
0.0
 16
1.0
 26
0.0
 36
0.0
 17
0.0
 27
1.0
 37
0.0
 76
1
330
1B
  0
MATERIAL
  5
1F
102
{ACAD_REACTORS
330
E
102
}
330
E
100
AcDbMaterial
  1
ByBlock
  2

 70
0
 40
1.0
 71
1
 41
1.0
 91
-1023410177
 42
1.0
 72
1
  3

 73
1
 74
1
 75
1
 44
0.5
 73
0
 45
1.0
 46
1.0
 77
1
  4

 78
1
 79
1
170
1
 48
1.0
171
1
  6

172
1
173
1
174
1
140
1.0
141
1.0
175
1
  7

176
1
177
1
178
1
143
1.0
179
1
  8

270
1
271
1
272
1
145
1.0
146
1.0
273
1
  9

274
1
275
1
276
1
 42
1.0
 72
1
  3

 73
1
 74
1
 75
1
 94
63
  0
MATERIAL
  5
20
102
{ACAD_REACTORS
330
E
102
}
330
E
100
AcDbMaterial
  1
ByLayer
  2

 70
0
 40
1.0
 71
1
 41
1.0
 91
-1023410177
 42
1.0
 72
1
  3

 73
1
 74
1
 75
1
 44
0.5
 73
0
 45
1.0
 46
1.0
 77
1
  4

 78
1
 79
1
170
1
 48
1.0
171
1
  6

172
1
173
1
174
1
140
1.0
141
1.0
175
1
  7

176
1
177
1
178
1
143
1.0
179
1
  8

270
1
271
1
272
1
145
1.0
146
1.0
273
1
  9

274
1
275
1
276
1
 42
1.0
 72
1
  3

 73
1
 74
1
 75
1
 94
63
  0
MATERIAL
  5
21
102
{ACAD_REACTORS
330
E
102
}
330
E
100
AcDbMaterial
  1
Global
  2

 70
0
 40
1.0
 71
1
 41
1.0
 91
-1023410177
 42
1.0
 72
1
  3

 73
1
 74
1
 75
1
 44
0.5
 73
0
 45
1.0
 46
1.0
 77
1
  4

 78
1
 79
1
170
1
 48
1.0
171
1
  6

172
1
173
1
174
1
140
1.0
141
1.0
175
1
  7

176
1
177
1
178
1
143
1.0
179
1
  8

270
1
271
1
272
1
145
1.0
146
1.0
273
1
  9

274
1
275
1
276
1
 42
1.0
 72
1
  3

 73
1
 74
1
 75
1
 94
63
  0
MLINESTYLE
  5
22
102
{ACAD_REACTORS
330
10
102
}
330
10
100
AcDbMlineStyle
  2
Standard
 70
0
  3

 62
256
 51
90.0
 52
90.0
 71
2
 49
0.5
 62
256
  6
BYLAYER
 49
-0.5
 62
256
  6
BYLAYER
  0
MLEADERSTYLE
  5
2C
102
{ACAD_REACTORS
330
F
102
}
330
F
100
AcDbMLeaderStyle
179
2
170
2
171
1
172
0
 90
2
 40
0.0
 41
0.0
173
1
 91
-1056964608
 92
-2
290
1
 42
2.0
291
1
 43
8.0
  3
Standard
 44
4.0
300

342
29
174
1
175
1
176
0
178
1
 93
-1056964608
 45
4.0
292
0
297
0
 46
4.0
 94
-1056964608
 47
1.0
 49
1.0
140
1.0
294
1
141
0.0
177
0
142
1.0
295
0
296
0
143
3.75
271
0
272
9
273
9
  0
DICTIONARY
  5
2D
330
A
100
AcDbDictionary
280
1
281
1
  3
CREATED_BY_EZDXF
350
2E
  3
WRITTEN_BY_EZDXF
350
180
  0
DICTIONARYVAR
  5
2E
330
2D
100
DictionaryVariables
280
0
  1
1.4.4 @ 2026-09-03T21:20:41.337073+00:00
  0
DICTIONARYVAR
  5
180
330
2D
100
DictionaryVariables
280
0
  1
1.4.4 @ 2026-09-03T21:20:43.303766+00:00
  0
ENDSEC
  0
EOF
