G04*
G04 #@! TF.GenerationSoftware,Altium Limited,Altium Designer,26.7.1 (11)*
G04*
G04 Layer_Color=8388736*
G04 Board_Origin=422609843|264714566*
%FSLAX24Y24*%
%MOIN*%
G70*
G04*
G04 #@! TF.SameCoordinates,7BDDE0EE-6D33-46FE-A339-9ACF8A6A1794*
G04*
G04*
G04 #@! TF.FilePolarity,Negative*
G04*
G01*
G75*
%ADD10C,0.1181*%
%ADD11C,0.1181*%
%ADD12C,0.0118*%
%ADD13R,0.2200X1.4000*%
%ADD14C,0.0079*%
%ADD15C,0.0059*%
%ADD16C,0.0047*%
%ADD17C,0.0098*%
%ADD18R,0.0315X0.0315*%
%ADD19R,0.0197X0.0197*%
%ADD20R,0.0315X0.0689*%
%ADD21R,0.0315X0.0217*%
%ADD22R,0.0378X0.0799*%
%ADD23R,0.0315X0.0315*%
%ADD24R,0.0472X0.0197*%
%ADD25R,0.1024X0.2283*%
%ADD26R,0.0197X0.0472*%
%ADD27R,0.0217X0.0315*%
%ADD28R,0.0906X0.0906*%
%ADD29R,0.0335X0.0157*%
%ADD30R,0.0157X0.0335*%
%ADD31R,0.0398X0.0398*%
%ADD32R,0.0728X0.0677*%
%ADD33R,0.0472X0.0394*%
%ADD34R,1.1728X0.5780*%
%ADD35R,0.1142X0.1142*%
%ADD36R,0.0413X0.0217*%
%ADD37R,0.0217X0.0413*%
%ADD38R,0.0398X0.0398*%
%ADD39R,0.0413X0.0197*%
%ADD40R,0.0394X0.0236*%
%ADD41R,0.0669X0.0472*%
%ADD42R,0.0768X0.1063*%
%ADD43R,0.0492X0.0591*%
%ADD44R,0.0394X0.0472*%
%ADD45R,0.0551X0.0787*%
%ADD46R,0.0768X0.0689*%
%ADD47R,0.1437X0.1437*%
%ADD48R,0.0413X0.0157*%
%ADD49R,0.0374X0.0787*%
%ADD50R,0.0335X0.0709*%
%ADD51R,0.0282X0.0503*%
%ADD52R,0.0906X0.0906*%
%ADD53R,0.0315X0.0571*%
%ADD54R,0.1063X0.0768*%
%ADD55R,0.0472X0.0669*%
%ADD56R,0.0236X0.0394*%
%ADD57R,0.0335X0.0433*%
%ADD58R,0.0197X0.0413*%
%ADD59R,0.0827X0.0433*%
%ADD60P,0.0445X4X188.0*%
%ADD61R,0.0354X0.0197*%
%ADD62R,0.1201X0.1201*%
%ADD63R,0.0374X0.0197*%
%ADD64R,0.0571X0.0315*%
%ADD65R,0.0472X0.0748*%
%ADD66R,0.0197X0.0374*%
%ADD67R,0.0413X0.0197*%
%ADD68R,0.1339X0.1339*%
%ADD69R,0.0394X0.0419*%
%ADD70C,0.0163*%
%ADD71R,0.0394X0.0177*%
%ADD72R,0.0768X0.1043*%
%ADD73R,0.0236X0.0276*%
%ADD74R,0.2047X0.2441*%
%ADD75R,0.0827X0.2283*%
%ADD76R,0.0157X0.0413*%
%ADD77R,0.0433X0.0394*%
%ADD78R,0.0197X0.0197*%
%ADD79R,0.0709X0.0472*%
%ADD80C,0.0276*%
%ADD81R,0.0167X0.0503*%
%ADD82R,0.1024X0.0551*%
%ADD83R,0.1575X0.0610*%
%ADD84R,0.0354X0.0244*%
%ADD85R,0.0827X0.1339*%
%ADD86R,0.0768X0.0945*%
%ADD87R,0.0291X0.0244*%
%ADD88R,0.0315X0.0787*%
%ADD89R,0.0443X0.0433*%
%ADD90C,0.0994*%
%ADD91C,0.1260*%
%ADD92C,0.0866*%
%ADD93O,0.0630X0.0866*%
%ADD94O,0.0444X0.0916*%
%ADD95O,0.0444X0.0759*%
%ADD96C,0.0433*%
G36*
X16200Y37400D02*
X12000D01*
Y38600D01*
X16200D01*
Y37400D01*
D02*
G37*
G36*
X27669Y35682D02*
X26917D01*
Y36694D01*
X27669D01*
Y35682D01*
D02*
G37*
G36*
X37300Y12433D02*
X37300Y12396D01*
X37286Y12324D01*
X37258Y12256D01*
X37217Y12195D01*
X37191Y12169D01*
X35626Y13734D01*
X35556Y13804D01*
X35447Y13968D01*
X35372Y14150D01*
X35333Y14343D01*
Y14441D01*
Y14441D01*
Y20001D01*
X33532Y22196D01*
X37300D01*
X37300Y12433D01*
D02*
G37*
G36*
X37191Y12169D02*
X37191D01*
X37191D01*
D01*
D02*
G37*
G36*
X5400Y37400D02*
X5398Y37402D01*
X1181D01*
Y1177D01*
X46850D01*
Y37402D01*
X46849Y37400D01*
X26500D01*
Y38578D01*
X48032D01*
Y-4D01*
X0Y-4D01*
Y38578D01*
X1181D01*
X5400Y38583D01*
Y37400D01*
D02*
G37*
G36*
X68100Y37300D02*
X63900D01*
Y38500D01*
X68100D01*
Y37300D01*
D02*
G37*
G36*
X89200Y12333D02*
X89200Y12296D01*
X89186Y12224D01*
X89158Y12156D01*
X89117Y12095D01*
X89091Y12069D01*
X87526Y13634D01*
X87456Y13704D01*
X87347Y13868D01*
X87272Y14050D01*
X87233Y14243D01*
Y14341D01*
Y14341D01*
Y19901D01*
X85432Y22096D01*
X89200D01*
X89200Y12333D01*
D02*
G37*
G36*
X89091Y12069D02*
X89091D01*
X89091D01*
D01*
D02*
G37*
G36*
X57300Y37300D02*
X57298Y37302D01*
X53081D01*
Y1077D01*
X95829D01*
X95892Y1085D01*
X95950Y1082D01*
X95950Y1082D01*
X96084Y1077D01*
X96352Y1088D01*
X96617Y1126D01*
X96877Y1191D01*
X97129Y1282D01*
X97370Y1398D01*
X97599Y1539D01*
X97811Y1702D01*
X98007Y1885D01*
X98182Y2088D01*
X98336Y2307D01*
X98467Y2541D01*
X98573Y2787D01*
X98654Y3042D01*
X98708Y3305D01*
X98735Y3571D01*
X98739Y3705D01*
Y3764D01*
X98750Y3822D01*
Y37302D01*
X98749Y37300D01*
X78400D01*
Y38478D01*
X99931D01*
Y-104D01*
X96192D01*
X96072Y-109D01*
X95991Y-104D01*
X51900Y-104D01*
Y38478D01*
X53081D01*
X57300Y38483D01*
Y37300D01*
D02*
G37*
D10*
X72320Y22749D02*
G03*
X71038Y24060I-1259J50D01*
G01*
X69920D02*
G03*
X73434Y25548I165J4502D01*
G01*
X71791Y30481D02*
G03*
X70693Y29918I45J-1439D01*
G01*
X83431Y22685D02*
G03*
X85006Y22447I1445J4239D01*
G01*
X77472Y31842D02*
G03*
X76294Y31162I45J-1437D01*
G01*
X82455Y7641D02*
G03*
X83124Y10980I-3688J2476D01*
G01*
X85979Y9258D02*
G03*
X81340Y4619I0J-4640D01*
G01*
X67464Y22731D02*
G03*
X66081Y24302I-1477J94D01*
G01*
X99348Y26654D02*
G03*
X95508Y30493I-3840J0D01*
G01*
X77923Y486D02*
G03*
X81338Y3699I196J3213D01*
G01*
X52502Y3705D02*
G03*
X55918Y492I3219J0D01*
G01*
X67718Y29355D02*
G03*
X65863Y27480I26J-1881D01*
G01*
X67457Y13947D02*
G03*
X66435Y14954I-1007J0D01*
G01*
D02*
G03*
X67457Y15961I15J1007D01*
G01*
X70493Y3699D02*
G03*
X73909Y486I3219J0D01*
G01*
X78649Y25504D02*
G03*
X76936Y26434I-2126J-1872D01*
G01*
X86970Y22450D02*
G03*
X89087Y23939I314J1803D01*
G01*
X67077Y486D02*
G03*
X70493Y3699I196J3213D01*
G01*
X95508Y30493D02*
G03*
X99344Y34333I-3J3840D01*
G01*
X63983Y24304D02*
G03*
X61600Y22201I-140J-2243D01*
G01*
X67464Y21022D02*
G03*
X68478Y19969I1033J-19D01*
G01*
X87233Y17563D02*
G03*
X82423Y22940I-5753J-308D01*
G01*
X90682Y30496D02*
G03*
X89087Y28892I5J-1599D01*
G01*
X69595Y29355D02*
G03*
X70693Y29918I-45J1439D01*
G01*
X89087Y23939D02*
G03*
X90779Y22448I1592J101D01*
G01*
X63947Y27189D02*
G03*
X58663Y22279I-187J-5097D01*
G01*
X90878Y22450D02*
G03*
X89087Y20678I-10J-1782D01*
G01*
X89087Y14640D02*
G03*
X90928Y11395I3929J84D01*
G01*
X86427Y30496D02*
G03*
X85006Y31842I-1384J-37D01*
G01*
X62067Y9263D02*
G03*
X60655Y12604I-4177J204D01*
G01*
X92990Y10348D02*
G03*
X95490Y9263I2572J2502D01*
G01*
X52502Y13103D02*
G03*
X56342Y9263I3840J0D01*
G01*
X99348Y18567D02*
G03*
X95508Y22407I-3840J0D01*
G01*
X95914Y492D02*
G03*
X99329Y3705I196J3213D01*
G01*
X95490Y9263D02*
G03*
X99329Y13103I0J3840D01*
G01*
X75116Y30482D02*
G03*
X76294Y31162I-45J1437D01*
G01*
X68478Y19969D02*
G03*
X67456Y18963I-15J-1007D01*
G01*
X87235Y14883D02*
G03*
X90479Y11432I3347J-104D01*
G01*
X67457Y11185D02*
G03*
X68475Y8025I4671J-239D01*
G01*
X92978Y10347D02*
G03*
X90479Y11432I-2572J-2502D01*
G01*
X95508Y22407D02*
G03*
X99344Y26247I-3J3840D01*
G01*
X99329Y5423D02*
G03*
X95490Y9263I-3840J0D01*
G01*
X61600Y17431D02*
G03*
X64242Y14954I2559J83D01*
G01*
X83113Y18839D02*
G03*
X81958Y19990I-1151J0D01*
G01*
X58660Y17258D02*
G03*
X60655Y12604I6580J67D01*
G01*
X89087Y28901D02*
G03*
X87446Y30496I-1618J-23D01*
G01*
X65520Y9249D02*
G03*
X67457Y11185I0J1936D01*
G01*
X83113Y11195D02*
G03*
X85049Y9259I1936J0D01*
G01*
X70492Y3773D02*
G03*
X65002Y9263I-5490J0D01*
G01*
X56342D02*
G03*
X52502Y5423I0J-3840D01*
G01*
X81338Y3699D02*
G03*
X84754Y486I3219J0D01*
G01*
X78040Y26430D02*
G03*
X82423Y22940I6398J3536D01*
G01*
X26140Y26530D02*
G03*
X30523Y23040I6398J3536D01*
G01*
X29438Y3799D02*
G03*
X32854Y586I3219J0D01*
G01*
X4442Y9363D02*
G03*
X602Y5523I0J-3840D01*
G01*
X18592Y3873D02*
G03*
X13102Y9363I-5490J0D01*
G01*
X31213Y11295D02*
G03*
X33149Y9359I1936J0D01*
G01*
X13620Y9349D02*
G03*
X15557Y11285I0J1936D01*
G01*
X37187Y29001D02*
G03*
X35546Y30596I-1618J-23D01*
G01*
X6760Y17358D02*
G03*
X8755Y12704I6580J67D01*
G01*
X31213Y18939D02*
G03*
X30058Y20090I-1151J0D01*
G01*
X9700Y17531D02*
G03*
X12342Y15054I2559J83D01*
G01*
X47429Y5523D02*
G03*
X43590Y9363I-3840J0D01*
G01*
X43608Y22507D02*
G03*
X47444Y26347I-3J3840D01*
G01*
X41078Y10447D02*
G03*
X38579Y11532I-2572J-2502D01*
G01*
X15557Y11285D02*
G03*
X16575Y8125I4671J-239D01*
G01*
X35335Y14983D02*
G03*
X38579Y11532I3347J-104D01*
G01*
X16578Y20069D02*
G03*
X15556Y19063I-15J-1007D01*
G01*
X23216Y30582D02*
G03*
X24394Y31262I-45J1437D01*
G01*
X43590Y9363D02*
G03*
X47429Y13203I0J3840D01*
G01*
X44014Y592D02*
G03*
X47429Y3805I196J3213D01*
G01*
X47448Y18667D02*
G03*
X43608Y22507I-3840J0D01*
G01*
X602Y13203D02*
G03*
X4442Y9363I3840J0D01*
G01*
X41090Y10448D02*
G03*
X43590Y9363I2572J2502D01*
G01*
X10167D02*
G03*
X8755Y12704I-4177J204D01*
G01*
X34527Y30596D02*
G03*
X33106Y31942I-1384J-37D01*
G01*
X37187Y14740D02*
G03*
X39028Y11495I3929J84D01*
G01*
X38978Y22550D02*
G03*
X37187Y20778I-10J-1782D01*
G01*
X12047Y27289D02*
G03*
X6763Y22379I-187J-5097D01*
G01*
X37187Y24039D02*
G03*
X38879Y22548I1592J101D01*
G01*
X17695Y29455D02*
G03*
X18793Y30018I-45J1439D01*
G01*
X38782Y30596D02*
G03*
X37187Y28992I5J-1599D01*
G01*
X35333Y17663D02*
G03*
X30523Y23040I-5753J-308D01*
G01*
X15564Y21122D02*
G03*
X16578Y20069I1033J-19D01*
G01*
X12083Y24404D02*
G03*
X9700Y22301I-140J-2243D01*
G01*
X43608Y30593D02*
G03*
X47444Y34433I-3J3840D01*
G01*
X15177Y586D02*
G03*
X18593Y3799I196J3213D01*
G01*
X35070Y22550D02*
G03*
X37187Y24039I314J1803D01*
G01*
X26749Y25604D02*
G03*
X25036Y26534I-2126J-1872D01*
G01*
X18593Y3799D02*
G03*
X22009Y586I3219J0D01*
G01*
X14535Y15054D02*
G03*
X15557Y16061I15J1007D01*
G01*
Y14047D02*
G03*
X14535Y15054I-1007J0D01*
G01*
X15818Y29455D02*
G03*
X13963Y27580I26J-1881D01*
G01*
X602Y3805D02*
G03*
X4018Y592I3219J0D01*
G01*
X26023Y586D02*
G03*
X29438Y3799I196J3213D01*
G01*
X47448Y26754D02*
G03*
X43608Y30593I-3840J0D01*
G01*
X15564Y22831D02*
G03*
X14181Y24402I-1477J94D01*
G01*
X34079Y9358D02*
G03*
X29440Y4719I0J-4640D01*
G01*
X30555Y7741D02*
G03*
X31224Y11080I-3688J2476D01*
G01*
X25572Y31942D02*
G03*
X24394Y31262I45J-1437D01*
G01*
X31531Y22785D02*
G03*
X33106Y22547I1445J4239D01*
G01*
X19891Y30581D02*
G03*
X18793Y30018I45J-1439D01*
G01*
X18020Y24160D02*
G03*
X21534Y25648I165J4502D01*
G01*
X20420Y22849D02*
G03*
X19138Y24160I-1259J50D01*
G01*
X69920Y24060D02*
X71038D01*
X72848Y23175D02*
Y24056D01*
X73434Y22755D02*
Y25548D01*
X72320Y22749D02*
X73434Y22755D01*
X52884Y8475D02*
X53672Y9263D01*
X52884Y8163D02*
Y8475D01*
X98234Y22351D02*
X98733Y22849D01*
X98554Y21712D02*
Y22032D01*
Y9514D02*
Y9834D01*
X98234Y9195D02*
X98554Y9514D01*
Y8557D02*
Y8876D01*
X98852Y10132D02*
X98947D01*
X71806Y19990D02*
X81958Y19990D01*
X89087Y20678D02*
Y26716D01*
Y14640D02*
Y20678D01*
X67457Y11925D02*
X67457Y18963D01*
X67457Y11185D02*
Y11925D01*
X83113Y11935D02*
Y18839D01*
Y11195D02*
Y11935D01*
X93965Y22409D02*
X99334D01*
X76936Y26434D02*
X77980D01*
X84194Y22450D02*
X91817Y22450D01*
X87233Y17563D02*
X87235Y14883D01*
X86427Y30496D02*
X93965Y30496D01*
X98733Y22849D02*
Y23118D01*
Y30936D02*
Y31205D01*
X64242Y14954D02*
X66465Y14954D01*
X67464Y19090D02*
Y20405D01*
X89087Y28892D02*
Y30496D01*
X93965D02*
X99334D01*
X98554Y29799D02*
Y30118D01*
X61600Y19875D02*
Y22201D01*
X63985Y24302D02*
X66081D01*
X61600Y17431D02*
Y19875D01*
X70492Y706D02*
Y3773D01*
X81340Y706D02*
Y4623D01*
X67718Y29355D02*
X69595D01*
X65863Y27206D02*
Y27480D01*
X63847Y27192D02*
X65849D01*
X67464Y20405D02*
Y22731D01*
X58663Y17108D02*
Y22279D01*
X53475Y9935D02*
X53672Y9738D01*
X84004Y31842D02*
X85006D01*
X64429Y9263D02*
X65002D01*
X85049Y9259D02*
X90300Y9263D01*
X56342Y9263D02*
X62067Y9263D01*
X53672Y9263D02*
Y9738D01*
X71791Y30481D02*
X75116D01*
X76212Y31044D02*
X76213Y31044D01*
X77472Y31842D02*
X84101D01*
X98554Y9834D02*
X98852Y10132D01*
X98234Y9195D02*
X98554Y8876D01*
X46334Y9295D02*
X46654Y8976D01*
Y9934D02*
X46952Y10232D01*
X25572Y31942D02*
X32201D01*
X24312Y31144D02*
X24313Y31144D01*
X19891Y30581D02*
X23216D01*
X1772Y9363D02*
Y9838D01*
X4442Y9363D02*
X10167Y9363D01*
X33149Y9359D02*
X38400Y9363D01*
X12529Y9363D02*
X13102D01*
X32104Y31942D02*
X33106D01*
X1575Y10035D02*
X1772Y9838D01*
X6763Y17208D02*
Y22379D01*
X15564Y20505D02*
Y22831D01*
X11947Y27292D02*
X13949D01*
X13963Y27306D02*
Y27580D01*
X15818Y29455D02*
X17695D01*
X29440Y806D02*
Y4723D01*
X18592Y806D02*
Y3873D01*
X9700Y17531D02*
Y19975D01*
X12085Y24402D02*
X14181D01*
X9700Y19975D02*
Y22301D01*
X46654Y29899D02*
Y30218D01*
X42065Y30596D02*
X47434D01*
X37187Y28992D02*
Y30596D01*
X15564Y19190D02*
Y20505D01*
X12342Y15054D02*
X14565Y15054D01*
X46833Y31036D02*
Y31305D01*
Y22949D02*
Y23218D01*
X34527Y30596D02*
X42065Y30596D01*
X35333Y17663D02*
X35335Y14983D01*
X32294Y22550D02*
X39917Y22550D01*
X25036Y26534D02*
X26080D01*
X42065Y22509D02*
X47434D01*
X31213Y11295D02*
Y12035D01*
Y18939D01*
X15557Y11285D02*
Y12025D01*
X15557Y19063D01*
X37187Y14740D02*
Y20778D01*
Y20778D02*
Y26816D01*
X19906Y20090D02*
X30058Y20090D01*
X46952Y10232D02*
X47047D01*
X46654Y8657D02*
Y8976D01*
X46334Y9295D02*
X46654Y9614D01*
Y9934D01*
Y21812D02*
Y22132D01*
X46334Y22451D02*
X46833Y22949D01*
X984Y8263D02*
Y8575D01*
X1772Y9363D01*
X20420Y22849D02*
X21534Y22855D01*
Y25648D01*
X20948Y23275D02*
Y24156D01*
X18020Y24160D02*
X19138D01*
D11*
X82304Y37400D02*
G03*
X82304Y37400I-286J0D01*
G01*
X58606Y19290D02*
G03*
X58606Y19290I-210J0D01*
G01*
X61119Y26712D02*
G03*
X61119Y26712I-219J0D01*
G01*
X68483Y19972D02*
G03*
X68483Y19972I-232J0D01*
G01*
X55542Y37892D02*
G03*
X52491Y34743I49J-3100D01*
G01*
X88345Y8980D02*
G03*
X88345Y8980I-289J0D01*
G01*
X99341Y34743D02*
G03*
X96290Y37892I-3100J49D01*
G01*
X82998Y8797D02*
G03*
X82998Y8797I-147J0D01*
G01*
X67526Y10343D02*
G03*
X67526Y10343I-142J0D01*
G01*
X58616Y19290D02*
G03*
X58616Y19290I-220J0D01*
G01*
X6716Y19390D02*
G03*
X6716Y19390I-220J0D01*
G01*
X15626Y10443D02*
G03*
X15626Y10443I-142J0D01*
G01*
X31098Y8897D02*
G03*
X31098Y8897I-147J0D01*
G01*
X47441Y34843D02*
G03*
X44390Y37992I-3100J49D01*
G01*
X36445Y9080D02*
G03*
X36445Y9080I-289J0D01*
G01*
X3642Y37992D02*
G03*
X591Y34843I49J-3100D01*
G01*
X16583Y20072D02*
G03*
X16583Y20072I-232J0D01*
G01*
X9219Y26812D02*
G03*
X9219Y26812I-219J0D01*
G01*
X6706Y19390D02*
G03*
X6706Y19390I-210J0D01*
G01*
X30404Y37500D02*
G03*
X30404Y37500I-286J0D01*
G01*
D12*
X19868Y-20359D02*
Y-21068D01*
X19631Y-20359D02*
X20104D01*
X20357Y-20595D02*
X20289Y-20629D01*
X20222Y-20697D01*
X20188Y-20798D01*
Y-20865D01*
X20222Y-20967D01*
X20289Y-21034D01*
X20357Y-21068D01*
X20458D01*
X20526Y-21034D01*
X20593Y-20967D01*
X20627Y-20865D01*
Y-20798D01*
X20593Y-20697D01*
X20526Y-20629D01*
X20458Y-20595D01*
X20357D01*
X20782D02*
Y-21304D01*
Y-20697D02*
X20849Y-20629D01*
X20917Y-20595D01*
X21018D01*
X21086Y-20629D01*
X21153Y-20697D01*
X21187Y-20798D01*
Y-20865D01*
X21153Y-20967D01*
X21086Y-21034D01*
X21018Y-21068D01*
X20917D01*
X20849Y-21034D01*
X20782Y-20967D01*
X22368Y-20460D02*
X22300Y-20393D01*
X22199Y-20359D01*
X22064D01*
X21963Y-20393D01*
X21895Y-20460D01*
Y-20528D01*
X21929Y-20595D01*
X21963Y-20629D01*
X22030Y-20663D01*
X22233Y-20730D01*
X22300Y-20764D01*
X22334Y-20798D01*
X22368Y-20865D01*
Y-20967D01*
X22300Y-21034D01*
X22199Y-21068D01*
X22064D01*
X21963Y-21034D01*
X21895Y-20967D01*
X22695Y-20595D02*
X22627Y-20629D01*
X22560Y-20697D01*
X22526Y-20798D01*
Y-20865D01*
X22560Y-20967D01*
X22627Y-21034D01*
X22695Y-21068D01*
X22796D01*
X22864Y-21034D01*
X22931Y-20967D01*
X22965Y-20865D01*
Y-20798D01*
X22931Y-20697D01*
X22864Y-20629D01*
X22796Y-20595D01*
X22695D01*
X23120Y-20359D02*
Y-21068D01*
X23673Y-20359D02*
Y-21068D01*
Y-20697D02*
X23606Y-20629D01*
X23538Y-20595D01*
X23437D01*
X23370Y-20629D01*
X23302Y-20697D01*
X23268Y-20798D01*
Y-20865D01*
X23302Y-20967D01*
X23370Y-21034D01*
X23437Y-21068D01*
X23538D01*
X23606Y-21034D01*
X23673Y-20967D01*
X23862Y-20798D02*
X24267D01*
Y-20730D01*
X24233Y-20663D01*
X24200Y-20629D01*
X24132Y-20595D01*
X24031D01*
X23963Y-20629D01*
X23896Y-20697D01*
X23862Y-20798D01*
Y-20865D01*
X23896Y-20967D01*
X23963Y-21034D01*
X24031Y-21068D01*
X24132D01*
X24200Y-21034D01*
X24267Y-20967D01*
X24419Y-20595D02*
Y-21068D01*
Y-20798D02*
X24453Y-20697D01*
X24520Y-20629D01*
X24588Y-20595D01*
X24689D01*
X25310Y-20494D02*
X25377Y-20460D01*
X25478Y-20359D01*
Y-21068D01*
D13*
X2500Y26952D02*
D03*
D14*
X0Y38583D02*
X48032D01*
X0Y0D02*
Y38583D01*
X48032D02*
X48032Y0D01*
X0D02*
X48032D01*
X9883Y-20754D02*
X9827Y-20698D01*
X9743Y-20670D01*
X9630D01*
X9546Y-20698D01*
X9490Y-20754D01*
Y-20810D01*
X9518Y-20866D01*
X9546Y-20894D01*
X9602Y-20923D01*
X9771Y-20979D01*
X9827Y-21007D01*
X9855Y-21035D01*
X9883Y-21091D01*
Y-21176D01*
X9827Y-21232D01*
X9743Y-21260D01*
X9630D01*
X9546Y-21232D01*
X9490Y-21176D01*
X10016Y-20670D02*
Y-21260D01*
Y-20670D02*
X10409Y-21260D01*
Y-20670D02*
Y-21260D01*
X11022D02*
X10797Y-20670D01*
X10572Y-21260D01*
X10657Y-21063D02*
X10938D01*
X8543Y-22262D02*
X8498Y-22217D01*
X8430Y-22195D01*
X8340D01*
X8273Y-22217D01*
X8228Y-22262D01*
Y-22307D01*
X8250Y-22352D01*
X8273Y-22375D01*
X8318Y-22397D01*
X8453Y-22442D01*
X8498Y-22465D01*
X8520Y-22487D01*
X8543Y-22532D01*
Y-22600D01*
X8498Y-22645D01*
X8430Y-22667D01*
X8340D01*
X8273Y-22645D01*
X8228Y-22600D01*
X8648Y-22195D02*
Y-22667D01*
Y-22195D02*
X8963Y-22667D01*
Y-22195D02*
Y-22667D01*
X9454D02*
X9274Y-22195D01*
X9094Y-22667D01*
X9161Y-22510D02*
X9386D01*
D15*
X24093Y-23061D02*
Y-21880D01*
X14812Y-21880D02*
Y-19518D01*
Y-21772D02*
Y-20591D01*
X30275Y-20699D02*
X41388D01*
X30275Y-21880D02*
Y-20699D01*
X38031Y-23061D02*
Y-21880D01*
Y-20699D01*
Y-20699D02*
Y-19518D01*
X-4567Y-23849D02*
X38543D01*
X6062D02*
Y-19518D01*
X22322Y-23061D02*
X38543D01*
X28700Y-23061D02*
Y-21880D01*
X33425Y-23061D02*
Y-21880D01*
X6062Y-21880D02*
X38543D01*
X-4567Y-19518D02*
X38543D01*
X-4567Y-23848D02*
Y-19518D01*
X30275Y-20699D02*
Y-19518D01*
X6062Y-23061D02*
X22401D01*
X49655Y-23849D02*
Y-19518D01*
X38542D02*
X49655D01*
X38542Y-20699D02*
X49655D01*
X38542Y-21880D02*
X49655D01*
X38542Y-23061D02*
X49655D01*
X38542Y-23849D02*
X49655D01*
X31388Y-22707D02*
Y-22274D01*
X31532Y-22418D01*
X31676Y-22274D01*
Y-22707D01*
X31821Y-22274D02*
Y-22707D01*
X32109D01*
X35797Y-22746D02*
Y-22313D01*
X35942Y-22457D01*
X36086Y-22313D01*
Y-22746D01*
X36230Y-22313D02*
Y-22746D01*
X36519D01*
D16*
X46759Y-23389D02*
X46725Y-23356D01*
X46674Y-23339D01*
X46607D01*
X46556Y-23356D01*
X46523Y-23389D01*
Y-23423D01*
X46539Y-23457D01*
X46556Y-23474D01*
X46590Y-23491D01*
X46691Y-23524D01*
X46725Y-23541D01*
X46742Y-23558D01*
X46759Y-23592D01*
Y-23642D01*
X46725Y-23676D01*
X46674Y-23693D01*
X46607D01*
X46556Y-23676D01*
X46523Y-23642D01*
X46838Y-23339D02*
Y-23693D01*
Y-23339D02*
X47074Y-23693D01*
Y-23339D02*
Y-23693D01*
X47442D02*
X47307Y-23339D01*
X47172Y-23693D01*
X47223Y-23575D02*
X47391D01*
X47541Y-23659D02*
X47525Y-23676D01*
X47541Y-23693D01*
X47558Y-23676D01*
X47541Y-23659D01*
X47636Y-23524D02*
X47788D01*
X47838Y-23508D01*
X47855Y-23491D01*
X47872Y-23457D01*
Y-23406D01*
X47855Y-23373D01*
X47838Y-23356D01*
X47788Y-23339D01*
X47636D01*
Y-23693D01*
X48154Y-23508D02*
X48120Y-23474D01*
X48086Y-23457D01*
X48036D01*
X48002Y-23474D01*
X47968Y-23508D01*
X47951Y-23558D01*
Y-23592D01*
X47968Y-23642D01*
X48002Y-23676D01*
X48036Y-23693D01*
X48086D01*
X48120Y-23676D01*
X48154Y-23642D01*
X48230Y-23339D02*
Y-23693D01*
Y-23508D02*
X48263Y-23474D01*
X48297Y-23457D01*
X48348D01*
X48382Y-23474D01*
X48415Y-23508D01*
X48432Y-23558D01*
Y-23592D01*
X48415Y-23642D01*
X48382Y-23676D01*
X48348Y-23693D01*
X48297D01*
X48263Y-23676D01*
X48230Y-23642D01*
X48508Y-23339D02*
Y-23693D01*
Y-23339D02*
X48626D01*
X48677Y-23356D01*
X48710Y-23389D01*
X48727Y-23423D01*
X48744Y-23474D01*
Y-23558D01*
X48727Y-23609D01*
X48710Y-23642D01*
X48677Y-23676D01*
X48626Y-23693D01*
X48508D01*
X48908Y-23457D02*
X48874Y-23474D01*
X48840Y-23508D01*
X48824Y-23558D01*
Y-23592D01*
X48840Y-23642D01*
X48874Y-23676D01*
X48908Y-23693D01*
X48958D01*
X48992Y-23676D01*
X49026Y-23642D01*
X49043Y-23592D01*
Y-23558D01*
X49026Y-23508D01*
X48992Y-23474D01*
X48958Y-23457D01*
X48908D01*
X49323Y-23508D02*
X49289Y-23474D01*
X49255Y-23457D01*
X49205D01*
X49171Y-23474D01*
X49137Y-23508D01*
X49120Y-23558D01*
Y-23592D01*
X49137Y-23642D01*
X49171Y-23676D01*
X49205Y-23693D01*
X49255D01*
X49289Y-23676D01*
X49323Y-23642D01*
X33971Y-20027D02*
X33933Y-19989D01*
X33877Y-19971D01*
X33802D01*
X33746Y-19989D01*
X33708Y-20027D01*
Y-20064D01*
X33727Y-20102D01*
X33746Y-20120D01*
X33783Y-20139D01*
X33896Y-20177D01*
X33933Y-20195D01*
X33952Y-20214D01*
X33971Y-20252D01*
Y-20308D01*
X33933Y-20345D01*
X33877Y-20364D01*
X33802D01*
X33746Y-20345D01*
X33708Y-20308D01*
X34059Y-19971D02*
Y-20364D01*
Y-19971D02*
X34321Y-20364D01*
Y-19971D02*
Y-20364D01*
X34730D02*
X34580Y-19971D01*
X34430Y-20364D01*
X34486Y-20233D02*
X34673D01*
X33773Y-21105D02*
X33717Y-21124D01*
X33680Y-21180D01*
X33661Y-21274D01*
Y-21330D01*
X33680Y-21424D01*
X33717Y-21480D01*
X33773Y-21499D01*
X33811D01*
X33867Y-21480D01*
X33905Y-21424D01*
X33923Y-21330D01*
Y-21274D01*
X33905Y-21180D01*
X33867Y-21124D01*
X33811Y-21105D01*
X33773D01*
X34049D02*
X34255D01*
X34143Y-21255D01*
X34199D01*
X34236Y-21274D01*
X34255Y-21292D01*
X34274Y-21349D01*
Y-21386D01*
X34255Y-21442D01*
X34218Y-21480D01*
X34161Y-21499D01*
X34105D01*
X34049Y-21480D01*
X34030Y-21461D01*
X34011Y-21424D01*
X34381Y-21461D02*
X34362Y-21480D01*
X34381Y-21499D01*
X34399Y-21480D01*
X34381Y-21461D01*
X34598Y-21105D02*
X34542Y-21124D01*
X34504Y-21180D01*
X34486Y-21274D01*
Y-21330D01*
X34504Y-21424D01*
X34542Y-21480D01*
X34598Y-21499D01*
X34636D01*
X34692Y-21480D01*
X34729Y-21424D01*
X34748Y-21330D01*
Y-21274D01*
X34729Y-21180D01*
X34692Y-21124D01*
X34636Y-21105D01*
X34598D01*
X35080Y-21236D02*
X35061Y-21292D01*
X35024Y-21330D01*
X34967Y-21349D01*
X34949D01*
X34892Y-21330D01*
X34855Y-21292D01*
X34836Y-21236D01*
Y-21217D01*
X34855Y-21161D01*
X34892Y-21124D01*
X34949Y-21105D01*
X34967D01*
X35024Y-21124D01*
X35061Y-21161D01*
X35080Y-21236D01*
Y-21330D01*
X35061Y-21424D01*
X35024Y-21480D01*
X34967Y-21499D01*
X34930D01*
X34874Y-21480D01*
X34855Y-21442D01*
X35205Y-21461D02*
X35187Y-21480D01*
X35205Y-21499D01*
X35224Y-21480D01*
X35205Y-21461D01*
X35329Y-21199D02*
Y-21180D01*
X35348Y-21142D01*
X35367Y-21124D01*
X35404Y-21105D01*
X35479D01*
X35516Y-21124D01*
X35535Y-21142D01*
X35554Y-21180D01*
Y-21217D01*
X35535Y-21255D01*
X35498Y-21311D01*
X35310Y-21499D01*
X35573D01*
X35773Y-21105D02*
X35717Y-21124D01*
X35680Y-21180D01*
X35661Y-21274D01*
Y-21330D01*
X35680Y-21424D01*
X35717Y-21480D01*
X35773Y-21499D01*
X35811D01*
X35867Y-21480D01*
X35904Y-21424D01*
X35923Y-21330D01*
Y-21274D01*
X35904Y-21180D01*
X35867Y-21124D01*
X35811Y-21105D01*
X35773D01*
X36030Y-21199D02*
Y-21180D01*
X36049Y-21142D01*
X36068Y-21124D01*
X36105Y-21105D01*
X36180D01*
X36217Y-21124D01*
X36236Y-21142D01*
X36255Y-21180D01*
Y-21217D01*
X36236Y-21255D01*
X36199Y-21311D01*
X36011Y-21499D01*
X36274D01*
X36587Y-21161D02*
X36568Y-21124D01*
X36512Y-21105D01*
X36474D01*
X36418Y-21124D01*
X36381Y-21180D01*
X36362Y-21274D01*
Y-21367D01*
X36381Y-21442D01*
X36418Y-21480D01*
X36474Y-21499D01*
X36493D01*
X36549Y-21480D01*
X36587Y-21442D01*
X36605Y-21386D01*
Y-21367D01*
X36587Y-21311D01*
X36549Y-21274D01*
X36493Y-21255D01*
X36474D01*
X36418Y-21274D01*
X36381Y-21311D01*
X36362Y-21367D01*
X31036Y-21105D02*
Y-21499D01*
Y-21105D02*
X31167D01*
X31223Y-21124D01*
X31261Y-21161D01*
X31279Y-21199D01*
X31298Y-21255D01*
Y-21349D01*
X31279Y-21405D01*
X31261Y-21442D01*
X31223Y-21480D01*
X31167Y-21499D01*
X31036D01*
X31611Y-21236D02*
Y-21499D01*
Y-21292D02*
X31574Y-21255D01*
X31536Y-21236D01*
X31480D01*
X31442Y-21255D01*
X31405Y-21292D01*
X31386Y-21349D01*
Y-21386D01*
X31405Y-21442D01*
X31442Y-21480D01*
X31480Y-21499D01*
X31536D01*
X31574Y-21480D01*
X31611Y-21442D01*
X31772Y-21105D02*
Y-21424D01*
X31791Y-21480D01*
X31829Y-21499D01*
X31866D01*
X31716Y-21236D02*
X31847D01*
X31922Y-21349D02*
X32147D01*
Y-21311D01*
X32128Y-21274D01*
X32110Y-21255D01*
X32072Y-21236D01*
X32016D01*
X31978Y-21255D01*
X31941Y-21292D01*
X31922Y-21349D01*
Y-21386D01*
X31941Y-21442D01*
X31978Y-21480D01*
X32016Y-21499D01*
X32072D01*
X32110Y-21480D01*
X32147Y-21442D01*
X32250Y-21236D02*
X32232Y-21255D01*
X32250Y-21274D01*
X32269Y-21255D01*
X32250Y-21236D01*
Y-21461D02*
X32232Y-21480D01*
X32250Y-21499D01*
X32269Y-21480D01*
X32250Y-21461D01*
X-4029Y-20923D02*
X-4066Y-20885D01*
X-4123Y-20866D01*
X-4198D01*
X-4254Y-20885D01*
X-4291Y-20923D01*
Y-20960D01*
X-4273Y-20998D01*
X-4254Y-21016D01*
X-4216Y-21035D01*
X-4104Y-21073D01*
X-4066Y-21091D01*
X-4048Y-21110D01*
X-4029Y-21148D01*
Y-21204D01*
X-4066Y-21241D01*
X-4123Y-21260D01*
X-4198D01*
X-4254Y-21241D01*
X-4291Y-21204D01*
X-3941Y-20998D02*
Y-21391D01*
Y-21054D02*
X-3903Y-21016D01*
X-3866Y-20998D01*
X-3810D01*
X-3772Y-21016D01*
X-3735Y-21054D01*
X-3716Y-21110D01*
Y-21148D01*
X-3735Y-21204D01*
X-3772Y-21241D01*
X-3810Y-21260D01*
X-3866D01*
X-3903Y-21241D01*
X-3941Y-21204D01*
X-3407Y-20998D02*
Y-21260D01*
Y-21054D02*
X-3444Y-21016D01*
X-3482Y-20998D01*
X-3538D01*
X-3575Y-21016D01*
X-3613Y-21054D01*
X-3632Y-21110D01*
Y-21148D01*
X-3613Y-21204D01*
X-3575Y-21241D01*
X-3538Y-21260D01*
X-3482D01*
X-3444Y-21241D01*
X-3407Y-21204D01*
X-3077Y-21054D02*
X-3114Y-21016D01*
X-3152Y-20998D01*
X-3208D01*
X-3245Y-21016D01*
X-3283Y-21054D01*
X-3302Y-21110D01*
Y-21148D01*
X-3283Y-21204D01*
X-3245Y-21241D01*
X-3208Y-21260D01*
X-3152D01*
X-3114Y-21241D01*
X-3077Y-21204D01*
X-2992Y-21110D02*
X-2767D01*
Y-21073D01*
X-2786Y-21035D01*
X-2805Y-21016D01*
X-2842Y-20998D01*
X-2899D01*
X-2936Y-21016D01*
X-2974Y-21054D01*
X-2992Y-21110D01*
Y-21148D01*
X-2974Y-21204D01*
X-2936Y-21241D01*
X-2899Y-21260D01*
X-2842D01*
X-2805Y-21241D01*
X-2767Y-21204D01*
X-2627Y-20866D02*
Y-21185D01*
X-2608Y-21241D01*
X-2571Y-21260D01*
X-2533D01*
X-2683Y-20998D02*
X-2552D01*
X-2477Y-21110D02*
X-2252D01*
Y-21073D01*
X-2271Y-21035D01*
X-2290Y-21016D01*
X-2327Y-20998D01*
X-2383D01*
X-2421Y-21016D01*
X-2458Y-21054D01*
X-2477Y-21110D01*
Y-21148D01*
X-2458Y-21204D01*
X-2421Y-21241D01*
X-2383Y-21260D01*
X-2327D01*
X-2290Y-21241D01*
X-2252Y-21204D01*
X-2168Y-20866D02*
Y-21260D01*
X-1980Y-20998D02*
X-2168Y-21185D01*
X-2093Y-21110D02*
X-1962Y-21260D01*
X-1862Y-21241D02*
X-1881Y-21260D01*
X-1900Y-21241D01*
X-1881Y-21223D01*
X-1862Y-21241D01*
Y-21279D01*
X-1881Y-21316D01*
X-1900Y-21335D01*
X-1186Y-20960D02*
X-1204Y-20923D01*
X-1242Y-20885D01*
X-1279Y-20866D01*
X-1354D01*
X-1392Y-20885D01*
X-1429Y-20923D01*
X-1448Y-20960D01*
X-1467Y-21016D01*
Y-21110D01*
X-1448Y-21166D01*
X-1429Y-21204D01*
X-1392Y-21241D01*
X-1354Y-21260D01*
X-1279D01*
X-1242Y-21241D01*
X-1204Y-21204D01*
X-1186Y-21166D01*
Y-21110D01*
X-1279D02*
X-1186D01*
X-1096Y-20960D02*
Y-20941D01*
X-1077Y-20904D01*
X-1058Y-20885D01*
X-1021Y-20866D01*
X-946D01*
X-908Y-20885D01*
X-889Y-20904D01*
X-871Y-20941D01*
Y-20979D01*
X-889Y-21016D01*
X-908Y-21035D01*
X-983Y-21073D01*
Y-21129D01*
Y-21223D02*
X-1002Y-21241D01*
X-983Y-21260D01*
X-964Y-21241D01*
X-983Y-21223D01*
X-786Y-20998D02*
Y-21260D01*
Y-21073D02*
X-730Y-21016D01*
X-693Y-20998D01*
X-636D01*
X-599Y-21016D01*
X-580Y-21073D01*
Y-21260D01*
Y-21073D02*
X-524Y-21016D01*
X-486Y-20998D01*
X-430D01*
X-393Y-21016D01*
X-374Y-21073D01*
Y-21260D01*
X-250Y-20866D02*
Y-21260D01*
X-130Y-20866D02*
X-112Y-20885D01*
X-93Y-20866D01*
X-112Y-20848D01*
X-130Y-20866D01*
X-112Y-20998D02*
Y-21260D01*
X202Y-20998D02*
Y-21297D01*
X183Y-21354D01*
X164Y-21372D01*
X127Y-21391D01*
X70D01*
X33Y-21372D01*
X202Y-21054D02*
X164Y-21016D01*
X127Y-20998D01*
X70D01*
X33Y-21016D01*
X-5Y-21054D01*
X-23Y-21110D01*
Y-21148D01*
X-5Y-21204D01*
X33Y-21241D01*
X70Y-21260D01*
X127D01*
X164Y-21241D01*
X202Y-21204D01*
X306Y-21110D02*
X531D01*
Y-21073D01*
X513Y-21035D01*
X494Y-21016D01*
X456Y-20998D01*
X400D01*
X363Y-21016D01*
X325Y-21054D01*
X306Y-21110D01*
Y-21148D01*
X325Y-21204D01*
X363Y-21241D01*
X400Y-21260D01*
X456D01*
X494Y-21241D01*
X531Y-21204D01*
X616Y-20998D02*
Y-21260D01*
Y-21073D02*
X672Y-21016D01*
X709Y-20998D01*
X766D01*
X803Y-21016D01*
X822Y-21073D01*
Y-21260D01*
X-4010Y-21708D02*
X-4029Y-21671D01*
X-4066Y-21633D01*
X-4104Y-21614D01*
X-4179D01*
X-4216Y-21633D01*
X-4254Y-21671D01*
X-4273Y-21708D01*
X-4291Y-21764D01*
Y-21858D01*
X-4273Y-21914D01*
X-4254Y-21952D01*
X-4216Y-21989D01*
X-4179Y-22008D01*
X-4104D01*
X-4066Y-21989D01*
X-4029Y-21952D01*
X-4010Y-21914D01*
Y-21858D01*
X-4104D02*
X-4010D01*
X-3883Y-21614D02*
X-3864Y-21633D01*
X-3845Y-21614D01*
X-3864Y-21596D01*
X-3883Y-21614D01*
X-3864Y-21746D02*
Y-22008D01*
X-3776Y-21614D02*
Y-22008D01*
Y-21802D02*
X-3738Y-21764D01*
X-3701Y-21746D01*
X-3645D01*
X-3607Y-21764D01*
X-3570Y-21802D01*
X-3551Y-21858D01*
Y-21896D01*
X-3570Y-21952D01*
X-3607Y-21989D01*
X-3645Y-22008D01*
X-3701D01*
X-3738Y-21989D01*
X-3776Y-21952D01*
X-3467Y-21614D02*
Y-22008D01*
Y-21802D02*
X-3429Y-21764D01*
X-3392Y-21746D01*
X-3335D01*
X-3298Y-21764D01*
X-3260Y-21802D01*
X-3242Y-21858D01*
Y-21896D01*
X-3260Y-21952D01*
X-3298Y-21989D01*
X-3335Y-22008D01*
X-3392D01*
X-3429Y-21989D01*
X-3467Y-21952D01*
X-3120Y-21989D02*
X-3139Y-22008D01*
X-3157Y-21989D01*
X-3139Y-21971D01*
X-3120Y-21989D01*
Y-22027D01*
X-3139Y-22064D01*
X-3157Y-22083D01*
X-2724Y-21614D02*
Y-22008D01*
Y-21614D02*
X-2556D01*
X-2499Y-21633D01*
X-2481Y-21652D01*
X-2462Y-21689D01*
Y-21727D01*
X-2481Y-21764D01*
X-2499Y-21783D01*
X-2556Y-21802D01*
X-2724D02*
X-2556D01*
X-2499Y-21821D01*
X-2481Y-21839D01*
X-2462Y-21877D01*
Y-21933D01*
X-2481Y-21971D01*
X-2499Y-21989D01*
X-2556Y-22008D01*
X-2724D01*
X-2374Y-21858D02*
X-2149D01*
Y-21821D01*
X-2168Y-21783D01*
X-2186Y-21764D01*
X-2224Y-21746D01*
X-2280D01*
X-2318Y-21764D01*
X-2355Y-21802D01*
X-2374Y-21858D01*
Y-21896D01*
X-2355Y-21952D01*
X-2318Y-21989D01*
X-2280Y-22008D01*
X-2224D01*
X-2186Y-21989D01*
X-2149Y-21952D01*
X-2065Y-21746D02*
Y-22008D01*
Y-21858D02*
X-2046Y-21802D01*
X-2008Y-21764D01*
X-1971Y-21746D01*
X-1915D01*
X-1879D02*
Y-22008D01*
Y-21821D02*
X-1823Y-21764D01*
X-1785Y-21746D01*
X-1729D01*
X-1692Y-21764D01*
X-1673Y-21821D01*
Y-22008D01*
X9488Y-20010D02*
X9657D01*
X9713Y-19991D01*
X9732Y-19972D01*
X9751Y-19935D01*
Y-19878D01*
X9732Y-19841D01*
X9713Y-19822D01*
X9657Y-19803D01*
X9488D01*
Y-20197D01*
X9839Y-19935D02*
Y-20197D01*
Y-20047D02*
X9857Y-19991D01*
X9895Y-19953D01*
X9932Y-19935D01*
X9989D01*
X10118D02*
X10080Y-19953D01*
X10043Y-19991D01*
X10024Y-20047D01*
Y-20085D01*
X10043Y-20141D01*
X10080Y-20178D01*
X10118Y-20197D01*
X10174D01*
X10212Y-20178D01*
X10249Y-20141D01*
X10268Y-20085D01*
Y-20047D01*
X10249Y-19991D01*
X10212Y-19953D01*
X10174Y-19935D01*
X10118D01*
X10429Y-19803D02*
X10448Y-19822D01*
X10467Y-19803D01*
X10448Y-19785D01*
X10429Y-19803D01*
X10448Y-19935D02*
Y-20253D01*
X10429Y-20309D01*
X10392Y-20328D01*
X10354D01*
X10540Y-20047D02*
X10765D01*
Y-20010D01*
X10746Y-19972D01*
X10727Y-19953D01*
X10690Y-19935D01*
X10633D01*
X10596Y-19953D01*
X10558Y-19991D01*
X10540Y-20047D01*
Y-20085D01*
X10558Y-20141D01*
X10596Y-20178D01*
X10633Y-20197D01*
X10690D01*
X10727Y-20178D01*
X10765Y-20141D01*
X11074Y-19991D02*
X11036Y-19953D01*
X10999Y-19935D01*
X10943D01*
X10905Y-19953D01*
X10868Y-19991D01*
X10849Y-20047D01*
Y-20085D01*
X10868Y-20141D01*
X10905Y-20178D01*
X10943Y-20197D01*
X10999D01*
X11036Y-20178D01*
X11074Y-20141D01*
X11214Y-19803D02*
Y-20122D01*
X11233Y-20178D01*
X11271Y-20197D01*
X11308D01*
X11158Y-19935D02*
X11289D01*
X11383D02*
X11364Y-19953D01*
X11383Y-19972D01*
X11402Y-19953D01*
X11383Y-19935D01*
Y-20160D02*
X11364Y-20178D01*
X11383Y-20197D01*
X11402Y-20178D01*
X11383Y-20160D01*
X30669Y-19912D02*
Y-20305D01*
Y-19912D02*
X30931Y-20305D01*
Y-19912D02*
Y-20305D01*
X31040Y-20043D02*
Y-20230D01*
X31059Y-20286D01*
X31096Y-20305D01*
X31152D01*
X31190Y-20286D01*
X31246Y-20230D01*
Y-20043D02*
Y-20305D01*
X31349Y-20043D02*
Y-20305D01*
Y-20118D02*
X31405Y-20061D01*
X31443Y-20043D01*
X31499D01*
X31537Y-20061D01*
X31555Y-20118D01*
Y-20305D01*
Y-20118D02*
X31612Y-20061D01*
X31649Y-20043D01*
X31705D01*
X31743Y-20061D01*
X31761Y-20118D01*
Y-20305D01*
X31885Y-19912D02*
Y-20305D01*
Y-20099D02*
X31923Y-20061D01*
X31960Y-20043D01*
X32016D01*
X32054Y-20061D01*
X32091Y-20099D01*
X32110Y-20155D01*
Y-20193D01*
X32091Y-20249D01*
X32054Y-20286D01*
X32016Y-20305D01*
X31960D01*
X31923Y-20286D01*
X31885Y-20249D01*
X32194Y-20155D02*
X32419D01*
Y-20118D01*
X32401Y-20080D01*
X32382Y-20061D01*
X32344Y-20043D01*
X32288D01*
X32251Y-20061D01*
X32213Y-20099D01*
X32194Y-20155D01*
Y-20193D01*
X32213Y-20249D01*
X32251Y-20286D01*
X32288Y-20305D01*
X32344D01*
X32382Y-20286D01*
X32419Y-20249D01*
X32504Y-20043D02*
Y-20305D01*
Y-20155D02*
X32522Y-20099D01*
X32560Y-20061D01*
X32597Y-20043D01*
X32654D01*
X32708D02*
X32689Y-20061D01*
X32708Y-20080D01*
X32727Y-20061D01*
X32708Y-20043D01*
Y-20268D02*
X32689Y-20286D01*
X32708Y-20305D01*
X32727Y-20286D01*
X32708Y-20268D01*
X6259Y-22274D02*
Y-22667D01*
Y-22274D02*
X6409Y-22667D01*
X6559Y-22274D02*
X6409Y-22667D01*
X6559Y-22274D02*
Y-22667D01*
X6765Y-22405D02*
X6728Y-22424D01*
X6690Y-22461D01*
X6672Y-22517D01*
Y-22555D01*
X6690Y-22611D01*
X6728Y-22649D01*
X6765Y-22667D01*
X6822D01*
X6859Y-22649D01*
X6897Y-22611D01*
X6915Y-22555D01*
Y-22517D01*
X6897Y-22461D01*
X6859Y-22424D01*
X6822Y-22405D01*
X6765D01*
X7226Y-22274D02*
Y-22667D01*
Y-22461D02*
X7189Y-22424D01*
X7151Y-22405D01*
X7095D01*
X7058Y-22424D01*
X7020Y-22461D01*
X7002Y-22517D01*
Y-22555D01*
X7020Y-22611D01*
X7058Y-22649D01*
X7095Y-22667D01*
X7151D01*
X7189Y-22649D01*
X7226Y-22611D01*
X7331Y-22517D02*
X7556D01*
Y-22480D01*
X7538Y-22442D01*
X7519Y-22424D01*
X7481Y-22405D01*
X7425D01*
X7388Y-22424D01*
X7350Y-22461D01*
X7331Y-22517D01*
Y-22555D01*
X7350Y-22611D01*
X7388Y-22649D01*
X7425Y-22667D01*
X7481D01*
X7519Y-22649D01*
X7556Y-22611D01*
X7641Y-22274D02*
Y-22667D01*
X7742Y-22405D02*
X7723Y-22424D01*
X7742Y-22442D01*
X7761Y-22424D01*
X7742Y-22405D01*
Y-22630D02*
X7723Y-22649D01*
X7742Y-22667D01*
X7761Y-22649D01*
X7742Y-22630D01*
X29173Y-22234D02*
Y-22628D01*
Y-22234D02*
X29304D01*
X29360Y-22253D01*
X29398Y-22291D01*
X29416Y-22328D01*
X29435Y-22384D01*
Y-22478D01*
X29416Y-22534D01*
X29398Y-22572D01*
X29360Y-22609D01*
X29304Y-22628D01*
X29173D01*
X29523Y-22478D02*
X29748D01*
Y-22441D01*
X29729Y-22403D01*
X29711Y-22384D01*
X29673Y-22366D01*
X29617D01*
X29579Y-22384D01*
X29542Y-22422D01*
X29523Y-22478D01*
Y-22515D01*
X29542Y-22572D01*
X29579Y-22609D01*
X29617Y-22628D01*
X29673D01*
X29711Y-22609D01*
X29748Y-22572D01*
X30039Y-22422D02*
X30020Y-22384D01*
X29964Y-22366D01*
X29907D01*
X29851Y-22384D01*
X29832Y-22422D01*
X29851Y-22459D01*
X29889Y-22478D01*
X29982Y-22497D01*
X30020Y-22515D01*
X30039Y-22553D01*
Y-22572D01*
X30020Y-22609D01*
X29964Y-22628D01*
X29907D01*
X29851Y-22609D01*
X29832Y-22572D01*
X30159Y-22234D02*
X30177Y-22253D01*
X30196Y-22234D01*
X30177Y-22216D01*
X30159Y-22234D01*
X30177Y-22366D02*
Y-22628D01*
X30490Y-22366D02*
Y-22665D01*
X30472Y-22722D01*
X30453Y-22740D01*
X30415Y-22759D01*
X30359D01*
X30322Y-22740D01*
X30490Y-22422D02*
X30453Y-22384D01*
X30415Y-22366D01*
X30359D01*
X30322Y-22384D01*
X30284Y-22422D01*
X30265Y-22478D01*
Y-22515D01*
X30284Y-22572D01*
X30322Y-22609D01*
X30359Y-22628D01*
X30415D01*
X30453Y-22609D01*
X30490Y-22572D01*
X30595Y-22366D02*
Y-22628D01*
Y-22441D02*
X30652Y-22384D01*
X30689Y-22366D01*
X30745D01*
X30783Y-22384D01*
X30801Y-22441D01*
Y-22628D01*
X30923Y-22366D02*
X30905Y-22384D01*
X30923Y-22403D01*
X30942Y-22384D01*
X30923Y-22366D01*
Y-22590D02*
X30905Y-22609D01*
X30923Y-22628D01*
X30942Y-22609D01*
X30923Y-22590D01*
X34099Y-22407D02*
X34081Y-22369D01*
X34043Y-22332D01*
X34006Y-22313D01*
X33931D01*
X33893Y-22332D01*
X33856Y-22369D01*
X33837Y-22407D01*
X33818Y-22463D01*
Y-22557D01*
X33837Y-22613D01*
X33856Y-22650D01*
X33893Y-22688D01*
X33931Y-22707D01*
X34006D01*
X34043Y-22688D01*
X34081Y-22650D01*
X34099Y-22613D01*
X34210Y-22313D02*
Y-22707D01*
Y-22519D02*
X34266Y-22463D01*
X34304Y-22444D01*
X34360D01*
X34398Y-22463D01*
X34416Y-22519D01*
Y-22707D01*
X34519Y-22557D02*
X34744D01*
Y-22519D01*
X34726Y-22482D01*
X34707Y-22463D01*
X34669Y-22444D01*
X34613D01*
X34576Y-22463D01*
X34538Y-22501D01*
X34519Y-22557D01*
Y-22594D01*
X34538Y-22650D01*
X34576Y-22688D01*
X34613Y-22707D01*
X34669D01*
X34707Y-22688D01*
X34744Y-22650D01*
X35054Y-22501D02*
X35016Y-22463D01*
X34979Y-22444D01*
X34922D01*
X34885Y-22463D01*
X34847Y-22501D01*
X34829Y-22557D01*
Y-22594D01*
X34847Y-22650D01*
X34885Y-22688D01*
X34922Y-22707D01*
X34979D01*
X35016Y-22688D01*
X35054Y-22650D01*
X35138Y-22313D02*
Y-22707D01*
X35325Y-22444D02*
X35138Y-22632D01*
X35213Y-22557D02*
X35344Y-22707D01*
X35425Y-22444D02*
X35406Y-22463D01*
X35425Y-22482D01*
X35443Y-22463D01*
X35425Y-22444D01*
Y-22669D02*
X35406Y-22688D01*
X35425Y-22707D01*
X35443Y-22688D01*
X35425Y-22669D01*
X24645Y-22313D02*
X24795Y-22707D01*
X24945Y-22313D02*
X24795Y-22707D01*
X24996Y-22557D02*
X25221D01*
Y-22519D01*
X25202Y-22482D01*
X25183Y-22463D01*
X25146Y-22444D01*
X25089D01*
X25052Y-22463D01*
X25014Y-22501D01*
X24996Y-22557D01*
Y-22594D01*
X25014Y-22650D01*
X25052Y-22688D01*
X25089Y-22707D01*
X25146D01*
X25183Y-22688D01*
X25221Y-22650D01*
X25305Y-22444D02*
Y-22707D01*
Y-22557D02*
X25324Y-22501D01*
X25361Y-22463D01*
X25399Y-22444D01*
X25455D01*
X25697Y-22501D02*
X25678Y-22463D01*
X25622Y-22444D01*
X25565D01*
X25509Y-22463D01*
X25490Y-22501D01*
X25509Y-22538D01*
X25547Y-22557D01*
X25640Y-22576D01*
X25678Y-22594D01*
X25697Y-22632D01*
Y-22650D01*
X25678Y-22688D01*
X25622Y-22707D01*
X25565D01*
X25509Y-22688D01*
X25490Y-22650D01*
X25817Y-22313D02*
X25835Y-22332D01*
X25854Y-22313D01*
X25835Y-22294D01*
X25817Y-22313D01*
X25835Y-22444D02*
Y-22707D01*
X26017Y-22444D02*
X25980Y-22463D01*
X25942Y-22501D01*
X25923Y-22557D01*
Y-22594D01*
X25942Y-22650D01*
X25980Y-22688D01*
X26017Y-22707D01*
X26073D01*
X26111Y-22688D01*
X26148Y-22650D01*
X26167Y-22594D01*
Y-22557D01*
X26148Y-22501D01*
X26111Y-22463D01*
X26073Y-22444D01*
X26017D01*
X26253D02*
Y-22707D01*
Y-22519D02*
X26310Y-22463D01*
X26347Y-22444D01*
X26403D01*
X26441Y-22463D01*
X26459Y-22519D01*
Y-22707D01*
X26581Y-22444D02*
X26563Y-22463D01*
X26581Y-22482D01*
X26600Y-22463D01*
X26581Y-22444D01*
Y-22669D02*
X26563Y-22688D01*
X26581Y-22707D01*
X26600Y-22688D01*
X26581Y-22669D01*
X21835Y-20197D02*
X21685Y-19803D01*
X21535Y-20197D01*
X21592Y-20066D02*
X21779D01*
X21927Y-19935D02*
Y-20197D01*
Y-20047D02*
X21946Y-19991D01*
X21983Y-19953D01*
X22021Y-19935D01*
X22077D01*
X22169Y-19803D02*
Y-20122D01*
X22188Y-20178D01*
X22225Y-20197D01*
X22263D01*
X22113Y-19935D02*
X22244D01*
X22319D02*
X22394Y-20197D01*
X22469Y-19935D02*
X22394Y-20197D01*
X22469Y-19935D02*
X22544Y-20197D01*
X22619Y-19935D02*
X22544Y-20197D01*
X22804Y-19935D02*
X22767Y-19953D01*
X22729Y-19991D01*
X22711Y-20047D01*
Y-20085D01*
X22729Y-20141D01*
X22767Y-20178D01*
X22804Y-20197D01*
X22861D01*
X22898Y-20178D01*
X22936Y-20141D01*
X22954Y-20085D01*
Y-20047D01*
X22936Y-19991D01*
X22898Y-19953D01*
X22861Y-19935D01*
X22804D01*
X23041D02*
Y-20197D01*
Y-20047D02*
X23059Y-19991D01*
X23097Y-19953D01*
X23134Y-19935D01*
X23191D01*
X23226Y-19803D02*
Y-20197D01*
X23414Y-19935D02*
X23226Y-20122D01*
X23301Y-20047D02*
X23432Y-20197D01*
X23513Y-19935D02*
X23494Y-19953D01*
X23513Y-19972D01*
X23532Y-19953D01*
X23513Y-19935D01*
Y-20160D02*
X23494Y-20178D01*
X23513Y-20197D01*
X23532Y-20178D01*
X23513Y-20160D01*
X41628Y-22313D02*
X41571Y-22332D01*
X41534Y-22388D01*
X41515Y-22482D01*
Y-22538D01*
X41534Y-22632D01*
X41571Y-22688D01*
X41628Y-22707D01*
X41665D01*
X41721Y-22688D01*
X41759Y-22632D01*
X41778Y-22538D01*
Y-22482D01*
X41759Y-22388D01*
X41721Y-22332D01*
X41665Y-22313D01*
X41628D01*
X41903D02*
X42109D01*
X41997Y-22463D01*
X42053D01*
X42091Y-22482D01*
X42109Y-22501D01*
X42128Y-22557D01*
Y-22594D01*
X42109Y-22651D01*
X42072Y-22688D01*
X42016Y-22707D01*
X41959D01*
X41903Y-22688D01*
X41884Y-22669D01*
X41866Y-22632D01*
X42235Y-22669D02*
X42216Y-22688D01*
X42235Y-22707D01*
X42254Y-22688D01*
X42235Y-22669D01*
X42452Y-22313D02*
X42396Y-22332D01*
X42359Y-22388D01*
X42340Y-22482D01*
Y-22538D01*
X42359Y-22632D01*
X42396Y-22688D01*
X42452Y-22707D01*
X42490D01*
X42546Y-22688D01*
X42584Y-22632D01*
X42602Y-22538D01*
Y-22482D01*
X42584Y-22388D01*
X42546Y-22332D01*
X42490Y-22313D01*
X42452D01*
X42934Y-22444D02*
X42915Y-22501D01*
X42878Y-22538D01*
X42822Y-22557D01*
X42803D01*
X42747Y-22538D01*
X42709Y-22501D01*
X42690Y-22444D01*
Y-22426D01*
X42709Y-22369D01*
X42747Y-22332D01*
X42803Y-22313D01*
X42822D01*
X42878Y-22332D01*
X42915Y-22369D01*
X42934Y-22444D01*
Y-22538D01*
X42915Y-22632D01*
X42878Y-22688D01*
X42822Y-22707D01*
X42784D01*
X42728Y-22688D01*
X42709Y-22651D01*
X43060Y-22669D02*
X43041Y-22688D01*
X43060Y-22707D01*
X43078Y-22688D01*
X43060Y-22669D01*
X43183Y-22407D02*
Y-22388D01*
X43202Y-22351D01*
X43221Y-22332D01*
X43258Y-22313D01*
X43333D01*
X43371Y-22332D01*
X43390Y-22351D01*
X43408Y-22388D01*
Y-22426D01*
X43390Y-22463D01*
X43352Y-22519D01*
X43165Y-22707D01*
X43427D01*
X43628Y-22313D02*
X43571Y-22332D01*
X43534Y-22388D01*
X43515Y-22482D01*
Y-22538D01*
X43534Y-22632D01*
X43571Y-22688D01*
X43628Y-22707D01*
X43665D01*
X43721Y-22688D01*
X43759Y-22632D01*
X43778Y-22538D01*
Y-22482D01*
X43759Y-22388D01*
X43721Y-22332D01*
X43665Y-22313D01*
X43628D01*
X43884Y-22407D02*
Y-22388D01*
X43903Y-22351D01*
X43922Y-22332D01*
X43959Y-22313D01*
X44034D01*
X44072Y-22332D01*
X44091Y-22351D01*
X44109Y-22388D01*
Y-22426D01*
X44091Y-22463D01*
X44053Y-22519D01*
X43866Y-22707D01*
X44128D01*
X44441Y-22369D02*
X44422Y-22332D01*
X44366Y-22313D01*
X44329D01*
X44272Y-22332D01*
X44235Y-22388D01*
X44216Y-22482D01*
Y-22576D01*
X44235Y-22651D01*
X44272Y-22688D01*
X44329Y-22707D01*
X44347D01*
X44404Y-22688D01*
X44441Y-22651D01*
X44460Y-22594D01*
Y-22576D01*
X44441Y-22519D01*
X44404Y-22482D01*
X44347Y-22463D01*
X44329D01*
X44272Y-22482D01*
X44235Y-22519D01*
X44216Y-22576D01*
X38198Y-22519D02*
X38367D01*
X38423Y-22501D01*
X38442Y-22482D01*
X38461Y-22444D01*
Y-22388D01*
X38442Y-22351D01*
X38423Y-22332D01*
X38367Y-22313D01*
X38198D01*
Y-22707D01*
X38549Y-22444D02*
Y-22707D01*
Y-22557D02*
X38568Y-22501D01*
X38605Y-22463D01*
X38642Y-22444D01*
X38699D01*
X38772Y-22313D02*
X38791Y-22332D01*
X38809Y-22313D01*
X38791Y-22294D01*
X38772Y-22313D01*
X38791Y-22444D02*
Y-22707D01*
X38879Y-22444D02*
Y-22707D01*
Y-22519D02*
X38935Y-22463D01*
X38972Y-22444D01*
X39029D01*
X39066Y-22463D01*
X39085Y-22519D01*
Y-22707D01*
X39244Y-22313D02*
Y-22632D01*
X39263Y-22688D01*
X39300Y-22707D01*
X39338D01*
X39188Y-22444D02*
X39319D01*
X39703Y-22313D02*
Y-22707D01*
Y-22313D02*
X39835D01*
X39891Y-22332D01*
X39928Y-22369D01*
X39947Y-22407D01*
X39966Y-22463D01*
Y-22557D01*
X39947Y-22613D01*
X39928Y-22651D01*
X39891Y-22688D01*
X39835Y-22707D01*
X39703D01*
X40279Y-22444D02*
Y-22707D01*
Y-22501D02*
X40241Y-22463D01*
X40204Y-22444D01*
X40148D01*
X40110Y-22463D01*
X40073Y-22501D01*
X40054Y-22557D01*
Y-22594D01*
X40073Y-22651D01*
X40110Y-22688D01*
X40148Y-22707D01*
X40204D01*
X40241Y-22688D01*
X40279Y-22651D01*
X40440Y-22313D02*
Y-22632D01*
X40459Y-22688D01*
X40496Y-22707D01*
X40534D01*
X40384Y-22444D02*
X40515D01*
X40590Y-22557D02*
X40815D01*
Y-22519D01*
X40796Y-22482D01*
X40777Y-22463D01*
X40740Y-22444D01*
X40684D01*
X40646Y-22463D01*
X40609Y-22501D01*
X40590Y-22557D01*
Y-22594D01*
X40609Y-22651D01*
X40646Y-22688D01*
X40684Y-22707D01*
X40740D01*
X40777Y-22688D01*
X40815Y-22651D01*
X40918Y-22444D02*
X40899Y-22463D01*
X40918Y-22482D01*
X40937Y-22463D01*
X40918Y-22444D01*
Y-22669D02*
X40899Y-22688D01*
X40918Y-22707D01*
X40937Y-22688D01*
X40918Y-22669D01*
X41728Y-21053D02*
X41541Y-21447D01*
X41466Y-21053D02*
X41728D01*
X42079D02*
X41891Y-21447D01*
X41816Y-21053D02*
X42079D01*
X42167D02*
Y-21447D01*
Y-21241D02*
X42204Y-21203D01*
X42242Y-21185D01*
X42298D01*
X42336Y-21203D01*
X42373Y-21241D01*
X42392Y-21297D01*
Y-21335D01*
X42373Y-21391D01*
X42336Y-21428D01*
X42298Y-21447D01*
X42242D01*
X42204Y-21428D01*
X42167Y-21391D01*
X42701Y-21053D02*
Y-21447D01*
Y-21241D02*
X42664Y-21203D01*
X42626Y-21185D01*
X42570D01*
X42532Y-21203D01*
X42495Y-21241D01*
X42476Y-21297D01*
Y-21335D01*
X42495Y-21391D01*
X42532Y-21428D01*
X42570Y-21447D01*
X42626D01*
X42664Y-21428D01*
X42701Y-21391D01*
X43050Y-21185D02*
X43031Y-21241D01*
X42994Y-21278D01*
X42937Y-21297D01*
X42919D01*
X42862Y-21278D01*
X42825Y-21241D01*
X42806Y-21185D01*
Y-21166D01*
X42825Y-21110D01*
X42862Y-21072D01*
X42919Y-21053D01*
X42937D01*
X42994Y-21072D01*
X43031Y-21110D01*
X43050Y-21185D01*
Y-21278D01*
X43031Y-21372D01*
X42994Y-21428D01*
X42937Y-21447D01*
X42900D01*
X42844Y-21428D01*
X42825Y-21391D01*
X43382Y-21241D02*
X43344Y-21203D01*
X43307Y-21185D01*
X43250D01*
X43213Y-21203D01*
X43175Y-21241D01*
X43157Y-21297D01*
Y-21335D01*
X43175Y-21391D01*
X43213Y-21428D01*
X43250Y-21447D01*
X43307D01*
X43344Y-21428D01*
X43382Y-21391D01*
X43653Y-21053D02*
X43466Y-21316D01*
X43747D01*
X43653Y-21053D02*
Y-21447D01*
X43816Y-21128D02*
X43854Y-21110D01*
X43910Y-21053D01*
Y-21447D01*
X44414Y-21091D02*
Y-21466D01*
X44433Y-21091D02*
Y-21466D01*
X44414Y-21091D02*
X44508D01*
X44414Y-21466D02*
X44508D01*
X44559Y-21053D02*
Y-21447D01*
X44784D01*
X44920Y-21185D02*
X44883Y-21203D01*
X44845Y-21241D01*
X44827Y-21297D01*
Y-21335D01*
X44845Y-21391D01*
X44883Y-21428D01*
X44920Y-21447D01*
X44977D01*
X45014Y-21428D01*
X45052Y-21391D01*
X45070Y-21335D01*
Y-21297D01*
X45052Y-21241D01*
X45014Y-21203D01*
X44977Y-21185D01*
X44920D01*
X45382Y-21241D02*
X45344Y-21203D01*
X45307Y-21185D01*
X45250D01*
X45213Y-21203D01*
X45175Y-21241D01*
X45157Y-21297D01*
Y-21335D01*
X45175Y-21391D01*
X45213Y-21428D01*
X45250Y-21447D01*
X45307D01*
X45344Y-21428D01*
X45382Y-21391D01*
X45691Y-21185D02*
Y-21447D01*
Y-21241D02*
X45653Y-21203D01*
X45616Y-21185D01*
X45560D01*
X45522Y-21203D01*
X45485Y-21241D01*
X45466Y-21297D01*
Y-21335D01*
X45485Y-21391D01*
X45522Y-21428D01*
X45560Y-21447D01*
X45616D01*
X45653Y-21428D01*
X45691Y-21391D01*
X45796Y-21053D02*
Y-21447D01*
X45878Y-21053D02*
Y-21447D01*
X45979Y-21185D02*
X46092Y-21447D01*
X46204Y-21185D02*
X46092Y-21447D01*
X46054Y-21522D01*
X46017Y-21559D01*
X45979Y-21578D01*
X45961D01*
X46579Y-21053D02*
Y-21447D01*
Y-21053D02*
X46729Y-21447D01*
X46879Y-21053D02*
X46729Y-21447D01*
X46879Y-21053D02*
Y-21447D01*
X47085Y-21185D02*
X47048Y-21203D01*
X47010Y-21241D01*
X46992Y-21297D01*
Y-21335D01*
X47010Y-21391D01*
X47048Y-21428D01*
X47085Y-21447D01*
X47142D01*
X47179Y-21428D01*
X47217Y-21391D01*
X47235Y-21335D01*
Y-21297D01*
X47217Y-21241D01*
X47179Y-21203D01*
X47142Y-21185D01*
X47085D01*
X47546Y-21053D02*
Y-21447D01*
Y-21241D02*
X47509Y-21203D01*
X47471Y-21185D01*
X47415D01*
X47378Y-21203D01*
X47340Y-21241D01*
X47321Y-21297D01*
Y-21335D01*
X47340Y-21391D01*
X47378Y-21428D01*
X47415Y-21447D01*
X47471D01*
X47509Y-21428D01*
X47546Y-21391D01*
X47689Y-21053D02*
X47708Y-21072D01*
X47726Y-21053D01*
X47708Y-21035D01*
X47689Y-21053D01*
X47708Y-21185D02*
Y-21447D01*
X47946Y-21053D02*
X47908D01*
X47871Y-21072D01*
X47852Y-21128D01*
Y-21447D01*
X47796Y-21185D02*
X47927D01*
X48039Y-21053D02*
X48058Y-21072D01*
X48077Y-21053D01*
X48058Y-21035D01*
X48039Y-21053D01*
X48058Y-21185D02*
Y-21447D01*
X48146Y-21297D02*
X48371D01*
Y-21260D01*
X48352Y-21222D01*
X48334Y-21203D01*
X48296Y-21185D01*
X48240D01*
X48202Y-21203D01*
X48165Y-21241D01*
X48146Y-21297D01*
Y-21335D01*
X48165Y-21391D01*
X48202Y-21428D01*
X48240Y-21447D01*
X48296D01*
X48334Y-21428D01*
X48371Y-21391D01*
X48680Y-21053D02*
Y-21447D01*
Y-21241D02*
X48643Y-21203D01*
X48605Y-21185D01*
X48549D01*
X48512Y-21203D01*
X48474Y-21241D01*
X48455Y-21297D01*
Y-21335D01*
X48474Y-21391D01*
X48512Y-21428D01*
X48549Y-21447D01*
X48605D01*
X48643Y-21428D01*
X48680Y-21391D01*
X48860Y-21091D02*
Y-21466D01*
X48879Y-21091D02*
Y-21466D01*
X48785Y-21091D02*
X48879D01*
X48785Y-21466D02*
X48879D01*
X41564Y-19959D02*
Y-20334D01*
X41583Y-19959D02*
Y-20334D01*
X41564Y-19959D02*
X41658D01*
X41564Y-20334D02*
X41658D01*
X41709Y-19922D02*
Y-20315D01*
Y-19922D02*
X41971Y-20315D01*
Y-19922D02*
Y-20315D01*
X42174Y-20053D02*
X42136Y-20071D01*
X42099Y-20109D01*
X42080Y-20165D01*
Y-20203D01*
X42099Y-20259D01*
X42136Y-20296D01*
X42174Y-20315D01*
X42230D01*
X42267Y-20296D01*
X42305Y-20259D01*
X42324Y-20203D01*
Y-20165D01*
X42305Y-20109D01*
X42267Y-20071D01*
X42230Y-20053D01*
X42174D01*
X42719Y-19922D02*
X42869Y-20315D01*
X43019Y-19922D02*
X42869Y-20315D01*
X43294Y-20053D02*
Y-20315D01*
Y-20109D02*
X43257Y-20071D01*
X43219Y-20053D01*
X43163D01*
X43126Y-20071D01*
X43088Y-20109D01*
X43070Y-20165D01*
Y-20203D01*
X43088Y-20259D01*
X43126Y-20296D01*
X43163Y-20315D01*
X43219D01*
X43257Y-20296D01*
X43294Y-20259D01*
X43399Y-20053D02*
Y-20315D01*
Y-20165D02*
X43418Y-20109D01*
X43456Y-20071D01*
X43493Y-20053D01*
X43549D01*
X43622Y-19922D02*
X43641Y-19940D01*
X43660Y-19922D01*
X43641Y-19903D01*
X43622Y-19922D01*
X43641Y-20053D02*
Y-20315D01*
X43954Y-20053D02*
Y-20315D01*
Y-20109D02*
X43917Y-20071D01*
X43879Y-20053D01*
X43823D01*
X43786Y-20071D01*
X43748Y-20109D01*
X43729Y-20165D01*
Y-20203D01*
X43748Y-20259D01*
X43786Y-20296D01*
X43823Y-20315D01*
X43879D01*
X43917Y-20296D01*
X43954Y-20259D01*
X44115Y-19922D02*
Y-20240D01*
X44134Y-20296D01*
X44172Y-20315D01*
X44209D01*
X44059Y-20053D02*
X44190D01*
X44303Y-19922D02*
X44322Y-19940D01*
X44340Y-19922D01*
X44322Y-19903D01*
X44303Y-19922D01*
X44322Y-20053D02*
Y-20315D01*
X44503Y-20053D02*
X44466Y-20071D01*
X44428Y-20109D01*
X44410Y-20165D01*
Y-20203D01*
X44428Y-20259D01*
X44466Y-20296D01*
X44503Y-20315D01*
X44560D01*
X44597Y-20296D01*
X44635Y-20259D01*
X44653Y-20203D01*
Y-20165D01*
X44635Y-20109D01*
X44597Y-20071D01*
X44560Y-20053D01*
X44503D01*
X44740D02*
Y-20315D01*
Y-20128D02*
X44796Y-20071D01*
X44833Y-20053D01*
X44890D01*
X44927Y-20071D01*
X44946Y-20128D01*
Y-20315D01*
X45255Y-20109D02*
X45236Y-20071D01*
X45180Y-20053D01*
X45124D01*
X45068Y-20071D01*
X45049Y-20109D01*
X45068Y-20146D01*
X45105Y-20165D01*
X45199Y-20184D01*
X45236Y-20203D01*
X45255Y-20240D01*
Y-20259D01*
X45236Y-20296D01*
X45180Y-20315D01*
X45124D01*
X45068Y-20296D01*
X45049Y-20259D01*
X45412Y-19959D02*
Y-20334D01*
X45431Y-19959D02*
Y-20334D01*
X45338Y-19959D02*
X45431D01*
X45338Y-20334D02*
X45431D01*
X39286Y-21196D02*
X39268Y-21159D01*
X39230Y-21121D01*
X39193Y-21103D01*
X39118D01*
X39080Y-21121D01*
X39043Y-21159D01*
X39024Y-21196D01*
X39005Y-21253D01*
Y-21346D01*
X39024Y-21403D01*
X39043Y-21440D01*
X39080Y-21477D01*
X39118Y-21496D01*
X39193D01*
X39230Y-21477D01*
X39268Y-21440D01*
X39286Y-21403D01*
Y-21346D01*
X39193D02*
X39286D01*
X39376Y-21103D02*
Y-21496D01*
X39590Y-21103D02*
Y-21496D01*
X39459Y-21103D02*
X39721D01*
X39787Y-21234D02*
X39768Y-21253D01*
X39787Y-21271D01*
X39806Y-21253D01*
X39787Y-21234D01*
Y-21459D02*
X39768Y-21477D01*
X39787Y-21496D01*
X39806Y-21477D01*
X39787Y-21459D01*
X38592Y-19902D02*
X38742Y-20295D01*
X38892Y-19902D02*
X38742Y-20295D01*
X39167Y-20033D02*
Y-20295D01*
Y-20089D02*
X39130Y-20052D01*
X39092Y-20033D01*
X39036D01*
X38999Y-20052D01*
X38961Y-20089D01*
X38942Y-20145D01*
Y-20183D01*
X38961Y-20239D01*
X38999Y-20277D01*
X39036Y-20295D01*
X39092D01*
X39130Y-20277D01*
X39167Y-20239D01*
X39272Y-20033D02*
Y-20295D01*
Y-20145D02*
X39291Y-20089D01*
X39329Y-20052D01*
X39366Y-20033D01*
X39422D01*
X39495Y-19902D02*
X39514Y-19921D01*
X39533Y-19902D01*
X39514Y-19883D01*
X39495Y-19902D01*
X39514Y-20033D02*
Y-20295D01*
X39827Y-20033D02*
Y-20295D01*
Y-20089D02*
X39790Y-20052D01*
X39752Y-20033D01*
X39696D01*
X39658Y-20052D01*
X39621Y-20089D01*
X39602Y-20145D01*
Y-20183D01*
X39621Y-20239D01*
X39658Y-20277D01*
X39696Y-20295D01*
X39752D01*
X39790Y-20277D01*
X39827Y-20239D01*
X39932Y-20033D02*
Y-20295D01*
Y-20108D02*
X39988Y-20052D01*
X40026Y-20033D01*
X40082D01*
X40120Y-20052D01*
X40138Y-20108D01*
Y-20295D01*
X40298Y-19902D02*
Y-20220D01*
X40316Y-20277D01*
X40354Y-20295D01*
X40391D01*
X40241Y-20033D02*
X40373D01*
X40466D02*
X40448Y-20052D01*
X40466Y-20071D01*
X40485Y-20052D01*
X40466Y-20033D01*
Y-20258D02*
X40448Y-20277D01*
X40466Y-20295D01*
X40485Y-20277D01*
X40466Y-20258D01*
X1860Y-18937D02*
X2010Y-19331D01*
X2160Y-18937D02*
X2010Y-19331D01*
X2454Y-18937D02*
X2211D01*
Y-19331D01*
X2454D01*
X2211Y-19125D02*
X2361D01*
X2520Y-18937D02*
Y-19331D01*
Y-18937D02*
X2689D01*
X2745Y-18956D01*
X2764Y-18975D01*
X2782Y-19012D01*
Y-19050D01*
X2764Y-19087D01*
X2745Y-19106D01*
X2689Y-19125D01*
X2520D01*
X2651D02*
X2782Y-19331D01*
X3002Y-18937D02*
Y-19331D01*
X2871Y-18937D02*
X3133D01*
X3180D02*
Y-19331D01*
Y-18937D02*
X3348D01*
X3405Y-18956D01*
X3423Y-18975D01*
X3442Y-19012D01*
Y-19050D01*
X3423Y-19087D01*
X3405Y-19106D01*
X3348Y-19125D01*
X3180D01*
X3311D02*
X3442Y-19331D01*
X3830D02*
X3680Y-18937D01*
X3530Y-19331D01*
X3587Y-19200D02*
X3774D01*
X3922Y-18937D02*
Y-19218D01*
X3941Y-19274D01*
X3978Y-19312D01*
X4035Y-19331D01*
X4072D01*
X4128Y-19312D01*
X4166Y-19274D01*
X4184Y-19218D01*
Y-18937D01*
X4293D02*
Y-19331D01*
X4518D01*
X4561Y-18937D02*
Y-19331D01*
X4925Y-19031D02*
X4906Y-18993D01*
X4869Y-18956D01*
X4831Y-18937D01*
X4756D01*
X4719Y-18956D01*
X4681Y-18993D01*
X4662Y-19031D01*
X4644Y-19087D01*
Y-19181D01*
X4662Y-19237D01*
X4681Y-19274D01*
X4719Y-19312D01*
X4756Y-19331D01*
X4831D01*
X4869Y-19312D01*
X4906Y-19274D01*
X4925Y-19237D01*
X5035Y-18937D02*
Y-19331D01*
X5298Y-18937D02*
Y-19331D01*
X5035Y-19125D02*
X5298D01*
X5997Y-19031D02*
X5978Y-18993D01*
X5941Y-18956D01*
X5903Y-18937D01*
X5828D01*
X5791Y-18956D01*
X5753Y-18993D01*
X5735Y-19031D01*
X5716Y-19087D01*
Y-19181D01*
X5735Y-19237D01*
X5753Y-19274D01*
X5791Y-19312D01*
X5828Y-19331D01*
X5903D01*
X5941Y-19312D01*
X5978Y-19274D01*
X5997Y-19237D01*
X6220Y-18937D02*
X6183Y-18956D01*
X6145Y-18993D01*
X6126Y-19031D01*
X6108Y-19087D01*
Y-19181D01*
X6126Y-19237D01*
X6145Y-19274D01*
X6183Y-19312D01*
X6220Y-19331D01*
X6295D01*
X6332Y-19312D01*
X6370Y-19274D01*
X6389Y-19237D01*
X6407Y-19181D01*
Y-19087D01*
X6389Y-19031D01*
X6370Y-18993D01*
X6332Y-18956D01*
X6295Y-18937D01*
X6220D01*
X6499D02*
Y-19331D01*
Y-18937D02*
X6762Y-19331D01*
Y-18937D02*
Y-19331D01*
X6870Y-18937D02*
Y-19331D01*
Y-18937D02*
X7114D01*
X6870Y-19125D02*
X7020D01*
X7159Y-18937D02*
Y-19331D01*
X7242Y-18937D02*
Y-19331D01*
Y-18937D02*
X7373D01*
X7429Y-18956D01*
X7466Y-18993D01*
X7485Y-19031D01*
X7504Y-19087D01*
Y-19181D01*
X7485Y-19237D01*
X7466Y-19274D01*
X7429Y-19312D01*
X7373Y-19331D01*
X7242D01*
X7836Y-18937D02*
X7592D01*
Y-19331D01*
X7836D01*
X7592Y-19125D02*
X7742D01*
X7901Y-18937D02*
Y-19331D01*
Y-18937D02*
X8164Y-19331D01*
Y-18937D02*
Y-19331D01*
X8404Y-18937D02*
Y-19331D01*
X8272Y-18937D02*
X8535D01*
X8582D02*
Y-19331D01*
X8964D02*
X8814Y-18937D01*
X8664Y-19331D01*
X8720Y-19200D02*
X8908D01*
X9056Y-18937D02*
Y-19331D01*
X9281D01*
X9914Y-19031D02*
X9896Y-18993D01*
X9858Y-18956D01*
X9821Y-18937D01*
X9746D01*
X9708Y-18956D01*
X9671Y-18993D01*
X9652Y-19031D01*
X9633Y-19087D01*
Y-19181D01*
X9652Y-19237D01*
X9671Y-19274D01*
X9708Y-19312D01*
X9746Y-19331D01*
X9821D01*
X9858Y-19312D01*
X9896Y-19274D01*
X9914Y-19237D01*
X10119Y-19068D02*
X10081Y-19087D01*
X10044Y-19125D01*
X10025Y-19181D01*
Y-19218D01*
X10044Y-19274D01*
X10081Y-19312D01*
X10119Y-19331D01*
X10175D01*
X10212Y-19312D01*
X10250Y-19274D01*
X10269Y-19218D01*
Y-19181D01*
X10250Y-19125D01*
X10212Y-19087D01*
X10175Y-19068D01*
X10119D01*
X10355D02*
Y-19462D01*
Y-19125D02*
X10392Y-19087D01*
X10430Y-19068D01*
X10486D01*
X10524Y-19087D01*
X10561Y-19125D01*
X10580Y-19181D01*
Y-19218D01*
X10561Y-19274D01*
X10524Y-19312D01*
X10486Y-19331D01*
X10430D01*
X10392Y-19312D01*
X10355Y-19274D01*
X10683Y-19068D02*
X10795Y-19331D01*
X10908Y-19068D02*
X10795Y-19331D01*
X10758Y-19406D01*
X10720Y-19443D01*
X10683Y-19462D01*
X10664D01*
X10973Y-19068D02*
Y-19331D01*
Y-19181D02*
X10992Y-19125D01*
X11030Y-19087D01*
X11067Y-19068D01*
X11123D01*
X11196Y-18937D02*
X11215Y-18956D01*
X11234Y-18937D01*
X11215Y-18918D01*
X11196Y-18937D01*
X11215Y-19068D02*
Y-19331D01*
X11528Y-19068D02*
Y-19368D01*
X11509Y-19424D01*
X11491Y-19443D01*
X11453Y-19462D01*
X11397D01*
X11360Y-19443D01*
X11528Y-19125D02*
X11491Y-19087D01*
X11453Y-19068D01*
X11397D01*
X11360Y-19087D01*
X11322Y-19125D01*
X11303Y-19181D01*
Y-19218D01*
X11322Y-19274D01*
X11360Y-19312D01*
X11397Y-19331D01*
X11453D01*
X11491Y-19312D01*
X11528Y-19274D01*
X11633Y-18937D02*
Y-19331D01*
Y-19143D02*
X11689Y-19087D01*
X11727Y-19068D01*
X11783D01*
X11821Y-19087D01*
X11839Y-19143D01*
Y-19331D01*
X11999Y-18937D02*
Y-19256D01*
X12017Y-19312D01*
X12055Y-19331D01*
X12092D01*
X11942Y-19068D02*
X12074D01*
X12458Y-18937D02*
Y-19331D01*
Y-19125D02*
X12495Y-19087D01*
X12533Y-19068D01*
X12589D01*
X12627Y-19087D01*
X12664Y-19125D01*
X12683Y-19181D01*
Y-19218D01*
X12664Y-19274D01*
X12627Y-19312D01*
X12589Y-19331D01*
X12533D01*
X12495Y-19312D01*
X12458Y-19274D01*
X12786Y-19068D02*
X12898Y-19331D01*
X13011Y-19068D02*
X12898Y-19331D01*
X12861Y-19406D01*
X12823Y-19443D01*
X12786Y-19462D01*
X12767D01*
X13648Y-18993D02*
X13611Y-18956D01*
X13554Y-18937D01*
X13479D01*
X13423Y-18956D01*
X13386Y-18993D01*
Y-19031D01*
X13404Y-19068D01*
X13423Y-19087D01*
X13461Y-19106D01*
X13573Y-19143D01*
X13611Y-19162D01*
X13629Y-19181D01*
X13648Y-19218D01*
Y-19274D01*
X13611Y-19312D01*
X13554Y-19331D01*
X13479D01*
X13423Y-19312D01*
X13386Y-19274D01*
X13736Y-19068D02*
Y-19462D01*
Y-19125D02*
X13774Y-19087D01*
X13811Y-19068D01*
X13867D01*
X13905Y-19087D01*
X13942Y-19125D01*
X13961Y-19181D01*
Y-19218D01*
X13942Y-19274D01*
X13905Y-19312D01*
X13867Y-19331D01*
X13811D01*
X13774Y-19312D01*
X13736Y-19274D01*
X14270Y-19068D02*
Y-19331D01*
Y-19125D02*
X14233Y-19087D01*
X14195Y-19068D01*
X14139D01*
X14102Y-19087D01*
X14064Y-19125D01*
X14045Y-19181D01*
Y-19218D01*
X14064Y-19274D01*
X14102Y-19312D01*
X14139Y-19331D01*
X14195D01*
X14233Y-19312D01*
X14270Y-19274D01*
X14600Y-19125D02*
X14563Y-19087D01*
X14525Y-19068D01*
X14469D01*
X14432Y-19087D01*
X14394Y-19125D01*
X14375Y-19181D01*
Y-19218D01*
X14394Y-19274D01*
X14432Y-19312D01*
X14469Y-19331D01*
X14525D01*
X14563Y-19312D01*
X14600Y-19274D01*
X14685Y-19181D02*
X14910D01*
Y-19143D01*
X14891Y-19106D01*
X14872Y-19087D01*
X14835Y-19068D01*
X14778D01*
X14741Y-19087D01*
X14703Y-19125D01*
X14685Y-19181D01*
Y-19218D01*
X14703Y-19274D01*
X14741Y-19312D01*
X14778Y-19331D01*
X14835D01*
X14872Y-19312D01*
X14910Y-19274D01*
X15050Y-18937D02*
Y-19256D01*
X15069Y-19312D01*
X15106Y-19331D01*
X15144D01*
X14994Y-19068D02*
X15125D01*
X15200Y-19181D02*
X15425D01*
Y-19143D01*
X15406Y-19106D01*
X15388Y-19087D01*
X15350Y-19068D01*
X15294D01*
X15256Y-19087D01*
X15219Y-19125D01*
X15200Y-19181D01*
Y-19218D01*
X15219Y-19274D01*
X15256Y-19312D01*
X15294Y-19331D01*
X15350D01*
X15388Y-19312D01*
X15425Y-19274D01*
X15509Y-18937D02*
Y-19331D01*
X15697Y-19068D02*
X15509Y-19256D01*
X15584Y-19181D02*
X15716Y-19331D01*
X16218Y-18937D02*
Y-19331D01*
X16087Y-18937D02*
X16349D01*
X16396Y-19181D02*
X16621D01*
Y-19143D01*
X16602Y-19106D01*
X16583Y-19087D01*
X16546Y-19068D01*
X16490D01*
X16452Y-19087D01*
X16415Y-19125D01*
X16396Y-19181D01*
Y-19218D01*
X16415Y-19274D01*
X16452Y-19312D01*
X16490Y-19331D01*
X16546D01*
X16583Y-19312D01*
X16621Y-19274D01*
X16930Y-19125D02*
X16893Y-19087D01*
X16855Y-19068D01*
X16799D01*
X16761Y-19087D01*
X16724Y-19125D01*
X16705Y-19181D01*
Y-19218D01*
X16724Y-19274D01*
X16761Y-19312D01*
X16799Y-19331D01*
X16855D01*
X16893Y-19312D01*
X16930Y-19274D01*
X17014Y-18937D02*
Y-19331D01*
Y-19143D02*
X17071Y-19087D01*
X17108Y-19068D01*
X17164D01*
X17202Y-19087D01*
X17221Y-19143D01*
Y-19331D01*
X17324Y-19068D02*
Y-19331D01*
Y-19143D02*
X17380Y-19087D01*
X17417Y-19068D01*
X17474D01*
X17511Y-19087D01*
X17530Y-19143D01*
Y-19331D01*
X17727Y-19068D02*
X17689Y-19087D01*
X17652Y-19125D01*
X17633Y-19181D01*
Y-19218D01*
X17652Y-19274D01*
X17689Y-19312D01*
X17727Y-19331D01*
X17783D01*
X17820Y-19312D01*
X17858Y-19274D01*
X17877Y-19218D01*
Y-19181D01*
X17858Y-19125D01*
X17820Y-19087D01*
X17783Y-19068D01*
X17727D01*
X17963Y-18937D02*
Y-19331D01*
X18139Y-19068D02*
X18102Y-19087D01*
X18064Y-19125D01*
X18045Y-19181D01*
Y-19218D01*
X18064Y-19274D01*
X18102Y-19312D01*
X18139Y-19331D01*
X18195D01*
X18233Y-19312D01*
X18270Y-19274D01*
X18289Y-19218D01*
Y-19181D01*
X18270Y-19125D01*
X18233Y-19087D01*
X18195Y-19068D01*
X18139D01*
X18600D02*
Y-19368D01*
X18581Y-19424D01*
X18563Y-19443D01*
X18525Y-19462D01*
X18469D01*
X18431Y-19443D01*
X18600Y-19125D02*
X18563Y-19087D01*
X18525Y-19068D01*
X18469D01*
X18431Y-19087D01*
X18394Y-19125D01*
X18375Y-19181D01*
Y-19218D01*
X18394Y-19274D01*
X18431Y-19312D01*
X18469Y-19331D01*
X18525D01*
X18563Y-19312D01*
X18600Y-19274D01*
X18724Y-19068D02*
X18836Y-19331D01*
X18949Y-19068D02*
X18836Y-19331D01*
X18799Y-19406D01*
X18761Y-19443D01*
X18724Y-19462D01*
X18705D01*
X19624Y-19331D02*
X19474Y-18937D01*
X19324Y-19331D01*
X19380Y-19200D02*
X19567D01*
X19997Y-19031D02*
X19978Y-18993D01*
X19940Y-18956D01*
X19903Y-18937D01*
X19828D01*
X19790Y-18956D01*
X19753Y-18993D01*
X19734Y-19031D01*
X19715Y-19087D01*
Y-19181D01*
X19734Y-19237D01*
X19753Y-19274D01*
X19790Y-19312D01*
X19828Y-19331D01*
X19903D01*
X19940Y-19312D01*
X19978Y-19274D01*
X19997Y-19237D01*
Y-19181D01*
X19903D02*
X19997D01*
X20105Y-19293D02*
X20087Y-19312D01*
X20105Y-19331D01*
X20124Y-19312D01*
X20105Y-19293D01*
X20520Y-18937D02*
Y-19331D01*
Y-18937D02*
X20763D01*
X20520Y-19125D02*
X20669D01*
X20808Y-19068D02*
Y-19256D01*
X20827Y-19312D01*
X20864Y-19331D01*
X20921D01*
X20958Y-19312D01*
X21014Y-19256D01*
Y-19068D02*
Y-19331D01*
X21117Y-19181D02*
X21342D01*
Y-19143D01*
X21324Y-19106D01*
X21305Y-19087D01*
X21267Y-19068D01*
X21211D01*
X21174Y-19087D01*
X21136Y-19125D01*
X21117Y-19181D01*
Y-19218D01*
X21136Y-19274D01*
X21174Y-19312D01*
X21211Y-19331D01*
X21267D01*
X21305Y-19312D01*
X21342Y-19274D01*
X21427Y-19068D02*
Y-19331D01*
Y-19181D02*
X21445Y-19125D01*
X21483Y-19087D01*
X21520Y-19068D01*
X21577D01*
X22146Y-18937D02*
Y-19331D01*
Y-19125D02*
X22109Y-19087D01*
X22071Y-19068D01*
X22015D01*
X21978Y-19087D01*
X21940Y-19125D01*
X21922Y-19181D01*
Y-19218D01*
X21940Y-19274D01*
X21978Y-19312D01*
X22015Y-19331D01*
X22071D01*
X22109Y-19312D01*
X22146Y-19274D01*
X22289Y-18937D02*
X22308Y-18956D01*
X22326Y-18937D01*
X22308Y-18918D01*
X22289Y-18937D01*
X22308Y-19068D02*
Y-19331D01*
X22396Y-19181D02*
X22621D01*
Y-19143D01*
X22602Y-19106D01*
X22583Y-19087D01*
X22546Y-19068D01*
X22489D01*
X22452Y-19087D01*
X22415Y-19125D01*
X22396Y-19181D01*
Y-19218D01*
X22415Y-19274D01*
X22452Y-19312D01*
X22489Y-19331D01*
X22546D01*
X22583Y-19312D01*
X22621Y-19274D01*
X22911Y-19125D02*
X22892Y-19087D01*
X22836Y-19068D01*
X22780D01*
X22724Y-19087D01*
X22705Y-19125D01*
X22724Y-19162D01*
X22761Y-19181D01*
X22855Y-19200D01*
X22892Y-19218D01*
X22911Y-19256D01*
Y-19274D01*
X22892Y-19312D01*
X22836Y-19331D01*
X22780D01*
X22724Y-19312D01*
X22705Y-19274D01*
X22994Y-19181D02*
X23219D01*
Y-19143D01*
X23200Y-19106D01*
X23181Y-19087D01*
X23144Y-19068D01*
X23087D01*
X23050Y-19087D01*
X23012Y-19125D01*
X22994Y-19181D01*
Y-19218D01*
X23012Y-19274D01*
X23050Y-19312D01*
X23087Y-19331D01*
X23144D01*
X23181Y-19312D01*
X23219Y-19274D01*
X23509Y-19125D02*
X23490Y-19087D01*
X23434Y-19068D01*
X23378D01*
X23322Y-19087D01*
X23303Y-19125D01*
X23322Y-19162D01*
X23359Y-19181D01*
X23453Y-19200D01*
X23490Y-19218D01*
X23509Y-19256D01*
Y-19274D01*
X23490Y-19312D01*
X23434Y-19331D01*
X23378D01*
X23322Y-19312D01*
X23303Y-19274D01*
X23901Y-18937D02*
Y-19331D01*
Y-18937D02*
X24032D01*
X24088Y-18956D01*
X24126Y-18993D01*
X24145Y-19031D01*
X24163Y-19087D01*
Y-19181D01*
X24145Y-19237D01*
X24126Y-19274D01*
X24088Y-19312D01*
X24032Y-19331D01*
X23901D01*
X24345Y-19068D02*
X24308Y-19087D01*
X24270Y-19125D01*
X24251Y-19181D01*
Y-19218D01*
X24270Y-19274D01*
X24308Y-19312D01*
X24345Y-19331D01*
X24401D01*
X24439Y-19312D01*
X24476Y-19274D01*
X24495Y-19218D01*
Y-19181D01*
X24476Y-19125D01*
X24439Y-19087D01*
X24401Y-19068D01*
X24345D01*
X24581Y-18937D02*
Y-19331D01*
X24769Y-19068D02*
X24581Y-19256D01*
X24656Y-19181D02*
X24787Y-19331D01*
X24849Y-19068D02*
Y-19256D01*
X24868Y-19312D01*
X24906Y-19331D01*
X24962D01*
X24999Y-19312D01*
X25055Y-19256D01*
Y-19068D02*
Y-19331D01*
X25159Y-19068D02*
Y-19331D01*
Y-19143D02*
X25215Y-19087D01*
X25252Y-19068D01*
X25309D01*
X25346Y-19087D01*
X25365Y-19143D01*
Y-19331D01*
Y-19143D02*
X25421Y-19087D01*
X25458Y-19068D01*
X25515D01*
X25552Y-19087D01*
X25571Y-19143D01*
Y-19331D01*
X25695Y-19181D02*
X25920D01*
Y-19143D01*
X25901Y-19106D01*
X25882Y-19087D01*
X25845Y-19068D01*
X25788D01*
X25751Y-19087D01*
X25713Y-19125D01*
X25695Y-19181D01*
Y-19218D01*
X25713Y-19274D01*
X25751Y-19312D01*
X25788Y-19331D01*
X25845D01*
X25882Y-19312D01*
X25920Y-19274D01*
X26004Y-19068D02*
Y-19331D01*
Y-19143D02*
X26060Y-19087D01*
X26098Y-19068D01*
X26154D01*
X26191Y-19087D01*
X26210Y-19143D01*
Y-19331D01*
X26369Y-18937D02*
Y-19256D01*
X26388Y-19312D01*
X26426Y-19331D01*
X26463D01*
X26313Y-19068D02*
X26444D01*
X26829Y-18937D02*
Y-19331D01*
Y-19125D02*
X26866Y-19087D01*
X26904Y-19068D01*
X26960D01*
X26997Y-19087D01*
X27035Y-19125D01*
X27054Y-19181D01*
Y-19218D01*
X27035Y-19274D01*
X26997Y-19312D01*
X26960Y-19331D01*
X26904D01*
X26866Y-19312D01*
X26829Y-19274D01*
X27138Y-19181D02*
X27363D01*
Y-19143D01*
X27344Y-19106D01*
X27325Y-19087D01*
X27288Y-19068D01*
X27232D01*
X27194Y-19087D01*
X27157Y-19125D01*
X27138Y-19181D01*
Y-19218D01*
X27157Y-19274D01*
X27194Y-19312D01*
X27232Y-19331D01*
X27288D01*
X27325Y-19312D01*
X27363Y-19274D01*
X27447Y-18937D02*
Y-19331D01*
Y-19143D02*
X27503Y-19087D01*
X27541Y-19068D01*
X27597D01*
X27635Y-19087D01*
X27653Y-19143D01*
Y-19331D01*
X27981Y-19068D02*
Y-19331D01*
Y-19125D02*
X27944Y-19087D01*
X27906Y-19068D01*
X27850D01*
X27813Y-19087D01*
X27775Y-19125D01*
X27756Y-19181D01*
Y-19218D01*
X27775Y-19274D01*
X27813Y-19312D01*
X27850Y-19331D01*
X27906D01*
X27944Y-19312D01*
X27981Y-19274D01*
X28086Y-18937D02*
Y-19331D01*
X28225Y-18937D02*
Y-19256D01*
X28244Y-19312D01*
X28281Y-19331D01*
X28319D01*
X28169Y-19068D02*
X28300D01*
X28375Y-19181D02*
X28600D01*
Y-19143D01*
X28581Y-19106D01*
X28562Y-19087D01*
X28525Y-19068D01*
X28469D01*
X28431Y-19087D01*
X28394Y-19125D01*
X28375Y-19181D01*
Y-19218D01*
X28394Y-19274D01*
X28431Y-19312D01*
X28469Y-19331D01*
X28525D01*
X28562Y-19312D01*
X28600Y-19274D01*
X28684Y-19068D02*
Y-19331D01*
Y-19143D02*
X28740Y-19087D01*
X28778Y-19068D01*
X28834D01*
X28872Y-19087D01*
X28890Y-19143D01*
Y-19331D01*
X29303Y-19068D02*
X29378Y-19331D01*
X29453Y-19068D02*
X29378Y-19331D01*
X29453Y-19068D02*
X29528Y-19331D01*
X29603Y-19068D02*
X29528Y-19331D01*
X29732Y-18937D02*
X29751Y-18956D01*
X29770Y-18937D01*
X29751Y-18918D01*
X29732Y-18937D01*
X29751Y-19068D02*
Y-19331D01*
X29839Y-19068D02*
Y-19331D01*
Y-19181D02*
X29858Y-19125D01*
X29895Y-19087D01*
X29933Y-19068D01*
X29989D01*
X30334D02*
Y-19256D01*
X30352Y-19312D01*
X30390Y-19331D01*
X30446D01*
X30484Y-19312D01*
X30540Y-19256D01*
Y-19068D02*
Y-19331D01*
X30643Y-19068D02*
Y-19331D01*
Y-19143D02*
X30699Y-19087D01*
X30737Y-19068D01*
X30793D01*
X30830Y-19087D01*
X30849Y-19143D01*
Y-19331D01*
X31158Y-19125D02*
X31140Y-19087D01*
X31083Y-19068D01*
X31027D01*
X30971Y-19087D01*
X30952Y-19125D01*
X30971Y-19162D01*
X31008Y-19181D01*
X31102Y-19200D01*
X31140Y-19218D01*
X31158Y-19256D01*
Y-19274D01*
X31140Y-19312D01*
X31083Y-19331D01*
X31027D01*
X30971Y-19312D01*
X30952Y-19274D01*
X31775Y-19068D02*
Y-19331D01*
Y-19125D02*
X31738Y-19087D01*
X31700Y-19068D01*
X31644D01*
X31606Y-19087D01*
X31569Y-19125D01*
X31550Y-19181D01*
Y-19218D01*
X31569Y-19274D01*
X31606Y-19312D01*
X31644Y-19331D01*
X31700D01*
X31738Y-19312D01*
X31775Y-19274D01*
X31880Y-18937D02*
Y-19331D01*
X31963Y-18937D02*
Y-19331D01*
X32045Y-19181D02*
X32270D01*
Y-19143D01*
X32251Y-19106D01*
X32232Y-19087D01*
X32195Y-19068D01*
X32139D01*
X32101Y-19087D01*
X32064Y-19125D01*
X32045Y-19181D01*
Y-19218D01*
X32064Y-19274D01*
X32101Y-19312D01*
X32139Y-19331D01*
X32195D01*
X32232Y-19312D01*
X32270Y-19274D01*
X32664Y-18937D02*
Y-19331D01*
Y-18937D02*
X32832D01*
X32888Y-18956D01*
X32907Y-18975D01*
X32926Y-19012D01*
Y-19050D01*
X32907Y-19087D01*
X32888Y-19106D01*
X32832Y-19125D01*
X32664D01*
X32795D02*
X32926Y-19331D01*
X33014Y-19181D02*
X33239D01*
Y-19143D01*
X33220Y-19106D01*
X33201Y-19087D01*
X33164Y-19068D01*
X33108D01*
X33070Y-19087D01*
X33033Y-19125D01*
X33014Y-19181D01*
Y-19218D01*
X33033Y-19274D01*
X33070Y-19312D01*
X33108Y-19331D01*
X33164D01*
X33201Y-19312D01*
X33239Y-19274D01*
X33548Y-19125D02*
X33511Y-19087D01*
X33473Y-19068D01*
X33417D01*
X33380Y-19087D01*
X33342Y-19125D01*
X33323Y-19181D01*
Y-19218D01*
X33342Y-19274D01*
X33380Y-19312D01*
X33417Y-19331D01*
X33473D01*
X33511Y-19312D01*
X33548Y-19274D01*
X33633Y-18937D02*
Y-19331D01*
Y-19143D02*
X33689Y-19087D01*
X33726Y-19068D01*
X33783D01*
X33820Y-19087D01*
X33839Y-19143D01*
Y-19331D01*
X33998Y-18937D02*
Y-19256D01*
X34017Y-19312D01*
X34054Y-19331D01*
X34092D01*
X33942Y-19068D02*
X34073D01*
X34148Y-19181D02*
X34373D01*
Y-19143D01*
X34354Y-19106D01*
X34335Y-19087D01*
X34298Y-19068D01*
X34242D01*
X34204Y-19087D01*
X34167Y-19125D01*
X34148Y-19181D01*
Y-19218D01*
X34167Y-19274D01*
X34204Y-19312D01*
X34242Y-19331D01*
X34298D01*
X34335Y-19312D01*
X34373Y-19274D01*
X34767Y-19068D02*
X34879Y-19331D01*
X34991Y-19068D02*
X34879Y-19331D01*
X35149Y-19068D02*
X35111Y-19087D01*
X35074Y-19125D01*
X35055Y-19181D01*
Y-19218D01*
X35074Y-19274D01*
X35111Y-19312D01*
X35149Y-19331D01*
X35205D01*
X35243Y-19312D01*
X35280Y-19274D01*
X35299Y-19218D01*
Y-19181D01*
X35280Y-19125D01*
X35243Y-19087D01*
X35205Y-19068D01*
X35149D01*
X35385D02*
Y-19331D01*
Y-19181D02*
X35404Y-19125D01*
X35441Y-19087D01*
X35479Y-19068D01*
X35535D01*
X35589Y-19293D02*
X35571Y-19312D01*
X35589Y-19331D01*
X35608Y-19312D01*
X35589Y-19293D01*
X36004Y-18937D02*
X36097Y-19331D01*
X36191Y-18937D02*
X36097Y-19331D01*
X36191Y-18937D02*
X36285Y-19331D01*
X36379Y-18937D02*
X36285Y-19331D01*
X36457Y-19181D02*
X36682D01*
Y-19143D01*
X36663Y-19106D01*
X36645Y-19087D01*
X36607Y-19068D01*
X36551D01*
X36513Y-19087D01*
X36476Y-19125D01*
X36457Y-19181D01*
Y-19218D01*
X36476Y-19274D01*
X36513Y-19312D01*
X36551Y-19331D01*
X36607D01*
X36645Y-19312D01*
X36682Y-19274D01*
X37076Y-19068D02*
Y-19331D01*
Y-19181D02*
X37095Y-19125D01*
X37132Y-19087D01*
X37169Y-19068D01*
X37226D01*
X37261Y-19181D02*
X37486D01*
Y-19143D01*
X37468Y-19106D01*
X37449Y-19087D01*
X37411Y-19068D01*
X37355D01*
X37318Y-19087D01*
X37280Y-19125D01*
X37261Y-19181D01*
Y-19218D01*
X37280Y-19274D01*
X37318Y-19312D01*
X37355Y-19331D01*
X37411D01*
X37449Y-19312D01*
X37486Y-19274D01*
X37777Y-19125D02*
X37758Y-19087D01*
X37702Y-19068D01*
X37646D01*
X37589Y-19087D01*
X37571Y-19125D01*
X37589Y-19162D01*
X37627Y-19181D01*
X37721Y-19200D01*
X37758Y-19218D01*
X37777Y-19256D01*
Y-19274D01*
X37758Y-19312D01*
X37702Y-19331D01*
X37646D01*
X37589Y-19312D01*
X37571Y-19274D01*
X37859Y-19181D02*
X38084D01*
Y-19143D01*
X38065Y-19106D01*
X38047Y-19087D01*
X38009Y-19068D01*
X37953D01*
X37915Y-19087D01*
X37878Y-19125D01*
X37859Y-19181D01*
Y-19218D01*
X37878Y-19274D01*
X37915Y-19312D01*
X37953Y-19331D01*
X38009D01*
X38047Y-19312D01*
X38084Y-19274D01*
X38169Y-19068D02*
Y-19331D01*
Y-19181D02*
X38187Y-19125D01*
X38225Y-19087D01*
X38262Y-19068D01*
X38318D01*
X38354D02*
X38467Y-19331D01*
X38579Y-19068D02*
X38467Y-19331D01*
X38643Y-19181D02*
X38868D01*
Y-19143D01*
X38849Y-19106D01*
X38830Y-19087D01*
X38793Y-19068D01*
X38736D01*
X38699Y-19087D01*
X38661Y-19125D01*
X38643Y-19181D01*
Y-19218D01*
X38661Y-19274D01*
X38699Y-19312D01*
X38736Y-19331D01*
X38793D01*
X38830Y-19312D01*
X38868Y-19274D01*
X39486Y-19068D02*
Y-19331D01*
Y-19125D02*
X39449Y-19087D01*
X39411Y-19068D01*
X39355D01*
X39318Y-19087D01*
X39280Y-19125D01*
X39261Y-19181D01*
Y-19218D01*
X39280Y-19274D01*
X39318Y-19312D01*
X39355Y-19331D01*
X39411D01*
X39449Y-19312D01*
X39486Y-19274D01*
X39591Y-18937D02*
Y-19331D01*
X39674Y-18937D02*
Y-19331D01*
X40065Y-19068D02*
Y-19331D01*
Y-19181D02*
X40084Y-19125D01*
X40122Y-19087D01*
X40159Y-19068D01*
X40215D01*
X40288Y-18937D02*
X40307Y-18956D01*
X40326Y-18937D01*
X40307Y-18918D01*
X40288Y-18937D01*
X40307Y-19068D02*
Y-19331D01*
X40620Y-19068D02*
Y-19368D01*
X40601Y-19424D01*
X40583Y-19443D01*
X40545Y-19462D01*
X40489D01*
X40452Y-19443D01*
X40620Y-19125D02*
X40583Y-19087D01*
X40545Y-19068D01*
X40489D01*
X40452Y-19087D01*
X40414Y-19125D01*
X40395Y-19181D01*
Y-19218D01*
X40414Y-19274D01*
X40452Y-19312D01*
X40489Y-19331D01*
X40545D01*
X40583Y-19312D01*
X40620Y-19274D01*
X40725Y-18937D02*
Y-19331D01*
Y-19143D02*
X40781Y-19087D01*
X40819Y-19068D01*
X40875D01*
X40913Y-19087D01*
X40931Y-19143D01*
Y-19331D01*
X41091Y-18937D02*
Y-19256D01*
X41109Y-19312D01*
X41147Y-19331D01*
X41184D01*
X41034Y-19068D02*
X41166D01*
X41447Y-19125D02*
X41428Y-19087D01*
X41372Y-19068D01*
X41316D01*
X41259Y-19087D01*
X41241Y-19125D01*
X41259Y-19162D01*
X41297Y-19181D01*
X41391Y-19200D01*
X41428Y-19218D01*
X41447Y-19256D01*
Y-19274D01*
X41428Y-19312D01*
X41372Y-19331D01*
X41316D01*
X41259Y-19312D01*
X41241Y-19274D01*
X41876Y-18937D02*
X41895Y-18956D01*
X41914Y-18937D01*
X41895Y-18918D01*
X41876Y-18937D01*
X41895Y-19068D02*
Y-19331D01*
X41983Y-19068D02*
Y-19331D01*
Y-19143D02*
X42039Y-19087D01*
X42077Y-19068D01*
X42133D01*
X42170Y-19087D01*
X42189Y-19143D01*
Y-19331D01*
X42601Y-19068D02*
Y-19331D01*
Y-19181D02*
X42620Y-19125D01*
X42658Y-19087D01*
X42695Y-19068D01*
X42751D01*
X42787Y-19181D02*
X43012D01*
Y-19143D01*
X42993Y-19106D01*
X42974Y-19087D01*
X42937Y-19068D01*
X42881D01*
X42843Y-19087D01*
X42806Y-19125D01*
X42787Y-19181D01*
Y-19218D01*
X42806Y-19274D01*
X42843Y-19312D01*
X42881Y-19331D01*
X42937D01*
X42974Y-19312D01*
X43012Y-19274D01*
X43302Y-19125D02*
X43284Y-19087D01*
X43227Y-19068D01*
X43171D01*
X43115Y-19087D01*
X43096Y-19125D01*
X43115Y-19162D01*
X43152Y-19181D01*
X43246Y-19200D01*
X43284Y-19218D01*
X43302Y-19256D01*
Y-19274D01*
X43284Y-19312D01*
X43227Y-19331D01*
X43171D01*
X43115Y-19312D01*
X43096Y-19274D01*
X43385Y-19068D02*
Y-19462D01*
Y-19125D02*
X43422Y-19087D01*
X43460Y-19068D01*
X43516D01*
X43554Y-19087D01*
X43591Y-19125D01*
X43610Y-19181D01*
Y-19218D01*
X43591Y-19274D01*
X43554Y-19312D01*
X43516Y-19331D01*
X43460D01*
X43422Y-19312D01*
X43385Y-19274D01*
X43694Y-19181D02*
X43919D01*
Y-19143D01*
X43900Y-19106D01*
X43882Y-19087D01*
X43844Y-19068D01*
X43788D01*
X43750Y-19087D01*
X43713Y-19125D01*
X43694Y-19181D01*
Y-19218D01*
X43713Y-19274D01*
X43750Y-19312D01*
X43788Y-19331D01*
X43844D01*
X43882Y-19312D01*
X43919Y-19274D01*
X44228Y-19125D02*
X44191Y-19087D01*
X44153Y-19068D01*
X44097D01*
X44060Y-19087D01*
X44022Y-19125D01*
X44003Y-19181D01*
Y-19218D01*
X44022Y-19274D01*
X44060Y-19312D01*
X44097Y-19331D01*
X44153D01*
X44191Y-19312D01*
X44228Y-19274D01*
X44369Y-18937D02*
Y-19256D01*
X44388Y-19312D01*
X44425Y-19331D01*
X44463D01*
X44313Y-19068D02*
X44444D01*
X44922D02*
X44884Y-19087D01*
X44847Y-19125D01*
X44828Y-19181D01*
Y-19218D01*
X44847Y-19274D01*
X44884Y-19312D01*
X44922Y-19331D01*
X44978D01*
X45016Y-19312D01*
X45053Y-19274D01*
X45072Y-19218D01*
Y-19181D01*
X45053Y-19125D01*
X45016Y-19087D01*
X44978Y-19068D01*
X44922D01*
X45308Y-18937D02*
X45271D01*
X45233Y-18956D01*
X45214Y-19012D01*
Y-19331D01*
X45158Y-19068D02*
X45289D01*
X45730Y-18937D02*
Y-19256D01*
X45748Y-19312D01*
X45786Y-19331D01*
X45823D01*
X45673Y-19068D02*
X45805D01*
X45880Y-18937D02*
Y-19331D01*
Y-19143D02*
X45936Y-19087D01*
X45973Y-19068D01*
X46030D01*
X46067Y-19087D01*
X46086Y-19143D01*
Y-19331D01*
X46226Y-18937D02*
X46245Y-18956D01*
X46264Y-18937D01*
X46245Y-18918D01*
X46226Y-18937D01*
X46245Y-19068D02*
Y-19331D01*
X46539Y-19125D02*
X46521Y-19087D01*
X46464Y-19068D01*
X46408D01*
X46352Y-19087D01*
X46333Y-19125D01*
X46352Y-19162D01*
X46389Y-19181D01*
X46483Y-19200D01*
X46521Y-19218D01*
X46539Y-19256D01*
Y-19274D01*
X46521Y-19312D01*
X46464Y-19331D01*
X46408D01*
X46352Y-19312D01*
X46333Y-19274D01*
X47156Y-18937D02*
Y-19331D01*
Y-19125D02*
X47119Y-19087D01*
X47081Y-19068D01*
X47025D01*
X46987Y-19087D01*
X46950Y-19125D01*
X46931Y-19181D01*
Y-19218D01*
X46950Y-19274D01*
X46987Y-19312D01*
X47025Y-19331D01*
X47081D01*
X47119Y-19312D01*
X47156Y-19274D01*
X47355Y-19068D02*
X47317Y-19087D01*
X47280Y-19125D01*
X47261Y-19181D01*
Y-19218D01*
X47280Y-19274D01*
X47317Y-19312D01*
X47355Y-19331D01*
X47411D01*
X47449Y-19312D01*
X47486Y-19274D01*
X47505Y-19218D01*
Y-19181D01*
X47486Y-19125D01*
X47449Y-19087D01*
X47411Y-19068D01*
X47355D01*
X47816Y-19125D02*
X47778Y-19087D01*
X47741Y-19068D01*
X47685D01*
X47647Y-19087D01*
X47610Y-19125D01*
X47591Y-19181D01*
Y-19218D01*
X47610Y-19274D01*
X47647Y-19312D01*
X47685Y-19331D01*
X47741D01*
X47778Y-19312D01*
X47816Y-19274D01*
X47900Y-19068D02*
Y-19256D01*
X47919Y-19312D01*
X47956Y-19331D01*
X48013D01*
X48050Y-19312D01*
X48106Y-19256D01*
Y-19068D02*
Y-19331D01*
X48210Y-19068D02*
Y-19331D01*
Y-19143D02*
X48266Y-19087D01*
X48303Y-19068D01*
X48359D01*
X48397Y-19087D01*
X48416Y-19143D01*
Y-19331D01*
Y-19143D02*
X48472Y-19087D01*
X48509Y-19068D01*
X48566D01*
X48603Y-19087D01*
X48622Y-19143D01*
Y-19331D01*
X48746Y-19181D02*
X48970D01*
Y-19143D01*
X48952Y-19106D01*
X48933Y-19087D01*
X48896Y-19068D01*
X48839D01*
X48802Y-19087D01*
X48764Y-19125D01*
X48746Y-19181D01*
Y-19218D01*
X48764Y-19274D01*
X48802Y-19312D01*
X48839Y-19331D01*
X48896D01*
X48933Y-19312D01*
X48970Y-19274D01*
X49055Y-19068D02*
Y-19331D01*
Y-19143D02*
X49111Y-19087D01*
X49149Y-19068D01*
X49205D01*
X49242Y-19087D01*
X49261Y-19143D01*
Y-19331D01*
X49420Y-18937D02*
Y-19256D01*
X49439Y-19312D01*
X49477Y-19331D01*
X49514D01*
X49364Y-19068D02*
X49495D01*
X49589Y-19293D02*
X49570Y-19312D01*
X49589Y-19331D01*
X49608Y-19312D01*
X49589Y-19293D01*
X6329Y-23258D02*
Y-23612D01*
Y-23444D02*
X6379Y-23393D01*
X6413Y-23376D01*
X6464D01*
X6497Y-23393D01*
X6514Y-23444D01*
Y-23612D01*
X6658Y-23258D02*
Y-23545D01*
X6675Y-23595D01*
X6708Y-23612D01*
X6742D01*
X6607Y-23376D02*
X6725D01*
X6843Y-23258D02*
Y-23545D01*
X6860Y-23595D01*
X6894Y-23612D01*
X6928D01*
X6793Y-23376D02*
X6911D01*
X6978D02*
Y-23730D01*
Y-23427D02*
X7012Y-23393D01*
X7046Y-23376D01*
X7096D01*
X7130Y-23393D01*
X7164Y-23427D01*
X7181Y-23477D01*
Y-23511D01*
X7164Y-23562D01*
X7130Y-23595D01*
X7096Y-23612D01*
X7046D01*
X7012Y-23595D01*
X6978Y-23562D01*
X7442Y-23427D02*
X7425Y-23393D01*
X7375Y-23376D01*
X7324D01*
X7273Y-23393D01*
X7257Y-23427D01*
X7273Y-23461D01*
X7307Y-23477D01*
X7391Y-23494D01*
X7425Y-23511D01*
X7442Y-23545D01*
Y-23562D01*
X7425Y-23595D01*
X7375Y-23612D01*
X7324D01*
X7273Y-23595D01*
X7257Y-23562D01*
X7533Y-23376D02*
X7516Y-23393D01*
X7533Y-23410D01*
X7550Y-23393D01*
X7533Y-23376D01*
Y-23579D02*
X7516Y-23595D01*
X7533Y-23612D01*
X7550Y-23595D01*
X7533Y-23579D01*
X7628Y-23663D02*
X7864Y-23258D01*
X7887Y-23663D02*
X8124Y-23258D01*
X8350Y-23376D02*
Y-23646D01*
X8333Y-23697D01*
X8316Y-23714D01*
X8282Y-23730D01*
X8232D01*
X8198Y-23714D01*
X8350Y-23427D02*
X8316Y-23393D01*
X8282Y-23376D01*
X8232D01*
X8198Y-23393D01*
X8164Y-23427D01*
X8147Y-23477D01*
Y-23511D01*
X8164Y-23562D01*
X8198Y-23595D01*
X8232Y-23612D01*
X8282D01*
X8316Y-23595D01*
X8350Y-23562D01*
X8478Y-23258D02*
X8495Y-23275D01*
X8512Y-23258D01*
X8495Y-23241D01*
X8478Y-23258D01*
X8495Y-23376D02*
Y-23612D01*
X8625Y-23258D02*
Y-23545D01*
X8642Y-23595D01*
X8675Y-23612D01*
X8709D01*
X8574Y-23376D02*
X8692D01*
X8760Y-23258D02*
Y-23612D01*
Y-23444D02*
X8810Y-23393D01*
X8844Y-23376D01*
X8895D01*
X8928Y-23393D01*
X8945Y-23444D01*
Y-23612D01*
X9038Y-23376D02*
Y-23545D01*
X9055Y-23595D01*
X9089Y-23612D01*
X9139D01*
X9173Y-23595D01*
X9224Y-23545D01*
Y-23376D02*
Y-23612D01*
X9316Y-23258D02*
Y-23612D01*
Y-23427D02*
X9350Y-23393D01*
X9384Y-23376D01*
X9434D01*
X9468Y-23393D01*
X9502Y-23427D01*
X9519Y-23477D01*
Y-23511D01*
X9502Y-23562D01*
X9468Y-23595D01*
X9434Y-23612D01*
X9384D01*
X9350Y-23595D01*
X9316Y-23562D01*
X9611Y-23579D02*
X9595Y-23595D01*
X9611Y-23612D01*
X9628Y-23595D01*
X9611Y-23579D01*
X9908Y-23427D02*
X9875Y-23393D01*
X9841Y-23376D01*
X9790D01*
X9757Y-23393D01*
X9723Y-23427D01*
X9706Y-23477D01*
Y-23511D01*
X9723Y-23562D01*
X9757Y-23595D01*
X9790Y-23612D01*
X9841D01*
X9875Y-23595D01*
X9908Y-23562D01*
X10069Y-23376D02*
X10035Y-23393D01*
X10001Y-23427D01*
X9984Y-23477D01*
Y-23511D01*
X10001Y-23562D01*
X10035Y-23595D01*
X10069Y-23612D01*
X10119D01*
X10153Y-23595D01*
X10187Y-23562D01*
X10204Y-23511D01*
Y-23477D01*
X10187Y-23427D01*
X10153Y-23393D01*
X10119Y-23376D01*
X10069D01*
X10281D02*
Y-23612D01*
Y-23444D02*
X10332Y-23393D01*
X10366Y-23376D01*
X10416D01*
X10450Y-23393D01*
X10467Y-23444D01*
Y-23612D01*
Y-23444D02*
X10517Y-23393D01*
X10551Y-23376D01*
X10602D01*
X10635Y-23393D01*
X10652Y-23444D01*
Y-23612D01*
X10764Y-23663D02*
X11000Y-23258D01*
X11023Y-23376D02*
Y-23612D01*
Y-23444D02*
X11074Y-23393D01*
X11108Y-23376D01*
X11158D01*
X11192Y-23393D01*
X11209Y-23444D01*
Y-23612D01*
Y-23444D02*
X11260Y-23393D01*
X11293Y-23376D01*
X11344D01*
X11378Y-23393D01*
X11395Y-23444D01*
Y-23612D01*
X11506Y-23258D02*
Y-23612D01*
X11614Y-23258D02*
X11799D01*
X11698Y-23393D01*
X11749D01*
X11783Y-23410D01*
X11799Y-23427D01*
X11816Y-23477D01*
Y-23511D01*
X11799Y-23562D01*
X11766Y-23595D01*
X11715Y-23612D01*
X11664D01*
X11614Y-23595D01*
X11597Y-23579D01*
X11580Y-23545D01*
X11896Y-23376D02*
Y-23612D01*
Y-23477D02*
X11912Y-23427D01*
X11946Y-23393D01*
X11980Y-23376D01*
X12031D01*
X12265Y-23427D02*
X12231Y-23393D01*
X12198Y-23376D01*
X12147D01*
X12113Y-23393D01*
X12079Y-23427D01*
X12063Y-23477D01*
Y-23511D01*
X12079Y-23562D01*
X12113Y-23595D01*
X12147Y-23612D01*
X12198D01*
X12231Y-23595D01*
X12265Y-23562D01*
X12341Y-23663D02*
X12577Y-23258D01*
X12837Y-23309D02*
X12803Y-23275D01*
X12753Y-23258D01*
X12685D01*
X12634Y-23275D01*
X12601Y-23309D01*
Y-23342D01*
X12618Y-23376D01*
X12634Y-23393D01*
X12668Y-23410D01*
X12769Y-23444D01*
X12803Y-23461D01*
X12820Y-23477D01*
X12837Y-23511D01*
Y-23562D01*
X12803Y-23595D01*
X12753Y-23612D01*
X12685D01*
X12634Y-23595D01*
X12601Y-23562D01*
X12916Y-23258D02*
Y-23612D01*
Y-23258D02*
X13152Y-23612D01*
Y-23258D02*
Y-23612D01*
X13520D02*
X13385Y-23258D01*
X13250Y-23612D01*
X13301Y-23494D02*
X13470D01*
X13620Y-23579D02*
X13603Y-23595D01*
X13620Y-23612D01*
X13637Y-23595D01*
X13620Y-23579D01*
X13917Y-23376D02*
Y-23646D01*
X13900Y-23697D01*
X13883Y-23714D01*
X13849Y-23730D01*
X13798D01*
X13765Y-23714D01*
X13917Y-23427D02*
X13883Y-23393D01*
X13849Y-23376D01*
X13798D01*
X13765Y-23393D01*
X13731Y-23427D01*
X13714Y-23477D01*
Y-23511D01*
X13731Y-23562D01*
X13765Y-23595D01*
X13798Y-23612D01*
X13849D01*
X13883Y-23595D01*
X13917Y-23562D01*
X14045Y-23258D02*
X14062Y-23275D01*
X14078Y-23258D01*
X14062Y-23241D01*
X14045Y-23258D01*
X14062Y-23376D02*
Y-23612D01*
X14192Y-23258D02*
Y-23545D01*
X14208Y-23595D01*
X14242Y-23612D01*
X14276D01*
X14141Y-23376D02*
X14259D01*
X45108Y-22427D02*
X45146Y-22409D01*
X45202Y-22352D01*
Y-22746D01*
X45622Y-22352D02*
X45434D01*
X45416Y-22521D01*
X45434Y-22502D01*
X45491Y-22484D01*
X45547D01*
X45603Y-22502D01*
X45641Y-22540D01*
X45659Y-22596D01*
Y-22634D01*
X45641Y-22690D01*
X45603Y-22727D01*
X45547Y-22746D01*
X45491D01*
X45434Y-22727D01*
X45416Y-22709D01*
X45397Y-22671D01*
X45766Y-22484D02*
X45747Y-22502D01*
X45766Y-22521D01*
X45785Y-22502D01*
X45766Y-22484D01*
Y-22709D02*
X45747Y-22727D01*
X45766Y-22746D01*
X45785Y-22727D01*
X45766Y-22709D01*
X45909Y-22352D02*
X46115D01*
X46002Y-22502D01*
X46059D01*
X46096Y-22521D01*
X46115Y-22540D01*
X46134Y-22596D01*
Y-22634D01*
X46115Y-22690D01*
X46077Y-22727D01*
X46021Y-22746D01*
X45965D01*
X45909Y-22727D01*
X45890Y-22709D01*
X45871Y-22671D01*
X46447Y-22352D02*
X46259D01*
X46240Y-22521D01*
X46259Y-22502D01*
X46315Y-22484D01*
X46372D01*
X46428Y-22502D01*
X46465Y-22540D01*
X46484Y-22596D01*
Y-22634D01*
X46465Y-22690D01*
X46428Y-22727D01*
X46372Y-22746D01*
X46315D01*
X46259Y-22727D01*
X46240Y-22709D01*
X46222Y-22671D01*
X46591Y-22484D02*
X46572Y-22502D01*
X46591Y-22521D01*
X46610Y-22502D01*
X46591Y-22484D01*
Y-22709D02*
X46572Y-22727D01*
X46591Y-22746D01*
X46610Y-22727D01*
X46591Y-22709D01*
X46808Y-22352D02*
X46752Y-22371D01*
X46715Y-22427D01*
X46696Y-22521D01*
Y-22577D01*
X46715Y-22671D01*
X46752Y-22727D01*
X46808Y-22746D01*
X46846D01*
X46902Y-22727D01*
X46940Y-22671D01*
X46958Y-22577D01*
Y-22521D01*
X46940Y-22427D01*
X46902Y-22371D01*
X46846Y-22352D01*
X46808D01*
X47159D02*
X47103Y-22371D01*
X47065Y-22427D01*
X47046Y-22521D01*
Y-22577D01*
X47065Y-22671D01*
X47103Y-22727D01*
X47159Y-22746D01*
X47196D01*
X47253Y-22727D01*
X47290Y-22671D01*
X47309Y-22577D01*
Y-22521D01*
X47290Y-22427D01*
X47253Y-22371D01*
X47196Y-22352D01*
X47159D01*
D17*
X-3924Y-19882D02*
X-3976Y-19830D01*
X-4055Y-19803D01*
X-4160D01*
X-4239Y-19830D01*
X-4291Y-19882D01*
Y-19935D01*
X-4265Y-19987D01*
X-4239Y-20013D01*
X-4186Y-20040D01*
X-4029Y-20092D01*
X-3976Y-20118D01*
X-3950Y-20145D01*
X-3924Y-20197D01*
Y-20276D01*
X-3976Y-20328D01*
X-4055Y-20354D01*
X-4160D01*
X-4239Y-20328D01*
X-4291Y-20276D01*
X-3801Y-19987D02*
Y-20538D01*
Y-20066D02*
X-3748Y-20013D01*
X-3696Y-19987D01*
X-3617D01*
X-3564Y-20013D01*
X-3512Y-20066D01*
X-3486Y-20145D01*
Y-20197D01*
X-3512Y-20276D01*
X-3564Y-20328D01*
X-3617Y-20354D01*
X-3696D01*
X-3748Y-20328D01*
X-3801Y-20276D01*
X-3053Y-19987D02*
Y-20354D01*
Y-20066D02*
X-3105Y-20013D01*
X-3158Y-19987D01*
X-3236D01*
X-3289Y-20013D01*
X-3341Y-20066D01*
X-3368Y-20145D01*
Y-20197D01*
X-3341Y-20276D01*
X-3289Y-20328D01*
X-3236Y-20354D01*
X-3158D01*
X-3105Y-20328D01*
X-3053Y-20276D01*
X-2591Y-20066D02*
X-2643Y-20013D01*
X-2696Y-19987D01*
X-2775D01*
X-2827Y-20013D01*
X-2880Y-20066D01*
X-2906Y-20145D01*
Y-20197D01*
X-2880Y-20276D01*
X-2827Y-20328D01*
X-2775Y-20354D01*
X-2696D01*
X-2643Y-20328D01*
X-2591Y-20276D01*
X-2473Y-20145D02*
X-2158D01*
Y-20092D01*
X-2184Y-20040D01*
X-2210Y-20013D01*
X-2263Y-19987D01*
X-2342D01*
X-2394Y-20013D01*
X-2447Y-20066D01*
X-2473Y-20145D01*
Y-20197D01*
X-2447Y-20276D01*
X-2394Y-20328D01*
X-2342Y-20354D01*
X-2263D01*
X-2210Y-20328D01*
X-2158Y-20276D01*
X-1961Y-19803D02*
Y-20250D01*
X-1935Y-20328D01*
X-1882Y-20354D01*
X-1830D01*
X-2040Y-19987D02*
X-1856D01*
X-1751Y-20145D02*
X-1436D01*
Y-20092D01*
X-1463Y-20040D01*
X-1489Y-20013D01*
X-1541Y-19987D01*
X-1620D01*
X-1672Y-20013D01*
X-1725Y-20066D01*
X-1751Y-20145D01*
Y-20197D01*
X-1725Y-20276D01*
X-1672Y-20328D01*
X-1620Y-20354D01*
X-1541D01*
X-1489Y-20328D01*
X-1436Y-20276D01*
X-1318Y-19803D02*
Y-20354D01*
X-1056Y-19987D02*
X-1318Y-20250D01*
X-1213Y-20145D02*
X-1030Y-20354D01*
X-326Y-19803D02*
Y-20354D01*
X-510Y-19803D02*
X-143D01*
X-77Y-20145D02*
X238D01*
Y-20092D01*
X212Y-20040D01*
X185Y-20013D01*
X133Y-19987D01*
X54D01*
X2Y-20013D01*
X-51Y-20066D01*
X-77Y-20145D01*
Y-20197D01*
X-51Y-20276D01*
X2Y-20328D01*
X54Y-20354D01*
X133D01*
X185Y-20328D01*
X238Y-20276D01*
X671Y-20066D02*
X618Y-20013D01*
X566Y-19987D01*
X487D01*
X435Y-20013D01*
X382Y-20066D01*
X356Y-20145D01*
Y-20197D01*
X382Y-20276D01*
X435Y-20328D01*
X487Y-20354D01*
X566D01*
X618Y-20328D01*
X671Y-20276D01*
X789Y-19803D02*
Y-20354D01*
Y-20092D02*
X868Y-20013D01*
X920Y-19987D01*
X999D01*
X1051Y-20013D01*
X1078Y-20092D01*
Y-20354D01*
X1222Y-19987D02*
Y-20354D01*
Y-20092D02*
X1301Y-20013D01*
X1353Y-19987D01*
X1432D01*
X1484Y-20013D01*
X1511Y-20092D01*
Y-20354D01*
X1786Y-19987D02*
X1734Y-20013D01*
X1681Y-20066D01*
X1655Y-20145D01*
Y-20197D01*
X1681Y-20276D01*
X1734Y-20328D01*
X1786Y-20354D01*
X1865D01*
X1917Y-20328D01*
X1970Y-20276D01*
X1996Y-20197D01*
Y-20145D01*
X1970Y-20066D01*
X1917Y-20013D01*
X1865Y-19987D01*
X1786D01*
X2117Y-19803D02*
Y-20354D01*
X2363Y-19987D02*
X2311Y-20013D01*
X2258Y-20066D01*
X2232Y-20145D01*
Y-20197D01*
X2258Y-20276D01*
X2311Y-20328D01*
X2363Y-20354D01*
X2442D01*
X2495Y-20328D01*
X2547Y-20276D01*
X2573Y-20197D01*
Y-20145D01*
X2547Y-20066D01*
X2495Y-20013D01*
X2442Y-19987D01*
X2363D01*
X3009D02*
Y-20407D01*
X2983Y-20486D01*
X2956Y-20512D01*
X2904Y-20538D01*
X2825D01*
X2773Y-20512D01*
X3009Y-20066D02*
X2956Y-20013D01*
X2904Y-19987D01*
X2825D01*
X2773Y-20013D01*
X2720Y-20066D01*
X2694Y-20145D01*
Y-20197D01*
X2720Y-20276D01*
X2773Y-20328D01*
X2825Y-20354D01*
X2904D01*
X2956Y-20328D01*
X3009Y-20276D01*
X3182Y-19987D02*
X3340Y-20354D01*
X3497Y-19987D02*
X3340Y-20354D01*
X3287Y-20459D01*
X3235Y-20512D01*
X3182Y-20538D01*
X3156D01*
X4442Y-20354D02*
X4232Y-19803D01*
X4022Y-20354D01*
X4101Y-20171D02*
X4363D01*
X4964Y-19935D02*
X4938Y-19882D01*
X4885Y-19830D01*
X4833Y-19803D01*
X4728D01*
X4675Y-19830D01*
X4623Y-19882D01*
X4597Y-19935D01*
X4570Y-20013D01*
Y-20145D01*
X4597Y-20223D01*
X4623Y-20276D01*
X4675Y-20328D01*
X4728Y-20354D01*
X4833D01*
X4885Y-20328D01*
X4938Y-20276D01*
X4964Y-20223D01*
Y-20145D01*
X4833D02*
X4964D01*
X5523Y-19803D02*
Y-20354D01*
X6465Y-19935D02*
X6439Y-19882D01*
X6386Y-19830D01*
X6334Y-19803D01*
X6229D01*
X6176Y-19830D01*
X6124Y-19882D01*
X6098Y-19935D01*
X6071Y-20013D01*
Y-20145D01*
X6098Y-20223D01*
X6124Y-20276D01*
X6176Y-20328D01*
X6229Y-20354D01*
X6334D01*
X6386Y-20328D01*
X6439Y-20276D01*
X6465Y-20223D01*
Y-20145D01*
X6334D02*
X6465D01*
X6643Y-19803D02*
X6670Y-19830D01*
X6696Y-19803D01*
X6670Y-19777D01*
X6643Y-19803D01*
X6670Y-19987D02*
Y-20354D01*
X6793Y-19803D02*
Y-20354D01*
Y-20066D02*
X6845Y-20013D01*
X6898Y-19987D01*
X6977D01*
X7029Y-20013D01*
X7082Y-20066D01*
X7108Y-20145D01*
Y-20197D01*
X7082Y-20276D01*
X7029Y-20328D01*
X6977Y-20354D01*
X6898D01*
X6845Y-20328D01*
X6793Y-20276D01*
X7226Y-19803D02*
Y-20354D01*
Y-20066D02*
X7278Y-20013D01*
X7331Y-19987D01*
X7410D01*
X7462Y-20013D01*
X7515Y-20066D01*
X7541Y-20145D01*
Y-20197D01*
X7515Y-20276D01*
X7462Y-20328D01*
X7410Y-20354D01*
X7331D01*
X7278Y-20328D01*
X7226Y-20276D01*
D18*
X11025Y35297D02*
D03*
X10670D02*
D03*
X10307Y35297D02*
D03*
X9952D02*
D03*
X10445Y5704D02*
D03*
X11554D02*
D03*
X12292Y12200D02*
D03*
X14151Y12423D02*
D03*
X7420Y32733D02*
D03*
Y33533D02*
D03*
Y33133D02*
D03*
Y32333D02*
D03*
X14151Y12823D02*
D03*
Y13623D02*
D03*
X10917Y17995D02*
D03*
Y17595D02*
D03*
X11817Y16695D02*
D03*
Y17095D02*
D03*
X12572D02*
D03*
X13377Y29500D02*
D03*
Y29900D02*
D03*
X10917Y19595D02*
D03*
Y19195D02*
D03*
X12495Y20695D02*
D03*
X14426Y18395D02*
D03*
Y17595D02*
D03*
Y17995D02*
D03*
X13377Y30700D02*
D03*
X11601Y32128D02*
D03*
X11218Y32132D02*
D03*
X11500Y33900D02*
D03*
Y34500D02*
D03*
X15755Y26084D02*
D03*
Y26484D02*
D03*
X17664Y25849D02*
D03*
X15755Y27684D02*
D03*
X13823Y30300D02*
D03*
X16577Y30700D02*
D03*
X13823D02*
D03*
X17310Y30646D02*
D03*
X17954Y34400D02*
D03*
Y34800D02*
D03*
X21776Y27268D02*
D03*
Y27668D02*
D03*
Y28868D02*
D03*
X22972Y35244D02*
D03*
X24862Y35246D02*
D03*
X38792Y5709D02*
D03*
X39900D02*
D03*
X34702Y10753D02*
D03*
X32843Y10977D02*
D03*
Y11777D02*
D03*
Y12177D02*
D03*
X34068Y17352D02*
D03*
X41983Y15864D02*
D03*
X42797Y17705D02*
D03*
X31827Y25663D02*
D03*
Y26463D02*
D03*
X35627Y25663D02*
D03*
Y26463D02*
D03*
X29991Y28527D02*
D03*
X28894Y36762D02*
D03*
X38797Y19105D02*
D03*
X39843Y21405D02*
D03*
X42797Y18505D02*
D03*
X43552Y18105D02*
D03*
X42797Y19405D02*
D03*
X43552D02*
D03*
Y20105D02*
D03*
X7420Y31933D02*
D03*
X12849Y20695D02*
D03*
X7774Y31933D02*
D03*
X31800Y34900D02*
D03*
X20554Y36500D02*
D03*
X17600Y34800D02*
D03*
X31446Y37000D02*
D03*
X17600Y34400D02*
D03*
X16223Y30700D02*
D03*
X11854Y34500D02*
D03*
Y33900D02*
D03*
X14177Y30700D02*
D03*
X13023D02*
D03*
X10139Y32129D02*
D03*
X9577Y35300D02*
D03*
X17615Y33401D02*
D03*
X17969D02*
D03*
X17615Y33790D02*
D03*
X17969D02*
D03*
X17310Y31046D02*
D03*
X16955D02*
D03*
Y30646D02*
D03*
X8600Y31933D02*
D03*
X13377Y30300D02*
D03*
X14177D02*
D03*
X11956Y32128D02*
D03*
X17346Y36500D02*
D03*
X31446Y35600D02*
D03*
Y34900D02*
D03*
Y36300D02*
D03*
X8600Y32733D02*
D03*
Y33533D02*
D03*
X9578Y34841D02*
D03*
X8600Y32333D02*
D03*
Y33133D02*
D03*
X14151Y14023D02*
D03*
X32843Y10577D02*
D03*
X15755Y25684D02*
D03*
X7774Y32333D02*
D03*
Y32733D02*
D03*
X39546Y5309D02*
D03*
X39900D02*
D03*
X39546Y5709D02*
D03*
X8246Y32733D02*
D03*
X11554Y5316D02*
D03*
X39146Y5309D02*
D03*
X38792D02*
D03*
X39146Y5709D02*
D03*
X8246Y32333D02*
D03*
X10445Y5314D02*
D03*
X16109Y26484D02*
D03*
X15755Y26884D02*
D03*
X16109D02*
D03*
X17310Y25849D02*
D03*
X7774Y33533D02*
D03*
X16109Y25684D02*
D03*
Y26084D02*
D03*
X7774Y33133D02*
D03*
X16109Y27684D02*
D03*
X15755Y27284D02*
D03*
X16109D02*
D03*
X8246Y33133D02*
D03*
Y33533D02*
D03*
X10239Y13765D02*
D03*
X21776Y26868D02*
D03*
X35627Y26063D02*
D03*
X21776Y28468D02*
D03*
X24829Y25230D02*
D03*
X25184D02*
D03*
X33714Y17352D02*
D03*
X43197Y18905D02*
D03*
X43552D02*
D03*
X42443Y20105D02*
D03*
X42797D02*
D03*
X39152Y19105D02*
D03*
X40597Y20605D02*
D03*
X40243D02*
D03*
X41628Y15864D02*
D03*
X41983Y16264D02*
D03*
X41628D02*
D03*
X42443Y17705D02*
D03*
X43197Y18105D02*
D03*
X42443Y18905D02*
D03*
X42797D02*
D03*
X42443Y19405D02*
D03*
Y18505D02*
D03*
Y18105D02*
D03*
X42797D02*
D03*
X40197Y21405D02*
D03*
X40997Y20605D02*
D03*
X41352D02*
D03*
X43197Y19405D02*
D03*
Y20105D02*
D03*
X10994Y13765D02*
D03*
X11348D02*
D03*
X29991Y28127D02*
D03*
X29637D02*
D03*
Y28527D02*
D03*
X32181Y26463D02*
D03*
Y25663D02*
D03*
X35272D02*
D03*
Y25263D02*
D03*
X35627D02*
D03*
X32181D02*
D03*
X31827D02*
D03*
X32181Y26063D02*
D03*
X31827D02*
D03*
X35272Y26463D02*
D03*
Y26063D02*
D03*
X13023Y29900D02*
D03*
X11272Y19195D02*
D03*
X33198Y11777D02*
D03*
X14072Y17995D02*
D03*
X22130Y27668D02*
D03*
Y28068D02*
D03*
X21776D02*
D03*
X13797Y14023D02*
D03*
X33198Y12177D02*
D03*
X14072Y17595D02*
D03*
X10917Y17195D02*
D03*
X11272D02*
D03*
X22130Y28868D02*
D03*
X13797Y12423D02*
D03*
X34348Y10753D02*
D03*
X32843Y11377D02*
D03*
X33198D02*
D03*
Y10977D02*
D03*
X12926Y17095D02*
D03*
X12172Y16695D02*
D03*
X12926D02*
D03*
X12572D02*
D03*
X22130Y27268D02*
D03*
X14151Y13223D02*
D03*
X13797D02*
D03*
X10594Y13765D02*
D03*
X12647Y12200D02*
D03*
X11272Y18795D02*
D03*
X10917D02*
D03*
X11272Y19595D02*
D03*
X33198Y10577D02*
D03*
X14151Y12023D02*
D03*
X13797D02*
D03*
X12172Y17095D02*
D03*
X22130Y26868D02*
D03*
X13797Y12823D02*
D03*
X14072Y18395D02*
D03*
X22130Y28468D02*
D03*
X14426Y17195D02*
D03*
X14072D02*
D03*
X11272Y17595D02*
D03*
X13797Y13623D02*
D03*
X11272Y17995D02*
D03*
X32843Y12577D02*
D03*
X33198D02*
D03*
X10864Y32132D02*
D03*
X31800Y35600D02*
D03*
X36274Y7004D02*
D03*
X36628D02*
D03*
X23327Y35244D02*
D03*
X24508Y35246D02*
D03*
X10799Y5704D02*
D03*
X11199D02*
D03*
X10494Y32129D02*
D03*
X31800Y36300D02*
D03*
X35627Y27128D02*
D03*
X35272D02*
D03*
X8282Y7000D02*
D03*
X7927D02*
D03*
X9022Y7000D02*
D03*
X8667D02*
D03*
X10799Y5314D02*
D03*
X11199Y5316D02*
D03*
X37368Y7005D02*
D03*
X37014D02*
D03*
X28345Y27128D02*
D03*
X27991D02*
D03*
X32299D02*
D03*
X31945D02*
D03*
X30099Y29345D02*
D03*
X30453D02*
D03*
X11768Y21266D02*
D03*
X12123D02*
D03*
X28540Y36762D02*
D03*
X20200Y36500D02*
D03*
X17700D02*
D03*
X9223Y35300D02*
D03*
X13023Y30300D02*
D03*
X31800Y37000D02*
D03*
X8246Y31933D02*
D03*
X9224Y34841D02*
D03*
X13023Y29500D02*
D03*
D19*
X9800Y36000D02*
D03*
X9446D02*
D03*
X10954D02*
D03*
X23446Y34800D02*
D03*
X24454D02*
D03*
X10600Y36000D02*
D03*
X23800Y34800D02*
D03*
X24100D02*
D03*
D20*
X9804Y36644D02*
D03*
X10198D02*
D03*
X10592D02*
D03*
D21*
X26390Y36445D02*
D03*
Y36701D02*
D03*
X7400Y6744D02*
D03*
X35746Y6749D02*
D03*
X7400Y7000D02*
D03*
X35746Y7004D02*
D03*
D22*
X5118Y5570D02*
D03*
X33465D02*
D03*
D23*
X40127Y33123D02*
D03*
Y33477D02*
D03*
X9404Y6646D02*
D03*
X12000Y5346D02*
D03*
X10794Y13010D02*
D03*
X12472Y20295D02*
D03*
X9000Y29362D02*
D03*
X9800D02*
D03*
X9400D02*
D03*
X7800D02*
D03*
X8600D02*
D03*
X8200D02*
D03*
X11000D02*
D03*
X27899Y33015D02*
D03*
X11400Y29362D02*
D03*
X10200D02*
D03*
X10600D02*
D03*
X11800D02*
D03*
X12200D02*
D03*
X11100Y32846D02*
D03*
Y33954D02*
D03*
X17701Y22553D02*
D03*
X18101D02*
D03*
X13700Y36300D02*
D03*
X14426Y36300D02*
D03*
X15300Y36300D02*
D03*
X16976Y32041D02*
D03*
X17360D02*
D03*
X18952Y26187D02*
D03*
X19301Y22553D02*
D03*
X19752Y26187D02*
D03*
X22638Y23601D02*
D03*
X23438D02*
D03*
X25135Y22272D02*
D03*
X21492Y31978D02*
D03*
X24700Y33016D02*
D03*
X25142Y30169D02*
D03*
X25100Y33016D02*
D03*
X26134Y5535D02*
D03*
X27334D02*
D03*
X27734D02*
D03*
X37751Y6650D02*
D03*
X40346Y5350D02*
D03*
X39997Y12860D02*
D03*
X40248Y14538D02*
D03*
X39297Y15905D02*
D03*
Y17105D02*
D03*
X40497D02*
D03*
X41697D02*
D03*
X26335Y22272D02*
D03*
X26735D02*
D03*
X29391Y25972D02*
D03*
X29791D02*
D03*
X30591D02*
D03*
X31927Y24463D02*
D03*
X32727D02*
D03*
X33527D02*
D03*
X34327D02*
D03*
X35127D02*
D03*
X30300Y33016D02*
D03*
X30700D02*
D03*
X26300D02*
D03*
X25500D02*
D03*
X25900D02*
D03*
X26700D02*
D03*
X28300D02*
D03*
X27100D02*
D03*
X27500D02*
D03*
X28700D02*
D03*
X31404Y29235D02*
D03*
X31100Y33016D02*
D03*
X31500D02*
D03*
X31900D02*
D03*
X39397Y20960D02*
D03*
X39797D02*
D03*
X38997D02*
D03*
X40176Y25246D02*
D03*
X40576D02*
D03*
X42197Y20960D02*
D03*
X41776Y25246D02*
D03*
X41797Y20960D02*
D03*
X40176Y26842D02*
D03*
X41376D02*
D03*
X41776D02*
D03*
X12872Y20295D02*
D03*
X18217Y20091D02*
D03*
X27216Y8011D02*
D03*
X15354Y3727D02*
D03*
X43701Y3732D02*
D03*
X22200Y3495D02*
D03*
Y3850D02*
D03*
X14426Y35946D02*
D03*
X11248Y31333D02*
D03*
X12200Y30216D02*
D03*
Y30570D02*
D03*
X11800Y30216D02*
D03*
Y30570D02*
D03*
X11400Y30216D02*
D03*
Y30570D02*
D03*
Y29716D02*
D03*
X10600D02*
D03*
X10200Y30216D02*
D03*
Y30570D02*
D03*
X12200Y29716D02*
D03*
X10200D02*
D03*
X11800D02*
D03*
X10600Y30216D02*
D03*
Y30570D02*
D03*
X25935Y22272D02*
D03*
X25535D02*
D03*
X18901Y22553D02*
D03*
X26934Y5535D02*
D03*
X26534D02*
D03*
X21493Y33055D02*
D03*
X21846D02*
D03*
X15300Y35946D02*
D03*
X17710Y30692D02*
D03*
X24100Y2141D02*
D03*
X21200D02*
D03*
X13700Y35946D02*
D03*
X8900Y34123D02*
D03*
X11248Y31687D02*
D03*
X11618D02*
D03*
X17360Y32395D02*
D03*
X16976D02*
D03*
X17710Y31046D02*
D03*
X11000Y30570D02*
D03*
X25900Y34125D02*
D03*
X28300D02*
D03*
X41297Y17105D02*
D03*
X9000Y30570D02*
D03*
X27899Y34130D02*
D03*
X25500Y34125D02*
D03*
X25800Y3850D02*
D03*
X24500Y2141D02*
D03*
X30300Y34125D02*
D03*
X9400Y30570D02*
D03*
X8600D02*
D03*
X27500Y34125D02*
D03*
X29900D02*
D03*
X25100D02*
D03*
X27100D02*
D03*
X31900D02*
D03*
X9800Y30570D02*
D03*
X24700Y34125D02*
D03*
X8900Y34477D02*
D03*
X29500Y34125D02*
D03*
X31500D02*
D03*
X26700D02*
D03*
X29100D02*
D03*
X7800Y30570D02*
D03*
X26300Y34125D02*
D03*
X11500Y32846D02*
D03*
X31100Y34125D02*
D03*
X8200Y30570D02*
D03*
X11100Y33600D02*
D03*
X22900Y3850D02*
D03*
X21600Y2141D02*
D03*
X11618Y31333D02*
D03*
X28700Y34125D02*
D03*
X30700D02*
D03*
X15354Y4082D02*
D03*
X43701Y4086D02*
D03*
X25142Y29815D02*
D03*
X25542Y30169D02*
D03*
Y29815D02*
D03*
X17301Y22553D02*
D03*
X28134Y5535D02*
D03*
X27135Y22272D02*
D03*
X40746Y5350D02*
D03*
X12400Y5346D02*
D03*
X17934Y27028D02*
D03*
Y27382D02*
D03*
X19752Y26541D02*
D03*
X20152D02*
D03*
Y26187D02*
D03*
X18952Y26541D02*
D03*
X19356Y26183D02*
D03*
Y26537D02*
D03*
X30991Y25972D02*
D03*
X30191D02*
D03*
X23838Y23601D02*
D03*
X7800Y30216D02*
D03*
Y29716D02*
D03*
X39297Y17460D02*
D03*
X39997Y13969D02*
D03*
Y13615D02*
D03*
X40097Y17105D02*
D03*
Y17460D02*
D03*
X39397Y20605D02*
D03*
X40248Y14892D02*
D03*
X39697Y16260D02*
D03*
Y15905D02*
D03*
X42597Y20960D02*
D03*
Y20605D02*
D03*
X39697Y17460D02*
D03*
Y17105D02*
D03*
X28700Y33370D02*
D03*
X41797Y20605D02*
D03*
X40497Y17460D02*
D03*
X38597Y20960D02*
D03*
Y20605D02*
D03*
X28300Y33370D02*
D03*
X40597Y21405D02*
D03*
Y21051D02*
D03*
X40648Y14892D02*
D03*
Y14538D02*
D03*
X38997Y20605D02*
D03*
X30300Y33370D02*
D03*
X42542Y12995D02*
D03*
Y13350D02*
D03*
X39797Y20605D02*
D03*
X40997Y21405D02*
D03*
Y21051D02*
D03*
X41297Y17460D02*
D03*
X41697D02*
D03*
X42197Y20605D02*
D03*
X40900Y17456D02*
D03*
Y17101D02*
D03*
X39297Y16260D02*
D03*
X39997Y13215D02*
D03*
X17701Y22199D02*
D03*
X18101D02*
D03*
X17301D02*
D03*
X18901D02*
D03*
X18501D02*
D03*
Y22553D02*
D03*
X26934Y5889D02*
D03*
X27334D02*
D03*
X11000Y29716D02*
D03*
X18217Y20445D02*
D03*
X19301Y22199D02*
D03*
X26134Y5889D02*
D03*
X26534D02*
D03*
X27216Y7656D02*
D03*
X27734Y5889D02*
D03*
X28134D02*
D03*
X29100Y33770D02*
D03*
X29500D02*
D03*
X29900D02*
D03*
X31804Y29235D02*
D03*
Y28881D02*
D03*
X31404D02*
D03*
X27899Y33369D02*
D03*
X29791Y26327D02*
D03*
X29391D02*
D03*
X27899Y33775D02*
D03*
X32327Y24817D02*
D03*
Y24463D02*
D03*
X35527Y24817D02*
D03*
Y24463D02*
D03*
X27500Y33370D02*
D03*
X31927Y24817D02*
D03*
X25100Y33370D02*
D03*
X33127Y24817D02*
D03*
Y24463D02*
D03*
X32727Y24817D02*
D03*
X34327D02*
D03*
X35127D02*
D03*
X25900Y33370D02*
D03*
X33527Y24817D02*
D03*
X26700Y33370D02*
D03*
X26300D02*
D03*
X27100D02*
D03*
X24700D02*
D03*
X33927Y24817D02*
D03*
Y24463D02*
D03*
X34727Y24817D02*
D03*
Y24463D02*
D03*
X25500Y33370D02*
D03*
X30700D02*
D03*
X31900D02*
D03*
X41376Y27196D02*
D03*
X40976Y26842D02*
D03*
Y27196D02*
D03*
Y25246D02*
D03*
Y24891D02*
D03*
X41776Y27196D02*
D03*
X40576Y24891D02*
D03*
X40176Y26000D02*
D03*
Y25646D02*
D03*
X31100Y33370D02*
D03*
X41376Y25246D02*
D03*
Y24891D02*
D03*
X41776Y26088D02*
D03*
Y26442D02*
D03*
Y24891D02*
D03*
X40176Y27196D02*
D03*
Y24891D02*
D03*
X31500Y33370D02*
D03*
X40576Y26842D02*
D03*
Y27196D02*
D03*
X28300Y33770D02*
D03*
X28700D02*
D03*
X25535Y22627D02*
D03*
X9000Y29716D02*
D03*
X10794Y13365D02*
D03*
X26335Y22627D02*
D03*
X23038Y23955D02*
D03*
Y23601D02*
D03*
X33314Y17906D02*
D03*
Y17552D02*
D03*
X27135Y22627D02*
D03*
X25935D02*
D03*
X23438Y23955D02*
D03*
X33314Y17152D02*
D03*
Y16797D02*
D03*
X26735Y22627D02*
D03*
X8600Y29716D02*
D03*
X12872Y19940D02*
D03*
X12472D02*
D03*
X22638Y23955D02*
D03*
X25135Y22627D02*
D03*
X23838Y23955D02*
D03*
X9400Y29716D02*
D03*
X9800D02*
D03*
X8200D02*
D03*
X9800Y30216D02*
D03*
X9400D02*
D03*
X21200Y2495D02*
D03*
X24100D02*
D03*
X21600D02*
D03*
X24500D02*
D03*
X39050Y34463D02*
D03*
Y34817D02*
D03*
X27500Y33770D02*
D03*
X12400Y5700D02*
D03*
X12000D02*
D03*
X9404Y7000D02*
D03*
X40746Y5704D02*
D03*
X40346D02*
D03*
X37751Y7004D02*
D03*
X30191Y26327D02*
D03*
X30991D02*
D03*
X30591D02*
D03*
X21846Y32701D02*
D03*
X21492Y32333D02*
D03*
X21493Y32701D02*
D03*
X11000Y30216D02*
D03*
X9000D02*
D03*
X8600D02*
D03*
X8200D02*
D03*
X24700Y33770D02*
D03*
X25100D02*
D03*
X25500D02*
D03*
X25900D02*
D03*
X26300D02*
D03*
X26700D02*
D03*
X27100D02*
D03*
X30300D02*
D03*
X30700D02*
D03*
X31100D02*
D03*
X22900Y3495D02*
D03*
X31500Y33770D02*
D03*
X11100Y33200D02*
D03*
X11500D02*
D03*
X25100Y3872D02*
D03*
Y3518D02*
D03*
X31900Y33770D02*
D03*
X25800Y3495D02*
D03*
D24*
X10600Y6803D02*
D03*
Y6606D02*
D03*
Y7197D02*
D03*
X12096D02*
D03*
Y6606D02*
D03*
Y6803D02*
D03*
X10600Y7394D02*
D03*
X12096D02*
D03*
X22682Y25033D02*
D03*
Y25624D02*
D03*
Y25427D02*
D03*
Y24837D02*
D03*
X24178Y25033D02*
D03*
Y24837D02*
D03*
Y25427D02*
D03*
Y25624D02*
D03*
X18604Y27422D02*
D03*
Y27619D02*
D03*
X20100Y27422D02*
D03*
Y27619D02*
D03*
X22682D02*
D03*
Y27816D02*
D03*
X18604Y28013D02*
D03*
Y28210D02*
D03*
X20100Y28013D02*
D03*
Y28210D02*
D03*
X24178Y27619D02*
D03*
Y27422D02*
D03*
Y28013D02*
D03*
Y28210D02*
D03*
X38946Y6611D02*
D03*
Y6808D02*
D03*
Y7201D02*
D03*
X40443Y6611D02*
D03*
Y7201D02*
D03*
Y6808D02*
D03*
X38946Y7398D02*
D03*
X40443D02*
D03*
X18604Y27816D02*
D03*
X20100D02*
D03*
X22682Y27422D02*
D03*
Y28013D02*
D03*
Y28210D02*
D03*
X24178Y27816D02*
D03*
X22682Y25230D02*
D03*
X24178D02*
D03*
X12096Y7000D02*
D03*
X10600D02*
D03*
X40443Y7005D02*
D03*
X38946D02*
D03*
D25*
X13543Y1102D02*
D03*
X17165Y1102D02*
D03*
X41890Y1102D02*
D03*
X45512Y1102D02*
D03*
D26*
X11348Y6252D02*
D03*
X11545D02*
D03*
X10954Y7748D02*
D03*
X11151D02*
D03*
X11742D02*
D03*
X11545D02*
D03*
X23036Y24482D02*
D03*
X23430D02*
D03*
X23627D02*
D03*
X23036Y25978D02*
D03*
X23233D02*
D03*
X23627D02*
D03*
X23824D02*
D03*
X19155Y27068D02*
D03*
X19549D02*
D03*
X19352D02*
D03*
X19155Y28564D02*
D03*
X18958D02*
D03*
X19549D02*
D03*
X19746D02*
D03*
X23233Y27068D02*
D03*
X23627D02*
D03*
X23036D02*
D03*
X23824D02*
D03*
Y28564D02*
D03*
X23036D02*
D03*
X23627D02*
D03*
X23233D02*
D03*
X39694Y6257D02*
D03*
X39891D02*
D03*
X39301Y7753D02*
D03*
X39891D02*
D03*
X40088D02*
D03*
X39498D02*
D03*
Y6257D02*
D03*
X39301D02*
D03*
X19352Y28564D02*
D03*
X19746Y27068D02*
D03*
X18958D02*
D03*
X23430Y28564D02*
D03*
X23233Y24482D02*
D03*
X23430Y27068D02*
D03*
X23824Y24482D02*
D03*
X23430Y25978D02*
D03*
X11348Y7748D02*
D03*
X10954Y6252D02*
D03*
X11151D02*
D03*
X11742D02*
D03*
X39694Y7753D02*
D03*
X40088Y6257D02*
D03*
D27*
X15098Y3200D02*
D03*
X43445Y3204D02*
D03*
X15354Y3200D02*
D03*
X43701Y3204D02*
D03*
D28*
X11348Y7000D02*
D03*
X23430Y25230D02*
D03*
X19352Y27816D02*
D03*
X39694Y7005D02*
D03*
D29*
X12598Y12947D02*
D03*
X17922Y21286D02*
D03*
X18670D02*
D03*
X17317Y26758D02*
D03*
X18670Y21601D02*
D03*
X26765Y6802D02*
D03*
Y6487D02*
D03*
X27513Y6802D02*
D03*
X34397Y11652D02*
D03*
X25766Y23225D02*
D03*
Y23540D02*
D03*
X26514D02*
D03*
X40702Y23967D02*
D03*
X41450D02*
D03*
Y24282D02*
D03*
X40502Y28121D02*
D03*
Y27806D02*
D03*
X41250Y28121D02*
D03*
X12598Y13105D02*
D03*
X13346D02*
D03*
Y12947D02*
D03*
X27513Y6487D02*
D03*
Y6644D02*
D03*
Y6959D02*
D03*
X26765Y6644D02*
D03*
Y6959D02*
D03*
X17317Y26601D02*
D03*
X16569Y26758D02*
D03*
Y26601D02*
D03*
X17922Y21444D02*
D03*
X41450Y23809D02*
D03*
X41250Y28278D02*
D03*
X18670Y21444D02*
D03*
Y21129D02*
D03*
X17922D02*
D03*
Y21601D02*
D03*
X25766Y23382D02*
D03*
X41450Y24124D02*
D03*
X40702Y23809D02*
D03*
Y24124D02*
D03*
Y24282D02*
D03*
X40502Y27963D02*
D03*
Y28278D02*
D03*
X41250Y27963D02*
D03*
Y27806D02*
D03*
X26514Y23225D02*
D03*
Y23382D02*
D03*
Y23697D02*
D03*
X25766D02*
D03*
X33649Y11652D02*
D03*
Y11494D02*
D03*
X34397D02*
D03*
D30*
X12893Y12652D02*
D03*
Y13400D02*
D03*
X13208Y12652D02*
D03*
X18375Y20991D02*
D03*
X17022Y26305D02*
D03*
X16707Y27053D02*
D03*
X17022D02*
D03*
X27060Y7097D02*
D03*
X34101Y11199D02*
D03*
X33786Y11947D02*
D03*
X34101D02*
D03*
X26061Y23835D02*
D03*
X41155Y23672D02*
D03*
X40797Y28416D02*
D03*
X12736Y12652D02*
D03*
Y13400D02*
D03*
X13051D02*
D03*
X13208D02*
D03*
X13051Y12652D02*
D03*
X27060Y6349D02*
D03*
X27217D02*
D03*
Y7097D02*
D03*
X16864Y27053D02*
D03*
X16707Y26305D02*
D03*
X16864D02*
D03*
X17179D02*
D03*
Y27053D02*
D03*
X18217Y20991D02*
D03*
Y21739D02*
D03*
X18375D02*
D03*
X33944Y11199D02*
D03*
X40997Y23672D02*
D03*
Y24420D02*
D03*
X41155D02*
D03*
X40955Y28416D02*
D03*
Y27668D02*
D03*
X40797D02*
D03*
X26061Y23087D02*
D03*
X26218D02*
D03*
Y23835D02*
D03*
X33786Y11199D02*
D03*
X34259D02*
D03*
Y11947D02*
D03*
X33944D02*
D03*
D31*
X12972Y13026D02*
D03*
X16943Y26679D02*
D03*
X34023Y11573D02*
D03*
D32*
X18217Y9480D02*
D03*
X20217D02*
D03*
X19217D02*
D03*
X21217D02*
D03*
X22217D02*
D03*
X23217D02*
D03*
X24217D02*
D03*
X25217D02*
D03*
X20217Y18583D02*
D03*
X19217D02*
D03*
X22217D02*
D03*
X21217D02*
D03*
X23217D02*
D03*
X24217D02*
D03*
X25217D02*
D03*
X26217Y9480D02*
D03*
X28217D02*
D03*
X29217D02*
D03*
X26217Y18583D02*
D03*
X28217D02*
D03*
X29217D02*
D03*
X27217Y9480D02*
D03*
Y18583D02*
D03*
X18217D02*
D03*
D33*
X22200Y2400D02*
D03*
X22900D02*
D03*
X11623Y22357D02*
D03*
X25100Y2400D02*
D03*
X25800D02*
D03*
X40497Y13324D02*
D03*
X44442Y11486D02*
D03*
X28621Y29587D02*
D03*
X26221Y30168D02*
D03*
X29953Y30435D02*
D03*
X32483Y29234D02*
D03*
X33304Y30028D02*
D03*
X34883Y28653D02*
D03*
X39542Y33101D02*
D03*
X40705Y35939D02*
D03*
X39542Y34817D02*
D03*
Y34227D02*
D03*
X26221Y29577D02*
D03*
X28621Y30177D02*
D03*
X34883Y29243D02*
D03*
X29353Y29845D02*
D03*
X41783Y14774D02*
D03*
Y15364D02*
D03*
X40497Y13915D02*
D03*
X44442Y10895D02*
D03*
X39497Y13905D02*
D03*
Y13315D02*
D03*
X32483Y28643D02*
D03*
X22200Y2991D02*
D03*
X22900D02*
D03*
X25100D02*
D03*
X25800D02*
D03*
X28888Y27128D02*
D03*
Y26538D02*
D03*
X41326Y35943D02*
D03*
Y35352D02*
D03*
X40705Y35349D02*
D03*
X39542Y33692D02*
D03*
X29353Y30435D02*
D03*
X29953Y29845D02*
D03*
X33304Y30619D02*
D03*
X11023Y22357D02*
D03*
Y21766D02*
D03*
X11623D02*
D03*
D34*
X23717Y14032D02*
D03*
D35*
X12672Y18495D02*
D03*
D36*
X11904Y18623D02*
D03*
Y18879D02*
D03*
X13439Y18623D02*
D03*
Y18879D02*
D03*
X11904Y18367D02*
D03*
Y18111D02*
D03*
X13439D02*
D03*
Y18367D02*
D03*
D37*
X13056Y17727D02*
D03*
X12288D02*
D03*
X12544D02*
D03*
X12800D02*
D03*
X13056Y19262D02*
D03*
X12800D02*
D03*
X12544D02*
D03*
X12288D02*
D03*
D38*
X18296Y21365D02*
D03*
X27139Y6723D02*
D03*
X26140Y23461D02*
D03*
X41076Y24046D02*
D03*
X40876Y28042D02*
D03*
D39*
X9556Y31136D02*
D03*
Y31726D02*
D03*
Y31333D02*
D03*
Y31530D02*
D03*
X10737D02*
D03*
Y31726D02*
D03*
Y31136D02*
D03*
Y31333D02*
D03*
D40*
X13032Y22540D02*
D03*
X31363Y30619D02*
D03*
X32544D02*
D03*
Y30245D02*
D03*
Y29871D02*
D03*
X31363D02*
D03*
Y30245D02*
D03*
X14213Y22540D02*
D03*
Y22166D02*
D03*
Y21792D02*
D03*
X13032D02*
D03*
Y22166D02*
D03*
D41*
X12323Y22466D02*
D03*
X42583Y15477D02*
D03*
Y16786D02*
D03*
X30653Y30545D02*
D03*
X28717Y35546D02*
D03*
X37691Y34363D02*
D03*
Y35072D02*
D03*
X28717Y36255D02*
D03*
X42583Y14768D02*
D03*
Y16077D02*
D03*
X30653Y29836D02*
D03*
X12323Y21758D02*
D03*
D42*
X13623Y22166D02*
D03*
X31953Y30245D02*
D03*
D43*
X9811Y33100D02*
D03*
X10500Y34006D02*
D03*
X9811D02*
D03*
X10500Y33100D02*
D03*
D44*
X6205Y38000D02*
D03*
Y37400D02*
D03*
X13632Y23166D02*
D03*
X32895Y34900D02*
D03*
X38497Y18005D02*
D03*
X41384Y12198D02*
D03*
X43633Y13495D02*
D03*
X32895Y36300D02*
D03*
Y37000D02*
D03*
Y35600D02*
D03*
X38497Y18605D02*
D03*
Y19605D02*
D03*
X37444Y33740D02*
D03*
X36423Y35314D02*
D03*
X40732Y36506D02*
D03*
X32305Y34900D02*
D03*
X6795Y38000D02*
D03*
Y37400D02*
D03*
X33864Y35296D02*
D03*
X36854Y33740D02*
D03*
X37013Y35314D02*
D03*
X34454Y35296D02*
D03*
X25021Y29277D02*
D03*
X25612D02*
D03*
X31874Y28343D02*
D03*
X39088Y19605D02*
D03*
Y18605D02*
D03*
X43042Y13495D02*
D03*
Y14095D02*
D03*
X43633D02*
D03*
X39088Y18005D02*
D03*
X41975Y12198D02*
D03*
X31283Y28343D02*
D03*
X32305Y35600D02*
D03*
Y36300D02*
D03*
Y37000D02*
D03*
X44534Y35755D02*
D03*
X45124D02*
D03*
X40135Y35387D02*
D03*
X39545D02*
D03*
X41322Y36506D02*
D03*
X14223Y23166D02*
D03*
D45*
X9292Y38170D02*
D03*
X11103D02*
D03*
D46*
X10146Y31431D02*
D03*
D47*
X14426Y33400D02*
D03*
D48*
X16375Y32061D02*
D03*
Y34108D02*
D03*
Y33163D02*
D03*
Y33006D02*
D03*
Y34266D02*
D03*
X12477Y34423D02*
D03*
Y33636D02*
D03*
Y34896D02*
D03*
Y34738D02*
D03*
Y34581D02*
D03*
Y34266D02*
D03*
Y34108D02*
D03*
Y33951D02*
D03*
Y33793D02*
D03*
Y33478D02*
D03*
Y33321D02*
D03*
Y33163D02*
D03*
Y33006D02*
D03*
Y32848D02*
D03*
Y32691D02*
D03*
Y32534D02*
D03*
Y32376D02*
D03*
Y32219D02*
D03*
Y32061D02*
D03*
Y31904D02*
D03*
X16375D02*
D03*
Y32219D02*
D03*
Y32376D02*
D03*
Y32534D02*
D03*
Y32691D02*
D03*
Y32848D02*
D03*
Y33321D02*
D03*
Y33636D02*
D03*
Y33793D02*
D03*
Y33951D02*
D03*
Y34423D02*
D03*
Y34581D02*
D03*
Y34738D02*
D03*
Y34896D02*
D03*
Y33478D02*
D03*
D49*
X17228Y37287D02*
D03*
X18172D02*
D03*
X19728D02*
D03*
X20672D02*
D03*
D50*
X19373Y35128D02*
D03*
X20873Y32333D02*
D03*
X20373D02*
D03*
X19873D02*
D03*
X19373D02*
D03*
X19873Y35128D02*
D03*
X20373D02*
D03*
X20873D02*
D03*
D51*
X22756Y35979D02*
D03*
X25276D02*
D03*
X23071D02*
D03*
X24961D02*
D03*
D52*
X23430Y27816D02*
D03*
D53*
X41597Y12915D02*
D03*
X41223D02*
D03*
X41971D02*
D03*
Y13899D02*
D03*
X41223D02*
D03*
D54*
X43442Y11495D02*
D03*
D55*
X43742Y12795D02*
D03*
X35729Y35394D02*
D03*
X45390Y33239D02*
D03*
X42648Y35854D02*
D03*
X43253Y35854D02*
D03*
X35020Y35394D02*
D03*
X41940Y35854D02*
D03*
X43033Y12795D02*
D03*
X43962Y35854D02*
D03*
X44681Y33239D02*
D03*
D56*
X43816Y12086D02*
D03*
X43442D02*
D03*
X43068D02*
D03*
Y10905D02*
D03*
X43442D02*
D03*
X43816D02*
D03*
D57*
X40897Y15515D02*
D03*
X40248Y16105D02*
D03*
X40897D02*
D03*
X40248Y15515D02*
D03*
D58*
X40507Y18064D02*
D03*
X41294D02*
D03*
X41097Y19993D02*
D03*
X41491D02*
D03*
X41294D02*
D03*
X40900D02*
D03*
X40703D02*
D03*
X40507D02*
D03*
X40310D02*
D03*
X40113D02*
D03*
Y18064D02*
D03*
X40310D02*
D03*
X40703D02*
D03*
X40900D02*
D03*
X41097D02*
D03*
X41491D02*
D03*
D59*
X43483Y16770D02*
D03*
Y14959D02*
D03*
Y15864D02*
D03*
D60*
X27625Y23484D02*
D03*
X27342Y23697D02*
D03*
D61*
X29678Y26932D02*
D03*
Y27325D02*
D03*
X30504D02*
D03*
Y27522D02*
D03*
X29678D02*
D03*
Y27128D02*
D03*
X30504D02*
D03*
Y26932D02*
D03*
D62*
X33727Y26833D02*
D03*
D63*
X32939Y26932D02*
D03*
Y27325D02*
D03*
X34514Y26735D02*
D03*
Y26932D02*
D03*
Y27325D02*
D03*
Y26341D02*
D03*
Y26538D02*
D03*
Y27128D02*
D03*
X32939D02*
D03*
Y26735D02*
D03*
Y26538D02*
D03*
Y26341D02*
D03*
D64*
X27905Y29851D02*
D03*
X34167Y28917D02*
D03*
X26921Y29477D02*
D03*
Y30225D02*
D03*
X27905D02*
D03*
Y29477D02*
D03*
X34167Y28543D02*
D03*
Y29291D02*
D03*
X33183D02*
D03*
Y28543D02*
D03*
D65*
X30091Y27227D02*
D03*
D66*
X33235Y27620D02*
D03*
X33825D02*
D03*
X33628D02*
D03*
X34219D02*
D03*
X34022D02*
D03*
X33431D02*
D03*
X33235Y26046D02*
D03*
X33431D02*
D03*
X33628D02*
D03*
X33825D02*
D03*
X34022D02*
D03*
X34219D02*
D03*
D67*
X39837Y18930D02*
D03*
Y19520D02*
D03*
X41766Y19717D02*
D03*
Y18339D02*
D03*
Y18536D02*
D03*
Y18733D02*
D03*
Y18930D02*
D03*
Y19127D02*
D03*
Y19324D02*
D03*
Y19520D02*
D03*
X39837Y19717D02*
D03*
Y19324D02*
D03*
Y19127D02*
D03*
Y18733D02*
D03*
Y18536D02*
D03*
Y18339D02*
D03*
D68*
X40802Y19028D02*
D03*
D69*
X38665Y25761D02*
D03*
Y26338D02*
D03*
X39236D02*
D03*
Y25761D02*
D03*
D70*
X36989Y34276D02*
D03*
X36851Y34552D02*
D03*
X36989D02*
D03*
X36851Y34414D02*
D03*
X36989D02*
D03*
X36851Y34276D02*
D03*
D71*
X40193Y34086D02*
D03*
Y34282D02*
D03*
Y33889D02*
D03*
X41374Y34676D02*
D03*
Y34479D02*
D03*
X40193Y34873D02*
D03*
Y34676D02*
D03*
Y34479D02*
D03*
X41374Y33889D02*
D03*
Y34086D02*
D03*
Y34282D02*
D03*
Y34873D02*
D03*
D72*
X40784Y34381D02*
D03*
D73*
X42593Y25807D02*
D03*
X43719D02*
D03*
Y26299D02*
D03*
X42593D02*
D03*
X43995Y25807D02*
D03*
Y26299D02*
D03*
X42869Y25807D02*
D03*
Y26299D02*
D03*
D74*
X2500Y23952D02*
D03*
D75*
X15354Y1102D02*
D03*
X43701D02*
D03*
D76*
X13087Y31451D02*
D03*
X14977Y35348D02*
D03*
X15134D02*
D03*
X15607D02*
D03*
X15764D02*
D03*
X15922D02*
D03*
X15292D02*
D03*
X15764Y31451D02*
D03*
X15922D02*
D03*
X14347D02*
D03*
X13717Y35348D02*
D03*
X12930Y31451D02*
D03*
X15449Y35348D02*
D03*
X14819D02*
D03*
X14662D02*
D03*
X14504D02*
D03*
X14347D02*
D03*
X14189D02*
D03*
X14032D02*
D03*
X13875D02*
D03*
X13560D02*
D03*
X13402D02*
D03*
X13245D02*
D03*
X13087D02*
D03*
X12930D02*
D03*
X13245Y31451D02*
D03*
X13402D02*
D03*
X13560D02*
D03*
X13717D02*
D03*
X13875D02*
D03*
X14032D02*
D03*
X14189D02*
D03*
X14504D02*
D03*
X14662D02*
D03*
X14819D02*
D03*
X14977D02*
D03*
X15134D02*
D03*
X15292D02*
D03*
X15449D02*
D03*
X15607D02*
D03*
D77*
X20806Y3395D02*
D03*
X23706D02*
D03*
X21594Y3769D02*
D03*
Y3021D02*
D03*
X24494Y3769D02*
D03*
Y3021D02*
D03*
D78*
X12600Y30677D02*
D03*
Y30323D02*
D03*
D79*
X18131Y31824D02*
D03*
Y32612D02*
D03*
D80*
X18756Y32609D02*
D03*
X34634Y35801D02*
D03*
X28077Y35325D02*
D03*
X24704Y29826D02*
D03*
X41980Y16702D02*
D03*
X39500Y12860D02*
D03*
X40897Y16605D02*
D03*
X44092Y14099D02*
D03*
X30966Y28892D02*
D03*
X29349Y30894D02*
D03*
X44488Y36258D02*
D03*
X11019Y22816D02*
D03*
D81*
X24114Y35979D02*
D03*
X23720D02*
D03*
X23917D02*
D03*
X24311D02*
D03*
X24705D02*
D03*
X23327D02*
D03*
X23524D02*
D03*
X24508D02*
D03*
D82*
X36006Y33745D02*
D03*
Y34650D02*
D03*
D83*
X34508Y33549D02*
D03*
Y34632D02*
D03*
X42549Y35083D02*
D03*
X44342D02*
D03*
Y34000D02*
D03*
X42549D02*
D03*
D84*
X28063Y35804D02*
D03*
Y36060D02*
D03*
Y36316D02*
D03*
Y36572D02*
D03*
D85*
X45884Y15864D02*
D03*
D86*
X43898Y32914D02*
D03*
X42107D02*
D03*
D87*
X26850Y35804D02*
D03*
Y36060D02*
D03*
Y36316D02*
D03*
Y36572D02*
D03*
D88*
X20200Y37287D02*
D03*
X17700D02*
D03*
D89*
X19491Y38113D02*
D03*
X20909D02*
D03*
X16991D02*
D03*
X18409D02*
D03*
D90*
X6693Y885D02*
D03*
X3543D02*
D03*
X6693Y5215D02*
D03*
X3543D02*
D03*
X35039Y885D02*
D03*
X31890D02*
D03*
X35039Y5215D02*
D03*
X31890D02*
D03*
D91*
X30951Y8897D02*
D03*
X15484Y10443D02*
D03*
X33760Y22146D02*
D03*
X16351Y20072D02*
D03*
X9000Y26812D02*
D03*
X20867Y23932D02*
D03*
X37205Y22539D02*
D03*
X36156Y9080D02*
D03*
X6496Y19390D02*
D03*
X15354Y15059D02*
D03*
X36417Y13976D02*
D03*
X46949Y37500D02*
D03*
X1083Y1083D02*
D03*
X37205Y30315D02*
D03*
X1083Y9350D02*
D03*
X46949Y22539D02*
D03*
X19193Y1083D02*
D03*
X30118Y37500D02*
D03*
X46949Y30610D02*
D03*
X28839Y1083D02*
D03*
X46949Y9350D02*
D03*
X1083Y37496D02*
D03*
X46949Y1083D02*
D03*
D92*
X5122Y34874D02*
D03*
X7878D02*
D03*
D93*
X7386Y35858D02*
D03*
X5614D02*
D03*
D94*
X22315Y37781D02*
D03*
X25717D02*
D03*
D95*
X22315Y36206D02*
D03*
X25717D02*
D03*
D96*
X21066Y37641D02*
D03*
X19334D02*
D03*
X18566D02*
D03*
X16834D02*
D03*
M02*
