  0
SECTION
  2
HEADER
  9
$ACADVER
  1
AC1024
  9
$ACADMAINTVER
 70
6
  9
$DWGCODEPAGE
  3
ANSI_1252
  9
$LASTSAVEDBY
  1
ezdxf
  9
$INSBASE
 10
0.0
 20
0.0
 30
0.0
  9
$EXTMIN
 10
1e+20
 20
1e+20
 30
1e+20
  9
$EXTMAX
 10
-1e+20
 20
-1e+20
 30
-1e+20
  9
$LIMMIN
 10
0.0
 20
0.0
  9
$LIMMAX
 10
420.0
 20
297.0
  9
$ORTHOMODE
 70
0
  9
$REGENMODE
 70
1
  9
$FILLMODE
 70
1
  9
$QTEXTMODE
 70
0
  9
$MIRRTEXT
 70
1
  9
$LTSCALE
 40
1.0
  9
$ATTMODE
 70
1
  9
$TEXTSIZE
 40
2.5
  9
$TRACEWID
 40
1.0
  9
$TEXTSTYLE
  7
Standard
  9
$CLAYER
  8
0
  9
$CELTYPE
  6
ByLayer
  9
$CECOLOR
 62
256
  9
$CELTSCALE
 40
1.0
  9
$DISPSILH
 70
0
  9
$DIMSCALE
 40
1.0
  9
$DIMASZ
 40
2.5
  9
$DIMEXO
 40
0.625
  9
$DIMDLI
 40
3.75
  9
$DIMRND
 40
0.0
  9
$DIMDLE
 40
0.0
  9
$DIMEXE
 40
1.25
  9
$DIMTP
 40
0.0
  9
$DIMTM
 40
0.0
  9
$DIMTXT
 40
2.5
  9
$DIMCEN
 40
2.5
  9
$DIMTSZ
 40
0.0
  9
$DIMTOL
 70
0
  9
$DIMLIM
 70
0
  9
$DIMTIH
 70
0
  9
$DIMTOH
 70
0
  9
$DIMSE1
 70
0
  9
$DIMSE2
 70
0
  9
$DIMTAD
 70
1
  9
$DIMZIN
 70
8
  9
$DIMBLK
  1

  9
$DIMASO
 70
1
  9
$DIMSHO
 70
1
  9
$DIMPOST
  1

  9
$DIMAPOST
  1

  9
$DIMALT
 70
0
  9
$DIMALTD
 70
3
  9
$DIMALTF
 40
0.03937007874
  9
$DIMLFAC
 40
1.0
  9
$DIMTOFL
 70
1
  9
$DIMTVP
 40
0.0
  9
$DIMTIX
 70
0
  9
$DIMSOXD
 70
0
  9
$DIMSAH
 70
0
  9
$DIMBLK1
  1

  9
$DIMBLK2
  1

  9
$DIMSTYLE
  2
ISO-25
  9
$DIMCLRD
 70
0
  9
$DIMCLRE
 70
0
  9
$DIMCLRT
 70
0
  9
$DIMTFAC
 40
1.0
  9
$DIMGAP
 40
0.625
  9
$DIMJUST
 70
0
  9
$DIMSD1
 70
0
  9
$DIMSD2
 70
0
  9
$DIMTOLJ
 70
0
  9
$DIMTZIN
 70
8
  9
$DIMALTZ
 70
0
  9
$DIMALTTZ
 70
0
  9
$DIMUPT
 70
0
  9
$DIMDEC
 70
2
  9
$DIMTDEC
 70
2
  9
$DIMALTU
 70
2
  9
$DIMALTTD
 70
3
  9
$DIMTXSTY
  7
Standard
  9
$DIMAUNIT
 70
0
  9
$DIMADEC
 70
0
  9
$DIMALTRND
 40
0.0
  9
$DIMAZIN
 70
0
  9
$DIMDSEP
 70
44
  9
$DIMATFIT
 70
3
  9
$DIMFRAC
 70
0
  9
$DIMLDRBLK
  1

  9
$DIMLUNIT
 70
2
  9
$DIMLWD
 70
-2
  9
$DIMLWE
 70
-2
  9
$DIMTMOVE
 70
0
  9
$DIMFXL
 40
1.0
  9
$DIMFXLON
 70
0
  9
$DIMJOGANG
 40
0.785398163397
  9
$DIMTFILL
 70
0
  9
$DIMTFILLCLR
 70
0
  9
$DIMARCSYM
 70
0
  9
$DIMLTYPE
  6

  9
$DIMLTEX1
  6

  9
$DIMLTEX2
  6

  9
$DIMTXTDIRECTION
 70
0
  9
$LUNITS
 70
2
  9
$LUPREC
 70
4
  9
$SKETCHINC
 40
1.0
  9
$FILLETRAD
 40
10.0
  9
$AUNITS
 70
0
  9
$AUPREC
 70
2
  9
$MENU
  1
.
  9
$ELEVATION
 40
0.0
  9
$PELEVATION
 40
0.0
  9
$THICKNESS
 40
0.0
  9
$LIMCHECK
 70
0
  9
$CHAMFERA
 40
0.0
  9
$CHAMFERB
 40
0.0
  9
$CHAMFERC
 40
0.0
  9
$CHAMFERD
 40
0.0
  9
$SKPOLY
 70
0
  9
$TDCREATE
 40
2461287.8893865743
  9
$TDUCREATE
 40
2458532.153996898
  9
$TDUPDATE
 40
2461287.8893981483
  9
$TDUUPDATE
 40
2458532.1544311
  9
$TDINDWG
 40
0.0
  9
$TDUSRTIMER
 40
0.0
  9
$USRTIMER
 70
1
  9
$ANGBASE
 50
0.0
  9
$ANGDIR
 70
0
  9
$PDMODE
 70
0
  9
$PDSIZE
 40
0.0
  9
$PLINEWID
 40
0.0
  9
$SPLFRAME
 70
0
  9
$SPLINETYPE
 70
6
  9
$SPLINESEGS
 70
8
  9
$HANDSEED
  5
14E
  9
$SURFTAB1
 70
6
  9
$SURFTAB2
 70
6
  9
$SURFTYPE
 70
6
  9
$SURFU
 70
6
  9
$SURFV
 70
6
  9
$UCSBASE
  2

  9
$UCSNAME
  2

  9
$UCSORG
 10
0.0
 20
0.0
 30
0.0
  9
$UCSXDIR
 10
1.0
 20
0.0
 30
0.0
  9
$UCSYDIR
 10
0.0
 20
1.0
 30
0.0
  9
$UCSORTHOREF
  2

  9
$UCSORTHOVIEW
 70
0
  9
$UCSORGTOP
 10
0.0
 20
0.0
 30
0.0
  9
$UCSORGBOTTOM
 10
0.0
 20
0.0
 30
0.0
  9
$UCSORGLEFT
 10
0.0
 20
0.0
 30
0.0
  9
$UCSORGRIGHT
 10
0.0
 20
0.0
 30
0.0
  9
$UCSORGFRONT
 10
0.0
 20
0.0
 30
0.0
  9
$UCSORGBACK
 10
0.0
 20
0.0
 30
0.0
  9
$PUCSBASE
  2

  9
$PUCSNAME
  2

  9
$PUCSORG
 10
0.0
 20
0.0
 30
0.0
  9
$PUCSXDIR
 10
1.0
 20
0.0
 30
0.0
  9
$PUCSYDIR
 10
0.0
 20
1.0
 30
0.0
  9
$PUCSORTHOREF
  2

  9
$PUCSORTHOVIEW
 70
0
  9
$PUCSORGTOP
 10
0.0
 20
0.0
 30
0.0
  9
$PUCSORGBOTTOM
 10
0.0
 20
0.0
 30
0.0
  9
$PUCSORGLEFT
 10
0.0
 20
0.0
 30
0.0
  9
$PUCSORGRIGHT
 10
0.0
 20
0.0
 30
0.0
  9
$PUCSORGFRONT
 10
0.0
 20
0.0
 30
0.0
  9
$PUCSORGBACK
 10
0.0
 20
0.0
 30
0.0
  9
$USERI1
 70
0
  9
$USERI2
 70
0
  9
$USERI3
 70
0
  9
$USERI4
 70
0
  9
$USERI5
 70
0
  9
$USERR1
 40
0.0
  9
$USERR2
 40
0.0
  9
$USERR3
 40
0.0
  9
$USERR4
 40
0.0
  9
$USERR5
 40
0.0
  9
$WORLDVIEW
 70
1
  9
$SHADEDGE
 70
3
  9
$SHADEDIF
 70
70
  9
$TILEMODE
 70
1
  9
$MAXACTVP
 70
64
  9
$PINSBASE
 10
0.0
 20
0.0
 30
0.0
  9
$PLIMCHECK
 70
0
  9
$PEXTMIN
 10
1e+20
 20
1e+20
 30
1e+20
  9
$PEXTMAX
 10
-1e+20
 20
-1e+20
 30
-1e+20
  9
$PLIMMIN
 10
0.0
 20
0.0
  9
$PLIMMAX
 10
420.0
 20
297.0
  9
$UNITMODE
 70
0
  9
$VISRETAIN
 70
1
  9
$PLINEGEN
 70
0
  9
$PSLTSCALE
 70
1
  9
$TREEDEPTH
 70
3020
  9
$CMLSTYLE
  2
Standard
  9
$CMLJUST
 70
0
  9
$CMLSCALE
 40
20.0
  9
$PROXYGRAPHICS
 70
1
  9
$MEASUREMENT
 70
1
  9
$CELWEIGHT
370
-1
  9
$ENDCAPS
280
0
  9
$JOINSTYLE
280
0
  9
$LWDISPLAY
290
0
  9
$INSUNITS
 70
6
  9
$HYPERLINKBASE
  1

  9
$STYLESHEET
  1

  9
$XEDIT
290
1
  9
$CEPSNTYPE
380
0
  9
$PSTYLEMODE
290
1
  9
$FINGERPRINTGUID
  2
{592EA851-3B2E-4A03-BD98-4B2A8F4734BD}
  9
$VERSIONGUID
  2
{15DF7978-70F2-40DD-BFD3-0A08F210A2EB}
  9
$EXTNAMES
290
1
  9
$PSVPSCALE
 40
0.0
  9
$OLESTARTUP
290
0
  9
$SORTENTS
280
127
  9
$INDEXCTL
280
0
  9
$HIDETEXT
280
1
  9
$XCLIPFRAME
280
1
  9
$HALOGAP
280
0
  9
$OBSCOLOR
 70
257
  9
$OBSLTYPE
280
0
  9
$INTERSECTIONDISPLAY
280
0
  9
$INTERSECTIONCOLOR
 70
257
  9
$DIMASSOC
280
2
  9
$PROJECTNAME
  1

  9
$CAMERADISPLAY
290
0
  9
$LENSLENGTH
 40
50.0
  9
$CAMERAHEIGHT
 40
0.0
  9
$STEPSPERSEC
 40
24.0
  9
$STEPSIZE
 40
100.0
  9
$3DDWFPREC
 40
2.0
  9
$PSOLWIDTH
 40
0.005
  9
$PSOLHEIGHT
 40
0.08
  9
$LOFTANG1
 40
1.570796326795
  9
$LOFTANG2
 40
1.570796326795
  9
$LOFTMAG1
 40
0.0
  9
$LOFTMAG2
 40
0.0
  9
$LOFTPARAM
 70
7
  9
$LOFTNORMALS
280
1
  9
$LATITUDE
 40
37.795
  9
$LONGITUDE
 40
-122.394
  9
$NORTHDIRECTION
 40
0.0
  9
$TIMEZONE
 70
-8000
  9
$LIGHTGLYPHDISPLAY
280
1
  9
$TILEMODELIGHTSYNCH
280
1
  9
$CMATERIAL
347
20
  9
$SOLIDHIST
280
0
  9
$SHOWHIST
280
1
  9
$DWFFRAME
280
2
  9
$DGNFRAME
280
2
  9
$REALWORLDSCALE
290
1
  9
$INTERFERECOLOR
 62
256
  9
$CSHADOW
280
0
  9
$SHADOWPLANELOCATION
 40
0.0
  0
ENDSEC
  0
SECTION
  2
CLASSES
  0
CLASS
  1
ACDBDICTIONARYWDFLT
  2
AcDbDictionaryWithDefault
  3
ObjectDBX Classes
 90
0
 91
0
280
0
281
0
  0
CLASS
  1
SUN
  2
AcDbSun
  3
SCENEOE
 90
1153
 91
0
280
0
281
0
  0
CLASS
  1
VISUALSTYLE
  2
AcDbVisualStyle
  3
ObjectDBX Classes
 90
4095
 91
0
280
0
281
0
  0
CLASS
  1
MATERIAL
  2
AcDbMaterial
  3
ObjectDBX Classes
 90
1153
 91
0
280
0
281
0
  0
CLASS
  1
SCALE
  2
AcDbScale
  3
ObjectDBX Classes
 90
1153
 91
0
280
0
281
0
  0
CLASS
  1
TABLESTYLE
  2
AcDbTableStyle
  3
ObjectDBX Classes
 90
4095
 91
0
280
0
281
0
  0
CLASS
  1
MLEADERSTYLE
  2
AcDbMLeaderStyle
  3
ACDB_MLEADERSTYLE_CLASS
 90
4095
 91
0
280
0
281
0
  0
CLASS
  1
DICTIONARYVAR
  2
AcDbDictionaryVar
  3
ObjectDBX Classes
 90
0
 91
0
280
0
281
0
  0
CLASS
  1
CELLSTYLEMAP
  2
AcDbCellStyleMap
  3
ObjectDBX Classes
 90
1152
 91
0
280
0
281
0
  0
CLASS
  1
MENTALRAYRENDERSETTINGS
  2
AcDbMentalRayRenderSettings
  3
SCENEOE
 90
1024
 91
0
280
0
281
0
  0
CLASS
  1
ACDBDETAILVIEWSTYLE
  2
AcDbDetailViewStyle
  3
ObjectDBX Classes
 90
1025
 91
0
280
0
281
0
  0
CLASS
  1
ACDBSECTIONVIEWSTYLE
  2
AcDbSectionViewStyle
  3
ObjectDBX Classes
 90
1025
 91
0
280
0
281
0
  0
CLASS
  1
RASTERVARIABLES
  2
AcDbRasterVariables
  3
ISM
 90
0
 91
0
280
0
281
0
  0
CLASS
  1
LAYOUT
  2
AcDbLayout
  3
ObjectDBX Classes
 90
0
 91
0
280
0
281
0
  0
CLASS
  1
ACDBPLACEHOLDER
  2
AcDbPlaceHolder
  3
ObjectDBX Classes
 90
0
 91
0
280
0
281
0
  0
ENDSEC
  0
SECTION
  2
TABLES
  0
TABLE
  2
VPORT
  5
8
330
0
100
AcDbSymbolTable
 70
1
  0
VPORT
  5
23
330
8
100
AcDbSymbolTableRecord
100
AcDbViewportTableRecord
  2
*Active
 70
0
 10
0.0
 20
0.0
 11
1.0
 21
1.0
 12
0.0
 22
0.0
 13
0.0
 23
0.0
 14
0.5
 24
0.5
 15
0.5
 25
0.5
 16
0.0
 26
0.0
 36
1.0
 17
0.0
 27
0.0
 37
0.0
 40
1000.0
 41
1.34
 42
50.0
 43
0.0
 44
0.0
 50
0.0
 51
0.0
 71
0
 72
1000
 73
1
 74
3
 75
0
 76
0
 77
0
 78
0
281
0
 65
0
146
0.0
  0
ENDTAB
  0
TABLE
  2
LTYPE
  5
2
330
0
100
AcDbSymbolTable
 70
3
  0
LTYPE
  5
24
330
2
100
AcDbSymbolTableRecord
100
AcDbLinetypeTableRecord
  2
ByBlock
 70
0
  3

 72
65
 73
0
 40
0.0
  0
LTYPE
  5
25
330
2
100
AcDbSymbolTableRecord
100
AcDbLinetypeTableRecord
  2
ByLayer
 70
0
  3

 72
65
 73
0
 40
0.0
  0
LTYPE
  5
26
330
2
100
AcDbSymbolTableRecord
100
AcDbLinetypeTableRecord
  2
Continuous
 70
0
  3

 72
65
 73
0
 40
0.0
  0
ENDTAB
  0
TABLE
  2
LAYER
  5
1
330
0
100
AcDbSymbolTable
 70
2
  0
LAYER
  5
27
330
1
100
AcDbSymbolTableRecord
100
AcDbLayerTableRecord
  2
0
 70
0
 62
7
  6
Continuous
370
-3
390
13
347
21
  0
LAYER
  5
28
330
1
100
AcDbSymbolTableRecord
100
AcDbLayerTableRecord
  2
Defpoints
 70
0
 62
7
  6
Continuous
290
0
370
-3
390
13
347
21
  0
ENDTAB
  0
TABLE
  2
STYLE
  5
5
330
0
100
AcDbSymbolTable
 70
1
  0
STYLE
  5
29
330
5
100
AcDbSymbolTableRecord
100
AcDbTextStyleTableRecord
  2
Standard
 70
0
 40
0.0
 41
1.0
 50
0.0
 71
0
 42
2.5
  3
txt
  4

  0
ENDTAB
  0
TABLE
  2
VIEW
  5
7
330
0
100
AcDbSymbolTable
 70
0
  0
ENDTAB
  0
TABLE
  2
UCS
  5
6
330
0
100
AcDbSymbolTable
 70
0
  0
ENDTAB
  0
TABLE
  2
APPID
  5
3
330
0
100
AcDbSymbolTable
 70
3
  0
APPID
  5
2A
330
3
100
AcDbSymbolTableRecord
100
AcDbRegAppTableRecord
  2
ACAD
 70
0
  0
APPID
  5
14B
330
3
100
AcDbSymbolTableRecord
100
AcDbRegAppTableRecord
  2
HATCHBACKGROUNDCOLOR
 70
0
  0
APPID
  5
14C
330
3
100
AcDbSymbolTableRecord
100
AcDbRegAppTableRecord
  2
EZDXF
 70
0
  0
ENDTAB
  0
TABLE
  2
DIMSTYLE
  5
4
330
0
100
AcDbSymbolTable
 70
1
100
AcDbDimStyleTable
  0
DIMSTYLE
105
2B
330
4
100
AcDbSymbolTableRecord
100
AcDbDimStyleTableRecord
  2
Standard
 70
0
 40
1.0
 41
2.5
 42
0.625
 43
3.75
 44
1.25
 45
0.0
 46
0.0
 47
0.0
 48
0.0
 49
2.5
140
2.5
141
2.5
142
0.0
143
0.03937007874
144
1.0
145
0.0
146
1.0
147
0.625
148
0.0
 69
0
 70
0
 71
0
 72
0
 73
0
 74
0
 75
0
 76
0
 77
1
 78
8
 79
3
170
0
171
3
172
1
173
0
174
0
175
0
176
0
177
0
178
0
179
2
271
2
272
2
273
2
274
3
275
0
276
0
277
2
278
44
279
0
280
0
281
0
282
0
283
0
284
8
285
0
286
0
288
0
289
3
290
0
371
-2
372
-2
  0
ENDTAB
  0
TABLE
  2
BLOCK_RECORD
  5
9
330
0
100
AcDbSymbolTable
 70
2
  0
BLOCK_RECORD
  5
17
330
9
100
AcDbSymbolTableRecord
100
AcDbBlockTableRecord
  2
*Model_Space
340
1A
 70
0
280
1
281
0
  0
BLOCK_RECORD
  5
1B
330
9
100
AcDbSymbolTableRecord
100
AcDbBlockTableRecord
  2
*Paper_Space
340
1E
 70
0
280
1
281
0
  0
ENDTAB
  0
ENDSEC
  0
SECTION
  2
BLOCKS
  0
BLOCK
  5
18
330
17
100
AcDbEntity
  8
0
100
AcDbBlockBegin
  2
*Model_Space
 70
0
 10
0.0
 20
0.0
 30
0.0
  3
*Model_Space
  1

  0
ENDBLK
  5
19
330
17
100
AcDbEntity
  8
0
100
AcDbBlockEnd
  0
BLOCK
  5
1C
330
1B
100
AcDbEntity
  8
0
100
AcDbBlockBegin
  2
*Paper_Space
 70
0
 10
0.0
 20
0.0
 30
0.0
  3
*Paper_Space
  1

  0
ENDBLK
  5
1D
330
1B
100
AcDbEntity
  8
0
100
AcDbBlockEnd
  0
ENDSEC
  0
SECTION
  2
ENTITIES
  0
LINE
  5
2F
330
17
100
AcDbEntity
  8
0
100
AcDbLine
 10
0.012695534647462129
 20
0.0
 30
0.0
 11
121.96854046514358
 21
0.0
 31
0.0
  0
LINE
  5
30
330
17
100
AcDbEntity
  8
0
100
AcDbLine
 10
121.96854046514358
 20
0.0
 30
0.0
 11
121.97658943411007
 21
0.002869432280465359
 31
0.0
  0
LINE
  5
31
330
17
100
AcDbEntity
  8
0
100
AcDbLine
 10
121.97658943411007
 20
0.002869432280465359
 30
0.0
 11
121.98123599979107
 21
47.195685746119764
 31
0.0
  0
LINE
  5
32
330
17
100
AcDbEntity
  8
0
100
AcDbLine
 10
121.98123599979107
 20
47.195685746119764
 30
0.0
 11
122.0
 21
47.394641515300705
 31
0.0
  0
LINE
  5
33
330
17
100
AcDbEntity
  8
0
100
AcDbLine
 10
122.0
 20
47.394641515300705
 30
0.0
 11
121.98123599979107
 21
47.725743528619184
 31
0.0
  0
LINE
  5
34
330
17
100
AcDbEntity
  8
0
100
AcDbLine
 10
121.98123599979107
 20
47.725743528619184
 30
0.0
 11
121.98123599979107
 21
66.75277122794289
 31
0.0
  0
LINE
  5
35
330
17
100
AcDbEntity
  8
0
100
AcDbLine
 10
121.98123599979107
 20
66.75277122794289
 30
0.0
 11
121.98976739907414
 21
66.95797372580519
 31
0.0
  0
LINE
  5
36
330
17
100
AcDbEntity
  8
0
100
AcDbLine
 10
121.98976739907414
 20
66.95797372580519
 30
0.0
 11
121.98123599979107
 21
67.07993729432799
 31
0.0
  0
LINE
  5
37
330
17
100
AcDbEntity
  8
0
100
AcDbLine
 10
121.98123599979107
 20
67.07993729432799
 30
0.0
 11
121.98123599979107
 21
67.73117145596352
 31
0.0
  0
LINE
  5
38
330
17
100
AcDbEntity
  8
0
100
AcDbLine
 10
121.98123599979107
 20
67.73117145596352
 30
0.0
 11
122.0
 21
67.93012722514446
 31
0.0
  0
LINE
  5
39
330
17
100
AcDbEntity
  8
0
100
AcDbLine
 10
122.0
 20
67.93012722514446
 30
0.0
 11
121.98123599979107
 21
68.26122923846293
 31
0.0
  0
LINE
  5
3A
330
17
100
AcDbEntity
  8
0
100
AcDbLine
 10
121.98123599979107
 20
68.26122923846293
 30
0.0
 11
121.98123599979107
 21
87.27556033477573
 31
0.0
  0
LINE
  5
3B
330
17
100
AcDbEntity
  8
0
100
AcDbLine
 10
121.98123599979107
 20
87.27556033477573
 30
0.0
 11
121.98976739907414
 21
87.48137226958256
 31
0.0
  0
LINE
  5
3C
330
17
100
AcDbEntity
  8
0
100
AcDbLine
 10
121.98976739907414
 20
87.48137226958256
 30
0.0
 11
121.98123599979107
 21
87.60272640116084
 31
0.0
  0
LINE
  5
3D
330
17
100
AcDbEntity
  8
0
100
AcDbLine
 10
121.98123599979107
 20
87.60272640116084
 30
0.0
 11
121.97836680896071
 21
97.99535304329801
 31
0.0
  0
LINE
  5
3E
330
17
100
AcDbEntity
  8
0
100
AcDbLine
 10
121.97836680896071
 20
97.99535304329801
 30
0.0
 11
121.96854046514358
 21
98.0
 31
0.0
  0
LINE
  5
3F
330
17
100
AcDbEntity
  8
0
100
AcDbLine
 10
121.96854046514358
 20
98.0
 30
0.0
 11
0.012695534647462129
 21
98.0
 31
0.0
  0
LINE
  5
40
330
17
100
AcDbEntity
  8
0
100
AcDbLine
 10
0.012695534647462129
 20
98.0
 30
0.0
 11
0.0046465656809640925
 21
97.99713056771954
 31
0.0
  0
LINE
  5
41
330
17
100
AcDbEntity
  8
0
100
AcDbLine
 10
0.0046465656809640925
 20
97.99713056771954
 30
0.0
 11
0.0
 21
97.9873033969891
 31
0.0
  0
LINE
  5
42
330
17
100
AcDbEntity
  8
0
100
AcDbLine
 10
0.0
 20
97.9873033969891
 30
0.0
 11
0.0
 21
0.012696603010908704
 31
0.0
  0
LINE
  5
43
330
17
100
AcDbEntity
  8
0
100
AcDbLine
 10
0.0
 20
0.012696603010908704
 30
0.0
 11
0.012695534647462129
 21
0.0
 31
0.0
  0
LINE
  5
44
330
17
100
AcDbEntity
  8
0
100
AcDbLine
 10
3.024076353026598
 20
33.84000207291478
 30
0.0
 11
3.0485533438269057
 21
33.66877568470966
 31
0.0
  0
ARC
  5
45
330
17
100
AcDbEntity
  8
0
100
AcDbCircle
 10
11.327761033906816
 20
33.5796498913968
 30
0.0
 40
8.279687396424576
100
AcDbArc
 50
179.38323390960744
 51
233.9213802786837
  0
LINE
  5
46
330
17
100
AcDbEntity
  8
0
100
AcDbLine
 10
6.451896098911945
 20
26.887926307879667
 30
0.0
 11
7.553487640272644
 21
26.21282253258363
 31
0.0
  0
LINE
  5
47
330
17
100
AcDbEntity
  8
0
100
AcDbLine
 10
7.553487640272644
 20
26.21282253258363
 30
0.0
 11
8.747121807827472
 21
25.7183660249268
 31
0.0
  0
LINE
  5
48
330
17
100
AcDbEntity
  8
0
100
AcDbLine
 10
8.747121807827472
 20
25.7183660249268
 30
0.0
 11
10.003421134402195
 21
25.416720130593635
 31
0.0
  0
LINE
  5
49
330
17
100
AcDbEntity
  8
0
100
AcDbLine
 10
10.003421134402195
 20
25.416720130593635
 30
0.0
 11
11.350823617607166
 21
25.31067810224652
 31
0.0
  0
LINE
  5
4A
330
17
100
AcDbEntity
  8
0
100
AcDbLine
 10
11.350823617607166
 20
25.31067810224652
 30
0.0
 11
24.2640612932088
 21
25.31067810224652
 31
0.0
  0
LINE
  5
4B
330
17
100
AcDbEntity
  8
0
100
AcDbLine
 10
24.2640612932088
 20
25.31067810224652
 30
0.0
 11
24.040518319136176
 21
26.571298421993628
 31
0.0
  0
LINE
  5
4C
330
17
100
AcDbEntity
  8
0
100
AcDbLine
 10
24.040518319136176
 20
26.571298421993628
 30
0.0
 11
23.606178687777028
 21
27.86015598683699
 31
0.0
  0
LINE
  5
4D
330
17
100
AcDbEntity
  8
0
100
AcDbLine
 10
23.606178687777028
 20
27.86015598683699
 30
0.0
 11
22.984656093575637
 21
29.069913714922393
 31
0.0
  0
LINE
  5
4E
330
17
100
AcDbEntity
  8
0
100
AcDbLine
 10
22.984656093575637
 20
29.069913714922393
 30
0.0
 11
22.189560149674083
 21
30.173934133132953
 31
0.0
  0
LINE
  5
4F
330
17
100
AcDbEntity
  8
0
100
AcDbLine
 10
22.189560149674083
 20
30.173934133132953
 30
0.0
 11
21.1201898752487
 21
31.2716570362501
 31
0.0
  0
ARC
  5
50
330
17
100
AcDbEntity
  8
0
100
AcDbCircle
 10
33.885992588918874
 20
44.270085079436384
 30
0.0
 40
18.2188048597662
100
AcDbArc
 50
187.8117293789984
 51
225.5173097361727
  0
LINE
  5
51
330
17
100
AcDbEntity
  8
0
100
AcDbLine
 10
15.836257572834374
 20
41.793814422304564
 30
0.0
 11
15.716386334692992
 21
43.36832016168735
 31
0.0
  0
LINE
  5
52
330
17
100
AcDbEntity
  8
0
100
AcDbLine
 10
15.716386334692992
 20
43.36832016168735
 30
0.0
 11
15.679924759185491
 21
43.573751198403855
 31
0.0
  0
LINE
  5
53
330
17
100
AcDbEntity
  8
0
100
AcDbLine
 10
15.679924759185491
 20
43.573751198403855
 30
0.0
 11
15.66502020150934
 21
44.099898427175916
 31
0.0
  0
LINE
  5
54
330
17
100
AcDbEntity
  8
0
100
AcDbLine
 10
15.66502020150934
 20
44.099898427175916
 30
0.0
 11
15.672637522297821
 21
44.2509626097997
 31
0.0
  0
LINE
  5
55
330
17
100
AcDbEntity
  8
0
100
AcDbLine
 10
15.672637522297821
 20
44.2509626097997
 30
0.0
 11
15.672637522297821
 21
47.35614541497163
 31
0.0
  0
ARC
  5
56
330
17
100
AcDbEntity
  8
0
100
AcDbCircle
 10
16.504838246558347
 20
49.250123079314854
 30
0.0
 40
2.0687458612625096
100
AcDbArc
 50
113.72035543862772
 51
246.27964456137119
  0
LINE
  5
57
330
17
100
AcDbEntity
  8
0
100
AcDbLine
 10
15.672637522297821
 20
51.14410074365818
 30
0.0
 11
15.672713695505701
 21
56.8649107351074
 31
0.0
  0
ARC
  5
58
330
17
100
AcDbEntity
  8
0
100
AcDbCircle
 10
30.09602916920141
 20
56.379195954409646
 30
0.0
 40
14.431491541138026
100
AcDbArc
 50
129.67839748989212
 51
178.0712552395524
  0
ARC
  5
59
330
17
100
AcDbEntity
  8
0
100
AcDbCircle
 10
22.864540438661855
 20
68.09692616522544
 30
0.0
 40
2.074609854080442
100
AcDbArc
 50
46.309511175316175
 51
197.11887588125086
  0
LINE
  5
5A
330
17
100
AcDbEntity
  8
0
100
AcDbLine
 10
24.297602895747396
 20
69.59703884124065
 30
0.0
 11
24.505962010381616
 21
69.70112559272408
 31
0.0
  0
ARC
  5
5B
330
17
100
AcDbEntity
  8
0
100
AcDbCircle
 10
30.126523061449898
 20
56.3805551355737
 30
0.0
 40
14.457811170183865
100
AcDbArc
 50
95.65839540638856
 51
112.87711712201346
  0
LINE
  5
5C
330
17
100
AcDbEntity
  8
0
100
AcDbLine
 10
28.701023697151967
 20
70.76791957090664
 30
0.0
 11
30.103474018588322
 21
70.81669991967455
 31
0.0
  0
LINE
  5
5D
330
17
100
AcDbEntity
  8
0
100
AcDbLine
 10
30.103474018588322
 20
70.81669991967455
 30
0.0
 11
30.199147567691625
 21
70.83086932863473
 31
0.0
  0
LINE
  5
5E
330
17
100
AcDbEntity
  8
0
100
AcDbLine
 10
30.199147567691625
 20
70.83086932863473
 30
0.0
 11
30.347152110611813
 21
70.83815717876298
 31
0.0
  0
LINE
  5
5F
330
17
100
AcDbEntity
  8
0
100
AcDbLine
 10
30.347152110611813
 20
70.83815717876298
 30
0.0
 11
35.43095200484344
 21
70.83815717876298
 31
0.0
  0
ARC
  5
60
330
17
100
AcDbEntity
  8
0
100
AcDbCircle
 10
35.430570804016426
 20
69.32599176016379
 30
0.0
 40
1.512165466647533
100
AcDbArc
 50
270.01444365662877
 51
89.98555634337121
  0
LINE
  5
61
330
17
100
AcDbEntity
  8
0
100
AcDbLine
 10
35.43095200484344
 20
67.81382634156454
 30
0.0
 11
30.703591941374096
 21
67.81382634156454
 31
0.0
  0
LINE
  5
62
330
17
100
AcDbEntity
  8
0
100
AcDbLine
 10
30.703591941374096
 20
67.81382634156454
 30
0.0
 11
28.915045020238967
 21
67.74922602544504
 31
0.0
  0
ARC
  5
63
330
17
100
AcDbEntity
  8
0
100
AcDbCircle
 10
30.12889049315285
 20
56.374853369777924
 30
0.0
 40
11.438958612657943
100
AcDbArc
 50
96.09141218728192
 51
178.02692055309288
  0
LINE
  5
64
330
17
100
AcDbEntity
  8
0
100
AcDbLine
 10
18.69671387532442
 20
56.76869587749074
 30
0.0
 11
18.69671387532442
 21
44.05782188479776
 31
0.0
  0
ARC
  5
65
330
17
100
AcDbEntity
  8
0
100
AcDbCircle
 10
33.896121907140994
 20
44.262722854810086
 30
0.0
 40
15.200789088898055
100
AcDbArc
 50
180.77234913832993
 51
226.04528619206215
  0
ARC
  5
66
330
17
100
AcDbEntity
  8
0
100
AcDbCircle
 10
15.261409611095978
 20
24.332643503836863
 30
0.0
 40
12.088049445163723
100
AcDbArc
 50
357.6538315667601
 51
48.02857434060404
  0
ARC
  5
67
330
17
100
AcDbEntity
  8
0
100
AcDbCircle
 10
25.82773849332741
 20
23.798452259668863
 30
0.0
 40
1.5120994824778027
100
AcDbArc
 50
271.5138129605501
 51
1.4909622029501495
  0
LINE
  5
68
330
17
100
AcDbEntity
  8
0
100
AcDbLine
 10
25.867685056668908
 20
22.286880522374524
 30
0.0
 11
11.350823617607166
 21
22.286347265048065
 31
0.0
  0
ARC
  5
69
330
17
100
AcDbEntity
  8
0
100
AcDbCircle
 10
11.300340318883253
 20
14.043580891193969
 30
0.0
 40
8.242920966343778
100
AcDbArc
 50
89.64909307669743
 51
170.98198681921124
  0
LINE
  5
6A
330
17
100
AcDbEntity
  8
0
100
AcDbLine
 10
3.1593091880914144
 20
15.335617339932112
 30
0.0
 11
3.0485533438269057
 21
13.928249682584925
 31
0.0
  0
LINE
  5
6B
330
17
100
AcDbEntity
  8
0
100
AcDbLine
 10
3.0485533438269057
 20
13.928249682584925
 30
0.0
 11
3.024076353026598
 21
13.75702329437981
 31
0.0
  0
LINE
  5
6C
330
17
100
AcDbEntity
  8
0
100
AcDbLine
 10
3.024076353026598
 20
13.75702329437981
 30
0.0
 11
3.024076353026598
 21
9.983135801829347
 31
0.0
  0
LINE
  5
6D
330
17
100
AcDbEntity
  8
0
100
AcDbLine
 10
3.024076353026598
 20
9.983135801829347
 30
0.0
 11
3.049111947351416
 21
9.799593708703652
 31
0.0
  0
ARC
  5
6E
330
17
100
AcDbEntity
  8
0
100
AcDbCircle
 10
9.732397723658913
 20
9.708632490751082
 30
0.0
 40
6.6839047502912186
100
AcDbArc
 50
179.22023802434595
 51
247.93444484439556
  0
LINE
  5
6F
330
17
100
AcDbEntity
  8
0
100
AcDbLine
 10
7.22147401817208
 20
3.5142927473894234
 30
0.0
 11
8.161324448124075
 21
3.2135356152670176
 31
0.0
  0
LINE
  5
70
330
17
100
AcDbEntity
  8
0
100
AcDbLine
 10
8.161324448124075
 20
3.2135356152670176
 30
0.0
 11
9.135376648416292
 21
3.055005830072812
 31
0.0
  0
LINE
  5
71
330
17
100
AcDbEntity
  8
0
100
AcDbLine
 10
9.135376648416292
 20
3.055005830072812
 30
0.0
 11
10.234860731025531
 21
3.0407094550825278
 31
0.0
  0
LINE
  5
72
330
17
100
AcDbEntity
  8
0
100
AcDbLine
 10
10.234860731025531
 20
3.0407094550825278
 30
0.0
 11
10.427045734518902
 21
3.024330837198456
 31
0.0
  0
LINE
  5
73
330
17
100
AcDbEntity
  8
0
100
AcDbLine
 10
10.427045734518902
 20
3.024330837198456
 30
0.0
 11
38.51012697824004
 21
3.024330837198456
 31
0.0
  0
LINE
  5
74
330
17
100
AcDbEntity
  8
0
100
AcDbLine
 10
38.51012697824004
 20
3.024330837198456
 30
0.0
 11
39.6275625468408
 21
3.040023838519939
 31
0.0
  0
ARC
  5
75
330
17
100
AcDbEntity
  8
0
100
AcDbCircle
 10
39.038904862074304
 20
9.684084325725104
 30
0.0
 40
6.670086778106832
100
AcDbArc
 50
275.06313310961457
 51
1.1129150010022275
  0
LINE
  5
76
330
17
100
AcDbEntity
  8
0
100
AcDbLine
 10
45.70773339127491
 20
9.813636151633716
 30
0.0
 11
45.62112445390989
 21
11.30043375741715
 31
0.0
  0
LINE
  5
77
330
17
100
AcDbEntity
  8
0
100
AcDbLine
 10
45.62112445390989
 20
11.30043375741715
 30
0.0
 11
45.37010834286018
 21
12.723900707382167
 31
0.0
  0
LINE
  5
78
330
17
100
AcDbEntity
  8
0
100
AcDbLine
 10
45.37010834286018
 20
12.723900707382167
 30
0.0
 11
44.93069049764205
 21
14.193151607804525
 31
0.0
  0
ARC
  5
79
330
17
100
AcDbEntity
  8
0
100
AcDbCircle
 10
46.37929878311298
 20
14.626581579564007
 30
0.0
 40
1.5120606817037667
100
AcDbArc
 50
16.649906630273648
 51
196.65741437827734
  0
ARC
  5
7A
330
17
100
AcDbEntity
  8
0
100
AcDbCircle
 10
33.15217688142367
 20
9.8300234242302
 30
0.0
 40
15.579778993199742
100
AcDbArc
 50
359.7518424493635
 51
19.613808161716094
  0
ARC
  5
7B
330
17
100
AcDbEntity
  8
0
100
AcDbCircle
 10
55.402518438454535
 20
9.685134454777721
 30
0.0
 40
6.671157836390163
100
AcDbArc
 50
179.33513815901108
 51
264.9600015242063
  0
LINE
  5
7C
330
17
100
AcDbEntity
  8
0
100
AcDbLine
 10
54.816449416931555
 20
3.039769906459721
 30
0.0
 11
55.93418967836381
 21
3.024330837198456
 31
0.0
  0
LINE
  5
7D
330
17
100
AcDbEntity
  8
0
100
AcDbLine
 10
55.93418967836381
 20
3.024330837198456
 30
0.0
 11
66.04928073552516
 21
3.024330837198456
 31
0.0
  0
LINE
  5
7E
330
17
100
AcDbEntity
  8
0
100
AcDbLine
 10
66.04928073552516
 20
3.024330837198456
 30
0.0
 11
67.16671630412588
 21
3.040023838519939
 31
0.0
  0
ARC
  5
7F
330
17
100
AcDbEntity
  8
0
100
AcDbCircle
 10
66.58524982518067
 20
9.67194147146313
 30
0.0
 40
6.657359443223699
100
AcDbArc
 50
275.01070734041014
 51
351.5036124673913
  0
LINE
  5
80
330
17
100
AcDbEntity
  8
0
100
AcDbLine
 10
73.16954595148765
 20
8.688336226776878
 30
0.0
 11
73.25991276710833
 21
9.859394708885032
 31
0.0
  0
LINE
  5
81
330
17
100
AcDbEntity
  8
0
100
AcDbLine
 10
73.25991276710833
 20
9.859394708885032
 30
0.0
 11
73.26212179013696
 21
12.012789365947192
 31
0.0
  0
LINE
  5
82
330
17
100
AcDbEntity
  8
0
100
AcDbLine
 10
73.26212179013696
 20
12.012789365947192
 30
0.0
 11
73.3099839557579
 21
13.104468686031145
 31
0.0
  0
LINE
  5
83
330
17
100
AcDbEntity
  8
0
100
AcDbLine
 10
73.3099839557579
 20
13.104468686031145
 30
0.0
 11
73.45534782747141
 21
14.250159355323502
 31
0.0
  0
ARC
  5
84
330
17
100
AcDbEntity
  8
0
100
AcDbCircle
 10
74.95444987600149
 20
14.0527012652503
 30
0.0
 40
1.5120504784042192
100
AcDbArc
 50
352.4886102052177
 51
172.4963347614435
  0
LINE
  5
85
330
17
100
AcDbEntity
  8
0
100
AcDbLine
 10
76.4535252898172
 20
13.855041069624026
 30
0.0
 11
76.32801723429232
 21
12.902541911745654
 31
0.0
  0
LINE
  5
86
330
17
100
AcDbEntity
  8
0
100
AcDbLine
 10
76.32801723429232
 20
12.902541911745654
 30
0.0
 11
76.2861727520943
 21
11.976070790039644
 31
0.0
  0
LINE
  5
87
330
17
100
AcDbEntity
  8
0
100
AcDbLine
 10
76.2861727520943
 20
11.976070790039644
 30
0.0
 11
76.28368442730341
 21
9.557113984401317
 31
0.0
  0
ARC
  5
88
330
17
100
AcDbEntity
  8
0
100
AcDbCircle
 10
82.92563711048514
 20
9.657762477856474
 30
0.0
 40
6.642715225332164
100
AcDbArc
 50
180.86816224472918
 51
265.05521805146776
  0
LINE
  5
89
330
17
100
AcDbEntity
  8
0
100
AcDbLine
 10
82.35306406728714
 20
3.039769906459721
 30
0.0
 11
83.47080432871942
 21
3.024330837198456
 31
0.0
  0
LINE
  5
8A
330
17
100
AcDbEntity
  8
0
100
AcDbLine
 10
83.47080432871942
 20
3.024330837198456
 30
0.0
 11
111.55672937220166
 21
3.024330837198456
 31
0.0
  0
LINE
  5
8B
330
17
100
AcDbEntity
  8
0
100
AcDbLine
 10
111.55672937220166
 20
3.024330837198456
 30
0.0
 11
111.74891437569501
 21
3.0407094550825278
 31
0.0
  0
LINE
  5
8C
330
17
100
AcDbEntity
  8
0
100
AcDbLine
 10
111.74891437569501
 20
3.0407094550825278
 30
0.0
 11
112.84778907264112
 21
3.0552597621330295
 31
0.0
  0
ARC
  5
8D
330
17
100
AcDbEntity
  8
0
100
AcDbCircle
 10
112.2663225936967
 20
9.68717739507521
 30
0.0
 40
6.657359443222623
100
AcDbArc
 50
275.0107073404041
 51
351.5036124673989
  0
LINE
  5
8E
330
17
100
AcDbEntity
  8
0
100
AcDbLine
 10
118.8506187200029
 20
8.703572150389968
 30
0.0
 11
118.93212405243962
 21
9.799746067939783
 31
0.0
  0
LINE
  5
8F
330
17
100
AcDbEntity
  8
0
100
AcDbLine
 10
118.93212405243962
 20
9.799746067939783
 30
0.0
 11
118.95715964676441
 21
9.977117612002177
 31
0.0
  0
LINE
  5
90
330
17
100
AcDbEntity
  8
0
100
AcDbLine
 10
118.95715964676441
 20
9.977117612002177
 30
0.0
 11
118.95715964676441
 21
13.75702329437981
 31
0.0
  0
LINE
  5
91
330
17
100
AcDbEntity
  8
0
100
AcDbLine
 10
118.95715964676441
 20
13.75702329437981
 30
0.0
 11
118.9326826559641
 21
13.928275075790948
 31
0.0
  0
ARC
  5
92
330
17
100
AcDbEntity
  8
0
100
AcDbCircle
 10
110.65353185630359
 20
14.01740126684344
 30
0.0
 40
8.279630513582768
100
AcDbArc
 50
359.383226919575
 51
53.91266650113426
  0
LINE
  5
93
330
17
100
AcDbEntity
  8
0
100
AcDbLine
 10
115.53038093472017
 20
20.708337263234267
 30
0.0
 11
114.42906869512173
 21
21.38351721814837
 31
0.0
  0
LINE
  5
94
330
17
100
AcDbEntity
  8
0
100
AcDbLine
 10
114.42906869512173
 20
21.38351721814837
 30
0.0
 11
113.23573922039841
 21
21.87812608504133
 31
0.0
  0
LINE
  5
95
330
17
100
AcDbEntity
  8
0
100
AcDbLine
 10
113.23573922039841
 20
21.87812608504133
 30
0.0
 11
111.97971919558593
 21
22.180000518228695
 31
0.0
  0
LINE
  5
96
330
17
100
AcDbEntity
  8
0
100
AcDbLine
 10
111.97971919558593
 20
22.180000518228695
 30
0.0
 11
110.54593629463963
 21
22.293457362734177
 31
0.0
  0
ARC
  5
97
330
17
100
AcDbEntity
  8
0
100
AcDbCircle
 10
110.86962183287545
 20
32.89537407789515
 30
0.0
 40
10.606856761683577
100
AcDbArc
 50
232.49114576126843
 51
268.2512543192721
  0
LINE
  5
98
330
17
100
AcDbEntity
  8
0
100
AcDbLine
 10
104.4112762154986
 20
24.48138677998601
 30
0.0
 11
103.51624102285214
 21
25.268499987044283
 31
0.0
  0
LINE
  5
99
330
17
100
AcDbEntity
  8
0
100
AcDbLine
 10
103.51624102285214
 20
25.268499987044283
 30
0.0
 11
103.43176493530791
 21
25.323146166403237
 31
0.0
  0
LINE
  5
9A
330
17
100
AcDbEntity
  8
0
100
AcDbLine
 10
103.43176493530791
 20
25.323146166403237
 30
0.0
 11
103.31582931290725
 21
25.415399683880498
 31
0.0
  0
LINE
  5
9B
330
17
100
AcDbEntity
  8
0
100
AcDbLine
 10
103.31582931290725
 20
25.415399683880498
 30
0.0
 11
102.33959348065561
 21
26.273969372684164
 31
0.0
  0
LINE
  5
9C
330
17
100
AcDbEntity
  8
0
100
AcDbLine
 10
102.33959348065561
 20
26.273969372684164
 30
0.0
 11
101.34182602164194
 21
26.907301324074314
 31
0.0
  0
LINE
  5
9D
330
17
100
AcDbEntity
  8
0
100
AcDbLine
 10
101.34182602164194
 20
26.907301324074314
 30
0.0
 11
100.25790666451049
 21
27.378142150130856
 31
0.0
  0
LINE
  5
9E
330
17
100
AcDbEntity
  8
0
100
AcDbLine
 10
100.25790666451049
 20
27.378142150130856
 30
0.0
 11
99.11337882497206
 21
27.67529344699816
 31
0.0
  0
LINE
  5
9F
330
17
100
AcDbEntity
  8
0
100
AcDbLine
 10
99.11337882497206
 20
27.67529344699816
 30
0.0
 11
96.60989556569949
 21
27.92551809913715
 31
0.0
  0
ARC
  5
A0
330
17
100
AcDbEntity
  8
0
100
AcDbCircle
 10
98.23344029001383
 20
37.80983829947689
 30
0.0
 40
10.016770102917063
100
AcDbArc
 50
178.52245015829277
 51
260.672198131634
  0
LINE
  5
A1
330
17
100
AcDbEntity
  8
0
100
AcDbLine
 10
88.22000071178242
 20
38.06812323478351
 30
0.0
 11
88.21499867113133
 21
44.77944601352577
 31
0.0
  0
ARC
  5
A2
330
17
100
AcDbEntity
  8
0
100
AcDbCircle
 10
75.1161740383497
 20
44.092486967875104
 30
0.0
 40
13.116825816132806
100
AcDbArc
 50
3.002088304651449
 51
71.96053121132297
  0
LINE
  5
A3
330
17
100
AcDbEntity
  8
0
100
AcDbLine
 10
79.17808858944075
 20
56.56453450107532
 30
0.0
 11
77.14459402281743
 21
57.062419091545095
 31
0.0
  0
ARC
  5
A4
330
17
100
AcDbEntity
  8
0
100
AcDbCircle
 10
82.65237836088139
 20
76.39754259579622
 30
0.0
 40
20.104295293276685
100
AcDbArc
 50
223.67937838441495
 51
254.09991908070975
  0
LINE
  5
A5
330
17
100
AcDbEntity
  8
0
100
AcDbLine
 10
68.11263519963936
 20
62.51307076412821
 30
0.0
 11
66.94370654250848
 21
63.89664498743296
 31
0.0
  0
LINE
  5
A6
330
17
100
AcDbEntity
  8
0
100
AcDbLine
 10
66.94370654250848
 20
63.89664498743296
 30
0.0
 11
66.22625648851083
 21
64.59759904645921
 31
0.0
  0
LINE
  5
A7
330
17
100
AcDbEntity
  8
0
100
AcDbLine
 10
66.22625648851083
 20
64.59759904645921
 30
0.0
 11
65.58609684944696
 21
65.07235042624309
 31
0.0
  0
LINE
  5
A8
330
17
100
AcDbEntity
  8
0
100
AcDbLine
 10
65.58609684944696
 20
65.07235042624309
 30
0.0
 11
64.88573498508482
 21
65.45279143886196
 31
0.0
  0
LINE
  5
A9
330
17
100
AcDbEntity
  8
0
100
AcDbLine
 10
64.88573498508482
 20
65.45279143886196
 30
0.0
 11
64.13801877648758
 21
65.73173580701163
 31
0.0
  0
LINE
  5
AA
330
17
100
AcDbEntity
  8
0
100
AcDbLine
 10
64.13801877648758
 20
65.73173580701163
 30
0.0
 11
63.254866604271214
 21
65.92731427979166
 31
0.0
  0
ARC
  5
AB
330
17
100
AcDbEntity
  8
0
100
AcDbCircle
 10
63.58192148061446
 20
67.40370728658293
 30
0.0
 40
1.5121842489068793
100
AcDbArc
 50
90.01510915781631
 51
257.5093799998791
  0
LINE
  5
AC
330
17
100
AcDbEntity
  8
0
100
AcDbLine
 10
63.58152271075055
 20
68.91589148291142
 30
0.0
 11
66.23285816652752
 21
68.91589148291142
 31
0.0
  0
ARC
  5
AD
330
17
100
AcDbEntity
  8
0
100
AcDbCircle
 10
66.31906076423809
 20
67.23482607960592
 30
0.0
 40
1.6832741244499423
100
AcDbArc
 50
62.44555232235278
 51
92.93547341059136
  0
ARC
  5
AE
330
17
100
AcDbEntity
  8
0
100
AcDbCircle
 10
66.38480080161291
 20
67.39358132176488
 30
0.0
 40
1.5121914067957787
100
AcDbArc
 50
32.682442595464586
 51
61.87131066379334
  0
ARC
  5
AF
330
17
100
AcDbEntity
  8
0
100
AcDbCircle
 10
82.65886816461482
 20
76.41731204331015
 30
0.0
 40
17.099603999513942
100
AcDbArc
 50
208.6829729136466
 51
254.01691159250709
  0
LINE
  5
B0
330
17
100
AcDbEntity
  8
0
100
AcDbLine
 10
77.95043038903071
 20
59.97872723032675
 30
0.0
 11
80.00738630368261
 21
59.475129168502065
 31
0.0
  0
LINE
  5
B1
330
17
100
AcDbEntity
  8
0
100
AcDbLine
 10
80.00738630368261
 20
59.475129168502065
 30
0.0
 11
80.11672024806657
 21
59.443946311507275
 31
0.0
  0
LINE
  5
B2
330
17
100
AcDbEntity
  8
0
100
AcDbLine
 10
80.11672024806657
 20
59.443946311507275
 30
0.0
 11
80.29313739752776
 21
59.37599409219288
 31
0.0
  0
LINE
  5
B3
330
17
100
AcDbEntity
  8
0
100
AcDbLine
 10
80.29313739752776
 20
59.37599409219288
 30
0.0
 11
80.47481049833304
 21
59.33914855025523
 31
0.0
  0
LINE
  5
B4
330
17
100
AcDbEntity
  8
0
100
AcDbLine
 10
80.47481049833304
 20
59.33914855025523
 30
0.0
 11
81.69391190839067
 21
59.00312025496852
 31
0.0
  0
LINE
  5
B5
330
17
100
AcDbEntity
  8
0
100
AcDbLine
 10
81.69391190839067
 20
59.00312025496852
 30
0.0
 11
82.8539790823376
 21
58.82808488586013
 31
0.0
  0
LINE
  5
B6
330
17
100
AcDbEntity
  8
0
100
AcDbLine
 10
82.8539790823376
 20
58.82808488586013
 30
0.0
 11
83.92174971939748
 21
58.79669888321716
 31
0.0
  0
LINE
  5
B7
330
17
100
AcDbEntity
  8
0
100
AcDbLine
 10
83.92174971939748
 20
58.79669888321716
 30
0.0
 11
90.45113936179754
 21
58.79669888321716
 31
0.0
  0
ARC
  5
B8
330
17
100
AcDbEntity
  8
0
100
AcDbCircle
 10
89.89674016347257
 20
61.819796143702675
 30
0.0
 40
3.0735119191990115
100
AcDbArc
 50
280.39187779672
 51
325.81164170183035
  0
LINE
  5
B9
330
17
100
AcDbEntity
  8
0
100
AcDbLine
 10
92.4391331322444
 20
60.09274272536471
 30
0.0
 11
92.66475817399918
 21
60.478338558806
 31
0.0
  0
LINE
  5
BA
330
17
100
AcDbEntity
  8
0
100
AcDbLine
 10
92.66475817399918
 20
60.478338558806
 30
0.0
 11
92.83320252770179
 21
60.89214624413754
 31
0.0
  0
LINE
  5
BB
330
17
100
AcDbEntity
  8
0
100
AcDbLine
 10
92.83320252770179
 20
60.89214624413754
 30
0.0
 11
92.92242674520415
 21
61.25085067240173
 31
0.0
  0
LINE
  5
BC
330
17
100
AcDbEntity
  8
0
100
AcDbLine
 10
92.92242674520415
 20
61.25085067240173
 30
0.0
 11
92.92242674520415
 21
68.12006840618766
 31
0.0
  0
ARC
  5
BD
330
17
100
AcDbEntity
  8
0
100
AcDbCircle
 10
94.43446492171756
 20
68.11994171090475
 30
0.0
 40
1.5120381818213802
100
AcDbArc
 50
0.00480087413812063
 51
179.9951991258619
  0
LINE
  5
BE
330
17
100
AcDbEntity
  8
0
100
AcDbLine
 10
95.94650309823075
 20
68.12006840618766
 30
0.0
 11
95.94650309823075
 21
61.17302049594487
 31
0.0
  0
ARC
  5
BF
330
17
100
AcDbEntity
  8
0
100
AcDbCircle
 10
98.47753223403471
 20
61.323605966967136
 30
0.0
 40
2.5355047762470395
100
AcDbArc
 50
183.40484160789504
 51
264.5790302917644
  0
LINE
  5
C0
330
17
100
AcDbEntity
  8
0
100
AcDbLine
 10
98.23799631995993
 20
58.799441349467514
 30
0.0
 11
101.36648074992733
 21
58.79669888321716
 31
0.0
  0
ARC
  5
C1
330
17
100
AcDbEntity
  8
0
100
AcDbCircle
 10
101.36609954909855
 20
57.284533464617766
 30
0.0
 40
1.5121654666477324
100
AcDbArc
 50
270.0144436566958
 51
89.98555634330418
  0
LINE
  5
C2
330
17
100
AcDbEntity
  8
0
100
AcDbLine
 10
101.36648074992733
 20
55.772368046018705
 30
0.0
 11
99.03715483494867
 21
55.772368046018705
 31
0.0
  0
ARC
  5
C3
330
17
100
AcDbEntity
  8
0
100
AcDbCircle
 10
98.96756573059558
 20
52.75197639459867
 30
0.0
 40
3.0211932032580284
100
AcDbArc
 50
88.68015239026842
 51
180.53268827127692
  0
LINE
  5
C4
330
17
100
AcDbEntity
  8
0
100
AcDbLine
 10
95.94650309823075
 20
52.72388826989351
 30
0.0
 11
95.94650309823075
 21
37.52206773249034
 31
0.0
  0
ARC
  5
C5
330
17
100
AcDbEntity
  8
0
100
AcDbCircle
 10
104.42383149433981
 20
37.675147492177636
 30
0.0
 40
8.478710405969938
100
AcDbArc
 50
181.03450882401805
 51
229.77908705285404
  0
LINE
  5
C6
330
17
100
AcDbEntity
  8
0
100
AcDbLine
 10
98.94881930487162
 20
31.201140103127514
 30
0.0
 11
99.71532490474706
 21
30.641778560878915
 31
0.0
  0
LINE
  5
C7
330
17
100
AcDbEntity
  8
0
100
AcDbLine
 10
99.71532490474706
 20
30.641778560878915
 30
0.0
 11
101.2448575280046
 21
30.241733993211206
 31
0.0
  0
LINE
  5
C8
330
17
100
AcDbEntity
  8
0
100
AcDbLine
 10
101.2448575280046
 20
30.241733993211206
 30
0.0
 11
102.76136453271378
 21
29.58290726297515
 31
0.0
  0
LINE
  5
C9
330
17
100
AcDbEntity
  8
0
100
AcDbLine
 10
102.76136453271378
 20
29.58290726297515
 30
0.0
 11
104.1569846565098
 21
28.696963698079962
 31
0.0
  0
LINE
  5
CA
330
17
100
AcDbEntity
  8
0
100
AcDbLine
 10
104.1569846565098
 20
28.696963698079962
 30
0.0
 11
105.14253901119265
 21
27.83628637317648
 31
0.0
  0
LINE
  5
CB
330
17
100
AcDbEntity
  8
0
100
AcDbLine
 10
105.14253901119265
 20
27.83628637317648
 30
0.0
 11
105.22747213798422
 21
27.78128468893323
 31
0.0
  0
LINE
  5
CC
330
17
100
AcDbEntity
  8
0
100
AcDbLine
 10
105.22747213798422
 20
27.78128468893323
 30
0.0
 11
105.34307767648407
 21
27.68925971031016
 31
0.0
  0
ARC
  5
CD
330
17
100
AcDbEntity
  8
0
100
AcDbCircle
 10
110.87402923203055
 20
32.94324162127189
 30
0.0
 40
7.628613965230844
100
AcDbArc
 50
223.52890104306675
 51
268.7415269463689
  0
ARC
  5
CE
330
17
100
AcDbEntity
  8
0
100
AcDbCircle
 10
110.68874649535863
 20
33.56085555051341
 30
0.0
 40
8.244406878129842
100
AcDbArc
 50
270.12326980361854
 51
0.7325566796719166
  0
LINE
  5
CF
330
17
100
AcDbEntity
  8
0
100
AcDbLine
 10
118.93247952740975
 20
33.66626175731351
 30
0.0
 11
118.95715964676441
 21
33.839646568030474
 31
0.0
  0
LINE
  5
D0
330
17
100
AcDbEntity
  8
0
100
AcDbLine
 10
118.95715964676441
 20
33.839646568030474
 30
0.0
 11
118.95715964676441
 21
47.60692871764309
 31
0.0
  0
LINE
  5
D1
330
17
100
AcDbEntity
  8
0
100
AcDbLine
 10
118.95715964676441
 20
47.60692871764309
 30
0.0
 11
118.87016984335999
 21
48.71244733500894
 31
0.0
  0
ARC
  5
D2
330
17
100
AcDbEntity
  8
0
100
AcDbCircle
 10
110.73769779673583
 20
47.4247715707723
 30
0.0
 40
8.233784698601594
100
AcDbArc
 50
8.99737955580082
 51
80.99779905286783
  0
LINE
  5
D3
330
17
100
AcDbEntity
  8
0
100
AcDbLine
 10
112.02605789704918
 20
55.557135231777785
 30
0.0
 11
110.61606642803223
 21
55.66825590132926
 31
0.0
  0
LINE
  5
D4
330
17
100
AcDbEntity
  8
0
100
AcDbLine
 10
110.61606642803223
 20
55.66825590132926
 30
0.0
 11
106.81997461309317
 21
55.66825590132926
 31
0.0
  0
ARC
  5
D5
330
17
100
AcDbEntity
  8
0
100
AcDbCircle
 10
106.82035581392034
 20
57.18042131992832
 30
0.0
 40
1.512165466647398
100
AcDbArc
 50
90.01444365663498
 51
269.98555634336503
  0
LINE
  5
D6
330
17
100
AcDbEntity
  8
0
100
AcDbLine
 10
106.81997461309317
 20
58.692586738527716
 30
0.0
 11
110.74200613173511
 21
58.692586738527716
 31
0.0
  0
ARC
  5
D7
330
17
100
AcDbEntity
  8
0
100
AcDbCircle
 10
110.73547546373324
 20
66.91439352245108
 30
0.0
 40
8.221809377612253
100
AcDbArc
 50
270.0455106334956
 51
359.68381064428587
  0
LINE
  5
D8
330
17
100
AcDbEntity
  8
0
100
AcDbLine
 10
118.95715964676441
 20
66.86902132511078
 30
0.0
 11
118.95715964676441
 21
68.14241442748686
 31
0.0
  0
LINE
  5
D9
330
17
100
AcDbEntity
  8
0
100
AcDbLine
 10
118.95715964676441
 20
68.14241442748686
 30
0.0
 11
118.87016984335999
 21
69.2479330448527
 31
0.0
  0
ARC
  5
DA
330
17
100
AcDbEntity
  8
0
100
AcDbCircle
 10
110.7539975807746
 20
67.97027253743909
 30
0.0
 40
8.21612247767552
100
AcDbArc
 50
8.946173169372644
 51
90.31469685039168
  0
LINE
  5
DB
330
17
100
AcDbEntity
  8
0
100
AcDbLine
 10
110.70887078630521
 20
76.18627108543001
 30
0.0
 11
110.51709203992058
 21
76.20374161117302
 31
0.0
  0
LINE
  5
DC
330
17
100
AcDbEntity
  8
0
100
AcDbLine
 10
110.51709203992058
 20
76.20374161117302
 30
0.0
 11
98.54611694585395
 21
76.20374161117302
 31
0.0
  0
ARC
  5
DD
330
17
100
AcDbEntity
  8
0
100
AcDbCircle
 10
98.50618121453661
 20
73.65070651808792
 30
0.0
 40
2.553347420379745
100
AcDbArc
 50
89.10382655389606
 51
171.17059558269315
  0
LINE
  5
DE
330
17
100
AcDbEntity
  8
0
100
AcDbLine
 10
95.98309162908474
 20
74.04262741948021
 30
0.0
 11
95.93921586134307
 21
73.49456585391133
 31
0.0
  0
ARC
  5
DF
330
17
100
AcDbEntity
  8
0
100
AcDbCircle
 10
94.43446300428691
 20
73.64269790813114
 30
0.0
 40
1.5120265428576516
100
AcDbArc
 50
186.69944452681847
 51
354.3777591700819
  0
LINE
  5
E0
330
17
100
AcDbEntity
  8
0
100
AcDbLine
 10
92.93276091040721
 20
73.46630321560905
 30
0.0
 11
92.88022678803598
 21
74.04915347342782
 31
0.0
  0
ARC
  5
E1
330
17
100
AcDbEntity
  8
0
100
AcDbCircle
 10
90.31323264329995
 20
73.59933300544184
 30
0.0
 40
2.6061077093106086
100
AcDbArc
 50
9.939163202077948
 51
92.06906900760617
  0
LINE
  5
E2
330
17
100
AcDbEntity
  8
0
100
AcDbLine
 10
90.21914116164974
 20
76.20374161117302
 30
0.0
 11
87.68018657857212
 21
76.20374161117302
 31
0.0
  0
ARC
  5
E3
330
17
100
AcDbEntity
  8
0
100
AcDbCircle
 10
87.68049092551838
 20
77.71580922107361
 30
0.0
 40
1.5120676405298705
100
AcDbArc
 50
186.0453593857419
 51
269.9884675822833
  0
ARC
  5
E4
330
17
100
AcDbEntity
  8
0
100
AcDbCircle
 10
84.11717419799169
 20
77.58440249223688
 30
0.0
 40
2.0598460658086615
100
AcDbArc
 50
359.22565148591434
 51
46.260225284257864
  0
ARC
  5
E5
330
17
100
AcDbEntity
  8
0
100
AcDbCircle
 10
84.13783290008716
 20
77.57279925338759
 30
0.0
 40
2.0540743507555868
100
AcDbArc
 50
46.900342242903584
 51
92.92011268015838
  0
LINE
  5
E6
330
17
100
AcDbEntity
  8
0
100
AcDbLine
 10
84.03319112253294
 20
79.62420646231183
 30
0.0
 11
65.0196982666849
 21
79.62420646231183
 31
0.0
  0
ARC
  5
E7
330
17
100
AcDbEntity
  8
0
100
AcDbCircle
 10
65.06498323526078
 20
77.47734679964012
 30
0.0
 40
2.147337220742432
100
AcDbArc
 50
91.2083942438302
 51
140.14639452651093
  0
LINE
  5
E8
330
17
100
AcDbEntity
  8
0
100
AcDbLine
 10
63.41650615140278
 20
78.85342108672558
 30
0.0
 11
62.915210270312876
 21
78.15117197419221
 31
0.0
  0
ARC
  5
E9
330
17
100
AcDbEntity
  8
0
100
AcDbCircle
 10
58.83498980679657
 20
81.35313418441285
 30
0.0
 40
5.186594357242359
100
AcDbArc
 50
271.44584061368914
 51
321.87687002895984
  0
LINE
  5
EA
330
17
100
AcDbEntity
  8
0
100
AcDbLine
 10
58.96585796110962
 20
76.16819112274247
 30
0.0
 11
50.51781755850716
 21
76.16819112274247
 31
0.0
  0
ARC
  5
EB
330
17
100
AcDbEntity
  8
0
100
AcDbCircle
 10
50.51819875933433
 20
77.68035654134171
 30
0.0
 40
1.5121654666475757
100
AcDbArc
 50
90.01444365663471
 51
269.98555634336526
  0
LINE
  5
EC
330
17
100
AcDbEntity
  8
0
100
AcDbLine
 10
50.51781755850716
 20
79.19252195994093
 30
0.0
 11
58.8836670698019
 21
79.19252195994093
 31
0.0
  0
ARC
  5
ED
330
17
100
AcDbEntity
  8
0
100
AcDbCircle
 10
58.83822531054377
 20
81.34007706304068
 30
0.0
 40
2.148035817749379
100
AcDbArc
 50
271.2121842842521
 51
320.15807788441
  0
LINE
  5
EE
330
17
100
AcDbEntity
  8
0
100
AcDbLine
 10
60.48751935288568
 20
79.96389137926566
 30
0.0
 11
61.02542915589886
 21
80.70806467494104
 31
0.0
  0
ARC
  5
EF
330
17
100
AcDbEntity
  8
0
100
AcDbCircle
 10
65.06512636740395
 20
77.47756958602119
 30
0.0
 40
5.172547929229583
100
AcDbArc
 50
91.4162979199034
 51
141.35111342940633
  0
LINE
  5
F0
330
17
100
AcDbEntity
  8
0
100
AcDbLine
 10
64.93727885575353
 20
82.64853729951028
 30
0.0
 11
84.07262345314795
 21
82.64853729951028
 31
0.0
  0
ARC
  5
F1
330
17
100
AcDbEntity
  8
0
100
AcDbCircle
 10
84.15977366935891
 20
77.61627481005821
 30
0.0
 40
5.033017079539063
100
AcDbArc
 50
18.67773107786407
 51
90.99216614124238
  0
LINE
  5
F2
330
17
100
AcDbEntity
  8
0
100
AcDbLine
 10
88.9277259862401
 20
79.22807244837146
 30
0.0
 11
110.90181752187743
 21
79.22807244837146
 31
0.0
  0
LINE
  5
F3
330
17
100
AcDbEntity
  8
0
100
AcDbLine
 10
110.90181752187743
 20
79.22807244837146
 30
0.0
 11
112.02417895792136
 21
79.31725338792009
 31
0.0
  0
ARC
  5
F4
330
17
100
AcDbEntity
  8
0
100
AcDbCircle
 10
110.7385843201112
 20
87.4347697773373
 30
0.0
 40
8.218687602362264
100
AcDbArc
 50
278.99935514988795
 51
359.7005117472254
  0
LINE
  5
F5
330
17
100
AcDbEntity
  8
0
100
AcDbLine
 10
118.95715964676441
 20
87.39181043194361
 30
0.0
 11
118.95715964676441
 21
88.46299743476797
 31
0.0
  0
ARC
  5
F6
330
17
100
AcDbEntity
  8
0
100
AcDbCircle
 10
112.58734189079692
 20
88.604488326627
 30
0.0
 40
6.371389009997566
100
AcDbArc
 50
358.7275149253847
 51
89.53683598291916
  0
LINE
  5
F7
330
17
100
AcDbEntity
  8
0
100
AcDbLine
 10
112.63884596341313
 20
94.97566916280154
 30
0.0
 11
78.706677996911
 21
94.97566916280154
 31
0.0
  0
ARC
  5
F8
330
17
100
AcDbEntity
  8
0
100
AcDbCircle
 10
76.48551803712864
 20
95.23506309555222
 30
0.0
 40
2.2362550792090374
100
AcDbArc
 50
186.6610061845577
 51
353.33899381544325
  0
LINE
  5
F9
330
17
100
AcDbEntity
  8
0
100
AcDbLine
 10
74.2643580773466
 20
94.97566916280154
 30
0.0
 11
9.34492914330741
 21
94.97566916280154
 31
0.0
  0
ARC
  5
FA
330
17
100
AcDbEntity
  8
0
100
AcDbCircle
 10
9.398962692147622
 20
88.59858304489299
 30
0.0
 40
6.377315029040213
100
AcDbArc
 50
90.48545999829835
 51
181.5813154479566
  0
LINE
  5
FB
330
17
100
AcDbEntity
  8
0
100
AcDbLine
 10
3.024076353026598
 20
88.42259684398726
 30
0.0
 11
3.024076353026598
 21
33.84000207291478
 31
0.0
  0
ARC
  5
FC
330
17
100
AcDbEntity
  8
0
100
AcDbCircle
 10
76.48551803712914
 20
95.23491760508813
 30
0.0
 40
0.7374304194023371
100
AcDbArc
 50
200.5825459534396
 51
339.4174540465433
  0
LINE
  5
FD
330
17
100
AcDbEntity
  8
0
100
AcDbLine
 10
77.17587582018878
 20
94.97566916280154
 30
0.0
 11
75.79516025406888
 21
94.97566916280154
 31
0.0
  0
ARC
  5
FE
330
17
100
AcDbEntity
  8
0
100
AcDbCircle
 10
22.86244573631503
 20
68.10031427340363
 30
0.0
 40
0.8987086531331524
100
AcDbArc
 50
77.47129082714928
 51
167.65952952993973
  0
LINE
  5
FF
330
17
100
AcDbEntity
  8
0
100
AcDbLine
 10
21.9845018740482
 20
68.2923867022517
 30
0.0
 11
22.667470855943346
 21
68.76571606249838
 31
0.0
  0
LINE
  5
100
330
17
100
AcDbEntity
  8
0
100
AcDbLine
 10
22.667470855943346
 20
68.76571606249838
 30
0.0
 11
22.852673315380596
 21
68.87536392610059
 31
0.0
  0
LINE
  5
101
330
17
100
AcDbEntity
  8
0
100
AcDbLine
 10
22.852673315380596
 20
68.87536392610059
 30
0.0
 11
23.05740150710564
 21
68.97762236675045
 31
0.0
  0
ARC
  5
102
330
17
100
AcDbEntity
  8
0
100
AcDbCircle
 10
16.497575937963827
 20
49.250123079313916
 30
0.0
 40
0.8986321944596496
100
AcDbArc
 50
156.6344702206631
 51
203.36552977922128
  0
LINE
  5
103
330
17
100
AcDbEntity
  8
0
100
AcDbLine
 10
15.672637522297821
 20
48.89372943279869
 30
0.0
 11
15.672637522297821
 21
49.60651672583111
 31
0.0
  0
ARC
  5
104
330
17
100
AcDbEntity
  8
0
100
AcDbCircle
 10
91.816745550118
 20
23.066971544277823
 30
0.0
 40
2.2001521149893994
100
AcDbArc
 50
201.2319939445011
 51
339.00689408033173
  0
LINE
  5
105
330
17
100
AcDbEntity
  8
0
100
AcDbLine
 10
93.8708593565778
 20
22.278754696447542
 30
0.0
 11
97.51777863940913
 21
22.286347265048065
 31
0.0
  0
ARC
  5
106
330
17
100
AcDbEntity
  8
0
100
AcDbCircle
 10
97.51427433922746
 20
23.798511896350902
 30
0.0
 40
1.5121686917414376
100
AcDbArc
 50
270.1327773755434
 51
90.10389022662223
  0
LINE
  5
107
330
17
100
AcDbEntity
  8
0
100
AcDbLine
 10
97.5115324363626
 20
25.31067810224652
 30
0.0
 11
86.53700446570633
 21
25.287824216826884
 31
0.0
  0
ARC
  5
108
330
17
100
AcDbEntity
  8
0
100
AcDbCircle
 10
86.54050876588761
 20
23.7756595855243
 30
0.0
 40
1.5121686917411843
100
AcDbArc
 50
90.13277737552838
 51
270.1038902266383
  0
LINE
  5
109
330
17
100
AcDbEntity
  8
0
100
AcDbLine
 10
86.54325066875289
 20
22.263493379628432
 30
0.0
 11
89.76593596580446
 21
22.27019718601819
 31
0.0
  0
ARC
  5
10A
330
17
100
AcDbEntity
  8
0
100
AcDbCircle
 10
76.33187290948055
 20
48.103945872373856
 30
0.0
 40
1.4225801949468024
100
AcDbArc
 50
358.2663622816372
 51
92.02306957972003
  0
LINE
  5
10B
330
17
100
AcDbEntity
  8
0
100
AcDbLine
 10
77.75380194841073
 20
48.06090845490115
 30
0.0
 11
77.75380194841073
 21
28.704226155002203
 31
0.0
  0
LINE
  5
10C
330
17
100
AcDbEntity
  8
0
100
AcDbLine
 10
77.75380194841073
 20
28.704226155002203
 30
0.0
 11
77.78490600829701
 21
28.072697121239607
 31
0.0
  0
LINE
  5
10D
330
17
100
AcDbEntity
  8
0
100
AcDbLine
 10
77.78490600829701
 20
28.072697121239607
 30
0.0
 11
77.84835829046507
 21
27.600078770761538
 31
0.0
  0
LINE
  5
10E
330
17
100
AcDbEntity
  8
0
100
AcDbLine
 10
77.84835829046507
 20
27.600078770761538
 30
0.0
 11
77.9895072446756
 21
26.22231959163579
 31
0.0
  0
LINE
  5
10F
330
17
100
AcDbEntity
  8
0
100
AcDbLine
 10
77.9895072446756
 20
26.22231959163579
 30
0.0
 11
77.9138164671074
 21
24.727777058015704
 31
0.0
  0
LINE
  5
110
330
17
100
AcDbEntity
  8
0
100
AcDbLine
 10
77.9138164671074
 20
24.727777058015704
 30
0.0
 11
77.83040680447354
 21
24.324507553183217
 31
0.0
  0
ARC
  5
111
330
17
100
AcDbEntity
  8
0
100
AcDbCircle
 10
78.59991521111772
 20
22.605120887372443
 30
0.0
 40
1.8837286679519296
100
AcDbArc
 50
114.11081672712787
 51
212.00621503160158
  0
ARC
  5
112
330
17
100
AcDbEntity
  8
0
100
AcDbCircle
 10
78.46400303024116
 20
21.22245258184383
 30
0.0
 40
1.5111468035608304
100
AcDbArc
 50
165.2684268499039
 51
339.54278032610625
  0
LINE
  5
113
330
17
100
AcDbEntity
  8
0
100
AcDbLine
 10
79.87984696261415
 20
20.6942948203042
 30
0.0
 11
80.26012900744438
 21
21.712841707045317
 31
0.0
  0
LINE
  5
114
330
17
100
AcDbEntity
  8
0
100
AcDbLine
 10
80.26012900744438
 20
21.712841707045317
 30
0.0
 11
80.32997983907474
 21
21.85659264633483
 31
0.0
  0
ARC
  5
115
330
17
100
AcDbEntity
  8
0
100
AcDbCircle
 10
69.00325387373522
 20
25.875372271999204
 30
0.0
 40
12.018540292962019
100
AcDbArc
 50
340.4650577280227
 51
2.5734385555605823
  0
LINE
  5
116
330
17
100
AcDbEntity
  8
0
100
AcDbLine
 10
81.00967337303082
 20
26.41500323892934
 30
0.0
 11
80.83345935212398
 21
28.135139014847255
 31
0.0
  0
LINE
  5
117
330
17
100
AcDbEntity
  8
0
100
AcDbLine
 10
80.83345935212398
 20
28.135139014847255
 30
0.0
 11
80.79232581986616
 21
28.396308138781645
 31
0.0
  0
LINE
  5
118
330
17
100
AcDbEntity
  8
0
100
AcDbLine
 10
80.79232581986616
 20
28.396308138781645
 30
0.0
 11
80.77787830143738
 21
28.727283186070014
 31
0.0
  0
LINE
  5
119
330
17
100
AcDbEntity
  8
0
100
AcDbLine
 10
80.77787830143738
 20
28.727283186070014
 30
0.0
 11
80.77401885890454
 21
48.22317104138057
 31
0.0
  0
ARC
  5
11A
330
17
100
AcDbEntity
  8
0
100
AcDbCircle
 10
76.33856732952617
 20
48.11315751625067
 30
0.0
 40
4.436815664998538
100
AcDbArc
 50
1.4208290892341824
 51
90.06639972957194
  0
LINE
  5
11B
330
17
100
AcDbEntity
  8
0
100
AcDbLine
 10
76.33342553205215
 20
52.54997020185007
 30
0.0
 11
50.55590416244954
 21
52.54997020185007
 31
0.0
  0
ARC
  5
11C
330
17
100
AcDbEntity
  8
0
100
AcDbCircle
 10
50.55628536327658
 20
51.03780478325071
 30
0.0
 40
1.5121654666477036
100
AcDbArc
 50
90.0144436566296
 51
269.9855563433704
  0
LINE
  5
11D
330
17
100
AcDbEntity
  8
0
100
AcDbLine
 10
50.55590416244954
 20
49.525639364651624
 30
0.0
 11
76.2816531417598
 21
49.525639364651624
 31
0.0
  0
ARC
  5
11E
330
17
100
AcDbEntity
  8
0
100
AcDbCircle
 10
45.76656825817752
 20
61.34791636640797
 30
0.0
 40
1.5100961477700126
100
AcDbArc
 50
180.96110680528076
 51
270.0220151754413
  0
LINE
  5
11F
330
17
100
AcDbEntity
  8
0
100
AcDbLine
 10
45.767148493425054
 20
59.83782033011168
 30
0.0
 11
48.56306069776739
 21
59.83782033011168
 31
0.0
  0
ARC
  5
120
330
17
100
AcDbEntity
  8
0
100
AcDbCircle
 10
48.6522413031473
 20
58.144202614875674
 30
0.0
 40
1.6959640756033618
100
AcDbArc
 50
6.374883327525436
 51
93.01423248618246
  0
LINE
  5
121
330
17
100
AcDbEntity
  8
0
100
AcDbLine
 10
50.337718703998185
 20
58.33251107713834
 30
0.0
 11
50.357269827355296
 21
57.86776462052704
 31
0.0
  0
ARC
  5
122
330
17
100
AcDbEntity
  8
0
100
AcDbCircle
 10
51.86130388909669
 20
58.02337669802856
 30
0.0
 40
1.5120626896867242
100
AcDbArc
 50
185.9069834008589
 51
270.3071456144838
  0
LINE
  5
123
330
17
100
AcDbEntity
  8
0
100
AcDbLine
 10
51.869409568145755
 20
56.51133573445963
 30
0.0
 11
54.69589261991919
 21
56.526571658072704
 31
0.0
  0
ARC
  5
124
330
17
100
AcDbEntity
  8
0
100
AcDbCircle
 10
54.68716062425922
 20
58.038709066938935
 30
0.0
 40
1.5121626205672736
100
AcDbArc
 50
270.3308567952472
 51
359.99047766473603
  0
LINE
  5
125
330
17
100
AcDbEntity
  8
0
100
AcDbLine
 10
56.199323223941526
 20
58.0384577514057
 30
0.0
 11
56.199323223941526
 21
65.13128805741974
 31
0.0
  0
ARC
  5
126
330
17
100
AcDbEntity
  8
0
100
AcDbCircle
 10
54.68729717735602
 20
65.1311512058514
 30
0.0
 40
1.5120260527786353
100
AcDbArc
 50
0.005185768646024951
 51
129.39947547154762
  0
LINE
  5
127
330
17
100
AcDbEntity
  8
0
100
AcDbLine
 10
53.727578801287606
 20
66.2995532868655
 30
0.0
 11
52.51878616536369
 21
65.14210556318504
 31
0.0
  0
ARC
  5
128
330
17
100
AcDbEntity
  8
0
100
AcDbCircle
 10
46.149927119871236
 20
72.85128163473496
 30
0.0
 40
9.999688057310035
100
AcDbArc
 50
267.4934711500241
 51
309.56147578733726
  0
ARC
  5
129
330
17
100
AcDbEntity
  8
0
100
AcDbCircle
 10
45.766800928149244
 20
61.351735680185676
 30
0.0
 40
1.5103976666983712
100
AcDbArc
 50
92.05619050660476
 51
181.10582127367394
  0
LINE
  5
12A
330
17
100
AcDbEntity
  8
0
100
AcDbLine
 10
23.129994574219854
 20
56.652496566734904
 30
0.0
 11
23.129994574219854
 21
44.53942943020755
 31
0.0
  0
ARC
  5
12B
330
17
100
AcDbEntity
  8
0
100
AcDbCircle
 10
31.142043186219144
 20
44.75552346625664
 30
0.0
 40
8.014962232815307
100
AcDbArc
 50
181.54495759228445
 51
270.99092854509564
  0
LINE
  5
12C
330
17
100
AcDbEntity
  8
0
100
AcDbLine
 10
31.280654773240048
 20
36.74175990464592
 30
0.0
 11
36.874789769230546
 21
36.740160132666546
 31
0.0
  0
ARC
  5
12D
330
17
100
AcDbEntity
  8
0
100
AcDbCircle
 10
36.94285072345999
 20
35.68281821775464
 30
0.0
 40
1.0595301876398828
100
AcDbArc
 50
357.7223579286753
 51
93.68304022047495
  0
LINE
  5
12E
330
17
100
AcDbEntity
  8
0
100
AcDbLine
 10
38.00154386026253
 20
35.64071049153992
 30
0.0
 11
38.00154386026253
 21
27.833823232192366
 31
0.0
  0
ARC
  5
12F
330
17
100
AcDbEntity
  8
0
100
AcDbCircle
 10
39.323192646065856
 20
26.500135201328735
 30
0.0
 40
1.877625968260003
100
AcDbArc
 50
134.74022383921792
 51
359.9910511344854
  0
LINE
  5
130
330
17
100
AcDbEntity
  8
0
100
AcDbLine
 10
41.200818591424174
 20
26.49984194024823
 30
0.0
 11
41.19162702433942
 21
26.67650247454202
 31
0.0
  0
LINE
  5
131
330
17
100
AcDbEntity
  8
0
100
AcDbLine
 10
41.19162702433942
 20
26.67650247454202
 30
0.0
 11
41.154657627446
 21
26.91006918353069
 31
0.0
  0
LINE
  5
132
330
17
100
AcDbEntity
  8
0
100
AcDbLine
 10
41.154657627446
 20
26.91006918353069
 30
0.0
 11
41.10875057416075
 21
27.081092426087636
 31
0.0
  0
LINE
  5
133
330
17
100
AcDbEntity
  8
0
100
AcDbLine
 10
41.10875057416075
 20
27.081092426087636
 30
0.0
 11
41.02562021328912
 21
27.288986603788253
 31
0.0
  0
LINE
  5
134
330
17
100
AcDbEntity
  8
0
100
AcDbLine
 10
41.02562021328912
 20
27.288986603788253
 30
0.0
 11
41.02562021328912
 21
45.02748684994688
 31
0.0
  0
ARC
  5
135
330
17
100
AcDbEntity
  8
0
100
AcDbCircle
 10
39.51358203677581
 20
45.027334892375336
 30
0.0
 40
1.5120381841490687
100
AcDbArc
 50
0.005758139986534397
 51
179.99424186001346
  0
LINE
  5
136
330
17
100
AcDbEntity
  8
0
100
AcDbLine
 10
38.00154386026253
 20
45.02748684994688
 30
0.0
 11
38.00154386026253
 21
40.86152825641956
 31
0.0
  0
ARC
  5
137
330
17
100
AcDbEntity
  8
0
100
AcDbCircle
 10
36.94329928591638
 20
40.82132011680879
 30
0.0
 40
1.059008155598444
100
AcDbArc
 50
266.3238607796207
 51
2.1759138919118146
  0
LINE
  5
138
330
17
100
AcDbEntity
  8
0
100
AcDbLine
 10
36.875399154893614
 20
39.764490969865
 30
0.0
 11
31.385215196596587
 21
39.764490969865
 31
0.0
  0
ARC
  5
139
330
17
100
AcDbEntity
  8
0
100
AcDbCircle
 10
31.153540260706603
 20
44.76046292101314
 30
0.0
 40
5.001340721504445
100
AcDbArc
 50
181.5674362166953
 51
272.6550376297284
  0
LINE
  5
13A
330
17
100
AcDbEntity
  8
0
100
AcDbLine
 10
26.15407092724645
 20
44.62365869458192
 30
0.0
 11
26.15407092724645
 21
56.55097452905967
 31
0.0
  0
ARC
  5
13B
330
17
100
AcDbEntity
  8
0
100
AcDbCircle
 10
30.345206846886335
 20
56.29212297014573
 30
0.0
 40
4.1991218637291094
100
AcDbArc
 50
85.7803263942638
 51
176.46580607101126
  0
LINE
  5
13C
330
17
100
AcDbEntity
  8
0
100
AcDbLine
 10
30.654180920526144
 20
60.47986215116731
 30
0.0
 11
35.91404248924886
 21
60.47772912186148
 31
0.0
  0
ARC
  5
13D
330
17
100
AcDbEntity
  8
0
100
AcDbCircle
 10
35.77553955542204
 20
58.234306626472566
 30
0.0
 40
2.2476938304617136
100
AcDbArc
 50
4.592531272844307
 51
86.46719494455138
  0
LINE
  5
13E
330
17
100
AcDbEntity
  8
0
100
AcDbLine
 10
38.01601676976066
 20
58.4142772005286
 30
0.0
 11
38.019317608768965
 21
53.54893892674838
 31
0.0
  0
ARC
  5
13F
330
17
100
AcDbEntity
  8
0
100
AcDbCircle
 10
42.15365166442311
 20
53.609872366264476
 30
0.0
 40
4.134783061757037
100
AcDbArc
 50
180.8443865717977
 51
232.86138560210284
  0
ARC
  5
140
330
17
100
AcDbEntity
  8
0
100
AcDbCircle
 10
41.529552033315085
 20
50.981163182495415
 30
0.0
 40
1.9876690591733936
100
AcDbArc
 50
199.62077663771464
 51
331.2318621490426
  0
ARC
  5
141
330
17
100
AcDbEntity
  8
0
100
AcDbCircle
 10
42.108527365646616
 20
50.98646028930341
 30
0.0
 40
1.5095229493282276
100
AcDbArc
 50
320.4153149283213
 51
40.48216738193376
  0
ARC
  5
142
330
17
100
AcDbEntity
  8
0
100
AcDbCircle
 10
41.530176199848114
 20
50.983639573178976
 30
0.0
 40
1.9866454397282383
100
AcDbArc
 50
29.650854295890728
 51
97.6276348327819
  0
LINE
  5
143
330
17
100
AcDbEntity
  8
0
100
AcDbLine
 10
41.266479896620886
 20
52.95270644935609
 30
0.0
 11
41.1591772377805
 21
53.12591350763091
 31
0.0
  0
LINE
  5
144
330
17
100
AcDbEntity
  8
0
100
AcDbLine
 10
41.1591772377805
 20
53.12591350763091
 30
0.0
 11
41.09567417347386
 21
53.28756665716581
 31
0.0
  0
LINE
  5
145
330
17
100
AcDbEntity
  8
0
100
AcDbLine
 10
41.09567417347386
 20
53.28756665716581
 30
0.0
 11
41.05824773733313
 21
53.45714248697951
 31
0.0
  0
LINE
  5
146
330
17
100
AcDbEntity
  8
0
100
AcDbLine
 10
41.05824773733313
 20
53.45714248697951
 30
0.0
 11
41.043393961795594
 21
53.70386287668749
 31
0.0
  0
LINE
  5
147
330
17
100
AcDbEntity
  8
0
100
AcDbLine
 10
41.043393961795594
 20
53.70386287668749
 30
0.0
 11
41.043393961795594
 21
57.99833648589122
 31
0.0
  0
ARC
  5
148
330
17
100
AcDbEntity
  8
0
100
AcDbCircle
 10
35.771247788021256
 20
58.23259954034251
 30
0.0
 40
5.277348240956271
100
AcDbArc
 50
357.4557873169226
 51
86.61949095466147
  0
LINE
  5
149
330
17
100
AcDbEntity
  8
0
100
AcDbLine
 10
36.08243606081284
 20
63.50076490555282
 30
0.0
 11
30.67901338629659
 21
63.50454849325008
 31
0.0
  0
ARC
  5
14A
330
17
100
AcDbEntity
  8
0
100
AcDbCircle
 10
30.337986246960835
 20
56.29579839126108
 30
0.0
 40
7.216812145448286
100
AcDbArc
 50
87.2915056401572
 51
177.1669443638717
  0
ENDSEC
  0
SECTION
  2
OBJECTS
  0
DICTIONARY
  5
A
330
0
100
AcDbDictionary
281
1
  3
ACAD_COLOR
350
B
  3
ACAD_GROUP
350
C
  3
ACAD_LAYOUT
350
D
  3
ACAD_MATERIAL
350
E
  3
ACAD_MLEADERSTYLE
350
F
  3
ACAD_MLINESTYLE
350
10
  3
ACAD_PLOTSETTINGS
350
11
  3
ACAD_PLOTSTYLENAME
350
12
  3
ACAD_SCALELIST
350
14
  3
ACAD_TABLESTYLE
350
15
  3
ACAD_VISUALSTYLE
350
16
  3
EZDXF_META
350
2D
  0
DICTIONARY
  5
B
330
A
100
AcDbDictionary
281
1
  0
DICTIONARY
  5
C
330
A
100
AcDbDictionary
281
1
  0
DICTIONARY
  5
D
330
A
100
AcDbDictionary
281
1
  3
Model
350
1A
  3
Layout1
350
1E
  0
DICTIONARY
  5
E
330
A
100
AcDbDictionary
281
1
  3
ByBlock
350
1F
  3
ByLayer
350
20
  3
Global
350
21
  0
DICTIONARY
  5
F
330
A
100
AcDbDictionary
281
1
  3
Standard
350
2C
  0
DICTIONARY
  5
10
330
A
100
AcDbDictionary
281
1
  3
Standard
350
22
  0
DICTIONARY
  5
11
330
A
100
AcDbDictionary
281
1
  0
ACDBDICTIONARYWDFLT
  5
12
330
A
100
AcDbDictionary
281
1
  3
Normal
350
13
100
AcDbDictionaryWithDefault
340
13
  0
ACDBPLACEHOLDER
  5
13
330
12
  0
DICTIONARY
  5
14
330
A
100
AcDbDictionary
281
1
  0
DICTIONARY
  5
15
330
A
100
AcDbDictionary
281
1
  0
DICTIONARY
  5
16
330
A
100
AcDbDictionary
281
1
  0
LAYOUT
  5
1A
330
D
100
AcDbPlotSettings
  1

  4
A3
  6

 40
7.5
 41
20.0
 42
7.5
 43
20.0
 44
420.0
 45
297.0
 46
0.0
 47
0.0
 48
0.0
 49
0.0
140
0.0
141
0.0
142
1.0
143
1.0
 70
1024
 72
1
 73
0
 74
5
  7

 75
16
 76
0
 77
2
 78
300
147
1.0
148
0.0
149
0.0
100
AcDbLayout
  1
Model
 70
1
 71
0
 10
0.0
 20
0.0
 11
420.0
 21
297.0
 12
0.0
 22
0.0
 32
0.0
 14
1e+20
 24
1e+20
 34
1e+20
 15
-1e+20
 25
-1e+20
 35
-1e+20
146
0.0
 13
0.0
 23
0.0
 33
0.0
 16
1.0
 26
0.0
 36
0.0
 17
0.0
 27
1.0
 37
0.0
 76
1
330
17
  0
LAYOUT
  5
1E
330
D
100
AcDbPlotSettings
  1

  4
A3
  6

 40
7.5
 41
20.0
 42
7.5
 43
20.0
 44
420.0
 45
297.0
 46
0.0
 47
0.0
 48
0.0
 49
0.0
140
0.0
141
0.0
142
1.0
143
1.0
 70
0
 72
1
 73
0
 74
5
  7

 75
16
 76
0
 77
2
 78
300
147
1.0
148
0.0
149
0.0
100
AcDbLayout
  1
Layout1
 70
1
 71
1
 10
0.0
 20
0.0
 11
420.0
 21
297.0
 12
0.0
 22
0.0
 32
0.0
 14
1e+20
 24
1e+20
 34
1e+20
 15
-1e+20
 25
-1e+20
 35
-1e+20
146
0.0
 13
0.0
 23
0.0
 33
0.0
 16
1.0
 26
0.0
 36
0.0
 17
0.0
 27
1.0
 37
0.0
 76
1
330
1B
  0
MATERIAL
  5
1F
102
{ACAD_REACTORS
330
E
102
}
330
E
100
AcDbMaterial
  1
ByBlock
  2

 70
0
 40
1.0
 71
1
 41
1.0
 91
-1023410177
 42
1.0
 72
1
  3

 73
1
 74
1
 75
1
 44
0.5
 73
0
 45
1.0
 46
1.0
 77
1
  4

 78
1
 79
1
170
1
 48
1.0
171
1
  6

172
1
173
1
174
1
140
1.0
141
1.0
175
1
  7

176
1
177
1
178
1
143
1.0
179
1
  8

270
1
271
1
272
1
145
1.0
146
1.0
273
1
  9

274
1
275
1
276
1
 42
1.0
 72
1
  3

 73
1
 74
1
 75
1
 94
63
  0
MATERIAL
  5
20
102
{ACAD_REACTORS
330
E
102
}
330
E
100
AcDbMaterial
  1
ByLayer
  2

 70
0
 40
1.0
 71
1
 41
1.0
 91
-1023410177
 42
1.0
 72
1
  3

 73
1
 74
1
 75
1
 44
0.5
 73
0
 45
1.0
 46
1.0
 77
1
  4

 78
1
 79
1
170
1
 48
1.0
171
1
  6

172
1
173
1
174
1
140
1.0
141
1.0
175
1
  7

176
1
177
1
178
1
143
1.0
179
1
  8

270
1
271
1
272
1
145
1.0
146
1.0
273
1
  9

274
1
275
1
276
1
 42
1.0
 72
1
  3

 73
1
 74
1
 75
1
 94
63
  0
MATERIAL
  5
21
102
{ACAD_REACTORS
330
E
102
}
330
E
100
AcDbMaterial
  1
Global
  2

 70
0
 40
1.0
 71
1
 41
1.0
 91
-1023410177
 42
1.0
 72
1
  3

 73
1
 74
1
 75
1
 44
0.5
 73
0
 45
1.0
 46
1.0
 77
1
  4

 78
1
 79
1
170
1
 48
1.0
171
1
  6

172
1
173
1
174
1
140
1.0
141
1.0
175
1
  7

176
1
177
1
178
1
143
1.0
179
1
  8

270
1
271
1
272
1
145
1.0
146
1.0
273
1
  9

274
1
275
1
276
1
 42
1.0
 72
1
  3

 73
1
 74
1
 75
1
 94
63
  0
MLINESTYLE
  5
22
102
{ACAD_REACTORS
330
10
102
}
330
10
100
AcDbMlineStyle
  2
Standard
 70
0
  3

 62
256
 51
90.0
 52
90.0
 71
2
 49
0.5
 62
256
  6
BYLAYER
 49
-0.5
 62
256
  6
BYLAYER
  0
MLEADERSTYLE
  5
2C
102
{ACAD_REACTORS
330
F
102
}
330
F
100
AcDbMLeaderStyle
179
2
170
2
171
1
172
0
 90
2
 40
0.0
 41
0.0
173
1
 91
-1056964608
 92
-2
290
1
 42
2.0
291
1
 43
8.0
  3
Standard
 44
4.0
300

342
29
174
1
175
1
176
0
178
1
 93
-1056964608
 45
4.0
292
0
297
0
 46
4.0
 94
-1056964608
 47
1.0
 49
1.0
140
1.0
294
1
141
0.0
177
0
142
1.0
295
0
296
0
143
3.75
271
0
272
9
273
9
  0
DICTIONARY
  5
2D
330
A
100
AcDbDictionary
280
1
281
1
  3
CREATED_BY_EZDXF
350
2E
  3
WRITTEN_BY_EZDXF
350
14D
  0
DICTIONARYVAR
  5
2E
330
2D
100
DictionaryVariables
280
0
  1
1.4.4 @ 2026-09-03T21:20:43.375451+00:00
  0
DICTIONARYVAR
  5
14D
330
2D
100
DictionaryVariables
280
0
  1
1.4.4 @ 2026-09-03T21:20:44.999461+00:00
  0
ENDSEC
  0
EOF
