0
SECTION
2
HEADER
9
$HANDSEED
5
72
9
$INSUNITS
70
4
9
$ACADVER
1
AC1021
0
ENDSEC
0
SECTION
2
CLASSES
0
ENDSEC
0
SECTION
2
TABLES
0
TABLE
2
LTYPE
5
70
330
0
100
AcDbSymbolTable
70
7
0
LTYPE
5
4E
330
70
100
AcDbSymbolTableRecord
100
AcDbLinetypeTableRecord
2
CONTINUOUS
3
______
70
0
72
65
73
0
40
0
0
LTYPE
5
4F
330
70
100
AcDbSymbolTableRecord
100
AcDbLinetypeTableRecord
2
DASHED
3
_ _ _ 
70
0
72
65
73
2
40
10
49
5
74
0
49
-5
74
0
0
LTYPE
5
50
330
70
100
AcDbSymbolTableRecord
100
AcDbLinetypeTableRecord
2
DOTTED
3
. . . 
70
0
72
65
73
2
40
5
49
0
74
0
49
-5
74
0
0
LTYPE
5
52
330
70
100
AcDbSymbolTableRecord
100
AcDbLinetypeTableRecord
2
ByBlock
3

70
0
72
65
73
0
40
0
0
LTYPE
5
53
330
70
100
AcDbSymbolTableRecord
100
AcDbLinetypeTableRecord
2
ByLayer
3

70
0
72
65
73
0
40
0
0
LTYPE
5
62
330
70
100
AcDbSymbolTableRecord
100
AcDbLinetypeTableRecord
2
DASHDOT
3
Dash dot
70
0
72
65
73
4
40
10.5
49
6
74
0
49
-2
74
0
49
0.5
74
0
49
-2
74
0
0
LTYPE
5
63
330
70
100
AcDbSymbolTableRecord
100
AcDbLinetypeTableRecord
2
CENTER
3
Center
70
0
72
65
73
4
40
13.5
49
8
74
0
49
-2
74
0
49
1.5
74
0
49
-2
74
0
0
ENDTAB
0
TABLE
2
LAYER
5
71
330
0
100
AcDbSymbolTable
70
1
0
LAYER
5
64
330
71
100
AcDbSymbolTableRecord
100
AcDbLayerTableRecord
2
0
420
16777215
70
0
6
CONTINUOUS
390
1
0
ENDTAB
0
TABLE
2
VPORT
5
54
330
0
100
AcDbSymbolTable
70
1
0
VPORT
5
5A
330
54
100
AcDbSymbolTableRecord
100
AcDbViewportTableRecord
2
*ACTIVE
40
1000
70
0
0
ENDTAB
0
TABLE
2
STYLE
5
55
330
0
100
AcDbSymbolTable
70
1
0
STYLE
5
5B
330
55
100
AcDbSymbolTableRecord
100
AcDbTextStyleTableRecord
2
standard
70
0
40
0
41
1
50
0
71
0
42
1
3
txt
4

0
ENDTAB
0
TABLE
2
VIEW
5
56
330
0
100
AcDbSymbolTable
70
0
0
ENDTAB
0
TABLE
2
UCS
5
57
330
0
100
AcDbSymbolTable
70
0
0
ENDTAB
0
TABLE
2
APPID
5
58
330
0
100
AcDbSymbolTable
70
1
0
APPID
5
5C
330
58
100
AcDbSymbolTableRecord
100
AcDbRegAppTableRecord
2
ACAD
70
0
0
ENDTAB
0
TABLE
2
DIMSTYLE
5
59
330
0
100
AcDbSymbolTable
100
AcDbDimStyleTable
70
0
71
1
0
ENDTAB
0
TABLE
2
BLOCK_RECORD
5
6D
330
0
100
AcDbSymbolTable
70
2
0
BLOCK_RECORD
5
6E
330
6D
100
AcDbSymbolTableRecord
100
AcDbBlockTableRecord
2
*Model_Space
70
0
280
0
281
1
0
BLOCK_RECORD
5
6F
330
6D
100
AcDbSymbolTableRecord
100
AcDbBlockTableRecord
2
*Paper_Space
70
0
280
0
281
1
0
ENDTAB
0
ENDSEC
0
SECTION
2
BLOCKS
0
BLOCK
5
5D
330
0
100
AcDbEntity
100
AcDbBlockBegin
2
*Model_Space
70
0
10
0
20
0
30
0
3
*Model_Space
1

0
ENDBLK
5
5E
330
0
100
AcDbEntity
100
AcDbBlockEnd
0
BLOCK
5
5F
330
0
100
AcDbEntity
100
AcDbBlockBegin
2
*Paper_Space
70
0
10
0
20
0
30
0
3
*Paper_Space
1

0
ENDBLK
5
60
330
0
100
AcDbEntity
100
AcDbBlockEnd
0
ENDSEC
0
SECTION
2
ENTITIES
0
LWPOLYLINE
5
65
330
5D
100
AcDbEntity
100
AcDbPolyline
8
0
6
ByLayer
62
256
370
-1
90
1146
70
1
10
131.82536499999998
20
-0.2768346
10
131.82536499999998
20
-0.2768346
10
131.826
20
-0.27686
10
170.3638198
20
-0.27686
10
170.39498559999998
20
-0.2779776
10
170.3951888
20
-0.278003
10
170.3956206
20
-0.278003
10
170.481498
20
-0.27686
10
187.62146879999997
20
-0.27686
10
187.709175
20
-0.278003
10
187.7096068
20
-0.278003
10
187.70978459999998
20
-0.278003
10
187.74122979999999
20
-0.27686
10
197.9126598
20
-0.27686
10
197.9438256
20
-0.2779776
10
197.9440288
20
-0.278003
10
197.94446059999999
20
-0.278003
10
198.030338
20
-0.27686
10
215.16776879999998
20
-0.27686
10
215.255475
20
-0.278003
10
215.25590679999996
20
-0.278003
10
215.25608459999998
20
-0.278003
10
215.2875298
20
-0.27686
10
243.816759
20
-0.27686
10
244.0220926
20
-0.2895346
10
244.022753
20
-0.28956
10
244.022753
20
-0.28956
10
244.02341339999995
20
-0.28956
10
244.327934
20
-0.27686
10
253.82474
20
-0.27686
10
253.82537499999995
20
-0.2768346
10
253.8266196
20
-0.27670759999999994
10
253.82783879999997
20
-0.276479
10
253.82903259999998
20
-0.2761234
10
253.8301756
20
-0.2756408
10
253.83126779999998
20
-0.2750566
10
253.83230919999997
20
-0.27434539999999996
10
253.83327440000002
20
-0.27355799999999997
10
253.834138
20
-0.2726944
10
253.8349254
20
-0.27172919999999995
10
253.8356366
20
-0.2706878
10
253.83622079999998
20
-0.2695956
10
253.83670339999998
20
-0.2684526
10
253.83705899999998
20
-0.26725879999999996
10
253.8372876
20
-0.2660396
10
253.8374146
20
-0.264795
10
253.83744000000002
20
-0.26415999999999995
10
253.83744000000002
20
46.931453
10
253.84592359999996
20
46.9817704
10
253.84599980000002
20
46.9823292
10
253.84607599999998
20
46.983015
10
253.85615979999997
20
47.1298524
10
253.8562106
20
47.130461999999994
10
253.8561852
20
47.131097
10
253.8518672
20
47.278239199999994
10
253.8518672
20
47.2783662
10
253.8518164
20
47.2788488
10
253.83744000000002
20
47.461652599999994
10
253.83744000000002
20
66.493771
10
253.8418596
20
66.5512512
10
253.84188499999996
20
66.5517084
10
253.8419104
20
66.5518862
10
253.8459744
20
66.69902839999999
10
253.8459744
20
66.699638
10
253.845949
20
66.700273
10
253.83744000000002
20
66.82102459999999
10
253.83744000000002
20
67.472433
10
253.84592359999996
20
67.52275039999999
10
253.84599980000002
20
67.5233092
10
253.84607599999998
20
67.52399499999999
10
253.85615979999997
20
67.6708324
10
253.8562106
20
67.671442
10
253.8561852
20
67.67207699999999
10
253.8518672
20
67.81921919999999
10
253.8518672
20
67.81934619999998
10
253.8518164
20
67.8198288
10
253.83744000000002
20
68.0026326
10
253.83744000000002
20
87.03221099999999
10
253.8418596
20
87.08969119999999
10
253.84188499999996
20
87.09014839999999
10
253.8419104
20
87.09032619999999
10
253.8459744
20
87.2374684
10
253.8459744
20
87.23807799999999
10
253.845949
20
87.23871299999999
10
253.83744000000002
20
87.3594646
10
253.83744000000002
20
88.18966359999999
10
253.83771939999997
20
88.19299099999999
10
253.8377702
20
88.1936768
10
253.8377702
20
88.194261
10
253.83744000000002
20
88.2182132
10
253.83744000000002
20
97.73411999999999
10
253.8374146
20
97.73475499999999
10
253.8372876
20
97.7359996
10
253.83705899999998
20
97.7372188
10
253.83670339999998
20
97.73841259999999
10
253.83622079999998
20
97.7395556
10
253.8356366
20
97.74064779999999
10
253.8349254
20
97.7416892
10
253.834138
20
97.74265439999999
10
253.83327440000002
20
97.743518
10
253.83230919999997
20
97.74430539999999
10
253.83126779999998
20
97.74501659999999
10
253.8301756
20
97.74560079999999
10
253.82903259999998
20
97.74608339999999
10
253.82783879999997
20
97.746439
10
253.8266196
20
97.7466676
10
253.82537499999995
20
97.74679459999999
10
253.82474
20
97.74682
10
244.76880179999998
20
97.74682
10
244.71909399999998
20
97.751519
10
244.7189162
20
97.75154439999999
10
244.71845899999997
20
97.7515698
10
244.57141839999997
20
97.7582246
10
244.57085959999998
20
97.75824999999999
10
244.5701738
20
97.7582246
10
244.4232094
20
97.75042679999999
10
244.42257439999997
20
97.750376
10
244.42196479999998
20
97.7502998
10
244.39905399999998
20
97.74682
10
199.136
20
97.74682
10
199.13536499999998
20
97.74679459999999
10
199.1341204
20
97.7466676
10
199.1329012
20
97.746439
10
199.13170739999998
20
97.74608339999999
10
199.1305644
20
97.74560079999999
10
199.1294722
20
97.74501659999999
10
199.1284308
20
97.74430539999999
10
199.1274656
20
97.743518
10
199.126602
20
97.74265439999999
10
199.12581459999998
20
97.7416892
10
199.1251034
20
97.74064779999999
10
199.12451919999998
20
97.7395556
10
199.12403659999998
20
97.73841259999999
10
199.12368099999998
20
97.7372188
10
199.1234524
20
97.7359996
10
199.1233254
20
97.73475499999999
10
199.1233
20
97.73411999999999
10
199.1233
20
94.74199999999999
10
199.1233254
20
94.741365
10
199.1234524
20
94.7401204
10
199.12368099999998
20
94.73890119999999
10
199.12403659999998
20
94.73770739999999
10
199.12451919999998
20
94.73656439999999
10
199.1251034
20
94.73547219999999
10
199.12581459999998
20
94.7344308
10
199.126602
20
94.7334656
10
199.1274656
20
94.73260199999999
10
199.1284308
20
94.73181459999999
10
199.1294722
20
94.7311034
10
199.1305644
20
94.73051919999999
10
199.13170739999998
20
94.73003659999999
10
199.1329012
20
94.729681
10
199.1341204
20
94.7294524
10
199.13536499999998
20
94.7293254
10
199.136
20
94.7293
10
206.10438839999998
20
94.7293
10
206.11421819999998
20
94.646242
10
206.11426899999998
20
94.64578479999999
10
206.1143706
20
94.64525139999999
10
206.1373322
20
94.52973219999998
10
206.13743379999997
20
94.5293004
10
206.13743379999997
20
94.52924959999999
10
206.164053
20
94.418404
10
206.16412919999996
20
94.41815
10
206.16418
20
94.4179214
10
206.19615860000002
20
94.3045866
10
206.1962856
20
94.30415479999999
10
206.1964634
20
94.3036468
10
206.2372304
20
94.1931568
10
206.23725579999999
20
94.19305519999999
10
206.2374082
20
94.1926742
10
206.28101999999998
20
94.08736579999999
10
206.28114699999998
20
94.08706099999999
10
206.2812232
20
94.0869086
10
206.3305246
20
93.9799492
10
206.33077859999997
20
93.9794666
10
206.3309818
20
93.97906019999999
10
206.3885382
20
93.87631719999999
10
206.3887414
20
93.8759362
10
206.38876679999998
20
93.8758854
10
206.44832979999998
20
93.77870499999999
10
206.44845679999997
20
93.7785018
10
206.4486092
20
93.77827319999999
10
206.5140396
20
93.68035619999999
10
206.51434439999997
20
93.67992439999999
10
206.51462379999998
20
93.6795434
10
206.5875218
20
93.587062
10
206.5877504
20
93.58678259999999
10
206.587852
20
93.586681
10
206.661893
20
93.49999079999999
10
206.6620708
20
93.49976219999999
10
206.66222319999997
20
93.4996098
10
206.742157
20
93.4131482
10
206.7425126
20
93.41279259999999
10
206.7428682
20
93.412437
10
206.82932979999998
20
93.33250319999999
10
206.8294822
20
93.33235079999999
10
206.8297108
20
93.332173
10
206.91640099999998
20
93.258132
10
206.9165026
20
93.2580304
10
206.916782
20
93.2578018
10
207.0092634
20
93.18490379999999
10
207.00964439999998
20
93.1846244
10
207.0100762
20
93.1843196
10
207.10799319999998
20
93.1188892
10
207.1082218
20
93.1187368
10
207.10842499999998
20
93.1186098
10
207.20560539999997
20
93.05904679999999
10
207.2056562
20
93.05902139999999
10
207.20603719999997
20
93.0588182
10
207.3087802
20
93.0012618
10
207.30918659999998
20
93.0010586
10
207.30966919999997
20
93.0008046
10
207.4166286
20
92.9515032
10
207.416781
20
92.951427
10
207.41708579999997
20
92.95129999999999
10
207.52239419999998
20
92.9076882
10
207.52277519999998
20
92.90753579999999
10
207.52287679999998
20
92.90751039999999
10
207.6333668
20
92.86674339999999
10
207.63387479999997
20
92.86656559999999
10
207.63430659999997
20
92.8664386
10
207.7476414
20
92.83445999999999
10
207.74787
20
92.8344092
10
207.748124
20
92.83433299999999
10
207.8589696
20
92.80771379999999
10
207.85902040000002
20
92.80771379999999
10
207.8594522
20
92.8076122
10
207.9749714
20
92.78465059999999
10
207.9755048
20
92.78454899999998
10
207.97596199999998
20
92.78449819999999
10
208.0929036
20
92.7706552
10
208.09310679999996
20
92.7706298
10
208.09341159999997
20
92.7706044
10
208.20705119999997
20
92.76166359999999
10
208.2073814
20
92.7616382
10
208.20753379999996
20
92.7616128
10
208.32521199999996
20
92.75699
10
208.32572
20
92.75699
10
208.326228
20
92.75699
10
208.4439062
20
92.7616128
10
208.4440586
20
92.7616382
10
208.44438879999998
20
92.76166359999999
10
208.55802839999998
20
92.7706044
10
208.5583332
20
92.7706298
10
208.5585364
20
92.7706552
10
208.67547799999997
20
92.78449819999999
10
208.6759352
20
92.78454899999998
10
208.6764686
20
92.78465059999999
10
208.7919878
20
92.8076122
10
208.7924196
20
92.80771379999999
10
208.79247039999998
20
92.80771379999999
10
208.90331599999996
20
92.83433299999999
10
208.90357
20
92.8344092
10
208.90379859999996
20
92.83445999999999
10
209.01713339999998
20
92.8664386
10
209.01756519999998
20
92.86656559999999
10
209.0180732
20
92.86674339999999
10
209.1285632
20
92.90751039999999
10
209.12866479999997
20
92.90753579999999
10
209.1290458
20
92.9076882
10
209.23435419999998
20
92.95129999999999
10
209.23465899999997
20
92.951427
10
209.23481139999998
20
92.9515032
10
209.34177079999998
20
93.0008046
10
209.34225339999998
20
93.0010586
10
209.3426598
20
93.0012618
10
209.44540279999998
20
93.0588182
10
209.44578379999996
20
93.05902139999999
10
209.44583459999998
20
93.05904679999999
10
209.54301499999997
20
93.1186098
10
209.5432182
20
93.1187368
10
209.54344679999997
20
93.1188892
10
209.64136379999997
20
93.1843196
10
209.6417956
20
93.1846244
10
209.6421766
20
93.18490379999999
10
209.734658
20
93.2578018
10
209.7349374
20
93.2580304
10
209.73503899999997
20
93.258132
10
209.8217292
20
93.332173
10
209.82195779999998
20
93.33235079999999
10
209.8221102
20
93.33250319999999
10
209.9085718
20
93.412437
10
209.9089274
20
93.41279259999999
10
209.90928299999996
20
93.4131482
10
209.98921679999998
20
93.4996098
10
209.9893692
20
93.49976219999999
10
209.989547
20
93.49999079999999
10
210.06358799999998
20
93.586681
10
210.0636896
20
93.58678259999999
10
210.06391819999996
20
93.587062
10
210.1368162
20
93.6795434
10
210.13709559999998
20
93.67992439999999
10
210.1374004
20
93.68035619999999
10
210.20283080000002
20
93.77827319999999
10
210.20298319999998
20
93.7785018
10
210.20311019999997
20
93.77870499999999
10
210.26267319999997
20
93.8758854
10
210.2626986
20
93.8759362
10
210.26290179999998
20
93.87631719999999
10
210.3204582
20
93.97906019999999
10
210.32066139999998
20
93.9794666
10
210.3209154
20
93.9799492
10
210.37021679999998
20
94.0869086
10
210.37029299999998
20
94.08706099999999
10
210.37041999999997
20
94.08736579999999
10
210.4140318
20
94.1926742
10
210.41418419999997
20
94.19305519999999
10
210.4142096
20
94.1931568
10
210.45497659999998
20
94.3036468
10
210.4551544
20
94.30415479999999
10
210.4552814
20
94.3045866
10
210.48725999999996
20
94.4179214
10
210.4873108
20
94.41815
10
210.487387
20
94.418404
10
210.51400619999998
20
94.52924959999999
10
210.51400619999998
20
94.5293004
10
210.5141078
20
94.52973219999998
10
210.5370694
20
94.64525139999999
10
210.53717099999997
20
94.64578479999999
10
210.53722179999997
20
94.646242
10
210.54705159999997
20
94.7293
10
244.5454596
20
94.7293
10
245.5458386
20
94.6346342
10
246.5121054
20
94.38645079999999
10
247.42764839999998
20
93.99013459999999
10
248.26993779999998
20
93.45549
10
249.0182218
20
92.7956742
10
249.65408539999999
20
92.02691779999999
10
250.16183139999998
20
91.1681438
10
250.52901379999997
20
90.2405104
10
250.74653940000002
20
89.2668776
10
250.81229999999996
20
88.2199658
10
250.81229999999996
20
87.14849219999999
10
250.71745639999997
20
85.91677
10
250.4163394
20
84.66185759999999
10
249.9222332
20
83.46831159999999
10
249.2475584
20
82.3666882
10
248.408952
20
81.38411459999999
10
247.4270388
20
80.54474619999999
10
246.3259488
20
79.8692078
10
245.13275839999997
20
79.3741618
10
243.87688079999998
20
79.0717748
10
242.62623559999997
20
78.97241
10
220.77131359999998
20
78.97241
10
220.7585882
20
79.0118562
10
220.75838499999998
20
79.01238959999999
10
220.75825799999998
20
79.01271979999999
10
220.570425
20
79.47797159999999
10
220.57024719999998
20
79.4784034
10
220.57004399999997
20
79.4788098
10
220.47598779999998
20
79.6710116
10
220.4758354
20
79.6713418
10
220.47555599999998
20
79.67182439999999
10
220.2234102
20
80.10560559999999
10
220.2231562
20
80.10603739999999
10
220.2229276
20
80.106393
10
220.10245539999997
20
80.28325319999999
10
220.102176
20
80.2836342
10
220.101922
20
80.2839898
10
219.79059420000002
20
80.6774866
10
219.79031479999998
20
80.67784219999999
10
219.79001
20
80.6781724
10
219.64558559999998
20
80.8360842
10
219.64528079999997
20
80.8364144
10
219.6449506
20
80.83674459999999
10
219.2808162
20
81.1819306
10
219.2805114
20
81.18221
10
219.28013040000002
20
81.18251479999999
10
219.11470020000002
20
81.31827779999999
10
219.11439539999998
20
81.31853179999999
10
219.113989
20
81.3188366
10
218.70441399999999
20
81.608676
10
218.7040838
20
81.6089046
10
218.70365199999998
20
81.60918399999998
10
218.52059419999998
20
81.7200296
10
218.52018779999997
20
81.72025819999999
10
218.5198068
20
81.72046139999999
10
218.0731732
20
81.9490614
10
218.07276679999998
20
81.94926459999999
10
218.072335
20
81.9494424
10
217.8753834
20
82.03311
10
217.8750024
20
82.0332624
10
217.8745198
20
82.0334402
10
217.3998954
20
82.19615259999999
10
217.39951440000002
20
82.1962542
10
217.39903180000002
20
82.1964066
10
217.19214879999998
20
82.2511944
10
217.1917678
20
82.2512706
10
217.19125979999998
20
82.25139759999999
10
216.69829659999996
20
82.344895
10
216.69796639999998
20
82.34494579999999
10
216.6978394
20
82.3449712
10
216.5882384
20
82.3615828
10
216.5878828
20
82.36163359999999
10
216.58729859999997
20
82.36170979999999
10
216.47678319999997
20
82.37016799999999
10
216.47650380000002
20
82.37019339999999
10
216.47630059999997
20
82.37019339999999
10
215.9751332
20
82.39005619999999
10
215.97487919999998
20
82.3900816
10
215.9744982
20
82.3900816
10
215.94516119999997
20
82.38980219999999
10
215.91587499999997
20
82.3912246
10
215.915494
20
82.39125
10
215.91524
20
82.39125
10
196.77888
20
82.39125
10
196.77862599999997
20
82.39125
10
196.778245
20
82.3912246
10
196.77623839999998
20
82.391123
10
196.7742064
20
82.3912246
10
196.77362219999998
20
82.39125
10
196.7729618
20
82.3912246
10
196.70209579999997
20
82.3874908
10
196.63125519999997
20
82.384011
10
196.63056939999998
20
82.3839602
10
196.6300106
20
82.383884
10
196.62800399999998
20
82.3836046
10
196.625972
20
82.3834776
10
196.625591
20
82.3834522
10
196.625337
20
82.3834268
10
196.11444139999998
20
82.331306
10
196.11411119999997
20
82.33128059999999
10
196.1135524
20
82.331179
10
195.9057296
20
82.2950856
10
195.9052216
20
82.294984
10
195.904866
20
82.29488239999999
10
195.4063402
20
82.1716162
10
195.4059084
20
82.1714892
10
195.4054766
20
82.17136219999999
10
195.2047658
20
82.10646519999999
10
195.204334
20
82.1063128
10
195.2039276
20
82.1061604
10
194.7276268
20
81.9141364
10
194.72711879999997
20
81.91393319999999
10
194.726814
20
81.9137808
10
194.537203
20
81.8213502
10
194.53679659999997
20
81.821147
10
194.5364156
20
81.8209438
10
194.0917378
20
81.56402279999999
10
194.091433
20
81.5638196
10
194.0909758
20
81.56354019999999
10
193.91622379999998
20
81.4454302
10
193.91579199999998
20
81.4451508
10
193.9154872
20
81.4449222
10
193.5112716
20
81.1281588
10
193.51086519999998
20
81.12782859999999
10
193.5105858
20
81.12757459999999
10
193.35412179999997
20
80.986122
10
193.35374079999997
20
80.9857664
10
193.3534614
20
80.98548699999999
10
192.9976836
20
80.61515499999999
10
192.99740419999998
20
80.6148756
10
192.9970994
20
80.61449459999999
10
192.86471459999999
20
80.4562272
10
192.86443519999997
20
80.455897
10
192.8641558
20
80.45554139999999
10
192.5625054
20
80.03976879999999
10
192.32209439999997
20
79.70842579999999
10
192.1124174
20
79.490189
10
191.87604499999998
20
79.3049468
10
191.61599979999997
20
79.1547058
10
191.3374634
20
79.0424378
10
191.04594759999998
20
78.9703526
10
190.692786
20
78.93431
10
182.34913999999998
20
78.93431
10
182.348886
20
78.93431
10
182.348505
20
78.9342846
10
182.343933
20
78.9340814
10
182.3393356
20
78.9342592
10
182.3388022
20
78.9342846
10
182.338091
20
78.9342592
10
182.26981579999998
20
78.9304238
10
182.2015152
20
78.927071
10
182.2008294
20
78.92702019999999
10
182.20027059999998
20
78.92694399999999
10
182.195724
20
78.92628359999999
10
182.1911266
20
78.9260296
10
182.19082179999998
20
78.9260042
10
182.190517
20
78.9259788
10
181.6542214
20
78.869413
10
181.6541452
20
78.869413
10
181.65376419999998
20
78.8693622
10
181.54418859999998
20
78.85369039999999
10
181.543579
20
78.8535888
10
181.54327419999998
20
78.853538
10
181.4351718
20
78.8298398
10
181.4348162
20
78.82976359999999
10
181.4347146
20
78.8297382
10
180.9125668
20
78.694915
10
180.9123382
20
78.6948642
10
180.9121096
20
78.69478799999999
10
180.80606459999998
20
78.6631904
10
180.8055566
20
78.66303799999999
10
180.80517559999998
20
78.6628856
10
180.7017214
20
78.6235664
10
180.7014166
20
78.6234394
10
180.7012896
20
78.6233886
10
180.20464339999998
20
78.4132544
10
180.2044656
20
78.4131782
10
180.2042116
20
78.4130512
10
180.1039578
20
78.3662136
10
180.10360219999998
20
78.36603579999999
10
180.10311959999999
20
78.3657818
10
180.0065996
20
78.3116544
10
180.0063202
20
78.311502
10
180.00619319999998
20
78.3114258
10
179.54584359999998
20
78.0305272
10
179.54558959999997
20
78.03037479999999
10
179.54546259999998
20
78.0302732
10
179.4531844
20
77.9691862
10
179.452778
20
77.9689322
10
179.4524224
20
77.96865279999999
10
179.364894
20
77.900911
10
179.364767
20
77.9008348
10
179.3645384
20
77.9006316
10
178.950493
20
77.55508999999999
10
178.950112
20
77.55473439999999
10
178.94980719999998
20
77.5544804
10
178.7926574
20
77.4025884
10
178.7923526
20
77.40225819999999
10
178.7920224
20
77.4019026
10
178.43256159999999
20
76.99982059999999
10
178.1467354
20
76.6801108
10
177.90340339999997
20
76.47701239999999
10
177.634011
20
76.3126236
10
177.34333339999998
20
76.1896622
10
177.037746
20
76.1107444
10
176.69177259999998
20
76.07427
10
172.00372
20
76.07427
10
172.003466
20
76.07427
10
172.003085
20
76.07424459999999
10
171.93460659999997
20
76.0708918
10
171.8661282
20
76.0679708
10
171.8656202
20
76.06794539999999
10
171.8654932
20
76.06794539999999
10
171.126912
20
76.0001528
10
171.1264294
20
76.000102
10
171.1264294
20
76.000102
10
171.0109102
20
75.9849636
10
171.0104276
20
75.9848874
10
171.009945
20
75.9848112
10
170.8959752
20
75.960732
10
170.8954926
20
75.9606304
10
170.17629159999998
20
75.779376
10
170.175809
20
75.779249
10
170.175809
20
75.779249
10
170.06404899999998
20
75.7464068
10
170.06356639999998
20
75.7462544
10
170.06310919999999
20
75.7460766
10
169.9542194
20
75.70467459999999
10
169.95414319999998
20
75.70464919999999
10
169.9537622
20
75.70449679999999
10
169.2712896
20
75.41412399999999
10
169.27098479999998
20
75.413997
10
169.2708324
20
75.4139208
10
169.1654986
20
75.3641876
10
169.16504139999998
20
75.363959
10
169.16460959999998
20
75.3637304
10
169.0634668
20
75.3059708
10
169.063416
20
75.3059454
10
169.06303499999999
20
75.3057168
10
168.4337246
20
74.9132106
10
168.43362299999998
20
74.91315979999999
10
168.43329279999998
20
74.9129566
10
168.3369252
20
74.84750079999999
10
168.3364934
20
74.847196
10
168.3361378
20
74.8469166
10
168.24512959999998
20
74.7741964
10
168.2449518
20
74.7740694
10
168.24474859999998
20
74.7738916
10
167.6837388
20
74.2887262
10
167.683561
20
74.2885738
10
167.6833832
20
74.28839599999999
10
167.5982932
20
74.20884319999999
10
167.5979122
20
74.2084622
10
167.597582
20
74.20813199999999
10
167.51894359999997
20
74.1222038
10
167.51884199999998
20
74.1221022
10
167.5186134
20
74.12184819999999
10
167.03944239999998
20
73.5557076
10
167.03913759999998
20
73.55532659999999
10
167.03913759999998
20
73.55532659999999
10
166.9673826
20
73.46355639999999
10
166.9670524
20
73.4631246
10
166.9667984
20
73.4627436
10
166.90240939999998
20
73.36569019999999
10
166.90213
20
73.3652584
10
166.90213
20
73.3652584
10
166.5163548
20
72.7318078
10
166.5162532
20
72.7316554
10
166.5161008
20
72.731376
10
166.4594334
20
72.62962359999999
10
166.45915399999998
20
72.6291156
10
166.4589762
20
72.62873459999999
10
166.4103606
20
72.5228674
10
166.4102336
20
72.5225626
10
166.41015739999997
20
72.5224102
10
166.12707439999997
20
71.83688959999999
10
166.12692199999998
20
71.83653399999999
10
166.12689659999998
20
71.8364324
10
166.0866376
20
71.72711079999999
10
166.0864598
20
71.7266282
10
166.0863328
20
71.726171
10
166.05468439999999
20
71.6140554
10
166.0546336
20
71.6138268
10
166.0545574
20
71.6135728
10
165.8809484
20
70.8924922
10
165.8808722
20
70.8921366
10
165.8808468
20
70.8920096
10
165.857936
20
70.77735399999999
10
165.8578344
20
70.7768206
10
165.8577836
20
70.77638879999999
10
165.8438644
20
70.66028539999999
10
165.84383899999997
20
70.66005679999999
10
165.84381359999998
20
70.6597774
10
165.83741279999998
20
70.58024999999999
10
162.17137999999997
20
70.58024999999999
10
162.171126
20
70.58024999999999
10
162.17074499999998
20
70.5802246
10
162.02375519999998
20
70.573011
10
162.02306939999997
20
70.5729602
10
162.0225106
20
70.57288399999999
10
161.9050356
20
70.55545959999999
10
160.5255616
20
70.5075298
10
160.5251044
20
70.50750439999999
10
160.52467259999997
20
70.507479
10
160.3118714
20
70.4847968
10
160.31123639999998
20
70.4847206
10
160.31095699999997
20
70.48466979999999
10
158.4916058
20
70.15825439999999
10
158.4911994
20
70.1581782
10
158.49071679999997
20
70.1580512
10
158.28332579999997
20
70.1053462
10
158.28286859999997
20
70.1052192
10
158.2824368
20
70.1050922
10
156.5280588
20
69.5230766
10
156.5277794
20
69.52297499999999
10
156.5272206
20
69.52274639999999
10
156.3294308
20
69.4410346
10
156.3289482
20
69.4408314
10
156.3285926
20
69.44067899999999
10
156.12109999999998
20
69.337047
10
156.06204499999998
20
69.391657
10
156.0618926
20
69.391784
10
156.061664
20
69.3919872
10
155.99529379999998
20
69.44868
10
155.9951668
20
69.4487816
10
155.99491279999998
20
69.44898479999999
10
155.90243139999998
20
69.5219082
10
155.9020504
20
69.5221876
10
155.90161859999998
20
69.52249239999999
10
155.80370159999998
20
69.5879228
10
155.8034476
20
69.5880752
10
155.8032698
20
69.58817679999999
10
155.72884779999998
20
69.6337952
10
155.7286446
20
69.6338968
10
155.72841599999998
20
69.63404919999999
10
155.62567299999998
20
69.69158019999999
10
155.62513959999998
20
69.6918596
10
155.624784
20
69.69203739999999
10
155.51782459999998
20
69.74133880000001
10
155.51739279999998
20
69.741542
10
155.51736739999998
20
69.741542
10
155.4367224
20
69.774943
10
155.4364684
20
69.7750446
10
155.4362652
20
69.7751208
10
155.32577519999998
20
69.8158878
10
155.3252418
20
69.8160656
10
155.32483539999998
20
69.8161926
10
155.2114752
20
69.8481712
10
155.211272
20
69.84822199999999
10
155.2109926
20
69.8482982
10
155.12613119999997
20
69.868669
10
155.12608039999998
20
69.868669
10
155.12562319999998
20
69.86877059999999
10
155.01012939999998
20
69.8917576
10
155.0095706
20
69.8918592
10
155.0091388
20
69.89191
10
154.8921972
20
69.90575299999999
10
154.89199399999998
20
69.9057784
10
154.8916892
20
69.90580379999999
10
154.8046688
20
69.9126364
10
154.8043386
20
69.9126618
10
154.8041862
20
69.9126872
10
154.686508
20
69.91731
10
154.68599999999998
20
69.91731
10
154.68549199999998
20
69.91731
10
154.56781379999998
20
69.9126872
10
154.5676614
20
69.9126618
10
154.56733119999998
20
69.9126364
10
154.4803108
20
69.90580379999999
10
154.48000599999997
20
69.9057784
10
154.4798028
20
69.90575299999999
10
154.3628612
20
69.89191
10
154.3624294
20
69.8918592
10
154.36187059999997
20
69.8917576
10
154.24637679999998
20
69.86877059999999
10
154.2459196
20
69.868669
10
154.24586879999998
20
69.868669
10
154.1610074
20
69.8482982
10
154.160728
20
69.84822199999999
10
154.1605248
20
69.8481712
10
154.04716459999997
20
69.8161926
10
154.0467582
20
69.8160656
10
154.04622479999998
20
69.8158878
10
153.9357348
20
69.7751208
10
153.9355316
20
69.7750446
10
153.9352776
20
69.774943
10
153.85463259999997
20
69.741542
10
153.85460719999998
20
69.741542
10
153.8541754
20
69.74133880000001
10
153.747216
20
69.69203739999999
10
153.7468604
20
69.6918596
10
153.74632699999998
20
69.69158019999999
10
153.643584
20
69.63404919999999
10
153.6433554
20
69.6338968
10
153.6431522
20
69.6337952
10
153.5687302
20
69.58817679999999
10
153.5685524
20
69.5880752
10
153.56829839999997
20
69.5879228
10
153.47038139999998
20
69.52249239999999
10
153.4699496
20
69.5221876
10
153.4695686
20
69.5219082
10
153.37708719999998
20
69.44898479999999
10
153.3768332
20
69.4487816
10
153.37670619999997
20
69.44868
10
153.310336
20
69.3919872
10
153.3101074
20
69.391784
10
153.309955
20
69.391657
10
153.223468
20
69.3116978
10
153.2231124
20
69.3113676
10
153.22278219999998
20
69.31101199999999
10
153.142823
20
69.224525
10
153.14269599999997
20
69.2243726
10
153.1424928
20
69.224144
10
153.0858
20
69.1577738
10
153.08569839999998
20
69.1576468
10
153.0854952
20
69.1573928
10
153.0125718
20
69.0649114
10
153.01229239999998
20
69.0645304
10
153.0119876
20
69.0640986
10
152.9465572
20
68.9661816
10
152.9464048
20
68.96592759999999
10
152.9463032
20
68.9657498
10
152.9006848
20
68.8913278
10
152.90058319999997
20
68.8911246
10
152.90043079999998
20
68.890896
10
152.8428998
20
68.788153
10
152.8426204
20
68.7876196
10
152.8424426
20
68.787264
10
152.79314119999998
20
68.6803046
10
152.792938
20
68.6798728
10
152.792938
20
68.67984739999999
10
152.759537
20
68.5992024
10
152.7594354
20
68.5989484
10
152.75935919999998
20
68.5987452
10
152.7185922
20
68.4882552
10
152.7184144
20
68.48772179999999
10
152.71828739999998
20
68.4873154
10
152.68630879999998
20
68.3739552
10
152.68625799999998
20
68.373752
10
152.68618179999999
20
68.3734726
10
152.665811
20
68.28861119999999
10
152.665811
20
68.2885604
10
152.6657094
20
68.2881032
10
152.6427224
20
68.1726094
10
152.6426208
20
68.17205059999999
10
152.64256999999998
20
68.17161879999999
10
152.628727
20
68.05467719999999
10
152.6287016
20
68.054474
10
152.6286762
20
68.0541692
10
152.62184359999998
20
67.9671488
10
152.6218182
20
67.9668186
10
152.6217928
20
67.96666619999999
10
152.61717
20
67.84898799999999
10
152.61717
20
67.84848
10
152.61717
20
67.847972
10
152.6217928
20
67.7302938
10
152.6218182
20
67.7301414
10
152.62184359999998
20
67.7298112
10
152.6286762
20
67.64279079999999
10
152.6287016
20
67.64248599999999
10
152.628727
20
67.6422828
10
152.64256999999998
20
67.5253412
10
152.6426208
20
67.5249094
10
152.6427224
20
67.52435059999999
10
152.6657094
20
67.4088568
10
152.665811
20
67.4083996
10
152.665811
20
67.40834879999998
10
152.68618179999999
20
67.32348739999999
10
152.68625799999998
20
67.32320800000001
10
152.68630879999998
20
67.32300479999999
10
152.71160719999997
20
67.233292
10
151.44760159999998
20
66.05877059999999
10
151.44719519999998
20
66.0583642
10
151.4469666
20
66.0581356
10
151.3009928
20
65.90164619999999
10
151.30068799999998
20
65.901316
10
151.3004086
20
65.9009604
10
150.13917139999998
20
64.4628378
10
150.1388412
20
64.46238059999999
10
150.138638
20
64.46210119999999
10
150.0164132
20
64.2864348
10
150.0161846
20
64.2861046
10
150.0159306
20
64.2856728
10
149.071203
20
62.6969282
10
149.0709236
20
62.696470999999995
10
149.0707458
20
62.696140799999995
10
148.9747846
20
62.50487879999999
10
148.97460679999998
20
62.504497799999996
10
148.9744036
20
62.504040599999996
10
148.265388
20
60.7970336
10
148.26521019999998
20
60.7966018
10
148.2650578
20
60.79616999999999
10
148.1972906
20
60.5931986
10
148.1971382
20
60.592716
10
148.1970366
20
60.59233499999999
10
147.73816019999998
20
58.801787399999995
10
147.7380586
20
58.801330199999995
10
147.7379824
20
58.800898399999994
10
147.69978079999998
20
58.5903324
10
147.6997046
20
58.5898244
10
147.6996538
20
58.5894434
10
147.5002638
20
56.751804199999995
10
147.50023839999997
20
56.751473999999995
10
147.500213
20
56.7511946
10
147.4998066
20
56.7443366
10
147.49881599999998
20
56.73752939999999
10
147.4987398
20
56.73697059999999
10
147.49868899999998
20
56.7362848
10
147.4954378
20
56.6702448
10
147.49155159999998
20
56.6042556
10
147.49152619999998
20
56.60364599999999
10
147.49152619999998
20
56.603010999999995
10
147.4918056
20
56.596152999999994
10
147.49147539999998
20
56.58929499999999
10
147.49145
20
56.588913999999995
10
147.49145
20
56.58866
10
147.49145
20
50.8910844
10
147.385913
20
50.842417999999995
10
147.385405
20
50.842189399999995
10
147.385024
20
50.841960799999995
10
147.28225559999998
20
50.7844298
10
147.28202699999997
20
50.7843028
10
147.28182379999998
20
50.78417579999999
10
147.2070716
20
50.738354199999996
10
147.2068938
20
50.738252599999996
10
147.2066398
20
50.7381002
10
147.10872279999998
20
50.6726698
10
147.10836719999998
20
50.672415799999996
10
147.10790999999998
20
50.6720602
10
147.01542859999998
20
50.599162199999995
10
147.0151746
20
50.598933599999995
10
147.0150476
20
50.5988574
10
146.9483726
20
50.541910599999994
10
146.94829639999998
20
50.5418344
10
146.9479916
20
50.541554999999995
10
146.86153
20
50.461621199999996
10
146.86114899999998
20
50.461290999999996
10
146.86081879999998
20
50.46091
10
146.780885
20
50.3744484
10
146.78060559999997
20
50.3741436
10
146.7805294
20
50.374067399999994
10
146.72358260000001
20
50.3073924
10
146.7235064
20
50.3072654
10
146.72327779999998
20
50.3070114
10
146.6503798
20
50.214529999999996
10
146.6500242
20
50.2140728
10
146.6497702
20
50.2137172
10
146.58433979999998
20
50.115800199999995
10
146.5841874
20
50.1155462
10
146.5840858
20
50.1153684
10
146.5382642
20
50.040616199999995
10
146.5381372
20
50.040412999999994
10
146.53801019999997
20
50.040184399999994
10
146.4804792
20
49.937416
10
146.48025059999998
20
49.937034999999995
10
146.480022
20
49.936527
10
146.4307206
20
49.829592999999996
10
146.4306444
20
49.8294152
10
146.43051739999999
20
49.8291358
10
146.396964
20
49.7481098
10
146.39678619999998
20
49.747652599999995
10
146.3560192
20
49.637162599999996
10
146.3558414
20
49.6366292
10
146.35571439999998
20
49.6362228
10
146.32373579999998
20
49.522862599999996
10
146.32368499999998
20
49.522659399999995
10
146.3236088
20
49.52238
10
146.3031364
20
49.437112199999994
10
146.3030602
20
49.436781999999994
10
146.30303479999998
20
49.436629599999996
10
146.2800478
20
49.3211358
10
146.27999699999998
20
49.320754799999996
10
146.27989540000002
20
49.3201452
10
146.26605239999998
20
49.203178199999996
10
146.266027
20
49.20300039999999
10
146.2660016
20
49.2026956
10
146.2591436
20
49.115268799999996
10
146.2591182
20
49.114938599999995
10
146.2590928
20
49.1147862
10
146.25447
20
48.997108
10
146.25447
20
48.9966
10
146.25447
20
48.996092
10
146.2590928
20
48.8784138
10
146.2591182
20
48.8782614
10
146.2591436
20
48.8779312
10
146.2660016
20
48.790504399999996
10
146.266027
20
48.790199599999994
10
146.26605239999998
20
48.7900218
10
146.27989540000002
20
48.673054799999996
10
146.27999699999998
20
48.6724452
10
146.2800478
20
48.672064199999994
10
146.30303479999998
20
48.5565704
10
146.3030602
20
48.556417999999994
10
146.3031364
20
48.55608779999999
10
146.3236088
20
48.47082
10
146.32368499999998
20
48.47054059999999
10
146.32373579999998
20
48.47033739999999
10
146.35571439999998
20
48.356977199999996
10
146.3558414
20
48.3565708
10
146.3560192
20
48.3560374
10
146.39678619999998
20
48.2455474
10
146.396964
20
48.2450902
10
146.396964
20
48.2450902
10
146.43051739999999
20
48.1640642
10
146.4306444
20
48.163784799999995
10
146.4307206
20
48.16360699999999
10
146.480022
20
48.056672999999996
10
146.48025059999998
20
48.05616499999999
10
146.4804792
20
48.055784
10
146.53801019999997
20
47.9530156
10
146.5381372
20
47.952786999999994
10
146.5382642
20
47.95258379999999
10
146.5840858
20
47.8778316
10
146.5841874
20
47.8776538
10
146.58433979999998
20
47.8773998
10
146.6497702
20
47.7794828
10
146.6500242
20
47.7791272
10
146.6503798
20
47.77867
10
146.72327779999998
20
47.6861886
10
146.7235064
20
47.685934599999996
10
146.72358260000001
20
47.6858076
10
146.7805294
20
47.61913259999999
10
146.78060559999997
20
47.6190564
10
146.780885
20
47.618751599999996
10
146.86081879999998
20
47.532289999999996
10
146.86114899999998
20
47.531909
10
146.86153
20
47.5315788
10
146.9479916
20
47.45164499999999
10
146.94829639999998
20
47.451365599999995
10
146.9483726
20
47.45128939999999
10
147.0150476
20
47.3943426
10
147.0151746
20
47.39426639999999
10
147.01542859999998
20
47.3940378
10
147.10790999999998
20
47.3211398
10
147.10836719999998
20
47.3207842
10
147.10872279999998
20
47.3205302
10
147.2066398
20
47.255099799999996
10
147.2068938
20
47.2549474
10
147.2070716
20
47.2548458
10
147.28182379999998
20
47.209024199999995
10
147.28202699999997
20
47.2088972
10
147.28225559999998
20
47.2087702
10
147.385024
20
47.1512392
10
147.385405
20
47.1510106
10
147.385913
20
47.150782
10
147.49145
20
47.1021156
10
147.49145
20
43.985941999999994
10
147.49119599999997
20
43.9841894
10
147.49111979999998
20
43.9836306
10
147.49106899999998
20
43.9829448
10
147.48385539999998
20
43.835955
10
147.48382999999998
20
43.835319999999996
10
147.48382999999998
20
43.8348374
10
147.4881734
20
43.7209438
10
147.4881988
20
43.7204612
10
147.4881988
20
43.7204612
10
147.49145
20
43.677738399999996
10
147.49145
20
43.45432
10
147.49145
20
43.454066
10
147.49147539999998
20
43.45368499999999
10
147.49868899999998
20
43.30669519999999
10
147.4987398
20
43.30600939999999
10
147.49881599999998
20
43.3054506
10
147.520406
20
43.1598578
10
147.5205076
20
43.1592482
10
147.52066
20
43.1586132
10
147.5354936
20
43.099380399999994
10
147.6551276
20
41.5281872
10
147.65517839999998
20
41.5278316
10
147.65522919999998
20
41.5273744
10
147.68311839999998
20
41.3320484
10
147.6831946
20
41.3315404
10
147.6832454
20
41.3312356
10
148.1365084
20
39.1798302
10
148.13661
20
39.179373
10
148.13671159999998
20
39.1790174
10
148.18997539999998
20
38.989050799999994
10
148.19005159999998
20
38.9888222
10
148.1902294
20
38.9882634
10
148.9219526
20
36.914963
10
148.922105
20
36.9145312
10
148.9222574
20
36.9141756
10
149.0000068
20
36.732870399999996
10
149.00021
20
36.732413199999996
10
149.0003624
20
36.732108399999994
10
149.9978966
20
34.7728032
10
149.99807439999998
20
34.772422199999994
10
149.998303
20
34.772066599999995
10
150.0991664
20
34.6024962
10
150.0993696
20
34.602191399999995
10
150.0996236
20
34.6018104
10
151.34569679999998
20
32.790384
10
151.3459254
20
32.7900538
10
151.34617939999998
20
32.789698200000004
10
151.4676422
20
32.6357488
10
151.46789619999998
20
32.6354694
10
151.46817559999997
20
32.6351138
10
152.940004
20
31.001665199999994
10
152.9402072
20
31.001436599999998
10
152.9404358
20
31.001208
10
152.961721
20
30.979770399999996
10
152.98176159999997
20
30.957164399999996
10
152.982168
20
30.9567326
10
152.9821934
20
30.9567072
10
154.01198559999997
20
29.9034962
10
154.8065484
20
28.7999932
10
155.42806099999999
20
27.5900896
10
155.86240099999998
20
26.3010904
10
156.08589560000001
20
25.040589999999998
10
143.168116
20
25.040589999999998
10
141.82023959999998
20
25.1466604
10
140.5634984
20
25.448387
10
139.3694444
20
25.9429758
10
138.2674654
20
26.618260199999998
10
137.28468859999998
20
27.4576286
10
136.4453202
20
28.4404054
10
135.7700358
20
29.5423844
10
135.27544699999999
20
30.7364384
10
134.9737204
20
31.993179599999998
10
134.8629764
20
33.4002888
10
134.86295099999998
20
33.40059359999999
10
134.86292559999998
20
33.400923799999994
10
134.8441804
20
33.546897599999994
10
134.8441042
20
33.5474818
10
134.84397719999998
20
33.5481422
10
134.83844
20
33.572196
10
134.83844
20
88.1795544
10
134.9067406
20
89.2668776
10
135.1242662
20
90.2405104
10
135.49144859999998
20
91.1681438
10
135.9991946
20
92.02691779999999
10
136.6350582
20
92.7956742
10
137.3833422
20
93.45549
10
138.22563159999999
20
93.99013459999999
10
139.14117459999997
20
94.38645079999999
10
140.1074414
20
94.6346342
10
141.161516
20
94.73437999999999
10
145.5316622
20
94.73437999999999
10
145.5330084
20
94.73300839999999
10
145.533491
20
94.7325766
10
145.5344562
20
94.7317892
10
145.5354722
20
94.7311034
10
145.5365898
20
94.73051919999999
10
145.5377328
20
94.73003659999999
10
145.5389266
20
94.729681
10
145.5401458
20
94.729427
10
145.54139039999998
20
94.7293254
10
145.542635
20
94.7293254
10
145.5438542
20
94.729427
10
145.54507339999998
20
94.729681
10
145.5462672
20
94.73003659999999
10
145.5474356
20
94.73051919999999
10
145.5485278
20
94.7311034
10
145.5495692
20
94.7317892
10
145.550509
20
94.7325766
10
145.55139799999998
20
94.7334656
10
145.55218539999998
20
94.7344308
10
145.5528966
20
94.73544679999999
10
145.5534808
20
94.73656439999999
10
145.5539634
20
94.73770739999999
10
145.554319
20
94.73890119999999
10
145.5545476
20
94.7401204
10
145.5546746
20
94.741365
10
145.5547
20
94.74199999999999
10
145.5547
20
97.74682
10
145.5546746
20
97.74745499999999
10
145.5545476
20
97.7486996
10
145.554319
20
97.74991879999999
10
145.5539634
20
97.7511126
10
145.5534808
20
97.7522556
10
145.5528966
20
97.7533478
10
145.55218539999998
20
97.75438919999999
10
145.55139799999998
20
97.75535439999999
10
145.5505344
20
97.75621799999999
10
145.5495692
20
97.7570054
10
145.5485278
20
97.7577166
10
145.5474356
20
97.7583008
10
145.5462926
20
97.7587834
10
145.54509879999998
20
97.75913899999999
10
145.5438796
20
97.75936759999999
10
145.542635
20
97.7594946
10
145.5419746
20
97.75952
10
141.15668999999997
20
97.754313
10
141.08310619999997
20
97.7582246
10
141.0824204
20
97.75824999999999
10
141.0818616
20
97.7582246
10
140.991336
20
97.7541352
10
134.82574
20
97.74682
10
131.826
20
97.74682
10
131.82536499999998
20
97.74679459999999
10
131.8241204
20
97.7466676
10
131.8229012
20
97.746439
10
131.82170739999998
20
97.74608339999999
10
131.8205644
20
97.74560079999999
10
131.81947219999998
20
97.74501659999999
10
131.8184308
20
97.74430539999999
10
131.8174656
20
97.743518
10
131.816602
20
97.74265439999999
10
131.8158146
20
97.7416892
10
131.8151034
20
97.74064779999999
10
131.8145192
20
97.7395556
10
131.8140366
20
97.73841259999999
10
131.813681
20
97.7372188
10
131.8134524
20
97.7359996
10
131.8133254
20
97.73475499999999
10
131.8133
20
97.73411999999999
10
131.8133
20
-0.26415999999999995
10
131.8133254
20
-0.264795
10
131.8134524
20
-0.2660396
10
131.813681
20
-0.26725879999999996
10
131.8140366
20
-0.2684526
10
131.8145192
20
-0.2695956
10
131.8151034
20
-0.2706878
10
131.8158146
20
-0.27172919999999995
10
131.816602
20
-0.2726944
10
131.8174656
20
-0.27355799999999997
10
131.8184308
20
-0.27434539999999996
10
131.81947219999998
20
-0.2750566
10
131.8205644
20
-0.2756408
10
131.82170739999998
20
-0.2761234
10
131.8229012
20
-0.276479
10
131.8241204
20
-0.27670759999999994
10
131.82536499999998
20
-0.2768346
0
LWPOLYLINE
5
66
330
5D
100
AcDbEntity
100
AcDbPolyline
8
0
6
ByLayer
62
256
370
-1
90
3216
70
1
10
134.83844
20
13.483844
10
134.83844
20
9.7064322
10
134.83844
20
9.706406799999998
10
134.8385924
20
9.705771799999999
10
134.83869399999998
20
9.7051622
10
134.86028399999998
20
9.559569399999999
10
134.8603602
20
9.559010599999999
10
134.860411
20
9.5583248
10
134.8619096
20
9.528073399999998
10
134.8624176
20
9.527032
10
134.8628748
20
9.525889
10
134.863205
20
9.5246444
10
134.8634336
20
9.5233998
10
134.8634844
20
9.5228156
10
134.944993
20
8.4262722
10
135.1628742
20
7.4634598
10
135.520684
20
6.5434464
10
136.01054839999998
20
5.686450399999999
10
136.6217232
20
4.9112678
10
137.3407972
20
4.234941999999999
10
138.1519208
20
3.6723319999999995
10
139.03731399999998
20
3.235833
10
139.977495
20
2.9349954
10
140.95188979999998
20
2.7764232
10
142.051405
20
2.762123
10
142.0517606
20
2.762123
10
142.05204
20
2.7620975999999997
10
142.19892819999998
20
2.7529535999999997
10
142.1995632
20
2.7529028
10
142.2001728
20
2.7528266
10
142.22829059999998
20
2.74828
10
170.4614574
20
2.74828
10
171.4548006
20
2.7614371999999996
10
172.4288906
20
2.9202125999999997
10
173.3688176
20
3.2212025999999994
10
174.2539314
20
3.6578285999999998
10
175.064801
20
4.220464
10
175.78362099999998
20
4.8967644
10
176.39456719999998
20
5.6718708
10
176.8842792
20
6.5287652
10
177.2419366
20
7.4486007999999995
10
177.46009719999998
20
8.4128102
10
177.53710999999998
20
9.419996399999999
10
177.53710999999998
20
9.523984
10
177.3794268
20
11.5274852
10
176.92418259999997
20
13.4236714
10
176.1779306
20
15.2253188
10
175.1590096
20
16.8880282
10
173.89254019999998
20
18.3708802
10
172.4096882
20
19.6373496
10
170.7469788
20
20.6562706
10
168.9453314
20
21.402522599999998
10
167.0491452
20
21.8577668
10
165.04564399999998
20
22.015449999999998
10
163.64965999999998
20
22.015449999999998
10
163.649406
20
22.015449999999998
10
163.649025
20
22.0154754
10
163.5020352
20
22.022689
10
163.50134939999998
20
22.022739799999997
10
163.5007906
20
22.022816
10
163.3551978
20
22.044406
10
163.3545882
20
22.0445076
10
163.35395319999998
20
22.04466
10
163.2111798
20
22.0804232
10
163.21051939999998
20
22.080600999999998
10
163.209986
20
22.0807788
10
163.0714036
20
22.1303596
10
163.070794
20
22.130613599999997
10
163.07026059999998
20
22.1308422
10
162.93719
20
22.193783399999997
10
162.9366312
20
22.194062799999998
10
162.93609779999997
20
22.194367599999996
10
162.80985979999997
20
22.270034199999998
10
162.80940259999997
20
22.270313599999998
10
162.80881839999998
20
22.27072
10
162.6905814
20
22.3584008
10
162.69012419999999
20
22.358756399999997
10
162.6896162
20
22.3591882
10
162.58057399999998
20
22.458045
10
162.58011679999998
20
22.4584768
10
162.579685
20
22.458934
10
162.4808282
20
22.5679762
10
162.4803964
20
22.568484199999997
10
162.48004079999998
20
22.5689414
10
162.39236
20
22.687178399999997
10
162.3919536
20
22.6877626
10
162.3916742
20
22.6882198
10
162.31600759999998
20
22.8144578
10
162.3157028
20
22.814991199999998
10
162.3154234
20
22.815549999999998
10
162.2524822
20
22.948620599999998
10
162.2522536
20
22.949154
10
162.2519996
20
22.949763599999997
10
162.20241879999998
20
23.088345999999998
10
162.202241
20
23.0888794
10
162.20206319999997
20
23.089539799999997
10
162.16629999999998
20
23.232313199999997
10
162.1661476
20
23.2329482
10
162.166046
20
23.2335578
10
162.144456
20
23.3791506
10
162.1443798
20
23.3797094
10
162.144329
20
23.3803952
10
162.1371154
20
23.527385
10
162.13709
20
23.528019999999998
10
162.1371154
20
23.528654999999997
10
162.144329
20
23.6756448
10
162.1443798
20
23.6763306
10
162.144456
20
23.6768894
10
162.166046
20
23.8224822
10
162.1661476
20
23.8230918
10
162.16629999999998
20
23.8237268
10
162.20206319999997
20
23.9665002
10
162.202241
20
23.9671606
10
162.20241879999998
20
23.967693999999998
10
162.2519996
20
24.1062764
10
162.2522536
20
24.106886
10
162.2524822
20
24.1074194
10
162.3154234
20
24.24049
10
162.3157028
20
24.241048799999998
10
162.31600759999998
20
24.2415822
10
162.3916742
20
24.367820199999997
10
162.3919536
20
24.3682774
10
162.39236
20
24.3688616
10
162.48004079999998
20
24.4870986
10
162.4803964
20
24.4875558
10
162.4808282
20
24.4880638
10
162.579685
20
24.597105999999997
10
162.58011679999998
20
24.5975632
10
162.58057399999998
20
24.597994999999997
10
162.6896162
20
24.696851799999997
10
162.69012419999999
20
24.6972836
10
162.6905814
20
24.697639199999998
10
162.80881839999998
20
24.78532
10
162.80940259999997
20
24.785726399999998
10
162.80985979999997
20
24.786005799999998
10
162.93609779999997
20
24.861672399999996
10
162.9366312
20
24.8619772
10
162.93719
20
24.8622566
10
163.07026059999998
20
24.9251978
10
163.070794
20
24.9254264
10
163.0714036
20
24.9256804
10
163.209986
20
24.9752612
10
163.21051939999998
20
24.975438999999998
10
163.2111798
20
24.9756168
10
163.35395319999998
20
25.01138
10
163.3545882
20
25.011532399999997
10
163.3551978
20
25.011633999999997
10
163.5007906
20
25.033223999999997
10
163.50134939999998
20
25.0333002
10
163.5020352
20
25.033351
10
163.649025
20
25.0405646
10
163.649406
20
25.040589999999998
10
163.64965999999998
20
25.040589999999998
10
165.10508000000002
20
25.040589999999998
10
165.105334
20
25.040589999999998
10
165.105715
20
25.0405646
10
165.164389
20
25.037694399999996
10
165.2231392
20
25.035967199999998
10
165.22326619999998
20
25.035967199999998
10
165.22374879999998
20
25.0359164
10
166.0938004
20
24.9674634
10
166.1542778
20
24.981357199999998
10
166.1549382
20
24.9814842
10
166.1555224
20
24.9815604
10
166.3014962
20
25.0003056
10
166.3018264
20
25.000330999999996
10
166.3021312
20
25.000356399999998
10
166.9527014
20
25.0515628
10
167.47152179999998
20
25.1761244
10
167.9644596
20
25.380315
10
168.41937359999997
20
25.65908
10
168.8250878
20
26.0056122
10
169.17162
20
26.4113264
10
169.3242994
20
26.660474999999998
10
169.32823639999998
20
26.680261599999994
10
169.32826179999998
20
26.680388599999997
10
169.328338
20
26.6807442
10
169.341546
20
26.735785999999997
10
169.341546
20
26.735785999999997
10
169.341673
20
26.736268599999995
10
169.3736516
20
26.8496034
10
169.37377859999998
20
26.8500352
10
169.3739564
20
26.8505686
10
169.41472339999999
20
26.961058599999998
10
169.41487579999998
20
26.9614142
10
169.41490119999997
20
26.961515799999997
10
169.4365674
20
27.013788999999996
10
169.4366944
20
27.014093799999998
10
169.4367706
20
27.0142462
10
169.48607199999998
20
27.121205599999996
10
169.4863006
20
27.121688199999998
10
169.48652919999998
20
27.122094599999997
10
169.5440602
20
27.224862999999996
10
169.54418719999998
20
27.2250916
10
169.54431419999997
20
27.2252694
10
169.5738798
20
27.273529399999997
10
169.57400679999998
20
27.2737326
10
169.5741592
20
27.273961199999995
10
169.6395896
20
27.3718782
10
169.63989439999997
20
27.37231
10
169.6401738
20
27.372691
10
169.66554839999998
20
27.4048728
10
169.7797214
20
27.880411599999995
10
169.82820999999998
20
28.471825199999998
10
169.82820999999998
20
35.370846199999995
10
169.813478
20
35.5749606
10
169.78129619999999
20
35.721442399999994
10
169.7284134
20
35.861777399999994
10
169.6559218
20
35.993069999999996
10
169.5652946
20
36.112577
10
169.45846219999999
20
36.217834599999996
10
169.33763439999998
20
36.3066584
10
169.205275
20
36.3771942
10
169.06415259999997
20
36.427968799999995
10
168.91665479999998
20
36.45809319999999
10
168.70105959999998
20
36.47059
10
163.17468
20
36.47059
10
163.174426
20
36.47059
10
163.17404499999998
20
36.4706154
10
163.1379516
20
36.472368
10
163.1018074
20
36.472368
10
163.1015534
20
36.472368
10
163.1011978
20
36.472368
10
162.081718
20
36.521974199999995
10
162.081337
20
36.5219996
10
162.0812354
20
36.5219996
10
161.96576699999997
20
36.532108799999996
10
161.9652336
20
36.5321596
10
161.9647764
20
36.532235799999995
10
161.8504256
20
36.5512096
10
161.85022239999998
20
36.5512604
10
161.849943
20
36.5513112
10
160.8504784
20
36.7572544
10
160.8501736
20
36.7573052
10
160.8499958
20
36.757356
10
160.7356704
20
36.785626199999996
10
160.7351878
20
36.7857532
10
160.73470519999998
20
36.7859056
10
160.62294519999998
20
36.823065799999995
10
160.62276740000001
20
36.823142
10
160.62248799999998
20
36.8232436
10
159.6675242
20
37.183009199999994
10
159.6672448
20
37.1831108
10
159.667067
20
37.183187
10
159.5585836
20
37.22900859999999
10
159.5581518
20
37.229186399999996
10
159.5576692
20
37.229414999999996
10
159.4531228
20
37.2835932
10
159.4527672
20
37.28379639999999
10
159.4526656
20
37.2838472
10
158.5657484
20
37.78857059999999
10
158.565596
20
37.788646799999995
10
158.5653166
20
37.7888246
10
158.4653422
20
37.85102919999999
10
158.46493579999998
20
37.851308599999996
10
158.464504
20
37.851588
10
158.36971119999998
20
37.9214634
10
158.3694572
20
37.921641199999996
10
158.3693048
20
37.921768199999995
10
157.57225279999997
20
38.5590288
10
157.5718718
20
38.559333599999995
10
157.48284479999998
20
38.6364226
10
157.48251459999997
20
38.6367528
10
157.4821336
20
38.6371084
10
157.39943119999998
20
38.720953800000004
10
157.3991772
20
38.7212332
10
157.39907559999997
20
38.721334799999994
10
156.7115484
20
39.47541
10
156.71131979999998
20
39.475638599999996
10
156.7112182
20
39.475791
10
156.6353484
20
39.5658594
10
156.6350182
20
39.5662658
10
156.63473879999998
20
39.566646799999994
10
156.56615879999998
20
39.6624048
10
156.5660064
20
39.6625826
10
156.5658794
20
39.6628112
10
156.00476799999998
20
40.515159
10
156.004641
20
40.5153368
10
156.0044886
20
40.5155908
10
155.9436556
20
40.6164288
10
155.9434016
20
40.616860599999995
10
155.943173
20
40.6172924
10
155.8904172
20
40.7225754
10
155.89034099999998
20
40.722727799999994
10
155.890214
20
40.723032599999996
10
155.469336
20
41.652672599999995
10
155.46923439999998
20
41.6528758
10
155.46913279999998
20
41.6531298
10
155.4248098
20
41.762248199999995
10
155.4246574
20
41.76268
10
155.4244796
20
41.763188
10
155.38884339999998
20
41.875430599999994
10
155.3887672
20
41.875735399999996
10
155.3887164
20
41.8759132
10
155.118435
20
42.85996
10
155.11833339999998
20
42.860391799999995
10
155.11833339999998
20
42.8604426
10
155.0916126
20
42.975123599999996
10
155.091511
20
42.975580799999996
10
155.0914348
20
42.9761142
10
155.07380719999998
20
43.0925478
10
155.0737564
20
43.0928272
10
155.073731
20
43.093055799999995
10
154.9607264
20
44.1072524
10
154.9607264
20
44.107354
10
154.96067559999997
20
44.107862
10
154.9601168
20
44.116904399999996
10
154.958796
20
44.1258706
10
154.95871979999998
20
44.1264294
10
154.958669
20
44.1271152
10
154.9555194
20
44.1909708
10
154.9515824
20
44.254775599999995
10
154.951557
20
44.255435999999996
10
154.951557
20
44.2560202
10
154.9518872
20
44.26506259999999
10
154.9514554
20
44.274105
10
154.95143
20
44.274485999999996
10
154.95143
20
44.27474
10
154.95143
20
56.390539999999994
10
154.95143
20
56.390794
10
154.9514554
20
56.391175
10
154.9527254
20
56.4174132
10
154.95236979999999
20
56.44370219999999
10
154.9523952
20
56.44426099999999
10
154.95242059999998
20
56.4449468
10
154.956383
20
56.491505
10
154.958669
20
56.5381648
10
154.95871979999998
20
56.538850599999996
10
154.958796
20
56.5394094
10
154.9626568
20
56.565419
10
154.9648666
20
56.5916064
10
154.964892
20
56.5918096
10
154.9649428
20
56.592216
10
155.0735278
20
57.399402599999995
10
155.073604
20
57.3998598
10
155.07368019999998
20
57.40029159999999
10
155.1172666
20
57.6098162
10
155.1173682
20
57.610248
10
155.1174952
20
57.61067979999999
10
155.3398468
20
58.394193599999994
10
155.3399992
20
58.394625399999995
10
155.3401262
20
58.39505719999999
10
155.4131004
20
58.5962252
10
155.41322739999998
20
58.5965554
10
155.4134306
20
58.597063399999996
10
155.74505299999998
20
59.340953199999994
10
155.7452816
20
59.3414612
10
155.745434
20
59.34176599999999
10
155.8462974
20
59.5305134
10
155.846526
20
59.53091979999999
10
155.8467546
20
59.53130079999999
10
156.2808406
20
60.2204282
10
156.2810946
20
60.22078379999999
10
156.2813486
20
60.221190199999995
10
156.4080438
20
60.393656199999995
10
156.40829779999999
20
60.393986399999996
10
156.4086026
20
60.39436739999999
10
156.93636379999998
20
61.0146862
10
156.9366178
20
61.014991
10
156.93697339999997
20
61.015372
10
157.08690959999998
20
61.168051399999996
10
157.0872652
20
61.1683816
10
157.08757
20
61.168661
10
157.6982368
20
61.707572799999994
10
157.6985924
20
61.7078776
10
157.69894799999997
20
61.70815699999999
10
157.8690772
20
61.837951
10
157.8694582
20
61.83823039999999
10
157.8698138
20
61.838459
10
158.55096559999998
20
62.284991
10
158.5513466
20
62.28521959999999
10
158.5517276
20
62.28544819999999
10
158.7386208
20
62.38971519999999
10
158.7389256
20
62.3898676
10
158.73943359999998
20
62.39012159999999
10
159.47717659999998
20
62.7351552
10
159.47753219999998
20
62.735333000000004
10
159.47801479999998
20
62.73551079999999
10
159.67783659999998
20
62.812117199999996
10
159.6782684
20
62.81226959999999
10
159.67870019999998
20
62.81242199999999
10
160.4580484
20
63.04894679999999
10
160.45835319999998
20
63.0490484
10
160.458912
20
63.0491754
10
160.6675984
20
63.09657179999999
10
160.6681064
20
63.0966734
10
160.6685128
20
63.09672419999999
10
161.4735912
20
63.21993959999999
10
161.47407379999999
20
63.2200158
10
161.4744802
20
63.2200412
10
161.68778939999999
20
63.23723699999999
10
161.68827199999998
20
63.2372624
10
161.68870379999998
20
63.23728779999999
10
162.50310399999998
20
63.2446792
10
162.50348499999998
20
63.244653799999995
10
162.503739
20
63.244653799999995
10
162.62880859999999
20
63.23965
10
167.84574
20
63.23965
10
167.845994
20
63.23965
10
167.846375
20
63.2396246
10
167.8789378
20
63.23802439999999
10
167.91152599999998
20
63.238202199999996
10
167.91211019999997
20
63.238202199999996
10
167.9127706
20
63.2381514
10
167.95300419999998
20
63.234392199999995
10
167.9933648
20
63.232411
10
167.9940506
20
63.2323602
10
167.99460939999997
20
63.23228399999999
10
168.0268674
20
63.2275088
10
168.0593286
20
63.224486199999994
10
168.0594302
20
63.22446079999999
10
168.0599382
20
63.22441
10
168.64388419999997
20
63.14086939999999
10
168.6440112
20
63.140844
10
168.64436679999997
20
63.1407932
10
168.7602162
20
63.1195334
10
168.7606988
20
63.1194572
10
168.7611814
20
63.11933019999999
10
168.8749988
20
63.08905339999999
10
168.8752782
20
63.088977199999995
10
168.87548139999998
20
63.0889264
10
169.43915819999998
20
62.915063399999994
10
169.439336
20
62.9150126
10
169.43964079999998
20
62.914911
10
169.550715
20
62.875795
10
169.5511976
20
62.87561719999999
10
169.5516548
20
62.87543939999999
10
169.6593254
20
62.8277382
10
169.65973179999997
20
62.827560399999996
10
169.6597826
20
62.827535
10
170.1893218
20
62.5676422
10
170.189525
20
62.567515199999995
10
170.1897536
20
62.567413599999995
10
170.29336019999997
20
62.511406599999994
10
170.2938428
20
62.5111272
10
170.2942238
20
62.5108986
10
170.393106
20
62.44694139999999
10
170.39325839999998
20
62.4468398
10
170.3935378
20
62.446661999999996
10
170.8759092
20
62.107140199999996
10
170.8760108
20
62.107063999999994
10
170.8762902
20
62.1068354
10
170.96986379999998
20
62.035309
10
170.9703718
20
62.034902599999995
10
170.9706258
20
62.034673999999995
10
171.05830659999998
20
61.9560356
10
171.058459
20
61.955908599999994
10
171.0586622
20
61.9557054
10
171.4819786
20
61.54488579999999
10
171.4822834
20
61.544580999999994
10
171.4823342
20
61.5445302
10
171.5635634
20
61.45926239999999
10
171.56389359999997
20
61.4589068
10
171.56422379999998
20
61.458525800000004
10
171.63851879999999
20
61.367136599999995
10
171.6386966
20
61.366907999999995
10
171.6388236
20
61.3667302
10
171.9926456
20
60.89477279999999
10
171.992798
20
60.8945696
10
171.99295039999998
20
60.8943664
10
172.0598286
20
60.79744
10
172.0600826
20
60.7970336
10
172.060362
20
60.79657639999999
10
172.1194424
20
60.694697
10
172.119544
20
60.694519199999995
10
172.11967099999998
20
60.6942652
10
172.3953372
20
60.1727524
10
172.39538799999997
20
60.172625399999994
10
172.3955404
20
60.17229519999999
10
172.446442
20
60.066097799999994
10
172.4466706
20
60.065640599999995
10
172.4468484
20
60.0651834
10
172.4892664
20
59.9553284
10
172.4892918
20
59.9552522
10
172.4894442
20
59.9548458
10
172.68009659999998
20
59.396629999999995
10
172.68017279999998
20
59.39645219999999
10
172.68024899999998
20
59.396172799999995
10
172.71390399999999
20
59.2832952
10
172.7140818
20
59.282711
10
172.71415799999997
20
59.28233
10
172.73887219999997
20
59.16719179999999
10
172.73887219999997
20
59.167140999999994
10
172.7389484
20
59.16670919999999
10
172.8399642
20
58.5855318
10
172.8399896
20
58.58527779999999
10
172.8400404
20
58.58504919999999
10
172.855636
20
58.4683108
10
172.85568679999997
20
58.467752
10
172.85571219999997
20
58.467320199999996
10
172.862113
20
58.34971819999999
10
172.862113
20
58.349337199999994
10
172.862113
20
58.3492102
10
172.8709522
20
57.75939679999999
10
172.8709522
20
57.759219
10
172.8709522
20
57.75878719999999
10
172.8705966
20
57.7480684
10
172.8711046
20
57.73737499999999
10
172.87113
20
57.736993999999996
10
172.87113
20
57.73674
10
172.87113
20
53.43598659999999
10
172.8831188
20
53.2101552
10
172.9138782
20
53.0551136
10
172.96638
20
52.9060156
10
173.02010099999998
20
52.80314559999999
10
173.02825439999998
20
52.8047712
10
173.0287878
20
52.8048728
10
173.02921959999998
20
52.804923599999995
10
173.1461866
20
52.8187666
10
173.14638979999998
20
52.818792
10
173.1466692
20
52.81881739999999
10
173.23887119999998
20
52.82605639999999
10
173.23920139999998
20
52.8260818
10
173.23935379999998
20
52.826107199999996
10
173.35703199999998
20
52.83073
10
173.35754
20
52.83073
10
173.358048
20
52.83073
10
173.4757262
20
52.826107199999996
10
173.4758786
20
52.8260818
10
173.4762088
20
52.82605639999999
10
173.5684108
20
52.81881739999999
10
173.5686902
20
52.818792
10
173.5688934
20
52.8187666
10
173.6858604
20
52.804923599999995
10
173.6862922
20
52.8048728
10
173.6868256
20
52.8047712
10
173.8023448
20
52.7817842
10
173.8027766
20
52.781682599999996
10
173.80282739999998
20
52.781682599999996
10
173.8927434
20
52.7600926
10
173.89299739999998
20
52.7600164
10
173.893226
20
52.759965599999994
10
174.0065608
20
52.72801239999999
10
174.0069926
20
52.7278854
10
174.00752599999998
20
52.727682200000004
10
174.11801599999998
20
52.68694059999999
10
174.1181176
20
52.686889799999996
10
174.11847319999998
20
52.686762800000004
10
174.2038934
20
52.65135519999999
10
174.2039188
20
52.65135519999999
10
174.20435059999997
20
52.6511774
10
174.31131
20
52.6018506
10
174.3117926
20
52.601622
10
174.312199
20
52.6014188
10
174.41494199999997
20
52.543862399999995
10
174.41519599999998
20
52.543735399999996
10
174.4153738
20
52.543608400000004
10
174.49421539999997
20
52.495297599999994
10
174.4942662
20
52.4952722
10
174.4946472
20
52.495018200000004
10
174.5925642
20
52.42958779999999
10
174.59299599999997
20
52.42928299999999
10
174.593377
20
52.4290036
10
174.6858584
20
52.3561056
10
174.68613779999998
20
52.355877
10
174.6862394
20
52.3557754
10
174.756572
20
52.2957298
10
174.75662279999997
20
52.295679
10
174.7569276
20
52.295399599999996
10
174.8434146
20
52.2154658
10
174.8437702
20
52.2151102
10
174.84412579999997
20
52.2147546
10
174.9240596
20
52.128267599999994
10
174.92433899999997
20
52.1279628
10
174.9243898
20
52.127912
10
174.9844354
20
52.057579399999995
10
174.984537
20
52.0574778
10
174.9847656
20
52.0571984
10
175.05766359999998
20
51.96471699999999
10
175.057943
20
51.964336
10
175.0582478
20
51.963904199999995
10
175.12367819999997
20
51.86598719999999
10
175.12393219999998
20
51.865606199999995
10
175.1239576
20
51.8655554
10
175.17226839999998
20
51.7867138
10
175.17239539999997
20
51.786536
10
175.1725224
20
51.78628199999999
10
175.2300788
20
51.683538999999996
10
175.230282
20
51.68313259999999
10
175.23051059999997
20
51.682649999999995
10
175.2798374
20
51.5756906
10
175.2800152
20
51.57525879999999
10
175.2800152
20
51.575233399999995
10
175.3154228
20
51.4898132
10
175.31554979999999
20
51.489457599999994
10
175.31560059999998
20
51.489356
10
175.3563422
20
51.378866
10
175.3565454
20
51.37833259999999
10
175.3566724
20
51.3779008
10
175.3886256
20
51.264565999999995
10
175.38867639999998
20
51.264337399999995
10
175.3887526
20
51.2640834
10
175.41034259999998
20
51.174167399999995
10
175.41034259999998
20
51.1741166
10
175.41044419999997
20
51.17368479999999
10
175.4334312
20
51.058165599999995
10
175.4335328
20
51.05763219999999
10
175.4335836
20
51.0572004
10
175.44742659999997
20
50.9402334
10
175.447452
20
50.9400302
10
175.4474774
20
50.93975079999999
10
175.4547164
20
50.8475488
10
175.4547418
20
50.8472186
10
175.4547672
20
50.8470662
10
175.45938999999998
20
50.729388
10
175.45938999999998
20
50.72888
10
175.45938999999998
20
50.72837199999999
10
175.4547672
20
50.6106938
10
175.4547418
20
50.610541399999995
10
175.4547164
20
50.6102112
10
175.4474774
20
50.5180092
10
175.447452
20
50.5177298
10
175.44742659999997
20
50.5175266
10
175.4335836
20
50.4005596
10
175.4335328
20
50.40012779999999
10
175.4334312
20
50.3995944
10
175.41044419999997
20
50.2840752
10
175.41034259999998
20
50.283643399999995
10
175.41034259999998
20
50.28359259999999
10
175.3887526
20
50.193676599999996
10
175.38867639999998
20
50.1934226
10
175.3886256
20
50.193194
10
175.3566724
20
50.0798592
10
175.3565454
20
50.07942739999999
10
175.3563422
20
50.078894
10
175.31560059999998
20
49.968404
10
175.31554979999999
20
49.96830239999999
10
175.3154228
20
49.96794679999999
10
175.2800152
20
49.8825266
10
175.2800152
20
49.8825012
10
175.2798374
20
49.8820694
10
175.23051059999997
20
49.77511
10
175.230282
20
49.77462739999999
10
175.2300788
20
49.774221
10
175.1725224
20
49.671478
10
175.17239539999997
20
49.671223999999995
10
175.17226839999998
20
49.6710462
10
175.1239576
20
49.5922046
10
175.12393219999998
20
49.5921538
10
175.12367819999997
20
49.591772799999994
10
175.0582478
20
49.4938558
10
175.057943
20
49.493424
10
175.05766359999998
20
49.49304299999999
10
174.9847656
20
49.400561599999996
10
174.984537
20
49.4002822
10
174.9844354
20
49.4001806
10
174.9243898
20
49.329848
10
174.92433899999997
20
49.329797199999994
10
174.9240596
20
49.3294924
10
174.84412579999997
20
49.243005399999994
10
174.8437702
20
49.242649799999995
10
174.8434146
20
49.242294199999996
10
174.7569276
20
49.1623604
10
174.75662279999997
20
49.162081
10
174.756572
20
49.1620302
10
174.6862394
20
49.101984599999994
10
174.68613779999998
20
49.101882999999994
10
174.6858584
20
49.101654399999994
10
174.593377
20
49.0287564
10
174.59299599999997
20
49.028476999999995
10
174.5925642
20
49.02817219999999
10
174.4946472
20
48.962741799999996
10
174.4942662
20
48.9624878
10
174.49421539999997
20
48.9624624
10
174.4153738
20
48.9141516
10
174.41519599999998
20
48.9140246
10
174.41494199999997
20
48.91389759999999
10
174.312199
20
48.856341199999996
10
174.3117926
20
48.856137999999994
10
174.31131
20
48.8559094
10
174.20435059999997
20
48.8065826
10
174.2039188
20
48.8064048
10
174.2038934
20
48.8064048
10
174.11847319999998
20
48.7709972
10
174.1181176
20
48.7708702
10
174.11801599999998
20
48.77081939999999
10
174.00752599999998
20
48.7300778
10
174.0069926
20
48.729874599999995
10
174.0065608
20
48.729747599999996
10
173.893226
20
48.69779439999999
10
173.89299739999998
20
48.6977436
10
173.8927434
20
48.69766739999999
10
173.80282739999998
20
48.6760774
10
173.8027766
20
48.6760774
10
173.8023448
20
48.675975799999996
10
173.6868256
20
48.652988799999996
10
173.6862922
20
48.652887199999995
10
173.6858604
20
48.65283639999999
10
173.5688934
20
48.6389934
10
173.5686902
20
48.638968
10
173.5684108
20
48.6389426
10
173.4762088
20
48.631703599999994
10
173.4758786
20
48.631678199999996
10
173.4757262
20
48.6316528
10
173.358048
20
48.62703
10
173.35754
20
48.62703
10
173.35703199999998
20
48.62703
10
173.23935379999998
20
48.6316528
10
173.23920139999998
20
48.631678199999996
10
173.23887119999998
20
48.631703599999994
10
173.1466692
20
48.6389426
10
173.14638979999998
20
48.638968
10
173.1461866
20
48.6389934
10
173.02921959999998
20
48.65283639999999
10
173.0287878
20
48.652887199999995
10
173.02825439999998
20
48.652988799999996
10
172.984414
20
48.661701
10
172.95065739999998
20
48.600690199999995
10
172.8976984
20
48.4604314
10
172.8655166
20
48.314609999999995
10
172.85334999999998
20
48.1464366
10
172.85334999999998
20
28.4261052
10
172.8841602
20
26.989684399999998
10
172.8958188
20
26.961515799999997
10
172.8958442
20
26.9614142
10
172.8959966
20
26.961058599999998
10
172.93676359999998
20
26.8505686
10
172.9369414
20
26.8500352
10
172.9370684
20
26.8496034
10
172.969047
20
26.736268599999995
10
172.96917399999998
20
26.735785999999997
10
172.982382
20
26.6807442
10
172.9824582
20
26.680388599999997
10
172.9824836
20
26.680261599999994
10
173.00547059999997
20
26.564742399999997
10
173.0055468
20
26.564209
10
173.005623
20
26.563777199999997
10
173.019466
20
26.446810199999998
10
173.0194914
20
26.446606999999997
10
173.0195168
20
26.446327599999996
10
173.0239364
20
26.389888799999998
10
173.0239618
20
26.389558599999997
10
173.0239872
20
26.3894062
10
173.02861
20
26.271727999999996
10
173.02861
20
26.27122
10
173.02861
20
26.270712
10
173.0239872
20
26.1530338
10
173.0239618
20
26.1528814
10
173.0239364
20
26.152551199999998
10
173.0195168
20
26.0961124
10
173.0194914
20
26.095833
10
173.019466
20
26.0956298
10
173.0159862
20
26.0662928
10
173.1367124
20
25.3482094
10
173.5975446
20
23.9179608
10
174.2604084
20
22.5692462
10
175.147605
20
21.2773006
10
175.94773039999998
20
20.593913599999997
10
175.947959
20
20.5937104
10
175.9481114
20
20.5935834
10
176.0345984
20
20.5136242
10
176.034954
20
20.513294
10
176.03528419999998
20
20.5129384
10
176.1152434
20
20.426451399999998
10
176.1153704
20
20.426299
10
176.1155736
20
20.4260704
10
177.5366782
20
18.7621926
10
177.5369068
20
18.7619132
10
177.536983
20
18.7618116
10
177.609881
20
18.6693048
10
177.6102366
20
18.668872999999998
10
177.6104906
20
18.6685174
10
177.6758956
20
18.570574999999998
10
177.6760734
20
18.5703464
10
177.67617499999997
20
18.5701686
10
178.81947979999998
20
16.7044624
10
178.8196068
20
16.7042592
10
178.8197338
20
16.7040306
10
178.87729019999998
20
16.601262199999997
10
178.8775696
20
16.600754199999997
10
178.87774739999998
20
16.6003732
10
178.9270488
20
16.4934392
10
178.9271758
20
16.493109
10
178.927252
20
16.492981999999998
10
179.76461379999998
20
14.471370599999998
10
179.76476619999997
20
14.471015
10
179.7647916
20
14.4709134
10
179.80555859999998
20
14.360423399999998
10
179.8057364
20
14.35989
10
179.8058634
20
14.359483599999999
10
179.837842
20
14.2461234
10
179.8378928
20
14.245920199999999
10
179.837969
20
14.2456408
10
180.3487884
20
12.117933599999999
10
180.34886459999998
20
12.1175272
10
180.34888999999998
20
12.117450999999999
10
180.37185159999999
20
12.0019572
10
180.37195319999998
20
12.0013984
10
180.37200399999998
20
12.000966599999998
10
180.38584699999998
20
11.8839996
10
180.38587239999998
20
11.883771
10
180.38589779999998
20
11.883517
10
180.5575764
20
9.702088799999999
10
180.55762719999998
20
9.701606199999999
10
180.55762719999998
20
9.7014792
10
180.5593544
20
9.642729
10
180.5622246
20
9.584055
10
180.56224999999998
20
9.583673999999998
10
180.56224999999998
20
9.58342
10
180.56224999999998
20
9.485757
10
180.64213299999997
20
8.4110322
10
180.86001419999997
20
7.4482198
10
181.21782399999998
20
6.5282064
10
181.7076884
20
5.6712104
10
182.3188632
20
4.8960278
10
183.0379372
20
4.219702
10
183.8490608
20
3.6570919999999996
10
184.734454
20
3.2205929999999996
10
185.674635
20
2.9197553999999997
10
186.6490298
20
2.7611831999999996
10
187.64115379999998
20
2.74828
10
198.01029739999998
20
2.74828
10
199.00364059999998
20
2.7614371999999996
10
199.9777306
20
2.9202125999999997
10
200.91765759999998
20
3.2212025999999994
10
201.80277139999998
20
3.6578285999999998
10
202.613641
20
4.220464
10
203.332461
20
4.8967644
10
203.9434072
20
5.6718708
10
204.4331192
20
6.5287652
10
204.7907766
20
7.4486007999999995
10
205.00858159999999
20
8.411260799999999
10
205.09011560000002
20
9.5076264
10
205.09011560000002
20
9.507727999999998
10
205.09016639999996
20
9.508261399999999
10
205.09103
20
9.5151448
10
205.09103
20
11.74242
10
205.09103
20
11.742674
10
205.0910554
20
11.743054999999998
10
205.09456059999997
20
11.814657599999999
10
205.0955258
20
11.848566599999998
10
205.09555120000002
20
11.848972999999999
10
205.09555120000002
20
11.849176199999999
10
205.0974816
20
11.8739666
10
205.098269
20
11.890044799999998
10
205.0983198
20
11.8907306
10
205.098396
20
11.8912894
10
205.099285
20
11.8973854
10
205.23847699999996
20
13.692581199999998
10
205.2385024
20
13.692885999999998
10
205.23852779999999
20
13.693063800000001
10
205.25239619999996
20
13.811046799999998
10
205.25247240000002
20
13.811656399999999
10
205.2525486
20
13.812037399999998
10
205.275688
20
13.9285218
10
205.2757134
20
13.928598
10
205.275815
20
13.929029799999999
10
205.7077928
20
15.726968799999998
10
205.707869
20
15.7272482
10
205.70791979999998
20
15.7274514
10
205.73992379999999
20
15.8407862
10
205.7401016
20
15.8413958
10
205.7402286
20
15.841725999999998
10
205.78099559999998
20
15.9521906
10
205.78107179999998
20
15.9523938
10
205.78117339999997
20
15.9526732
10
206.48907139999997
20
17.6609248
10
206.4891984
20
17.6612042
10
206.48927459999996
20
17.661382
10
206.5386014
20
17.7682906
10
206.5387792
20
17.768671599999998
10
206.53905859999998
20
17.7691796
10
206.59658960000002
20
17.871922599999998
10
206.59674199999998
20
17.8721512
10
206.5968436
20
17.8723544
10
207.56323739999996
20
19.448856199999998
10
207.56333899999998
20
19.449033999999997
10
207.56351679999997
20
19.4492626
10
207.62894719999997
20
19.5471796
10
207.62917579999998
20
19.5475352
10
207.6295314
20
19.547967
10
207.70242939999997
20
19.6404484
10
207.70265799999999
20
19.6407024
10
207.7027596
20
19.640829399999998
10
208.08906819999996
20
20.093051
10
208.1270666
20
20.1666094
10
208.1272444
20
20.166964999999998
10
208.12734599999996
20
20.167142799999997
10
208.8194198
20
21.360104599999996
10
208.82538879999998
20
21.3744302
10
208.8191658
20
21.3845648
10
208.81906419999999
20
21.3847426
10
208.8189372
20
21.3849712
10
208.76138079999998
20
21.487739599999998
10
208.7611776
20
21.488146
10
208.7609236
20
21.4886286
10
208.7116222
20
21.595588
10
208.71154599999997
20
21.5957404
10
208.71141899999998
20
21.5960452
10
208.68899079999997
20
21.6501726
10
208.6889654
20
21.6502488
10
208.68881299999998
20
21.650629799999997
10
208.64804599999997
20
21.7611198
10
208.64786819999998
20
21.761653199999998
10
208.64774119999998
20
21.7620596
10
208.61578799999998
20
21.8754198
10
208.61571179999999
20
21.875623
10
208.615661
20
21.8759024
10
208.6019704
20
21.932874599999998
10
208.6018942
20
21.933281
10
208.60186879999998
20
21.9333572
10
208.57890719999997
20
22.048851
10
208.5788056
20
22.0494098
10
208.57872939999996
20
22.049841599999997
10
208.5648864
20
22.166808599999996
10
208.5648864
20
22.1669864
10
208.56486099999998
20
22.167291199999998
10
208.56026359999998
20
22.2257112
10
208.5602382
20
22.226041399999996
10
208.5602128
20
22.2261938
10
208.55559
20
22.343871999999998
10
208.55559
20
22.34438
10
208.55559
20
22.344887999999997
10
208.5602128
20
22.462566199999998
10
208.5602382
20
22.4627186
10
208.56026359999998
20
22.4630488
10
208.56486099999998
20
22.521468799999997
10
208.5648864
20
22.5217736
10
208.5648864
20
22.5219514
10
208.57872939999996
20
22.638918399999998
10
208.5788056
20
22.6393502
10
208.57890719999997
20
22.639909
10
208.60186879999998
20
22.7554028
10
208.6018942
20
22.755479
10
208.6019704
20
22.755885399999997
10
208.615661
20
22.8128576
10
208.61571179999999
20
22.813137
10
208.61578799999998
20
22.8133402
10
208.64774119999998
20
22.9267004
10
208.64786819999998
20
22.9271068
10
208.64804599999997
20
22.9276402
10
208.68881299999998
20
23.038130199999998
10
208.6889654
20
23.0385112
10
208.68899079999997
20
23.0385874
10
208.71141899999998
20
23.0927148
10
208.71154599999997
20
23.093019599999998
10
208.7116222
20
23.093172
10
208.7609236
20
23.200131399999997
10
208.7611776
20
23.200614
10
208.76138079999998
20
23.201020399999997
10
208.8189372
20
23.303788799999996
10
208.81906419999999
20
23.3040174
10
208.8191658
20
23.3041952
10
208.8497982
20
23.354157
10
208.84989979999997
20
23.3543348
10
208.8500522
20
23.3545888
10
208.9154826
20
23.452505799999997
10
208.91573659999997
20
23.452861399999996
10
208.91606679999998
20
23.4533186
10
208.98899019999996
20
23.5458
10
208.9890664
20
23.5459016
10
208.989295
20
23.546181
10
209.02734420000002
20
23.5907326
10
209.02742039999998
20
23.5908088
10
209.0276744
20
23.5911136
10
209.10763359999996
20
23.677600599999998
10
209.1079638
20
23.677956199999997
10
209.1083194
20
23.6782864
10
209.19480639999998
20
23.7582456
10
209.19511119999996
20
23.7584996
10
209.1951874
20
23.7585758
10
209.23973900000001
20
23.796625
10
209.24001839999997
20
23.7968536
10
209.24012
20
23.7969298
10
209.3326014
20
23.869853199999998
10
209.33305860000002
20
23.8701834
10
209.33341419999996
20
23.870437399999997
10
209.43133120000002
20
23.935867799999997
10
209.4315852
20
23.936020199999998
10
209.431763
20
23.9361218
10
209.48172480000002
20
23.966754199999997
10
209.48190259999996
20
23.966855799999998
10
209.48213119999997
20
23.9669828
10
209.5848996
20
24.0245392
10
209.585306
20
24.0247424
10
209.5857886
20
24.0249964
10
209.68360399999997
20
24.070081399999996
10
209.8134488
20
25.0459748
10
209.8149474
20
26.325296599999998
10
209.6352932
20
27.692096
10
209.63524239999998
20
27.6924516
10
209.635217
20
27.692705599999996
10
209.6232282
20
27.839415999999996
10
209.6231774
20
27.840051
10
209.6231774
20
27.8406606
10
209.6255142
20
27.981173399999996
10
209.59912359999998
20
28.316631199999996
10
209.5990728
20
28.317113799999998
10
209.5990728
20
28.317240799999997
10
209.59734559999998
20
28.375991
10
209.5944754
20
28.434665
10
209.59444999999997
20
28.435046
10
209.59444999999997
20
28.435299999999998
10
209.59444999999997
20
47.7969072
10
209.57618739999998
20
48.0517454
10
209.53331219999998
20
48.248341399999994
10
209.46285259999996
20
48.436809399999994
10
209.366231
20
48.6132886
10
209.2454286
20
48.7741976
10
209.1029092
20
48.916208999999995
10
208.94159379999996
20
49.0364526
10
208.76475899999997
20
49.1324646
10
208.57606239999998
20
49.2022638
10
208.37928859999997
20
49.244453199999995
10
208.1217834
20
49.262029999999996
10
182.38724
20
49.262029999999996
10
182.38698599999998
20
49.262029999999996
10
182.386605
20
49.2620554
10
182.2396152
20
49.269268999999994
10
182.2389294
20
49.2693198
10
182.2383706
20
49.269396
10
182.0927778
20
49.290986
10
182.09216819999997
20
49.2910876
10
182.0915332
20
49.29124
10
181.9487598
20
49.32700319999999
10
181.9480994
20
49.327180999999996
10
181.947566
20
49.32735879999999
10
181.8089836
20
49.3769396
10
181.808374
20
49.3771936
10
181.8078406
20
49.3774222
10
181.67477
20
49.440363399999995
10
181.6742112
20
49.4406428
10
181.67367779999998
20
49.440947599999994
10
181.54743979999998
20
49.5166142
10
181.54698259999998
20
49.516893599999996
10
181.5463984
20
49.5173
10
181.4281614
20
49.6049808
10
181.4277042
20
49.6053364
10
181.4271962
20
49.60576819999999
10
181.318154
20
49.70462499999999
10
181.3176968
20
49.7050568
10
181.317265
20
49.705513999999994
10
181.2184082
20
49.8145562
10
181.2179764
20
49.815064199999995
10
181.2176208
20
49.815521399999994
10
181.12993999999998
20
49.9337584
10
181.1295336
20
49.934342599999994
10
181.1292542
20
49.9347998
10
181.0535876
20
50.061037799999994
10
181.05328279999998
20
50.061571199999996
10
181.0530034
20
50.062129999999996
10
180.9900622
20
50.1952006
10
180.9898336
20
50.195733999999995
10
180.98957959999998
20
50.1963436
10
180.93999879999998
20
50.334925999999996
10
180.939821
20
50.3354594
10
180.93964319999998
20
50.3361198
10
180.90388
20
50.478893199999995
10
180.9037276
20
50.4795282
10
180.90362599999997
20
50.480137799999994
10
180.882036
20
50.6257306
10
180.88195979999998
20
50.6262894
10
180.881909
20
50.6269752
10
180.87469539999998
20
50.773965
10
180.87467
20
50.7746
10
180.87469539999998
20
50.775234999999995
10
180.881909
20
50.922224799999995
10
180.88195979999998
20
50.9229106
10
180.882036
20
50.923469399999995
10
180.90362599999997
20
51.0690622
10
180.9037276
20
51.069671799999995
10
180.90388
20
51.07030679999999
10
180.93964319999998
20
51.21308019999999
10
180.939821
20
51.213740599999994
10
180.93999879999998
20
51.214273999999996
10
180.98957959999998
20
51.35285639999999
10
180.9898336
20
51.353466000000004
10
180.9900622
20
51.3539994
10
181.0530034
20
51.487069999999996
10
181.05328279999998
20
51.487628799999996
10
181.0535876
20
51.48816219999999
10
181.1292542
20
51.6144002
10
181.1295336
20
51.61485739999999
10
181.12993999999998
20
51.6154416
10
181.2176208
20
51.7336786
10
181.2179764
20
51.73413579999999
10
181.2184082
20
51.73464379999999
10
181.317265
20
51.843686
10
181.3176968
20
51.8441432
10
181.318154
20
51.844575
10
181.4271962
20
51.9434318
10
181.4277042
20
51.94386359999999
10
181.4281614
20
51.9442192
10
181.5463984
20
52.0319
10
181.54698259999998
20
52.03230639999999
10
181.54743979999998
20
52.0325858
10
181.67367779999998
20
52.10825239999999
10
181.6742112
20
52.1085572
10
181.67477
20
52.1088366
10
181.8078406
20
52.171777799999994
10
181.808374
20
52.172006399999994
10
181.8089836
20
52.17226039999999
10
181.947566
20
52.2218412
10
181.9480994
20
52.222019
10
181.9487598
20
52.22219679999999
10
182.0915332
20
52.25796
10
182.09216819999997
20
52.258112399999995
10
182.0927778
20
52.258213999999995
10
182.2383706
20
52.279804000000006
10
182.2389294
20
52.2798802
10
182.2396152
20
52.279931
10
182.386605
20
52.287144600000005
10
182.38698599999998
20
52.287169999999996
10
182.38724
20
52.287169999999996
10
208.17332
20
52.287169999999996
10
208.17357399999997
20
52.287169999999996
10
208.17395499999998
20
52.287144600000005
10
208.22478039999996
20
52.28465539999999
10
208.27565659999996
20
52.283690199999995
10
208.27618999999999
20
52.283664800000004
10
208.2762916
20
52.283664800000004
10
208.6933596
20
52.2551914
10
208.69374059999998
20
52.255165999999996
10
208.69427399999998
20
52.25511519999999
10
208.9065926
20
52.22527019999999
10
208.9069736
20
52.225193999999995
10
208.90748159999995
20
52.2250924
10
209.3162438
20
52.13746239999999
10
209.31677720000002
20
52.1373354
10
209.31713279999997
20
52.1372338
10
209.52307599999997
20
52.077416799999995
10
209.52360939999997
20
52.077239
10
209.5239396
20
52.07711199999999
10
209.916014
20
51.932078000000004
10
209.9164204
20
51.93192559999999
10
209.9168522
20
51.931747800000004
10
210.1121782
20
51.8431272
10
210.11261
20
51.842924
10
210.11299099999997
20
51.8427208
10
210.48037659999997
20
51.6432546
10
210.48080839999997
20
51.6430006
10
210.48116399999998
20
51.64279739999999
10
210.6618342
20
51.527227399999994
10
210.6622406
20
51.52697339999999
10
210.66257079999997
20
51.526719400000005
10
210.9977492
20
51.276885
10
210.9981048
20
51.276605599999996
10
210.9984604
20
51.27632619999999
10
211.1608172
20
51.136168999999995
10
211.1612236
20
51.1358134
10
211.1614776
20
51.1355594
10
211.4576162
20
50.840462200000005
10
211.45789559999997
20
50.840182799999994
10
211.45822579999998
20
50.8398018
10
211.59894179999998
20
50.6779276
10
211.5991704
20
50.67764819999999
10
211.59950059999997
20
50.6772418
10
211.8505034
20
50.342926999999996
10
211.85078279999996
20
50.34254599999999
10
211.85101139999998
20
50.342165
10
211.96719099999999
20
50.161901199999996
10
211.96744499999997
20
50.1615202
10
211.96767359999998
20
50.161113799999995
10
212.1684098
20
49.794439399999995
10
212.16863840000002
20
49.79400759999999
10
212.16884159999998
20
49.793626599999996
10
212.25809719999998
20
49.5986054
10
212.2582496
20
49.598275199999996
10
212.2584528
20
49.5977672
10
212.4048584
20
49.2062008
10
212.4049854
20
49.2058198
10
212.40513779999998
20
49.2053372
10
212.4656914
20
48.9995972
10
212.4658184
20
48.9992162
10
212.46592
20
48.9987082
10
212.5549724
20
48.5902508
10
212.5550994
20
48.589666599999994
10
212.5551502
20
48.5893618
10
212.5857318
20
48.37709399999999
10
212.5857826
20
48.3766876
10
212.5858334
20
48.3761796
10
212.6157292
20
47.9592132
10
212.6157292
20
47.9588068
10
212.6157546
20
47.9585782
10
212.6169484
20
47.9051112
10
212.6195646
20
47.851695
10
212.61959000000002
20
47.851313999999995
10
212.61959000000002
20
47.85106
10
212.61959000000002
20
28.494735999999996
10
212.66612279999998
20
27.9033986
10
212.7906844
20
27.3845782
10
212.99487499999998
20
26.8916404
10
213.27363999999997
20
26.436726399999998
10
213.62017219999998
20
26.031012199999996
10
214.0258864
20
25.68448
10
214.4808004
20
25.405714999999997
10
214.97373819999999
20
25.2015244
10
215.4925586
20
25.076962799999997
10
216.08331180000002
20
25.0304808
10
223.377125
20
25.036043399999997
10
223.42822979999997
20
25.0420886
10
223.42843299999998
20
25.042113999999998
10
223.4287378
20
25.042139399999996
10
223.5435712
20
25.051156399999996
10
223.54390139999998
20
25.0511818
10
223.5440538
20
25.0512072
10
223.661732
20
25.05583
10
223.66224
20
25.05583
10
223.66274799999997
20
25.05583
10
223.78042619999997
20
25.0512072
10
223.78057859999998
20
25.0511818
10
223.78090879999996
20
25.051156399999996
10
223.89574219999997
20
25.042139399999996
10
223.89604699999998
20
25.042113999999998
10
223.89625019999997
20
25.0420886
10
223.94369740000002
20
25.036475199999998
10
229.36085699999998
20
25.040589999999998
10
229.361111
20
25.040589999999998
10
229.3614666
20
25.0405646
10
229.50848179999997
20
25.0334526
10
229.50904059999996
20
25.0334272
10
229.5097264
20
25.033351
10
229.65534459999998
20
25.0118626
10
229.65595419999997
20
25.011761
10
229.6565638
20
25.0116086
10
229.7993626
20
24.975946999999998
10
229.80004839999998
20
24.9757692
10
229.8005564
20
24.9755914
10
229.93918959999996
20
24.9261122
10
229.9396976
20
24.925908999999997
10
229.94033259999998
20
24.925629599999997
10
230.07345399999997
20
24.8628154
10
230.073962
20
24.862561399999997
10
230.07454619999996
20
24.8622312
10
230.2008604
20
24.7866408
10
230.20136839999998
20
24.7863106
10
230.2019018
20
24.785955
10
230.3201896
20
24.6983758
10
230.320723
20
24.697944
10
230.3211548
20
24.6975884
10
230.4302732
20
24.5988078
10
230.4306796
20
24.5984522
10
230.43116220000002
20
24.5979442
10
230.5300952
20
24.4889528
10
230.530527
20
24.488444799999996
10
230.5308826
20
24.4879876
10
230.618665
20
24.3698268
10
230.6190206
20
24.369293399999997
10
230.61935079999998
20
24.368785399999997
10
230.69511899999998
20
24.2425982
10
230.695373
20
24.242141
10
230.6957032
20
24.241505999999998
10
230.75874599999997
20
24.108486199999998
10
230.75902539999998
20
24.1078258
10
230.75922859999997
20
24.1073432
10
230.80891099999997
20
23.968786199999997
10
230.8091142
20
23.968151199999998
10
230.80926659999997
20
23.967592399999997
10
230.8451568
20
23.8248444
10
230.8452838
20
23.8242094
10
230.84538539999997
20
23.8236252
10
230.8671024
20
23.6780324
10
230.8671786
20
23.677448199999997
10
230.86722939999999
20
23.676813199999998
10
230.87454459999998
20
23.529798
10
230.87456999999998
20
23.52929
10
230.87454459999998
20
23.528553399999996
10
230.86743259999997
20
23.3815382
10
230.8674072
20
23.380979399999998
10
230.86733099999998
20
23.380293599999998
10
230.8458426
20
23.234675399999997
10
230.84574099999998
20
23.234065799999996
10
230.84558859999999
20
23.2334562
10
230.809927
20
23.090657399999998
10
230.80974919999997
20
23.0899716
10
230.80957139999998
20
23.0894636
10
230.7600922
20
22.9508304
10
230.759889
20
22.9503224
10
230.7596096
20
22.9496874
10
230.6967954
20
22.816565999999998
10
230.6965414
20
22.816057999999998
10
230.6962112
20
22.8154738
10
230.62062079999998
20
22.6891596
10
230.6202906
20
22.6886516
10
230.619935
20
22.6881182
10
230.53235579999998
20
22.5698304
10
230.53192399999998
20
22.569297
10
230.53156839999997
20
22.5688652
10
230.4327878
20
22.459746799999998
10
230.4324322
20
22.4593404
10
230.43192419999997
20
22.458857799999997
10
230.32293279999996
20
22.359924799999998
10
230.3224248
20
22.359493
10
230.32196759999997
20
22.359137399999998
10
230.20380679999997
20
22.271354999999996
10
230.2032734
20
22.270999399999997
10
230.20276539999998
20
22.270669199999997
10
230.07657819999997
20
22.194900999999998
10
230.076121
20
22.194647
10
230.07548599999998
20
22.1943168
10
229.9424662
20
22.131274
10
229.9418058
20
22.1309946
10
229.9413232
20
22.1307914
10
229.80276619999998
20
22.081108999999998
10
229.8021312
20
22.080905799999996
10
229.8015724
20
22.0807534
10
229.6588244
20
22.044863199999998
10
229.65818939999997
20
22.0447362
10
229.6576052
20
22.0446346
10
229.5120124
20
22.0229176
10
229.51142819999998
20
22.022841399999997
10
229.51079319999997
20
22.0227906
10
229.363778
20
22.0154754
10
229.363651
20
22.015449999999998
10
229.36314299999998
20
22.015449999999998
10
225.76119439999997
20
22.0127068
10
225.75799399999997
20
22.0039946
10
225.7578416
20
22.0036136
10
225.75781619999998
20
22.0035374
10
225.71372179999997
20
21.8971114
10
225.71372179999997
20
21.897085999999998
10
225.71351860000001
20
21.896654199999997
10
225.6642172
20
21.7896948
10
225.66403939999998
20
21.7893392
10
225.66375999999997
20
21.7888058
10
225.60622899999998
20
21.6860628
10
225.60600039999997
20
21.6856818
10
225.605975
20
21.685630999999997
10
225.54577699999996
20
21.5874092
10
225.5456754
20
21.587231399999997
10
225.54552299999997
20
21.5870028
10
225.4800926
20
21.489085799999998
10
225.4798386
20
21.488704799999997
10
225.4795084
20
21.488273
10
225.406585
20
21.3957916
10
225.4063818
20
21.3955122
10
225.40628019999997
20
21.3953852
10
225.3314772
20
21.307806
10
225.33140099999997
20
21.3077298
10
225.331147
20
21.307425
10
225.2511878
20
21.2209634
10
225.25085759999996
20
21.220582399999998
10
225.25047659999998
20
21.2202522
10
225.16401499999998
20
21.140293
10
225.1637102
20
21.140039
10
225.163634
20
21.1399628
10
225.07605479999998
20
21.0651598
10
225.0759278
20
21.0650582
10
225.07564839999998
20
21.064854999999998
10
224.98316699999998
20
20.9919316
10
224.98273519999998
20
20.991601399999997
10
224.9823542
20
20.9913474
10
224.8844372
20
20.925917
10
224.8842086
20
20.9257646
10
224.8840308
20
20.925663
10
224.785809
20
20.865464999999997
10
224.7857582
20
20.8654396
10
224.7853772
20
20.865211
10
224.68263419999997
20
20.80768
10
224.68210079999997
20
20.807400599999998
10
224.6817452
20
20.807222799999998
10
224.57478579999997
20
20.757921399999997
10
224.57435399999997
20
20.7577182
10
224.5743286
20
20.7577182
10
224.4679026
20
20.7136238
10
224.46782639999998
20
20.7135984
10
224.4674454
20
20.713446
10
224.35695539999998
20
20.672679
10
224.35642199999998
20
20.6725012
10
224.3560156
20
20.672374199999997
10
224.24265539999996
20
20.640421
10
224.2424522
20
20.640344799999998
10
224.24217279999996
20
20.640294
10
224.1301842
20
20.613395399999998
10
224.1298286
20
20.6133192
10
224.12967619999998
20
20.6132938
10
224.0141824
20
20.590306799999997
10
224.0138268
20
20.590256
10
224.0131918
20
20.5901544
10
223.89625019999997
20
20.576311399999998
10
223.89604699999998
20
20.576286
10
223.89574219999997
20
20.576260599999998
10
223.78090879999996
20
20.567243599999998
10
223.78057859999998
20
20.5672182
10
223.78042619999997
20
20.567192799999997
10
223.66274799999997
20
20.562569999999997
10
223.66224
20
20.562569999999997
10
223.661732
20
20.562569999999997
10
223.5440538
20
20.567192799999997
10
223.54390139999998
20
20.5672182
10
223.5435712
20
20.567243599999998
10
223.4287378
20
20.576260599999998
10
223.42843299999998
20
20.576286
10
223.42822979999997
20
20.576311399999998
10
223.3112882
20
20.5901544
10
223.3106532
20
20.590256
10
223.31029759999998
20
20.590306799999997
10
223.19480380000002
20
20.6132938
10
223.1946514
20
20.6133192
10
223.1942958
20
20.613395399999998
10
223.0823072
20
20.640294
10
223.0820278
20
20.640344799999998
10
223.0818246
20
20.640421
10
222.9684644
20
20.672374199999997
10
222.96805799999996
20
20.6725012
10
222.9675246
20
20.672679
10
222.8570346
20
20.713446
10
222.85665360000002
20
20.7135984
10
222.85657739999996
20
20.7136238
10
222.7501514
20
20.7577182
10
222.750126
20
20.7577182
10
222.74969419999996
20
20.757921399999997
10
222.64273479999997
20
20.807222799999998
10
222.64237919999997
20
20.807400599999998
10
222.6418458
20
20.80768
10
222.53910279999997
20
20.865211
10
222.5387218
20
20.8654396
10
222.53867099999997
20
20.865464999999997
10
222.4404492
20
20.925663
10
222.44027139999997
20
20.9257646
10
222.4400428
20
20.925917
10
222.3421258
20
20.9913474
10
222.3417448
20
20.991601399999997
10
222.341313
20
20.9919316
10
222.24883160000002
20
21.064854999999998
10
222.24855219999998
20
21.0650582
10
222.24842519999999
20
21.0651598
10
222.160846
20
21.1399628
10
222.1607698
20
21.140039
10
222.160465
20
21.140293
10
222.0740034
20
21.2202522
10
222.07362239999998
20
21.220582399999998
10
222.0732922
20
21.2209634
10
221.993333
20
21.307425
10
221.99307899999997
20
21.3077298
10
221.99300279999997
20
21.307806
10
221.91819979999997
20
21.3953852
10
221.9180982
20
21.3955122
10
221.91789499999996
20
21.3957916
10
221.8449716
20
21.488273
10
221.84464139999997
20
21.488704799999997
10
221.8443874
20
21.489085799999998
10
221.778957
20
21.5870028
10
221.77880459999997
20
21.587231399999997
10
221.778703
20
21.5874092
10
221.718505
20
21.685630999999997
10
221.7184796
20
21.6856818
10
221.718251
20
21.6860628
10
221.66072
20
21.7888058
10
221.6604406
20
21.7893392
10
221.6602628
20
21.7896948
10
221.61096139999998
20
21.896654199999997
10
221.6107582
20
21.897085999999998
10
221.6107582
20
21.8971114
10
221.56666379999996
20
22.0035374
10
221.5666384
20
22.0036136
10
221.56648599999997
20
22.0039946
10
221.56445399999998
20
22.009506399999996
10
218.5023316
20
22.007169599999997
10
216.7805418
20
21.871686
10
215.2139968
20
21.495638999999997
10
213.72550599999997
20
20.879181
10
212.3517978
20
20.037501199999998
10
211.1266288
20
18.991325999999997
10
210.0801742
20
17.7663856
10
209.2381896
20
16.3928298
10
208.6214268
20
14.904491399999998
10
208.24527819999997
20
13.3390132
10
208.11616999999998
20
11.673713
10
208.11616999999998
20
9.383242599999999
10
208.188433
20
8.4110322
10
208.4063142
20
7.4482198
10
208.764124
20
6.5282064
10
209.2539884
20
5.6712104
10
209.8651632
20
4.8960278
10
210.5842372
20
4.219702
10
211.3953608
20
3.6570919999999996
10
212.28075399999997
20
3.2205929999999996
10
213.22093499999997
20
2.9197553999999997
10
214.19532979999997
20
2.7611831999999996
10
215.1874538
20
2.74828
10
243.40484719999998
20
2.74828
10
243.56407979999997
20
2.7684984
10
243.5646894
20
2.7685492
10
243.56568
20
2.7685999999999997
10
243.56634039999997
20
2.7685746
10
243.67302039999996
20
2.7630628
10
244.70078059999997
20
2.7766772
10
245.6220132
20
2.9268419999999997
10
245.7403264
20
2.9564076
10
246.61479759999997
20
3.2364425999999997
10
247.46999019999998
20
3.6583111999999995
10
247.54679979999997
20
3.7056059999999995
10
248.25622179999996
20
4.1978326
10
248.33458079999997
20
4.2580814
10
249.02114279999998
20
4.9040542
10
249.046619
20
4.9336198
10
249.6029044
20
5.6393334
10
249.65817479999998
20
5.7179464
10
250.13025919999998
20
6.544005199999999
10
250.46840939999998
20
7.4136504
10
250.49675579999996
20
7.502956799999999
10
250.7057216
20
8.4265008
10
250.78436
20
9.4839282
10
250.78436
20
9.56056
10
250.78436
20
9.561093399999999
10
250.78451239999995
20
9.562465
10
250.7845886
20
9.5629222
10
250.81229999999996
20
9.709073799999999
10
250.81229999999996
20
13.483844
10
250.80676279999997
20
13.507923199999999
10
250.8066612
20
13.508431199999999
10
250.80655959999999
20
13.5091424
10
250.78781439999997
20
13.655141599999999
10
250.787789
20
13.655471799999999
10
250.78776359999998
20
13.6557766
10
250.677045
20
15.0626572
10
250.37542
20
16.3191952
10
249.88100899999998
20
17.513071399999998
10
249.20590239999999
20
18.6149234
10
248.36678799999996
20
19.5976494
10
247.38431599999998
20
20.4370178
10
246.2826164
20
21.1123784
10
245.08886719999998
20
21.6071196
10
243.83240539999997
20
21.9090748
10
242.4255502
20
22.020149
10
242.4252708
20
22.0201744
10
242.42494059999996
20
22.020199799999997
10
242.41178339999996
20
22.0219016
10
242.39855
20
22.0225366
10
242.3981182
20
22.022561999999997
10
242.39791499999998
20
22.0225874
10
240.9859544
20
22.1601538
10
240.9858782
20
22.1601538
10
240.98544639999997
20
22.1602046
10
240.86906359999998
20
22.1761812
10
240.86853019999998
20
22.176257399999997
10
240.86809839999998
20
22.176358999999998
10
240.7533158
20
22.201378
10
240.75308719999998
20
22.2014288
10
240.75283319999997
20
22.2014796
10
239.3795314
20
22.557714599999997
10
239.3792012
20
22.557816199999998
10
239.3790488
20
22.5578416
10
239.2671872
20
22.591572799999998
10
239.2666538
20
22.591750599999997
10
239.26627279999997
20
22.5918776
10
239.15735759999998
20
22.6342194
10
239.15735759999998
20
22.6342194
10
239.15690039999998
20
22.6343972
10
237.85553139999996
20
23.199445599999997
10
237.8550742
20
23.1996488
10
237.7498166
20
23.2503218
10
237.74943559999997
20
23.250499599999998
10
237.74892759999997
20
23.250778999999998
10
237.6479372
20
23.309503799999998
10
237.647734
20
23.3096054
10
237.6475054
20
23.3097578
10
236.4495906
20
24.069929
10
236.44936199999998
20
24.070081399999996
10
236.4491842
20
24.070182999999997
10
236.35304519999997
20
24.136578599999996
10
236.3526642
20
24.136857999999997
10
236.35225779999996
20
24.137188199999997
10
236.26157979999996
20
24.210848199999997
10
236.2613004
20
24.2110768
10
236.2611988
20
24.2111784
10
235.36595039999997
20
24.998400599999997
10
235.2819272
20
25.052731199999997
10
235.2814446
20
25.0530614
10
235.2809112
20
25.0534678
10
235.1657476
20
25.1451364
10
235.1653412
20
25.1454666
10
235.165265
20
25.1455174
10
234.18888899999996
20
26.004139
10
233.19079599999998
20
26.637614999999997
10
232.1064954
20
27.1086072
10
230.96288579999998
20
27.4054824
10
229.6695432
20
27.531872799999995
10
229.6692384
20
27.5319236
10
229.66893359999997
20
27.531949
10
229.66603799999996
20
27.5323808
10
229.6630916
20
27.5325332
10
229.66271059999997
20
27.532558599999994
10
229.66248199999995
20
27.532584
10
228.45501679999998
20
27.656307400000003
10
228.4545596
20
27.6563836
10
228.45412779999998
20
27.656434399999995
10
228.2432062
20
27.693416799999998
10
228.2429014
20
27.6934676
10
228.24231719999997
20
27.69362
10
227.06479859999996
20
27.988031399999997
10
227.0642906
20
27.9881584
10
227.0639096
20
27.9882854
10
226.8605064
20
28.054884199999996
10
226.86017619999998
20
28.0549858
10
226.85964280000002
20
28.055189
10
225.736023
20
28.514217799999997
10
225.735642
20
28.514370200000002
10
225.73518479999998
20
28.514598799999998
10
225.5433386
20
28.6094678
10
225.54293219999997
20
28.609671
10
225.54252579999996
20
28.6098996
10
224.49569019999996
20
29.2241986
10
224.4951822
20
29.2245034
10
224.49490279999998
20
29.224681200000003
10
224.31849979999998
20
29.34589
10
224.31814419999998
20
29.3461694
10
224.3177886
20
29.3464488
10
223.36902239999998
20
30.103495799999997
10
223.36871759999997
20
30.1037498
10
223.3683366
20
30.10408
10
223.2109836
20
30.2491648
10
223.21070419999998
20
30.249444199999996
10
223.21034859999997
20
30.2498252
10
222.3790066
20
31.1342024
10
222.37867639999996
20
31.134558
10
222.37842239999998
20
31.1348882
10
222.24331979999997
20
31.300902599999997
10
222.2430404
20
31.301283599999998
10
222.242761
20
31.301639199999997
10
221.545785
20
32.295338
10
221.54553099999998
20
32.295719
10
221.54530239999997
20
32.2961
10
221.4351934
20
32.4796658
10
221.434914
20
32.4801738
10
221.4347616
20
32.4804532
10
220.8863248
20
33.5632552
10
220.88612159999997
20
33.563686999999994
10
220.88594379999998
20
33.5640934
10
220.80311439999997
20
33.7614514
10
220.80293659999998
20
33.7618578
10
220.8027842
20
33.762289599999995
10
220.4140626
20
34.9121476
10
220.4139102
20
34.9126302
10
220.41380859999998
20
34.9130112
10
220.35988439999997
20
35.1201482
10
220.35980819999997
20
35.1205292
10
220.3597066
20
35.121037199999996
10
220.1385996
20
36.314507
10
220.1385234
20
36.315014999999995
10
220.1384726
20
36.315396
10
220.1145966
20
36.528121
10
220.11454579999997
20
36.528628999999995
10
220.1145204
20
36.52901
10
220.06554919999996
20
37.7418092
10
220.06554919999996
20
37.7420632
10
220.06554919999996
20
37.742418799999996
10
220.0658032
20
37.771755799999994
10
220.0643554
20
37.8010674
10
220.06432999999998
20
37.80119439999999
10
220.06432999999998
20
37.801702399999996
10
220.0593262
20
44.5120268
10
219.8044118
20
46.4825588
10
219.261944
20
48.376332
10
218.44200659999996
20
50.1674892
10
217.36304
20
51.815669799999995
10
216.0494536
20
53.283662799999995
10
214.5307876
20
54.538372
10
212.84138279999996
20
55.5515018
10
211.01811999999998
20
56.3006748
10
208.993105
20
56.7988196
10
208.9927494
20
56.7988958
10
208.9925208
20
56.798972
10
208.989803
20
56.7997848
10
208.9870344
20
56.8003436
10
208.9863994
20
56.800495999999995
10
208.9858152
20
56.80064839999999
10
208.9187084
20
56.8210192
10
208.85147459999996
20
56.8411106
10
208.8509412
20
56.84128839999999
10
208.85030619999998
20
56.841517
10
208.84769
20
56.84258379999999
10
208.8449722
20
56.843422
10
208.8447436
20
56.8434982
10
208.84438799999998
20
56.843625200000005
10
206.5544764
20
57.66379119999999
10
206.5541716
20
57.6638928
10
206.55371439999996
20
57.664095999999994
10
206.37223139999998
20
57.742962999999996
10
206.3719266
20
57.74309
10
206.37146939999997
20
57.7433186
10
204.2093198
20
58.8578452
10
204.20893879999997
20
58.858048399999994
10
204.2086086
20
58.8582516
10
204.0402066
20
58.9595214
10
204.0398002
20
58.9597754
10
204.0395208
20
58.95997859999999
10
202.0416076
20
60.34758059999999
10
202.041252
20
60.34786
10
202.04094719999998
20
60.3480886
10
201.8872518
20
60.470516599999996
10
201.8869978
20
60.47071979999999
10
201.88661679999998
20
60.47104999999999
10
200.08725539999998
20
62.1079276
10
200.0870268
20
62.10815619999999
10
200.08667119999998
20
62.108511799999995
10
199.9502986
20
62.249964399999996
10
199.9499684
20
62.2502946
10
199.94973979999997
20
62.250574
10
198.7717894
20
63.6447292
10
198.70666379999997
20
63.70292059999999
10
198.7064098
20
63.70317459999999
10
198.70620659999997
20
63.70335239999999
10
198.0629008
20
64.3379714
10
197.4225414
20
64.8128498
10
196.7220094
20
65.1933672
10
195.97585899999999
20
65.47175119999999
10
195.09402179999998
20
65.6647658
10
195.09364079999997
20
65.66486739999999
10
195.0934122
20
65.6649182
10
195.03633839999998
20
65.6803868
10
194.97895979999998
20
65.6947632
10
194.9782994
20
65.694941
10
194.97776599999997
20
65.6951188
10
194.9647104
20
65.6997924
10
194.95135
20
65.70339919999999
10
194.95076579999997
20
65.703577
10
194.95015619999998
20
65.7038056
10
194.8948604
20
65.724786
10
194.83918359999998
20
65.74469959999999
10
194.838574
20
65.7449536
10
194.8380406
20
65.74518219999999
10
194.825493
20
65.7511004
10
194.812539
20
65.756028
10
194.8118786
20
65.7563074
10
194.811396
20
65.756536
10
194.758437
20
65.782825
10
194.70496999999997
20
65.8081234
10
194.70441119999998
20
65.8084028
10
194.7038778
20
65.80870759999999
10
194.6919906
20
65.8158196
10
194.67956999999998
20
65.82199179999999
10
194.6790366
20
65.8222712
10
194.6784778
20
65.8226014
10
194.62833819999997
20
65.8539704
10
194.5776398
20
65.8843742
10
194.5771826
20
65.8846536
10
194.5765984
20
65.88506
10
194.5654478
20
65.89331499999999
10
194.553713
20
65.90068099999999
10
194.553078
20
65.9010874
10
194.5526716
20
65.90139219999999
10
194.5058594
20
65.937511
10
194.45836139999997
20
65.9727408
10
194.45790419999997
20
65.9730964
10
194.45739619999998
20
65.9735282
10
194.4471346
20
65.98285
10
194.43616179999998
20
65.99130819999999
10
194.43575539999998
20
65.9916384
10
194.43519659999998
20
65.992121
10
194.39216899999997
20
66.0326594
10
194.348354
20
66.072385
10
194.3478968
20
66.0728168
10
194.34746499999997
20
66.073274
10
194.3381432
20
66.08353559999999
10
194.3280594
20
66.0930352
10
194.327653
20
66.0934416
10
194.3271958
20
66.09394959999999
10
194.2883338
20
66.1385012
10
194.24860819999998
20
66.18231619999999
10
194.2481764
20
66.1828242
10
194.2478208
20
66.1832814
10
194.23956579999998
20
66.19443199999999
10
194.2304472
20
66.2048714
10
194.23001539999998
20
66.2054048
10
194.22968519999998
20
66.2058366
10
194.19536979999998
20
66.2540204
10
194.16013999999998
20
66.30151839999999
10
194.1597336
20
66.3021026
10
194.15945419999997
20
66.3025598
10
194.1523168
20
66.314447
10
194.1442904
20
66.3257246
10
194.14396019999998
20
66.3262072
10
194.1436046
20
66.32679139999999
10
194.11419139999998
20
66.378074
10
194.0837876
20
66.4287978
10
194.08348279999998
20
66.4293312
10
194.0832034
20
66.42988999999999
10
194.0772598
20
66.44243759999999
10
194.0703764
20
66.4544518
10
194.07009699999998
20
66.4549344
10
194.0697922
20
66.4555694
10
194.0455352
20
66.5094936
10
194.0202622
20
66.5629606
10
194.02003359999998
20
66.563494
10
194.0197796
20
66.5641036
10
194.015106
20
66.5771592
10
194.0094164
20
66.5898084
10
194.00918779999998
20
66.59034179999999
10
194.0089592
20
66.59095140000001
10
193.9901124
20
66.6470092
10
193.9701988
20
66.702686
10
193.97002099999997
20
66.7032194
10
193.96984319999999
20
66.7038798
10
193.966465
20
66.7173418
10
193.96204539999997
20
66.7304736
10
193.9618676
20
66.73105779999999
10
193.9617152
20
66.73166739999999
10
193.948431
20
66.7893
10
193.93408
20
66.84665319999999
10
193.9339276
20
66.8472882
10
193.93382599999998
20
66.84789779999998
10
193.931794
20
66.8615884
10
193.9286698
20
66.87510119999999
10
193.92854279999997
20
66.87576159999999
10
193.9284666
20
66.8763458
10
193.92089739999997
20
66.9349944
10
193.91223599999998
20
66.99349059999999
10
193.9121598
20
66.9940494
10
193.912109
20
66.9947352
10
193.91142319999997
20
67.00857819999999
10
193.90964519999997
20
67.02231959999999
10
193.90959439999997
20
67.0229038
10
193.909569
20
67.0235642
10
193.907791
20
67.08267
10
193.9048954
20
67.141725
10
193.90487
20
67.14236
10
193.9048954
20
67.142995
10
193.90555579999997
20
67.156838
10
193.9051494
20
67.170681
10
193.9051494
20
67.171316
10
193.9051748
20
67.1719256
10
193.9092134
20
67.2309298
10
193.912109
20
67.2899848
10
193.9121598
20
67.2906706
10
193.91223599999998
20
67.29122939999999
10
193.914268
20
67.3049454
10
193.9152078
20
67.31878839999999
10
193.91528399999999
20
67.3194742
10
193.91536019999998
20
67.3200076
10
193.9251392
20
67.378326
10
193.93382599999998
20
67.4368222
10
193.9339276
20
67.4374318
10
193.93408
20
67.43806679999999
10
193.93743279999998
20
67.45150339999999
10
193.9397442
20
67.4651686
10
193.9398458
20
67.4657782
10
193.9399982
20
67.46638779999999
10
193.95546679999998
20
67.52346159999999
10
193.96984319999999
20
67.5808402
10
193.97002099999997
20
67.5815006
10
193.9701988
20
67.582034
10
193.97487239999998
20
67.5950896
10
193.9784792
20
67.60845
10
193.978657
20
67.6090342
10
193.97888559999998
20
67.6096438
10
193.999866
20
67.6649396
10
194.0197796
20
67.7206164
10
194.02003359999998
20
67.72122599999999
10
194.0202622
20
67.7217594
10
194.0261804
20
67.73430699999999
10
194.031108
20
67.747261
10
194.0313874
20
67.7479214
10
194.03161599999999
20
67.74840400000001
10
194.057905
20
67.801363
10
194.0832034
20
67.85482999999999
10
194.08348279999998
20
67.8553888
10
194.0837876
20
67.8559222
10
194.0908996
20
67.8678094
10
194.09707179999998
20
67.88023
10
194.0973512
20
67.88076339999999
10
194.0976814
20
67.88132219999999
10
194.12905039999998
20
67.9314618
10
194.15945419999997
20
67.9821602
10
194.1597336
20
67.9826174
10
194.16013999999998
20
67.9832016
10
194.168395
20
67.9943522
10
194.175761
20
68.006087
10
194.1761674
20
68.006722
10
194.17647219999998
20
68.0071284
10
194.21259099999997
20
68.05394059999999
10
194.2478208
20
68.1014386
10
194.2481764
20
68.1018958
10
194.24860819999998
20
68.10240379999999
10
194.25793
20
68.1126654
10
194.2663882
20
68.1236382
10
194.2667184
20
68.1240446
10
194.267201
20
68.1246034
10
194.3077394
20
68.167631
10
194.34746499999997
20
68.211446
10
194.3478968
20
68.2119032
10
194.348354
20
68.212335
10
194.35861559999998
20
68.22165679999999
10
194.3681152
20
68.2317406
10
194.36852159999998
20
68.232147
10
194.3690296
20
68.2326042
10
194.41358119999998
20
68.27146619999999
10
194.45739619999998
20
68.3111918
10
194.45790419999997
20
68.31162359999999
10
194.45836139999997
20
68.3119792
10
194.46951199999998
20
68.3202342
10
194.4799514
20
68.3293528
10
194.48048479999997
20
68.3297846
10
194.4809166
20
68.33011479999999
10
194.52910039999998
20
68.3644302
10
194.5765984
20
68.39966
10
194.5771826
20
68.40006639999999
10
194.5776398
20
68.4003458
10
194.589527
20
68.40748319999999
10
194.6008046
20
68.4155096
10
194.6012872
20
68.4158398
10
194.6018714
20
68.41619539999999
10
194.65315399999997
20
68.4456086
10
194.7038778
20
68.47601239999999
10
194.70441119999998
20
68.4763172
10
194.70496999999997
20
68.4765966
10
194.7175176
20
68.48254019999999
10
194.7295318
20
68.4894236
10
194.7300144
20
68.489703
10
194.73064939999998
20
68.4900078
10
194.7845736
20
68.51426479999999
10
194.8380406
20
68.53953779999999
10
194.838574
20
68.53976639999999
10
194.83918359999998
20
68.54002039999999
10
194.85223919999999
20
68.54469399999999
10
194.8648884
20
68.5503836
10
194.86542179999998
20
68.5506122
10
194.86603139999997
20
68.5508408
10
194.9220892
20
68.5696876
10
194.97776599999997
20
68.5896012
10
194.9782994
20
68.589779
10
194.97895979999998
20
68.5899568
10
194.9924218
20
68.593335
10
195.00555359999998
20
68.5977546
10
195.00613779999998
20
68.59793239999999
10
195.0067474
20
68.5980848
10
195.06438
20
68.611369
10
195.1217332
20
68.62572
10
195.12236819999998
20
68.62587239999999
10
195.12297779999997
20
68.625974
10
195.1366684
20
68.628006
10
195.1501812
20
68.6311302
10
195.1508416
20
68.6312572
10
195.1514258
20
68.63133339999999
10
195.2100744
20
68.6389026
10
195.26857059999998
20
68.64756399999999
10
195.2691294
20
68.6476402
10
195.26981519999998
20
68.647691
10
195.2836582
20
68.6483768
10
195.2973996
20
68.6501548
10
195.2979838
20
68.6502056
10
195.29864419999998
20
68.65023099999999
10
195.35774999999998
20
68.65200899999999
10
195.41680499999998
20
68.6549046
10
195.417186
20
68.65493
10
195.41744
20
68.65493
10
198.0692
20
68.65493
10
198.06945399999998
20
68.65493
10
198.06983499999998
20
68.6549046
10
198.21682479999998
20
68.647691
10
198.2175106
20
68.6476402
10
198.2180694
20
68.64756399999999
10
198.24440919999998
20
68.6436524
10
198.36922479999998
20
68.637531
10
198.3699106
20
68.6374802
10
198.3704694
20
68.63740399999999
10
198.5160622
20
68.615814
10
198.51667179999998
20
68.61571239999999
10
198.5173068
20
68.61556
10
198.66008019999998
20
68.5797968
10
198.6607406
20
68.579619
10
198.661274
20
68.5794412
10
198.79985639999998
20
68.5298604
10
198.800466
20
68.52960639999999
10
198.8009994
20
68.52937779999999
10
198.93407
20
68.4664366
10
198.93462879999998
20
68.4661572
10
198.9351622
20
68.46585239999999
10
199.06140019999998
20
68.3901858
10
199.0618574
20
68.38990639999999
10
199.0624416
20
68.3895
10
199.1806786
20
68.3018192
10
199.1811358
20
68.30146359999999
10
199.1816438
20
68.3010318
10
199.290686
20
68.202175
10
199.2911432
20
68.2017432
10
199.291575
20
68.201286
10
199.3904318
20
68.0922438
10
199.3908636
20
68.0917358
10
199.3912192
20
68.0912786
10
199.4789
20
67.9730416
10
199.47930639999998
20
67.9724574
10
199.4795858
20
67.9720002
10
199.4912698
20
67.95251839999999
10
199.4917524
20
67.9521882
10
199.4926922
20
67.95137539999999
10
199.4935558
20
67.95048639999999
10
199.49431779999998
20
67.9494958
10
199.49467339999998
20
67.9489878
10
200.75461499999997
20
65.9852122
10
202.19639519999998
20
64.2788402
10
203.84884299999996
20
62.775591999999996
10
205.68363739999998
20
61.501273999999995
10
207.66867279999997
20
60.47806039999999
10
209.7912492
20
59.71781299999999
10
211.850097
20
59.21133699999999
10
211.85047799999998
20
59.21126079999999
10
211.85055419999998
20
59.2112354
10
211.95774219999996
20
59.180603
10
211.9581486
20
59.180476
10
211.95863119999999
20
59.180298199999996
10
212.06322839999999
20
59.14179179999999
10
212.0636856
20
59.141639399999995
10
212.1257886
20
59.11611239999999
10
212.17115299999998
20
59.110549799999994
10
212.17168639999997
20
59.11047359999999
10
212.17239759999998
20
59.1103466
10
212.31603459999997
20
59.078241
10
212.3164156
20
59.0781648
10
212.3166442
20
59.078088599999994
10
213.5359204
20
58.7420466
10
214.69779259999999
20
58.5667358
10
215.6951236
20
58.53556999999999
10
222.29041139999998
20
58.53556999999999
10
222.62317679999998
20
58.61006819999999
10
223.0799704
20
58.7911194
10
223.50280419999996
20
59.041411
10
223.88128959999997
20
59.35474539999999
10
224.2061048
20
59.7234264
10
224.46922339999998
20
60.13838619999999
10
224.6642192
20
60.58941399999999
10
224.76841
20
60.9958648
10
224.76841
20
67.85864000000001
10
224.76841
20
67.85889399999999
10
224.76843540000002
20
67.859275
10
224.775649
20
68.0062648
10
224.77569979999998
20
68.0069506
10
224.77577599999998
20
68.0075094
10
224.79736599999998
20
68.1531022
10
224.79746759999998
20
68.1537118
10
224.79762
20
68.1543468
10
224.8333832
20
68.2971202
10
224.833561
20
68.2977806
10
224.8337388
20
68.29831399999999
10
224.8833196
20
68.4368964
10
224.88357359999998
20
68.437506
10
224.8838022
20
68.4380394
10
224.94674339999997
20
68.57111
10
224.94702279999998
20
68.5716688
10
224.9473276
20
68.57220219999999
10
225.0229942
20
68.6984402
10
225.0232736
20
68.69889739999999
10
225.02367999999998
20
68.6994816
10
225.1113608
20
68.81771859999999
10
225.1117164
20
68.81817579999999
10
225.1121482
20
68.8186838
10
225.21100499999997
20
68.927726
10
225.2114368
20
68.92818319999999
10
225.21189399999997
20
68.928615
10
225.3209362
20
69.0274718
10
225.32144419999997
20
69.02790359999999
10
225.3219014
20
69.0282592
10
225.4401384
20
69.11594
10
225.4407226
20
69.1163464
10
225.44117979999996
20
69.1166258
10
225.5674178
20
69.1922924
10
225.56795119999998
20
69.1925972
10
225.56850999999997
20
69.19287659999999
10
225.7015806
20
69.2558178
10
225.70211400000002
20
69.25604639999999
10
225.7027236
20
69.2563004
10
225.84130599999997
20
69.3058812
10
225.84183939999997
20
69.30605899999999
10
225.84249979999998
20
69.3062368
10
225.98527319999997
20
69.342
10
225.98590819999998
20
69.34215239999999
10
225.9865178
20
69.342254
10
226.1321106
20
69.36384399999999
10
226.13266939999997
20
69.3639202
10
226.1333552
20
69.36397099999999
10
226.280345
20
69.37118459999999
10
226.28097999999997
20
69.37120999999999
10
226.281615
20
69.37118459999999
10
226.4286048
20
69.36397099999999
10
226.42929059999997
20
69.3639202
10
226.4298494
20
69.36384399999999
10
226.57544219999997
20
69.342254
10
226.57605180000002
20
69.34215239999999
10
226.57668679999998
20
69.342
10
226.7194602
20
69.3062368
10
226.72012059999997
20
69.30605899999999
10
226.72065399999997
20
69.3058812
10
226.8592364
20
69.2563004
10
226.859846
20
69.25604639999999
10
226.8603794
20
69.2558178
10
226.99345
20
69.19287659999999
10
226.99400879999996
20
69.1925972
10
226.99454219999998
20
69.1922924
10
227.12078019999998
20
69.1166258
10
227.1212374
20
69.1163464
10
227.12182159999998
20
69.11594
10
227.2400586
20
69.0282592
10
227.24051579999997
20
69.02790359999999
10
227.24102380000002
20
69.0274718
10
227.35006599999997
20
68.928615
10
227.3505232
20
68.92818319999999
10
227.350955
20
68.927726
10
227.4498118
20
68.8186838
10
227.4502436
20
68.81817579999999
10
227.4505992
20
68.81771859999999
10
227.53828
20
68.6994816
10
227.5386864
20
68.69889739999999
10
227.5389658
20
68.6984402
10
227.6146324
20
68.57220219999999
10
227.6149372
20
68.5716688
10
227.61521659999997
20
68.57111
10
227.67815779999998
20
68.4380394
10
227.6783864
20
68.437506
10
227.67864039999998
20
68.4368964
10
227.7282212
20
68.29831399999999
10
227.728399
20
68.2977806
10
227.7285768
20
68.2971202
10
227.76434
20
68.1543468
10
227.76449239999997
20
68.1537118
10
227.764594
20
68.1531022
10
227.786184
20
68.0075094
10
227.78626019999996
20
68.0069506
10
227.78631099999998
20
68.0062648
10
227.79352459999998
20
67.859275
10
227.79354999999998
20
67.85889399999999
10
227.79354999999998
20
67.85864000000001
10
227.79354999999998
20
60.912527399999995
10
227.8513858
20
60.5075498
10
227.96845439999996
20
60.127616599999996
10
228.1434858
20
59.77067039999999
10
228.37218739999997
20
59.4454742
10
228.64892039999998
20
59.160028999999994
10
228.966903
20
58.921395999999994
10
229.3182612
20
58.735391799999995
10
229.6944098
20
58.606639200000004
10
230.08584919999998
20
58.53831319999999
10
230.26324279999997
20
58.53556999999999
10
233.21517999999998
20
58.53556999999999
10
233.21543400000002
20
58.53556999999999
10
233.215815
20
58.5355446
10
233.3628048
20
58.528330999999994
10
233.36349059999998
20
58.528280200000005
10
233.3640494
20
58.528204
10
233.5096422
20
58.506614
10
233.5102518
20
58.50651239999999
10
233.51088679999998
20
58.506359999999994
10
233.65366019999996
20
58.470596799999996
10
233.65432059999998
20
58.470419
10
233.65485399999997
20
58.4702412
10
233.7934364
20
58.420660399999996
10
233.79404599999998
20
58.42040639999999
10
233.7945794
20
58.4201778
10
233.92764999999997
20
58.35723659999999
10
233.92820879999996
20
58.356957200000004
10
233.92874219999996
20
58.356652399999994
10
234.0549802
20
58.280985799999996
10
234.0554374
20
58.28070639999999
10
234.0560216
20
58.280300000000004
10
234.1742586
20
58.192619199999996
10
234.17471579999997
20
58.19226359999999
10
234.1752238
20
58.191831799999996
10
234.28426599999997
20
58.092974999999996
10
234.28472319999997
20
58.092543199999994
10
234.28515499999997
20
58.092086
10
234.3840118
20
57.9830438
10
234.3844436
20
57.982535799999994
10
234.38479919999997
20
57.982078599999994
10
234.47247999999996
20
57.86384159999999
10
234.4728864
20
57.863257399999995
10
234.4731658
20
57.862800199999995
10
234.5488324
20
57.736562199999995
10
234.5491372
20
57.7360288
10
234.54941659999997
20
57.73547
10
234.61235779999996
20
57.602399399999996
10
234.61258639999997
20
57.601866
10
234.6128404
20
57.6012564
10
234.66242119999998
20
57.46267399999999
10
234.662599
20
57.4621406
10
234.6627768
20
57.4614802
10
234.69853999999998
20
57.318706799999994
10
234.6986924
20
57.31807179999999
10
234.69879399999996
20
57.3174622
10
234.72038399999997
20
57.1718694
10
234.7204602
20
57.1713106
10
234.72051099999996
20
57.17062479999999
10
234.7277246
20
57.023635
10
234.72775000000001
20
57.022999999999996
10
234.7277246
20
57.022365
10
234.72051099999996
20
56.87537519999999
10
234.7204602
20
56.8746894
10
234.72038399999997
20
56.8741306
10
234.69879399999996
20
56.7285378
10
234.6986924
20
56.727928199999994
10
234.69853999999998
20
56.7272932
10
234.6627768
20
56.584519799999995
10
234.662599
20
56.5838594
10
234.66242119999998
20
56.58332599999999
10
234.6128404
20
56.444743599999995
10
234.61258639999997
20
56.444134
10
234.61235779999996
20
56.4436006
10
234.54941659999997
20
56.31053
10
234.5491372
20
56.30997119999999
10
234.5488324
20
56.3094378
10
234.4731658
20
56.18319979999999
10
234.4728864
20
56.1827426
10
234.47247999999996
20
56.18215839999999
10
234.38479919999997
20
56.06392139999999
10
234.3844436
20
56.0634642
10
234.3840118
20
56.062956199999995
10
234.28515499999997
20
55.953914
10
234.28472319999997
20
55.95345679999999
10
234.28426599999997
20
55.953025000000004
10
234.1752238
20
55.854168200000004
10
234.17471579999997
20
55.853736399999995
10
234.1742586
20
55.85338079999999
10
234.0560216
20
55.765699999999995
10
234.0554374
20
55.7652936
10
234.0549802
20
55.76501419999999
10
233.92874219999996
20
55.6893476
10
233.92820879999996
20
55.689042799999996
10
233.92764999999997
20
55.68876339999999
10
233.7945794
20
55.625822199999995
10
233.79404599999998
20
55.625593599999995
10
233.7934364
20
55.6253396
10
233.65485399999997
20
55.5757588
10
233.65432059999998
20
55.575581
10
233.65366019999996
20
55.5754032
10
233.51088679999998
20
55.53963999999999
10
233.5102518
20
55.539487599999994
10
233.5096422
20
55.53938599999999
10
233.3640494
20
55.517796
10
233.36349059999998
20
55.517719799999995
10
233.3628048
20
55.517669000000005
10
233.215815
20
55.5104554
10
233.21543400000002
20
55.51042999999999
10
233.21517999999998
20
55.51042999999999
10
230.88528879999998
20
55.51042999999999
10
230.3506696
20
55.471364799999996
10
229.8909296
20
55.363719599999996
10
229.45369399999998
20
55.1854878
10
229.04970699999998
20
54.941038199999994
10
228.68895079999996
20
54.63639059999999
10
228.38026459999998
20
54.2790634
10
228.1312938
20
53.877845
10
227.94815979999998
20
53.4426414
10
227.83599339999998
20
52.986762199999994
10
227.79354999999998
20
52.4611346
10
227.79354999999998
20
37.255246799999995
10
227.90683399999998
20
36.0277156
10
228.1832622
20
34.8647766
10
228.6207264
20
33.752358199999996
10
229.21048899999997
20
32.712634599999994
10
229.9408406
20
31.766332199999997
10
230.7969222
20
30.932627999999998
10
231.5637482
20
30.3730914
10
231.6076902
20
30.363515599999996
10
231.6079188
20
30.363464799999996
10
231.6081728
20
30.363388599999997
10
232.9809158
20
30.007001199999998
10
232.9813476
20
30.006899599999997
10
232.98139840000002
20
30.0068742
10
233.0932092
20
29.973143
10
233.0935902
20
29.973015999999998
10
233.094149
20
29.9728382
10
233.20298799999998
20
29.9304964
10
233.2032674
20
29.930394799999995
10
233.2034452
20
29.930318599999996
10
234.5042808
20
29.3652956
10
234.50450940000002
20
29.365194
10
234.50473799999997
20
29.3650924
10
234.60994479999997
20
29.314419400000002
10
234.6104528
20
29.3141654
10
234.61083379999997
20
29.3139622
10
234.7117988
20
29.2552628
10
234.7118496
20
29.2552374
10
234.7122052
20
29.2550088
10
235.9096374
20
28.495015399999996
10
235.9098152
20
28.4949138
10
235.91004379999998
20
28.494735999999996
10
236.0061574
20
28.428365799999998
10
236.0065892
20
28.428035599999998
10
236.0069448
20
28.427756199999997
10
236.09757199999999
20
28.3541216
10
236.0978514
20
28.353867599999997
10
236.097953
20
28.353791399999995
10
236.9928966
20
27.5667978
10
237.0344002
20
27.5419058
10
237.0348574
20
27.5416264
10
237.03544159999996
20
27.54122
10
237.1536786
20
27.453539199999998
10
237.15413579999998
20
27.4531836
10
237.1546438
20
27.452751799999998
10
237.187867
20
27.4226274
10
237.1886544
20
27.422449599999997
10
237.18982279999997
20
27.4220178
10
237.1909658
20
27.421484399999997
10
237.19205799999997
20
27.420849399999998
10
237.193074
20
27.4201128
10
237.1934296
20
27.419808
10
238.1701612
20
26.560907
10
239.168686
20
25.927278599999998
10
240.2534184
20
25.4562864
10
241.39748519999998
20
25.159512799999998
10
242.5587224
20
25.0463812
10
243.8330404
20
25.1466604
10
245.08978159999998
20
25.448387
10
246.28383559999997
20
25.9429758
10
247.3858146
20
26.618260199999998
10
248.36859139999996
20
27.4576286
10
249.2079598
20
28.4404054
10
249.88324419999998
20
29.5423844
10
250.37783299999998
20
30.7364384
10
250.6792548
20
31.991934999999998
10
250.7875604
20
33.3977996
10
250.78758579999996
20
33.3981044
10
250.7876112
20
33.398409199999996
10
250.80610240000001
20
33.54443379999999
10
250.8062294
20
33.545170399999996
10
250.80633099999997
20
33.5456784
10
250.81229999999996
20
33.5718404
10
250.81229999999996
20
47.342805999999996
10
250.7252796
20
48.448620399999996
10
250.42355299999997
20
49.705361599999996
10
249.92896419999997
20
50.8994156
10
249.25367979999996
20
52.001394600000005
10
248.4143114
20
52.984171399999994
10
247.43153459999996
20
53.8235398
10
246.3295556
20
54.4988242
10
245.1355016
20
54.993413
10
243.87876039999998
20
55.2951396
10
242.47165119999997
20
55.4058836
10
242.4713464
20
55.405908999999994
10
242.4710162
20
55.40593439999999
10
242.46827299999998
20
55.40629
10
238.67109999999997
20
55.40629
10
238.67084599999998
20
55.40629
10
238.670465
20
55.40631539999999
10
238.5234752
20
55.413529
10
238.52278939999997
20
55.413579799999994
10
238.5222306
20
55.41365599999999
10
238.3766378
20
55.435246
10
238.3760282
20
55.4353476
10
238.37539319999996
20
55.4355
10
238.23261979999998
20
55.4712632
10
238.2319594
20
55.47144099999999
10
238.23142599999997
20
55.471618799999995
10
238.0928436
20
55.5211996
10
238.09223400000002
20
55.5214536
10
238.0917006
20
55.5216822
10
237.95862999999997
20
55.5846234
10
237.95807119999998
20
55.584902799999995
10
237.95753779999998
20
55.585207600000004
10
237.83129979999998
20
55.660874199999995
10
237.83084259999998
20
55.661153600000006
10
237.8302584
20
55.661559999999994
10
237.7120214
20
55.749240799999995
10
237.71156419999997
20
55.7495964
10
237.7110562
20
55.750028199999996
10
237.60201399999997
20
55.848884999999996
10
237.6015568
20
55.8493168
10
237.60112499999997
20
55.849774
10
237.5022682
20
55.9588162
10
237.5018364
20
55.9593242
10
237.5014808
20
55.9597814
10
237.41379999999998
20
56.0780184
10
237.4133936
20
56.0786026
10
237.4131142
20
56.079059799999996
10
237.3374476
20
56.205297800000004
10
237.3371428
20
56.2058312
10
237.33686339999997
20
56.20639
10
237.2739222
20
56.339460599999995
10
237.27369359999997
20
56.33999399999999
10
237.2734396
20
56.3406036
10
237.2238588
20
56.479186
10
237.223681
20
56.4797194
10
237.22350319999998
20
56.4803798
10
237.18774000000002
20
56.623153200000004
10
237.18758759999997
20
56.6237882
10
237.18748599999998
20
56.6243978
10
237.16589599999998
20
56.7699906
10
237.16581979999998
20
56.77054939999999
10
237.16576899999998
20
56.7712352
10
237.15855539999995
20
56.91822499999999
10
237.15852999999998
20
56.918859999999995
10
237.15855539999995
20
56.91949499999999
10
237.16576899999998
20
57.0664848
10
237.16581979999998
20
57.06717059999999
10
237.16589599999998
20
57.06772939999999
10
237.18748599999998
20
57.21332219999999
10
237.18758759999997
20
57.2139318
10
237.18774000000002
20
57.2145668
10
237.22350319999998
20
57.3573402
10
237.223681
20
57.35800059999999
10
237.2238588
20
57.358534
10
237.2734396
20
57.4971164
10
237.27369359999997
20
57.49772599999999
10
237.2739222
20
57.498259399999995
10
237.33686339999997
20
57.63132999999999
10
237.3371428
20
57.6318888
10
237.3374476
20
57.6324222
10
237.4131142
20
57.7586602
10
237.4133936
20
57.7591174
10
237.41379999999998
20
57.7597016
10
237.5014808
20
57.8779386
10
237.5018364
20
57.8783958
10
237.5022682
20
57.8789038
10
237.60112499999997
20
57.987945999999994
10
237.6015568
20
57.9884032
10
237.60201399999997
20
57.988834999999995
10
237.7110562
20
58.087691799999995
10
237.71156419999997
20
58.088123599999996
10
237.7120214
20
58.0884792
10
237.8302584
20
58.176159999999996
10
237.83084259999998
20
58.1765664
10
237.83129979999998
20
58.1768458
10
237.95753779999998
20
58.2525124
10
237.95807119999998
20
58.252817199999996
10
237.95862999999997
20
58.2530966
10
238.0917006
20
58.316037800000004
10
238.09223400000002
20
58.316266399999996
10
238.0928436
20
58.3165204
10
238.23142599999997
20
58.366101199999996
10
238.2319594
20
58.366279
10
238.23261979999998
20
58.366456799999995
10
238.37539319999996
20
58.40222
10
238.3760282
20
58.4023724
10
238.3766378
20
58.402474
10
238.5222306
20
58.424063999999994
10
238.52278939999997
20
58.4241402
10
238.5234752
20
58.42419099999999
10
238.670465
20
58.43140459999999
10
238.67084599999998
20
58.43143
10
238.67109999999997
20
58.43143
10
242.594257
20
58.43143
10
243.87688079999998
20
58.5333348
10
245.13275839999997
20
58.8357218
10
246.3259488
20
59.33076779999999
10
247.4270388
20
60.0063062
10
248.408952
20
60.845674599999995
10
249.2475584
20
61.8282482
10
249.9222332
20
62.9298716
10
250.4163394
20
64.1234176
10
250.71745639999997
20
65.37832999999999
10
250.81229999999996
20
66.6100522
10
250.81229999999996
20
67.883786
10
250.7252796
20
68.9896004
10
250.42355299999997
20
70.2463416
10
249.92896419999997
20
71.44039559999999
10
249.25367979999996
20
72.5423746
10
248.4143114
20
73.5251514
10
247.43153459999996
20
74.3645198
10
246.3295556
20
75.03980419999999
10
245.1355016
20
75.534393
10
243.88000499999998
20
75.8358148
10
242.4741404
20
75.9441204
10
242.4738356
20
75.94414579999999
10
242.47353079999996
20
75.9441712
10
242.4491214
20
75.94727
10
230.3940782
20
75.94727
10
229.9391134
20
75.91003359999999
10
229.5512046
20
75.81562179999999
10
229.18282839999998
20
75.6616978
10
228.843078
20
75.4520208
10
228.54031
20
75.19179779999999
10
228.28199199999997
20
74.88740419999999
10
228.0744486
20
74.5463584
10
227.922836
20
74.17701699999999
10
227.83015139999998
20
73.7855776
10
227.78877479999997
20
73.2657158
10
227.7887494
20
73.2654364
10
227.78872399999997
20
73.2651062
10
227.78697139999997
20
73.2516188
10
227.78631099999998
20
73.23805519999999
10
227.78626019999996
20
73.23736939999999
10
227.786184
20
73.2368106
10
227.7774718
20
73.178035
10
227.76985179999997
20
73.1191324
10
227.76977559999997
20
73.11854819999999
10
227.76964859999998
20
73.1179132
10
227.76660059999998
20
73.1046544
10
227.764594
20
73.0912178
10
227.76449239999997
20
73.09060819999999
10
227.76434
20
73.0899732
10
227.7499128
20
73.032366
10
227.73657779999996
20
72.97447939999999
10
227.73645079999997
20
72.9739714
10
227.73622219999996
20
72.9732856
10
227.73187879999998
20
72.9603824
10
227.7285768
20
72.94719979999999
10
227.728399
20
72.94653939999999
10
227.7282212
20
72.946006
10
227.708206
20
72.8900752
10
227.68925759999996
20
72.8337888
10
227.689029
20
72.83317919999999
10
227.6888004
20
72.8326204
10
227.68321239999997
20
72.8202252
10
227.67864039999998
20
72.80742359999999
10
227.6783864
20
72.806814
10
227.67815779999998
20
72.8062806
10
227.6527578
20
72.752585
10
227.62837380000002
20
72.6984068
10
227.6281452
20
72.6979496
10
227.62781499999997
20
72.6972892
10
227.6210332
20
72.68550359999999
10
227.61521659999997
20
72.67321
10
227.6149372
20
72.67265119999999
10
227.6146324
20
72.6721178
10
227.58410159999997
20
72.6211654
10
227.55453599999998
20
72.5696542
10
227.55420579999998
20
72.56914619999999
10
227.55385019999997
20
72.5686128
10
227.54595079999996
20
72.5575384
10
227.5389658
20
72.5458798
10
227.5386864
20
72.5454226
10
227.53828
20
72.54483839999999
10
227.50289779999997
20
72.49711179999998
10
227.46840459999999
20
72.44875019999999
10
227.4680236
20
72.4482422
10
227.46764259999998
20
72.4477596
10
227.45870179999997
20
72.4375234
10
227.4505992
20
72.4266014
10
227.4502436
20
72.4261442
10
227.4498118
20
72.4256362
10
227.4099084
20
72.381618
10
227.3708432
20
72.3368632
10
227.37038599999997
20
72.3363806
10
227.36997960000002
20
72.3359742
10
227.360099
20
72.3266524
10
227.350955
20
72.316594
10
227.3505232
20
72.3161368
10
227.35006599999997
20
72.315705
10
227.30607320000001
20
72.2758016
10
227.26281699999998
20
72.23508539999999
10
227.2623344
20
72.234679
10
227.2618518
20
72.234298
10
227.25108219999996
20
72.2259922
10
227.24102380000002
20
72.21684819999999
10
227.24051579999997
20
72.2164164
10
227.2400586
20
72.2160608
10
227.192332
20
72.1806786
10
227.1452912
20
72.14440739999999
10
227.1447578
20
72.14400099999999
10
227.1442752
20
72.1436962
10
227.13274359999997
20
72.1364826
10
227.12182159999998
20
72.12837999999999
10
227.1212374
20
72.1279736
10
227.12078019999998
20
72.1276942
10
227.06985319999998
20
72.0971634
10
227.019485
20
72.0656674
10
227.0188246
20
72.0652864
10
227.0183928
20
72.06505779999999
10
227.00620080000002
20
72.05901259999999
10
226.99454219999998
20
72.0520276
10
226.99400879999996
20
72.0517228
10
226.99345
20
72.0514434
10
226.93975439999997
20
72.02604339999999
10
226.8865414
20
71.9996274
10
226.8859318
20
71.999348
10
226.88539839999999
20
71.9991448
10
226.872673
20
71.9943188
10
226.8603794
20
71.9885022
10
226.859846
20
71.9882736
10
226.8592364
20
71.9880196
10
226.8033056
20
71.9680044
10
226.7477558
20
71.94694779999999
10
226.7472732
20
71.94676999999999
10
226.74656199999998
20
71.9465668
10
226.73345559999996
20
71.9430108
10
226.72065399999997
20
71.93843879999999
10
226.72012059999997
20
71.938261
10
226.7194602
20
71.9380832
10
226.66182759999998
20
71.9236306
10
226.60449979999996
20
71.90813659999999
10
226.60389019999997
20
71.9079842
10
226.60328059999998
20
71.9078572
10
226.5898694
20
71.905622
10
226.57668679999998
20
71.90231999999999
10
226.57605180000002
20
71.9021676
10
226.57544219999997
20
71.90206599999999
10
226.51669199999998
20
71.8933538
10
226.45811959999997
20
71.883524
10
226.45756079999998
20
71.8834478
10
226.456875
20
71.883397
10
226.4433114
20
71.88245719999999
10
226.4298494
20
71.880476
10
226.42929059999997
20
71.8803998
10
226.4286048
20
71.880349
10
226.36929579999997
20
71.877428
10
226.3100122
20
71.87341479999999
10
226.309428
20
71.87338940000001
10
226.30876759999998
20
71.87338940000001
10
226.29517859999999
20
71.8737958
10
226.281615
20
71.8731354
10
226.28097999999997
20
71.87311
10
226.280345
20
71.8731354
10
226.221036
20
71.876031
10
226.1616508
20
71.8778344
10
226.1609904
20
71.8778852
10
226.16040619999998
20
71.87793599999999
10
226.1469188
20
71.8796886
10
226.1333552
20
71.880349
10
226.13266939999997
20
71.8803998
10
226.1321106
20
71.880476
10
226.073335
20
71.88918819999999
10
226.01443239999998
20
71.8968082
10
226.01384819999998
20
71.89688439999999
10
226.0132132
20
71.8970114
10
225.9999544
20
71.90005939999999
10
225.9865178
20
71.90206599999999
10
225.98590819999998
20
71.9021676
10
225.98527319999997
20
71.90231999999999
10
225.927666
20
71.91674719999999
10
225.8697794
20
71.9300822
10
225.86927139999997
20
71.9302092
10
225.8685856
20
71.9304378
10
225.8556824
20
71.9347812
10
225.84249979999998
20
71.9380832
10
225.84183939999997
20
71.938261
10
225.84130599999997
20
71.93843879999999
10
225.7853752
20
71.95845399999999
10
225.7290888
20
71.9774024
10
225.72847919999998
20
71.977631
10
225.72792040000002
20
71.9778596
10
225.7155252
20
71.9834476
10
225.7027236
20
71.9880196
10
225.70211400000002
20
71.9882736
10
225.7015806
20
71.9885022
10
225.64788499999997
20
72.01390219999999
10
225.59370679999998
20
72.03828619999999
10
225.5932496
20
72.03851479999999
10
225.5925892
20
72.038845
10
225.58080359999997
20
72.0456268
10
225.56850999999997
20
72.0514434
10
225.56795119999998
20
72.0517228
10
225.5674178
20
72.0520276
10
225.5164654
20
72.0825584
10
225.4649542
20
72.112124
10
225.46444619999997
20
72.1124542
10
225.46391279999997
20
72.1128098
10
225.4528384
20
72.1207092
10
225.44117979999996
20
72.1276942
10
225.4407226
20
72.1279736
10
225.4401384
20
72.12837999999999
10
225.39241179999996
20
72.1637622
10
225.34405019999997
20
72.1982554
10
225.3435422
20
72.1986364
10
225.3430596
20
72.19901739999999
10
225.3328234
20
72.2079582
10
225.3219014
20
72.2160608
10
225.32144419999997
20
72.2164164
10
225.3209362
20
72.21684819999999
10
225.276918
20
72.2567516
10
225.23216319999997
20
72.2958168
10
225.23168059999998
20
72.296274
10
225.2312742
20
72.2966804
10
225.2219524
20
72.306561
10
225.21189399999997
20
72.315705
10
225.2114368
20
72.3161368
10
225.21100499999997
20
72.316594
10
225.17110160000001
20
72.3605868
10
225.13038539999997
20
72.403843
10
225.12997899999996
20
72.40432559999999
10
225.129598
20
72.40480819999999
10
225.12129219999997
20
72.4155778
10
225.1121482
20
72.4256362
10
225.1117164
20
72.4261442
10
225.1113608
20
72.4266014
10
225.07597859999998
20
72.474328
10
225.03970739999997
20
72.52136879999999
10
225.03930099999997
20
72.5219022
10
225.03899619999999
20
72.5223848
10
225.0317826
20
72.5339164
10
225.02367999999998
20
72.54483839999999
10
225.0232736
20
72.5454226
10
225.0229942
20
72.5458798
10
224.99246339999996
20
72.5968068
10
224.9609674
20
72.64717499999999
10
224.9605864
20
72.6478354
10
224.9603578
20
72.64826719999999
10
224.9543126
20
72.66045919999999
10
224.9473276
20
72.6721178
10
224.94702279999998
20
72.67265119999999
10
224.94674339999997
20
72.67321
10
224.92134339999998
20
72.7269056
10
224.8949274
20
72.7801186
10
224.894648
20
72.7807282
10
224.8944448
20
72.7812616
10
224.8896188
20
72.793987
10
224.8838022
20
72.8062806
10
224.88357359999998
20
72.806814
10
224.8833196
20
72.80742359999999
10
224.86330439999998
20
72.86335439999999
10
224.8422478
20
72.9189042
10
224.84206999999998
20
72.9193868
10
224.84186680000002
20
72.920098
10
224.83831080000002
20
72.93320440000001
10
224.8337388
20
72.946006
10
224.833561
20
72.94653939999999
10
224.8333832
20
72.94719979999999
10
224.8189306
20
73.0048324
10
224.8034366
20
73.06216020000001
10
224.8032842
20
73.0627698
10
224.80315719999996
20
73.06337939999999
10
224.80092199999996
20
73.0767906
10
224.79762
20
73.0899732
10
224.79746759999998
20
73.09060819999999
10
224.79736599999998
20
73.0912178
10
224.7886538
20
73.14996799999999
10
224.778824
20
73.2085404
10
224.77874780000002
20
73.2090992
10
224.778697
20
73.209785
10
224.77775719999997
20
73.2233486
10
224.77577599999998
20
73.2368106
10
224.77569979999998
20
73.23736939999999
10
224.775649
20
73.23805519999999
10
224.77331219999996
20
73.28570559999999
10
224.7261952
20
73.7921054
10
224.62561119999998
20
74.1863388
10
224.46457519999998
20
74.5599728
10
224.247075
20
74.903838
10
223.97847
20
75.2094508
10
223.6653642
20
75.46926739999999
10
223.3154538
20
75.676887
10
222.93737480000001
20
75.827255
10
222.54042359999997
20
75.91658679999999
10
222.0641736
20
75.94727
10
219.52458
20
75.94727
10
219.5245038
20
75.94727
10
219.5238942
20
75.94729539999999
10
219.450412
20
75.9509022
10
219.3769552
20
75.954509
10
219.37632019999998
20
75.95455979999998
10
219.37624399999999
20
75.95455979999998
10
219.37621859999996
20
75.95455979999998
10
219.3756344
20
75.95463600000001
10
219.3028634
20
75.965431
10
219.2301178
20
75.976226
10
219.2295082
20
75.9763276
10
219.229432
20
75.97635299999999
10
219.22882239999996
20
75.97648
10
219.1574484
20
75.99436159999999
10
219.08609979999997
20
76.0122432
10
219.08551559999998
20
76.0123956
10
219.08543939999998
20
76.01242099999999
10
219.08485519999996
20
76.01262419999999
10
219.0155894
20
76.0374146
10
218.9463236
20
76.0621796
10
218.94573939999998
20
76.0624082
10
218.94568859999998
20
76.0624336
10
218.9456124
20
76.06245899999999
10
218.94510439999996
20
76.0626876
10
218.87860719999998
20
76.0941328
10
218.81210999999996
20
76.1256034
10
218.81155119999997
20
76.12588279999999
10
218.81150039999997
20
76.1259082
10
218.8113988
20
76.125959
10
218.81096699999998
20
76.12621299999999
10
218.7478734
20
76.1640336
10
218.68477979999997
20
76.2018542
10
218.6843226
20
76.2021336
10
218.6842464
20
76.2021844
10
218.6841956
20
76.20223519999999
10
218.6836622
20
76.2025908
10
218.6245818
20
76.24640579999999
10
218.5655014
20
76.2902208
10
218.56504419999996
20
76.2905764
10
218.5650188
20
76.29060179999999
10
218.564968
20
76.2906526
10
218.5644854
20
76.291059
10
218.509977
20
76.34046199999999
10
218.455494
20
76.38986499999999
10
218.45503680000002
20
76.3902968
10
218.454986
20
76.3903476
10
218.45455420000002
20
76.3908048
10
218.40515119999998
20
76.44528779999999
10
218.3557482
20
76.49979619999999
10
218.3553418
20
76.50027879999999
10
218.355291
20
76.50032959999999
10
218.35491
20
76.50081219999998
10
218.311095
20
76.559918
10
218.26727999999997
20
76.6189984
10
218.26692439999997
20
76.6195064
10
218.2668736
20
76.6195572
10
218.2665434
20
76.6200906
10
218.22874819999998
20
76.68318419999999
10
218.1909276
20
76.7462778
10
218.1906228
20
76.7468112
10
218.190572
20
76.74688739999999
10
218.19054659999998
20
76.74693819999999
10
218.19029259999996
20
76.7474462
10
218.1588474
20
76.8139434
10
218.12740219999998
20
76.8804406
10
218.12717359999996
20
76.880974
10
218.1271482
20
76.8809994
10
218.12712279999997
20
76.88107559999999
10
218.1270974
20
76.8811518
10
218.1268942
20
76.8816598
10
218.10212919999998
20
76.95090019999999
10
218.0773388
20
77.020166
10
218.077161
20
77.0206994
10
218.07713559999996
20
77.0207756
10
218.0771102
20
77.02082639999999
10
218.07695779999997
20
77.021436
10
218.0590762
20
77.0927846
10
218.04122
20
77.1641332
10
218.0410676
20
77.1647428
10
218.0410676
20
77.164819
10
218.0410422
20
77.16484439999999
10
218.04096599999997
20
77.1654286
10
218.03017099999997
20
77.2381996
10
218.01937599999997
20
77.31097059999999
10
218.0192998
20
77.3115294
10
218.0192998
20
77.3115802
10
218.0192744
20
77.3116564
10
217.9807172
20
77.7033244
10
217.9126452
20
77.9804638
10
217.80578739999996
20
78.2451064
10
217.662379
20
78.49184199999999
10
217.48529019999998
20
78.7156414
10
217.2781786
20
78.9119834
10
217.04523519999998
20
79.0768294
10
216.7911844
20
79.206852
10
216.52120779999998
20
79.2994096
10
216.2446018
20
79.3518606
10
215.8852934
20
79.36610999999999
10
196.855842
20
79.36610999999999
10
196.5275724
20
79.33260739999999
10
196.23605659999998
20
79.2605222
10
195.9575202
20
79.1482542
10
195.697475
20
78.9980132
10
195.46110259999998
20
78.812771
10
195.2514256
20
78.5945342
10
195.01101459999998
20
78.2631912
10
194.88787539999998
20
78.093443
10
194.8390058
20
78.0119598
10
194.83872639999998
20
78.0115026
10
194.83831999999998
20
78.0109184
10
194.75063919999997
20
77.8926814
10
194.7502836
20
77.89222419999999
10
194.7498518
20
77.8917162
10
194.70573199999998
20
77.8430498
10
194.5764206
20
77.6884654
10
194.5761158
20
77.6880844
10
194.57583640000001
20
77.687805
10
194.2200586
20
77.31747299999999
10
194.2197792
20
77.3171936
10
194.2193982
20
77.31683799999999
10
194.06293419999997
20
77.1753854
10
194.0626548
20
77.1751314
10
194.0622484
20
77.17480119999999
10
193.65803279999997
20
76.8580378
10
193.657728
20
76.8578092
10
193.6572962
20
76.8575298
10
193.48254419999998
20
76.7394198
10
193.48208699999998
20
76.7391404
10
193.4817822
20
76.7389372
10
193.03710439999998
20
76.48201619999999
10
193.0367234
20
76.481813
10
193.036317
20
76.48160979999999
10
192.84670599999998
20
76.3891792
10
192.8464012
20
76.3890268
10
192.84589319999998
20
76.3888236
10
192.3695924
20
76.1967996
10
192.36918599999998
20
76.1966472
10
192.36875419999998
20
76.1964948
10
192.1680434
20
76.1315978
10
192.1676116
20
76.13147079999999
10
192.16717979999999
20
76.1313438
10
191.66865399999998
20
76.0080776
10
191.66829839999997
20
76.007976
10
191.66779039999997
20
76.00787439999999
10
191.4599676
20
75.971781
10
191.4594088
20
75.9716794
10
191.4590786
20
75.971654
10
190.9978908
20
75.9245878
10
190.94350939999998
20
75.916536
10
190.9429506
20
75.9164598
10
190.9422648
20
75.91640899999999
10
190.795275
20
75.9091954
10
190.794894
20
75.90917
10
190.79464
20
75.90917
10
182.4286674
20
75.90917
10
182.082694
20
75.8726956
10
181.7771066
20
75.7937778
10
181.486429
20
75.6708164
10
181.21703659999997
20
75.5064276
10
180.9737046
20
75.3033292
10
180.6878784
20
74.9836194
10
180.3284176
20
74.5815374
10
180.3280874
20
74.5811818
10
180.32778259999998
20
74.58085159999999
10
180.1706328
20
74.42895959999998
10
180.17032799999998
20
74.4287056
10
180.16994699999998
20
74.42835
10
179.7559016
20
74.0828084
10
179.755673
20
74.08260519999999
10
179.755546
20
74.082529
10
179.66801759999998
20
74.0147872
10
179.66766199999998
20
74.01450779999999
10
179.6672556
20
74.01425379999999
10
179.5749774
20
73.95316679999999
10
179.57485039999997
20
73.9530652
10
179.5745964
20
73.9529128
10
179.1142468
20
73.67201419999999
10
179.1141198
20
73.671938
10
179.1138404
20
73.67178559999999
10
179.0173204
20
73.6176582
10
179.0168378
20
73.6174042
10
179.01648219999998
20
73.61722639999999
10
178.9162284
20
73.5703888
10
178.9159744
20
73.5702618
10
178.9157966
20
73.57018559999999
10
178.4191504
20
73.36005139999999
10
178.4190234
20
73.36000059999999
10
178.41871859999998
20
73.35987359999999
10
178.3152644
20
73.3205544
10
178.31488339999999
20
73.32040199999999
10
178.3143754
20
73.3202496
10
178.2083304
20
73.288652
10
178.20810179999998
20
73.2885758
10
178.2078732
20
73.28852499999999
10
177.6857254
20
73.1537018
10
177.6856238
20
73.1536764
10
177.6852682
20
73.15360019999999
10
177.5771658
20
73.129902
10
177.576861
20
73.1298512
10
177.5762514
20
73.1297496
10
177.4666758
20
73.11407779999999
10
177.4662948
20
73.114027
10
177.4662186
20
73.114027
10
176.929923
20
73.05746119999999
10
176.9296182
20
73.0574358
10
176.92931339999998
20
73.0574104
10
176.924716
20
73.0571564
10
176.9201694
20
73.056496
10
176.9196106
20
73.0564198
10
176.91892479999998
20
73.05636899999999
10
176.8506242
20
73.0530162
10
176.78234899999998
20
73.04918079999999
10
176.7816378
20
73.0491554
10
176.7811044
20
73.04918079999999
10
176.77650699999998
20
73.04935859999999
10
176.77193499999998
20
73.0491554
10
176.77155399999998
20
73.04912999999999
10
176.7713
20
73.04912999999999
10
172.0729858
20
73.04912999999999
10
171.52061199999997
20
72.99843159999999
10
171.0297824
20
72.8747336
10
170.5639972
20
72.6765628
10
170.1345086
20
72.40869439999999
10
169.75162899999998
20
72.07758
10
169.424604
20
71.6912206
10
169.16130760000001
20
71.25888719999999
10
168.9681152
20
70.7910192
10
168.8497258
20
70.299326
10
168.80459
20
69.73844319999999
10
168.80459
20
69.10324
10
168.80459
20
69.102986
10
168.8045646
20
69.102605
10
168.797351
20
68.9556152
10
168.7973002
20
68.9549294
10
168.79722399999997
20
68.95437059999999
10
168.775634
20
68.8087778
10
168.7755324
20
68.8081682
10
168.77537999999998
20
68.8075332
10
168.7396168
20
68.6647598
10
168.73943899999998
20
68.6640994
10
168.7392612
20
68.66356599999999
10
168.6896804
20
68.5249836
10
168.68942639999997
20
68.524374
10
168.6891978
20
68.5238406
10
168.6262566
20
68.39077
10
168.6259772
20
68.3902112
10
168.62567239999998
20
68.3896778
10
168.55000579999998
20
68.26343979999999
10
168.5497264
20
68.2629826
10
168.54932
20
68.2623984
10
168.4616392
20
68.14416139999999
10
168.4612836
20
68.1437042
10
168.46085179999997
20
68.14319619999999
10
168.36199499999998
20
68.034154
10
168.3615632
20
68.03369679999999
10
168.36110599999998
20
68.033265
10
168.3429196
20
68.0167804
10
168.32643499999998
20
67.998594
10
168.3260032
20
67.9981368
10
168.325546
20
67.997705
10
168.21650379999997
20
67.89884819999999
10
168.2159958
20
67.8984164
10
168.21553859999997
20
67.8980608
10
168.09730159999998
20
67.81038
10
168.0967174
20
67.8099736
10
168.0962602
20
67.8096942
10
167.9700222
20
67.7340276
10
167.9694888
20
67.7337228
10
167.96892999999997
20
67.7334434
10
167.8358594
20
67.6705022
10
167.83532599999998
20
67.6702736
10
167.8347164
20
67.6700196
10
167.696134
20
67.62043879999999
10
167.6956006
20
67.620261
10
167.6949402
20
67.6200832
10
167.5521668
20
67.58431999999999
10
167.5515318
20
67.5841676
10
167.55092219999997
20
67.58406599999999
10
167.40532939999997
20
67.562476
10
167.4047706
20
67.56239980000001
10
167.4040848
20
67.562349
10
167.257095
20
67.5551354
10
167.256714
20
67.55511
10
167.25646
20
67.55511
10
162.5579172
20
67.55511
10
162.4785168
20
67.5484298
10
162.47823739999998
20
67.5484298
10
162.47790719999998
20
67.5484044
10
160.73871839999998
20
67.4879778
10
159.13232079999997
20
67.19976399999999
10
157.5832764
20
66.6858712
10
156.1231574
20
65.9567642
10
154.78165639999997
20
65.0272766
10
153.5860784
20
63.91630599999999
10
152.560782
20
62.646534599999995
10
151.726646
20
61.2437688
10
151.1006122
20
59.7365582
10
150.6954568
20
58.155586
10
150.51658999999998
20
56.506846599999996
10
150.51658999999998
20
43.7927496
10
150.66396079999998
20
41.857295
10
151.0761012
20
39.9010124
10
151.7414542
20
38.015773599999996
10
152.64851359999997
20
36.2341668
10
153.78191239999998
20
34.5865196
10
155.16677119999997
20
33.0495656
10
156.2545008
20
31.937071
10
156.25475479999997
20
31.936816999999998
10
156.254831
20
31.9367154
10
156.33042139999998
20
31.8533526
10
156.33075159999999
20
31.852996999999995
10
156.3310564
20
31.852641399999996
10
156.4001698
20
31.763842999999998
10
156.40024599999998
20
31.7637668
10
156.4004746
20
31.763461999999997
10
157.3276762
20
30.475758199999998
10
157.3276762
20
30.475758199999998
10
157.3279556
20
30.475351799999995
10
157.39000779999998
20
30.3820068
10
157.3902872
20
30.381575
10
157.39051579999997
20
30.381193999999997
10
157.44543059999998
20
30.283454799999998
10
157.44543059999998
20
30.283454799999998
10
157.4456592
20
30.283048399999995
10
158.1707022
20
28.8715704
10
158.17090539999998
20
28.871163999999997
10
158.17090539999998
20
28.871138600000002
10
158.218378
20
28.769589399999997
10
158.2185812
20
28.7691322
10
158.2187336
20
28.768700399999997
10
158.25848459999997
20
28.663874599999996
10
158.25850999999997
20
28.663798399999997
10
158.258637
20
28.6634428
10
158.7653416
20
27.159712
10
158.7653416
20
27.1596612
10
158.7654686
20
27.159254799999996
10
158.7972948
20
27.051761999999997
10
158.7973964
20
27.051355599999997
10
158.7975234
20
27.0508222
10
158.8211962
20
26.941246599999996
10
158.821247
20
26.9409926
10
158.8212978
20
26.9407894
10
159.09833559999998
20
25.3783592
10
159.098361
20
25.378181399999995
10
159.09841179999998
20
25.377902
10
159.1138296
20
25.2668532
10
159.11388039999997
20
25.2664722
10
159.1139312
20
25.2659134
10
159.12101779999998
20
25.1540264
10
159.1210432
20
25.1538994
10
159.1210432
20
25.153543799999998
10
159.162242
20
23.5672884
10
159.162242
20
23.5669582
10
159.162242
20
23.5666534
10
159.1618102
20
23.5476542
10
159.1627246
20
23.528654999999997
10
159.16275
20
23.528019999999998
10
159.1627246
20
23.527385
10
159.160083
20
23.4734862
10
159.1588384
20
23.4195112
10
159.15881299999998
20
23.418901599999998
10
159.1587368
20
23.4182666
10
159.1564508
20
23.3993944
10
159.155511
20
23.3803952
10
159.1554602
20
23.3797094
10
159.155384
20
23.3791506
10
159.1474592
20
23.325734399999998
10
159.1409314
20
23.2721658
10
159.14085519999998
20
23.271632399999998
10
159.14072819999998
20
23.2709212
10
159.136588
20
23.252353799999998
10
159.133794
20
23.2335578
10
159.1336924
20
23.2329482
10
159.13354
20
23.232313199999997
10
159.12043359999998
20
23.1799638
10
159.1086734
20
23.1272588
10
159.1084956
20
23.1265222
10
159.1083432
20
23.126065
10
159.1023996
20
23.1080056
10
159.0977768
20
23.089539799999997
10
159.09759899999997
20
23.0888794
10
159.09742119999999
20
23.088345999999998
10
159.0792348
20
23.0375206
10
159.0623692
20
22.986238
10
159.0621914
20
22.9857046
10
159.06193739999998
20
22.9850696
10
159.05424119999998
20
22.967670599999998
10
159.0478404
20
22.949763599999997
10
159.0475864
20
22.949154
10
159.0473578
20
22.948620599999998
10
159.0242692
20
22.8998272
10
159.002476
20
22.8504242
10
159.002222
20
22.8498908
10
159.00191719999998
20
22.8493066
10
158.99257
20
22.832745799999998
10
158.9844166
20
22.815549999999998
10
158.9841372
20
22.814991199999998
10
158.98383239999998
20
22.8144578
10
158.9560956
20
22.768153599999998
10
158.9295526
20
22.7211382
10
158.92924779999998
20
22.7206556
10
158.9288922
20
22.720096799999997
10
158.9179448
20
22.704526599999998
10
158.90816579999998
20
22.6882198
10
158.9078864
20
22.6877626
10
158.90748
20
22.687178399999997
10
158.8753236
20
22.643820599999998
10
158.8443102
20
22.5996246
10
158.84398
20
22.599192799999997
10
158.8435228
20
22.5986594
10
158.83112759999997
20
22.5842322
10
158.8197992
20
22.5689414
10
158.8194436
20
22.568484199999997
10
158.81901179999997
20
22.5679762
10
158.78274059999998
20
22.527996599999998
10
158.74756159999998
20
22.4870518
10
158.7471552
20
22.48662
10
158.74669799999998
20
22.4861628
10
158.7329312
20
22.473005599999997
10
158.720155
20
22.458934
10
158.7197232
20
22.4584768
10
158.71926599999998
20
22.458045
10
158.6792864
20
22.4217992
10
158.64024659999998
20
22.384511999999997
10
158.63976399999999
20
22.3840802
10
158.6392814
20
22.3836992
10
158.6243208
20
22.371964399999996
10
158.6102238
20
22.3591882
10
158.60971579999998
20
22.358756399999997
10
158.6092586
20
22.3584008
10
158.5659008
20
22.3262444
10
158.5233812
20
22.292970399999998
10
158.522924
20
22.292640199999997
10
158.5223652
20
22.292259199999997
10
158.50631239999998
20
22.282048399999997
10
158.4910216
20
22.27072
10
158.4904374
20
22.270313599999998
10
158.4899802
20
22.270034199999998
10
158.4437014
20
22.242272
10
158.39813379999998
20
22.213341399999997
10
158.39765119999998
20
22.213062
10
158.3970416
20
22.2127064
10
158.38004899999999
20
22.2041466
10
158.3637422
20
22.194367599999996
10
158.3632088
20
22.194062799999998
10
158.36265
20
22.193783399999997
10
158.31383119999998
20
22.1706948
10
158.26564739999998
20
22.1463616
10
158.26513939999998
20
22.146107599999997
10
158.2645298
20
22.1458536
10
158.2467752
20
22.1389702
10
158.22957939999998
20
22.1308422
10
158.22904599999998
20
22.130613599999997
10
158.2284364
20
22.1303596
10
158.17761099999998
20
22.1121732
10
158.12726819999997
20
22.092665999999998
10
158.12670939999998
20
22.0924628
10
158.1260744
20
22.092284999999997
10
158.10776099999998
20
22.0871796
10
158.08985399999997
20
22.0807788
10
158.0893206
20
22.080600999999998
10
158.0886602
20
22.0804232
10
158.0362854
20
22.0672914
10
157.98429159999998
20
22.052813399999998
10
157.9835804
20
22.052660999999997
10
157.9830724
20
22.052559399999996
10
157.96432719999999
20
22.0492828
10
157.94588679999998
20
22.04466
10
157.9452518
20
22.0445076
10
157.9446422
20
22.044406
10
157.8912514
20
22.036481199999997
10
157.83808919999998
20
22.027184799999997
10
157.8374542
20
22.0270832
10
157.8368446
20
22.0270324
10
157.81787079999998
20
22.025609999999997
10
157.7990494
20
22.022816
10
157.79849059999998
20
22.022739799999997
10
157.7978048
20
22.022689
10
157.743906
20
22.0200474
10
157.690058
20
22.015983399999996
10
157.6893722
20
22.015958
10
157.6888134
20
22.015958
10
157.6698142
20
22.0163898
10
157.650815
20
22.0154754
10
157.650434
20
22.015449999999998
10
157.65017999999998
20
22.015449999999998
10
143.168116
20
22.015449999999998
10
141.82023959999998
20
21.909379599999998
10
140.5634984
20
21.607653
10
139.3694444
20
21.1130642
10
138.2674654
20
20.4377798
10
137.28468859999998
20
19.5984114
10
136.4453202
20
18.615634599999996
10
135.7700358
20
17.513655599999996
10
135.27544699999999
20
16.3196016
10
134.9737204
20
15.0628604
10
134.8629764
20
13.6557512
10
134.86295099999998
20
13.655446399999999
10
134.86292559999998
20
13.6551162
10
134.8441804
20
13.5091424
10
134.8441042
20
13.5085582
10
134.84397719999998
20
13.5078978
10
134.83844
20
13.483844
0
LWPOLYLINE
5
67
330
5D
100
AcDbEntity
100
AcDbPolyline
8
0
6
ByLayer
62
256
370
-1
90
19
70
1
10
207.6367704
20
94.7293
10
207.6421044
20
94.7128408
10
207.69483479999997
20
94.6093866
10
207.76308459999998
20
94.51545739999999
10
207.84517739999998
20
94.4333646
10
207.9391066
20
94.36511479999999
10
208.0425608
20
94.3123844
10
208.153
20
94.27651959999999
10
208.2676556
20
94.2583586
10
208.3837844
20
94.2583586
10
208.49844000000002
20
94.27651959999999
10
208.60887920000002
20
94.3123844
10
208.7123334
20
94.36511479999999
10
208.8062626
20
94.4333646
10
208.88835539999997
20
94.51545739999999
10
208.95660519999998
20
94.6093866
10
209.00933559999999
20
94.7128408
10
209.01466959999996
20
94.7293
10
207.6367704
20
94.7293
0
LWPOLYLINE
5
68
330
5D
100
AcDbEntity
100
AcDbPolyline
8
0
6
ByLayer
62
256
370
-1
90
58
70
1
10
169.82820999999998
20
40.5948896
10
169.82820999999998
20
48.09957359999999
10
169.8262034
20
48.1261928
10
169.826178
20
48.126777
10
169.826178
20
48.1274374
10
169.82958159999998
20
48.274604999999994
10
169.82960699999998
20
48.27508759999999
10
169.82960699999998
20
48.2752146
10
169.84598999999997
20
48.5014016
10
169.84598999999997
20
57.7254116
10
169.83910659999998
20
58.184872199999994
10
169.7788832
20
58.531480599999995
10
169.6651674
20
58.864373
10
169.5007786
20
59.17542139999999
10
169.2897554
20
59.4568788
10
169.0372794
20
59.701887199999994
10
168.749599
20
59.9044014
10
168.4338008
20
60.05939219999999
10
168.0976318
20
60.163075
10
167.7380948
20
60.21451
10
162.5219
20
60.21451
10
162.52164599999998
20
60.21451
10
162.521265
20
60.214535399999995
10
162.43462559999998
20
60.21877719999999
10
161.824289
20
60.21324
10
161.2330786
20
60.122765199999996
10
160.66076579999998
20
59.949079999999995
10
160.1190092
20
59.695689599999994
10
159.618807
20
59.36780099999999
10
159.17037
20
58.9720436
10
158.7828168
20
58.51651999999999
10
158.4640468
20
58.01045039999999
10
158.220537
20
57.464198
10
158.05724039999998
20
56.8888118
10
157.97656999999998
20
56.28924479999999
10
157.97656999999998
20
44.3587378
10
158.0670956
20
43.5463442
10
158.27430879999997
20
42.791888
10
158.59699039999998
20
42.0791386
10
159.0271902
20
41.425647399999995
10
159.5543164
20
40.847492599999995
10
160.165415
20
40.3589236
10
160.8454238
20
39.9719546
10
161.5775788
20
39.6961106
10
162.34572559999998
20
39.5378432
10
163.21145919999998
20
39.49573
10
168.7016438
20
39.49573
10
168.9172644
20
39.5080744
10
169.0642288
20
39.5380718
10
169.205402
20
39.58887179999999
10
169.33778679999998
20
39.659433
10
169.4586654
20
39.74825679999999
10
169.5655232
20
39.8535398
10
169.6561504
20
39.973097599999996
10
169.72866739999998
20
40.104415599999996
10
169.78157559999997
20
40.2448014
10
169.8136304
20
40.390749799999995
10
169.82820999999998
20
40.5948896
0
LWPOLYLINE
5
69
330
5D
100
AcDbEntity
100
AcDbPolyline
8
0
6
ByLayer
62
256
370
-1
90
20
70
1
10
154.9075134
20
68.7310538
10
154.8985726
20
68.7339494
10
154.7574502
20
68.7563014
10
154.6145498
20
68.7563014
10
154.4734274
20
68.7339494
10
154.33751199999998
20
68.6898042
10
154.21020719999999
20
68.6249326
10
154.0945864
20
68.5409348
10
153.9935452
20
68.4398936
10
153.90954739999998
20
68.3242728
10
153.8446758
20
68.196968
10
153.80053059999997
20
68.0610526
10
153.79461239999998
20
68.02368919999999
10
154.4892008
20
68.5049684
10
154.4896326
20
68.50524779999999
10
154.4899628
20
68.505451
10
154.6741128
20
68.61446779999999
10
154.6745446
20
68.6147218
10
154.6749002
20
68.6148996
10
154.9075134
20
68.7310538
0
LWPOLYLINE
5
6A
330
5D
100
AcDbEntity
100
AcDbPolyline
8
0
6
ByLayer
62
256
370
-1
90
9
70
1
10
147.49145
20
49.353089
10
147.486878
20
49.3440974
10
147.44283439999998
20
49.2085884
10
147.4205586
20
49.067847
10
147.4205586
20
48.925353
10
147.44283439999998
20
48.7846116
10
147.486878
20
48.6491026
10
147.49145
20
48.640111
10
147.49145
20
49.353089
0
LWPOLYLINE
5
6B
330
5D
100
AcDbEntity
100
AcDbPolyline
8
0
6
ByLayer
62
256
370
-1
90
717
70
1
10
176.0855508
20
61.084993399999995
10
176.08522059999999
20
61.05819639999999
10
176.08522059999999
20
61.05763759999999
10
176.08527139999998
20
61.0569518
10
176.0892084
20
61.010926999999995
10
176.091469
20
60.9647752
10
176.0915198
20
60.9640894
10
176.09159599999998
20
60.96353059999999
10
176.095533
20
60.93701299999999
10
176.097819
20
60.910292199999994
10
176.09789519999998
20
60.909580999999996
10
176.0979714
20
60.90907299999999
10
176.1064042
20
60.86363239999999
10
176.11318599999998
20
60.8179378
10
176.1132876
20
60.81732819999999
10
176.11344
20
60.816693199999996
10
176.11994239999999
20
60.790709
10
176.1248446
20
60.7643438
10
176.12494619999998
20
60.76381039999999
10
176.12512399999997
20
60.7631246
10
176.13797639999999
20
60.7187508
10
176.1492032
20
60.67391979999999
10
176.14938099999998
20
60.67325939999999
10
176.1495588
20
60.672726
10
176.1585758
20
60.6475038
10
176.1660434
20
60.6217482
10
176.1662212
20
60.621138599999995
10
176.16644979999998
20
60.620579799999994
10
176.18356939999998
20
60.57765379999999
10
176.1991396
20
60.53414359999999
10
176.19939359999998
20
60.533533999999996
10
176.1996222
20
60.533000599999994
10
176.21107759999998
20
60.508769
10
176.22100899999998
20
60.48387699999999
10
176.2212884
20
60.4832674
10
176.2215424
20
60.482733999999994
10
176.24280219999997
20
60.441713
10
176.2625634
20
60.39992999999999
10
176.2628428
20
60.39937119999999
10
176.2631476
20
60.398837799999995
10
176.27691439999998
20
60.375850799999995
10
176.28925879999997
20
60.352050999999996
10
176.28951279999998
20
60.35154299999999
10
176.2898684
20
60.350958799999994
10
176.3150652
20
60.31222379999999
10
176.33881419999997
20
60.272599799999995
10
176.3390936
20
60.272142599999995
10
176.3395
20
60.271558399999996
10
176.35547659999997
20
60.2500192
10
176.3700816
20
60.2275402
10
176.37043719999997
20
60.22700679999999
10
176.37079279999998
20
60.22652419999999
10
176.39964719999998
20
60.1904308
10
176.4271808
20
60.15332139999999
10
176.4275364
20
60.152864199999996
10
176.42796819999998
20
60.15235619999999
10
176.44597679999998
20
60.1324934
10
176.4627154
20
60.1115638
10
176.46309639999998
20
60.1111066
10
176.46352819999998
20
60.110624
10
176.4957862
20
60.07755319999999
10
176.52682499999997
20
60.043314
10
176.5272568
20
60.042856799999996
10
176.527714
20
60.042425
10
176.54755139999997
20
60.0244164
10
176.5662712
20
60.005214
10
176.5667284
20
60.004782199999994
10
176.5671856
20
60.0043758
10
176.60251699999998
20
59.974607
10
176.63675619999998
20
59.9435682
10
176.63726419999998
20
59.9431364
10
176.63772139999998
20
59.942780799999994
10
176.65926059999998
20
59.92680419999999
10
176.6797584
20
59.90955759999999
10
176.6802664
20
59.90912579999999
10
176.680749
20
59.908795600000005
10
176.718849
20
59.8826336
10
176.7559584
20
59.8551
10
176.7565426
20
59.8546936
10
176.7569998
20
59.854414199999994
10
176.7799868
20
59.840621999999996
10
176.8020848
20
59.82545819999999
10
176.8025674
20
59.82512799999999
10
176.8031262
20
59.82479779999999
10
176.84361379999999
20
59.8024966
10
176.8832378
20
59.778747599999996
10
176.88377119999998
20
59.7784428
10
176.88432999999998
20
59.7781634
10
176.90856159999998
20
59.7666826
10
176.93203119999998
20
59.753754
10
176.93258999999998
20
59.7534746
10
176.9331742
20
59.7531952
10
176.9756176
20
59.73498339999999
10
177.0174006
20
59.71522219999999
10
177.017934
20
59.71499359999999
10
177.0185436
20
59.714739599999994
10
177.0437912
20
59.705722599999994
10
177.0684038
20
59.695130799999994
10
177.0689118
20
59.6949276
10
177.0695722
20
59.694699
10
177.1136158
20
59.680729
10
177.15712599999998
20
59.6651588
10
177.1576594
20
59.664981
10
177.1583198
20
59.664803199999994
10
177.1843294
20
59.6582754
10
177.20988179999998
20
59.65017279999999
10
177.2104914
20
59.649995000000004
10
177.2110756
20
59.64984259999999
10
177.2562876
20
59.6402668
10
177.3010932
20
59.629039999999996
10
177.30172819999999
20
59.6288876
10
177.30233779999998
20
59.62878599999999
10
177.32882999999998
20
59.624849
10
177.3550682
20
59.61928639999999
10
177.3557286
20
59.6191594
10
177.35628739999999
20
59.6190832
10
177.4022106
20
59.6139778
10
177.44793059999998
20
59.607195999999995
10
177.4484894
20
59.6071198
10
177.44917519999998
20
59.60706899999999
10
177.4759468
20
59.6057482
10
177.502566
20
59.6027764
10
177.503201
20
59.60272559999999
10
177.50381059999998
20
59.6027002
10
177.5500132
20
59.602115999999995
10
177.59616499999998
20
59.599855399999996
10
177.596546
20
59.59983
10
177.5968
20
59.59983
10
180.3893776
20
59.59983
10
180.7080714
20
59.5799418
10
180.9568136
20
59.5285322
10
181.1906206
20
59.442680200000005
10
181.4091876
20
59.3232494
10
181.60776479999998
20
59.1729068
10
181.7819834
20
58.994929
10
181.92803339999998
20
58.7931768
10
182.0427144
20
58.5720952
10
182.1235372
20
58.3365102
10
182.16872379999998
20
58.091578
10
182.181119
20
57.73051699999999
10
182.1811444
20
57.73018679999999
10
182.1811698
20
57.729907399999995
10
182.18546239999998
20
57.6783708
10
182.1882818
20
57.6267072
10
182.1883326
20
57.626123
10
182.1884088
20
57.625488
10
182.19165999999998
20
57.6044314
10
182.1934126
20
57.583222400000004
10
182.19348879999998
20
57.582587399999994
10
182.1935904
20
57.5820032
10
182.20293759999998
20
57.531127
10
182.21078619999997
20
57.4799968
10
182.2109132
20
57.4793364
10
182.21104019999999
20
57.4787776
10
182.2163234
20
57.45815279999999
10
182.22018419999998
20
57.4372232
10
182.22028579999997
20
57.436639
10
182.2204636
20
57.436004
10
182.2347384
20
57.3862962
10
182.24756539999998
20
57.336182
10
182.24774319999997
20
57.335597799999995
10
182.2479464
20
57.335013599999996
10
182.25523619999998
20
57.31499839999999
10
182.26110359999998
20
57.2945514
10
182.26125599999997
20
57.2940434
10
182.26151
20
57.2933576
10
182.2805854
20
57.245300799999995
10
182.2982892
20
57.19668519999999
10
182.2984924
20
57.19612639999999
10
182.2987718
20
57.1955422
10
182.3079666
20
57.1763398
10
182.31581519999997
20
57.1565532
10
182.3160438
20
57.156045199999994
10
182.3163486
20
57.155435600000004
10
182.34004679999998
20
57.109461599999996
10
182.3623988
20
57.062827199999994
10
182.3627036
20
57.0622176
10
182.36300839999998
20
57.061735
10
182.374032
20
57.04352319999999
10
182.38381099999998
20
57.024600199999995
10
182.3840904
20
57.02409219999999
10
182.38442059999997
20
57.0235334
10
182.412513
20
56.98009939999999
10
182.4393608
20
56.935877999999995
10
182.43966559999998
20
56.93539539999999
10
182.4400466
20
56.934861999999995
10
182.4528228
20
56.9178186
10
182.4643798
20
56.89996239999999
10
182.4647608
20
56.899429
10
182.46511639999997
20
56.8989464
10
182.4973236
20
56.85848419999999
10
182.5283624
20
56.81710759999999
10
182.5287942
20
56.8165488
10
182.5291498
20
56.8161424
10
182.54355159999997
20
56.8004452
10
182.5568104
20
56.7838082
10
182.5571914
20
56.7833256
10
182.5576232
20
56.78286839999999
10
182.5936658
20
56.74575899999999
10
182.6285908
20
56.707608199999996
10
182.6289718
20
56.7072272
10
182.62947979999998
20
56.7067446
10
182.6453294
20
56.692520599999995
10
182.66016299999998
20
56.6772552
10
182.66062019999998
20
56.676798
10
182.66107739999998
20
56.676417
10
182.7005744
20
56.64301599999999
10
182.73908079999998
20
56.608472
10
182.73951259999998
20
56.608090999999995
10
182.74004599999998
20
56.60768459999999
10
182.7572164
20
56.595111599999996
10
182.77344699999998
20
56.581370199999995
10
182.7740058
20
56.5809384
10
182.7744376
20
56.5806082
10
182.81703339999999
20
56.551245800000004
10
182.8587402
20
56.5206642
10
182.85924819999997
20
56.520283199999994
10
182.8597816
20
56.519952999999994
10
182.878095
20
56.5091326
10
182.89562099999998
20
56.497042199999996
10
182.8961798
20
56.4966612
10
182.8966624
20
56.4963818
10
182.9419252
20
56.471337399999996
10
182.986426
20
56.4449722
10
182.9869594
20
56.44466739999999
10
182.98754359999998
20
56.444388
10
183.0068222
20
56.435396399999995
10
183.0254404
20
56.425084
10
183.025923
20
56.42482999999999
10
183.026558
20
56.4245252
10
183.07405599999998
20
56.4040528
10
183.120919
20
56.3821834
10
183.12150319999998
20
56.3819294
10
183.1220874
20
56.381700800000004
10
183.1421534
20
56.374639599999995
10
183.16171139999997
20
56.3662068
10
183.1622194
20
56.36600359999999
10
183.16287979999998
20
56.365775
10
183.21213039999998
20
56.350027
10
183.2609238
20
56.3328566
10
183.2615334
20
56.3326788
10
183.26211759999998
20
56.3325264
10
183.2827932
20
56.3274464
10
183.3030878
20
56.320969399999996
10
183.303672
20
56.32079159999999
10
183.3042816
20
56.3206646
10
183.354853
20
56.309818799999995
10
183.40509419999998
20
56.2975252
10
183.4058054
20
56.2973728
10
183.4063134
20
56.2972712
10
183.4273954
20
56.294273999999994
10
183.448198
20
56.28980359999999
10
183.4488076
20
56.289702
10
183.4494426
20
56.2896004
10
183.5008268
20
56.283783799999995
10
183.55203319999998
20
56.2764686
10
183.5525412
20
56.2764178
10
183.5532778
20
56.276341599999995
10
183.5745376
20
56.2754272
10
183.5956958
20
56.27301419999999
10
183.59620379999998
20
56.2729888
10
183.5969404
20
56.27293799999999
10
183.64865479999997
20
56.272176
10
183.7003184
20
56.2699154
10
183.7006232
20
56.2699154
10
183.70095339999997
20
56.2699154
10
186.5305134
20
56.285155399999994
10
186.5309452
20
56.285155399999994
10
186.531123
20
56.2851808
10
186.6005412
20
56.2889654
10
186.66998479999998
20
56.292369
10
186.6706706
20
56.2924198
10
186.6712294
20
56.292496
10
186.67465839999997
20
56.293004
10
186.67811279999998
20
56.2931818
10
186.67869699999997
20
56.293232599999996
10
186.679332
20
56.2933088
10
186.7480644
20
56.30387519999999
10
186.8168222
20
56.31408599999999
10
186.81743179999998
20
56.3141876
10
186.8180668
20
56.314339999999994
10
186.8213942
20
56.3151782
10
186.8248232
20
56.3156862
10
186.82548359999998
20
56.315813199999994
10
186.82604239999998
20
56.3159402
10
186.8934032
20
56.33321219999999
10
186.96084019999998
20
56.35010319999999
10
186.9615006
20
56.350280999999995
10
186.962034
20
56.3504588
10
186.96528519999998
20
56.351627199999996
10
186.968638
20
56.3524654
10
186.9692222
20
56.3526432
10
186.96980639999998
20
56.3528464
10
187.03516059999998
20
56.376620800000005
10
187.10061639999998
20
56.40003959999999
10
187.10122599999997
20
56.4002936
10
187.1017594
20
56.40052219999999
10
187.1048836
20
56.4019954
10
187.1081348
20
56.40318919999999
10
187.10869359999998
20
56.4033924
10
187.1092778
20
56.40367179999999
10
187.17196499999997
20
56.433719999999994
10
187.23483
20
56.463463399999995
10
187.23538879999998
20
56.4637428
10
187.2359222
20
56.464047599999994
10
187.238894
20
56.465825599999995
10
187.2419928
20
56.467298799999995
10
187.2426024
20
56.4676036
10
187.243085
20
56.46790839999999
10
187.30254639999998
20
56.50397639999999
10
187.3621602
20
56.5397142
10
187.3626174
20
56.539993599999995
10
187.3632016
20
56.5404
10
187.3659702
20
56.5424574
10
187.368942
20
56.544260799999996
10
187.3694246
20
56.54456559999999
10
187.36995799999997
20
56.5449466
10
187.425584
20
56.5866788
10
187.4814386
20
56.6280808
10
187.4818958
20
56.6284364
10
187.4824038
20
56.6288682
10
187.4849438
20
56.631205
10
187.4877124
20
56.63326239999999
10
187.48827119999999
20
56.6336942
10
187.4886776
20
56.6340498
10
187.53993479999997
20
56.68103979999999
10
187.591446
20
56.727725
10
187.5919032
20
56.728156799999994
10
187.592335
20
56.728614
10
187.5946464
20
56.731154
10
187.59721179999997
20
56.73349079999999
10
187.5975928
20
56.7338718
10
187.5980754
20
56.73437979999999
10
187.64450659999997
20
56.786145
10
187.69119179999998
20
56.837656200000005
10
187.69162359999999
20
56.838164199999994
10
187.6919792
20
56.8386214
10
187.69403659999998
20
56.84139
10
187.69634799999997
20
56.8439808
10
187.696729
20
56.8444126
10
187.69713539999998
20
56.84494599999999
10
187.7382326
20
56.901003800000005
10
187.77965999999998
20
56.956858399999994
10
187.78006639999998
20
56.95744259999999
10
187.7803458
20
56.95789979999999
10
187.7821238
20
56.9608462
10
187.78415579999998
20
56.96364019999999
10
187.78453679999998
20
56.9641482
10
187.784867
20
56.96468159999999
10
187.82027459999998
20
57.024498599999994
10
187.8560124
20
57.08413779999999
10
187.85631719999998
20
57.0846712
10
187.8565966
20
57.08523
10
187.85809519999998
20
57.0883542
10
187.85984779999998
20
57.091325999999995
10
187.8601526
20
57.09185939999999
10
187.860432
20
57.092443599999996
10
187.88981979999997
20
57.155435600000004
10
187.91953779999997
20
57.2183006
10
187.9197664
20
57.218833999999994
10
187.92002039999997
20
57.21944359999999
10
187.92118879999998
20
57.22269479999999
10
187.92263659999998
20
57.225818999999994
10
187.9228906
20
57.22640319999999
10
187.92311919999997
20
57.2269874
10
187.9461824
20
57.29257019999999
10
187.9696012
20
57.358025999999995
10
187.969779
20
57.358559400000004
10
187.9699568
20
57.35921979999999
10
187.970795
20
57.3625726
10
187.9719634
20
57.3658238
10
187.97214119999998
20
57.3664334
10
187.97229359999997
20
57.3670176
10
187.98882899999998
20
57.434556199999996
10
188.00571999999997
20
57.501993199999994
10
188.0058724
20
57.5026282
10
188.005974
20
57.5032378
10
188.006482
20
57.5066414
10
188.0072948
20
57.509994199999994
10
188.0074472
20
57.51070539999999
10
188.0075488
20
57.511213399999995
10
188.0173786
20
57.5800474
10
188.02756399999998
20
57.648830600000004
10
188.0276402
20
57.649389400000004
10
188.02769099999998
20
57.650075199999996
10
188.0278688
20
57.6535042
10
188.0283514
20
57.6569332
10
188.0284022
20
57.6574412
10
188.02847839999998
20
57.6581778
10
188.031501
20
57.7276214
10
188.03490459999998
20
57.797065
10
188.03492999999997
20
57.797445999999994
10
188.03492999999997
20
57.7977
10
188.03492999999997
20
64.89192
10
188.03492999999997
20
64.892174
10
188.03490459999998
20
64.892555
10
188.03208519999998
20
64.9501368
10
188.0304596
20
65.0077694
10
188.03043419999997
20
65.0084552
10
188.0303834
20
65.00901400000001
10
188.02845299999998
20
65.0242286
10
188.02769099999998
20
65.03954479999999
10
188.0276402
20
65.0402306
10
188.02756399999998
20
65.0407894
10
188.01910579999998
20
65.0978378
10
188.01184139999998
20
65.1550386
10
188.01176519999999
20
65.1556228
10
188.0116382
20
65.15625779999999
10
188.0082346
20
65.1712184
10
188.005974
20
65.1863822
10
188.0058724
20
65.1869918
10
188.00571999999997
20
65.18762679999999
10
187.9917246
20
65.24355759999999
10
187.9788976
20
65.2997678
10
187.9787198
20
65.3004028
10
187.978542
20
65.3009616
10
187.9736906
20
65.31551579999999
10
187.9699568
20
65.3304002
10
187.969779
20
65.3310606
10
187.9696012
20
65.331594
10
187.9501702
20
65.3858738
10
187.9319076
20
65.44055999999999
10
187.93165359999998
20
65.4412204
10
187.9314504
20
65.44172839999999
10
187.9251766
20
65.4557238
10
187.92002039999997
20
65.4701764
10
187.9197664
20
65.47078599999999
10
187.91953779999997
20
65.4713194
10
187.8948744
20
65.5234402
10
187.8713286
20
65.57609439999999
10
187.8710746
20
65.5766278
10
187.87076979999998
20
65.5771866
10
187.8631752
20
65.5905216
10
187.8565966
20
65.60439
10
187.85631719999998
20
65.6049488
10
187.8560124
20
65.6054822
10
187.8263706
20
65.65493599999999
10
187.7977702
20
65.7050248
10
187.7974146
20
65.705609
10
187.7971098
20
65.7060662
10
187.7882452
20
65.7185884
10
187.7803458
20
65.7317202
10
187.78006639999998
20
65.7321774
10
187.77965999999998
20
65.73276159999999
10
187.74531919999998
20
65.7790912
10
187.7119436
20
65.82610659999999
10
187.71153719999998
20
65.82664
10
187.71118159999997
20
65.8270972
10
187.7011232
20
65.8386796
10
187.6919792
20
65.8509986
10
187.69162359999999
20
65.8514558
10
187.69119179999998
20
65.8519638
10
187.65245679999998
20
65.89468659999999
10
187.61463619999998
20
65.9382222
10
187.6142298
20
65.9386794
10
187.6137726
20
65.9391112
10
187.6026474
20
65.94965219999999
10
187.592335
20
65.961006
10
187.5919032
20
65.9614632
10
187.591446
20
65.961895
10
187.54872319999998
20
66.00063
10
187.50683859999998
20
66.04022859999999
10
187.50640679999998
20
66.0406096
10
187.50587339999998
20
66.0410414
10
187.49375759999998
20
66.05043939999999
10
187.4824038
20
66.0607518
10
187.4818958
20
66.06118359999999
10
187.4814386
20
66.0615392
10
187.43510899999998
20
66.09588
10
187.38954139999998
20
66.1312114
10
187.3890334
20
66.13156699999999
10
187.3885254
20
66.1319226
10
187.3755206
20
66.140076
10
187.3632016
20
66.14921999999999
10
187.3626174
20
66.14962639999999
10
187.3621602
20
66.1499058
10
187.3127064
20
66.1795476
10
187.2638876
20
66.21023079999999
10
187.26332879999998
20
66.210561
10
187.2627954
20
66.2108404
10
187.24907939999997
20
66.2176984
10
187.2359222
20
66.22557239999999
10
187.23538879999998
20
66.22587719999999
10
187.23483
20
66.2261566
10
187.1827092
20
66.25081999999999
10
187.1310964
20
66.2765756
10
187.1305884
20
66.27680419999999
10
187.12995339999998
20
66.2770836
10
187.11562779999997
20
66.2825446
10
187.1017594
20
66.2890978
10
187.10122599999997
20
66.2893264
10
187.10061639999998
20
66.28958039999999
10
187.0463112
20
66.30901139999999
10
186.99246319999997
20
66.32956
10
186.9917774
20
66.32981399999998
10
186.9912694
20
66.3299664
10
186.9764612
20
66.334005
10
186.962034
20
66.3391612
10
186.9615006
20
66.339339
10
186.96084019999998
20
66.3395168
10
186.90490939999998
20
66.3535376
10
186.8492834
20
66.36872679999999
10
186.84864839999997
20
66.3688792
10
186.84806419999998
20
66.36898079999999
10
186.8329258
20
66.3715716
10
186.8180668
20
66.37527999999999
10
186.81743179999998
20
66.3754324
10
186.8168222
20
66.375534
10
186.7597992
20
66.3839922
10
186.70295399999998
20
66.3936442
10
186.70236979999999
20
66.39374579999999
10
186.7017094
20
66.3937966
10
186.6864186
20
66.39488879999999
10
186.6712294
20
66.39712399999999
10
186.6706706
20
66.39720019999999
10
186.66998479999998
20
66.397251
10
186.61240299999997
20
66.4000704
10
186.554872
20
66.4041344
10
186.55426239999997
20
66.40415979999999
10
186.55362739999998
20
66.40415979999999
10
186.53831119999998
20
66.403728
10
186.52299499999998
20
66.4044646
10
186.52236
20
66.40449
10
186.52172499999998
20
66.4044646
10
186.4641432
20
66.40164519999999
10
186.4065106
20
66.40001960000001
10
186.40582479999998
20
66.3999942
10
186.405266
20
66.3999434
10
186.3900514
20
66.39801299999999
10
186.3747352
20
66.397251
10
186.3740494
20
66.39720019999999
10
186.37349059999997
20
66.39712399999999
10
186.31644219999998
20
66.3886658
10
186.25924139999998
20
66.38140139999999
10
186.2586572
20
66.38132519999999
10
186.2580222
20
66.3811982
10
186.2430616
20
66.3777946
10
186.2278978
20
66.375534
10
186.22728819999998
20
66.3754324
10
186.2266532
20
66.37527999999999
10
186.1707224
20
66.3612846
10
186.11451219999998
20
66.34845759999999
10
186.1138772
20
66.3482798
10
186.11331839999997
20
66.348102
10
186.0987642
20
66.34325059999999
10
186.0838798
20
66.3395168
10
186.0832194
20
66.339339
10
186.082686
20
66.3391612
10
186.0284062
20
66.3197302
10
185.97372
20
66.3014676
10
185.97305959999997
20
66.3012136
10
185.9725516
20
66.3010104
10
185.95855619999998
20
66.2947366
10
185.9441036
20
66.28958039999999
10
185.943494
20
66.2893264
10
185.9429606
20
66.2890978
10
185.89083979999998
20
66.2644344
10
185.83818559999997
20
66.24088859999999
10
185.83765219999998
20
66.2406346
10
185.8370934
20
66.2403298
10
185.8237584
20
66.2327352
10
185.80988999999997
20
66.2261566
10
185.8093312
20
66.22587719999999
10
185.80879779999998
20
66.22557239999999
10
185.759344
20
66.1959306
10
185.7092552
20
66.1673302
10
185.708671
20
66.16697459999999
10
185.70821379999998
20
66.1666698
10
185.69569159999998
20
66.1578052
10
185.68255979999998
20
66.1499058
10
185.68210259999998
20
66.14962639999999
10
185.6815184
20
66.14921999999999
10
185.63518879999998
20
66.1148792
10
185.5881734
20
66.08150359999999
10
185.58764
20
66.0810972
10
185.5871828
20
66.0807416
10
185.57560039999998
20
66.0706832
10
185.56328139999997
20
66.0615392
10
185.5628242
20
66.06118359999999
10
185.56231619999997
20
66.0607518
10
185.5195934
20
66.0220168
10
185.4760578
20
65.9841962
10
185.47580379999997
20
65.983993
10
185.4756006
20
65.9837898
10
184.351803
20
64.906398
10
183.174132
20
64.0668264
10
181.8875712
20
63.407518599999996
10
180.51886679999998
20
62.9420636
10
179.0970764
20
62.6803674
10
177.5419868
20
62.62397939999999
10
177.5416566
20
62.623954
10
177.5413518
20
62.62392859999999
10
177.495327
20
62.6199916
10
177.44917519999998
20
62.617731
10
177.4484894
20
62.6176802
10
177.44793059999998
20
62.61760399999999
10
177.421413
20
62.61366699999999
10
177.39469219999998
20
62.611381
10
177.393981
20
62.6113048
10
177.393473
20
62.61122859999999
10
177.3480324
20
62.602795799999996
10
177.30233779999998
20
62.596014
10
177.30172819999999
20
62.595912399999996
10
177.3010932
20
62.59575999999999
10
177.275109
20
62.589257599999996
10
177.2487438
20
62.58435539999999
10
177.2482104
20
62.5842538
10
177.2475246
20
62.584075999999996
10
177.2031508
20
62.571223599999996
10
177.1583198
20
62.55999679999999
10
177.1576594
20
62.559819000000005
10
177.15712599999998
20
62.5596412
10
177.13190379999998
20
62.550624199999994
10
177.10614819999998
20
62.543156599999996
10
177.1055386
20
62.54297879999999
10
177.1049798
20
62.54275019999999
10
177.06205379999997
20
62.52563059999999
10
177.0185436
20
62.51006039999999
10
177.017934
20
62.509806399999995
10
177.0174006
20
62.509577799999995
10
176.993169
20
62.49812239999999
10
176.96827699999997
20
62.48819099999999
10
176.96766739999998
20
62.487911600000004
10
176.967134
20
62.4876576
10
176.92611300000002
20
62.466397799999996
10
176.88432999999998
20
62.4466366
10
176.88377119999998
20
62.4463572
10
176.8832378
20
62.44605239999999
10
176.8602508
20
62.4322856
10
176.83645099999998
20
62.4199412
10
176.835943
20
62.4196872
10
176.8353588
20
62.41933159999999
10
176.7966238
20
62.3941348
10
176.7569998
20
62.370385799999994
10
176.7565426
20
62.37010639999999
10
176.7559584
20
62.369699999999995
10
176.7344192
20
62.35372339999999
10
176.71194020000002
20
62.33911839999999
10
176.7114068
20
62.3387628
10
176.7109242
20
62.33840719999999
10
176.67483079999997
20
62.3095528
10
176.63772139999998
20
62.28201919999999
10
176.63726419999998
20
62.281663599999995
10
176.63675619999998
20
62.2812318
10
176.61689339999998
20
62.2632232
10
176.5959638
20
62.246484599999995
10
176.5955066
20
62.2461036
10
176.595024
20
62.24567179999999
10
176.5619532
20
62.2134138
10
176.527714
20
62.182375
10
176.5272568
20
62.18194319999999
10
176.52682499999997
20
62.181486
10
176.5088164
20
62.1616486
10
176.489614
20
62.1429288
10
176.4891822
20
62.14247159999999
10
176.48877579999998
20
62.1420144
10
176.45900699999999
20
62.106683
10
176.42796819999998
20
62.072443799999995
10
176.4275364
20
62.07193579999999
10
176.4271808
20
62.0714786
10
176.4112042
20
62.0499394
10
176.3939576
20
62.0294416
10
176.3935258
20
62.028933599999995
10
176.39319559999998
20
62.028451
10
176.3670336
20
61.99035099999999
10
176.3395
20
61.9532416
10
176.3390936
20
61.95265739999999
10
176.33881419999997
20
61.95220019999999
10
176.325022
20
61.9292132
10
176.3098582
20
61.9071152
10
176.309528
20
61.9066326
10
176.3091978
20
61.9060738
10
176.28689659999998
20
61.865586199999996
10
176.2631476
20
61.82596219999999
10
176.2628428
20
61.8254288
10
176.2625634
20
61.82487
10
176.2510826
20
61.8006384
10
176.23815399999998
20
61.7771688
10
176.2378746
20
61.77661
10
176.2375952
20
61.77602579999999
10
176.21938339999997
20
61.733582399999996
10
176.1996222
20
61.6917994
10
176.19939359999998
20
61.69126599999999
10
176.1991396
20
61.690656399999995
10
176.1901226
20
61.665408799999994
10
176.17953079999998
20
61.6407962
10
176.1793276
20
61.64028819999999
10
176.17909899999998
20
61.63962779999999
10
176.165129
20
61.5955842
10
176.1495588
20
61.55207399999999
10
176.14938099999998
20
61.551540599999996
10
176.1492032
20
61.550880199999995
10
176.1426754
20
61.52487059999999
10
176.1345728
20
61.4993182
10
176.13439499999998
20
61.4987086
10
176.1342426
20
61.498124399999995
10
176.12466679999997
20
61.452912399999995
10
176.11344
20
61.40810679999999
10
176.1132876
20
61.407471799999996
10
176.11318599999998
20
61.4068622
10
176.109249
20
61.38037
10
176.1036864
20
61.3541318
10
176.1035594
20
61.35347139999999
10
176.10348319999997
20
61.352912599999996
10
176.09837779999998
20
61.30698939999999
10
176.09159599999998
20
61.261269399999996
10
176.0915198
20
61.260710599999996
10
176.091469
20
61.26002479999999
10
176.0901482
20
61.23325319999999
10
176.08717639999998
20
61.206633999999994
10
176.0871256
20
61.205999
10
176.08710019999998
20
61.205389399999994
10
176.086516
20
61.1591868
10
176.0842554
20
61.113034999999996
10
176.08423
20
61.1124
10
176.0842554
20
61.111765
10
176.0855508
20
61.084993399999995
0
LWPOLYLINE
5
6C
330
5D
100
AcDbEntity
100
AcDbPolyline
8
0
6
ByLayer
62
256
370
-1
90
74
70
1
10
162.305365
20
94.7293254
10
162.305365
20
94.7293254
10
162.30599999999998
20
94.7293
10
172.974
20
94.7293
10
172.974635
20
94.7293254
10
172.97587959999998
20
94.7294524
10
172.9770988
20
94.729681
10
172.9782926
20
94.73003659999999
10
172.9794356
20
94.73051919999999
10
172.9805278
20
94.7311034
10
172.9815692
20
94.73181459999999
10
172.9825344
20
94.73260199999999
10
172.983398
20
94.7334656
10
172.98418539999997
20
94.7344308
10
172.98489659999998
20
94.73547219999999
10
172.98548079999998
20
94.73656439999999
10
172.98596339999997
20
94.73770739999999
10
172.98631899999998
20
94.73890119999999
10
172.9865476
20
94.7401204
10
172.9866746
20
94.741365
10
172.98669999999998
20
94.74199999999999
10
172.98669999999998
20
97.78999999999999
10
172.9866746
20
97.790635
10
172.9865476
20
97.7918796
10
172.98631899999998
20
97.7930988
10
172.98596339999997
20
97.7942926
10
172.98548079999998
20
97.79543559999999
10
172.98489659999998
20
97.79652779999999
10
172.98418539999997
20
97.7975692
10
172.983398
20
97.7985344
10
172.9825344
20
97.799398
10
172.9815692
20
97.8001854
10
172.9805278
20
97.8008966
10
172.9794356
20
97.8014808
10
172.9782926
20
97.8019634
10
172.9770988
20
97.802319
10
172.97587959999998
20
97.8025476
10
172.974635
20
97.8026746
10
172.974
20
97.80269999999999
10
162.30599999999998
20
97.80269999999999
10
162.305365
20
97.8026746
10
162.3041204
20
97.8025476
10
162.3029012
20
97.802319
10
162.3017074
20
97.8019634
10
162.30056439999998
20
97.8014808
10
162.2994722
20
97.8008966
10
162.29843079999998
20
97.8001854
10
162.29746559999998
20
97.799398
10
162.296602
20
97.7985344
10
162.29581459999997
20
97.7975692
10
162.2951034
20
97.79652779999999
10
162.29451919999997
20
97.79543559999999
10
162.29403659999997
20
97.7942926
10
162.293681
20
97.7930988
10
162.29345239999998
20
97.7918796
10
162.2933254
20
97.790635
10
162.2933
20
97.78999999999999
10
162.2933
20
94.74199999999999
10
162.2933254
20
94.741365
10
162.29345239999998
20
94.7401204
10
162.293681
20
94.73890119999999
10
162.29403659999997
20
94.73770739999999
10
162.29451919999997
20
94.73656439999999
10
162.2951034
20
94.73547219999999
10
162.29581459999997
20
94.7344308
10
162.296602
20
94.7334656
10
162.29746559999998
20
94.73260199999999
10
162.29843079999998
20
94.73181459999999
10
162.2994722
20
94.7311034
10
162.30056439999998
20
94.73051919999999
10
162.3017074
20
94.73003659999999
10
162.3029012
20
94.729681
10
162.3041204
20
94.7294524
10
162.305365
20
94.7293254
0
ENDSEC
0
SECTION
2
OBJECTS
0
DICTIONARY
5
4D
330
0
100
AcDbDictionary
281
1
3
ACAD_GROUP
350
61
0
DICTIONARY
5
61
330
4D
100
AcDbDictionary
281
1
0
ENDSEC
0
EOF