0
SECTION
2
HEADER
9
$HANDSEED
5
4D
9
$INSUNITS
70
4
9
$ACADVER
1
AC1021
0
ENDSEC
0
SECTION
2
CLASSES
0
ENDSEC
0
SECTION
2
TABLES
0
TABLE
2
LTYPE
5
4B
330
0
100
AcDbSymbolTable
70
7
0
LTYPE
5
28
330
4B
100
AcDbSymbolTableRecord
100
AcDbLinetypeTableRecord
2
CONTINUOUS
3
______
70
0
72
65
73
0
40
0
0
LTYPE
5
29
330
4B
100
AcDbSymbolTableRecord
100
AcDbLinetypeTableRecord
2
DASHED
3
_ _ _ 
70
0
72
65
73
2
40
10
49
5
74
0
49
-5
74
0
0
LTYPE
5
2A
330
4B
100
AcDbSymbolTableRecord
100
AcDbLinetypeTableRecord
2
DOTTED
3
. . . 
70
0
72
65
73
2
40
5
49
0
74
0
49
-5
74
0
0
LTYPE
5
2C
330
4B
100
AcDbSymbolTableRecord
100
AcDbLinetypeTableRecord
2
ByBlock
3

70
0
72
65
73
0
40
0
0
LTYPE
5
2D
330
4B
100
AcDbSymbolTableRecord
100
AcDbLinetypeTableRecord
2
ByLayer
3

70
0
72
65
73
0
40
0
0
LTYPE
5
3C
330
4B
100
AcDbSymbolTableRecord
100
AcDbLinetypeTableRecord
2
DASHDOT
3
Dash dot
70
0
72
65
73
4
40
10.5
49
6
74
0
49
-2
74
0
49
0.5
74
0
49
-2
74
0
0
LTYPE
5
3D
330
4B
100
AcDbSymbolTableRecord
100
AcDbLinetypeTableRecord
2
CENTER
3
Center
70
0
72
65
73
4
40
13.5
49
8
74
0
49
-2
74
0
49
1.5
74
0
49
-2
74
0
0
ENDTAB
0
TABLE
2
LAYER
5
4C
330
0
100
AcDbSymbolTable
70
1
0
LAYER
5
3E
330
4C
100
AcDbSymbolTableRecord
100
AcDbLayerTableRecord
2
0
420
16777215
70
0
6
CONTINUOUS
390
1
0
ENDTAB
0
TABLE
2
VPORT
5
2E
330
0
100
AcDbSymbolTable
70
1
0
VPORT
5
34
330
2E
100
AcDbSymbolTableRecord
100
AcDbViewportTableRecord
2
*ACTIVE
40
1000
70
0
0
ENDTAB
0
TABLE
2
STYLE
5
2F
330
0
100
AcDbSymbolTable
70
1
0
STYLE
5
35
330
2F
100
AcDbSymbolTableRecord
100
AcDbTextStyleTableRecord
2
standard
70
0
40
0
41
1
50
0
71
0
42
1
3
txt
4

0
ENDTAB
0
TABLE
2
VIEW
5
30
330
0
100
AcDbSymbolTable
70
0
0
ENDTAB
0
TABLE
2
UCS
5
31
330
0
100
AcDbSymbolTable
70
0
0
ENDTAB
0
TABLE
2
APPID
5
32
330
0
100
AcDbSymbolTable
70
1
0
APPID
5
36
330
32
100
AcDbSymbolTableRecord
100
AcDbRegAppTableRecord
2
ACAD
70
0
0
ENDTAB
0
TABLE
2
DIMSTYLE
5
33
330
0
100
AcDbSymbolTable
100
AcDbDimStyleTable
70
0
71
1
0
ENDTAB
0
TABLE
2
BLOCK_RECORD
5
48
330
0
100
AcDbSymbolTable
70
2
0
BLOCK_RECORD
5
49
330
48
100
AcDbSymbolTableRecord
100
AcDbBlockTableRecord
2
*Model_Space
70
0
280
0
281
1
0
BLOCK_RECORD
5
4A
330
48
100
AcDbSymbolTableRecord
100
AcDbBlockTableRecord
2
*Paper_Space
70
0
280
0
281
1
0
ENDTAB
0
ENDSEC
0
SECTION
2
BLOCKS
0
BLOCK
5
37
330
0
100
AcDbEntity
100
AcDbBlockBegin
2
*Model_Space
70
0
10
0
20
0
30
0
3
*Model_Space
1

0
ENDBLK
5
38
330
0
100
AcDbEntity
100
AcDbBlockEnd
0
BLOCK
5
39
330
0
100
AcDbEntity
100
AcDbBlockBegin
2
*Paper_Space
70
0
10
0
20
0
30
0
3
*Paper_Space
1

0
ENDBLK
5
3A
330
0
100
AcDbEntity
100
AcDbBlockEnd
0
ENDSEC
0
SECTION
2
ENTITIES
0
LWPOLYLINE
5
3F
330
37
100
AcDbEntity
100
AcDbPolyline
8
0
6
ByLayer
62
256
370
-1
90
112
70
1
10
131.826
20
-0.2667
10
253.82474
20
-0.2667
10
253.8259846
20
-0.2666492
10
253.82722919999998
20
-0.26644599999999996
10
253.828423
20
-0.26614119999999997
10
253.82959139999997
20
-0.2657348
10
253.83073439999998
20
-0.2652014
10
253.83180119999997
20
-0.2645664
10
253.8327918
20
-0.2638298
10
253.8337316
20
-0.2629916
10
253.8345698
20
-0.2620518
10
253.83530639999998
20
-0.2610612
10
253.8359414
20
-0.2599944
10
253.8364748
20
-0.2588514
10
253.83688119999997
20
-0.257683
10
253.83718599999997
20
-0.2564892
10
253.8373892
20
-0.2552446
10
253.83744000000002
20
-0.254
10
253.83744000000002
20
46.941613
10
253.84592359999996
20
46.9919304
10
253.84599980000002
20
46.9924892
10
253.84607599999998
20
46.993175
10
253.85615979999997
20
47.140012399999996
10
253.8562106
20
47.140622
10
253.8561852
20
47.141256999999996
10
253.8518672
20
47.28839919999999
10
253.8518672
20
47.2885262
10
253.8518164
20
47.2890088
10
253.83744000000002
20
47.4718126
10
253.83744000000002
20
66.503931
10
253.8418596
20
66.5614112
10
253.84188499999996
20
66.5618684
10
253.8419104
20
66.5620462
10
253.8459744
20
66.70918839999999
10
253.8459744
20
66.70979799999999
10
253.845949
20
66.710433
10
253.83744000000002
20
66.8311846
10
253.83744000000002
20
67.482593
10
253.84592359999996
20
67.53291039999999
10
253.84599980000002
20
67.5334692
10
253.84607599999998
20
67.534155
10
253.85615979999997
20
67.6809924
10
253.8562106
20
67.681602
10
253.8561852
20
67.682237
10
253.8518672
20
67.82937919999999
10
253.8518672
20
67.8295062
10
253.8518164
20
67.8299888
10
253.83744000000002
20
68.0127926
10
253.83744000000002
20
87.03221099999999
10
253.8418596
20
87.08969119999999
10
253.84188499999996
20
87.09014839999999
10
253.8419104
20
87.09032619999999
10
253.8459744
20
87.2374684
10
253.8459744
20
87.23807799999999
10
253.845949
20
87.23871299999999
10
253.83744000000002
20
87.3594646
10
253.83744000000002
20
88.18966359999999
10
253.83771939999997
20
88.19299099999999
10
253.8377702
20
88.1936768
10
253.8377702
20
88.194261
10
253.83744000000002
20
88.2182132
10
253.83744000000002
20
97.74682
10
253.8373892
20
97.74806459999999
10
253.83718599999997
20
97.7493092
10
253.83688119999997
20
97.750503
10
253.8364748
20
97.75167139999999
10
253.8359414
20
97.7528144
10
253.83530639999998
20
97.7538812
10
253.8345698
20
97.75487179999999
10
253.8337316
20
97.75581159999999
10
253.8327918
20
97.75664979999999
10
253.83180119999997
20
97.7573864
10
253.83073439999998
20
97.75802139999999
10
253.82959139999997
20
97.75855479999998
10
253.828423
20
97.75896119999999
10
253.82722919999998
20
97.759266
10
253.8259846
20
97.7594692
10
253.82474
20
97.75952
10
131.826
20
97.75952
10
131.8247554
20
97.7594692
10
131.82351079999998
20
97.759266
10
131.822317
20
97.75896119999999
10
131.82114860000001
20
97.75855479999998
10
131.8200056
20
97.75802139999999
10
131.81893879999998
20
97.7573864
10
131.8179482
20
97.75664979999999
10
131.8170084
20
97.75581159999999
10
131.8161702
20
97.75487179999999
10
131.8154336
20
97.7538812
10
131.8147986
20
97.7528144
10
131.8142652
20
97.75167139999999
10
131.8138588
20
97.750503
10
131.813554
20
97.7493092
10
131.8133508
20
97.74806459999999
10
131.8133
20
97.74682
10
131.8133
20
-0.254
10
131.8133508
20
-0.2552446
10
131.813554
20
-0.2564892
10
131.8138588
20
-0.257683
10
131.8142652
20
-0.2588514
10
131.8147986
20
-0.2599944
10
131.8154336
20
-0.2610612
10
131.8161702
20
-0.2620518
10
131.8170084
20
-0.2629916
10
131.8179482
20
-0.2638298
10
131.81893879999998
20
-0.2645664
10
131.8200056
20
-0.2652014
10
131.82114860000001
20
-0.2657348
10
131.822317
20
-0.26614119999999997
10
131.82351079999998
20
-0.26644599999999996
10
131.8247554
20
-0.2666492
10
131.826
20
-0.2667
0
LWPOLYLINE
5
40
330
37
100
AcDbEntity
100
AcDbPolyline
8
0
6
ByLayer
62
256
370
-1
90
2950
70
1
10
134.83844
20
33.582356
10
134.84397719999998
20
33.5583022
10
134.8441042
20
33.5576418
10
134.8441804
20
33.5570576
10
134.86292559999998
20
33.41108379999999
10
134.86295099999998
20
33.4107536
10
134.8629764
20
33.4104488
10
134.9737204
20
32.0033396
10
135.27544699999999
20
30.7465984
10
135.7700358
20
29.5525444
10
136.4453202
20
28.4505654
10
137.28468859999998
20
27.4677886
10
138.2674654
20
26.628420199999997
10
139.3694444
20
25.9531358
10
140.5634984
20
25.458547
10
141.82023959999998
20
25.1568204
10
143.168116
20
25.050749999999997
10
156.08589560000001
20
25.050749999999997
10
155.86227399999999
20
26.311707600000002
10
155.42778159999997
20
27.600909999999995
10
154.80604039999997
20
28.810991399999995
10
154.01066479999997
20
29.915307199999997
10
152.98107579999999
20
30.9705502
10
152.9809234
20
30.9707026
10
152.98064399999998
20
30.971007399999998
10
152.9615178
20
30.9926228
10
152.9411724
20
31.0130952
10
152.94091840000002
20
31.013323800000002
10
152.9407406
20
31.013526999999996
10
151.4679978
20
32.6456294
10
151.4677946
20
32.645858
10
151.46746439999998
20
32.6462644
10
151.3452142
20
32.801128199999994
10
151.34493479999998
20
32.8014584
10
151.3447062
20
32.8017886
10
150.0989632
20
34.613088
10
150.0987092
20
34.6134436
10
150.098506
20
34.6137738
10
149.9976426
20
34.783318799999996
10
149.997414
20
34.7837506
10
149.99723619999997
20
34.7840554
10
148.9999814
20
36.743157399999994
10
148.99977819999998
20
36.7435384
10
148.9996258
20
36.7439194
10
148.9218764
20
36.9252246
10
148.92172399999998
20
36.925656399999994
10
148.9215716
20
36.926012
10
148.19005159999998
20
38.999058399999996
10
148.18994999999998
20
38.9993632
10
148.1897976
20
38.9998458
10
148.1365338
20
39.189786999999995
10
148.1364068
20
39.1903204
10
148.13633059999998
20
39.1905998
10
147.6831946
20
41.3417258
10
147.68311839999998
20
41.3422084
10
147.6830676
20
41.3425386
10
147.65517839999998
20
41.5378392
10
147.6551276
20
41.5382964
10
147.6551022
20
41.538652
10
147.53521419999998
20
43.113223399999995
10
147.52066
20
43.17131319999999
10
147.5205076
20
43.171948199999996
10
147.520406
20
43.1725578
10
147.49881599999998
20
43.318150599999996
10
147.4987398
20
43.318709399999996
10
147.49868899999998
20
43.319395199999995
10
147.49147539999998
20
43.466385
10
147.49145
20
43.466766
10
147.49145
20
43.46702
10
147.49145
20
43.6878984
10
147.4881988
20
43.7306466
10
147.4881734
20
43.730926
10
147.4881734
20
43.7311292
10
147.48382999999998
20
43.8449974
10
147.48382999999998
20
43.845479999999995
10
147.48385539999998
20
43.846115
10
147.49106899999998
20
43.9931048
10
147.49111979999998
20
43.9937906
10
147.49119599999997
20
43.9943494
10
147.49145
20
43.99610199999999
10
147.49145
20
47.1021156
10
147.385913
20
47.150782
10
147.385405
20
47.1510106
10
147.385024
20
47.1512392
10
147.28225559999998
20
47.2087702
10
147.28202699999997
20
47.2088972
10
147.28182379999998
20
47.209024199999995
10
147.2070716
20
47.2548458
10
147.2068938
20
47.2549474
10
147.2066398
20
47.255099799999996
10
147.10872279999998
20
47.3205302
10
147.10836719999998
20
47.3207842
10
147.10790999999998
20
47.3211398
10
147.01542859999998
20
47.3940378
10
147.0151746
20
47.39426639999999
10
147.0150476
20
47.3943426
10
146.9483726
20
47.45128939999999
10
146.94829639999998
20
47.451365599999995
10
146.9479916
20
47.45164499999999
10
146.86153
20
47.5315788
10
146.86114899999998
20
47.531909
10
146.86081879999998
20
47.532289999999996
10
146.780885
20
47.618751599999996
10
146.78060559999997
20
47.6190564
10
146.7805294
20
47.61913259999999
10
146.72358260000001
20
47.6858076
10
146.7235064
20
47.685934599999996
10
146.72327779999998
20
47.6861886
10
146.6503798
20
47.77867
10
146.6500242
20
47.7791272
10
146.6497702
20
47.7794828
10
146.58433979999998
20
47.8773998
10
146.5841874
20
47.8776538
10
146.5840858
20
47.8778316
10
146.5382642
20
47.95258379999999
10
146.5381372
20
47.952786999999994
10
146.53801019999997
20
47.9530156
10
146.4804792
20
48.055784
10
146.48025059999998
20
48.05616499999999
10
146.480022
20
48.056672999999996
10
146.4307206
20
48.16360699999999
10
146.4306444
20
48.163784799999995
10
146.43051739999999
20
48.1640642
10
146.396964
20
48.2450902
10
146.396964
20
48.2450902
10
146.39678619999998
20
48.2455474
10
146.3560192
20
48.3560374
10
146.3558414
20
48.3565708
10
146.35571439999998
20
48.356977199999996
10
146.32373579999998
20
48.47033739999999
10
146.32368499999998
20
48.47054059999999
10
146.3236088
20
48.47082
10
146.3031364
20
48.55608779999999
10
146.3030602
20
48.556417999999994
10
146.30303479999998
20
48.5565704
10
146.2800478
20
48.672064199999994
10
146.27999699999998
20
48.6724452
10
146.27989540000002
20
48.673054799999996
10
146.26605239999998
20
48.7900218
10
146.266027
20
48.790199599999994
10
146.2660016
20
48.790504399999996
10
146.2591436
20
48.8779312
10
146.2591182
20
48.8782614
10
146.2590928
20
48.8784138
10
146.25447
20
48.996092
10
146.25447
20
48.9966
10
146.25447
20
48.997108
10
146.2590928
20
49.1147862
10
146.2591182
20
49.114938599999995
10
146.2591436
20
49.115268799999996
10
146.2660016
20
49.2026956
10
146.266027
20
49.20300039999999
10
146.26605239999998
20
49.203178199999996
10
146.27989540000002
20
49.3201452
10
146.27999699999998
20
49.320754799999996
10
146.2800478
20
49.3211358
10
146.30303479999998
20
49.436629599999996
10
146.3030602
20
49.436781999999994
10
146.3031364
20
49.437112199999994
10
146.3236088
20
49.52238
10
146.32368499999998
20
49.522659399999995
10
146.32373579999998
20
49.522862599999996
10
146.35571439999998
20
49.6362228
10
146.3558414
20
49.6366292
10
146.3560192
20
49.637162599999996
10
146.39678619999998
20
49.747652599999995
10
146.396964
20
49.7481098
10
146.43051739999999
20
49.8291358
10
146.4306444
20
49.8294152
10
146.4307206
20
49.829592999999996
10
146.480022
20
49.936527
10
146.48025059999998
20
49.937034999999995
10
146.4804792
20
49.937416
10
146.53801019999997
20
50.040184399999994
10
146.5381372
20
50.040412999999994
10
146.5382642
20
50.040616199999995
10
146.5840858
20
50.1153684
10
146.5841874
20
50.1155462
10
146.58433979999998
20
50.115800199999995
10
146.6497702
20
50.2137172
10
146.6500242
20
50.2140728
10
146.6503798
20
50.214529999999996
10
146.72327779999998
20
50.3070114
10
146.7235064
20
50.3072654
10
146.72358260000001
20
50.3073924
10
146.7805294
20
50.374067399999994
10
146.78060559999997
20
50.3741436
10
146.780885
20
50.3744484
10
146.86081879999998
20
50.46091
10
146.86114899999998
20
50.461290999999996
10
146.86153
20
50.461621199999996
10
146.9479916
20
50.541554999999995
10
146.94829639999998
20
50.5418344
10
146.9483726
20
50.541910599999994
10
147.0150476
20
50.5988574
10
147.0151746
20
50.598933599999995
10
147.01542859999998
20
50.599162199999995
10
147.10790999999998
20
50.6720602
10
147.10836719999998
20
50.672415799999996
10
147.10872279999998
20
50.6726698
10
147.2066398
20
50.7381002
10
147.2068938
20
50.738252599999996
10
147.2070716
20
50.738354199999996
10
147.28182379999998
20
50.78417579999999
10
147.28202699999997
20
50.7843028
10
147.28225559999998
20
50.7844298
10
147.385024
20
50.841960799999995
10
147.385405
20
50.842189399999995
10
147.385913
20
50.842417999999995
10
147.49145
20
50.8910844
10
147.49145
20
56.598819999999996
10
147.49145
20
56.599073999999995
10
147.49147539999998
20
56.59945499999999
10
147.4918056
20
56.60613519999999
10
147.49152619999998
20
56.6128154
10
147.49152619999998
20
56.61342499999999
10
147.49155159999998
20
56.614059999999995
10
147.4954378
20
56.680226999999995
10
147.49868899999998
20
56.7464448
10
147.4987398
20
56.74713059999999
10
147.49881599999998
20
56.74768939999999
10
147.49978119999997
20
56.75431879999999
10
147.5001876
20
56.76099899999999
10
147.500213
20
56.761278399999995
10
147.50023839999997
20
56.761608599999995
10
147.6991966
20
58.5995018
10
147.6992474
20
58.5999336
10
147.69932359999999
20
58.6004162
10
147.7374998
20
58.81108379999999
10
147.7376268
20
58.81164259999999
10
147.73770299999998
20
58.81197279999999
10
148.1963254
20
60.6027998
10
148.1964778
20
60.6034094
10
148.1965794
20
60.6036888
10
148.26432119999998
20
60.806711
10
148.26447359999997
20
60.8071174
10
148.2646514
20
60.80754919999999
10
148.9734892
20
62.514886399999995
10
148.97369239999998
20
62.5153436
10
148.9738702
20
62.5157246
10
149.06983139999997
20
62.707012
10
149.0700092
20
62.7073676
10
149.0702632
20
62.70782479999999
10
150.0148892
20
64.29687419999999
10
150.0150924
20
64.297179
10
150.0153972
20
64.2976362
10
150.1375966
20
64.4733534
10
150.13779979999998
20
64.4736328
10
150.1381554
20
64.4740646
10
151.2993418
20
65.9125174
10
151.2996466
20
65.91287299999999
10
151.299926
20
65.9132032
10
151.44592519999998
20
66.069718
10
151.44630619999998
20
66.0701244
10
151.4465602
20
66.070353
10
152.7024886
20
67.23760999999999
10
152.67906979999998
20
67.3206426
10
152.6789428
20
67.3211252
10
152.6582926
20
67.40715499999999
10
152.65826719999998
20
67.4072058
10
152.6581656
20
67.407663
10
152.635204
20
67.5231568
10
152.6351024
20
67.5237156
10
152.6350516
20
67.5241474
10
152.6212086
20
67.641089
10
152.6211832
20
67.6412922
10
152.6211578
20
67.64159699999999
10
152.6142236
20
67.7298112
10
152.6141982
20
67.7301414
10
152.61417279999998
20
67.7302938
10
152.60955
20
67.847972
10
152.60955
20
67.84848
10
152.60955
20
67.84898799999999
10
152.61417279999998
20
67.96666619999999
10
152.6141982
20
67.9668186
10
152.6142236
20
67.9671488
10
152.6211578
20
68.055363
10
152.6211832
20
68.0556678
10
152.6212086
20
68.055871
10
152.6350516
20
68.17281259999999
10
152.6351024
20
68.1732444
10
152.635204
20
68.1738032
10
152.6581656
20
68.28929699999999
10
152.65826719999998
20
68.28975419999999
10
152.6582926
20
68.289805
10
152.6789428
20
68.3758348
10
152.6789428
20
68.3758348
10
152.67906979999998
20
68.3763174
10
152.71102299999998
20
68.4896522
10
152.7111754
20
68.49013479999999
10
152.7113532
20
68.49061739999999
10
152.75209479999998
20
68.60110739999999
10
152.752171
20
68.6013106
10
152.752298
20
68.60156459999999
10
152.7861562
20
68.6833018
10
152.7862832
20
68.6836066
10
152.78633399999998
20
68.683759
10
152.8356608
20
68.79071839999999
10
152.8358386
20
68.791074
10
152.8360926
20
68.79160739999999
10
152.89364899999998
20
68.8943504
10
152.893776
20
68.89460439999999
10
152.893903
20
68.8947822
10
152.94013099999998
20
68.9702456
10
152.940385
20
68.970652
10
152.9404104
20
68.970652
10
153.0058408
20
69.068569
10
153.0060694
20
69.0689246
10
153.006425
20
69.06938179999999
10
153.079323
20
69.1618632
10
153.0795516
20
69.1621426
10
153.0796532
20
69.1622442
10
153.13710799999998
20
69.2295288
10
153.1374382
20
69.2299098
10
153.217372
20
69.31639679999999
10
153.2177276
20
69.3167524
10
153.2180832
20
69.31710799999999
10
153.30457019999997
20
69.3970418
10
153.30457019999997
20
69.3970418
10
153.3049512
20
69.397372
10
153.3722358
20
69.45482679999999
10
153.3723374
20
69.4549284
10
153.3726168
20
69.455157
10
153.4650982
20
69.528055
10
153.4655554
20
69.5284106
10
153.465911
20
69.52863919999999
10
153.563828
20
69.5940696
10
153.563828
20
69.594095
10
153.5642344
20
69.594349
10
153.6396978
20
69.640577
10
153.63987559999998
20
69.640704
10
153.6401296
20
69.64083099999999
10
153.7428726
20
69.6983874
10
153.743406
20
69.6986414
10
153.7437616
20
69.69881919999999
10
153.850721
20
69.74814599999999
10
153.8508734
20
69.7481968
10
153.8511782
20
69.7483238
10
153.93291539999998
20
69.78218199999999
10
153.9331694
20
69.782309
10
153.93337259999998
20
69.7823852
10
154.04386259999998
20
69.8231268
10
154.0443452
20
69.8233046
10
154.0448278
20
69.82345699999999
10
154.1581626
20
69.8554102
10
154.1586452
20
69.85553719999999
10
154.244675
20
69.87618739999999
10
154.2447258
20
69.87621279999999
10
154.24518299999997
20
69.8763144
10
154.3606768
20
69.89927599999999
10
154.3612356
20
69.8993776
10
154.3616674
20
69.89942839999999
10
154.47860899999998
20
69.9132714
10
154.4788122
20
69.9132968
10
154.479117
20
69.9133222
10
154.56733119999998
20
69.92025639999999
10
154.5676614
20
69.9202818
10
154.56781379999998
20
69.9203072
10
154.68549199999998
20
69.92492999999999
10
154.68599999999998
20
69.92492999999999
10
154.686508
20
69.92492999999999
10
154.8041862
20
69.9203072
10
154.8043386
20
69.9202818
10
154.8046688
20
69.92025639999999
10
154.89288299999998
20
69.9133222
10
154.8931878
20
69.9132968
10
154.89339099999998
20
69.9132714
10
155.0103326
20
69.89942839999999
10
155.0107644
20
69.8993776
10
155.0113232
20
69.89927599999999
10
155.126817
20
69.8763144
10
155.1272742
20
69.87621279999999
10
155.12732499999998
20
69.87618739999999
10
155.2133548
20
69.85553719999999
10
155.2133548
20
69.85553719999999
10
155.2138374
20
69.8554102
10
155.3271722
20
69.82345699999999
10
155.3276548
20
69.8233046
10
155.3281374
20
69.8231268
10
155.4386274
20
69.7823852
10
155.4388306
20
69.782309
10
155.4390846
20
69.78218199999999
10
155.5208218
20
69.7483238
10
155.5211266
20
69.7481968
10
155.521279
20
69.74814599999999
10
155.6282384
20
69.69881919999999
10
155.628594
20
69.6986414
10
155.6291274
20
69.6983874
10
155.7318704
20
69.64083099999999
10
155.73212439999998
20
69.640704
10
155.7323022
20
69.640577
10
155.80776559999998
20
69.594349
10
155.80817199999998
20
69.594095
10
155.80817199999998
20
69.5940696
10
155.906089
20
69.52863919999999
10
155.9064446
20
69.5284106
10
155.9069018
20
69.528055
10
155.9993832
20
69.455157
10
155.9996626
20
69.4549284
10
155.9997642
20
69.45482679999999
10
156.06704879999998
20
69.397372
10
156.06742979999999
20
69.3970418
10
156.119449
20
69.3489596
10
156.3278814
20
69.4530742
10
156.328237
20
69.4532266
10
156.3286942
20
69.4534298
10
156.5265094
20
69.53516699999999
10
156.52691579999998
20
69.53531939999999
10
156.52734759999998
20
69.5354718
10
158.28192879999997
20
70.11763979999999
10
158.28236059999998
20
70.1177922
10
158.2828178
20
70.1179192
10
158.49023419999997
20
70.1706496
10
158.4906914
20
70.1707512
10
158.4911232
20
70.1708274
10
160.310703
20
70.49734439999999
10
160.3111602
20
70.4974206
10
160.311592
20
70.4974714
10
160.5244186
20
70.5201536
10
160.5248758
20
70.520179
10
160.525333
20
70.5202044
10
161.92736219999998
20
70.568947
10
162.0225106
20
70.58304399999999
10
162.02306939999997
20
70.5831202
10
162.02375519999998
20
70.583171
10
162.17074499999998
20
70.5903846
10
162.171126
20
70.59040999999999
10
162.17137999999997
20
70.59040999999999
10
167.25646
20
70.59040999999999
10
167.256714
20
70.59040999999999
10
167.257095
20
70.5903846
10
167.4040848
20
70.583171
10
167.4047706
20
70.5831202
10
167.40532939999997
20
70.58304399999999
10
167.55092219999997
20
70.561454
10
167.5515318
20
70.56135239999999
10
167.5521668
20
70.5612
10
167.6949402
20
70.5254368
10
167.6956006
20
70.52525899999999
10
167.696134
20
70.5250812
10
167.8347164
20
70.4755004
10
167.83532599999998
20
70.47524639999999
10
167.8358594
20
70.4750178
10
167.96892999999997
20
70.41207659999999
10
167.9694888
20
70.4117972
10
167.9700222
20
70.4114924
10
168.0962602
20
70.3358258
10
168.0967174
20
70.3355464
10
168.09730159999998
20
70.33514
10
168.21553859999997
20
70.2474592
10
168.2159958
20
70.24710359999999
10
168.21650379999997
20
70.2466718
10
168.325546
20
70.147815
10
168.3260032
20
70.1473832
10
168.32643499999998
20
70.14692600000001
10
168.4252918
20
70.0378838
10
168.4257236
20
70.03737579999999
10
168.4260792
20
70.03691859999999
10
168.51376
20
69.9186816
10
168.5141664
20
69.9180974
10
168.51444579999998
20
69.9176402
10
168.5901124
20
69.7914022
10
168.5904172
20
69.7908688
10
168.5906966
20
69.79031
10
168.65363779999998
20
69.6572394
10
168.6538664
20
69.656706
10
168.65412039999998
20
69.6560964
10
168.70370119999998
20
69.51751399999999
10
168.703879
20
69.5169806
10
168.7040568
20
69.5163202
10
168.73981999999998
20
69.3735468
10
168.7399724
20
69.3729118
10
168.740074
20
69.37230220000001
10
168.761664
20
69.2267094
10
168.7617402
20
69.2261506
10
168.761791
20
69.2254648
10
168.7690046
20
69.078475
10
168.76903
20
69.07784
10
168.7690046
20
69.07720499999999
10
168.761791
20
68.93021519999999
10
168.7617402
20
68.92952939999999
10
168.761664
20
68.9289706
10
168.740074
20
68.7833778
10
168.7399724
20
68.78276819999999
10
168.73981999999998
20
68.7821332
10
168.7040568
20
68.6393598
10
168.703879
20
68.6386994
10
168.70370119999998
20
68.638166
10
168.65412039999998
20
68.4995836
10
168.6538664
20
68.498974
10
168.65363779999998
20
68.4984406
10
168.5906966
20
68.36537
10
168.5904172
20
68.36481119999999
10
168.5901124
20
68.3642778
10
168.51444579999998
20
68.2380398
10
168.5141664
20
68.2375826
10
168.51376
20
68.23699839999999
10
168.4260792
20
68.1187614
10
168.4257236
20
68.1183042
10
168.4252918
20
68.1177962
10
168.32643499999998
20
68.008754
10
168.3260032
20
68.0082968
10
168.325546
20
68.007865
10
168.21650379999997
20
67.90900819999999
10
168.2159958
20
67.9085764
10
168.21553859999997
20
67.9082208
10
168.09730159999998
20
67.82054
10
168.0967174
20
67.8201336
10
168.0962602
20
67.8198542
10
167.9700222
20
67.7441876
10
167.9694888
20
67.7438828
10
167.96892999999997
20
67.7436034
10
167.8358594
20
67.6806622
10
167.83532599999998
20
67.6804336
10
167.8347164
20
67.6801796
10
167.696134
20
67.63059879999999
10
167.6956006
20
67.630421
10
167.6949402
20
67.6302432
10
167.5521668
20
67.59447999999999
10
167.5515318
20
67.5943276
10
167.55092219999997
20
67.59422599999999
10
167.40532939999997
20
67.572636
10
167.4047706
20
67.57255980000001
10
167.4040848
20
67.572509
10
167.257095
20
67.5652954
10
167.256714
20
67.56527
10
167.25646
20
67.56527
10
162.5276912
20
67.56527
10
162.4785422
20
67.56112979999999
10
162.47823739999998
20
67.56112979999999
10
162.47790719999998
20
67.5611044
10
160.7385152
20
67.5006524
10
159.1319144
20
67.21236239999999
10
157.5827176
20
66.6983426
10
156.12247159999998
20
65.96903239999999
10
154.780869
20
65.0393162
10
153.58526559999999
20
63.928117
10
152.55996919999998
20
62.65806619999999
10
151.7259094
20
61.2549956
10
151.10005339999998
20
59.7475056
10
150.69512659999998
20
58.1663302
10
150.51658999999998
20
56.5171844
10
150.51658999999998
20
43.8029096
10
150.66393539999999
20
41.867734399999996
10
151.0759742
20
39.91170579999999
10
151.74114939999998
20
38.0266702
10
152.6479548
20
36.2452412
10
153.7807186
20
34.598229
10
155.1669236
20
33.062062399999995
10
156.25472939999997
20
31.9471548
10
156.2547802
20
31.947104
10
156.2550342
20
31.9467992
10
156.32998959999998
20
31.864046000000002
10
156.33029439999999
20
31.8637158
10
156.3305992
20
31.863334799999997
10
156.3991792
20
31.775222199999998
10
156.39923
20
31.775146
10
156.3994586
20
31.774841199999997
10
157.3269904
20
30.487010399999996
10
157.3271936
20
30.486705599999997
10
157.32726979999998
20
30.486629399999998
10
157.3893474
20
30.393258999999997
10
157.3896268
20
30.3928272
10
157.3898554
20
30.3924462
10
157.4447702
20
30.294681599999997
10
157.4448464
20
30.294554599999998
10
157.4449988
20
30.294275199999998
10
158.1703212
20
28.8826194
10
158.17044819999998
20
28.882365399999998
10
158.17052439999998
20
28.882212999999997
10
158.217997
20
28.780613
10
158.21820019999998
20
28.780155799999996
10
158.218378
20
28.7797494
10
158.258129
20
28.674898199999998
10
158.2582052
20
28.6747204
10
158.2582814
20
28.6744664
10
158.76516379999998
20
27.170506999999997
10
158.76526539999998
20
27.170151399999998
10
158.7653162
20
27.1700498
10
158.797117
20
27.062531599999996
10
158.79726939999998
20
27.0619982
10
158.79737099999997
20
27.061617199999997
10
158.82104379999998
20
26.952016199999996
10
158.82104379999998
20
26.952016199999996
10
158.82114539999998
20
26.951559
10
159.0982848
20
25.388849399999998
10
159.098361
20
25.3883922
10
159.1138042
20
25.277317999999998
10
159.11388039999997
20
25.2767592
10
159.1139058
20
25.2763782
10
159.12099239999998
20
25.1644912
10
159.12101779999998
20
25.164364199999998
10
159.12101779999998
20
25.1640086
10
159.162242
20
23.5774738
10
159.162242
20
23.5771436
10
159.162242
20
23.576838799999997
10
159.1618102
20
23.5578142
10
159.1627246
20
23.538815
10
159.16275
20
23.538179999999997
10
159.1627246
20
23.537544999999998
10
159.160083
20
23.4836462
10
159.1588384
20
23.4296966
10
159.15881299999998
20
23.429087
10
159.1587368
20
23.428451999999997
10
159.1564508
20
23.409554399999998
10
159.155511
20
23.3905552
10
159.1554602
20
23.3898694
10
159.155384
20
23.389310599999998
10
159.1474592
20
23.3359198
10
159.1409314
20
23.2823258
10
159.14085519999998
20
23.2818178
10
159.14072819999998
20
23.2811066
10
159.136588
20
23.2625392
10
159.133794
20
23.2437178
10
159.1336924
20
23.243108199999998
10
159.13354
20
23.2424732
10
159.12043359999998
20
23.1901238
10
159.1086734
20
23.1374442
10
159.108521
20
23.1368346
10
159.1083432
20
23.136250399999998
10
159.1023996
20
23.118165599999998
10
159.0977768
20
23.0996998
10
159.09759899999997
20
23.0990394
10
159.09742119999999
20
23.098506
10
159.0792348
20
23.047705999999998
10
159.06239459999998
20
22.9964234
10
159.062166
20
22.9958392
10
159.06193739999998
20
22.995255
10
159.05424119999998
20
22.977856
10
159.0478404
20
22.9599236
10
159.0475864
20
22.959314
10
159.0473578
20
22.9587806
10
159.0242946
20
22.9099872
10
159.002476
20
22.8606096
10
159.0021966
20
22.86
10
159.00191719999998
20
22.859492
10
158.99257
20
22.8429312
10
158.9844166
20
22.825709999999997
10
158.9841372
20
22.825151199999997
10
158.98383239999998
20
22.8246178
10
158.9560956
20
22.7783136
10
158.9295526
20
22.7313236
10
158.92924779999998
20
22.7308156
10
158.9288922
20
22.7302822
10
158.9179448
20
22.7146866
10
158.90816579999998
20
22.698379799999998
10
158.9078864
20
22.6979226
10
158.90748
20
22.697338399999996
10
158.8753236
20
22.6539806
10
158.8443102
20
22.60981
10
158.8439292
20
22.609302
10
158.8435482
20
22.608819399999998
10
158.83112759999997
20
22.594392199999998
10
158.8197992
20
22.5791014
10
158.8194436
20
22.5786442
10
158.81901179999997
20
22.5781362
10
158.78276599999998
20
22.5381566
10
158.74756159999998
20
22.497237199999997
10
158.74718059999998
20
22.4968054
10
158.74669799999998
20
22.496322799999998
10
158.7329312
20
22.483190999999998
10
158.720155
20
22.469094
10
158.7197232
20
22.4686368
10
158.71926599999998
20
22.468204999999998
10
158.6792864
20
22.4319592
10
158.64024659999998
20
22.394672
10
158.63978939999998
20
22.394265599999997
10
158.63930679999999
20
22.393859199999998
10
158.6243208
20
22.3821244
10
158.6102238
20
22.369348199999997
10
158.60971579999998
20
22.368916399999996
10
158.6092586
20
22.368560799999997
10
158.5659008
20
22.3364044
10
158.5234066
20
22.3031558
10
158.5229494
20
22.3028002
10
158.5223906
20
22.3024192
10
158.50631239999998
20
22.2922084
10
158.4910216
20
22.28088
10
158.4904374
20
22.280473599999997
10
158.4899802
20
22.280194199999997
10
158.4437014
20
22.252432
10
158.39813379999998
20
22.223501399999996
10
158.397575
20
22.2231712
10
158.397067
20
22.222891799999996
10
158.38007439999998
20
22.214306599999997
10
158.3637422
20
22.2045276
10
158.3632088
20
22.2042228
10
158.36265
20
22.2039434
10
158.31385659999998
20
22.1808548
10
158.2656728
20
22.156521599999998
10
158.26511399999998
20
22.156242199999998
10
158.2645298
20
22.156013599999998
10
158.2468006
20
22.1491302
10
158.22957939999998
20
22.1410022
10
158.22904599999998
20
22.1407736
10
158.2284364
20
22.140519599999998
10
158.17761099999998
20
22.1223332
10
158.12729359999997
20
22.1028514
10
158.12670939999998
20
22.1026482
10
158.1260998
20
22.102445
10
158.10776099999998
20
22.097339599999998
10
158.08985399999997
20
22.0909388
10
158.0893206
20
22.090761
10
158.0886602
20
22.0905832
10
158.0363108
20
22.0774514
10
157.98429159999998
20
22.0629988
10
157.9837582
20
22.0628464
10
157.9830978
20
22.0627194
10
157.96432719999999
20
22.0594428
10
157.94588679999998
20
22.05482
10
157.9452518
20
22.0546676
10
157.9446422
20
22.054565999999998
10
157.8912768
20
22.0466412
10
157.83808919999998
20
22.0373448
10
157.8374542
20
22.0372432
10
157.83687
20
22.0371924
10
157.81789619999998
20
22.03577
10
157.7990494
20
22.032975999999998
10
157.79849059999998
20
22.0328998
10
157.7978048
20
22.032849
10
157.743906
20
22.0302074
10
157.6900834
20
22.0261434
10
157.68939759999998
20
22.026118
10
157.68883879999998
20
22.026118
10
157.6698142
20
22.0265498
10
157.650815
20
22.0256354
10
157.650434
20
22.025609999999997
10
157.65017999999998
20
22.025609999999997
10
143.168116
20
22.025609999999997
10
141.82023959999998
20
21.9195396
10
140.5634984
20
21.617813
10
139.3694444
20
21.1232242
10
138.2674654
20
20.4479398
10
137.28468859999998
20
19.6085714
10
136.4453202
20
18.6257946
10
135.7700358
20
17.5238156
10
135.27544699999999
20
16.3297616
10
134.9737204
20
15.073020399999999
10
134.8629764
20
13.665911199999998
10
134.86295099999998
20
13.6656064
10
134.86292559999998
20
13.6652762
10
134.8441804
20
13.519302399999997
10
134.8441042
20
13.518718199999999
10
134.84397719999998
20
13.5180578
10
134.83844
20
13.494003999999999
10
134.83844
20
9.719132199999999
10
134.83844
20
9.719106799999999
10
134.8385924
20
9.7184718
10
134.83869399999998
20
9.717862199999999
10
134.86028399999998
20
9.5722694
10
134.8603602
20
9.5717106
10
134.860411
20
9.571024799999998
10
134.8619096
20
9.540773399999999
10
134.8624176
20
9.539732
10
134.8628748
20
9.538589
10
134.863205
20
9.537344399999999
10
134.8634336
20
9.5360998
10
134.8634844
20
9.5355156
10
134.944993
20
8.4389722
10
135.1628742
20
7.4761598
10
135.520684
20
6.5561464
10
136.01054839999998
20
5.6991504
10
136.6217232
20
4.9239678
10
137.3407972
20
4.247642
10
138.1519208
20
3.6850319999999996
10
139.03731399999998
20
3.248533
10
139.977495
20
2.9476953999999997
10
140.95188979999998
20
2.7891232
10
142.051405
20
2.7748229999999996
10
142.0517606
20
2.7748229999999996
10
142.05204
20
2.7747976
10
142.19892819999998
20
2.7656536
10
142.1995632
20
2.7656028
10
142.2001728
20
2.7655266
10
142.2440132
20
2.75844
10
170.33697199999997
20
2.75844
10
170.35492979999998
20
2.7595576
10
170.3552092
20
2.7595576
10
170.3555394
20
2.759583
10
171.4548006
20
2.7741371999999997
10
172.4288906
20
2.9329126
10
173.3688176
20
3.2339025999999995
10
174.2539314
20
3.6705286
10
175.064801
20
4.2331639999999995
10
175.78362099999998
20
4.9094644
10
176.39456719999998
20
5.6845707999999995
10
176.8842792
20
6.541465199999999
10
177.2419366
20
7.4613008
10
177.46009719999998
20
8.4255102
10
177.53710999999998
20
9.4326964
10
177.53710999999998
20
9.5495618
10
177.4504706
20
11.0367572
10
177.1993662
20
12.460605
10
176.75979379999998
20
13.930249
10
176.759743
20
13.930502999999998
10
176.7596414
20
13.9308586
10
176.724437
20
14.0737844
10
176.72431
20
14.0743432
10
176.724183
20
14.075003599999999
10
176.7031518
20
14.220672599999999
10
176.70307559999998
20
14.221333
10
176.7030502
20
14.2219172
10
176.6963954
20
14.368957799999999
10
176.69637
20
14.369541999999997
10
176.6963954
20
14.3702024
10
176.7041932
20
14.5171922
10
176.704244
20
14.517827199999997
10
176.70432019999998
20
14.518436799999998
10
176.72649439999998
20
14.663953399999999
10
176.7265706
20
14.664461399999999
10
176.726723
20
14.6651726
10
176.763045
20
14.807793599999998
10
176.7632228
20
14.808454
10
176.763426
20
14.808987399999998
10
176.81354019999998
20
14.947391999999999
10
176.8137942
20
14.9480016
10
176.8140228
20
14.948534999999998
10
176.87747199999998
20
15.0813516
10
176.8777768
20
15.0819612
10
176.87805619999997
20
15.0824438
10
176.95423079999998
20
15.208402399999999
10
176.95458639999998
20
15.2089612
10
176.9549166
20
15.209443799999999
10
177.0430546
20
15.3273252
10
177.04346099999998
20
15.3278078
10
177.04386739999998
20
15.328264999999998
10
177.1431306
20
15.4369516
10
177.14358779999998
20
15.4374342
10
177.14401959999998
20
15.4378406
10
177.2534682
20
15.536240199999998
10
177.25392539999999
20
15.5366466
10
177.25443339999998
20
15.537027599999998
10
177.3730006
20
15.6242512
10
177.37353399999998
20
15.624632199999999
10
177.37401659999998
20
15.624937
10
177.5005594
20
15.700120999999998
10
177.5011182
20
15.700425799999998
10
177.50167699999997
20
15.700705199999998
10
177.63497619999998
20
15.763112999999999
10
177.6355858
20
15.763392399999999
10
177.63611919999997
20
15.763595599999999
10
177.77490479999997
20
15.812643
10
177.7755144
20
15.8128462
10
177.77609859999998
20
15.812998599999998
10
177.9190244
20
15.848202999999998
10
177.91958319999998
20
15.848329999999999
10
177.9202436
20
15.848457
10
178.0659126
20
15.8694882
10
178.06657299999998
20
15.869564399999998
10
178.0671572
20
15.869589799999998
10
178.2141978
20
15.876244599999998
10
178.21478199999999
20
15.876269999999998
10
178.2154424
20
15.876244599999998
10
178.36243219999997
20
15.8684468
10
178.3630672
20
15.868395999999999
10
178.3636768
20
15.868319799999998
10
178.5091934
20
15.846145599999998
10
178.50970139999998
20
15.8460694
10
178.5104126
20
15.845917
10
178.6530336
20
15.809595
10
178.653694
20
15.8094172
10
178.6542274
20
15.809213999999999
10
178.792632
20
15.7590998
10
178.7932416
20
15.758845799999998
10
178.793775
20
15.7586172
10
178.9265916
20
15.695167999999999
10
178.92720119999998
20
15.694863199999999
10
178.92768379999998
20
15.6945838
10
179.0536424
20
15.618409199999999
10
179.0542012
20
15.6180536
10
179.0546838
20
15.617723399999997
10
179.1725652
20
15.529585399999998
10
179.1730478
20
15.529178999999997
10
179.173505
20
15.5287726
10
179.28219159999998
20
15.4295094
10
179.28267419999997
20
15.429052199999997
10
179.28308059999998
20
15.4286204
10
179.38148019999997
20
15.3191718
10
179.3818866
20
15.3187146
10
179.38226759999998
20
15.3182066
10
179.4694912
20
15.1996394
10
179.4698722
20
15.199105999999999
10
179.470177
20
15.198623399999999
10
179.54536099999999
20
15.072080600000001
10
179.5456658
20
15.0715218
10
179.54594519999998
20
15.070962999999999
10
179.608353
20
14.9376638
10
179.6086324
20
14.937054199999999
10
179.6088356
20
14.9365208
10
179.657883
20
14.797735199999998
10
179.65801
20
14.7973542
10
179.65808619999999
20
14.797151
10
180.12283
20
13.243306
10
180.1229316
20
13.242950399999998
10
180.1230332
20
13.242594799999999
10
180.16313979999998
20
13.0732784
10
180.16319059999998
20
13.072998999999998
10
180.16329219999997
20
13.0725418
10
180.44495279999998
20
11.4753644
10
180.445029
20
11.474881799999999
10
180.44505439999998
20
11.4746278
10
180.4653236
20
11.301374399999998
10
180.465349
20
11.3009934
10
180.4653744
20
11.300637799999999
10
180.5596846
20
9.681540199999999
10
180.55971
20
9.681311599999999
10
180.55971
20
9.680905199999998
10
180.5601164
20
9.6375474
10
180.5622246
20
9.594214999999998
10
180.56224999999998
20
9.593834
10
180.56224999999998
20
9.59358
10
180.56224999999998
20
9.498456999999998
10
180.64213299999997
20
8.4237322
10
180.86001419999997
20
7.4609198
10
181.21782399999998
20
6.5409064
10
181.7076884
20
5.683910399999999
10
182.3188632
20
4.9087278
10
183.0379372
20
4.2324019999999996
10
183.8490608
20
3.6697919999999997
10
184.734454
20
3.2332929999999998
10
185.674635
20
2.9324554
10
186.6490298
20
2.7738831999999998
10
187.748545
20
2.759583
10
187.7489006
20
2.759583
10
187.74918
20
2.7595576
10
187.76716319999997
20
2.75844
10
197.885812
20
2.75844
10
197.9037698
20
2.7595576
10
197.90404919999997
20
2.7595576
10
197.90437939999998
20
2.759583
10
199.00364059999998
20
2.7741371999999997
10
199.9777306
20
2.9329126
10
200.91765759999998
20
3.2339025999999995
10
201.80277139999998
20
3.6705286
10
202.613641
20
4.2331639999999995
10
203.332461
20
4.9094644
10
203.9434072
20
5.6845707999999995
10
204.4331192
20
6.541465199999999
10
204.7907766
20
7.4613008
10
205.00858159999999
20
8.4239608
10
205.09011560000002
20
9.520326399999998
10
205.09011560000002
20
9.520427999999999
10
205.09016639999996
20
9.5209614
10
205.0923254
20
9.5383096
10
205.09318899999997
20
9.5557848
10
205.09323979999996
20
9.556470599999999
10
205.09331600000002
20
9.5570294
10
205.0989802
20
9.5953326
10
205.10118999999997
20
11.749049399999999
10
205.10118999999997
20
11.749303399999999
10
205.1012154
20
11.749659
10
205.102841
20
11.7823742
10
205.10271399999996
20
11.815140199999998
10
205.10271399999996
20
11.815444999999999
10
205.1027394
20
11.815749799999999
10
205.1490436
20
12.840741399999999
10
205.1490436
20
12.8407668
10
205.14906899999997
20
12.841274799999999
10
205.16039739999997
20
12.969544799999998
10
205.16039739999997
20
12.969621
10
205.1604482
20
12.9701036
10
205.29448399999998
20
13.987271999999997
10
205.2945094
20
13.987398999999998
10
205.29458559999998
20
13.987881599999998
10
205.32095079999996
20
14.132687
10
205.3210778
20
14.1332458
10
205.32123019999997
20
14.133906199999998
10
205.361667
20
14.275435
10
205.3618448
20
14.2759684
10
205.36207339999996
20
14.2766288
10
205.4161754
20
14.413509399999999
10
205.416404
20
14.413991999999999
10
205.4167088
20
14.414627
10
205.48396799999998
20
14.545563999999997
10
205.48427279999996
20
14.546097399999999
10
205.484603
20
14.5466308
10
205.564359
20
14.670328799999998
10
205.56473999999997
20
14.6708876
10
205.56509559999998
20
14.6713448
10
205.65661179999998
20
14.786635399999998
10
205.6570182
20
14.787117999999998
10
205.6574246
20
14.787575200000001
10
205.75981199999998
20
14.893315399999999
10
205.76026919999998
20
14.8937726
10
205.76072639999998
20
14.894179000000001
10
205.872969
20
14.989378199999999
10
205.8734516
20
14.9897846
10
205.87395959999998
20
14.990140199999999
10
205.9949906
20
15.073884
10
205.9954732
20
15.0742142
10
205.99605739999996
20
15.074544399999999
10
206.12470839999997
20
15.146045399999998
10
206.12531800000002
20
15.146350199999999
10
206.125826
20
15.1465788
10
206.26087779999997
20
15.2051258
10
206.2614874
20
15.205354399999997
10
206.26204619999996
20
15.205557599999999
10
206.4022034
20
15.250566399999999
10
206.4028384
20
15.2507442
10
206.4033972
20
15.250896599999999
10
206.5472882
20
15.2819354
10
206.5478978
20
15.2820624
10
206.54850739999998
20
15.2821386
10
206.69473519999997
20
15.298953399999998
10
206.69542099999998
20
15.2990042
10
206.69597979999998
20
15.299029599999999
10
206.8431474
20
15.3014172
10
206.84388399999997
20
15.3014172
10
206.844392
20
15.301366399999997
10
206.99110239999996
20
15.289326799999998
10
206.99161039999998
20
15.289276
10
206.9923216
20
15.2891744
10
207.13712699999996
20
15.2628092
10
207.1376858
20
15.262682199999999
10
207.1383462
20
15.262529799999998
10
207.27987499999998
20
15.222093
10
207.28040839999997
20
15.2219152
10
207.28106879999999
20
15.2216866
10
207.41794939999997
20
15.1675846
10
207.41843199999997
20
15.167356
10
207.41906699999998
20
15.1670512
10
207.550004
20
15.099791999999999
10
207.5505374
20
15.099487199999999
10
207.55107080000002
20
15.099156999999998
10
207.67476879999998
20
15.019401
10
207.6753276
20
15.019020000000001
10
207.67578479999997
20
15.018664399999999
10
207.7910754
20
14.927148199999998
10
207.791558
20
14.9267418
10
207.79201519999998
20
14.9263354
10
207.8977554
20
14.823948
10
207.8982126
20
14.823490799999998
10
207.89861899999997
20
14.823033599999999
10
207.99381819999996
20
14.710791
10
207.99422459999997
20
14.7103084
10
207.99458019999997
20
14.7098004
10
208.07832399999998
20
14.5887694
10
208.07865420000002
20
14.5882868
10
208.0789844
20
14.5877026
10
208.15048539999998
20
14.4590516
10
208.1507902
20
14.458442
10
208.1510188
20
14.457934
10
208.20956579999998
20
14.322882199999999
10
208.2097944
20
14.322272599999998
10
208.20999759999998
20
14.3217138
10
208.25500639999998
20
14.181556599999999
10
208.2551842
20
14.1809216
10
208.25533659999996
20
14.180362799999997
10
208.28637539999997
20
14.0364718
10
208.2865024
20
14.035862199999999
10
208.2865786
20
14.035252599999998
10
208.30339339999998
20
13.889024799999998
10
208.30344419999997
20
13.888338999999998
10
208.3034696
20
13.8877802
10
208.30585719999996
20
13.7406126
10
208.30585719999996
20
13.739875999999999
10
208.30580639999997
20
13.739367999999999
10
208.2937668
20
13.592657599999997
10
208.2937414
20
13.592403599999999
10
208.293716
20
13.592048
10
208.16816379999997
20
12.639294
10
208.1263046
20
11.712575
10
208.1238154
20
9.292971
10
208.188433
20
8.4237322
10
208.4063142
20
7.4609198
10
208.764124
20
6.5409064
10
209.2539884
20
5.683910399999999
10
209.8651632
20
4.9087278
10
210.5842372
20
4.2324019999999996
10
211.3953608
20
3.6697919999999997
10
212.28075399999997
20
3.2332929999999998
10
213.22093499999997
20
2.9324554
10
214.19532979999997
20
2.7738831999999998
10
215.29484499999998
20
2.759583
10
215.2952006
20
2.759583
10
215.29548
20
2.7595576
10
215.31346319999997
20
2.75844
10
243.4092668
20
2.75844
10
243.45402159999998
20
2.7656281999999996
10
243.4547328
20
2.7657298
10
243.45524079999998
20
2.7657551999999996
10
243.60090979999998
20
2.7747976
10
243.6011892
20
2.7747976
10
243.6015194
20
2.7748229999999996
10
244.70078059999997
20
2.7893771999999997
10
245.67487059999996
20
2.9481526
10
246.61479759999997
20
3.2491426
10
247.49991139999997
20
3.6857685999999994
10
248.31078099999996
20
4.248404
10
249.029601
20
4.9247043999999995
10
249.64054719999996
20
5.6998108
10
250.13025919999998
20
6.556705199999999
10
250.4879166
20
7.4765407999999995
10
250.7057216
20
8.4392008
10
250.78725559999998
20
9.5355664
10
250.78725559999998
20
9.535668
10
250.7873064
20
9.5362014
10
250.80541659999997
20
9.6822514
10
250.8055182
20
9.6829118
10
250.8056452
20
9.683496
10
250.81229999999996
20
9.713087
10
250.81229999999996
20
13.494003999999999
10
250.80676279999997
20
13.5180832
10
250.8066612
20
13.5185912
10
250.80655959999999
20
13.519302399999997
10
250.78781439999997
20
13.6653016
10
250.787789
20
13.665631799999998
10
250.78776359999998
20
13.665936599999998
10
250.677045
20
15.0728172
10
250.37542
20
16.3293552
10
249.88100899999998
20
17.5232314
10
249.20590239999999
20
18.625083399999998
10
248.36678799999996
20
19.6078094
10
247.38431599999998
20
20.4471778
10
246.2826164
20
21.1225384
10
245.08886719999998
20
21.6172796
10
243.83240539999997
20
21.919234799999998
10
242.4255502
20
22.030309
10
242.42504219999998
20
22.0303598
10
242.4249152
20
22.0303598
10
242.41188499999998
20
22.0320616
10
242.39855
20
22.032696599999998
10
242.3981182
20
22.032722
10
242.39791499999998
20
22.032747399999998
10
240.9859544
20
22.1703138
10
240.9858782
20
22.1703138
10
240.98544639999997
20
22.1703646
10
240.86906359999998
20
22.186341199999998
10
240.86853019999998
20
22.186417399999996
10
240.86809839999998
20
22.186518999999997
10
240.7533158
20
22.211537999999997
10
240.75308719999998
20
22.211588799999998
10
240.75283319999997
20
22.211639599999998
10
239.3795314
20
22.5678746
10
239.3792012
20
22.5679762
10
239.3790488
20
22.5680016
10
239.2671872
20
22.601732799999997
10
239.2666538
20
22.6019106
10
239.26627279999997
20
22.6020376
10
239.15735759999998
20
22.644379400000002
10
239.15735759999998
20
22.644379400000002
10
239.15690039999998
20
22.6445572
10
237.85553139999996
20
23.2096056
10
237.8550742
20
23.2098088
10
237.7498166
20
23.260481799999997
10
237.74943559999997
20
23.260659599999997
10
237.74892759999997
20
23.260938999999997
10
237.6479372
20
23.3196638
10
237.647734
20
23.319765399999998
10
237.6475054
20
23.3199178
10
236.4495906
20
24.080088999999997
10
236.44936199999998
20
24.0802414
10
236.4491842
20
24.080343
10
236.35304519999997
20
24.1467386
10
236.3526642
20
24.147018
10
236.35225779999996
20
24.147348199999996
10
236.26157979999996
20
24.221008199999996
10
236.2613004
20
24.2212368
10
236.2611988
20
24.221338399999997
10
235.36595039999997
20
25.0085606
10
235.2819272
20
25.0628912
10
235.2814446
20
25.0632214
10
235.2809112
20
25.0636278
10
235.1657476
20
25.155296399999997
10
235.1654682
20
25.1554996
10
235.165265
20
25.1556774
10
234.18888899999996
20
26.014298999999998
10
233.1907706
20
26.647800399999998
10
232.10646999999997
20
27.1187672
10
230.96153959999998
20
27.415998
10
229.66687619999996
20
27.5448522
10
229.66657139999998
20
27.544877599999996
10
229.6662412
20
27.5449284
10
229.6662412
20
27.5449284
10
229.66621579999997
20
27.5449284
10
229.66583479999997
20
27.5449538
10
229.66560619999998
20
27.5449792
10
228.4580902
20
27.666162599999996
10
228.4575822
20
27.666238799999995
10
228.4571758
20
27.6662896
10
228.24313
20
27.703602199999995
10
228.24269819999998
20
27.7036784
10
228.242241
20
27.70378
10
227.06472239999997
20
27.998216799999998
10
227.0642144
20
27.9983438
10
227.06383339999996
20
27.998445399999998
10
226.8604302
20
28.065069599999998
10
226.8601
20
28.065171199999995
10
226.859592
20
28.065374399999996
10
225.7359468
20
28.5244032
10
225.73543879999997
20
28.524631799999998
10
225.735134
20
28.524784200000003
10
225.5432624
20
28.619653199999995
10
225.54288139999997
20
28.619856399999996
10
225.542475
20
28.620085
10
224.49563940000002
20
29.234384
10
224.49525839999998
20
29.234612599999995
10
224.49487739999998
20
29.234866599999997
10
224.31847439999999
20
29.356100799999997
10
224.31819499999997
20
29.3562786
10
224.3177378
20
29.3566342
10
223.36899699999998
20
30.1136812
10
223.36866679999997
20
30.1139352
10
223.36831120000002
20
30.114265399999997
10
223.21095819999996
20
30.2593756
10
223.21067879999998
20
30.2596296
10
223.2102978
20
30.260010599999998
10
222.37898119999997
20
31.144387799999997
10
222.378651
20
31.144768799999998
10
222.378397
20
31.145073599999996
10
222.2432944
20
31.311087999999998
10
222.24301499999999
20
31.311468999999995
10
222.2427356
20
31.3118246
10
221.5457596
20
32.3055234
10
221.54550559999996
20
32.3059044
10
221.545277
20
32.3062854
10
221.4351934
20
32.4898512
10
221.4349648
20
32.490206799999996
10
221.43473619999997
20
32.4906386
10
220.8863248
20
33.5734406
10
220.88612159999997
20
33.5738724
10
220.88594379999998
20
33.5742788
10
220.803089
20
33.7716368
10
220.80291119999998
20
33.772093999999996
10
220.8027842
20
33.772475
10
220.4140626
20
34.922307599999996
10
220.41396099999997
20
34.922637800000004
10
220.4137832
20
34.9231966
10
220.35988439999997
20
35.1303336
10
220.35975739999998
20
35.130867
10
220.35968119999998
20
35.1312226
10
220.1385996
20
36.324667
10
220.1385234
20
36.325048
10
220.1384726
20
36.3255814
10
220.1145966
20
36.538281
10
220.11454579999997
20
36.538788999999994
10
220.1145204
20
36.53917
10
220.06554919999996
20
37.7519692
10
220.06554919999996
20
37.752223199999996
10
220.06554919999996
20
37.752578799999995
10
220.0658032
20
37.78191579999999
10
220.0643554
20
37.8112274
10
220.06432999999998
20
37.8116084
10
220.06432999999998
20
37.811862399999995
10
220.0593262
20
44.524726799999996
10
219.8044118
20
46.4952334
10
219.26196939999997
20
48.3889558
10
218.44205739999998
20
50.1800876
10
217.36314159999998
20
51.8282428
10
216.04958059999998
20
53.29621039999999
10
214.53099079999998
20
54.55091959999999
10
212.8416368
20
55.56407479999999
10
211.01923759999997
20
56.312968399999995
10
208.994756
20
56.8085732
10
208.994375
20
56.8086748
10
208.99414639999998
20
56.808751
10
208.98993
20
56.80999559999999
10
208.98561199999997
20
56.8108592
10
208.9850278
20
56.810986199999995
10
208.98439279999997
20
56.811164
10
208.91880999999998
20
56.831153799999996
10
208.85307479999997
20
56.8507118
10
208.85238900000002
20
56.8509404
10
208.851881
20
56.8511182
10
208.847817
20
56.852794599999996
10
208.8436006
20
56.854064599999994
10
208.84344819999998
20
56.854115400000005
10
208.84301639999998
20
56.8542678
10
206.5536382
20
57.6767452
10
206.5531302
20
57.67694839999999
10
206.55287619999996
20
57.67705
10
206.3728156
20
57.755409
10
206.37243459999996
20
57.7555868
10
206.3720536
20
57.75576459999999
10
204.20977699999997
20
58.87029119999999
10
204.209523
20
58.870418199999996
10
204.2090404
20
58.87069759999999
10
204.0406384
20
58.971967400000004
10
204.04038440000002
20
58.9721198
10
204.03995259999996
20
58.9724246
10
202.04191239999997
20
60.360052
10
202.0415314
20
60.36033139999999
10
202.041252
20
60.36055999999999
10
201.88753119999998
20
60.4829626
10
201.88717559999998
20
60.4832674
10
201.8869216
20
60.4835214
10
200.0874332
20
62.120449799999996
10
200.08710299999998
20
62.12075459999999
10
200.086849
20
62.121033999999995
10
199.950451
20
62.262486599999995
10
199.95004459999998
20
62.2629184
10
199.9498922
20
62.26309619999999
10
198.78055239999998
20
63.6470406
10
198.70666379999997
20
63.713080600000005
10
198.7064098
20
63.7133092
10
198.70620659999997
20
63.71351239999999
10
198.06284999999997
20
64.3481822
10
197.42246519999998
20
64.82306059999999
10
196.721857
20
65.20360339999999
10
195.97387779999997
20
65.4826224
10
195.09041499999998
20
65.67825319999999
10
195.09031339999999
20
65.6782786
10
195.0898054
20
65.6784056
10
195.03453499999998
20
65.693544
10
194.97895979999998
20
65.7074632
10
194.9782994
20
65.707641
10
194.97776599999997
20
65.7078188
10
194.9629832
20
65.713102
10
194.9478448
20
65.71724219999999
10
194.947286
20
65.71741999999999
10
194.946651
20
65.71764859999999
10
194.8931332
20
65.7380956
10
194.83918359999998
20
65.7573996
10
194.838574
20
65.7576536
10
194.8380406
20
65.7578822
10
194.82384199999998
20
65.7645878
10
194.8091608
20
65.77020119999999
10
194.80865279999998
20
65.7704044
10
194.8080178
20
65.7707092
10
194.7567606
20
65.7963124
10
194.70496999999997
20
65.8208234
10
194.70441119999998
20
65.82110279999999
10
194.7038778
20
65.8214076
10
194.6904158
20
65.82948479999999
10
194.6763696
20
65.8364952
10
194.6757854
20
65.8368
10
194.67527739999997
20
65.83710479999999
10
194.6267634
20
65.8676102
10
194.5776398
20
65.89707419999999
10
194.5771826
20
65.89735359999999
10
194.5765984
20
65.89775999999999
10
194.5639746
20
65.9071072
10
194.55069039999998
20
65.9154892
10
194.5500808
20
65.9158956
10
194.5496744
20
65.9162004
10
194.50438619999997
20
65.9513032
10
194.45836139999997
20
65.98544079999999
10
194.45790419999997
20
65.98579639999998
10
194.45739619999998
20
65.9862282
10
194.44576299999997
20
65.9967692
10
194.43336779999998
20
66.00639579999999
10
194.4328344
20
66.0068276
10
194.4324026
20
66.0072086
10
194.3907974
20
66.046604
10
194.348354
20
66.08508499999999
10
194.3478968
20
66.0855168
10
194.34746499999997
20
66.085974
10
194.33692399999998
20
66.0976072
10
194.3255194
20
66.1084022
10
194.3250622
20
66.108834
10
194.3246558
20
66.1092912
10
194.2870892
20
66.1525728
10
194.24860819999998
20
66.1950162
10
194.2481764
20
66.1955242
10
194.2478208
20
66.1959814
10
194.2384736
20
66.2086052
10
194.2281866
20
66.22046699999999
10
194.22775479999999
20
66.220975
10
194.22739919999998
20
66.2214322
10
194.1942776
20
66.26819359999999
10
194.16013999999998
20
66.3142184
10
194.1597336
20
66.3148026
10
194.15945419999997
20
66.31525979999999
10
194.15137699999997
20
66.3287218
10
194.1422838
20
66.34152339999999
10
194.1419536
20
66.3420314
10
194.1416234
20
66.34259019999999
10
194.11322619999999
20
66.39234880000001
10
194.0837876
20
66.44149780000001
10
194.08348279999998
20
66.4420312
10
194.0832034
20
66.44259
10
194.0764724
20
66.4567886
10
194.0687
20
66.4704284
10
194.068446
20
66.47088559999999
10
194.06814119999999
20
66.47154599999999
10
194.04474779999998
20
66.52387
10
194.0202622
20
66.57566059999999
10
194.02003359999998
20
66.57619399999999
10
194.0197796
20
66.5768036
10
194.0144964
20
66.5915864
10
194.0080956
20
66.6059374
10
194.007867
20
66.6064454
10
194.0076384
20
66.6071058
10
193.98950279999997
20
66.6614364
10
193.9701988
20
66.715386
10
193.97002099999997
20
66.71591939999999
10
193.96984319999999
20
66.7165798
10
193.9660078
20
66.7318198
10
193.9610548
20
66.7467296
10
193.96087699999998
20
66.747263
10
193.9606992
20
66.74792339999999
10
193.9479992
20
66.803778
10
193.93408
20
66.8593532
10
193.9339276
20
66.8599882
10
193.93382599999998
20
66.8605978
10
193.93151459999999
20
66.8761172
10
193.92803479999998
20
66.8914334
10
193.92790779999999
20
66.8920684
10
193.9278316
20
66.89265259999999
10
193.9206434
20
66.94949779999999
10
193.91223599999998
20
67.0061906
10
193.9121598
20
67.00674939999999
10
193.912109
20
67.0074352
10
193.911347
20
67.023107
10
193.9093658
20
67.0387026
10
193.9092896
20
67.0393884
10
193.9092642
20
67.0399218
10
193.90768939999998
20
67.0971988
10
193.9048954
20
67.15442499999999
10
193.90487
20
67.15505999999999
10
193.9048954
20
67.155695
10
193.9056574
20
67.1713668
10
193.9052256
20
67.187064
10
193.9052256
20
67.1876736
10
193.905251
20
67.1883086
10
193.9092896
20
67.24545859999999
10
193.912109
20
67.3026848
10
193.9121598
20
67.3033706
10
193.91223599999998
20
67.30392939999999
10
193.91452199999998
20
67.3194742
10
193.9156396
20
67.335146
10
193.9157158
20
67.335781
10
193.91579199999998
20
67.33636519999999
10
193.92541859999997
20
67.3928548
10
193.93382599999998
20
67.44952219999999
10
193.9339276
20
67.4501318
10
193.93408
20
67.4507668
10
193.93788999999998
20
67.46598139999999
10
193.94053159999999
20
67.4814754
10
193.94063319999998
20
67.4820596
10
193.9407856
20
67.48269459999999
10
193.95592399999998
20
67.537965
10
193.96984319999999
20
67.5935402
10
193.97002099999997
20
67.5942006
10
193.9701988
20
67.594734
10
193.97548199999997
20
67.6095168
10
193.9796222
20
67.62465519999999
10
193.97979999999998
20
67.625214
10
193.9800286
20
67.62584899999999
10
194.0004756
20
67.6793668
10
194.0197796
20
67.7333164
10
194.02003359999998
20
67.733926
10
194.0202622
20
67.73445939999999
10
194.0269678
20
67.74865799999999
10
194.03258119999998
20
67.7633392
10
194.0327844
20
67.7638472
10
194.03308919999998
20
67.76448219999999
10
194.05869239999998
20
67.8157394
10
194.0832034
20
67.86752999999999
10
194.08348279999998
20
67.8680888
10
194.0837876
20
67.8686222
10
194.0918648
20
67.8820842
10
194.0988752
20
67.89613039999999
10
194.09918
20
67.8967146
10
194.0994848
20
67.89722259999999
10
194.12999019999998
20
67.94573659999999
10
194.15945419999997
20
67.9948602
10
194.1597336
20
67.9953174
10
194.16013999999998
20
67.9959016
10
194.1694872
20
68.0085254
10
194.17786919999998
20
68.0218096
10
194.1782756
20
68.0224192
10
194.1785804
20
68.02282559999999
10
194.2136832
20
68.06811379999999
10
194.2478208
20
68.11413859999999
10
194.2481764
20
68.1145958
10
194.24860819999998
20
68.1151038
10
194.2591492
20
68.12673699999999
10
194.2687758
20
68.1391322
10
194.2692076
20
68.1396656
10
194.2695886
20
68.1400974
10
194.30898399999998
20
68.1817026
10
194.34746499999997
20
68.22414599999999
10
194.3478968
20
68.2246032
10
194.348354
20
68.22503499999999
10
194.35998719999998
20
68.235576
10
194.37078219999998
20
68.24698059999999
10
194.37121399999998
20
68.2474378
10
194.37167119999998
20
68.2478442
10
194.41495279999998
20
68.2854108
10
194.45739619999998
20
68.3238918
10
194.45790419999997
20
68.3243236
10
194.45836139999997
20
68.32467919999999
10
194.47098519999997
20
68.3340264
10
194.482847
20
68.34431339999999
10
194.483355
20
68.34474519999999
10
194.4838122
20
68.3451008
10
194.5305736
20
68.3782224
10
194.5765984
20
68.41235999999999
10
194.5771826
20
68.4127664
10
194.5776398
20
68.41304579999999
10
194.5911018
20
68.421123
10
194.6039034
20
68.4302162
10
194.60441139999998
20
68.4305464
10
194.6049702
20
68.4308766
10
194.6547288
20
68.4592738
10
194.7038778
20
68.4887124
10
194.70441119999998
20
68.48901719999999
10
194.70496999999997
20
68.4892966
10
194.7191686
20
68.49602759999999
10
194.73280839999998
20
68.5038
10
194.73326559999998
20
68.504054
10
194.733926
20
68.50435879999999
10
194.78625
20
68.5277522
10
194.8380406
20
68.5522378
10
194.838574
20
68.5524664
10
194.83918359999998
20
68.5527204
10
194.8539664
20
68.55800359999999
10
194.8683174
20
68.5644044
10
194.8688254
20
68.564633
10
194.86948579999998
20
68.5648616
10
194.9238164
20
68.5829972
10
194.97776599999997
20
68.6023012
10
194.9782994
20
68.602479
10
194.97895979999998
20
68.60265679999999
10
194.9941998
20
68.60649219999999
10
195.0091096
20
68.61144519999999
10
195.00964299999998
20
68.611623
10
195.0103034
20
68.6118008
10
195.066158
20
68.62450079999999
10
195.1217332
20
68.63842
10
195.12236819999998
20
68.6385724
10
195.12297779999997
20
68.638674
10
195.1384972
20
68.64098539999999
10
195.1538134
20
68.6444652
10
195.15444839999998
20
68.64459219999999
10
195.1550326
20
68.6446684
10
195.2118778
20
68.65185659999999
10
195.26857059999998
20
68.660264
10
195.2691294
20
68.6603402
10
195.26981519999998
20
68.66039099999999
10
195.285487
20
68.661153
10
195.3010826
20
68.66313419999999
10
195.3017684
20
68.6632104
10
195.30230179999998
20
68.6632358
10
195.3595788
20
68.6648106
10
195.41680499999998
20
68.66760459999999
10
195.417186
20
68.66763
10
195.41744
20
68.66763
10
198.0692
20
68.66763
10
198.06945399999998
20
68.66763
10
198.06983499999998
20
68.66760459999999
10
198.21682479999998
20
68.66039099999999
10
198.2175106
20
68.6603402
10
198.2180694
20
68.660264
10
198.24440919999998
20
68.65635239999999
10
198.36922479999998
20
68.65023099999999
10
198.3699106
20
68.6501802
10
198.3704694
20
68.650104
10
198.5160622
20
68.628514
10
198.51667179999998
20
68.6284124
10
198.5173068
20
68.62826
10
198.66008019999998
20
68.59249679999999
10
198.6607406
20
68.592319
10
198.661274
20
68.5921412
10
198.79985639999998
20
68.5425604
10
198.800466
20
68.5423064
10
198.8009994
20
68.5420778
10
198.93407
20
68.47913659999999
10
198.93462879999998
20
68.4788572
10
198.9351622
20
68.4785524
10
199.06140019999998
20
68.40288579999999
10
199.0618574
20
68.4026064
10
199.0624416
20
68.4022
10
199.1806786
20
68.31451919999999
10
199.1811358
20
68.3141636
10
199.1816438
20
68.3137318
10
199.290686
20
68.21487499999999
10
199.2911432
20
68.2144432
10
199.291575
20
68.21398599999999
10
199.3904318
20
68.10494379999999
10
199.3908636
20
68.1044358
10
199.3912192
20
68.10397859999999
10
199.4789
20
67.9857416
10
199.47930639999998
20
67.9851574
10
199.4795858
20
67.98470019999999
10
199.4912698
20
67.9652184
10
199.4917524
20
67.96488819999999
10
199.4926922
20
67.9640754
10
199.4935558
20
67.9631864
10
199.49431779999998
20
67.9622212
10
199.49467339999998
20
67.9616878
10
200.7546912
20
65.99783599999999
10
202.19654759999997
20
64.2913878
10
203.849097
20
62.7880888
10
205.6840184
20
61.51374539999999
10
207.6698412
20
60.49017619999999
10
209.7911476
20
59.7280746
10
211.848827
20
59.2243418
10
211.8488778
20
59.22431639999999
10
211.84928419999997
20
59.2242148
10
211.95731039999998
20
59.19342999999999
10
211.95774219999996
20
59.193303
10
211.95819939999998
20
59.1931506
10
212.06360939999996
20
59.154364799999996
10
212.0639396
20
59.1542378
10
212.0640666
20
59.15421239999999
10
212.13467859999997
20
59.125180199999996
10
212.17115299999998
20
59.12070979999999
10
212.1717118
20
59.12063359999999
10
212.17239759999998
20
59.1205066
10
212.31603459999997
20
59.088401
10
212.3164156
20
59.0883248
10
212.3166442
20
59.0882486
10
213.53594579999998
20
58.7522066
10
214.696421
20
58.577124399999995
10
215.76456720000002
20
58.54572999999999
10
222.29625339999998
20
58.54572999999999
10
222.49437339999997
20
58.5827124
10
222.91753740000001
20
58.72642559999999
10
223.31591099999997
20
58.9288636
10
223.68144239999998
20
59.1859624
10
224.006664
20
59.4924642
10
224.2849464
20
59.8421206
10
224.5106508
20
60.2278196
10
224.67915440000002
20
60.641738
10
224.76841
20
61.000538399999996
10
224.76841
20
67.87133999999999
10
224.76841
20
67.871594
10
224.76843540000002
20
67.87197499999999
10
224.775649
20
68.01896479999999
10
224.77569979999998
20
68.01965059999999
10
224.77577599999998
20
68.02020939999998
10
224.79736599999998
20
68.16580219999999
10
224.79746759999998
20
68.1664118
10
224.79762
20
68.1670468
10
224.8333832
20
68.3098202
10
224.833561
20
68.31048059999999
10
224.8337388
20
68.311014
10
224.8833196
20
68.4495964
10
224.88357359999998
20
68.450206
10
224.8838022
20
68.45073939999999
10
224.94674339999997
20
68.58380999999999
10
224.94702279999998
20
68.5843688
10
224.9473276
20
68.5849022
10
225.0229942
20
68.7111402
10
225.0232736
20
68.7115974
10
225.02367999999998
20
68.7121816
10
225.1113608
20
68.83041859999999
10
225.1117164
20
68.8308758
10
225.1121482
20
68.8313838
10
225.21100499999997
20
68.94042599999999
10
225.2114368
20
68.9408832
10
225.21189399999997
20
68.94131499999999
10
225.3209362
20
69.0401718
10
225.32144419999997
20
69.0406036
10
225.3219014
20
69.04095919999999
10
225.4401384
20
69.12863999999999
10
225.4407226
20
69.1290464
10
225.44117979999996
20
69.12932579999999
10
225.5674178
20
69.2049924
10
225.56795119999998
20
69.20529719999999
10
225.56850999999997
20
69.2055766
10
225.7015806
20
69.2685178
10
225.70211400000002
20
69.2687464
10
225.7027236
20
69.2690004
10
225.84130599999997
20
69.3185812
10
225.84183939999997
20
69.318759
10
225.84249979999998
20
69.3189368
10
225.98527319999997
20
69.3547
10
225.98590819999998
20
69.3548524
10
225.9865178
20
69.354954
10
226.1321106
20
69.376544
10
226.13266939999997
20
69.37662019999999
10
226.1333552
20
69.37667099999999
10
226.280345
20
69.3838846
10
226.28097999999997
20
69.38391
10
226.281615
20
69.3838846
10
226.4286048
20
69.37667099999999
10
226.42929059999997
20
69.37662019999999
10
226.4298494
20
69.376544
10
226.57544219999997
20
69.354954
10
226.57605180000002
20
69.3548524
10
226.57668679999998
20
69.3547
10
226.7194602
20
69.3189368
10
226.72012059999997
20
69.318759
10
226.72065399999997
20
69.3185812
10
226.8592364
20
69.2690004
10
226.859846
20
69.2687464
10
226.8603794
20
69.2685178
10
226.99345
20
69.2055766
10
226.99400879999996
20
69.20529719999999
10
226.99454219999998
20
69.2049924
10
227.12078019999998
20
69.12932579999999
10
227.1212374
20
69.1290464
10
227.12182159999998
20
69.12863999999999
10
227.2400586
20
69.04095919999999
10
227.24051579999997
20
69.0406036
10
227.24102380000002
20
69.0401718
10
227.35006599999997
20
68.94131499999999
10
227.3505232
20
68.9408832
10
227.350955
20
68.94042599999999
10
227.4498118
20
68.8313838
10
227.4502436
20
68.8308758
10
227.4505992
20
68.83041859999999
10
227.53828
20
68.7121816
10
227.5386864
20
68.7115974
10
227.5389658
20
68.7111402
10
227.6146324
20
68.5849022
10
227.6149372
20
68.5843688
10
227.61521659999997
20
68.58380999999999
10
227.67815779999998
20
68.45073939999999
10
227.6783864
20
68.450206
10
227.67864039999998
20
68.4495964
10
227.7282212
20
68.311014
10
227.728399
20
68.31048059999999
10
227.7285768
20
68.3098202
10
227.76434
20
68.1670468
10
227.76449239999997
20
68.1664118
10
227.764594
20
68.16580219999999
10
227.786184
20
68.02020939999998
10
227.78626019999996
20
68.01965059999999
10
227.78631099999998
20
68.01896479999999
10
227.79352459999998
20
67.87197499999999
10
227.79354999999998
20
67.871594
10
227.79354999999998
20
67.87133999999999
10
227.79354999999998
20
60.9226874
10
227.8513858
20
60.5177098
10
227.96845439999996
20
60.137776599999995
10
228.1434858
20
59.78083039999999
10
228.37218739999997
20
59.4556342
10
228.64892039999998
20
59.17018899999999
10
228.966903
20
58.93155599999999
10
229.3182612
20
58.745551799999994
10
229.6944098
20
58.6167992
10
230.08584919999998
20
58.54847319999999
10
230.26324279999997
20
58.54572999999999
10
233.21517999999998
20
58.54572999999999
10
233.21543400000002
20
58.54572999999999
10
233.215815
20
58.5457046
10
233.3628048
20
58.53849099999999
10
233.36349059999998
20
58.5384402
10
233.3640494
20
58.538364
10
233.5096422
20
58.516774
10
233.5102518
20
58.51667239999999
10
233.51088679999998
20
58.51651999999999
10
233.65366019999996
20
58.4807568
10
233.65432059999998
20
58.480579
10
233.65485399999997
20
58.480401199999996
10
233.7934364
20
58.430820399999995
10
233.79404599999998
20
58.43056639999999
10
233.7945794
20
58.4303378
10
233.92764999999997
20
58.36739659999999
10
233.92820879999996
20
58.3671172
10
233.92874219999996
20
58.36681239999999
10
234.0549802
20
58.291145799999995
10
234.0554374
20
58.2908664
10
234.0560216
20
58.29046
10
234.1742586
20
58.202779199999995
10
234.17471579999997
20
58.2024236
10
234.1752238
20
58.201991799999995
10
234.28426599999997
20
58.103134999999995
10
234.28472319999997
20
58.10270319999999
10
234.28515499999997
20
58.102245999999994
10
234.3840118
20
57.993203799999996
10
234.3844436
20
57.99269579999999
10
234.38479919999997
20
57.99223859999999
10
234.47247999999996
20
57.87400159999999
10
234.4728864
20
57.8734174
10
234.4731658
20
57.872960199999994
10
234.5488324
20
57.7467222
10
234.5491372
20
57.74618879999999
10
234.54941659999997
20
57.74563
10
234.61235779999996
20
57.612559399999995
10
234.61258639999997
20
57.612026
10
234.6128404
20
57.611416399999996
10
234.66242119999998
20
57.472834
10
234.662599
20
57.4723006
10
234.6627768
20
57.471640199999996
10
234.69853999999998
20
57.3288668
10
234.6986924
20
57.32823179999999
10
234.69879399999996
20
57.3276222
10
234.72038399999997
20
57.1820294
10
234.7204602
20
57.1814706
10
234.72051099999996
20
57.180784800000005
10
234.7277246
20
57.033795
10
234.72775000000001
20
57.033159999999995
10
234.7277246
20
57.032525
10
234.72051099999996
20
56.88553519999999
10
234.7204602
20
56.8848494
10
234.72038399999997
20
56.8842906
10
234.69879399999996
20
56.7386978
10
234.6986924
20
56.73808819999999
10
234.69853999999998
20
56.7374532
10
234.6627768
20
56.594679799999994
10
234.662599
20
56.5940194
10
234.66242119999998
20
56.59348599999999
10
234.6128404
20
56.4549036
10
234.61258639999997
20
56.454294
10
234.61235779999996
20
56.4537606
10
234.54941659999997
20
56.32069
10
234.5491372
20
56.3201312
10
234.5488324
20
56.3195978
10
234.4731658
20
56.1933598
10
234.4728864
20
56.1929026
10
234.47247999999996
20
56.19231839999999
10
234.38479919999997
20
56.074081400000004
10
234.3844436
20
56.0736242
10
234.3840118
20
56.0731162
10
234.28515499999997
20
55.964074
10
234.28472319999997
20
55.96361679999999
10
234.28426599999997
20
55.963184999999996
10
234.1752238
20
55.864328199999996
10
234.17471579999997
20
55.863896399999994
10
234.1742586
20
55.8635408
10
234.0560216
20
55.775859999999994
10
234.0554374
20
55.7754536
10
234.0549802
20
55.7751742
10
233.92874219999996
20
55.6995076
10
233.92820879999996
20
55.699202799999995
10
233.92764999999997
20
55.69892339999999
10
233.7945794
20
55.635982199999994
10
233.79404599999998
20
55.635753599999994
10
233.7934364
20
55.635499599999996
10
233.65485399999997
20
55.5859188
10
233.65432059999998
20
55.585741
10
233.65366019999996
20
55.585563199999996
10
233.51088679999998
20
55.54979999999999
10
233.5102518
20
55.54964759999999
10
233.5096422
20
55.549546
10
233.3640494
20
55.527955999999996
10
233.36349059999998
20
55.527879799999994
10
233.3628048
20
55.527829000000004
10
233.215815
20
55.5206154
10
233.21543400000002
20
55.52058999999999
10
233.21517999999998
20
55.52058999999999
10
230.88528879999998
20
55.52058999999999
10
230.3506696
20
55.481524799999995
10
229.8909296
20
55.373879599999995
10
229.45369399999998
20
55.195647799999996
10
229.04970699999998
20
54.95119819999999
10
228.68895079999996
20
54.64655059999999
10
228.38026459999998
20
54.2892234
10
228.1312938
20
53.888005
10
227.94815979999998
20
53.4528014
10
227.83599339999998
20
52.99692219999999
10
227.79354999999998
20
52.4712946
10
227.79354999999998
20
37.265406799999994
10
227.90683399999998
20
36.0378756
10
228.1832622
20
34.8749366
10
228.6207264
20
33.7625182
10
229.21048899999997
20
32.7227946
10
229.9408406
20
31.776492199999996
10
230.7969222
20
30.942788
10
231.5636974
20
30.383276799999997
10
231.60763939999998
20
30.373675599999995
10
231.607868
20
30.3736248
10
231.60812199999998
20
30.373548599999996
10
232.98089039999996
20
30.017186599999995
10
232.9812968
20
30.0170596
10
232.9813476
20
30.0170596
10
233.09315839999996
20
29.9833284
10
233.093768
20
29.9831252
10
233.0940982
20
29.9829982
10
233.2029626
20
29.940681799999997
10
233.20324199999996
20
29.9405548
10
233.20341979999998
20
29.940504
10
234.50425539999998
20
29.3754556
10
234.504484
20
29.375353999999998
10
234.50471259999998
20
29.3752524
10
234.60994479999997
20
29.3246048
10
234.61030039999997
20
29.324401599999998
10
234.6108084
20
29.324122199999998
10
234.7117734
20
29.2654228
10
234.7122052
20
29.265168799999998
10
235.9096374
20
28.505175400000002
10
235.9096374
20
28.505175400000002
10
235.91004379999998
20
28.504895999999995
10
236.00613199999998
20
28.438525799999997
10
236.0065892
20
28.4381956
10
236.0069194
20
28.4379416
10
236.09757199999999
20
28.364281599999995
10
236.0976736
20
28.364179999999998
10
236.097953
20
28.3639768
10
236.99282039999997
20
27.577033999999998
10
237.0767674
20
27.522754199999994
10
237.07722459999997
20
27.522424
10
237.0777834
20
27.5220176
10
237.19294699999998
20
27.430349
10
237.1933534
20
27.4300188
10
237.1934296
20
27.429968
10
238.1701612
20
26.571067
10
239.168686
20
25.937438599999997
10
240.2534184
20
25.4664464
10
241.39748519999998
20
25.1696728
10
242.5587224
20
25.056541199999998
10
243.8330404
20
25.1568204
10
245.08978159999998
20
25.458547
10
246.28383559999997
20
25.9531358
10
247.3858146
20
26.628420199999997
10
248.36859139999996
20
27.4677886
10
249.2079598
20
28.4505654
10
249.88324419999998
20
29.5525444
10
250.37783299999998
20
30.7465984
10
250.6792548
20
32.002095
10
250.7875604
20
33.4079596
10
250.78758579999996
20
33.4082644
10
250.7876112
20
33.4085692
10
250.80610240000001
20
33.5545938
10
250.8062294
20
33.555330399999995
10
250.80633099999997
20
33.5558384
10
250.81229999999996
20
33.5820004
10
250.81229999999996
20
47.352965999999995
10
250.7252796
20
48.458780399999995
10
250.42355299999997
20
49.715521599999995
10
249.92896419999997
20
50.9095756
10
249.25367979999996
20
52.011554600000004
10
248.4143114
20
52.99433139999999
10
247.43153459999996
20
53.8336998
10
246.3295556
20
54.5089842
10
245.1355016
20
55.003572999999996
10
243.87876039999998
20
55.3052996
10
242.47165119999997
20
55.4160436
10
242.4713464
20
55.416069
10
242.4710162
20
55.41609439999999
10
242.46827299999998
20
55.41645
10
238.67109999999997
20
55.41645
10
238.67084599999998
20
55.41645
10
238.670465
20
55.4164754
10
238.5234752
20
55.423688999999996
10
238.52278939999997
20
55.42373979999999
10
238.5222306
20
55.423816
10
238.3766378
20
55.445406
10
238.3760282
20
55.4455076
10
238.37539319999996
20
55.44566
10
238.23261979999998
20
55.4814232
10
238.2319594
20
55.48160099999999
10
238.23142599999997
20
55.481778799999994
10
238.0928436
20
55.531359599999995
10
238.09223400000002
20
55.5316136
10
238.0917006
20
55.5318422
10
237.95862999999997
20
55.5947834
10
237.95807119999998
20
55.595062799999994
10
237.95753779999998
20
55.5953676
10
237.83129979999998
20
55.671034199999994
10
237.83084259999998
20
55.671313600000005
10
237.8302584
20
55.67172
10
237.7120214
20
55.759400799999995
10
237.71156419999997
20
55.7597564
10
237.7110562
20
55.760188199999995
10
237.60201399999997
20
55.859044999999995
10
237.6015568
20
55.859476799999996
10
237.60112499999997
20
55.859933999999996
10
237.5022682
20
55.96897619999999
10
237.5018364
20
55.9694842
10
237.5014808
20
55.969941399999996
10
237.41379999999998
20
56.0881784
10
237.4133936
20
56.0887626
10
237.4131142
20
56.089219799999995
10
237.3374476
20
56.2154578
10
237.3371428
20
56.2159912
10
237.33686339999997
20
56.21655
10
237.2739222
20
56.349620599999994
10
237.27369359999997
20
56.350154
10
237.2734396
20
56.3507636
10
237.2238588
20
56.489346
10
237.223681
20
56.48987939999999
10
237.22350319999998
20
56.4905398
10
237.18774000000002
20
56.6333132
10
237.18758759999997
20
56.6339482
10
237.18748599999998
20
56.634557799999996
10
237.16589599999998
20
56.7801506
10
237.16581979999998
20
56.78070939999999
10
237.16576899999998
20
56.7813952
10
237.15855539999995
20
56.92838499999999
10
237.15852999999998
20
56.929019999999994
10
237.15855539999995
20
56.92965499999999
10
237.16576899999998
20
57.0766448
10
237.16581979999998
20
57.0773306
10
237.16589599999998
20
57.077889400000004
10
237.18748599999998
20
57.22348219999999
10
237.18758759999997
20
57.2240918
10
237.18774000000002
20
57.2247268
10
237.22350319999998
20
57.3675002
10
237.223681
20
57.3681606
10
237.2238588
20
57.368694
10
237.2734396
20
57.5072764
10
237.27369359999997
20
57.50788599999999
10
237.2739222
20
57.5084194
10
237.33686339999997
20
57.641490000000005
10
237.3371428
20
57.6420488
10
237.3374476
20
57.6425822
10
237.4131142
20
57.7688202
10
237.4133936
20
57.76927739999999
10
237.41379999999998
20
57.7698616
10
237.5014808
20
57.8880986
10
237.5018364
20
57.8885558
10
237.5022682
20
57.8890638
10
237.60112499999997
20
57.99810599999999
10
237.6015568
20
57.9985632
10
237.60201399999997
20
57.998994999999994
10
237.7110562
20
58.097851799999994
10
237.71156419999997
20
58.098283599999995
10
237.7120214
20
58.0986392
10
237.8302584
20
58.186319999999995
10
237.83084259999998
20
58.1867264
10
237.83129979999998
20
58.1870058
10
237.95753779999998
20
58.2626724
10
237.95807119999998
20
58.262977199999995
10
237.95862999999997
20
58.2632566
10
238.0917006
20
58.3261978
10
238.09223400000002
20
58.326426399999995
10
238.0928436
20
58.3266804
10
238.23142599999997
20
58.376261199999995
10
238.2319594
20
58.376439
10
238.23261979999998
20
58.376616799999994
10
238.37539319999996
20
58.41238
10
238.3760282
20
58.412532399999996
10
238.3766378
20
58.412634
10
238.5222306
20
58.43422399999999
10
238.52278939999997
20
58.434300199999996
10
238.5234752
20
58.434351
10
238.670465
20
58.44156459999999
10
238.67084599999998
20
58.44159
10
238.67109999999997
20
58.44159
10
242.594257
20
58.44159
10
243.87688079999998
20
58.5434948
10
245.13275839999997
20
58.845881799999994
10
246.3259488
20
59.34092779999999
10
247.4270388
20
60.016466199999996
10
248.408952
20
60.855834599999994
10
249.2475584
20
61.838408199999996
10
249.9222332
20
62.9400316
10
250.4163394
20
64.1335776
10
250.71745639999997
20
65.38848999999999
10
250.81229999999996
20
66.6202122
10
250.81229999999996
20
67.893946
10
250.7252796
20
68.9997604
10
250.42355299999997
20
70.25650159999999
10
249.92896419999997
20
71.45055559999999
10
249.25367979999996
20
72.5525346
10
248.4143114
20
73.5353114
10
247.43153459999996
20
74.3746798
10
246.3295556
20
75.04996419999999
10
245.1355016
20
75.544553
10
243.87876039999998
20
75.84627959999999
10
242.65371839999997
20
75.9426726
10
242.56238
20
75.9399294
10
242.56184659999997
20
75.9399294
10
242.56110999999999
20
75.9399548
10
242.4142726
20
75.949937
10
242.41371379999998
20
75.94998779999999
10
242.413028
20
75.9500894
10
242.3692638
20
75.95743
10
230.3940782
20
75.95743
10
229.9391134
20
75.92019359999999
10
229.5512046
20
75.82578179999999
10
229.18282839999998
20
75.6718578
10
228.843078
20
75.4621808
10
228.54031
20
75.2019578
10
228.28199199999997
20
74.8975642
10
228.0744486
20
74.5565184
10
227.922836
20
74.187177
10
227.83015139999998
20
73.7957376
10
227.78877479999997
20
73.2758758
10
227.7887494
20
73.2755964
10
227.78872399999997
20
73.2752662
10
227.78697139999997
20
73.2617788
10
227.78631099999998
20
73.24821519999999
10
227.78626019999996
20
73.24752939999999
10
227.786184
20
73.2469706
10
227.7774718
20
73.188195
10
227.76985179999997
20
73.1292924
10
227.76977559999997
20
73.12870819999999
10
227.76964859999998
20
73.1280732
10
227.76660059999998
20
73.1148144
10
227.764594
20
73.1013778
10
227.76449239999997
20
73.10076819999999
10
227.76434
20
73.1001332
10
227.7499128
20
73.042526
10
227.73657779999996
20
72.98463939999999
10
227.73645079999997
20
72.9841314
10
227.73622219999996
20
72.9834456
10
227.73187879999998
20
72.9705424
10
227.7285768
20
72.95735979999999
10
227.728399
20
72.95669939999999
10
227.7282212
20
72.956166
10
227.708206
20
72.9002352
10
227.68925759999996
20
72.8439488
10
227.689029
20
72.84333919999999
10
227.6888004
20
72.8427804
10
227.68321239999997
20
72.8303852
10
227.67864039999998
20
72.81758359999999
10
227.6783864
20
72.816974
10
227.67815779999998
20
72.81644059999999
10
227.6527578
20
72.762745
10
227.62837380000002
20
72.7085668
10
227.6281452
20
72.7081096
10
227.62781499999997
20
72.7074492
10
227.6210332
20
72.69566359999999
10
227.61521659999997
20
72.68337
10
227.6149372
20
72.68281119999999
10
227.6146324
20
72.6822778
10
227.58410159999997
20
72.6313254
10
227.55453599999998
20
72.5798142
10
227.55420579999998
20
72.57930619999999
10
227.55385019999997
20
72.5787728
10
227.54595079999996
20
72.5676984
10
227.5389658
20
72.5560398
10
227.5386864
20
72.5555826
10
227.53828
20
72.55499839999999
10
227.50289779999997
20
72.5072718
10
227.46840459999999
20
72.45891019999999
10
227.4680236
20
72.4584022
10
227.46764259999998
20
72.4579196
10
227.45870179999997
20
72.4476834
10
227.4505992
20
72.4367614
10
227.4502436
20
72.4363042
10
227.4498118
20
72.4357962
10
227.4099084
20
72.391778
10
227.3708432
20
72.3470232
10
227.37038599999997
20
72.3465406
10
227.36997960000002
20
72.3461342
10
227.360099
20
72.3368124
10
227.350955
20
72.32675400000001
10
227.3505232
20
72.3262968
10
227.35006599999997
20
72.32586500000001
10
227.30607320000001
20
72.2859616
10
227.26281699999998
20
72.2452454
10
227.2623344
20
72.244839
10
227.2618518
20
72.244458
10
227.25108219999996
20
72.23615219999999
10
227.24102380000002
20
72.2270082
10
227.24051579999997
20
72.2265764
10
227.2400586
20
72.2262208
10
227.192332
20
72.19083859999999
10
227.1452912
20
72.15456739999999
10
227.1447578
20
72.15416099999999
10
227.1442752
20
72.15385619999999
10
227.13274359999997
20
72.14664259999999
10
227.12182159999998
20
72.13853999999999
10
227.1212374
20
72.1381336
10
227.12078019999998
20
72.13785419999999
10
227.06985319999998
20
72.1073234
10
227.019485
20
72.0758274
10
227.0188246
20
72.0754464
10
227.0183928
20
72.0752178
10
227.00620080000002
20
72.06917259999999
10
226.99454219999998
20
72.0621876
10
226.99400879999996
20
72.06188279999999
10
226.99345
20
72.0616034
10
226.93975439999997
20
72.03620339999999
10
226.8865414
20
72.0097874
10
226.8859318
20
72.009508
10
226.88539839999999
20
72.0093048
10
226.872673
20
72.0044788
10
226.8603794
20
71.9986622
10
226.859846
20
71.9984336
10
226.8592364
20
71.9981796
10
226.8033056
20
71.9781644
10
226.7477558
20
71.95710779999999
10
226.7472732
20
71.95692999999999
10
226.74656199999998
20
71.9567268
10
226.73345559999996
20
71.9531708
10
226.72065399999997
20
71.9485988
10
226.72012059999997
20
71.948421
10
226.7194602
20
71.9482432
10
226.66182759999998
20
71.9337906
10
226.60449979999996
20
71.91829659999999
10
226.60389019999997
20
71.9181442
10
226.60328059999998
20
71.91801720000001
10
226.5898694
20
71.915782
10
226.57668679999998
20
71.91247999999999
10
226.57605180000002
20
71.9123276
10
226.57544219999997
20
71.91222599999999
10
226.51669199999998
20
71.9035138
10
226.45811959999997
20
71.893684
10
226.45756079999998
20
71.8936078
10
226.456875
20
71.893557
10
226.4433114
20
71.89261719999999
10
226.4298494
20
71.890636
10
226.42929059999997
20
71.8905598
10
226.4286048
20
71.890509
10
226.36929579999997
20
71.887588
10
226.3100122
20
71.88357479999999
10
226.309428
20
71.8835494
10
226.30876759999998
20
71.8835494
10
226.29517859999999
20
71.8839558
10
226.281615
20
71.8832954
10
226.28097999999997
20
71.88327
10
226.280345
20
71.8832954
10
226.221036
20
71.886191
10
226.1616508
20
71.8879944
10
226.1609904
20
71.8880452
10
226.16040619999998
20
71.88809599999999
10
226.1469188
20
71.88984860000001
10
226.1333552
20
71.890509
10
226.13266939999997
20
71.8905598
10
226.1321106
20
71.890636
10
226.073335
20
71.89934819999999
10
226.01443239999998
20
71.9069682
10
226.01384819999998
20
71.90704439999999
10
226.0132132
20
71.9071714
10
225.9999544
20
71.91021939999999
10
225.9865178
20
71.91222599999999
10
225.98590819999998
20
71.9123276
10
225.98527319999997
20
71.91247999999999
10
225.927666
20
71.92690719999999
10
225.8697794
20
71.9402422
10
225.86927139999997
20
71.9403692
10
225.8685856
20
71.9405978
10
225.8556824
20
71.9449412
10
225.84249979999998
20
71.9482432
10
225.84183939999997
20
71.948421
10
225.84130599999997
20
71.9485988
10
225.7853752
20
71.968614
10
225.7290888
20
71.9875624
10
225.72847919999998
20
71.987791
10
225.72792040000002
20
71.9880196
10
225.7155252
20
71.9936076
10
225.7027236
20
71.9981796
10
225.70211400000002
20
71.9984336
10
225.7015806
20
71.9986622
10
225.64788499999997
20
72.02406219999999
10
225.59370679999998
20
72.04844619999999
10
225.5932496
20
72.04867479999999
10
225.5925892
20
72.049005
10
225.58080359999997
20
72.05578679999999
10
225.56850999999997
20
72.0616034
10
225.56795119999998
20
72.06188279999999
10
225.5674178
20
72.0621876
10
225.5164654
20
72.0927184
10
225.4649542
20
72.122284
10
225.46444619999997
20
72.12261419999999
10
225.46391279999997
20
72.12296979999999
10
225.4528384
20
72.13086919999999
10
225.44117979999996
20
72.13785419999999
10
225.4407226
20
72.1381336
10
225.4401384
20
72.13853999999999
10
225.39241179999996
20
72.17392219999999
10
225.34405019999997
20
72.20841539999999
10
225.3435422
20
72.2087964
10
225.3430596
20
72.2091774
10
225.3328234
20
72.21811819999999
10
225.3219014
20
72.2262208
10
225.32144419999997
20
72.2265764
10
225.3209362
20
72.2270082
10
225.276918
20
72.2669116
10
225.23216319999997
20
72.3059768
10
225.23168059999998
20
72.306434
10
225.2312742
20
72.3068404
10
225.2219524
20
72.316721
10
225.21189399999997
20
72.32586500000001
10
225.2114368
20
72.3262968
10
225.21100499999997
20
72.32675400000001
10
225.17110160000001
20
72.37074679999999
10
225.13038539999997
20
72.414003
10
225.12997899999996
20
72.41448559999999
10
225.129598
20
72.41496819999999
10
225.12129219999997
20
72.4257378
10
225.1121482
20
72.4357962
10
225.1117164
20
72.4363042
10
225.1113608
20
72.4367614
10
225.07597859999998
20
72.484488
10
225.03970739999997
20
72.53152879999999
10
225.03930099999997
20
72.5320622
10
225.03899619999999
20
72.5325448
10
225.0317826
20
72.5440764
10
225.02367999999998
20
72.55499839999999
10
225.0232736
20
72.5555826
10
225.0229942
20
72.5560398
10
224.99246339999996
20
72.6069668
10
224.9609674
20
72.65733499999999
10
224.9605864
20
72.6579954
10
224.9603578
20
72.6584272
10
224.9543126
20
72.67061919999999
10
224.9473276
20
72.6822778
10
224.94702279999998
20
72.68281119999999
10
224.94674339999997
20
72.68337
10
224.92134339999998
20
72.7370656
10
224.8949274
20
72.7902786
10
224.894648
20
72.7908882
10
224.8944448
20
72.79142159999999
10
224.8896188
20
72.804147
10
224.8838022
20
72.81644059999999
10
224.88357359999998
20
72.816974
10
224.8833196
20
72.81758359999999
10
224.86330439999998
20
72.87351439999999
10
224.8422478
20
72.9290642
10
224.84206999999998
20
72.9295468
10
224.84186680000002
20
72.930258
10
224.83831080000002
20
72.94336440000001
10
224.8337388
20
72.956166
10
224.833561
20
72.95669939999999
10
224.8333832
20
72.95735979999999
10
224.8189306
20
73.0149924
10
224.8034366
20
73.07232020000001
10
224.8032842
20
73.0729298
10
224.80315719999996
20
73.0735394
10
224.80092199999996
20
73.0869506
10
224.79762
20
73.1001332
10
224.79746759999998
20
73.10076819999999
10
224.79736599999998
20
73.1013778
10
224.7886538
20
73.160128
10
224.778824
20
73.2187004
10
224.77874780000002
20
73.2192592
10
224.778697
20
73.219945
10
224.77775719999997
20
73.2335086
10
224.77577599999998
20
73.2469706
10
224.77569979999998
20
73.24752939999999
10
224.775649
20
73.24821519999999
10
224.77331219999996
20
73.29586559999998
10
224.7261952
20
73.8022654
10
224.62561119999998
20
74.1964988
10
224.46457519999998
20
74.5701328
10
224.247075
20
74.91399799999999
10
223.97847
20
75.2196108
10
223.6653642
20
75.47942739999999
10
223.3154538
20
75.68704699999999
10
222.93737480000001
20
75.837415
10
222.54042359999997
20
75.92674679999999
10
222.0641736
20
75.95743
10
219.52458
20
75.95743
10
219.52432599999997
20
75.95743
10
219.523945
20
75.9574554
10
219.45579679999997
20
75.96078279999999
10
219.3876232
20
75.963653
10
219.3869882
20
75.96370379999999
10
219.3863786
20
75.96378
10
219.38167959999998
20
75.9644404
10
219.3769552
20
75.964669
10
219.37626939999998
20
75.9647198
10
219.3757106
20
75.964796
10
219.30819739999998
20
75.9748036
10
219.24063339999998
20
75.9843286
10
219.2399476
20
75.98445559999999
10
219.23941419999997
20
75.9845826
10
219.23479139999998
20
75.9857002
10
219.2301178
20
75.986386
10
219.2295082
20
75.9864876
10
219.22887319999998
20
75.98664
10
219.16268079999998
20
76.0032008
10
219.0963868
20
76.0193298
10
219.0957518
20
76.0194822
10
219.095193
20
76.01968539999999
10
219.09069719999997
20
76.02123479999999
10
219.08609979999997
20
76.0224032
10
219.08543939999998
20
76.022581
10
219.08490599999996
20
76.02275879999999
10
219.0206694
20
76.04574579999999
10
218.95625499999997
20
76.06827559999999
10
218.9556708
20
76.06850419999999
10
218.9550866
20
76.06875819999999
10
218.950794
20
76.0707394
10
218.9463236
20
76.07233959999999
10
218.945714
20
76.0725936
10
218.94518060000001
20
76.07282219999999
10
218.88348399999998
20
76.1020068
10
218.8216096
20
76.13073419999999
10
218.821
20
76.1310136
10
218.82049199999997
20
76.1313184
10
218.8164026
20
76.13373139999999
10
218.81210999999996
20
76.1357634
10
218.81155119999997
20
76.1360428
10
218.81101779999997
20
76.1363476
10
218.7524962
20
76.171425
10
218.6937206
20
76.20609599999999
10
218.69318719999998
20
76.2064262
10
218.69267919999996
20
76.2067818
10
218.6888438
20
76.2095758
10
218.68477979999997
20
76.2120142
10
218.6843226
20
76.2122936
10
218.68373839999998
20
76.2127
10
218.6289252
20
76.25334
10
218.57383259999997
20
76.293599
10
218.57329919999998
20
76.2940308
10
218.57286739999998
20
76.2943864
10
218.56931139999998
20
76.29756139999999
10
218.5655014
20
76.3003808
10
218.56504419999996
20
76.3007364
10
218.5645362
20
76.30116819999999
10
218.51399019999997
20
76.3469898
10
218.4630886
20
76.3924558
10
218.4625806
20
76.3929638
10
218.46219959999996
20
76.3933448
10
218.45899919999997
20
76.3968246
10
218.455494
20
76.40002499999999
10
218.45503680000002
20
76.4004568
10
218.45460499999996
20
76.40091399999999
10
218.40878339999998
20
76.45146
10
218.3625808
20
76.50170119999999
10
218.36222519999998
20
76.502133
10
218.36179339999998
20
76.5026664
10
218.3589486
20
76.506451
10
218.3557482
20
76.50995619999999
10
218.35531640000002
20
76.5104642
10
218.35496080000001
20
76.5109214
10
218.31432080000002
20
76.5657346
10
218.2732744
20
76.62024299999999
10
218.27291879999999
20
76.620751
10
218.27258859999998
20
76.62128440000001
10
218.2700994
20
76.6253484
10
218.26727999999997
20
76.6291584
10
218.2668736
20
76.6297426
10
218.2665942
20
76.6301998
10
218.23151679999998
20
76.68872139999999
10
218.19600759999997
20
76.746989
10
218.1956774
20
76.7475732
10
218.19542339999998
20
76.74808119999999
10
218.19336599999997
20
76.7523738
10
218.1909276
20
76.7564378
10
218.1906228
20
76.7569712
10
218.1903434
20
76.75752999999999
10
218.16115879999998
20
76.8192266
10
218.1315424
20
76.8806946
10
218.13128840000002
20
76.8812788
10
218.1310598
20
76.8818376
10
218.1294342
20
76.88630799999999
10
218.12740219999998
20
76.8906006
10
218.12717359999996
20
76.891134
10
218.12691959999998
20
76.8917436
10
218.1039326
20
76.9560056
10
218.08048839999998
20
77.0200898
10
218.08033599999996
20
77.020547
10
218.08013279999997
20
77.02125819999999
10
218.07893899999996
20
77.0258556
10
218.0773388
20
77.030326
10
218.077161
20
77.0308594
10
218.0769832
20
77.0315198
10
218.060397
20
77.0977122
10
218.0433536
20
77.163803
10
218.04320119999997
20
77.1643618
10
218.0430996
20
77.1650222
10
218.042363
20
77.1696958
10
218.04122
20
77.1742932
10
218.0410676
20
77.1749282
10
218.04096599999997
20
77.17553779999999
10
218.03095839999997
20
77.2430256
10
218.02046819999998
20
77.3104626
10
218.02044279999998
20
77.31061499999998
10
218.020392
20
77.3110722
10
217.9749006
20
77.7414498
10
217.8935444
20
78.0444464
10
217.7657824
20
78.3310092
10
217.5947642
20
78.5940262
10
217.38470619999998
20
78.82707119999999
10
217.1407646
20
79.0243784
10
216.8689846
20
79.1810964
10
216.57602099999997
20
79.2933644
10
216.26911280000002
20
79.35843919999999
10
215.8760478
20
79.37881
10
196.8558674
20
79.37881
10
196.52739459999998
20
79.345282
10
196.23570099999998
20
79.27312059999998
10
195.9570376
20
79.1607002
10
195.6968908
20
79.0103068
10
195.4604422
20
78.82486139999999
10
195.2521114
20
78.6078184
10
195.0138086
20
78.277212
10
195.01358
20
78.2768818
10
195.01342759999997
20
78.276704
10
195.01233539999998
20
78.2753324
10
195.0113702
20
78.27385919999999
10
195.0112178
20
78.273656
10
195.01101459999998
20
78.2733512
10
194.87911239999997
20
78.0915634
10
194.8390058
20
78.0246598
10
194.83872639999998
20
78.0242026
10
194.83831999999998
20
78.02361839999999
10
194.75063919999997
20
77.9053814
10
194.7502836
20
77.9049242
10
194.7498518
20
77.9044162
10
194.7172128
20
77.868399
10
194.70936419999998
20
77.8575786
10
194.7090848
20
77.85722299999999
10
194.7088054
20
77.8568928
10
194.5764206
20
77.6986254
10
194.5761158
20
77.6982444
10
194.57583640000001
20
77.697965
10
194.2200586
20
77.327633
10
194.2197792
20
77.3273536
10
194.2193982
20
77.32699799999999
10
194.06293419999997
20
77.1855454
10
194.0626548
20
77.1852914
10
194.0622484
20
77.1849612
10
193.65803279999997
20
76.8681978
10
193.657728
20
76.8679692
10
193.6572962
20
76.8676898
10
193.48254419999998
20
76.74957979999999
10
193.48208699999998
20
76.7493004
10
193.4817822
20
76.7490972
10
193.03710439999998
20
76.49217619999999
10
193.0367234
20
76.491973
10
193.036317
20
76.49176979999999
10
192.84670599999998
20
76.3993392
10
192.8464012
20
76.3991868
10
192.84589319999998
20
76.3989836
10
192.3695924
20
76.2069596
10
192.36918599999998
20
76.2068072
10
192.36875419999998
20
76.2066548
10
192.1680434
20
76.1417578
10
192.1676116
20
76.14163079999999
10
192.16717979999999
20
76.1415038
10
191.66865399999998
20
76.01823759999999
10
191.66829839999997
20
76.018136
10
191.66779039999997
20
76.01803439999999
10
191.4599676
20
75.98194099999999
10
191.4594088
20
75.98183939999998
10
191.4590786
20
75.981814
10
190.948183
20
75.9296932
10
190.947929
20
75.92966779999999
10
190.94754799999998
20
75.92964239999999
10
190.945516
20
75.9295154
10
190.94350939999998
20
75.92923599999999
10
190.9429506
20
75.9291598
10
190.9422648
20
75.929109
10
190.8714242
20
75.9256292
10
190.80055819999998
20
75.9218954
10
190.7998978
20
75.92187
10
190.79931359999998
20
75.9218954
10
190.7972816
20
75.92199699999999
10
190.795275
20
75.9218954
10
190.794894
20
75.92187
10
190.79464
20
75.92187
10
182.34913999999998
20
75.92187
10
182.348886
20
75.92187
10
182.348505
20
75.9218954
10
182.2015152
20
75.929109
10
182.2008294
20
75.9291598
10
182.20027059999998
20
75.92923599999999
10
182.05467779999998
20
75.95082599999999
10
182.0540682
20
75.95092759999999
10
182.0534332
20
75.95108
10
181.9106598
20
75.9868432
10
181.9099994
20
75.987021
10
181.90946599999998
20
75.9871988
10
181.7708836
20
76.0367796
10
181.770274
20
76.03703359999999
10
181.7697406
20
76.0372622
10
181.63666999999998
20
76.1002034
10
181.6361112
20
76.1004828
10
181.6355778
20
76.10078759999999
10
181.5093398
20
76.1764542
10
181.5088826
20
76.17673359999999
10
181.5082984
20
76.17714
10
181.39006139999998
20
76.2648208
10
181.38960419999998
20
76.26517639999999
10
181.38909619999998
20
76.2656082
10
181.28005399999998
20
76.364465
10
181.2795968
20
76.3648968
10
181.27916499999998
20
76.365354
10
181.18030819999998
20
76.4743962
10
181.1798764
20
76.4749042
10
181.1795208
20
76.4753614
10
181.09184
20
76.5935984
10
181.0914336
20
76.5941826
10
181.09115419999998
20
76.5946398
10
181.0154876
20
76.7208778
10
181.0151828
20
76.72141119999999
10
181.0149034
20
76.72197
10
180.9519622
20
76.8550406
10
180.95173359999998
20
76.85557399999999
10
180.9514796
20
76.8561836
10
180.9018988
20
76.99476599999998
10
180.90172099999998
20
76.9952994
10
180.9015432
20
76.9959598
10
180.86578
20
77.13873319999999
10
180.8656276
20
77.1393682
10
180.865526
20
77.1399778
10
180.84393599999999
20
77.2855706
10
180.8438598
20
77.2861294
10
180.843809
20
77.28681519999999
10
180.8365954
20
77.43380499999999
10
180.83657
20
77.43444
10
180.8365954
20
77.435075
10
180.843809
20
77.5820648
10
180.8438598
20
77.5827506
10
180.84393599999999
20
77.58330939999999
10
180.865526
20
77.7289022
10
180.8656276
20
77.7295118
10
180.86578
20
77.7301468
10
180.9015432
20
77.8729202
10
180.90172099999998
20
77.8735806
10
180.9018988
20
77.874114
10
180.9514796
20
78.0126964
10
180.95173359999998
20
78.013306
10
180.9519622
20
78.0138394
10
181.0149034
20
78.14690999999999
10
181.0151828
20
78.1474688
10
181.0154876
20
78.1480022
10
181.09115419999998
20
78.2742402
10
181.0914336
20
78.2746974
10
181.09184
20
78.2752816
10
181.1795208
20
78.3935186
10
181.1798764
20
78.39397579999999
10
181.18030819999998
20
78.39448379999999
10
181.27916499999998
20
78.503526
10
181.2795968
20
78.5039832
10
181.28005399999998
20
78.504415
10
181.38909619999998
20
78.60327179999999
10
181.38960419999998
20
78.6037036
10
181.39006139999998
20
78.6040592
10
181.5082984
20
78.69174
10
181.5088826
20
78.6921464
10
181.5093398
20
78.6924258
10
181.6355778
20
78.7680924
10
181.6361112
20
78.7683972
10
181.63666999999998
20
78.76867659999999
10
181.7697406
20
78.83161779999999
10
181.770274
20
78.8318464
10
181.7708836
20
78.8321004
10
181.90946599999998
20
78.88168119999999
10
181.9099994
20
78.88185899999999
10
181.9106598
20
78.8820368
10
182.0534332
20
78.9178
10
182.0540682
20
78.9179524
10
182.05467779999998
20
78.918054
10
182.20027059999998
20
78.939644
10
182.2008294
20
78.9397202
10
182.2015152
20
78.939771
10
182.348505
20
78.9469846
10
182.348886
20
78.94701
10
182.34913999999998
20
78.94701
10
190.71767799999998
20
78.94701
10
191.04594759999998
20
78.9805126
10
191.3374634
20
79.0525978
10
191.61599979999997
20
79.1648658
10
191.87604499999998
20
79.3151068
10
192.1124174
20
79.500349
10
192.32209439999997
20
79.71858579999999
10
192.5611084
20
80.0479984
10
192.86019339999999
20
80.46295819999999
10
192.860422
20
80.46326299999998
10
192.86075219999998
20
80.46366939999999
10
192.9953976
20
80.62526419999999
10
192.9957532
20
80.6256452
10
192.99600719999998
20
80.6259246
10
193.35183579999998
20
80.996663
10
193.3521152
20
80.9969424
10
193.3524708
20
80.99727259999999
10
193.5089856
20
81.13887759999999
10
193.5093666
20
81.13923319999999
10
193.50967139999997
20
81.13946179999999
10
193.91401399999998
20
81.4565554
10
193.9143188
20
81.456784
10
193.9147506
20
81.4570888
10
194.08957879999997
20
81.5753258
10
194.0900106
20
81.5756306
10
194.0903408
20
81.5758084
10
194.5351964
20
81.8330088
10
194.5354504
20
81.83316119999999
10
194.53598379999997
20
81.83344059999999
10
194.72567099999998
20
81.9259474
10
194.72615359999998
20
81.926176
10
194.72648379999998
20
81.92632839999999
10
195.20303859999999
20
82.1185302
10
195.2034704
20
82.11870799999998
10
195.2039022
20
82.11883499999999
10
195.40468919999998
20
82.18383359999999
10
195.4051972
20
82.183986
10
195.4055528
20
82.1840622
10
195.9043834
20
82.3074808
10
195.904866
20
82.3076078
10
195.905247
20
82.307684
10
196.1131968
20
82.34382819999999
10
196.1135778
20
82.34387899999999
10
196.1140858
20
82.3439552
10
196.62528619999998
20
82.3961268
10
196.6255402
20
82.39615219999999
10
196.6258958
20
82.39617759999999
10
196.6279532
20
82.3962792
10
196.6300106
20
82.39658399999999
10
196.63056939999998
20
82.3966602
10
196.63125519999997
20
82.396711
10
196.7020704
20
82.40019079999999
10
196.7728856
20
82.4039246
10
196.773419
20
82.40395
10
196.77413019999997
20
82.4039246
10
196.7761876
20
82.40382299999999
10
196.778245
20
82.4039246
10
196.77862599999997
20
82.40395
10
196.77888
20
82.40395
10
215.91524
20
82.40395
10
215.915494
20
82.40395
10
215.91587499999997
20
82.4039246
10
215.9543814
20
82.40204499999999
10
215.9929386
20
82.4019434
10
215.9934466
20
82.401918
10
215.9935736
20
82.401918
10
216.54465199999999
20
82.37334299999999
10
216.54465199999999
20
82.37334299999999
10
216.54515999999998
20
82.3733176
10
216.6624318
20
82.36259879999999
10
216.6630414
20
82.36252259999999
10
216.6634224
20
82.3624718
10
216.77950039999996
20
82.3425836
10
216.77965279999998
20
82.3425582
10
216.77998299999996
20
82.342482
10
217.31980919999995
20
82.22805499999998
10
217.32011400000002
20
82.22797879999999
10
217.3202918
20
82.2279534
10
217.43446479999997
20
82.1990228
10
217.434922
20
82.1988958
10
217.43542999999997
20
82.1987434
10
217.5469614
20
82.16094819999999
10
217.54708839999998
20
82.1608974
10
217.5474186
20
82.16077039999999
10
218.0627084
20
81.96328539999999
10
218.0627084
20
81.96328539999999
10
218.06316560000002
20
81.9631076
10
218.171395
20
81.9166764
10
218.1718776
20
81.9164732
10
218.1723094
20
81.91624459999998
10
218.27655099999998
20
81.8614822
10
218.2768304
20
81.8613298
10
218.27698279999998
20
81.8612282
10
218.7550362
20
81.5855874
10
218.75513779999997
20
81.58553659999998
10
218.75546799999998
20
81.5853334
10
218.85508679999998
20
81.52254459999999
10
218.8554424
20
81.522316
10
218.85592499999998
20
81.5219858
10
218.9503114
20
81.4515516
10
218.9504892
20
81.4514246
10
218.9507178
20
81.4512468
10
219.3797492
20
81.1042066
10
219.38007939999997
20
81.1039526
10
219.38013019999997
20
81.1039018
10
219.4687254
20
81.02630479999999
10
219.46908100000002
20
81.0259492
10
219.4694366
20
81.02561899999999
10
219.55165639999998
20
80.94129099999999
10
219.55188499999997
20
80.94106239999999
10
219.552012
20
80.94093539999999
10
219.9214804
20
80.53105559999999
10
219.9216582
20
80.5308524
10
219.9217852
20
80.5306746
10
219.997147
20
80.4401744
10
219.99742639999997
20
80.4398188
10
219.9977566
20
80.439387
10
220.06577779999998
20
80.343248
10
220.0658794
20
80.3430956
10
220.0660572
20
80.3428162
10
220.36686939999998
20
79.880206
10
220.36692019999998
20
79.8801044
10
220.3671234
20
79.8797742
10
220.42739759999998
20
79.778606
10
220.4276008
20
79.77822499999999
10
220.42788019999998
20
79.777717
10
220.48002639999999
20
79.6721292
10
220.4801026
20
79.671926
10
220.4802296
20
79.671672
10
220.7049434
20
79.1676852
10
220.70507039999998
20
79.1674058
10
220.70514659999998
20
79.167228
10
220.74883459999998
20
79.0578556
10
220.748987
20
79.05749999999999
10
220.74916480000002
20
79.0569158
10
220.77230419999998
20
78.98257
10
242.7541246
20
78.98257
10
243.87688079999998
20
79.0717748
10
245.13275839999997
20
79.3741618
10
246.3259488
20
79.8692078
10
247.4270388
20
80.54474619999999
10
248.408952
20
81.38411459999999
10
249.2475584
20
82.3666882
10
249.9222332
20
83.46831159999999
10
250.4163394
20
84.66185759999999
10
250.71745639999997
20
85.91677
10
250.81229999999996
20
87.14849219999999
10
250.81229999999996
20
88.2199658
10
250.74653940000002
20
89.2668776
10
250.52901379999997
20
90.2405104
10
250.16183139999998
20
91.1681438
10
249.65408539999999
20
92.02691779999999
10
249.0182218
20
92.7956742
10
248.26993779999998
20
93.45549
10
247.42764839999998
20
93.99013459999999
10
246.5121054
20
94.38645079999999
10
245.5458386
20
94.6346342
10
244.491764
20
94.73437999999999
10
210.54766119999996
20
94.73437999999999
10
210.53722179999997
20
94.646242
10
210.53717099999997
20
94.64578479999999
10
210.5370694
20
94.64525139999999
10
210.5141078
20
94.52973219999998
10
210.51400619999998
20
94.5293004
10
210.51400619999998
20
94.52924959999999
10
210.487387
20
94.418404
10
210.4873108
20
94.41815
10
210.48725999999996
20
94.4179214
10
210.4552814
20
94.3045866
10
210.4551544
20
94.30415479999999
10
210.45497659999998
20
94.3036468
10
210.4142096
20
94.1931568
10
210.41418419999997
20
94.19305519999999
10
210.4140318
20
94.1926742
10
210.37041999999997
20
94.08736579999999
10
210.37029299999998
20
94.08706099999999
10
210.37021679999998
20
94.0869086
10
210.3209154
20
93.9799492
10
210.32066139999998
20
93.9794666
10
210.3204582
20
93.97906019999999
10
210.26290179999998
20
93.87631719999999
10
210.2626986
20
93.8759362
10
210.26267319999997
20
93.8758854
10
210.20311019999997
20
93.77870499999999
10
210.20298319999998
20
93.7785018
10
210.20283080000002
20
93.77827319999999
10
210.1374004
20
93.68035619999999
10
210.13709559999998
20
93.67992439999999
10
210.1368162
20
93.6795434
10
210.06391819999996
20
93.587062
10
210.0636896
20
93.58678259999999
10
210.06358799999998
20
93.586681
10
209.989547
20
93.49999079999999
10
209.9893692
20
93.49976219999999
10
209.98921679999998
20
93.4996098
10
209.90928299999996
20
93.4131482
10
209.9089274
20
93.41279259999999
10
209.9085718
20
93.412437
10
209.8221102
20
93.33250319999999
10
209.82195779999998
20
93.33235079999999
10
209.8217292
20
93.332173
10
209.73503899999997
20
93.258132
10
209.7349374
20
93.2580304
10
209.734658
20
93.2578018
10
209.6421766
20
93.18490379999999
10
209.6417956
20
93.1846244
10
209.64136379999997
20
93.1843196
10
209.54344679999997
20
93.1188892
10
209.5432182
20
93.1187368
10
209.54301499999997
20
93.1186098
10
209.44583459999998
20
93.05904679999999
10
209.44578379999996
20
93.05902139999999
10
209.44540279999998
20
93.0588182
10
209.3426598
20
93.0012618
10
209.34225339999998
20
93.0010586
10
209.34177079999998
20
93.0008046
10
209.23481139999998
20
92.9515032
10
209.23465899999997
20
92.951427
10
209.23435419999998
20
92.95129999999999
10
209.1290458
20
92.9076882
10
209.12866479999997
20
92.90753579999999
10
209.1285632
20
92.90751039999999
10
209.0180732
20
92.86674339999999
10
209.01756519999998
20
92.86656559999999
10
209.01713339999998
20
92.8664386
10
208.90379859999996
20
92.83445999999999
10
208.90357
20
92.8344092
10
208.90331599999996
20
92.83433299999999
10
208.79247039999998
20
92.80771379999999
10
208.7924196
20
92.80771379999999
10
208.7919878
20
92.8076122
10
208.6764686
20
92.78465059999999
10
208.6759352
20
92.78454899999998
10
208.67547799999997
20
92.78449819999999
10
208.5585364
20
92.7706552
10
208.5583332
20
92.7706298
10
208.55802839999998
20
92.7706044
10
208.44438879999998
20
92.76166359999999
10
208.4440586
20
92.7616382
10
208.4439062
20
92.7616128
10
208.326228
20
92.75699
10
208.32572
20
92.75699
10
208.32521199999996
20
92.75699
10
208.20753379999996
20
92.7616128
10
208.2073814
20
92.7616382
10
208.20705119999997
20
92.76166359999999
10
208.09341159999997
20
92.7706044
10
208.09310679999996
20
92.7706298
10
208.0929036
20
92.7706552
10
207.97596199999998
20
92.78449819999999
10
207.9755048
20
92.78454899999998
10
207.9749714
20
92.78465059999999
10
207.8594522
20
92.8076122
10
207.85902040000002
20
92.80771379999999
10
207.8589696
20
92.80771379999999
10
207.748124
20
92.83433299999999
10
207.74787
20
92.8344092
10
207.7476414
20
92.83445999999999
10
207.63430659999997
20
92.8664386
10
207.63387479999997
20
92.86656559999999
10
207.6333668
20
92.86674339999999
10
207.52287679999998
20
92.90751039999999
10
207.52277519999998
20
92.90753579999999
10
207.52239419999998
20
92.9076882
10
207.41708579999997
20
92.95129999999999
10
207.416781
20
92.951427
10
207.4166286
20
92.9515032
10
207.30966919999997
20
93.0008046
10
207.30918659999998
20
93.0010586
10
207.3087802
20
93.0012618
10
207.20603719999997
20
93.0588182
10
207.2056562
20
93.05902139999999
10
207.20560539999997
20
93.05904679999999
10
207.10842499999998
20
93.1186098
10
207.1082218
20
93.1187368
10
207.10799319999998
20
93.1188892
10
207.0100762
20
93.1843196
10
207.00964439999998
20
93.1846244
10
207.0092634
20
93.18490379999999
10
206.916782
20
93.2578018
10
206.9165026
20
93.2580304
10
206.91640099999998
20
93.258132
10
206.8297108
20
93.332173
10
206.8294822
20
93.33235079999999
10
206.82932979999998
20
93.33250319999999
10
206.7428682
20
93.412437
10
206.7425126
20
93.41279259999999
10
206.742157
20
93.4131482
10
206.66222319999997
20
93.4996098
10
206.6620708
20
93.49976219999999
10
206.661893
20
93.49999079999999
10
206.587852
20
93.586681
10
206.5877504
20
93.58678259999999
10
206.5875218
20
93.587062
10
206.51462379999998
20
93.6795434
10
206.51434439999997
20
93.67992439999999
10
206.5140396
20
93.68035619999999
10
206.4486092
20
93.77827319999999
10
206.44845679999997
20
93.7785018
10
206.44832979999998
20
93.77870499999999
10
206.38876679999998
20
93.8758854
10
206.3887414
20
93.8759362
10
206.3885382
20
93.87631719999999
10
206.3309818
20
93.97906019999999
10
206.33077859999997
20
93.9794666
10
206.3305246
20
93.9799492
10
206.2812232
20
94.0869086
10
206.28114699999998
20
94.08706099999999
10
206.28101999999998
20
94.08736579999999
10
206.2374082
20
94.1926742
10
206.23725579999999
20
94.19305519999999
10
206.2372304
20
94.1931568
10
206.1964634
20
94.3036468
10
206.1962856
20
94.30415479999999
10
206.19615860000002
20
94.3045866
10
206.16418
20
94.4179214
10
206.16412919999996
20
94.41815
10
206.164053
20
94.418404
10
206.13743379999997
20
94.52924959999999
10
206.13743379999997
20
94.5293004
10
206.1373322
20
94.52973219999998
10
206.1143706
20
94.64525139999999
10
206.11426899999998
20
94.64578479999999
10
206.11421819999998
20
94.646242
10
206.1037788
20
94.73437999999999
10
141.161516
20
94.73437999999999
10
140.1074414
20
94.6346342
10
139.14117459999997
20
94.38645079999999
10
138.22563159999999
20
93.99013459999999
10
137.3833422
20
93.45549
10
136.6350582
20
92.7956742
10
135.9991946
20
92.02691779999999
10
135.49144859999998
20
91.1681438
10
135.1242662
20
90.2405104
10
134.9067406
20
89.2668776
10
134.83844
20
88.1795544
10
134.83844
20
33.582356
0
LWPOLYLINE
5
41
330
37
100
AcDbEntity
100
AcDbPolyline
8
0
6
ByLayer
62
256
370
-1
90
19
70
1
10
207.6351194
20
94.73437999999999
10
207.6421044
20
94.7128408
10
207.69483479999997
20
94.6093866
10
207.76308459999998
20
94.51545739999999
10
207.84517739999998
20
94.4333646
10
207.9391066
20
94.36511479999999
10
208.0425608
20
94.3123844
10
208.153
20
94.27651959999999
10
208.2676556
20
94.2583586
10
208.3837844
20
94.2583586
10
208.49844000000002
20
94.27651959999999
10
208.60887920000002
20
94.3123844
10
208.7123334
20
94.36511479999999
10
208.8062626
20
94.4333646
10
208.88835539999997
20
94.51545739999999
10
208.95660519999998
20
94.6093866
10
209.00933559999999
20
94.7128408
10
209.0163206
20
94.73437999999999
10
207.6351194
20
94.73437999999999
0
LWPOLYLINE
5
42
330
37
100
AcDbEntity
100
AcDbPolyline
8
0
6
ByLayer
62
256
370
-1
90
19
70
1
10
154.8788114
20
68.7293774
10
154.75684059999998
20
68.7486814
10
154.61515939999998
20
68.7486814
10
154.4752054
20
68.7265326
10
154.340433
20
68.68274299999999
10
154.214195
20
68.6184048
10
154.0995648
20
68.5351182
10
153.9993618
20
68.43491519999999
10
153.9160752
20
68.320285
10
153.85173699999999
20
68.194047
10
153.8079474
20
68.0592746
10
153.80553439999997
20
68.0439584
10
154.4882864
20
68.5171096
10
154.4887436
20
68.51741439999999
10
154.48907379999997
20
68.5176176
10
154.6732238
20
68.62665979999998
10
154.6736556
20
68.6268884
10
154.6740112
20
68.6270916
10
154.8788114
20
68.7293774
0
LWPOLYLINE
5
43
330
37
100
AcDbEntity
100
AcDbPolyline
8
0
6
ByLayer
62
256
370
-1
90
9
70
1
10
147.49145
20
49.353089
10
147.486878
20
49.3440974
10
147.44283439999998
20
49.2085884
10
147.4205586
20
49.067847
10
147.4205586
20
48.925353
10
147.44283439999998
20
48.7846116
10
147.486878
20
48.6491026
10
147.49145
20
48.640111
10
147.49145
20
49.353089
0
LWPOLYLINE
5
44
330
37
100
AcDbEntity
100
AcDbPolyline
8
0
6
ByLayer
62
256
370
-1
90
339
70
1
10
221.610809
20
22.0094556
10
221.64923919999998
20
21.9167202
10
221.64936619999997
20
21.916415399999998
10
221.64941699999997
20
21.916262999999997
10
221.6987438
20
21.8093036
10
221.6988962
20
21.808948
10
221.69917559999996
20
21.8084146
10
221.75673199999997
20
21.7056716
10
221.75696059999999
20
21.7052906
10
221.75698599999998
20
21.705239799999998
10
221.813628
20
21.6127838
10
221.813755
20
21.612606
10
221.81390739999998
20
21.6123774
10
221.8793378
20
21.514460399999997
10
221.87961719999996
20
21.5140286
10
221.87992199999997
20
21.5136476
10
221.95282
20
21.4211662
10
221.95304859999996
20
21.420886799999998
10
221.95315019999998
20
21.4207852
10
222.02355899999998
20
21.338336799999997
10
222.0237368
20
21.3381082
10
222.02388919999996
20
21.3379558
10
222.10382299999998
20
21.2514942
10
222.10415319999998
20
21.2511132
10
222.1045342
20
21.250783
10
222.19099579999997
20
21.1708492
10
222.1911482
20
21.170696799999998
10
222.1913768
20
21.170519
10
222.27382519999998
20
21.1001102
10
222.2739268
20
21.1000086
10
222.2742062
20
21.09978
10
222.3666876
20
21.026881999999997
10
222.36706859999998
20
21.026577200000002
10
222.36750039999998
20
21.0262978
10
222.46541739999998
20
20.9608674
10
222.465646
20
20.960714999999997
10
222.46582379999998
20
20.960587999999998
10
222.55827979999998
20
20.903945999999998
10
222.55833059999998
20
20.9039206
10
222.5587116
20
20.903692
10
222.66145459999998
20
20.8461356
10
222.661988
20
20.845856199999997
10
222.6623436
20
20.8457038
10
222.769303
20
20.796377
10
222.76945539999997
20
20.7963262
10
222.76976019999998
20
20.7961992
10
222.8699124
20
20.754695599999998
10
222.8701664
20
20.754593999999997
10
222.87036959999998
20
20.7545178
10
222.9808596
20
20.713750799999996
10
222.98124059999998
20
20.7136238
10
222.9818248
20
20.713446
10
223.0951596
20
20.681492799999997
10
223.0953882
20
20.6814166
10
223.0956422
20
20.6813658
10
223.2010522
20
20.656042
10
223.20140779999997
20
20.6559658
10
223.2015348
20
20.6559404
10
223.31705399999998
20
20.632953399999998
10
223.3174096
20
20.632902599999998
10
223.3180446
20
20.632801
10
223.43498619999997
20
20.618958
10
223.43518939999998
20
20.618958
10
223.4354942
20
20.6189072
10
223.5435712
20
20.610423599999997
10
223.54390139999998
20
20.6103982
10
223.5440538
20
20.6103728
10
223.661732
20
20.60575
10
223.66224
20
20.60575
10
223.66274799999997
20
20.60575
10
223.78042619999997
20
20.6103728
10
223.78057859999998
20
20.6103982
10
223.78090879999996
20
20.610423599999997
10
223.8889858
20
20.6189072
10
223.88929059999998
20
20.618958
10
223.88949379999997
20
20.618958
10
224.0064354
20
20.632801
10
224.0070704
20
20.632902599999998
10
224.007426
20
20.632953399999998
10
224.1229452
20
20.6559404
10
224.1230722
20
20.6559658
10
224.1234278
20
20.656042
10
224.22883779999998
20
20.6813658
10
224.22909179999996
20
20.6814166
10
224.22932039999998
20
20.681492799999997
10
224.3426552
20
20.713446
10
224.3432394
20
20.7136238
10
224.3436204
20
20.713750799999996
10
224.4541104
20
20.7545178
10
224.45431359999998
20
20.754593999999997
10
224.45456759999996
20
20.754695599999998
10
224.55471980000002
20
20.7961992
10
224.5550246
20
20.7963262
10
224.555177
20
20.796377
10
224.66213639999998
20
20.8457038
10
224.662492
20
20.845856199999997
10
224.66302539999998
20
20.8461356
10
224.76576839999998
20
20.903692
10
224.76614940000002
20
20.9039206
10
224.76620019999996
20
20.903945999999998
10
224.85865619999998
20
20.960587999999998
10
224.858834
20
20.960714999999997
10
224.8590626
20
20.9608674
10
224.95697959999998
20
21.0262978
10
224.95741139999998
20
21.026577200000002
10
224.95779239999996
20
21.026881999999997
10
225.05027379999996
20
21.09978
10
225.0505532
20
21.1000086
10
225.0506548
20
21.1001102
10
225.13310319999997
20
21.170519
10
225.13333179999998
20
21.170696799999998
10
225.1334842
20
21.1708492
10
225.2199458
20
21.250783
10
225.22032679999998
20
21.2511132
10
225.22065700000002
20
21.2514942
10
225.30059079999998
20
21.3379558
10
225.3007432
20
21.3381082
10
225.300921
20
21.338336799999997
10
225.37132979999998
20
21.4207852
10
225.37143139999998
20
21.420886799999998
10
225.37165999999996
20
21.4211662
10
225.44455799999997
20
21.5136476
10
225.44486279999995
20
21.5140286
10
225.4451422
20
21.514460399999997
10
225.51057259999996
20
21.6123774
10
225.51072499999998
20
21.612606
10
225.510852
20
21.6127838
10
225.567494
20
21.705239799999998
10
225.56751939999998
20
21.7052906
10
225.567748
20
21.7056716
10
225.62530439999998
20
21.8084146
10
225.6255838
20
21.808948
10
225.6257362
20
21.8093036
10
225.675063
20
21.916262999999997
10
225.6751138
20
21.916415399999998
10
225.6752408
20
21.9167202
10
225.71674439999998
20
22.016872399999997
10
225.716846
20
22.0171264
10
225.71692219999997
20
22.0173296
10
225.71717619999998
20
22.0180154
10
229.3651496
20
22.025609999999997
10
229.36537819999998
20
22.025609999999997
10
229.36578459999998
20
22.0256354
10
229.51277439999998
20
22.033153799999997
10
229.5134094
20
22.033204599999998
10
229.514019
20
22.0332808
10
229.659561
20
22.0551756
10
229.66011979999996
20
22.0552772
10
229.66078019999998
20
22.0554296
10
229.8034774
20
22.091497599999997
10
229.8041124
20
22.0916754
10
229.8046712
20
22.0918532
10
229.943152
20
22.1417388
10
229.9436346
20
22.1419166
10
229.94432039999998
20
22.142221399999997
10
230.0772386
20
22.2054166
10
230.07777199999998
20
22.205696
10
230.07833079999997
20
22.206000799999998
10
230.20444179999998
20
22.281946799999997
10
230.20492439999998
20
22.2822516
10
230.2054578
20
22.2826326
10
230.32351699999998
20
22.3705674
10
230.324025
20
22.370973799999998
10
230.3244568
20
22.3713548
10
230.43332119999997
20
22.4704402
10
230.4337022
20
22.4707704
10
230.43421019999997
20
22.471303799999998
10
230.532813
20
22.5805746
10
230.5331686
20
22.580980999999998
10
230.53360039999998
20
22.581539799999998
10
230.62105259999996
20
22.699954599999998
10
230.62140819999996
20
22.700462599999998
10
230.6217384
20
22.700996
10
230.697151
20
22.827386399999998
10
230.69743039999997
20
22.8279198
10
230.69773519999998
20
22.828504
10
230.76037159999998
20
22.9616762
10
230.76062559999997
20
22.962260399999998
10
230.76085419999998
20
22.962844599999997
10
230.81015559999997
20
23.101528599999998
10
230.8103334
20
23.102036599999998
10
230.81051119999998
20
23.1027224
10
230.84599500000002
20
23.245572
10
230.846122
20
23.246156199999998
10
230.84622359999997
20
23.2467912
10
230.86750879999997
20
23.392434799999997
10
230.867585
20
23.393120599999996
10
230.86763579999996
20
23.3936794
10
230.87454459999998
20
23.5406946
10
230.87456999999998
20
23.5413042
10
230.87454459999998
20
23.5419646
10
230.86702619999997
20
23.6889544
10
230.8669754
20
23.6895894
10
230.86689919999998
20
23.690199
10
230.8450044
20
23.835741
10
230.84490279999997
20
23.8362998
10
230.84475039999998
20
23.8369602
10
230.8086824
20
23.979657399999997
10
230.8085046
20
23.9802924
10
230.8083268
20
23.980851199999996
10
230.75844119999996
20
24.119331999999996
10
230.75826339999998
20
24.119814599999998
10
230.75795859999997
20
24.120500399999997
10
230.6947634
20
24.2534186
10
230.69448399999996
20
24.253951999999998
10
230.69417919999998
20
24.2545108
10
230.6182332
20
24.3806218
10
230.6179284
20
24.381104399999998
10
230.61754739999998
20
24.381637799999996
10
230.5296126
20
24.499697
10
230.5292062
20
24.500204999999998
10
230.5288252
20
24.5006368
10
230.4297398
20
24.6095012
10
230.4294096
20
24.609882199999998
10
230.4288762
20
24.610390199999998
10
230.31960539999997
20
24.708992999999996
10
230.319199
20
24.7093486
10
230.31864019999998
20
24.709780399999996
10
230.2002254
20
24.7972326
10
230.1997174
20
24.7975882
10
230.199184
20
24.7979184
10
230.07279359999998
20
24.873331
10
230.07226020000002
20
24.8736104
10
230.071676
20
24.8739152
10
229.9385038
20
24.936551599999998
10
229.9379196
20
24.9368056
10
229.93733539999997
20
24.9370342
10
229.79865139999998
20
24.986335599999997
10
229.7981434
20
24.986513399999996
10
229.79745759999997
20
24.9866912
10
229.654608
20
25.022175
10
229.65402379999998
20
25.022301999999996
10
229.65338880000002
20
25.022403599999997
10
229.5077452
20
25.043688799999998
10
229.50705939999997
20
25.043765
10
229.50650059999998
20
25.043815799999997
10
229.3594854
20
25.0507246
10
229.3591298
20
25.050749999999997
10
229.3588504
20
25.050749999999997
10
218.3809704
20
25.027889999999996
10
218.38074179999998
20
25.027889999999996
10
218.3803354
20
25.0278646
10
218.23334559999998
20
25.0203462
10
218.2327106
20
25.0202954
10
218.232101
20
25.0202192
10
218.086559
20
24.998324399999998
10
218.08600019999997
20
24.998222799999997
10
218.08533979999996
20
24.9980704
10
217.94264259999997
20
24.9620024
10
217.94200759999998
20
24.9618246
10
217.9414488
20
24.9616468
10
217.802968
20
24.9117612
10
217.8024854
20
24.911583399999998
10
217.80179959999998
20
24.9112786
10
217.6688814
20
24.8480834
10
217.668348
20
24.847804
10
217.66778919999996
20
24.847499199999998
10
217.5416782
20
24.771553199999996
10
217.5411956
20
24.771248399999998
10
217.54066219999999
20
24.770867399999997
10
217.422603
20
24.682932599999997
10
217.42209499999998
20
24.682526199999998
10
217.42166319999998
20
24.682145199999997
10
217.31279879999997
20
24.583059799999997
10
217.3124178
20
24.5827296
10
217.31190979999997
20
24.5821962
10
217.213307
20
24.4729254
10
217.21295139999998
20
24.472519
10
217.2125196
20
24.471960199999998
10
217.12506739999998
20
24.353545399999998
10
217.12471179999997
20
24.353037399999998
10
217.1243816
20
24.352503999999996
10
217.048969
20
24.226113599999998
10
217.04868959999996
20
24.2255802
10
217.04838479999998
20
24.224996
10
216.98574839999998
20
24.0918238
10
216.9854944
20
24.091239599999998
10
216.98526579999998
20
24.0906554
10
216.93596440000002
20
23.951971399999998
10
216.9357866
20
23.951463399999998
10
216.9356088
20
23.9507776
10
216.90012499999997
20
23.807928
10
216.89999799999998
20
23.807343799999998
10
216.89989639999996
20
23.8067088
10
216.87861119999997
20
23.6610652
10
216.878535
20
23.660379399999997
10
216.87848419999997
20
23.6598206
10
216.8715754
20
23.512805399999998
10
216.87154999999998
20
23.512195799999997
10
216.8715754
20
23.5115354
10
216.87909379999996
20
23.3645456
10
216.8791446
20
23.363910599999997
10
216.87922079999996
20
23.363301
10
216.9011156
20
23.217759
10
216.90121719999996
20
23.217200199999997
10
216.9013696
20
23.2165398
10
216.93743759999998
20
23.0738426
10
216.9376154
20
23.0732076
10
216.9377932
20
23.072648799999996
10
216.98767879999997
20
22.934167999999996
10
216.98785659999996
20
22.933685399999998
10
216.98816139999997
20
22.9329996
10
217.0513566
20
22.8000814
10
217.05163599999997
20
22.799547999999998
10
217.05194079999998
20
22.798989199999998
10
217.1278868
20
22.6728782
10
217.12819159999998
20
22.672395599999998
10
217.12857259999996
20
22.6718622
10
217.21650739999998
20
22.553803
10
217.2169138
20
22.553295
10
217.2172948
20
22.5528632
10
217.3163802
20
22.4439988
10
217.31671039999998
20
22.4436178
10
217.3172438
20
22.4431098
10
217.42651459999996
20
22.344506999999997
10
217.426921
20
22.344151399999998
10
217.42747979999996
20
22.343719599999996
10
217.5458946
20
22.2562674
10
217.5464026
20
22.2559118
10
217.546936
20
22.2555816
10
217.67332639999998
20
22.180169
10
217.67385979999997
20
22.1798896
10
217.674444
20
22.179584799999997
10
217.80761619999998
20
22.1169484
10
217.80820039999998
20
22.116694399999997
10
217.80878459999997
20
22.1164658
10
217.9474686
20
22.067164399999996
10
217.94797659999998
20
22.066986599999996
10
217.94866239999996
20
22.066808799999997
10
218.091512
20
22.031325
10
218.09209619999996
20
22.031198
10
218.09273119999997
20
22.0310964
10
218.2383748
20
22.009811199999998
10
218.2390606
20
22.009735
10
218.23961939999995
20
22.0096842
10
218.38663459999998
20
22.002775399999997
10
218.38699019999999
20
22.00275
10
218.3872696
20
22.00275
10
221.610809
20
22.0094556
0
LWPOLYLINE
5
45
330
37
100
AcDbEntity
100
AcDbPolyline
8
0
6
ByLayer
62
256
370
-1
90
454
70
1
10
208.1217834
20
49.27219
10
208.37928859999997
20
49.254613199999994
10
208.57606239999998
20
49.212423799999996
10
208.76475899999997
20
49.1426246
10
208.94159379999996
20
49.046612599999996
10
209.1029092
20
48.926368999999994
10
209.2454286
20
48.7843576
10
209.366231
20
48.623448599999996
10
209.46285259999996
20
48.4469694
10
209.53331219999998
20
48.2585014
10
209.57618739999998
20
48.0619054
10
209.59444999999997
20
47.8070672
10
209.59444999999997
20
28.445459999999997
10
209.59444999999997
20
28.445206
10
209.5944754
20
28.444824999999998
10
209.596101
20
28.4115002
10
209.5958724
20
28.3699966
10
209.5958724
20
28.3699204
10
209.59589779999996
20
28.369361599999994
10
209.61456679999998
20
27.9411176
10
209.61459219999998
20
27.940787399999998
10
209.6146176
20
27.9405588
10
209.62556499999997
20
27.8136096
10
209.62556499999997
20
27.813508000000002
10
209.62561579999996
20
27.813076199999998
10
209.68060679999996
20
27.387905599999996
10
209.6806322
20
27.3877278
10
209.68068300000002
20
27.387270599999997
10
209.68903959999997
20
27.340763199999998
10
209.83023819999997
20
25.9626354
10
209.75452079999997
20
24.467693
10
209.67108179999997
20
24.064315599999997
10
209.5857886
20
24.0249964
10
209.585306
20
24.0247424
10
209.5848996
20
24.0245392
10
209.48213119999997
20
23.9669828
10
209.48190259999996
20
23.966855799999998
10
209.48172480000002
20
23.966754199999997
10
209.431763
20
23.9361218
10
209.4315852
20
23.936020199999998
10
209.43133120000002
20
23.935867799999997
10
209.33341419999996
20
23.870437399999997
10
209.33305860000002
20
23.8701834
10
209.3326014
20
23.869853199999998
10
209.24012
20
23.7969298
10
209.24001839999997
20
23.7968536
10
209.23973900000001
20
23.796625
10
209.1951874
20
23.7585758
10
209.19511119999996
20
23.7584996
10
209.19480639999998
20
23.7582456
10
209.1083194
20
23.6782864
10
209.1079638
20
23.677956199999997
10
209.10763359999996
20
23.677600599999998
10
209.0276744
20
23.5911136
10
209.02742039999998
20
23.5908088
10
209.02734420000002
20
23.5907326
10
208.989295
20
23.546181
10
208.9890664
20
23.5459016
10
208.98899019999996
20
23.5458
10
208.91606679999998
20
23.4533186
10
208.91573659999997
20
23.452861399999996
10
208.9154826
20
23.452505799999997
10
208.8500522
20
23.3545888
10
208.84989979999997
20
23.3543348
10
208.8497982
20
23.354157
10
208.8191658
20
23.3041952
10
208.81906419999999
20
23.3040174
10
208.8189372
20
23.303788799999996
10
208.76138079999998
20
23.201020399999997
10
208.7611776
20
23.200614
10
208.7609236
20
23.200131399999997
10
208.7116222
20
23.093172
10
208.71154599999997
20
23.093019599999998
10
208.71141899999998
20
23.0927148
10
208.68899079999997
20
23.0385874
10
208.6889654
20
23.0385112
10
208.68881299999998
20
23.038130199999998
10
208.64804599999997
20
22.9276402
10
208.64786819999998
20
22.9271068
10
208.64774119999998
20
22.9267004
10
208.61578799999998
20
22.8133402
10
208.61571179999999
20
22.813137
10
208.615661
20
22.8128576
10
208.6019704
20
22.755885399999997
10
208.6018942
20
22.755479
10
208.60186879999998
20
22.7554028
10
208.57890719999997
20
22.639909
10
208.5788056
20
22.6393502
10
208.57872939999996
20
22.638918399999998
10
208.5648864
20
22.5219514
10
208.5648864
20
22.5217736
10
208.56486099999998
20
22.521468799999997
10
208.56026359999998
20
22.4630488
10
208.5602382
20
22.4627186
10
208.5602128
20
22.462566199999998
10
208.55559
20
22.344887999999997
10
208.55559
20
22.34438
10
208.55559
20
22.343871999999998
10
208.5602128
20
22.2261938
10
208.5602382
20
22.226041399999996
10
208.56026359999998
20
22.2257112
10
208.56486099999998
20
22.167291199999998
10
208.5648864
20
22.1669864
10
208.5648864
20
22.166808599999996
10
208.57872939999996
20
22.049841599999997
10
208.5788056
20
22.0494098
10
208.57890719999997
20
22.048851
10
208.60186879999998
20
21.9333572
10
208.6018942
20
21.933281
10
208.6019704
20
21.932874599999998
10
208.615661
20
21.8759024
10
208.61571179999999
20
21.875623
10
208.61578799999998
20
21.8754198
10
208.64774119999998
20
21.7620596
10
208.64786819999998
20
21.761653199999998
10
208.64804599999997
20
21.7611198
10
208.68881299999998
20
21.650629799999997
10
208.6889654
20
21.6502488
10
208.68899079999997
20
21.6501726
10
208.71141899999998
20
21.5960452
10
208.71154599999997
20
21.5957404
10
208.7116222
20
21.595588
10
208.7609236
20
21.4886286
10
208.7611776
20
21.488146
10
208.76138079999998
20
21.487739599999998
10
208.8189372
20
21.3849712
10
208.81906419999999
20
21.3847426
10
208.8191658
20
21.3845648
10
208.84291480000002
20
21.3458044
10
208.82101999999998
20
21.2583268
10
208.82086759999999
20
21.2576918
10
208.820766
20
21.2570822
10
208.799176
20
21.1114894
10
208.7990998
20
21.110930599999996
10
208.799049
20
21.110244799999997
10
208.79183539999997
20
20.963254999999997
10
208.79181
20
20.96262
10
208.79183539999997
20
20.961985
10
208.79922679999999
20
20.813090199999998
10
208.7992776
20
20.8125822
10
208.79935379999998
20
20.811845599999998
10
208.82150259999997
20
20.6643986
10
208.8216042
20
20.6638906
10
208.8216042
20
20.6638906
10
208.82175660000001
20
20.663179399999997
10
208.8584342
20
20.5186788
10
208.858612
20
20.5180946
10
208.85881519999998
20
20.5174596
10
208.909666
20
20.3773278
10
208.90986919999997
20
20.376769
10
208.9101486
20
20.3761594
10
208.97466459999998
20
20.241767999999997
10
208.97494399999997
20
20.2411584
10
208.97494399999997
20
20.2411584
10
208.9752488
20
20.2406504
10
209.052795
20
20.113320199999997
10
209.0531506
20
20.1127614
10
209.0534808
20
20.1122788
10
209.1432698
20
19.993254399999998
10
209.1437016
20
19.992721
10
209.1440826
20
19.9922892
10
209.24525079999998
20
19.882789799999998
10
209.24573339999998
20
19.882281799999998
10
209.2461398
20
19.8819008
10
209.3576712
20
19.782967799999998
10
209.3582046
20
19.782535999999997
10
209.35866179999996
20
19.782180399999998
10
209.4794642
20
19.6948044
10
209.48004840000002
20
19.694423399999998
10
209.48004840000002
20
19.694423399999998
10
209.480531
20
19.6941186
10
209.6093852
20
19.619188599999998
10
209.61004559999998
20
19.618833
10
209.61004559999998
20
19.618833
10
209.61052819999998
20
19.6186044
10
209.74618959999998
20
19.5568316
10
209.7468246
20
19.5565522
10
209.7473834
20
19.5563744
10
209.8885058
20
19.5083684
10
209.8891662
20
19.5081652
10
209.889725
20
19.5080128
10
210.0349368
20
19.4742562
10
210.03564799999995
20
19.474103799999998
10
210.03618139999998
20
19.4740276
10
210.18400939999998
20
19.4548506
10
210.1846444
20
19.4547998
10
210.18527939999996
20
19.454774399999998
10
210.33430119999997
20
19.4503548
10
210.3349362
20
19.4503548
10
210.3355458
20
19.450380199999998
10
210.48428819999998
20
19.4607942
10
210.4849232
20
19.460870399999997
10
210.4855328
20
19.4609466
10
210.6324718
20
19.486067199999997
10
210.63303059999998
20
19.4861942
10
210.6337164
20
19.4863466
10
210.77742959999998
20
19.5259452
10
210.7780392
20
19.526123
10
210.7786488
20
19.5263516
10
210.91771379999997
20
19.5799964
10
210.9182726
20
19.580225
10
210.91888219999998
20
19.5805044
10
211.05195279999998
20
19.647712799999997
10
211.05251159999997
20
19.6480176
10
211.05304499999997
20
19.6483478
10
211.17880039999997
20
19.728434
10
211.179283
20
19.7287642
10
211.1798164
20
19.729170599999996
10
211.29698659999997
20
19.8213218
10
211.29746919999997
20
19.8217282
10
211.29795179999996
20
19.82216
10
211.4053938
20
19.925512599999998
10
211.4058256
20
19.9259444
10
211.4062574
20
19.926427
10
211.50290439999998
20
20.039939599999997
10
211.50328539999998
20
20.0403968
10
211.50328539999998
20
20.0403968
10
211.50369179999998
20
20.0409302
10
211.58857859999998
20
20.1634852
10
211.5888834
20
20.1639424
10
211.58926439999996
20
20.164552
10
211.66157819999998
20
20.294904799999998
10
211.66185760000002
20
20.2954382
10
211.66213699999997
20
20.2960478
10
211.72116659999998
20
20.4329538
10
211.7212428
20
20.4331316
10
211.7213952
20
20.433538
10
212.1016586
20
21.451950999999998
10
212.1216992
20
21.487739599999998
10
212.12190239999998
20
21.488146
10
212.1221564
20
21.4886286
10
212.17145779999998
20
21.595588
10
212.171534
20
21.5957404
10
212.171661
20
21.5960452
10
212.1940892
20
21.6501726
10
212.19411459999998
20
21.6502488
10
212.194267
20
21.650629799999997
10
212.23503399999998
20
21.7611198
10
212.2352118
20
21.761653199999998
10
212.2353388
20
21.7620596
10
212.267292
20
21.8754198
10
212.26736819999996
20
21.875623
10
212.267419
20
21.8759024
10
212.28088099999997
20
21.931934799999997
10
212.3261184
20
22.053092799999998
10
212.32627079999997
20
22.0535246
10
212.32627079999997
20
22.053549999999998
10
212.3623388
20
22.1627446
10
212.3624912
20
22.163227199999998
10
212.3626182
20
22.163684399999998
10
212.3902026
20
22.2753174
10
212.39030419999997
20
22.2757492
10
212.39030419999997
20
22.2758
10
212.74049399999998
20
23.9687354
10
212.7405448
20
23.9690148
10
212.7405956
20
23.969217999999998
10
212.75954399999998
20
24.082628999999997
10
212.75962019999997
20
24.0830608
10
212.759671
20
24.0835942
10
212.76988179999998
20
24.1981482
10
212.76993259999998
20
24.198605399999998
10
212.76993259999998
20
24.1986308
10
212.85735939999998
20
25.9251958
10
212.85735939999998
20
25.925500599999996
10
212.85735939999998
20
25.9256784
10
212.85878179999997
20
26.040156200000002
10
212.85878179999997
20
26.0406388
10
212.85878179999997
20
26.0411214
10
212.8514666
20
26.155370599999998
10
212.85144119999998
20
26.1555484
10
212.85141579999998
20
26.155853199999996
10
212.67521599999998
20
27.8757126
10
212.6751906
20
27.8759666
10
212.67513979999998
20
27.8763476
10
212.6529656
20
28.021838799999998
10
212.6528386
20
28.022524599999997
10
212.6527116
20
28.023058
10
212.644736
20
28.054401599999995
10
212.6340426
20
28.137205599999998
10
212.61959000000002
20
28.468269199999998
10
212.61959000000002
20
47.86122
10
212.61959000000002
20
47.861473999999994
10
212.6195646
20
47.861855
10
212.6169484
20
47.9152712
10
212.6157546
20
47.9687382
10
212.6157292
20
47.9689668
10
212.6157292
20
47.9693732
10
212.5858334
20
48.3863396
10
212.5857826
20
48.386847599999996
10
212.5857318
20
48.387254
10
212.5551502
20
48.5995218
10
212.5550994
20
48.59982659999999
10
212.5549724
20
48.6004108
10
212.46592
20
49.0088682
10
212.4658184
20
49.0093762
10
212.4656914
20
49.009757199999996
10
212.40513779999998
20
49.2154972
10
212.4049854
20
49.2159798
10
212.4048584
20
49.2163608
10
212.2584528
20
49.6079272
10
212.2582496
20
49.608435199999995
10
212.25809719999998
20
49.608765399999996
10
212.16884159999998
20
49.803786599999995
10
212.16863840000002
20
49.80416759999999
10
212.1684098
20
49.8045994
10
211.96767359999998
20
50.171273799999994
10
211.96744499999997
20
50.1716802
10
211.96719099999999
20
50.1720612
10
211.85101139999998
20
50.352325
10
211.85078279999996
20
50.352706
10
211.8505034
20
50.353086999999995
10
211.59950059999997
20
50.687401799999996
10
211.5991704
20
50.6878082
10
211.59894179999998
20
50.6880876
10
211.45822579999998
20
50.849961799999996
10
211.45789559999997
20
50.85034279999999
10
211.4576162
20
50.850622200000004
10
211.1614776
20
51.1457194
10
211.1612236
20
51.1459734
10
211.1608172
20
51.146328999999994
10
210.9984604
20
51.2864862
10
210.9981048
20
51.286765599999995
10
210.9977492
20
51.287045
10
210.66257079999997
20
51.536879400000004
10
210.6622406
20
51.5371334
10
210.6618342
20
51.53738739999999
10
210.48116399999998
20
51.65295739999999
10
210.48080839999997
20
51.6531606
10
210.48037659999997
20
51.6534146
10
210.11299099999997
20
51.8528808
10
210.11261
20
51.853083999999996
10
210.1121782
20
51.8532872
10
209.9168522
20
51.9419078
10
209.9164204
20
51.94208559999999
10
209.916014
20
51.942238
10
209.5239396
20
52.08727199999999
10
209.52360939999997
20
52.087399
10
209.52307599999997
20
52.0875768
10
209.31713279999997
20
52.147393799999996
10
209.31677720000002
20
52.1474954
10
209.3162438
20
52.1476224
10
208.90748159999995
20
52.2352524
10
208.9069736
20
52.235353999999994
10
208.9065926
20
52.23543019999999
10
208.69427399999998
20
52.265275200000005
10
208.69374059999998
20
52.265325999999995
10
208.6933596
20
52.2653514
10
208.2762916
20
52.293824799999996
10
208.27618999999999
20
52.293824799999996
10
208.27565659999996
20
52.293850199999994
10
208.22478039999996
20
52.294815400000005
10
208.17395499999998
20
52.297304600000004
10
208.17357399999997
20
52.297329999999995
10
208.17332
20
52.297329999999995
10
182.38724
20
52.297329999999995
10
182.38698599999998
20
52.297329999999995
10
182.386605
20
52.297304600000004
10
182.2396152
20
52.290091
10
182.2389294
20
52.2900402
10
182.2383706
20
52.289964
10
182.0927778
20
52.268373999999994
10
182.09216819999997
20
52.268272399999994
10
182.0915332
20
52.268119999999996
10
181.9487598
20
52.232356800000005
10
181.9480994
20
52.232179
10
181.947566
20
52.2320012
10
181.8089836
20
52.18242039999999
10
181.808374
20
52.18216639999999
10
181.8078406
20
52.18193779999999
10
181.67477
20
52.118996599999996
10
181.6742112
20
52.1187172
10
181.67367779999998
20
52.11841239999999
10
181.54743979999998
20
52.0427458
10
181.54698259999998
20
52.0424664
10
181.5463984
20
52.04206
10
181.4281614
20
51.9543792
10
181.4277042
20
51.9540236
10
181.4271962
20
51.9535918
10
181.318154
20
51.854735
10
181.3176968
20
51.8543032
10
181.317265
20
51.853846
10
181.2184082
20
51.74480379999999
10
181.2179764
20
51.74429579999999
10
181.2176208
20
51.7438386
10
181.12993999999998
20
51.625601599999996
10
181.1295336
20
51.625017400000004
10
181.1292542
20
51.6245602
10
181.0535876
20
51.498322200000004
10
181.05328279999998
20
51.497788799999995
10
181.0530034
20
51.497229999999995
10
180.9900622
20
51.3641594
10
180.9898336
20
51.363626000000004
10
180.98957959999998
20
51.36301639999999
10
180.93999879999998
20
51.22443399999999
10
180.939821
20
51.22390059999999
10
180.93964319999998
20
51.22324019999999
10
180.90388
20
51.0804668
10
180.9037276
20
51.079831799999994
10
180.90362599999997
20
51.0792222
10
180.882036
20
50.933629399999994
10
180.88195979999998
20
50.93307059999999
10
180.881909
20
50.9323848
10
180.87469539999998
20
50.785394999999994
10
180.87467
20
50.78476
10
180.87469539999998
20
50.784124999999996
10
180.881909
20
50.637135199999996
10
180.88195979999998
20
50.6364494
10
180.882036
20
50.635890599999996
10
180.90362599999997
20
50.4902978
10
180.9037276
20
50.489688199999996
10
180.90388
20
50.489053199999994
10
180.93964319999998
20
50.3462798
10
180.939821
20
50.3456194
10
180.93999879999998
20
50.345085999999995
10
180.98957959999998
20
50.2065036
10
180.9898336
20
50.205893999999994
10
180.9900622
20
50.2053606
10
181.0530034
20
50.072289999999995
10
181.05328279999998
20
50.071731199999995
10
181.0535876
20
50.07119779999999
10
181.1292542
20
49.9449598
10
181.1295336
20
49.94450259999999
10
181.12993999999998
20
49.9439184
10
181.2176208
20
49.82568139999999
10
181.2179764
20
49.825224199999994
10
181.2184082
20
49.8247162
10
181.317265
20
49.715674
10
181.3176968
20
49.7152168
10
181.318154
20
49.714785
10
181.4271962
20
49.6159282
10
181.4277042
20
49.6154964
10
181.4281614
20
49.6151408
10
181.5463984
20
49.52746
10
181.54698259999998
20
49.527053599999995
10
181.54743979999998
20
49.5267742
10
181.67367779999998
20
49.45110759999999
10
181.6742112
20
49.4508028
10
181.67477
20
49.450523399999994
10
181.8078406
20
49.3875822
10
181.808374
20
49.3873536
10
181.8089836
20
49.3870996
10
181.947566
20
49.3375188
10
181.9480994
20
49.337340999999995
10
181.9487598
20
49.33716319999999
10
182.0915332
20
49.3014
10
182.09216819999997
20
49.3012476
10
182.0927778
20
49.301145999999996
10
182.2383706
20
49.279556
10
182.2389294
20
49.2794798
10
182.2396152
20
49.27942899999999
10
182.386605
20
49.2722154
10
182.38698599999998
20
49.27219
10
182.38724
20
49.27219
10
208.1217834
20
49.27219
0
LWPOLYLINE
5
46
330
37
100
AcDbEntity
100
AcDbPolyline
8
0
6
ByLayer
62
256
370
-1
90
717
70
1
10
176.0855508
20
61.0722934
10
176.08522059999999
20
61.0454964
10
176.08522059999999
20
61.04481059999999
10
176.08527139999998
20
61.0442518
10
176.0892084
20
60.99822699999999
10
176.091469
20
60.95207519999999
10
176.0915198
20
60.9513894
10
176.09159599999998
20
60.950830599999996
10
176.095533
20
60.92431299999999
10
176.097819
20
60.8975922
10
176.09786979999998
20
60.897008
10
176.0979714
20
60.896373
10
176.1064042
20
60.8509324
10
176.11318599999998
20
60.80523779999999
10
176.1132876
20
60.8046282
10
176.11344
20
60.803993199999994
10
176.11994239999999
20
60.77800899999999
10
176.1248446
20
60.7516438
10
176.12497159999998
20
60.751008799999994
10
176.12512399999997
20
60.750424599999995
10
176.13797639999999
20
60.70605079999999
10
176.1492032
20
60.6612198
10
176.14938099999998
20
60.6605594
10
176.1495588
20
60.660025999999995
10
176.1585758
20
60.6348038
10
176.1660434
20
60.6090482
10
176.1662212
20
60.6084386
10
176.16644979999998
20
60.6078544
10
176.18356939999998
20
60.564953800000005
10
176.1991396
20
60.5214436
10
176.19939359999998
20
60.520833999999994
10
176.1996222
20
60.5203006
10
176.21107759999998
20
60.49606899999999
10
176.22100899999998
20
60.471177000000004
10
176.2212122
20
60.47071979999999
10
176.2215424
20
60.470034
10
176.24280219999997
20
60.429013
10
176.2625634
20
60.387229999999995
10
176.2628428
20
60.3866712
10
176.2631476
20
60.38613779999999
10
176.27691439999998
20
60.36315079999999
10
176.28925879999997
20
60.33935099999999
10
176.2895382
20
60.33884299999999
10
176.2898684
20
60.3382588
10
176.3150652
20
60.2995238
10
176.33881419999997
20
60.2598998
10
176.3390936
20
60.25944259999999
10
176.3395
20
60.2588584
10
176.35547659999997
20
60.2373192
10
176.3700816
20
60.2148402
10
176.37043719999997
20
60.2143068
10
176.3708182
20
60.2138242
10
176.39964719999998
20
60.1777308
10
176.4271808
20
60.1406214
10
176.4275364
20
60.140164199999994
10
176.42796819999998
20
60.1396562
10
176.44597679999998
20
60.1197934
10
176.4627154
20
60.0988638
10
176.46314719999998
20
60.0983558
10
176.46352819999998
20
60.097924
10
176.4957862
20
60.064827799999996
10
176.52682499999997
20
60.030614
10
176.5272568
20
60.0301568
10
176.527714
20
60.029725
10
176.5475768
20
60.0117164
10
176.5662712
20
59.99251399999999
10
176.56677919999998
20
59.992031399999995
10
176.5671856
20
59.99167579999999
10
176.60251699999998
20
59.96190699999999
10
176.63675619999998
20
59.9308682
10
176.63726419999998
20
59.93043639999999
10
176.63772139999998
20
59.9300808
10
176.65926059999998
20
59.9141042
10
176.6797584
20
59.89685759999999
10
176.6801902
20
59.896502
10
176.680749
20
59.896095599999995
10
176.718849
20
59.869933599999996
10
176.7559584
20
59.84239999999999
10
176.7565426
20
59.841993599999995
10
176.7569998
20
59.8417142
10
176.7799868
20
59.827922
10
176.8020848
20
59.812758200000005
10
176.8025166
20
59.812453399999995
10
176.8031262
20
59.8120978
10
176.84361379999999
20
59.789796599999995
10
176.8832378
20
59.76604759999999
10
176.88377119999998
20
59.76574279999999
10
176.88432999999998
20
59.7654634
10
176.90856159999998
20
59.7539826
10
176.9320566
20
59.741054
10
176.93258999999998
20
59.7407746
10
176.9331742
20
59.7404952
10
176.9756176
20
59.7222834
10
177.0174006
20
59.702522200000004
10
177.017934
20
59.70229359999999
10
177.0185436
20
59.7020396
10
177.0437912
20
59.69302259999999
10
177.0684292
20
59.6824308
10
177.0690134
20
59.68220219999999
10
177.0695722
20
59.681999
10
177.1136158
20
59.668029
10
177.15712599999998
20
59.6524588
10
177.1576594
20
59.652280999999995
10
177.1583198
20
59.65210319999999
10
177.1843294
20
59.64557539999999
10
177.20988179999998
20
59.6374728
10
177.2104914
20
59.637294999999995
10
177.2110756
20
59.6371426
10
177.2562876
20
59.62756679999999
10
177.3010932
20
59.61634
10
177.30172819999999
20
59.61618759999999
10
177.30233779999998
20
59.616086
10
177.32882999999998
20
59.612149
10
177.3550682
20
59.60658639999999
10
177.355754
20
59.6064594
10
177.35628739999999
20
59.606383199999996
10
177.4022106
20
59.60127779999999
10
177.44793059999998
20
59.59449599999999
10
177.4484894
20
59.5944198
10
177.44917519999998
20
59.594369
10
177.4759468
20
59.59304819999999
10
177.502566
20
59.590076399999994
10
177.503201
20
59.5900256
10
177.50381059999998
20
59.5900002
10
177.5500132
20
59.58941599999999
10
177.59616499999998
20
59.58715539999999
10
177.596546
20
59.58713
10
177.5968
20
59.58713
10
180.3934416
20
59.58713
10
180.71203379999997
20
59.568969
10
180.9568136
20
59.5183722
10
181.1905952
20
59.43252019999999
10
181.4091876
20
59.313114799999994
10
181.60776479999998
20
59.16277219999999
10
181.7819834
20
58.984769
10
181.92803339999998
20
58.7830168
10
182.0427144
20
58.5619352
10
182.1235372
20
58.3263502
10
182.16872379999998
20
58.081418
10
182.181119
20
57.72035699999999
10
182.1811444
20
57.72002679999999
10
182.1811698
20
57.719747399999996
10
182.18546239999998
20
57.66821079999999
10
182.1882818
20
57.6165472
10
182.1883326
20
57.615937599999995
10
182.1884088
20
57.61530259999999
10
182.19165999999998
20
57.594271400000004
10
182.1934126
20
57.57306239999999
10
182.19348879999998
20
57.57245279999999
10
182.1935904
20
57.5718432
10
182.20293759999998
20
57.520967
10
182.21078619999997
20
57.4698368
10
182.2108878
20
57.469303399999994
10
182.21104019999999
20
57.4686176
10
182.2163234
20
57.447992799999994
10
182.22018419999998
20
57.4270632
10
182.22028579999997
20
57.42652979999999
10
182.2204636
20
57.425844
10
182.2347384
20
57.3761362
10
182.24759079999998
20
57.326022
10
182.24774319999997
20
57.325437799999996
10
182.2479464
20
57.3248282
10
182.25523619999998
20
57.304838399999994
10
182.26110359999998
20
57.284391400000004
10
182.2613068
20
57.2837564
10
182.26151
20
57.283197599999994
10
182.2805854
20
57.23511539999999
10
182.2982892
20
57.18652519999999
10
182.2984924
20
57.18596639999999
10
182.2987718
20
57.1853822
10
182.3079666
20
57.1661798
10
182.31581519999997
20
57.1463932
10
182.3160184
20
57.14593599999999
10
182.3163486
20
57.145275600000005
10
182.34004679999998
20
57.0993016
10
182.3624242
20
57.05264179999999
10
182.36265279999998
20
57.05215919999999
10
182.36300839999998
20
57.051549599999994
10
182.3740574
20
57.03336319999999
10
182.38381099999998
20
57.014440199999996
10
182.3840904
20
57.01393219999999
10
182.38442059999997
20
57.0133734
10
182.412513
20
56.969939399999994
10
182.4393608
20
56.925717999999996
10
182.43966559999998
20
56.92523539999999
10
182.4400466
20
56.9246766
10
182.4528228
20
56.9076586
10
182.4643798
20
56.889802399999994
10
182.4647608
20
56.88924359999999
10
182.46511639999997
20
56.8887864
10
182.4973236
20
56.84832419999999
10
182.5283624
20
56.806947599999994
10
182.5287434
20
56.80643959999999
10
182.52917519999997
20
56.8059824
10
182.54355159999997
20
56.7902852
10
182.5568104
20
56.7736228
10
182.5571914
20
56.7731656
10
182.5576232
20
56.77270839999999
10
182.5936658
20
56.73559899999999
10
182.6285908
20
56.6974482
10
182.62904799999998
20
56.696991000000004
10
182.62947979999998
20
56.6965846
10
182.6453294
20
56.682360599999996
10
182.66016299999998
20
56.6670952
10
182.66062019999998
20
56.666638
10
182.66107739999998
20
56.666256999999995
10
182.7005744
20
56.63285599999999
10
182.73908079999998
20
56.59831199999999
10
182.73953799999998
20
56.597930999999996
10
182.74004599999998
20
56.59752459999999
10
182.7572164
20
56.5849516
10
182.7734724
20
56.571210199999996
10
182.7739296
20
56.5708292
10
182.7744376
20
56.5704482
10
182.81703339999999
20
56.541085800000005
10
182.8587402
20
56.5104788
10
182.8592736
20
56.510123199999995
10
182.8597816
20
56.509792999999995
10
182.878095
20
56.4989472
10
182.89562099999998
20
56.4868822
10
182.89607819999998
20
56.486577399999994
10
182.8966624
20
56.486221799999996
10
182.9419252
20
56.4611774
10
182.986426
20
56.43481219999999
10
182.9869594
20
56.434507399999994
10
182.98754359999998
20
56.434228
10
183.0068222
20
56.425236399999996
10
183.0254404
20
56.414924
10
183.0260246
20
56.4146192
10
183.026558
20
56.4143652
10
183.07405599999998
20
56.3938928
10
183.12094439999998
20
56.3720234
10
183.1214778
20
56.3717694
10
183.1220874
20
56.371540800000005
10
183.1421534
20
56.364479599999996
10
183.16171139999997
20
56.3560468
10
183.1623464
20
56.3557928
10
183.16287979999998
20
56.355615
10
183.2121558
20
56.339867
10
183.26094919999997
20
56.3226966
10
183.2615334
20
56.3225188
10
183.26214299999998
20
56.322340999999994
10
183.28281859999998
20
56.3172864
10
183.3030878
20
56.3108094
10
183.30372279999997
20
56.310631599999994
10
183.3042816
20
56.3105046
10
183.354853
20
56.299658799999996
10
183.40509419999998
20
56.2873652
10
183.4056784
20
56.2872382
10
183.4063388
20
56.2871112
10
183.4273954
20
56.284113999999995
10
183.448198
20
56.27964359999999
10
183.4489092
20
56.2795166
10
183.4494426
20
56.2794404
10
183.5008268
20
56.273623799999996
10
183.55203319999998
20
56.2663086
10
183.5526682
20
56.26623239999999
10
183.5532778
20
56.266181599999996
10
183.5745376
20
56.26526719999999
10
183.5956958
20
56.26285419999999
10
183.59635619999997
20
56.262803399999996
10
183.5969404
20
56.26277799999999
10
183.64865479999997
20
56.262016
10
183.7003184
20
56.2597554
10
183.7006232
20
56.2597554
10
183.70095339999997
20
56.2597554
10
186.52797339999998
20
56.274995399999995
10
186.52843059999998
20
56.274995399999995
10
186.52860839999997
20
56.2750208
10
186.5980266
20
56.2788054
10
186.6674448
20
56.282209
10
186.66813059999998
20
56.2822598
10
186.66868939999998
20
56.282336
10
186.6721184
20
56.282844000000004
10
186.6755728
20
56.28302179999999
10
186.6761824
20
56.2830726
10
186.67681739999998
20
56.2831488
10
186.7455244
20
56.2937152
10
186.81428219999998
20
56.30392599999999
10
186.8148918
20
56.3040276
10
186.8155268
20
56.304179999999995
10
186.8188796
20
56.3050182
10
186.8222832
20
56.3055262
10
186.82281659999998
20
56.305627799999996
10
186.8235024
20
56.305780199999994
10
186.89086319999998
20
56.32305219999999
10
186.9583002
20
56.33994319999999
10
186.95896059999998
20
56.340120999999996
10
186.959494
20
56.3402988
10
186.96274519999997
20
56.3414672
10
186.966098
20
56.34233079999999
10
186.96668219999998
20
56.342483200000004
10
186.96729179999997
20
56.3426864
10
187.0326206
20
56.36646079999999
10
187.0980764
20
56.38987959999999
10
187.098686
20
56.3901336
10
187.09921939999998
20
56.39036219999999
10
187.1023436
20
56.3918354
10
187.10559479999998
20
56.393029199999994
10
187.1061536
20
56.3932324
10
187.1067378
20
56.39351179999999
10
187.169425
20
56.423559999999995
10
187.23228999999998
20
56.453303399999996
10
187.2328488
20
56.4535828
10
187.2333822
20
56.453887599999995
10
187.23635399999998
20
56.455665599999996
10
187.23947819999998
20
56.457164199999994
10
187.2399608
20
56.4573928
10
187.2405704
20
56.45774839999999
10
187.3000064
20
56.49381639999999
10
187.35962019999997
20
56.52955419999999
10
187.3600774
20
56.529833599999996
10
187.3606616
20
56.53024
10
187.3634556
20
56.53229739999999
10
187.36640199999997
20
56.5341008
10
187.3668846
20
56.53440559999999
10
187.36744339999998
20
56.534786600000004
10
187.423044
20
56.57651879999999
10
187.47889859999998
20
56.61792079999999
10
187.4793558
20
56.6182764
10
187.47986379999998
20
56.6187082
10
187.4824292
20
56.621045
10
187.4851724
20
56.62310239999999
10
187.48568039999998
20
56.62348339999999
10
187.4861376
20
56.62391519999999
10
187.5373948
20
56.670879799999994
10
187.58890599999998
20
56.717565
10
187.58936319999998
20
56.717996799999995
10
187.58979499999998
20
56.718454
10
187.5921318
20
56.720994
10
187.5946718
20
56.72333079999999
10
187.595129
20
56.723788
10
187.5955354
20
56.72421979999999
10
187.6419666
20
56.775985
10
187.6886518
20
56.82749619999999
10
187.68908359999998
20
56.828004199999995
10
187.68943919999998
20
56.828461399999995
10
187.6914966
20
56.831255399999996
10
187.693808
20
56.8338208
10
187.694189
20
56.83427799999999
10
187.6945954
20
56.834785999999994
10
187.7356926
20
56.89084379999999
10
187.77712
20
56.946698399999995
10
187.7775264
20
56.947282599999994
10
187.77780579999998
20
56.947739799999994
10
187.77958379999998
20
56.9506862
10
187.7816412
20
56.953480199999994
10
187.78199679999997
20
56.9540136
10
187.78232699999998
20
56.95452159999999
10
187.8177346
20
57.014338599999995
10
187.8534724
20
57.073977799999994
10
187.8537772
20
57.07451119999999
10
187.85405659999998
20
57.075070000000004
10
187.8555552
20
57.0781942
10
187.8573078
20
57.081165999999996
10
187.85761259999998
20
57.08169939999999
10
187.857892
20
57.0822836
10
187.8872798
20
57.145275600000005
10
187.9169978
20
57.2081406
10
187.9172264
20
57.208673999999995
10
187.9174804
20
57.20928359999999
10
187.9186488
20
57.21253479999999
10
187.9200966
20
57.215684399999994
10
187.92035059999998
20
57.21621779999999
10
187.9205792
20
57.2168274
10
187.9436424
20
57.282410199999994
10
187.9670612
20
57.347865999999996
10
187.967239
20
57.34839939999999
10
187.9674168
20
57.34905979999999
10
187.96825499999997
20
57.3524126
10
187.96942339999998
20
57.35568919999999
10
187.9696012
20
57.3562734
10
187.969779
20
57.356882999999996
10
187.986289
20
57.4243962
10
188.00318
20
57.491833199999995
10
188.00333239999998
20
57.4924682
10
188.00343399999997
20
57.4930778
10
188.003942
20
57.49648139999999
10
188.00475479999997
20
57.499834199999995
10
188.0048818
20
57.5004184
10
188.00500879999998
20
57.50107879999999
10
188.0148386
20
57.5698874
10
188.025024
20
57.63867059999999
10
188.0251002
20
57.639229400000005
10
188.025151
20
57.6399152
10
188.02532879999998
20
57.64336959999999
10
188.02581139999998
20
57.6467732
10
188.02588759999998
20
57.647408199999994
10
188.0259384
20
57.6480178
10
188.02896099999998
20
57.717486799999996
10
188.0323646
20
57.786905000000004
10
188.03239
20
57.787286
10
188.03239
20
57.78754
10
188.03239
20
64.88175999999999
10
188.03239
20
64.882014
10
188.0323646
20
64.882395
10
188.02946899999998
20
64.9416024
10
188.02766559999998
20
65.000886
10
188.0276402
20
65.001521
10
188.02758939999998
20
65.0021306
10
188.0258368
20
65.0157196
10
188.025151
20
65.02938479999999
10
188.0251002
20
65.0300706
10
188.025024
20
65.0306294
10
188.0163372
20
65.0893034
10
188.0087426
20
65.1481044
10
188.00866639999998
20
65.1486632
10
188.008514
20
65.1493236
10
188.0054406
20
65.162684
10
188.00343399999997
20
65.1762222
10
188.00333239999998
20
65.1768318
10
188.00318
20
65.17746679999999
10
187.98877819999998
20
65.2349724
10
187.9754686
20
65.29275739999999
10
187.97529079999998
20
65.29341779999999
10
187.9751384
20
65.2939512
10
187.97074419999998
20
65.3069306
10
187.9674168
20
65.3202402
10
187.967239
20
65.3209006
10
187.9670612
20
65.321434
10
187.9470968
20
65.37726319999999
10
187.9281738
20
65.433448
10
187.92794519999998
20
65.43408299999999
10
187.9277166
20
65.4346164
10
187.92210319999998
20
65.4471132
10
187.9174804
20
65.4600164
10
187.9172264
20
65.46062599999999
10
187.9169978
20
65.4611594
10
187.8916486
20
65.51477879999999
10
187.8673154
20
65.56882999999999
10
187.86708679999998
20
65.56931259999999
10
187.86675659999997
20
65.5699476
10
187.859924
20
65.5818348
10
187.85405659999998
20
65.59423
10
187.8537772
20
65.5947888
10
187.8534724
20
65.5953222
10
187.82299239999998
20
65.64617299999999
10
187.7934776
20
65.697608
10
187.793122
20
65.6981922
10
187.79281719999997
20
65.6986494
10
187.7848416
20
65.7098254
10
187.77780579999998
20
65.7215602
10
187.7775264
20
65.7220174
10
187.77712
20
65.72260159999999
10
187.7417886
20
65.7702266
10
187.7073716
20
65.818512
10
187.70699059999998
20
65.8190454
10
187.7066096
20
65.81950259999999
10
187.69759259999998
20
65.829815
10
187.68943919999998
20
65.8408386
10
187.68908359999998
20
65.8412958
10
187.6886518
20
65.8418038
10
187.6488246
20
65.8857204
10
187.6098356
20
65.9304244
10
187.6094546
20
65.9308562
10
187.608972
20
65.93131340000001
10
187.59898979999997
20
65.9407114
10
187.58979499999998
20
65.950846
10
187.58936319999998
20
65.9513032
10
187.58890599999998
20
65.951735
10
187.5449894
20
65.99156219999999
10
187.5018094
20
66.03220219999999
10
187.50140299999998
20
66.03255779999999
10
187.5008696
20
66.03301499999999
10
187.4899984
20
66.0413716
10
187.47986379999998
20
66.0505918
10
187.4793558
20
66.0510236
10
187.47889859999998
20
66.0513792
10
187.4312736
20
66.0867106
10
187.384309
20
66.1229056
10
187.38385179999997
20
66.1232612
10
187.38329299999998
20
66.1236168
10
187.3716852
20
66.13090659999999
10
187.3606616
20
66.13905999999999
10
187.3600774
20
66.13946639999999
10
187.35962019999997
20
66.1397458
10
187.3087694
20
66.1702258
10
187.2585028
20
66.20167099999999
10
187.25794399999998
20
66.2020012
10
187.2574106
20
66.2022806
10
187.2451424
20
66.2083766
10
187.2333822
20
66.21541239999999
10
187.2328488
20
66.21571719999999
10
187.23228999999998
20
66.2159966
10
187.1786706
20
66.24137119999999
10
187.1255592
20
66.26771099999999
10
187.12497499999998
20
66.2679904
10
187.12441619999998
20
66.268219
10
187.1116146
20
66.2730704
10
187.09921939999998
20
66.2789378
10
187.098686
20
66.2791664
10
187.0980764
20
66.27942039999999
10
187.0422472
20
66.2993848
10
186.986799
20
66.320416
10
186.98616399999997
20
66.3206446
10
186.98560519999998
20
66.320797
10
186.9723972
20
66.3243784
10
186.959494
20
66.32900120000001
10
186.95896059999998
20
66.329179
10
186.9583002
20
66.3293568
10
186.90076919999998
20
66.34378399999999
10
186.84354299999998
20
66.35927799999999
10
186.8429334
20
66.359405
10
186.8423238
20
66.35953199999999
10
186.82881099999997
20
66.36179259999999
10
186.8155268
20
66.36511999999999
10
186.8148918
20
66.3652724
10
186.81428219999998
20
66.365374
10
186.75563359999998
20
66.3740862
10
186.6971628
20
66.38389059999999
10
186.69660399999998
20
66.3839668
10
186.6959182
20
66.38401759999999
10
186.68225299999997
20
66.38495739999999
10
186.66868939999998
20
66.38696399999999
10
186.66813059999998
20
66.38704019999999
10
186.6674448
20
66.387091
10
186.60823739999998
20
66.390012
10
186.5490808
20
66.3940252
10
186.5484712
20
66.39405059999999
10
186.54783619999998
20
66.39405059999999
10
186.5341202
20
66.3936442
10
186.520455
20
66.3943046
10
186.51981999999998
20
66.39433
10
186.519185
20
66.3943046
10
186.4599776
20
66.391409
10
186.400694
20
66.3896056
10
186.400059
20
66.3895802
10
186.3994494
20
66.38952939999999
10
186.38586039999998
20
66.3877768
10
186.37219519999996
20
66.387091
10
186.3715094
20
66.38704019999999
10
186.3709506
20
66.38696399999999
10
186.3122766
20
66.3782772
10
186.2534756
20
66.3706826
10
186.2529168
20
66.3706064
10
186.2522564
20
66.370454
10
186.23889599999998
20
66.36738059999999
10
186.22535779999998
20
66.365374
10
186.2247482
20
66.3652724
10
186.22411319999998
20
66.36511999999999
10
186.1666076
20
66.35071819999999
10
186.1088226
20
66.33740859999999
10
186.10816219999998
20
66.3372308
10
186.1076288
20
66.3370784
10
186.09464939999998
20
66.3326842
10
186.0813398
20
66.3293568
10
186.0806794
20
66.329179
10
186.08014599999998
20
66.32900120000001
10
186.02431679999998
20
66.3090368
10
185.968132
20
66.29011379999999
10
185.96749699999998
20
66.28988519999999
10
185.96696359999999
20
66.2896566
10
185.9544668
20
66.2840432
10
185.9415636
20
66.27942039999999
10
185.94095399999998
20
66.2791664
10
185.94042059999998
20
66.2789378
10
185.88680119999998
20
66.2535886
10
185.83275
20
66.2292554
10
185.8322674
20
66.22902679999999
10
185.8316324
20
66.2286966
10
185.81974519999997
20
66.221864
10
185.80734999999999
20
66.2159966
10
185.8067912
20
66.21571719999999
10
185.8062578
20
66.21541239999999
10
185.755407
20
66.1849324
10
185.703972
20
66.1554176
10
185.70338779999997
20
66.155062
10
185.70293059999997
20
66.1547572
10
185.69175459999997
20
66.1467816
10
185.6800198
20
66.1397458
10
185.6795626
20
66.13946639999999
10
185.6789784
20
66.13905999999999
10
185.6313534
20
66.1037286
10
185.583068
20
66.0693116
10
185.58253459999997
20
66.06893059999999
10
185.5820774
20
66.0685496
10
185.571765
20
66.0595326
10
185.56074139999998
20
66.0513792
10
185.56028419999998
20
66.0510236
10
185.5597762
20
66.0505918
10
185.51585959999997
20
66.0107646
10
185.47115559999997
20
65.9717756
10
185.47105399999998
20
65.97169939999999
10
185.47069839999997
20
65.9713692
10
184.35055839999998
20
64.8928344
10
183.1742336
20
64.0542026
10
181.8876474
20
63.394844
10
180.51891759999998
20
62.929389
10
179.0971018
20
62.66766739999999
10
177.5419868
20
62.6112794
10
177.5416566
20
62.611253999999995
10
177.5413518
20
62.61122859999999
10
177.495327
20
62.607291599999996
10
177.44917519999998
20
62.605031
10
177.4484894
20
62.6049802
10
177.44793059999998
20
62.604904
10
177.421413
20
62.600967
10
177.39469219999998
20
62.598681
10
177.394108
20
62.5986302
10
177.393473
20
62.598528599999995
10
177.3480324
20
62.59009579999999
10
177.30233779999998
20
62.583313999999994
10
177.30172819999999
20
62.5832124
10
177.3010932
20
62.58306
10
177.275109
20
62.576557599999994
10
177.2487438
20
62.5716554
10
177.24810879999998
20
62.57152839999999
10
177.2475246
20
62.571375999999994
10
177.2031508
20
62.5585236
10
177.1583198
20
62.5472968
10
177.1576594
20
62.547118999999995
10
177.15712599999998
20
62.54694119999999
10
177.13190379999998
20
62.5379242
10
177.10614819999998
20
62.530456599999994
10
177.1055386
20
62.5302788
10
177.10495439999997
20
62.53005019999999
10
177.06205379999997
20
62.512930600000004
10
177.0185436
20
62.497360400000005
10
177.017934
20
62.4971064
10
177.0174006
20
62.4968778
10
176.993169
20
62.48542239999999
10
176.96827699999997
20
62.475491000000005
10
176.9678198
20
62.4752878
10
176.967134
20
62.474957599999996
10
176.92611300000002
20
62.4536978
10
176.88432999999998
20
62.43393659999999
10
176.88377119999998
20
62.4336572
10
176.8832378
20
62.4333524
10
176.8602508
20
62.41958559999999
10
176.83645099999998
20
62.407241199999994
10
176.835943
20
62.4069618
10
176.8353588
20
62.4066316
10
176.7966238
20
62.381434799999994
10
176.7569998
20
62.35768579999999
10
176.7565426
20
62.3574064
10
176.7559584
20
62.357
10
176.7344192
20
62.3410234
10
176.71194020000002
20
62.3264184
10
176.7114068
20
62.326062799999995
10
176.7109242
20
62.3256818
10
176.67483079999997
20
62.296852799999996
10
176.63772139999998
20
62.26931919999999
10
176.63726419999998
20
62.2689636
10
176.63675619999998
20
62.2685318
10
176.61689339999998
20
62.250523199999996
10
176.5959638
20
62.2337846
10
176.5954558
20
62.2333528
10
176.595024
20
62.2329718
10
176.56192779999998
20
62.2007138
10
176.527714
20
62.169675
10
176.5272568
20
62.16924319999999
10
176.52682499999997
20
62.168786
10
176.5088164
20
62.14892319999999
10
176.489614
20
62.1302288
10
176.4891314
20
62.129720799999994
10
176.48877579999998
20
62.12931439999999
10
176.45900699999999
20
62.093982999999994
10
176.42796819999998
20
62.05974379999999
10
176.4275364
20
62.0592358
10
176.4271808
20
62.05877859999999
10
176.4112042
20
62.0372394
10
176.3939576
20
62.016741599999996
10
176.393602
20
62.0163098
10
176.39319559999998
20
62.015751
10
176.3670336
20
61.977651
10
176.3395
20
61.9405416
10
176.3390936
20
61.9399574
10
176.33881419999997
20
61.93950019999999
10
176.325022
20
61.91651319999999
10
176.3098582
20
61.8944152
10
176.3095534
20
61.89398339999999
10
176.3091978
20
61.8933738
10
176.28689659999998
20
61.8528862
10
176.2631476
20
61.8132622
10
176.2628428
20
61.812728799999995
10
176.2625634
20
61.812169999999995
10
176.2510826
20
61.7879384
10
176.23815399999998
20
61.7644434
10
176.2378746
20
61.763909999999996
10
176.2375952
20
61.763325800000004
10
176.21938339999997
20
61.720882399999994
10
176.1996222
20
61.67909939999999
10
176.19939359999998
20
61.678566
10
176.1991396
20
61.67795639999999
10
176.1901226
20
61.65270879999999
10
176.17953079999998
20
61.6280708
10
176.1793022
20
61.6274866
10
176.17909899999998
20
61.6269278
10
176.165129
20
61.5828842
10
176.1495588
20
61.539374
10
176.14938099999998
20
61.53884059999999
10
176.1492032
20
61.5381802
10
176.1426754
20
61.5121706
10
176.1345728
20
61.48661819999999
10
176.13439499999998
20
61.4860086
10
176.1342426
20
61.48542439999999
10
176.12466679999997
20
61.44021239999999
10
176.11344
20
61.395406799999996
10
176.1132876
20
61.3947718
10
176.11318599999998
20
61.3941622
10
176.109249
20
61.36766999999999
10
176.1036864
20
61.3414318
10
176.1035594
20
61.340745999999996
10
176.10348319999997
20
61.3402126
10
176.09837779999998
20
61.2942894
10
176.09159599999998
20
61.248569399999994
10
176.0915198
20
61.24801059999999
10
176.091469
20
61.2473248
10
176.0901482
20
61.22055319999999
10
176.08717639999998
20
61.19393399999999
10
176.0871256
20
61.193298999999996
10
176.08710019999998
20
61.1926894
10
176.086516
20
61.14648679999999
10
176.0842554
20
61.100334999999994
10
176.08423
20
61.0997
10
176.0842554
20
61.099064999999996
10
176.0855508
20
61.0722934
0
LWPOLYLINE
5
47
330
37
100
AcDbEntity
100
AcDbPolyline
8
0
6
ByLayer
62
256
370
-1
90
988
70
1
10
154.95143
20
56.400954
10
154.95143
20
56.400954
10
154.95143
20
56.40069999999999
10
154.95143
20
44.2849
10
154.95143
20
44.284645999999995
10
154.9514554
20
44.284265
10
154.9518872
20
44.2752226
10
154.951557
20
44.2661802
10
154.951557
20
44.265595999999995
10
154.9515824
20
44.2649356
10
154.9555194
20
44.2011308
10
154.958669
20
44.1372752
10
154.95871979999998
20
44.1365894
10
154.958796
20
44.1360306
10
154.9601168
20
44.1270644
10
154.96067559999997
20
44.118021999999996
10
154.9607264
20
44.117514
10
154.9607264
20
44.1174124
10
155.073731
20
43.103190399999995
10
155.0737564
20
43.1029872
10
155.07380719999998
20
43.1027078
10
155.0914348
20
42.9862488
10
155.0914856
20
42.9858932
10
155.0916126
20
42.985283599999995
10
155.11833339999998
20
42.8705772
10
155.11838419999998
20
42.870297799999996
10
155.118435
20
42.8700946
10
155.3887164
20
41.8860478
10
155.3887672
20
41.885895399999995
10
155.38886879999998
20
41.885565199999995
10
155.4244796
20
41.7733226
10
155.4246574
20
41.7728146
10
155.4248098
20
41.772382799999995
10
155.46913279999998
20
41.663264399999996
10
155.4691836
20
41.663162799999995
10
155.469336
20
41.662807199999996
10
155.890214
20
40.7331672
10
155.89031559999998
20
40.7329894
10
155.8904426
20
40.73271
10
155.943173
20
40.627427
10
155.9434016
20
40.626995199999996
10
155.9436556
20
40.626538
10
156.004514
20
40.5257254
10
156.0046664
20
40.5254714
10
156.00476799999998
20
40.5252936
10
156.56590479999997
20
39.672920399999995
10
156.5660318
20
39.672717199999994
10
156.5661842
20
39.67251399999999
10
156.63473879999998
20
39.576781399999994
10
156.6350436
20
39.5764004
10
156.6353738
20
39.575994
10
156.7112436
20
39.485900199999996
10
156.71131979999998
20
39.485798599999995
10
156.7115738
20
39.4855446
10
157.3991264
20
38.731444
10
157.39935499999999
20
38.73119
10
157.3994566
20
38.7310884
10
157.482159
20
38.647242999999996
10
157.4825654
20
38.646862
10
157.4828956
20
38.6465572
10
157.5719226
20
38.569468199999996
10
157.57210039999998
20
38.5693158
10
157.5723036
20
38.569137999999995
10
158.36935559999998
20
37.931902799999996
10
158.36950799999997
20
37.9317758
10
158.36976199999998
20
37.931598
10
158.4645548
20
37.86172259999999
10
158.46496119999998
20
37.8614178
10
158.46539299999998
20
37.8611638
10
158.56536739999999
20
37.7989338
10
158.5656468
20
37.798781399999996
10
158.5657992
20
37.7986798
10
159.45274179999998
20
37.2939818
10
159.45317359999999
20
37.2937278
10
159.45317359999999
20
37.2937278
10
159.5577454
20
37.2395496
10
159.55822799999999
20
37.239321
10
159.5586344
20
37.2391178
10
159.66714319999997
20
37.1933216
10
159.66747339999998
20
37.1931692
10
159.6676004
20
37.193118399999996
10
160.6225642
20
36.8333782
10
160.62284359999998
20
36.8332766
10
160.6230468
20
36.833200399999996
10
160.73478139999997
20
36.7960402
10
160.7353656
20
36.7958624
10
160.7357466
20
36.795786199999995
10
160.85007199999998
20
36.767490599999995
10
160.85019899999998
20
36.7674652
10
160.85055459999998
20
36.767389
10
161.8500446
20
36.5614458
10
161.85037479999997
20
36.561395
10
161.8505272
20
36.5613696
10
161.96673219999997
20
36.542141799999996
10
161.9671894
20
36.542065599999994
10
161.9677228
20
36.542014800000004
10
162.08504539999998
20
36.5319818
10
162.0851724
20
36.5319564
10
162.08555339999998
20
36.53193099999999
10
163.10495699999998
20
36.484890199999995
10
163.1052872
20
36.484890199999995
10
163.10556659999997
20
36.484890199999995
10
163.1398312
20
36.484991799999996
10
163.17404499999998
20
36.483315399999995
10
163.174426
20
36.48329
10
163.17468
20
36.48329
10
168.70105959999998
20
36.48329
10
168.91665479999998
20
36.4707932
10
169.06415259999997
20
36.4406688
10
169.205275
20
36.3898942
10
169.33763439999998
20
36.3193584
10
169.45846219999999
20
36.2305346
10
169.5652946
20
36.125277
10
169.6559218
20
36.00577
10
169.7284134
20
35.8744774
10
169.78129619999999
20
35.7341424
10
169.813478
20
35.5876606
10
169.82820999999998
20
35.3835462
10
169.82820999999998
20
27.574570199999997
10
169.82246959999998
20
27.5692616
10
169.82208859999997
20
27.568931399999997
10
169.8217584
20
27.568550399999996
10
169.7418246
20
27.482088799999996
10
169.7416722
20
27.4819364
10
169.741469
20
27.4817078
10
169.70420719999998
20
27.438070599999996
10
169.7041056
20
27.437943599999997
10
169.7039024
20
27.4376896
10
169.63097899999997
20
27.345182799999996
10
169.63069959999999
20
27.344827199999997
10
169.63039479999998
20
27.3443954
10
169.5649644
20
27.246453
10
169.5647104
20
27.246072
10
169.564685
20
27.246046599999996
10
169.53471299999998
20
27.197100799999998
10
169.534586
20
27.196922999999998
10
169.534459
20
27.196669
10
169.4769026
20
27.093925999999996
10
169.4766232
20
27.0933926
10
169.4764454
20
27.093036999999995
10
169.42714399999997
20
26.986077599999998
10
169.4270932
20
26.985925199999997
10
169.4269408
20
26.985620400000002
10
169.4049952
20
26.932610599999997
10
169.4048428
20
26.9322296
10
169.40481739999998
20
26.932127999999995
10
169.3640504
20
26.821638
10
169.36392339999998
20
26.821257
10
169.3637456
20
26.8206982
10
169.33176699999999
20
26.7073634
10
169.3317162
20
26.707134799999995
10
169.33164
20
26.7068808
10
169.31825419999998
20
26.651051599999995
10
169.3181526
20
26.650645199999996
10
169.3181272
20
26.650568999999997
10
169.2951656
20
26.5350752
10
169.2950894
20
26.5346688
10
169.2950132
20
26.534084599999996
10
169.2811702
20
26.417117599999997
10
169.2811448
20
26.4169398
10
169.2811194
20
26.416635
10
169.2766236
20
26.359408799999997
10
169.2765982
20
26.3590786
10
169.2765728
20
26.358926199999996
10
169.27195
20
26.241248
10
169.27195
20
26.240739999999995
10
169.27195
20
26.240232
10
169.2765728
20
26.122553799999995
10
169.2765982
20
26.122401399999998
10
169.2766236
20
26.122071199999997
10
169.2811194
20
26.064845000000002
10
169.2811448
20
26.064540199999996
10
169.2811702
20
26.0643624
10
169.2950132
20
25.9473954
10
169.2950894
20
25.9468112
10
169.2951656
20
25.946404799999996
10
169.3181272
20
25.830910999999997
10
169.3181526
20
25.830834799999998
10
169.31825419999998
20
25.830428399999995
10
169.33164
20
25.774599199999997
10
169.3317162
20
25.774345199999996
10
169.33176699999999
20
25.7741166
10
169.3637456
20
25.6607818
10
169.36392339999998
20
25.660223
10
169.3640504
20
25.659841999999998
10
169.40481739999998
20
25.549352000000003
10
169.4048428
20
25.5492504
10
169.4049952
20
25.548869399999997
10
169.4269408
20
25.495859599999996
10
169.4270932
20
25.4955548
10
169.42714399999997
20
25.4954024
10
169.4764454
20
25.388443
10
169.4766232
20
25.388087399999996
10
169.4769026
20
25.387553999999998
10
169.534459
20
25.284811
10
169.534586
20
25.284557
10
169.53471299999998
20
25.2843792
10
169.564685
20
25.235433399999998
10
169.5647104
20
25.235407999999996
10
169.5649644
20
25.235027
10
169.63039479999998
20
25.137084599999998
10
169.63069959999999
20
25.136652799999997
10
169.63097899999997
20
25.136297199999998
10
169.7039024
20
25.0437904
10
169.7041056
20
25.043536399999997
10
169.70420719999998
20
25.043409399999998
10
169.741469
20
24.9997722
10
169.7416722
20
24.9995436
10
169.7418246
20
24.999391199999998
10
169.8217584
20
24.9129296
10
169.82208859999997
20
24.9125486
10
169.82246959999998
20
24.912218399999997
10
169.90893119999998
20
24.832284599999998
10
169.90908359999997
20
24.8321322
10
169.9093122
20
24.831929
10
169.9529494
20
24.7946672
10
169.9530764
20
24.7945656
10
169.9533304
20
24.7943624
10
170.0458372
20
24.721438999999997
10
170.0461928
20
24.721159599999996
10
170.04662459999997
20
24.720854799999998
10
170.144567
20
24.6554244
10
170.144948
20
24.6551704
10
170.1449734
20
24.655144999999997
10
170.1939192
20
24.625173
10
170.19409699999997
20
24.625045999999998
10
170.19435099999998
20
24.624919
10
170.297094
20
24.5673626
10
170.29762739999998
20
24.5670832
10
170.297983
20
24.5669054
10
170.40494239999998
20
24.517604
10
170.4050948
20
24.5175532
10
170.40539959999998
20
24.517400799999997
10
170.4584094
20
24.4954552
10
170.45879039999997
20
24.495302799999997
10
170.458892
20
24.4952774
10
170.569382
20
24.454510399999997
10
170.569763
20
24.4543834
10
170.5703218
20
24.454205599999998
10
170.68365659999998
20
24.422227
10
170.6838852
20
24.4221762
10
170.68413919999998
20
24.4221
10
170.73996839999998
20
24.4087142
10
170.74037479999998
20
24.408612599999998
10
170.74045099999998
20
24.4085872
10
170.8559448
20
24.3856256
10
170.85635119999998
20
24.3855494
10
170.8569354
20
24.385473199999996
10
170.9739024
20
24.3716302
10
170.9740802
20
24.3716048
10
170.97438499999998
20
24.371579399999998
10
171.0316112
20
24.3670836
10
171.0319414
20
24.3670582
10
171.03209379999998
20
24.367032799999997
10
171.14977199999998
20
24.362409999999997
10
171.15027999999998
20
24.362409999999997
10
171.150788
20
24.362409999999997
10
171.2684662
20
24.367032799999997
10
171.2686186
20
24.3670582
10
171.2689488
20
24.3670836
10
171.32617499999998
20
24.371579399999998
10
171.3264798
20
24.3716048
10
171.32665759999998
20
24.3716302
10
171.4436246
20
24.385473199999996
10
171.44420879999998
20
24.3855494
10
171.4446152
20
24.3856256
10
171.56010899999998
20
24.4085872
10
171.56018519999998
20
24.408612599999998
10
171.5605916
20
24.4087142
10
171.6164208
20
24.4221
10
171.61667479999997
20
24.4221762
10
171.61690339999998
20
24.422227
10
171.7302382
20
24.454205599999998
10
171.730797
20
24.4543834
10
171.731178
20
24.454510399999997
10
171.841668
20
24.4952774
10
171.8417696
20
24.495302799999997
10
171.8421506
20
24.4954552
10
171.89516039999998
20
24.517400799999997
10
171.8954652
20
24.5175532
10
171.89561759999998
20
24.517604
10
172.00257699999997
20
24.5669054
10
172.00293259999998
20
24.5670832
10
172.003466
20
24.5673626
10
172.10620899999998
20
24.624919
10
172.106463
20
24.625045999999998
10
172.1066408
20
24.625173
10
172.1555866
20
24.655144999999997
10
172.155612
20
24.6551704
10
172.155993
20
24.6554244
10
172.2539354
20
24.720854799999998
10
172.2543672
20
24.721159599999996
10
172.2547228
20
24.721438999999997
10
172.3472296
20
24.7943624
10
172.34748359999998
20
24.7945656
10
172.34761059999997
20
24.7946672
10
172.39124779999997
20
24.831929
10
172.3914764
20
24.8321322
10
172.3916288
20
24.832284599999998
10
172.47809039999999
20
24.912218399999997
10
172.4784714
20
24.9125486
10
172.4788016
20
24.9129296
10
172.5587354
20
24.999391199999998
10
172.55888779999998
20
24.9995436
10
172.559091
20
24.9997722
10
172.59635279999998
20
25.043409399999998
10
172.5964544
20
25.043536399999997
10
172.5966576
20
25.0437904
10
172.669581
20
25.136297199999998
10
172.6698604
20
25.136652799999997
10
172.67016519999999
20
25.137084599999998
10
172.7355956
20
25.235027
10
172.7358496
20
25.235407999999996
10
172.735875
20
25.235433399999998
10
172.76584699999998
20
25.2843792
10
172.76597399999997
20
25.284557
10
172.766101
20
25.284811
10
172.8236574
20
25.387553999999998
10
172.82393679999998
20
25.388087399999996
10
172.8241146
20
25.388443
10
172.873416
20
25.4954024
10
172.8734668
20
25.4955548
10
172.87361919999998
20
25.495859599999996
10
172.8955648
20
25.548869399999997
10
172.89571719999998
20
25.5492504
10
172.89574259999998
20
25.549352000000003
10
172.9365096
20
25.659841999999998
10
172.93663659999999
20
25.660223
10
172.9368144
20
25.6607818
10
172.968793
20
25.7741166
10
172.96884379999997
20
25.774345199999996
10
172.96892
20
25.774599199999997
10
172.98230579999998
20
25.830428399999995
10
172.98240739999997
20
25.830834799999998
10
172.9824328
20
25.830910999999997
10
173.0053944
20
25.946404799999996
10
173.00547059999997
20
25.9468112
10
173.0055468
20
25.9473954
10
173.0193898
20
26.0643624
10
173.0194152
20
26.064540199999996
10
173.0194406
20
26.064845000000002
10
173.0239364
20
26.122071199999997
10
173.0239618
20
26.122401399999998
10
173.0239872
20
26.122553799999995
10
173.02861
20
26.240232
10
173.02861
20
26.240739999999995
10
173.02861
20
26.241248
10
173.0239872
20
26.358926199999996
10
173.0239618
20
26.3590786
10
173.0239364
20
26.359408799999997
10
173.0194406
20
26.416635
10
173.0194152
20
26.4169398
10
173.0193898
20
26.417117599999997
10
173.0055468
20
26.534084599999996
10
173.00547059999997
20
26.5346688
10
173.0053944
20
26.5350752
10
172.9824328
20
26.650568999999997
10
172.98240739999997
20
26.650645199999996
10
172.98230579999998
20
26.651051599999995
10
172.96892
20
26.7068808
10
172.96884379999997
20
26.707134799999995
10
172.968793
20
26.7073634
10
172.9368144
20
26.8206982
10
172.93663659999999
20
26.821257
10
172.9365096
20
26.821638
10
172.89574259999998
20
26.932127999999995
10
172.89571719999998
20
26.9322296
10
172.8955648
20
26.932610599999997
10
172.87361919999998
20
26.985620400000002
10
172.8734668
20
26.985925199999997
10
172.873416
20
26.986077599999998
10
172.85334999999998
20
27.029587799999998
10
172.85334999999998
20
44.77258
10
172.85334999999998
20
44.772833999999996
10
172.85332459999998
20
44.773215
10
172.846111
20
44.9202048
10
172.84606019999998
20
44.9208906
10
172.845984
20
44.9214494
10
172.82439399999998
20
45.067042199999996
10
172.8242924
20
45.06765179999999
10
172.82414
20
45.0682868
10
172.7883768
20
45.2110602
10
172.788199
20
45.2117206
10
172.7880212
20
45.212254
10
172.7384404
20
45.3508364
10
172.7381864
20
45.351445999999996
10
172.7379578
20
45.3519794
10
172.6750166
20
45.48505
10
172.6747372
20
45.4856088
10
172.6744324
20
45.486142199999996
10
172.5987658
20
45.6123802
10
172.59848639999998
20
45.6128374
10
172.59808
20
45.613421599999995
10
172.5103992
20
45.731658599999996
10
172.5100436
20
45.7321158
10
172.5096118
20
45.7326238
10
172.410755
20
45.841666
10
172.4103232
20
45.842123199999996
10
172.409866
20
45.842555
10
172.3008238
20
45.9414118
10
172.3003158
20
45.9418436
10
172.2998586
20
45.9421992
10
172.1816216
20
46.02988
10
172.1810374
20
46.0302864
10
172.18058019999998
20
46.0305658
10
172.0543422
20
46.1062324
10
172.05380879999998
20
46.1065372
10
172.05325
20
46.106816599999995
10
171.9201794
20
46.1697578
10
171.919646
20
46.1699864
10
171.91903639999998
20
46.1702404
10
171.780454
20
46.2198212
10
171.7799206
20
46.219998999999994
10
171.77926019999998
20
46.2201768
10
171.6364868
20
46.255939999999995
10
171.63585179999998
20
46.25609239999999
10
171.6352422
20
46.256194
10
171.4896494
20
46.277784
10
171.4890906
20
46.2778602
10
171.48840479999998
20
46.277910999999996
10
171.34141499999998
20
46.285124599999996
10
171.34078
20
46.285149999999994
10
171.340145
20
46.285124599999996
10
171.19315519999998
20
46.277910999999996
10
171.1924694
20
46.2778602
10
171.1919106
20
46.277784
10
171.0463178
20
46.256194
10
171.04570819999998
20
46.25609239999999
10
171.0450732
20
46.255939999999995
10
170.90229979999998
20
46.2201768
10
170.9016394
20
46.219998999999994
10
170.901106
20
46.2198212
10
170.7625236
20
46.1702404
10
170.761914
20
46.1699864
10
170.7613806
20
46.1697578
10
170.62831
20
46.106816599999995
10
170.6277512
20
46.1065372
10
170.62721779999998
20
46.1062324
10
170.50097979999998
20
46.0305658
10
170.50052259999998
20
46.0302864
10
170.4999384
20
46.02988
10
170.3817014
20
45.9421992
10
170.3812442
20
45.9418436
10
170.3807362
20
45.9414118
10
170.271694
20
45.842555
10
170.2712368
20
45.842123199999996
10
170.270805
20
45.841666
10
170.1719482
20
45.7326238
10
170.17151639999997
20
45.7321158
10
170.1711608
20
45.731658599999996
10
170.08347999999998
20
45.613421599999995
10
170.08307359999998
20
45.6128374
10
170.0827942
20
45.6123802
10
170.0071276
20
45.486142199999996
10
170.0068228
20
45.4856088
10
170.0065434
20
45.48505
10
169.9436022
20
45.3519794
10
169.9433736
20
45.351445999999996
10
169.9431196
20
45.3508364
10
169.8935388
20
45.212254
10
169.893361
20
45.2117206
10
169.89318319999998
20
45.2110602
10
169.85742
20
45.0682868
10
169.85726759999997
20
45.06765179999999
10
169.85716599999998
20
45.067042199999996
10
169.835576
20
44.9214494
10
169.83549979999998
20
44.9208906
10
169.835449
20
44.9202048
10
169.82823539999998
20
44.773215
10
169.82820999999998
20
44.772833999999996
10
169.82820999999998
20
44.77258
10
169.82820999999998
20
40.6057608
10
169.8135034
20
40.40250999999999
10
169.78132159999998
20
40.2566886
10
169.7283626
20
40.1164298
10
169.6557948
20
39.9852388
10
169.56514219999997
20
39.8658334
10
169.4583098
20
39.760652
10
169.3374566
20
39.6719298
10
169.20512259999998
20
39.601444799999996
10
169.06405099999998
20
39.550720999999996
10
168.91716279999997
20
39.520749
10
168.70166919999997
20
39.50843
10
163.20955419999999
20
39.50843
10
162.34392219999998
20
39.5483842
10
161.5776296
20
39.706270599999996
10
160.8454492
20
39.9820892
10
160.1654404
20
40.3690582
10
159.55434179999997
20
40.857627199999996
10
159.0271902
20
41.435781999999996
10
158.59699039999998
20
42.089273199999994
10
158.27430879999997
20
42.802048
10
158.0670956
20
43.5565042
10
157.97656999999998
20
44.3688978
10
157.97656999999998
20
56.29940479999999
10
158.05724039999998
20
56.8989718
10
158.220537
20
57.474358
10
158.4640468
20
58.0206104
10
158.7828168
20
58.52667999999999
10
159.17037
20
58.9822036
10
159.618807
20
59.377961
10
160.1190092
20
59.70584959999999
10
160.66076579999998
20
59.959239999999994
10
161.2330786
20
60.132925199999995
10
161.824289
20
60.2234
10
162.47826279999998
20
60.22934359999999
10
162.521265
20
60.22723539999999
10
162.52164599999998
20
60.22721
10
162.5219
20
60.22721
10
167.7399744
20
60.22721
10
168.0629862
20
60.1818202
10
168.3741616
20
60.093098
10
168.666287
20
59.96246579999999
10
168.93682239999998
20
59.7915746
10
169.18030679999998
20
59.5839296
10
169.3917618
20
59.34374719999999
10
169.5668694
20
59.075929599999995
10
169.702099
20
58.785886999999995
10
169.7946566
20
58.4795884
10
169.842688
20
58.163206
10
169.84598999999997
20
57.740956399999995
10
169.84598999999997
20
53.29682
10
169.84598999999997
20
53.296566
10
169.8460154
20
53.296185
10
169.85322899999997
20
53.149195199999994
10
169.8532798
20
53.1485094
10
169.853356
20
53.1479506
10
169.86249999999998
20
53.086177799999994
10
169.8734728
20
52.9040598
10
169.8734982
20
52.903881999999996
10
169.8735236
20
52.9035772
10
169.88520759999997
20
52.7863816
10
169.8852584
20
52.785873599999995
10
169.8853346
20
52.78539099999999
10
169.906188
20
52.6694908
10
169.90626419999998
20
52.669109799999994
10
169.9062896
20
52.668982799999995
10
169.99503719999998
20
52.266875399999996
10
169.99508799999998
20
52.2666976
10
169.99516419999998
20
52.2663928
10
170.0250346
20
52.152473799999996
10
170.025187
20
52.1519658
10
170.02533939999998
20
52.151534
10
170.06404899999998
20
52.040307399999996
10
170.06409979999998
20
52.04015499999999
10
170.0642268
20
52.03982479999999
10
170.21479799999997
20
51.6565642
10
170.2148488
20
51.6564118
10
170.2149758
20
51.6560816
10
170.2623214
20
51.5482586
10
170.26254999999998
20
51.54775059999999
10
170.2627532
20
51.5473442
10
170.31837919999998
20
51.443559799999996
10
170.3185062
20
51.4433566
10
170.3186332
20
51.443127999999994
10
170.5272942
20
51.0881122
10
170.52754819999998
20
51.08773119999999
10
170.52757359999998
20
51.087680399999996
10
170.59117519999998
20
50.988595
10
170.59148
20
50.988137800000004
10
170.5917594
20
50.98775679999999
10
170.66295559999998
20
50.8939546
10
170.6630318
20
50.893853
10
170.6632604
20
50.89357359999999
10
170.92490579999998
20
50.5755656
10
170.9249566
20
50.5755148
10
170.9252106
20
50.5751846
10
171.0035696
20
50.487249799999994
10
171.0038998
20
50.486868799999996
10
171.0042554
20
50.486538599999996
10
171.0892438
20
50.4050046
10
171.08954859999997
20
50.404725199999994
10
171.0896248
20
50.4046744
10
171.3977776
20
50.1315228
10
171.398057
20
50.1312688
10
171.3981586
20
50.13119259999999
10
171.484544
20
50.060478999999994
10
171.50577839999997
20
50.002947999999996
10
171.5058546
20
50.002744799999995
10
171.50595619999999
20
50.0024908
10
171.5346328
20
49.9332504
10
171.5347598
20
49.9329456
10
171.53483599999998
20
49.9327932
10
171.5841374
20
49.8258592
10
171.584366
20
49.82535119999999
10
171.5845946
20
49.824970199999996
10
171.64212559999999
20
49.7222018
10
171.6423796
20
49.72176999999999
10
171.68154639999997
20
49.657889
10
171.6816988
20
49.6576096
10
171.6818004
20
49.657457199999996
10
171.74723079999998
20
49.559540199999994
10
171.7475356
20
49.5591084
10
171.747815
20
49.558727399999995
10
171.82073839999998
20
49.466246
10
171.8209416
20
49.465992
10
171.8210432
20
49.465865
10
171.8697096
20
49.4088928
10
171.8697858
20
49.4088166
10
171.87003979999997
20
49.4085118
10
171.949999
20
49.3220248
10
171.9503292
20
49.321669199999995
10
171.9506848
20
49.321339
10
172.03717179999998
20
49.2413798
10
172.0374766
20
49.2411258
10
172.0375528
20
49.2410496
10
172.094525
20
49.1923832
10
172.094652
20
49.192281599999994
10
172.09490599999998
20
49.1920784
10
172.18738739999998
20
49.11915499999999
10
172.18776839999998
20
49.118875599999996
10
172.18820019999998
20
49.1185708
10
172.28611719999998
20
49.0531404
10
172.2862696
20
49.053038799999996
10
172.286549
20
49.0528864
10
172.35043
20
49.013719599999995
10
172.3508872
20
49.013465599999996
10
172.3508618
20
49.013465599999996
10
172.4536302
20
48.9559346
10
172.4540112
20
48.95570599999999
10
172.4545192
20
48.9554774
10
172.5614532
20
48.906175999999995
10
172.5616056
20
48.9060998
10
172.5619104
20
48.9059728
10
172.6311508
20
48.877296199999996
10
172.63140479999998
20
48.877194599999996
10
172.631608
20
48.8771184
10
172.74209799999997
20
48.8363514
10
172.7425806
20
48.83619899999999
10
172.74303779999997
20
48.836046599999996
10
172.85639799999998
20
48.804067999999994
10
172.8566012
20
48.8040172
10
172.85688059999998
20
48.8039664
10
172.9297278
20
48.7864658
10
172.9300834
20
48.7863896
10
172.9302358
20
48.786364199999994
10
173.0457296
20
48.7633772
10
173.0460852
20
48.763301
10
173.04672019999998
20
48.763224799999996
10
173.16366179999997
20
48.7493818
10
173.163865
20
48.749356399999996
10
173.1641698
20
48.749331
10
173.23887119999998
20
48.7434636
10
173.23920139999998
20
48.7434382
10
173.23935379999998
20
48.7434128
10
173.35703199999998
20
48.738789999999995
10
173.35754
20
48.738789999999995
10
173.358048
20
48.738789999999995
10
173.4757262
20
48.7434128
10
173.4758786
20
48.7434382
10
173.4762088
20
48.7434636
10
173.5509102
20
48.749331
10
173.55121499999998
20
48.749356399999996
10
173.5514182
20
48.7493818
10
173.6683598
20
48.763224799999996
10
173.66899479999998
20
48.763301
10
173.66935039999998
20
48.7633772
10
173.7848442
20
48.786364199999994
10
173.7849966
20
48.7863896
10
173.78535219999998
20
48.7864658
10
173.8581994
20
48.8039664
10
173.85847879999997
20
48.8040172
10
173.858682
20
48.804067999999994
10
173.9720422
20
48.836046599999996
10
173.9724994
20
48.83619899999999
10
173.972982
20
48.8363514
10
174.08347199999997
20
48.8771184
10
174.0836752
20
48.877194599999996
10
174.08392919999997
20
48.877296199999996
10
174.15316959999998
20
48.9059728
10
174.1534744
20
48.9060998
10
174.1536268
20
48.906175999999995
10
174.26056079999998
20
48.9554774
10
174.2610688
20
48.95570599999999
10
174.2614498
20
48.9559346
10
174.36421819999998
20
49.013465599999996
10
174.36464999999998
20
49.013719599999995
10
174.428531
20
49.0528864
10
174.4288104
20
49.053038799999996
10
174.4289628
20
49.0531404
10
174.5268798
20
49.1185708
10
174.5273116
20
49.118875599999996
10
174.5276926
20
49.11915499999999
10
174.620174
20
49.1920784
10
174.62042799999998
20
49.192281599999994
10
174.620555
20
49.1923832
10
174.67752720000001
20
49.2410496
10
174.67760339999998
20
49.2411258
10
174.6779082
20
49.2413798
10
174.7643952
20
49.321339
10
174.7647508
20
49.321669199999995
10
174.76508099999998
20
49.3220248
10
174.8450402
20
49.4085118
10
174.84529419999998
20
49.4088166
10
174.8453704
20
49.4088928
10
174.89403679999998
20
49.465865
10
174.89413839999997
20
49.465992
10
174.8943416
20
49.466246
10
174.96726499999997
20
49.558727399999995
10
174.9675444
20
49.5591084
10
174.9678492
20
49.559540199999994
10
175.0332796
20
49.657457199999996
10
175.0333812
20
49.6576096
10
175.0335336
20
49.657889
10
175.0727004
20
49.72176999999999
10
175.07295440000001
20
49.7222272
10
175.07295440000001
20
49.7222018
10
175.1004118
20
49.7712492
10
175.10414559999998
20
49.7753894
10
175.1045012
20
49.7757958
10
175.104933
20
49.7763546
10
175.19246139999998
20
49.89466779999999
10
175.1927916
20
49.89515039999999
10
175.1931472
20
49.8957092
10
175.26866139999998
20
50.02204879999999
10
175.2689662
20
50.022582199999995
10
175.26924559999998
20
50.0231664
10
175.33200899999997
20
50.1562878
10
175.3322884
20
50.1569228
10
175.33249159999997
20
50.1574562
10
175.38191999999998
20
50.2960894
10
175.3821232
20
50.296724399999995
10
175.38227559999999
20
50.297283199999995
10
175.417861
20
50.440107399999995
10
175.417988
20
50.44071699999999
10
175.4180896
20
50.4413266
10
175.4395018
20
50.5869448
10
175.43957799999998
20
50.5875036
10
175.4396288
20
50.5881894
10
175.4466646
20
50.735229999999994
10
175.44669
20
50.7358142
10
175.4466646
20
50.736474599999994
10
175.4392732
20
50.8834644
10
175.43922239999998
20
50.8841248
10
175.4391462
20
50.884708999999994
10
175.417353
20
51.03027639999999
10
175.4172514
20
51.0308606
10
175.41712439999998
20
51.03149559999999
10
175.3811834
20
51.17424359999999
10
175.381031
20
51.17475159999999
10
175.3808278
20
51.1754374
10
175.33104379999997
20
51.313943599999995
10
175.3308406
20
51.314477000000004
10
175.33058659999998
20
51.315112
10
175.26749299999997
20
51.448080999999995
10
175.2672136
20
51.448639799999995
10
175.26688339999998
20
51.449173200000004
10
175.1910644
20
51.575334999999995
10
175.1907342
20
51.575868400000004
10
175.1903786
20
51.576376399999994
10
175.1025454
20
51.6944864
10
175.1021898
20
51.694943599999995
10
175.101758
20
51.6954516
10
175.0851972
20
51.713663399999994
10
175.07295440000001
20
51.7355582
10
175.0727004
20
51.735989999999994
10
175.0335336
20
51.799870999999996
10
175.0333812
20
51.80015039999999
10
175.0332796
20
51.80030279999999
10
174.9678492
20
51.8982198
10
174.9675444
20
51.8986516
10
174.96726499999997
20
51.8990326
10
174.8943416
20
51.991513999999995
10
174.89413839999997
20
51.991768
10
174.89403679999998
20
51.99189499999999
10
174.8453704
20
52.0488672
10
174.84529419999998
20
52.04894339999999
10
174.8450402
20
52.0492482
10
174.76508099999998
20
52.1357352
10
174.7647508
20
52.13609079999999
10
174.7643952
20
52.13642099999999
10
174.6779082
20
52.21638019999999
10
174.67760339999998
20
52.216634199999994
10
174.67752720000001
20
52.21671039999999
10
174.620555
20
52.26537679999999
10
174.62042799999998
20
52.2654784
10
174.620174
20
52.2656816
10
174.5276926
20
52.338605
10
174.5273116
20
52.33888439999999
10
174.5268798
20
52.3391892
10
174.4289628
20
52.4046196
10
174.4288104
20
52.404721200000004
10
174.428531
20
52.4048736
10
174.36464999999998
20
52.44404039999999
10
174.36419279999998
20
52.4442944
10
174.36421819999998
20
52.4442944
10
174.2614498
20
52.501825399999994
10
174.2610688
20
52.502053999999994
10
174.26056079999998
20
52.5022826
10
174.1536268
20
52.551584
10
174.1534744
20
52.5516602
10
174.15316959999998
20
52.55178719999999
10
174.08392919999997
20
52.5804638
10
174.0836752
20
52.580565400000005
10
174.08347199999997
20
52.5806416
10
173.972982
20
52.621408599999995
10
173.9724994
20
52.621561
10
173.9720422
20
52.6217134
10
173.858682
20
52.65369199999999
10
173.85847879999997
20
52.653742799999996
10
173.8581994
20
52.65379359999999
10
173.78535219999998
20
52.67129419999999
10
173.7849966
20
52.671370399999994
10
173.7848442
20
52.6713958
10
173.66935039999998
20
52.69438279999999
10
173.66899479999998
20
52.694458999999995
10
173.6683598
20
52.6945352
10
173.5514182
20
52.7083782
10
173.55121499999998
20
52.70840359999999
10
173.5509102
20
52.708428999999995
10
173.4762088
20
52.714296399999995
10
173.4758786
20
52.71432179999999
10
173.4757262
20
52.7143472
10
173.358048
20
52.71896999999999
10
173.35754
20
52.71896999999999
10
173.35703199999998
20
52.71896999999999
10
173.23935379999998
20
52.7143472
10
173.23920139999998
20
52.71432179999999
10
173.23887119999998
20
52.714296399999995
10
173.1641698
20
52.708428999999995
10
173.163865
20
52.70840359999999
10
173.16366179999997
20
52.7083782
10
173.0942944
20
52.70017399999999
10
173.074965
20
52.723668999999994
10
172.986954
20
52.87342739999999
10
172.9234286
20
53.0351238
10
172.885989
20
53.204744999999996
10
172.87113
20
53.4515314
10
172.87113
20
57.7469
10
172.87113
20
57.747153999999995
10
172.8711046
20
57.74753499999999
10
172.8708506
20
57.7528436
10
172.8710792
20
57.7581522
10
172.8710792
20
57.7584062
10
172.8710792
20
57.758761799999995
10
172.86688819999998
20
58.295108199999994
10
172.86686279999998
20
58.29554
10
172.86683739999998
20
58.2960226
10
172.84989559999997
20
58.5093572
10
172.8498448
20
58.5097636
10
172.849794
20
58.5102462
10
172.7693014
20
59.0405474
10
172.7691998
20
59.04113159999999
10
172.7691236
20
59.0414364
10
172.7220066
20
59.250199
10
172.721905
20
59.2506054
10
172.72175259999997
20
59.2510626
10
172.5666094
20
59.7644982
10
172.56648239999998
20
59.7649046
10
172.56633
20
59.7653618
10
172.4899522
20
59.965285200000004
10
172.4897998
20
59.965717
10
172.4895966
20
59.966123399999994
10
172.2629778
20
60.452253999999996
10
172.2626984
20
60.452762
10
172.26254600000001
20
60.45304139999999
10
172.15853299999998
20
60.640061599999996
10
172.1583552
20
60.64034099999999
10
172.15805039999998
20
60.640848999999996
10
171.864528
20
61.08976859999999
10
171.864274
20
61.09014959999999
10
171.86401999999998
20
61.090505199999996
10
171.7344292
20
61.260812200000004
10
171.7340482
20
61.261269399999996
10
171.73384499999997
20
61.2615234
10
171.37941339999998
20
61.6641134
10
171.379134
20
61.66441819999999
10
171.3788038
20
61.6647738
10
171.2262768
20
61.8148878
10
171.2258958
20
61.81524339999999
10
171.22561639999998
20
61.8154974
10
170.81751459999998
20
62.16355359999999
10
170.81710819999998
20
62.1638838
10
170.8168034
20
62.16411239999999
10
170.6444644
20
62.2910108
10
170.64408339999997
20
62.2912902
10
170.6437278
20
62.29151879999999
10
170.1902362
20
62.57792919999999
10
170.18982979999998
20
62.5781832
10
170.18944879999998
20
62.57838639999999
10
170.0008284
20
62.6794784
10
170.00049819999998
20
62.6796308
10
170.00001559999998
20
62.679884799999996
10
169.5103798
20
62.8988328
10
169.50994799999998
20
62.899035999999995
10
169.5095416
20
62.89918839999999
10
169.3084498
20
62.9723912
10
169.3079926
20
62.972543599999995
10
169.30758619999997
20
62.9726706
10
168.79176299999997
20
63.11971119999999
10
168.79140739999997
20
63.11981279999999
10
168.7908994
20
63.1199398
10
168.588436
20
63.162814999999995
10
168.58802959999997
20
63.16289119999999
10
168.58757239999997
20
63.162942
10
168.05625519999998
20
63.23761799999999
10
168.05577259999998
20
63.23769419999999
10
168.0556202
20
63.23769419999999
10
168.0250132
20
63.2404882
10
167.99460939999997
20
63.244983999999995
10
167.9940506
20
63.2450602
10
167.9933648
20
63.245111
10
167.95115
20
63.2471938
10
167.90903679999997
20
63.2510038
10
167.90842719999998
20
63.251054599999996
10
167.9077922
20
63.251054599999996
10
167.8770582
20
63.250825999999996
10
167.846375
20
63.252324599999994
10
167.845994
20
63.25235
10
167.84574
20
63.25235
10
162.56535939999998
20
63.25235
10
162.503739
20
63.254813799999994
10
162.50348499999998
20
63.254813799999994
10
162.50310399999998
20
63.2548392
10
161.68870379999998
20
63.2474478
10
161.68827199999998
20
63.2474224
10
161.68778939999999
20
63.24739699999999
10
161.4744802
20
63.230201199999996
10
161.47407379999999
20
63.2301758
10
161.4735912
20
63.2300996
10
160.6685128
20
63.10688419999999
10
160.6681064
20
63.1068334
10
160.6675984
20
63.10673179999999
10
160.458912
20
63.0593354
10
160.45835319999998
20
63.059208399999996
10
160.4580484
20
63.05910679999999
10
159.67870019999998
20
62.82258199999999
10
159.6782684
20
62.82242959999999
10
159.67783659999998
20
62.822277199999995
10
159.47801479999998
20
62.7456708
10
159.47753219999998
20
62.745493
10
159.47717659999998
20
62.7453152
10
158.73943359999998
20
62.4002816
10
158.7389256
20
62.4000276
10
158.7386208
20
62.399875200000004
10
158.5517276
20
62.295608200000004
10
158.5513466
20
62.29537959999999
10
158.55096559999998
20
62.295151
10
157.8698138
20
61.848619
10
157.8694582
20
61.84839039999999
10
157.8690772
20
61.848110999999996
10
157.69894799999997
20
61.71831699999999
10
157.6985924
20
61.7180376
10
157.6982368
20
61.7177328
10
157.08757
20
61.178821
10
157.0872652
20
61.178541599999996
10
157.08690959999998
20
61.178211399999995
10
156.93697339999997
20
61.025532
10
156.9366178
20
61.025151
10
156.93636379999998
20
61.0248462
10
156.4086026
20
60.4045274
10
156.40829779999999
20
60.404146399999995
10
156.4080438
20
60.403816199999994
10
156.2813486
20
60.231350199999994
10
156.2810946
20
60.2309438
10
156.2808406
20
60.2305882
10
155.8467546
20
59.54146079999999
10
155.846526
20
59.54107979999999
10
155.8462974
20
59.540673399999996
10
155.745434
20
59.35192599999999
10
155.7452816
20
59.3516212
10
155.74505299999998
20
59.35111319999999
10
155.4134306
20
58.607223399999995
10
155.41322739999998
20
58.6067154
10
155.4131004
20
58.6063852
10
155.3401262
20
58.4052172
10
155.3399992
20
58.404785399999994
10
155.3398468
20
58.40435359999999
10
155.1174952
20
57.62083979999999
10
155.1173682
20
57.620408
10
155.1172666
20
57.619976199999996
10
155.07368019999998
20
57.4104516
10
155.073604
20
57.4100198
10
155.0735278
20
57.4095626
10
154.9649428
20
56.602376
10
154.964892
20
56.6019696
10
154.9648666
20
56.6017664
10
154.9626568
20
56.575579
10
154.958796
20
56.54956939999999
10
154.95871979999998
20
56.549010599999995
10
154.958669
20
56.548324799999996
10
154.956383
20
56.501664999999996
10
154.95242059999998
20
56.455106799999996
10
154.9523952
20
56.45442099999999
10
154.95236979999999
20
56.45386219999999
10
154.9527254
20
56.4275732
10
154.9514554
20
56.401334999999996
10
154.95143
20
56.400954
0
ENDSEC
0
SECTION
2
OBJECTS
0
DICTIONARY
5
27
330
0
100
AcDbDictionary
281
1
3
ACAD_GROUP
350
3B
0
DICTIONARY
5
3B
330
27
100
AcDbDictionary
281
1
0
ENDSEC
0
EOF